<?xml version="1.0" encoding="UTF-8" standalone="no"?>
<svg
   xmlns:dc="http://purl.org/dc/elements/1.1/"
   xmlns:cc="http://creativecommons.org/ns#"
   xmlns:rdf="http://www.w3.org/1999/02/22-rdf-syntax-ns#"
   xmlns:svg="http://www.w3.org/2000/svg"
   xmlns="http://www.w3.org/2000/svg"
   xmlns:sodipodi="http://sodipodi.sourceforge.net/DTD/sodipodi-0.dtd"
   xmlns:inkscape="http://www.inkscape.org/namespaces/inkscape"
   version="1.1"
   id="svg2"
   viewBox="0 0 1240.1575 992.12596"
   height="280mm"
   width="350mm"
   inkscape:version="0.91 r13725"
   sodipodi:docname="CutTwo.svg">
  <sodipodi:namedview
     pagecolor="#ffffff"
     bordercolor="#666666"
     borderopacity="1"
     objecttolerance="10"
     gridtolerance="10"
     guidetolerance="10"
     inkscape:pageopacity="0"
     inkscape:pageshadow="2"
     inkscape:window-width="1366"
     inkscape:window-height="744"
     id="namedview43"
     showgrid="false"
     inkscape:zoom="0.084100811"
     inkscape:cx="92.490696"
     inkscape:cy="763.59091"
     inkscape:window-x="0"
     inkscape:window-y="1"
     inkscape:window-maximized="1"
     inkscape:current-layer="svg2" />
  <defs
     id="defs4" />
  <metadata
     id="metadata7">
    <rdf:RDF>
      <cc:Work
         rdf:about="">
        <dc:format>image/svg+xml</dc:format>
        <dc:type
           rdf:resource="http://purl.org/dc/dcmitype/StillImage" />
        <dc:title></dc:title>
      </cc:Work>
    </rdf:RDF>
  </metadata>
  <g
     transform="translate(0,744.09449)"
     id="layer5"
     style="display:inline;opacity:0.23699999" />
  <path
     inkscape:connector-curvature="0"
     style="fill:none;fill-rule:evenodd;stroke:#000000;stroke-width:0.00359594;stroke-linecap:butt;stroke-linejoin:miter;stroke-miterlimit:4;stroke-dasharray:none;stroke-opacity:1"
     d="m 31.272135,754.35592 -7.633633,-0.0146 c 0,0 -12.853599,1.4086 -12.853599,17.94261 l 0,3.35139 c 0,2.19044 2.275162,1.89434 2.275162,1.89434 l 17.484358,-0.22303 c 1.560796,0 3.592819,-1.52951 3.592819,-3.51142 l -0.118657,-17.086 c 0,0 -0.261792,-2.34846 -2.74645,-2.35323 z"
     id="path4210" />
  <path
     inkscape:connector-curvature="0"
     style="fill:none;stroke:#000000;stroke-width:0.00359594;stroke-linejoin:round;stroke-miterlimit:4;stroke-dasharray:none;stroke-opacity:1"
     d="m 225.73846,744.09627 -203.445426,0 c -12.3493371,0 -22.29123602,9.94189 -22.29123602,22.29123 l 0,203.44538 c 0,12.3494 7.65847712,22.2913 20.00781302,22.2913 l 184.903489,0 c 2.9341,-3.0796 -0.0232,-18.2776 9.04481,-19.4145 8.84961,-0.8366 6.5172,19.4145 13.75398,19.4145 16.81344,-0.2537 20.31781,-5.2516 20.31781,-19.7796 0,-7.448 -16.66537,-7.0937 -16.66537,-15.1915 0,-7.137 16.66537,-6.1048 16.66537,-10.4904 l 0,-180.27518 c 0,-12.34934 -9.94189,-22.29123 -22.29124,-22.29123 z"
     id="rect4181" />
  <path
     id="path4164"
     d="m 279.30363,754.35592 -7.63363,-0.0146 c 0,0 -12.8536,1.4086 -12.8536,17.94261 l 0,3.35139 c 0,2.19044 2.27516,1.89434 2.27516,1.89434 l 17.48436,-0.22303 c 1.5608,0 3.59282,-1.52951 3.59282,-3.51142 l -0.11866,-17.086 c 0,0 -0.26179,-2.34846 -2.74645,-2.35323 z"
     style="fill:none;fill-rule:evenodd;stroke:#000000;stroke-width:0.00359594;stroke-linecap:butt;stroke-linejoin:miter;stroke-miterlimit:4;stroke-dasharray:none;stroke-opacity:1"
     inkscape:connector-curvature="0" />
  <path
     id="path4166"
     d="m 473.76996,744.09627 -203.44543,0 c -12.34934,0 -22.29124,9.94189 -22.29124,22.29123 l 0,203.44538 c 0,12.3494 7.65848,22.2913 20.00782,22.2913 l 184.90349,0 c 2.9341,-3.0796 -0.0232,-18.2776 9.04481,-19.4145 8.84961,-0.8366 6.5172,19.4145 13.75398,19.4145 16.81344,-0.2537 20.31781,-5.2516 20.31781,-19.7796 0,-7.448 -16.66537,-7.0937 -16.66537,-15.1915 0,-7.137 16.66537,-6.1048 16.66537,-10.4904 l 0,-180.27518 c 0,-12.34934 -9.94189,-22.29123 -22.29124,-22.29123 z"
     style="fill:none;stroke:#000000;stroke-width:0.00359594;stroke-linejoin:round;stroke-miterlimit:4;stroke-dasharray:none;stroke-opacity:1"
     inkscape:connector-curvature="0" />
  <path
     id="path4168"
     d="m 527.33513,754.35592 -7.63364,-0.0146 c 0,0 -12.85359,1.4086 -12.85359,17.94261 l 0,3.35139 c 0,2.19044 2.27516,1.89434 2.27516,1.89434 l 17.48436,-0.22303 c 1.56079,0 3.59281,-1.52951 3.59281,-3.51142 l -0.11865,-17.086 c 0,0 -0.26179,-2.34846 -2.74645,-2.35323 z"
     style="fill:none;fill-rule:evenodd;stroke:#000000;stroke-width:0.00359594;stroke-linecap:butt;stroke-linejoin:miter;stroke-miterlimit:4;stroke-dasharray:none;stroke-opacity:1"
     inkscape:connector-curvature="0" />
  <path
     id="path4170"
     d="m 721.80145,744.09627 -203.44542,0 c -12.34934,0 -22.29124,9.94189 -22.29124,22.29123 l 0,203.44538 c 0,12.3494 7.65848,22.2913 20.00781,22.2913 l 184.90349,0 c 2.9341,-3.0796 -0.0232,-18.2776 9.04481,-19.4145 8.84961,-0.8366 6.5172,19.4145 13.75398,19.4145 16.81344,-0.2537 20.31781,-5.2516 20.31781,-19.7796 0,-7.448 -16.66537,-7.0937 -16.66537,-15.1915 0,-7.137 16.66537,-6.1048 16.66537,-10.4904 l 0,-180.27518 c 0,-12.34934 -9.94189,-22.29123 -22.29124,-22.29123 z"
     style="fill:none;stroke:#000000;stroke-width:0.00359594;stroke-linejoin:round;stroke-miterlimit:4;stroke-dasharray:none;stroke-opacity:1"
     inkscape:connector-curvature="0" />
  <path
     inkscape:connector-curvature="0"
     style="fill:none;fill-rule:evenodd;stroke:#000000;stroke-width:0.00359594;stroke-linecap:butt;stroke-linejoin:miter;stroke-miterlimit:4;stroke-dasharray:none;stroke-opacity:1"
     d="m 775.36662,754.35592 -7.63363,-0.0146 c 0,0 -12.8536,1.4086 -12.8536,17.94261 l 0,3.35139 c 0,2.19044 2.27516,1.89434 2.27516,1.89434 l 17.48436,-0.22303 c 1.5608,0 3.59282,-1.52951 3.59282,-3.51142 l -0.11866,-17.086 c 0,0 -0.26179,-2.34846 -2.74645,-2.35323 z"
     id="path4172" />
  <path
     inkscape:connector-curvature="0"
     style="fill:none;stroke:#000000;stroke-width:0.00359594;stroke-linejoin:round;stroke-miterlimit:4;stroke-dasharray:none;stroke-opacity:1"
     d="m 969.83295,744.09627 -203.44543,0 c -12.34934,0 -22.29124,9.94189 -22.29124,22.29123 l 0,203.44538 c 0,12.3494 7.65848,22.2913 20.00782,22.2913 l 184.90349,0 c 2.9341,-3.0796 -0.0232,-18.2776 9.04481,-19.4145 8.84961,-0.8366 6.5172,19.4145 13.75398,19.4145 16.81344,-0.2537 20.31781,-5.2516 20.31781,-19.7796 0,-7.448 -16.66537,-7.0937 -16.66537,-15.1915 0,-7.137 16.66537,-6.1048 16.66537,-10.4904 l 0,-180.27518 c 0,-12.34934 -9.94189,-22.29123 -22.29124,-22.29123 z"
     id="path4174" />
  <g
     transform="translate(0,744.09449)"
     id="layer3">
    <path
       d=""
       style="fill:none;stroke:#000000;stroke-width:0.30101201"
       id="path5329"
       inkscape:connector-curvature="0" />
    <path
       d=""
       style="fill:none;stroke:#000000;stroke-width:0.30101201"
       id="path5341"
       inkscape:connector-curvature="0" />
    <path
       d=""
       style="fill:none;stroke:#000000;stroke-width:0.30101201"
       id="path5357"
       inkscape:connector-curvature="0" />
    <path
       id="path5719"
       style="fill:none;stroke:#000000;stroke-width:0.28793129"
       d=""
       inkscape:connector-curvature="0" />
    <path
       id="path5723"
       style="fill:none;stroke:#000000;stroke-width:0.28793129"
       d=""
       inkscape:connector-curvature="0" />
    <path
       id="path5731"
       style="fill:none;stroke:#000000;stroke-width:0.28793129"
       d=""
       inkscape:connector-curvature="0" />
    <path
       id="path5735"
       style="fill:none;stroke:#000000;stroke-width:0.28793129"
       d=""
       inkscape:connector-curvature="0" />
    <path
       id="path5745"
       style="fill:none;stroke:#000000;stroke-width:0.28793129"
       d=""
       inkscape:connector-curvature="0" />
    <path
       d=""
       style="fill:none;stroke:#000000;stroke-width:0.28324676"
       id="path6153"
       inkscape:connector-curvature="0" />
    <path
       d=""
       style="fill:none;stroke:#000000;stroke-width:0.28324676"
       id="path6167"
       inkscape:connector-curvature="0" />
    <path
       d=""
       style="fill:none;stroke:#000000;stroke-width:0.28324676"
       id="path6173"
       inkscape:connector-curvature="0" />
    <path
       d=""
       style="fill:none;stroke:#000000;stroke-width:0.28324676"
       id="path6179"
       inkscape:connector-curvature="0" />
    <path
       d=""
       style="fill:none;stroke:#000000;stroke-width:0.28324676"
       id="path6189"
       inkscape:connector-curvature="0" />
    <path
       d=""
       style="fill:none;stroke:#000000;stroke-width:0.28324676"
       id="path6197"
       inkscape:connector-curvature="0" />
    <path
       d=""
       style="fill:none;stroke:#000000;stroke-width:0.28324676"
       id="path6207"
       inkscape:connector-curvature="0" />
    <path
       d=""
       style="fill:none;stroke:#000000;stroke-width:0.28324676"
       id="path6215"
       inkscape:connector-curvature="0" />
    <path
       d=""
       style="fill:none;stroke:#000000;stroke-width:0.28324676"
       id="path6223"
       inkscape:connector-curvature="0" />
    <path
       d=""
       style="fill:none;stroke:#000000;stroke-width:0.28324676"
       id="path6233"
       inkscape:connector-curvature="0" />
    <path
       d=""
       style="fill:none;stroke:#000000;stroke-width:0.28324676"
       id="path6245"
       inkscape:connector-curvature="0" />
    <path
       d=""
       style="fill:none;stroke:#000000;stroke-width:0.28324676"
       id="path6251"
       inkscape:connector-curvature="0" />
    <path
       d=""
       style="fill:none;stroke:#000000;stroke-width:0.28324676"
       id="path6261"
       inkscape:connector-curvature="0" />
    <path
       d=""
       style="fill:none;stroke:#000000;stroke-width:0.28324676"
       id="path6267"
       inkscape:connector-curvature="0" />
    <path
       d=""
       style="fill:none;stroke:#000000;stroke-width:0.28324676"
       id="path6279"
       inkscape:connector-curvature="0" />
    <path
       id="path9408"
       style="fill:none;stroke:#000000;stroke-width:0.28768027"
       d=""
       inkscape:connector-curvature="0" />
    <path
       id="path9420"
       style="fill:none;stroke:#000000;stroke-width:0.28768027"
       d=""
       inkscape:connector-curvature="0" />
  </g>
  <g
     transform="translate(0,744.09449)"
     id="layer6" />
  <g
     transform="translate(0,744.09449)"
     id="layer4" />
  <path
     id="path4184"
     d="m 1023.3981,754.35592 -7.6336,-0.0146 c 0,0 -12.8536,1.4086 -12.8536,17.94261 l 0,3.35139 c 0,2.19044 2.2752,1.89434 2.2752,1.89434 l 17.4843,-0.22303 c 1.5608,0 3.5928,-1.52951 3.5928,-3.51142 l -0.1186,-17.086 c 0,0 -0.2618,-2.34846 -2.7465,-2.35323 z"
     style="fill:none;fill-rule:evenodd;stroke:#000000;stroke-width:0.00359594;stroke-linecap:butt;stroke-linejoin:miter;stroke-miterlimit:4;stroke-dasharray:none;stroke-opacity:1"
     inkscape:connector-curvature="0" />
  <path
     id="path4186"
     d="m 1217.8645,744.09627 -203.4455,0 c -12.3493,0 -22.29122,9.94189 -22.29122,22.29123 l 0,203.44538 c 0,12.3494 7.65848,22.2913 20.00782,22.2913 l 184.9035,0 c 2.9341,-3.0796 -0.023,-18.2776 9.0448,-19.4145 8.8496,-0.8366 6.5172,19.4145 13.754,19.4145 16.8134,-0.2537 20.3178,-5.2516 20.3178,-19.7796 0,-7.448 -16.6654,-7.0937 -16.6654,-15.1915 0,-7.137 16.6654,-6.1048 16.6654,-10.4904 l 0,-180.27518 c 0,-12.34934 -9.9419,-22.29123 -22.2912,-22.29123 z"
     style="fill:none;stroke:#000000;stroke-width:0.00359594;stroke-linejoin:round;stroke-miterlimit:4;stroke-dasharray:none;stroke-opacity:1"
     inkscape:connector-curvature="0" />
  <path
     id="path4188"
     d="m 31.272135,506.32443 -7.633633,-0.0146 c 0,0 -12.853599,1.4086 -12.853599,17.94261 l 0,3.35139 c 0,2.19044 2.275162,1.89434 2.275162,1.89434 l 17.484358,-0.22303 c 1.560796,0 3.592819,-1.52951 3.592819,-3.51142 l -0.118657,-17.086 c 0,0 -0.261792,-2.34846 -2.74645,-2.35323 z"
     style="fill:none;fill-rule:evenodd;stroke:#000000;stroke-width:0.00359594;stroke-linecap:butt;stroke-linejoin:miter;stroke-miterlimit:4;stroke-dasharray:none;stroke-opacity:1"
     inkscape:connector-curvature="0" />
  <path
     id="path4190"
     d="m 225.73846,496.06478 -203.445426,0 c -12.3493371,0 -22.29123603,9.94189 -22.29123603,22.29123 l 0,203.44538 c 0,12.3494 7.65847713,22.2913 20.00781303,22.2913 l 184.903489,0 c 2.9341,-3.0796 -0.0232,-18.2776 9.04481,-19.4145 8.84961,-0.8366 6.5172,19.4145 13.75398,19.4145 16.81344,-0.2537 20.31781,-5.2516 20.31781,-19.7796 0,-7.448 -16.66537,-7.0937 -16.66537,-15.1915 0,-7.137 16.66537,-6.1048 16.66537,-10.4904 l 0,-180.27518 c 0,-12.34934 -9.94189,-22.29123 -22.29124,-22.29123 z"
     style="fill:none;stroke:#000000;stroke-width:0.00359594;stroke-linejoin:round;stroke-miterlimit:4;stroke-dasharray:none;stroke-opacity:1"
     inkscape:connector-curvature="0" />
  <path
     inkscape:connector-curvature="0"
     style="fill:none;fill-rule:evenodd;stroke:#000000;stroke-width:0.00359594;stroke-linecap:butt;stroke-linejoin:miter;stroke-miterlimit:4;stroke-dasharray:none;stroke-opacity:1"
     d="m 279.30363,506.32443 -7.63363,-0.0146 c 0,0 -12.8536,1.4086 -12.8536,17.94261 l 0,3.35139 c 0,2.19044 2.27516,1.89434 2.27516,1.89434 l 17.48436,-0.22303 c 1.5608,0 3.59282,-1.52951 3.59282,-3.51142 l -0.11866,-17.086 c 0,0 -0.26179,-2.34846 -2.74645,-2.35323 z"
     id="path4192" />
  <path
     inkscape:connector-curvature="0"
     style="fill:none;stroke:#000000;stroke-width:0.00359594;stroke-linejoin:round;stroke-miterlimit:4;stroke-dasharray:none;stroke-opacity:1"
     d="m 473.76996,496.06478 -203.44543,0 c -12.34934,0 -22.29124,9.94189 -22.29124,22.29123 l 0,203.44538 c 0,12.3494 7.65848,22.2913 20.00782,22.2913 l 184.90349,0 c 2.9341,-3.0796 -0.0232,-18.2776 9.04481,-19.4145 8.84961,-0.8366 6.5172,19.4145 13.75398,19.4145 16.81344,-0.2537 20.31781,-5.2516 20.31781,-19.7796 0,-7.448 -16.66537,-7.0937 -16.66537,-15.1915 0,-7.137 16.66537,-6.1048 16.66537,-10.4904 l 0,-180.27518 c 0,-12.34934 -9.94189,-22.29123 -22.29124,-22.29123 z"
     id="path4194" />
  <path
     inkscape:connector-curvature="0"
     style="fill:none;fill-rule:evenodd;stroke:#000000;stroke-width:0.00359594;stroke-linecap:butt;stroke-linejoin:miter;stroke-miterlimit:4;stroke-dasharray:none;stroke-opacity:1"
     d="m 527.33513,506.32443 -7.63364,-0.0146 c 0,0 -12.85359,1.4086 -12.85359,17.94261 l 0,3.35139 c 0,2.19044 2.27516,1.89434 2.27516,1.89434 l 17.48436,-0.22303 c 1.56079,0 3.59281,-1.52951 3.59281,-3.51142 l -0.11865,-17.086 c 0,0 -0.26179,-2.34846 -2.74645,-2.35323 z"
     id="path4196" />
  <path
     inkscape:connector-curvature="0"
     style="fill:none;stroke:#000000;stroke-width:0.00359594;stroke-linejoin:round;stroke-miterlimit:4;stroke-dasharray:none;stroke-opacity:1"
     d="m 721.80145,496.06478 -203.44542,0 c -12.34934,0 -22.29124,9.94189 -22.29124,22.29123 l 0,203.44538 c 0,12.3494 7.65848,22.2913 20.00781,22.2913 l 184.90349,0 c 2.9341,-3.0796 -0.0232,-18.2776 9.04481,-19.4145 8.84961,-0.8366 6.5172,19.4145 13.75398,19.4145 16.81344,-0.2537 20.31781,-5.2516 20.31781,-19.7796 0,-7.448 -16.66537,-7.0937 -16.66537,-15.1915 0,-7.137 16.66537,-6.1048 16.66537,-10.4904 l 0,-180.27518 c 0,-12.34934 -9.94189,-22.29123 -22.29124,-22.29123 z"
     id="path4198" />
  <path
     id="path4200"
     d="m 775.36662,506.32443 -7.63363,-0.0146 c 0,0 -12.8536,1.4086 -12.8536,17.94261 l 0,3.35139 c 0,2.19044 2.27516,1.89434 2.27516,1.89434 l 17.48436,-0.22303 c 1.5608,0 3.59282,-1.52951 3.59282,-3.51142 l -0.11866,-17.086 c 0,0 -0.26179,-2.34846 -2.74645,-2.35323 z"
     style="fill:none;fill-rule:evenodd;stroke:#000000;stroke-width:0.00359594;stroke-linecap:butt;stroke-linejoin:miter;stroke-miterlimit:4;stroke-dasharray:none;stroke-opacity:1"
     inkscape:connector-curvature="0" />
  <path
     id="path4202"
     d="m 969.83295,496.06478 -203.44543,0 c -12.34934,0 -22.29124,9.94189 -22.29124,22.29123 l 0,203.44538 c 0,12.3494 7.65848,22.2913 20.00782,22.2913 l 184.90349,0 c 2.9341,-3.0796 -0.0232,-18.2776 9.04481,-19.4145 8.84961,-0.8366 6.5172,19.4145 13.75398,19.4145 16.81344,-0.2537 20.31781,-5.2516 20.31781,-19.7796 0,-7.448 -16.66537,-7.0937 -16.66537,-15.1915 0,-7.137 16.66537,-6.1048 16.66537,-10.4904 l 0,-180.27518 c 0,-12.34934 -9.94189,-22.29123 -22.29124,-22.29123 z"
     style="fill:none;stroke:#000000;stroke-width:0.00359594;stroke-linejoin:round;stroke-miterlimit:4;stroke-dasharray:none;stroke-opacity:1"
     inkscape:connector-curvature="0" />
  <path
     inkscape:connector-curvature="0"
     style="fill:none;fill-rule:evenodd;stroke:#000000;stroke-width:0.00359594;stroke-linecap:butt;stroke-linejoin:miter;stroke-miterlimit:4;stroke-dasharray:none;stroke-opacity:1"
     d="m 1023.3981,506.32443 -7.6336,-0.0146 c 0,0 -12.8536,1.4086 -12.8536,17.94261 l 0,3.35139 c 0,2.19044 2.2752,1.89434 2.2752,1.89434 l 17.4843,-0.22303 c 1.5608,0 3.5928,-1.52951 3.5928,-3.51142 l -0.1186,-17.086 c 0,0 -0.2618,-2.34846 -2.7465,-2.35323 z"
     id="path4204" />
  <path
     inkscape:connector-curvature="0"
     style="fill:none;stroke:#000000;stroke-width:0.00359594;stroke-linejoin:round;stroke-miterlimit:4;stroke-dasharray:none;stroke-opacity:1"
     d="m 1217.8645,496.06478 -203.4455,0 c -12.3493,0 -22.29122,9.94189 -22.29122,22.29123 l 0,203.44538 c 0,12.3494 7.65848,22.2913 20.00782,22.2913 l 184.9035,0 c 2.9341,-3.0796 -0.023,-18.2776 9.0448,-19.4145 8.8496,-0.8366 6.5172,19.4145 13.754,19.4145 16.8134,-0.2537 20.3178,-5.2516 20.3178,-19.7796 0,-7.448 -16.6654,-7.0937 -16.6654,-15.1915 0,-7.137 16.6654,-6.1048 16.6654,-10.4904 l 0,-180.27518 c 0,-12.34934 -9.9419,-22.29123 -22.2912,-22.29123 z"
     id="path4206" />
  <path
     id="path4208"
     d="m 31.272135,258.29293 -7.633633,-0.0146 c 0,0 -12.853599,1.4086 -12.853599,17.94261 l 0,3.35139 c 0,2.19044 2.275162,1.89434 2.275162,1.89434 l 17.484358,-0.22303 c 1.560796,0 3.592819,-1.52951 3.592819,-3.51142 l -0.118657,-17.086 c 0,0 -0.261792,-2.34846 -2.74645,-2.35323 z"
     style="fill:none;fill-rule:evenodd;stroke:#000000;stroke-width:0.00359594;stroke-linecap:butt;stroke-linejoin:miter;stroke-miterlimit:4;stroke-dasharray:none;stroke-opacity:1"
     inkscape:connector-curvature="0" />
  <path
     id="path4211"
     d="m 225.73846,248.03328 -203.445426,0 c -12.3493371,0 -22.29123602,9.94189 -22.29123602,22.29123 l 0,203.44538 c 0,12.3494 7.65847712,22.2913 20.00781302,22.2913 l 184.903489,0 c 2.9341,-3.0796 -0.0232,-18.2776 9.04481,-19.4145 8.84961,-0.8366 6.5172,19.4145 13.75398,19.4145 16.81344,-0.2537 20.31781,-5.2516 20.31781,-19.7796 0,-7.448 -16.66537,-7.0937 -16.66537,-15.1915 0,-7.137 16.66537,-6.1048 16.66537,-10.4904 l 0,-180.27518 c 0,-12.34934 -9.94189,-22.29123 -22.29124,-22.29123 z"
     style="fill:none;stroke:#000000;stroke-width:0.00359594;stroke-linejoin:round;stroke-miterlimit:4;stroke-dasharray:none;stroke-opacity:1"
     inkscape:connector-curvature="0" />
  <path
     inkscape:connector-curvature="0"
     style="fill:none;fill-rule:evenodd;stroke:#000000;stroke-width:0.00359594;stroke-linecap:butt;stroke-linejoin:miter;stroke-miterlimit:4;stroke-dasharray:none;stroke-opacity:1"
     d="m 279.30363,258.29293 -7.63363,-0.0146 c 0,0 -12.8536,1.4086 -12.8536,17.94261 l 0,3.35139 c 0,2.19044 2.27516,1.89434 2.27516,1.89434 l 17.48436,-0.22303 c 1.5608,0 3.59282,-1.52951 3.59282,-3.51142 l -0.11866,-17.086 c 0,0 -0.26179,-2.34846 -2.74645,-2.35323 z"
     id="path4213" />
  <path
     inkscape:connector-curvature="0"
     style="fill:none;stroke:#000000;stroke-width:0.00359594;stroke-linejoin:round;stroke-miterlimit:4;stroke-dasharray:none;stroke-opacity:1"
     d="m 473.76996,248.03328 -203.44543,0 c -12.34934,0 -22.29124,9.94189 -22.29124,22.29123 l 0,203.44538 c 0,12.3494 7.65848,22.2913 20.00782,22.2913 l 184.90349,0 c 2.9341,-3.0796 -0.0232,-18.2776 9.04481,-19.4145 8.84961,-0.8366 6.5172,19.4145 13.75398,19.4145 16.81344,-0.2537 20.31781,-5.2516 20.31781,-19.7796 0,-7.448 -16.66537,-7.0937 -16.66537,-15.1915 0,-7.137 16.66537,-6.1048 16.66537,-10.4904 l 0,-180.27518 c 0,-12.34934 -9.94189,-22.29123 -22.29124,-22.29123 z"
     id="path4215" />
  <path
     inkscape:connector-curvature="0"
     style="fill:none;fill-rule:evenodd;stroke:#000000;stroke-width:0.00359594;stroke-linecap:butt;stroke-linejoin:miter;stroke-miterlimit:4;stroke-dasharray:none;stroke-opacity:1"
     d="m 527.33513,258.29293 -7.63364,-0.0146 c 0,0 -12.85359,1.4086 -12.85359,17.94261 l 0,3.35139 c 0,2.19044 2.27516,1.89434 2.27516,1.89434 l 17.48436,-0.22303 c 1.56079,0 3.59281,-1.52951 3.59281,-3.51142 l -0.11865,-17.086 c 0,0 -0.26179,-2.34846 -2.74645,-2.35323 z"
     id="path4217" />
  <path
     inkscape:connector-curvature="0"
     style="fill:none;stroke:#000000;stroke-width:0.00359594;stroke-linejoin:round;stroke-miterlimit:4;stroke-dasharray:none;stroke-opacity:1"
     d="m 721.80145,248.03328 -203.44542,0 c -12.34934,0 -22.29124,9.94189 -22.29124,22.29123 l 0,203.44538 c 0,12.3494 7.65848,22.2913 20.00781,22.2913 l 184.90349,0 c 2.9341,-3.0796 -0.0232,-18.2776 9.04481,-19.4145 8.84961,-0.8366 6.5172,19.4145 13.75398,19.4145 16.81344,-0.2537 20.31781,-5.2516 20.31781,-19.7796 0,-7.448 -16.66537,-7.0937 -16.66537,-15.1915 0,-7.137 16.66537,-6.1048 16.66537,-10.4904 l 0,-180.27518 c 0,-12.34934 -9.94189,-22.29123 -22.29124,-22.29123 z"
     id="path4219" />
  <path
     id="path4221"
     d="m 775.36662,258.29293 -7.63363,-0.0146 c 0,0 -12.8536,1.4086 -12.8536,17.94261 l 0,3.35139 c 0,2.19044 2.27516,1.89434 2.27516,1.89434 l 17.48436,-0.22303 c 1.5608,0 3.59282,-1.52951 3.59282,-3.51142 l -0.11866,-17.086 c 0,0 -0.26179,-2.34846 -2.74645,-2.35323 z"
     style="fill:none;fill-rule:evenodd;stroke:#000000;stroke-width:0.00359594;stroke-linecap:butt;stroke-linejoin:miter;stroke-miterlimit:4;stroke-dasharray:none;stroke-opacity:1"
     inkscape:connector-curvature="0" />
  <path
     id="path4223"
     d="m 969.83295,248.03328 -203.44543,0 c -12.34934,0 -22.29124,9.94189 -22.29124,22.29123 l 0,203.44538 c 0,12.3494 7.65848,22.2913 20.00782,22.2913 l 184.90349,0 c 2.9341,-3.0796 -0.0232,-18.2776 9.04481,-19.4145 8.84961,-0.8366 6.5172,19.4145 13.75398,19.4145 16.81344,-0.2537 20.31781,-5.2516 20.31781,-19.7796 0,-7.448 -16.66537,-7.0937 -16.66537,-15.1915 0,-7.137 16.66537,-6.1048 16.66537,-10.4904 l 0,-180.27518 c 0,-12.34934 -9.94189,-22.29123 -22.29124,-22.29123 z"
     style="fill:none;stroke:#000000;stroke-width:0.00359594;stroke-linejoin:round;stroke-miterlimit:4;stroke-dasharray:none;stroke-opacity:1"
     inkscape:connector-curvature="0" />
  <path
     inkscape:connector-curvature="0"
     style="fill:none;fill-rule:evenodd;stroke:#000000;stroke-width:0.00359594;stroke-linecap:butt;stroke-linejoin:miter;stroke-miterlimit:4;stroke-dasharray:none;stroke-opacity:1"
     d="m 1023.3981,258.29293 -7.6336,-0.0146 c 0,0 -12.8536,1.4086 -12.8536,17.94261 l 0,3.35139 c 0,2.19044 2.2752,1.89434 2.2752,1.89434 l 17.4843,-0.22303 c 1.5608,0 3.5928,-1.52951 3.5928,-3.51142 l -0.1186,-17.086 c 0,0 -0.2618,-2.34846 -2.7465,-2.35323 z"
     id="path4225" />
  <path
     inkscape:connector-curvature="0"
     style="fill:none;stroke:#000000;stroke-width:0.00359594;stroke-linejoin:round;stroke-miterlimit:4;stroke-dasharray:none;stroke-opacity:1"
     d="m 1217.8645,248.03328 -203.4455,0 c -12.3493,0 -22.29122,9.94189 -22.29122,22.29123 l 0,203.44538 c 0,12.3494 7.65848,22.2913 20.00782,22.2913 l 184.9035,0 c 2.9341,-3.0796 -0.023,-18.2776 9.0448,-19.4145 8.8496,-0.8366 6.5172,19.4145 13.754,19.4145 16.8134,-0.2537 20.3178,-5.2516 20.3178,-19.7796 0,-7.448 -16.6654,-7.0937 -16.6654,-15.1915 0,-7.137 16.6654,-6.1048 16.6654,-10.4904 l 0,-180.27518 c 0,-12.34934 -9.9419,-22.29123 -22.2912,-22.29123 z"
     id="path4227" />
  <path
     inkscape:connector-curvature="0"
     style="fill:none;fill-rule:evenodd;stroke:#000000;stroke-width:0.00359594;stroke-linecap:butt;stroke-linejoin:miter;stroke-miterlimit:4;stroke-dasharray:none;stroke-opacity:1"
     d="m 31.272135,10.261444 -7.633633,-0.0146 c 0,0 -12.853599,1.4086 -12.853599,17.94261 l 0,3.35139 c 0,2.19044 2.275162,1.89434 2.275162,1.89434 l 17.484358,-0.22303 c 1.560796,0 3.592819,-1.52951 3.592819,-3.51142 l -0.118657,-17.086 c 0,0 -0.261792,-2.34846 -2.74645,-2.35323 z"
     id="path4229" />
  <path
     inkscape:connector-curvature="0"
     style="fill:none;stroke:#000000;stroke-width:0.00359594;stroke-linejoin:round;stroke-miterlimit:4;stroke-dasharray:none;stroke-opacity:1"
     d="m 225.73846,0.00179416 -203.445426,0 c -12.3493371,0 -22.29123603,9.94189004 -22.29123603,22.29122984 l 0,203.445376 c 0,12.3494 7.65847713,22.2913 20.00781303,22.2913 l 184.903489,0 c 2.9341,-3.0796 -0.0232,-18.2776 9.04481,-19.4145 8.84961,-0.8366 6.5172,19.4145 13.75398,19.4145 16.81344,-0.2537 20.31781,-5.2516 20.31781,-19.7796 0,-7.448 -16.66537,-7.0937 -16.66537,-15.1915 0,-7.137 16.66537,-6.1048 16.66537,-10.4904 l 0,-180.275176 c 0,-12.3493398 -9.94189,-22.29122984 -22.29124,-22.29122984 z"
     id="path4231" />
  <path
     id="path4233"
     d="m 279.30363,10.261444 -7.63363,-0.0146 c 0,0 -12.8536,1.4086 -12.8536,17.94261 l 0,3.35139 c 0,2.19044 2.27516,1.89434 2.27516,1.89434 l 17.48436,-0.22303 c 1.5608,0 3.59282,-1.52951 3.59282,-3.51142 l -0.11866,-17.086 c 0,0 -0.26179,-2.34846 -2.74645,-2.35323 z"
     style="fill:none;fill-rule:evenodd;stroke:#000000;stroke-width:0.00359594;stroke-linecap:butt;stroke-linejoin:miter;stroke-miterlimit:4;stroke-dasharray:none;stroke-opacity:1"
     inkscape:connector-curvature="0" />
  <path
     id="path4235"
     d="m 473.76996,0.00179416 -203.44543,0 c -12.34934,0 -22.29124,9.94189004 -22.29124,22.29122984 l 0,203.445376 c 0,12.3494 7.65848,22.2913 20.00782,22.2913 l 184.90349,0 c 2.9341,-3.0796 -0.0232,-18.2776 9.04481,-19.4145 8.84961,-0.8366 6.5172,19.4145 13.75398,19.4145 16.81344,-0.2537 20.31781,-5.2516 20.31781,-19.7796 0,-7.448 -16.66537,-7.0937 -16.66537,-15.1915 0,-7.137 16.66537,-6.1048 16.66537,-10.4904 l 0,-180.275176 c 0,-12.3493398 -9.94189,-22.29122984 -22.29124,-22.29122984 z"
     style="fill:none;stroke:#000000;stroke-width:0.00359594;stroke-linejoin:round;stroke-miterlimit:4;stroke-dasharray:none;stroke-opacity:1"
     inkscape:connector-curvature="0" />
  <path
     id="path4237"
     d="m 527.33513,10.261444 -7.63364,-0.0146 c 0,0 -12.85359,1.4086 -12.85359,17.94261 l 0,3.35139 c 0,2.19044 2.27516,1.89434 2.27516,1.89434 l 17.48436,-0.22303 c 1.56079,0 3.59281,-1.52951 3.59281,-3.51142 l -0.11865,-17.086 c 0,0 -0.26179,-2.34846 -2.74645,-2.35323 z"
     style="fill:none;fill-rule:evenodd;stroke:#000000;stroke-width:0.00359594;stroke-linecap:butt;stroke-linejoin:miter;stroke-miterlimit:4;stroke-dasharray:none;stroke-opacity:1"
     inkscape:connector-curvature="0" />
  <path
     id="path4239"
     d="m 721.80145,0.00179416 -203.44542,0 c -12.34934,0 -22.29124,9.94189004 -22.29124,22.29122984 l 0,203.445376 c 0,12.3494 7.65848,22.2913 20.00781,22.2913 l 184.90349,0 c 2.9341,-3.0796 -0.0232,-18.2776 9.04481,-19.4145 8.84961,-0.8366 6.5172,19.4145 13.75398,19.4145 16.81344,-0.2537 20.31781,-5.2516 20.31781,-19.7796 0,-7.448 -16.66537,-7.0937 -16.66537,-15.1915 0,-7.137 16.66537,-6.1048 16.66537,-10.4904 l 0,-180.275176 c 0,-12.3493398 -9.94189,-22.29122984 -22.29124,-22.29122984 z"
     style="fill:none;stroke:#000000;stroke-width:0.00359594;stroke-linejoin:round;stroke-miterlimit:4;stroke-dasharray:none;stroke-opacity:1"
     inkscape:connector-curvature="0" />
  <path
     inkscape:connector-curvature="0"
     style="fill:none;fill-rule:evenodd;stroke:#000000;stroke-width:0.00359594;stroke-linecap:butt;stroke-linejoin:miter;stroke-miterlimit:4;stroke-dasharray:none;stroke-opacity:1"
     d="m 775.36662,10.261444 -7.63363,-0.0146 c 0,0 -12.8536,1.4086 -12.8536,17.94261 l 0,3.35139 c 0,2.19044 2.27516,1.89434 2.27516,1.89434 l 17.48436,-0.22303 c 1.5608,0 3.59282,-1.52951 3.59282,-3.51142 l -0.11866,-17.086 c 0,0 -0.26179,-2.34846 -2.74645,-2.35323 z"
     id="path4241" />
  <path
     inkscape:connector-curvature="0"
     style="fill:none;stroke:#000000;stroke-width:0.00359594;stroke-linejoin:round;stroke-miterlimit:4;stroke-dasharray:none;stroke-opacity:1"
     d="m 969.83295,0.00179416 -203.44543,0 c -12.34934,0 -22.29124,9.94189004 -22.29124,22.29122984 l 0,203.445376 c 0,12.3494 7.65848,22.2913 20.00782,22.2913 l 184.90349,0 c 2.9341,-3.0796 -0.0232,-18.2776 9.04481,-19.4145 8.84961,-0.8366 6.5172,19.4145 13.75398,19.4145 16.81344,-0.2537 20.31781,-5.2516 20.31781,-19.7796 0,-7.448 -16.66537,-7.0937 -16.66537,-15.1915 0,-7.137 16.66537,-6.1048 16.66537,-10.4904 l 0,-180.275176 c 0,-12.3493398 -9.94189,-22.29122984 -22.29124,-22.29122984 z"
     id="path4243" />
  <path
     id="path4245"
     d="m 1023.3981,10.261444 -7.6336,-0.0146 c 0,0 -12.8536,1.4086 -12.8536,17.94261 l 0,3.35139 c 0,2.19044 2.2752,1.89434 2.2752,1.89434 l 17.4843,-0.22303 c 1.5608,0 3.5928,-1.52951 3.5928,-3.51142 l -0.1186,-17.086 c 0,0 -0.2618,-2.34846 -2.7465,-2.35323 z"
     style="fill:none;fill-rule:evenodd;stroke:#000000;stroke-width:0.00359594;stroke-linecap:butt;stroke-linejoin:miter;stroke-miterlimit:4;stroke-dasharray:none;stroke-opacity:1"
     inkscape:connector-curvature="0" />
  <path
     id="path4247"
     d="m 1217.8645,0.00179416 -203.4455,0 c -12.3493,0 -22.29122,9.94189004 -22.29122,22.29122984 l 0,203.445376 c 0,12.3494 7.65848,22.2913 20.00782,22.2913 l 184.9035,0 c 2.9341,-3.0796 -0.023,-18.2776 9.0448,-19.4145 8.8496,-0.8366 6.5172,19.4145 13.754,19.4145 16.8134,-0.2537 20.3178,-5.2516 20.3178,-19.7796 0,-7.448 -16.6654,-7.0937 -16.6654,-15.1915 0,-7.137 16.6654,-6.1048 16.6654,-10.4904 l 0,-180.275176 c 0,-12.3493398 -9.9419,-22.29122984 -22.2912,-22.29122984 z"
     style="fill:none;stroke:#000000;stroke-width:0.00359594;stroke-linejoin:round;stroke-miterlimit:4;stroke-dasharray:none;stroke-opacity:1"
     inkscape:connector-curvature="0" />
</svg>
