<?xml version="1.0" encoding="UTF-8" standalone="no"?>
<svg
   xmlns:dc="http://purl.org/dc/elements/1.1/"
   xmlns:cc="http://creativecommons.org/ns#"
   xmlns:rdf="http://www.w3.org/1999/02/22-rdf-syntax-ns#"
   xmlns:svg="http://www.w3.org/2000/svg"
   xmlns="http://www.w3.org/2000/svg"
   width="142mm"
   height="70mm"
   viewBox="0 0 503.14963 248.03149"
   id="svg2"
   version="1.1">
  <defs
     id="defs4" />
  <metadata
     id="metadata7">
    <rdf:RDF>
      <cc:Work
         rdf:about="">
        <dc:format>image/svg+xml</dc:format>
        <dc:type
           rdf:resource="http://purl.org/dc/dcmitype/StillImage" />
        <dc:title></dc:title>
      </cc:Work>
    </rdf:RDF>
  </metadata>
  <g
     id="layer1"
     transform="translate(0,-804.33071)"
     style="opacity:1">
    <path
       id="path7559-6"
       style="fill:none;stroke:#000000;stroke-width:0.35433073;stroke-miterlimit:4;stroke-dasharray:none"
       d="" />
    <path
       id="path7565-1"
       style="fill:none;stroke:#000000;stroke-width:0.35433073;stroke-miterlimit:4;stroke-dasharray:none"
       d="" />
    <path
       id="path7579-8"
       style="fill:none;stroke:#000000;stroke-width:0.35433073;stroke-miterlimit:4;stroke-dasharray:none"
       d="" />
    <path
       d=""
       style="fill:none;stroke:#000000;stroke-width:0.35433073;stroke-miterlimit:4;stroke-dasharray:none"
       id="path8694-7" />
    <path
       d=""
       style="fill:none;stroke:#000000;stroke-width:0.35433073;stroke-miterlimit:4;stroke-dasharray:none"
       id="path8700-9" />
    <path
       id="path9252-2"
       style="fill:none;stroke:#000000;stroke-width:0.35433073;stroke-miterlimit:4;stroke-dasharray:none"
       d="" />
    <path
       id="path9264-0"
       style="fill:none;stroke:#000000;stroke-width:0.35433073;stroke-miterlimit:4;stroke-dasharray:none"
       d="" />
    <path
       d=""
       style="fill:none;stroke:#000000;stroke-width:0.35433073;stroke-miterlimit:4;stroke-dasharray:none"
       id="path9834-2" />
    <path
       d=""
       style="fill:none;stroke:#000000;stroke-width:0.35433073;stroke-miterlimit:4;stroke-dasharray:none"
       id="path4314-3" />
    <path
       d=""
       style="fill:none;stroke:#000000;stroke-width:0.35433073;stroke-miterlimit:4;stroke-dasharray:none"
       id="path4324-7" />
    <path
       d=""
       style="fill:none;stroke:#000000;stroke-width:0.35433073;stroke-miterlimit:4;stroke-dasharray:none"
       id="path4332-5" />
    <path
       d=""
       style="fill:none;stroke:#000000;stroke-width:0.35433073;stroke-miterlimit:4;stroke-dasharray:none"
       id="path4586-9" />
    <path
       d=""
       style="fill:none;stroke:#000000;stroke-width:0.35433073;stroke-miterlimit:4;stroke-dasharray:none"
       id="path4604-3-2" />
    <path
       id="path4210-1"
       d="m 286.62005,814.7549 -7.61853,-0.0146 c 0,0 -12.82818,1.40658 -12.82818,17.91705 l 0,3.34661 c 0,2.18732 2.27066,1.89164 2.27066,1.89164 l 17.44977,-0.22271 c 1.55771,0 3.58571,-1.52734 3.58571,-3.50643 l -0.11842,-17.06165 c 0,0 -0.26128,-2.34512 -2.74101,-2.34988 z"
       style="opacity:1;fill:none;fill-rule:evenodd;stroke:#000000;stroke-width:0.35433073;stroke-linecap:butt;stroke-linejoin:miter;stroke-miterlimit:4;stroke-dasharray:none;stroke-opacity:1" />
    <path
       id="rect4181-3-2"
       d="m 480.70083,804.50916 -203.04286,0 c -12.32491,0 -22.24714,9.92774 -22.24714,22.25948 l 0,203.15546 c 0,12.3317 7.64332,22.2596 19.96823,22.2596 l 184.53762,0 c 2.92829,-3.0752 -0.0232,-18.2517 9.0269,-19.3868 8.83211,-0.8355 6.50431,19.3868 13.72677,19.3868 16.78017,-0.2534 20.2776,-5.2441 20.2776,-19.7515 0,-7.4374 -16.63239,-7.0836 -16.63239,-15.1697 0,-7.127 16.63239,-6.0962 16.63239,-10.4755 l 0,-58.92077 c 0,0 0.48578,-3.88312 -2.99423,-4.08499 l -26.18382,-1.51891 c 0,0 -4.53414,-0.65882 -4.53414,-5.75652 l 0,-19.04092 c 0,-4.34115 4.80997,-4.65361 4.80997,-4.65361 l 25.0197,-1.36414 c 3.90445,-0.10755 3.88252,-3.58267 3.88252,-3.58267 l 0,-81.09583 c 0,-12.33174 -9.9222,-22.25948 -22.24712,-22.25948 z"
       style="opacity:1;fill:none;stroke:#000000;stroke-width:0.35433073;stroke-linejoin:round;stroke-miterlimit:4;stroke-dasharray:none;stroke-opacity:1" />
    <path
       id="path7559-9"
       style="fill:none;stroke:#000000;stroke-width:0.35433073;stroke-miterlimit:4;stroke-dasharray:none"
       d="" />
    <path
       id="path7565-3"
       style="fill:none;stroke:#000000;stroke-width:0.35433073;stroke-miterlimit:4;stroke-dasharray:none"
       d="" />
    <path
       id="path7579-1"
       style="fill:none;stroke:#000000;stroke-width:0.35433073;stroke-miterlimit:4;stroke-dasharray:none"
       d="" />
    <path
       d=""
       style="fill:none;stroke:#000000;stroke-width:0.35433073;stroke-miterlimit:4;stroke-dasharray:none"
       id="path8694-9" />
    <path
       d=""
       style="fill:none;stroke:#000000;stroke-width:0.35433073;stroke-miterlimit:4;stroke-dasharray:none"
       id="path8700-4" />
    <path
       id="path9252-7"
       style="fill:none;stroke:#000000;stroke-width:0.35433073;stroke-miterlimit:4;stroke-dasharray:none"
       d="" />
    <path
       id="path9264-8"
       style="fill:none;stroke:#000000;stroke-width:0.35433073;stroke-miterlimit:4;stroke-dasharray:none"
       d="" />
    <path
       d=""
       style="fill:none;stroke:#000000;stroke-width:0.35433073;stroke-miterlimit:4;stroke-dasharray:none"
       id="path9834-4" />
    <path
       d=""
       style="fill:none;stroke:#000000;stroke-width:0.35433073;stroke-miterlimit:4;stroke-dasharray:none"
       id="path4314-5" />
    <path
       d=""
       style="fill:none;stroke:#000000;stroke-width:0.35433073;stroke-miterlimit:4;stroke-dasharray:none"
       id="path4324-0" />
    <path
       d=""
       style="fill:none;stroke:#000000;stroke-width:0.35433073;stroke-miterlimit:4;stroke-dasharray:none"
       id="path4332-3" />
    <path
       d=""
       style="fill:none;stroke:#000000;stroke-width:0.35433073;stroke-miterlimit:4;stroke-dasharray:none"
       id="path4586-6" />
    <path
       d=""
       style="fill:none;stroke:#000000;stroke-width:0.35433073;stroke-miterlimit:4;stroke-dasharray:none"
       id="path4604-3-1" />
    <path
       id="path9309-6"
       d="m 502.98066,806.10229 a 1.6034594,1.6041975 0 0 1 -1.60346,1.6042 1.6034594,1.6041975 0 0 1 -1.60346,-1.6042 1.6034594,1.6041975 0 0 1 1.60346,-1.60419 1.6034594,1.6041975 0 0 1 1.60346,1.60419 z"
       style="opacity:0.97000002;fill:none;fill-opacity:1;stroke:#000000;stroke-width:0.35433073;stroke-linecap:round;stroke-linejoin:round;stroke-miterlimit:4;stroke-dasharray:none;stroke-opacity:1" />
    <path
       id="path4210"
       d="m 216.55729,814.75338 7.61191,-0.0146 c 0,0 12.81703,1.40659 12.81703,17.91716 l 0,3.34665 c 0,2.18732 -2.26868,1.89164 -2.26868,1.89164 l -17.43461,-0.2227 c -1.55635,0 -3.58259,-1.52735 -3.58259,-3.50646 l 0.11831,-17.06176 c 0,0 0.26105,-2.34514 2.73863,-2.3499 z"
       style="opacity:1;fill:none;fill-rule:evenodd;stroke:#000000;stroke-width:0.35433073;stroke-linecap:butt;stroke-linejoin:miter;stroke-miterlimit:4;stroke-dasharray:none;stroke-opacity:1" />
    <path
       id="rect4181-3"
       d="m 22.6451,804.50757 202.86648,0 c 12.31421,0 22.22782,9.92781 22.22782,22.25963 l 0,180.5908 c 0,7.9229 -8.27522,6.824 -8.27522,6.824 l -20.22951,-0.1149 c -12.36138,-0.07 -12.06425,8.133 -12.02493,20.4175 l 0.0326,10.1734 c 0,0 -0.92632,7.5258 -6.80409,7.5258 l -157.027,0 c -2.925747,-3.0752 0.02319,-18.2518 -9.019065,-19.387 -8.824433,-0.8354 -6.498664,19.387 -13.714843,19.387 -16.7655891,-0.2535 -20.25999037,-5.2441 -20.25999037,-19.7516 0,-7.4374 16.61794637,-7.0836 16.61794637,-15.1698 0,-7.127 -16.61794637,-6.0962 -16.61794637,-10.4756 l 0,-180.0196 c 0,-12.33182 9.91359237,-22.25963 22.22779837,-22.25963 z"
       style="opacity:1;fill:none;stroke:#000000;stroke-width:0.35433073;stroke-linejoin:round;stroke-miterlimit:4;stroke-dasharray:none;stroke-opacity:1" />
    <path
       id="circle9313"
       d="m 3.3745949,1050.5906 a 1.6034594,1.6041975 0 0 1 -1.6034593,1.6042 1.6034594,1.6041975 0 0 1 -1.60345939,-1.6042 1.6034594,1.6041975 0 0 1 1.60345939,-1.6042 1.6034594,1.6041975 0 0 1 1.6034593,1.6042 z"
       style="opacity:0.97000002;fill:none;fill-opacity:1;stroke:#000000;stroke-width:0.35433073;stroke-linecap:round;stroke-linejoin:round;stroke-miterlimit:4;stroke-dasharray:none;stroke-opacity:1" />
  </g>
</svg>
