<?xml version="1.0" encoding="UTF-8" standalone="no"?>
<!-- Created with Inkscape (http://www.inkscape.org/) -->

<svg
   xmlns:dc="http://purl.org/dc/elements/1.1/"
   xmlns:cc="http://creativecommons.org/ns#"
   xmlns:rdf="http://www.w3.org/1999/02/22-rdf-syntax-ns#"
   xmlns:svg="http://www.w3.org/2000/svg"
   xmlns="http://www.w3.org/2000/svg"
   xmlns:sodipodi="http://sodipodi.sourceforge.net/DTD/sodipodi-0.dtd"
   xmlns:inkscape="http://www.inkscape.org/namespaces/inkscape"
   sodipodi:docname="Side3.svg"
   inkscape:version="0.92.3 (2405546, 2018-03-11)"
   version="1.1"
   id="svg2"
   viewBox="0 0 248.03151 248.03149"
   height="70mm"
   width="70mm">
  <sodipodi:namedview
     inkscape:window-maximized="1"
     inkscape:window-y="1"
     inkscape:window-x="0"
     inkscape:window-height="738"
     inkscape:window-width="1366"
     borderlayer="true"
     showgrid="false"
     inkscape:current-layer="layer6"
     inkscape:document-units="mm"
     inkscape:cy="212.66449"
     inkscape:cx="-3.9792978"
     inkscape:zoom="2.8284271"
     inkscape:pageshadow="2"
     inkscape:pageopacity="0"
     borderopacity="1.0"
     bordercolor="#666666"
     pagecolor="#585858"
     id="base"
     showguides="true"
     inkscape:object-paths="false"
     inkscape:snap-intersection-paths="false"
     inkscape:guide-bbox="true"
     inkscape:snap-global="false" />
  <defs
     id="defs4" />
  <metadata
     id="metadata7">
    <rdf:RDF>
      <cc:Work
         rdf:about="">
        <dc:format>image/svg+xml</dc:format>
        <dc:type
           rdf:resource="http://purl.org/dc/dcmitype/StillImage" />
        <dc:title />
      </cc:Work>
    </rdf:RDF>
  </metadata>
  <g
     inkscape:label="Cutout"
     inkscape:groupmode="layer"
     id="layer1"
     transform="translate(0,-804.33071)"
     style="opacity:1">
    <path
       style="fill:none;fill-rule:evenodd;stroke:#000000;stroke-width:0.32609031;stroke-linecap:butt;stroke-linejoin:miter;stroke-miterlimit:4;stroke-dasharray:none;stroke-opacity:1"
       d="m 22.993037,821.82654 c -3.727232,0 -10.965357,2.79492 -10.965357,27.42629 v 1.93184 c 0,4.65377 0.12506,4.93242 1.850636,6.25575 4.740999,2.73721 18.071147,-3.70535 18.071147,-12.73734 L 31.84824,825.34323 c 0,0 0.200843,-3.5031 -3.851252,-3.51665 z"
       id="path4210"
       inkscape:connector-curvature="0"
       sodipodi:nodetypes="cscccccc" />
    <path
       sodipodi:nodetypes="cssscssccssscccsssccccsscc"
       inkscape:connector-curvature="0"
       id="path1262"
       d="m 247.62142,996.68221 c -0.63126,-14.93456 -2.83846,-17.81016 -9.03535,-21.38793 -0.0697,-0.0402 -2.42068,-1.2625 -4.91451,-2.70231 -3.95607,-2.28404 -3.24479,-7.06908 -3.49497,-13.3704 -0.1323,-3.33213 -0.0715,-16.96115 -0.0715,-16.96115 0.91857,-10.95215 3.69558,-13.55491 9.14377,-16.70042 0.0697,-0.0402 2.42068,-1.2625 4.91451,-2.70231 2.46051,-1.42058 3.12361,-3.80863 3.32741,-6.9135 l 0.11487,-24.14516 c -0.25018,-7.575 0.56789,-12.36004 -3.38818,-14.64408 -2.49383,-1.43981 -4.84483,-2.66208 -4.91451,-2.70231 -7.51455,-4.33852 -9.14499,-7.64452 -9.23751,-32.67302 -0.003,-0.78785 -0.0207,-24.76068 -0.0207,-24.76068 0,-8.83875 -3.90771,-12.51223 -17.70131,-12.51223 l -176.658102,0.002 c -19.672322,0 -35.50817264,15.83782 -35.50817264,35.51014 v 176.65595 c 0,19.6723 15.83585064,35.5102 35.50817264,35.5102 h 167.697382 1.05304 c 2.90838,-3.0643 0.19333,-18.6263 9.1819,-19.7574 8.77206,-0.8325 6.45958,19.317 13.63292,19.317 16.66606,-0.2525 20.13909,-5.2248 20.13909,-19.6811 0,-7.4111 -16.51801,-7.0589 -16.51801,-15.1166 0,-7.1018 16.51774,-6.0734 16.74899,-11.1333 l 8.1e-4,-8.96393"
       style="fill:none;fill-opacity:0;stroke:#000000;stroke-width:0.35433072;stroke-miterlimit:4;stroke-dasharray:none;stroke-opacity:1" />
    <circle
       r="20.843267"
       cy="929.86932"
       cx="-123.87372"
       id="path7293"
       style="fill:none;fill-opacity:0;stroke:#000000;stroke-width:0.22302765;stroke-miterlimit:4;stroke-dasharray:none;stroke-opacity:1"
       transform="scale(-1,1)" />
  </g>
  <g
     inkscape:groupmode="layer"
     id="layer3"
     inkscape:label="Dividers"
     transform="translate(0,-3.8582677e-5)">
    <path
       d=""
       style="fill:none;stroke:#000000;stroke-width:0.20732725"
       id="path13036"
       inkscape:connector-curvature="0" />
    <path
       id="path4251"
       style="fill:none;stroke:#000000;stroke-width:0.26252338"
       d=""
       inkscape:connector-curvature="0" />
    <path
       id="path4255"
       style="fill:none;stroke:#000000;stroke-width:0.26252338"
       d=""
       inkscape:connector-curvature="0" />
    <path
       id="path4265"
       style="fill:none;stroke:#000000;stroke-width:0.26252338"
       d=""
       inkscape:connector-curvature="0" />
    <path
       id="path4269"
       style="fill:none;stroke:#000000;stroke-width:0.26252338"
       d=""
       inkscape:connector-curvature="0" />
    <path
       d=""
       style="fill:none;stroke:#000000;stroke-width:0.26892704"
       id="path4369"
       inkscape:connector-curvature="0" />
    <path
       d=""
       style="fill:none;stroke:#000000;stroke-width:0.26892704"
       id="path4373"
       inkscape:connector-curvature="0" />
    <path
       d=""
       style="fill:none;stroke:#000000;stroke-width:0.26892704"
       id="path4383"
       inkscape:connector-curvature="0" />
    <path
       d=""
       style="fill:none;stroke:#000000;stroke-width:0.26892704"
       id="path4387"
       inkscape:connector-curvature="0" />
    <path
       id="path6267"
       style="fill:none;stroke:#000000;stroke-width:0.41828161"
       d=""
       inkscape:connector-curvature="0" />
    <path
       id="path6287"
       style="fill:none;stroke:#000000;stroke-width:0.41828161"
       d=""
       inkscape:connector-curvature="0" />
    <path
       id="path6295"
       style="fill:none;stroke:#000000;stroke-width:0.41828161"
       d=""
       inkscape:connector-curvature="0" />
    <circle
       style="opacity:1;fill:none;fill-opacity:0;stroke:#000000;stroke-width:0.24420278;stroke-miterlimit:4;stroke-dasharray:none;stroke-opacity:1"
       id="circle9246"
       cx="-123.7972"
       cy="929.86932"
       r="22.82221"
       transform="matrix(-0.99999997,0,0,0.99999997,0,-804.33067)" />
    <path
       sodipodi:nodetypes="cccc"
       inkscape:connector-curvature="0"
       id="path4934"
       d="m 173.5677,125.69947 h -5.67167 m -3.27212,0 h -5.45353"
       style="opacity:1;fill:none;fill-opacity:0;stroke:#000000;stroke-width:0.35437554;stroke-miterlimit:4;stroke-dasharray:none;stroke-opacity:1" />
    <path
       inkscape:connector-curvature="0"
       id="path7759"
       d="m 166.14987,26.88692 v 96.36784 m 0,4.65367 v 117.95878"
       style="fill:none;fill-opacity:0;stroke:#000000;stroke-width:0.35433072;stroke-miterlimit:4;stroke-dasharray:none;stroke-opacity:1"
       sodipodi:nodetypes="cccc" />
    <path
       style="opacity:1;fill:none;fill-opacity:0;stroke:#000000;stroke-width:0.35437554;stroke-miterlimit:4;stroke-dasharray:none;stroke-opacity:1"
       d="m 89.512601,125.69947 h -5.67167 m -3.27212,0 h -5.45353"
       id="path7763"
       inkscape:connector-curvature="0"
       sodipodi:nodetypes="cccc" />
    <path
       style="opacity:1;fill:none;fill-opacity:0;stroke:#000000;stroke-width:0.35437554;stroke-miterlimit:4;stroke-dasharray:none;stroke-opacity:1"
       d="M 8.567694,125.69947 H 2.8960246"
       id="path7885"
       inkscape:connector-curvature="0" />
    <path
       style="opacity:1;fill:none;fill-opacity:0;stroke:#000000;stroke-width:0.35437554;stroke-miterlimit:4;stroke-dasharray:none;stroke-opacity:1"
       d="m 230.24891,125.69947 h -5.45353"
       id="path7767"
       inkscape:connector-curvature="0" />
    <path
       sodipodi:nodetypes="cccc"
       style="fill:none;fill-opacity:0;stroke:#000000;stroke-width:0.35433072;stroke-miterlimit:4;stroke-dasharray:none;stroke-opacity:1"
       d="M 82.313042,19.033871 V 123.25476 m 0,4.65367 v 117.95878"
       id="path7769"
       inkscape:connector-curvature="0" />
  </g>
  <g
     inkscape:groupmode="layer"
     id="layer6"
     inkscape:label="Graphics"
     transform="translate(0,-3.8582677e-5)">
    <g
       style="opacity:1"
       id="g7564"
       transform="matrix(0.73613655,0,0,0.73613655,116.43321,126.77714)"
       inkscape:label="Hershey Text">
      <path
         id="path7562"
         transform="translate(10)"
         style="fill:none;stroke:#000000"
         d="m -2,-16 v 29 m 4,-29 v 29 m 0,-25 2,1 1,2 v 2 l 2,-1 -1,-2 -1,-1 -3,-1 h -4 l -3,1 -2,2 v 3 l 1,2 3,2 6,2 2,1 1,2 V 6 L 5,8 M 6,-8 5,-10 m -11,4 1,2 2,1 6,2 2,1 1,2 M -5,7 -6,5 m 1,-16 -1,2 v 2 l 1,2 2,1 6,2 3,2 1,2 V 5 L 6,7 5,8 2,9 H -2 L -5,8 -6,7 -7,5 -5,4 v 2 l 1,2 2,1"
         inkscape:connector-curvature="0" />
    </g>
    <path
       inkscape:connector-curvature="0"
       d="m 54.398343,6.7878468 2,-1 3,-3 V 23.787849 m -1,-20.0000022 V 23.787849 m -4,0 h 9.000001"
       style="opacity:1;fill:none;stroke:#000000;stroke-width:0.35433075;stroke-miterlimit:4;stroke-dasharray:none;stroke-opacity:1"
       id="path6363" />
    <path
       style="display:inline;opacity:1;fill:none;fill-opacity:1;stroke:#000000;stroke-width:0.35433075;stroke-linecap:round;stroke-linejoin:round;stroke-miterlimit:4;stroke-dasharray:none;stroke-opacity:1"
       d="m 54.573161,0.599887 c -9.6868,0 -17.5395,7.83441 -17.5395,17.498641 0,9.664241 7.8527,17.498651 17.5395,17.498651 9.6868,0 17.53951,-7.83441 17.53951,-17.498651"
       id="path5552"
       inkscape:connector-curvature="0"
       sodipodi:nodetypes="cssc" />
    <path
       inkscape:connector-curvature="0"
       id="path5171"
       style="opacity:1;fill:none;stroke:#000000;stroke-width:0.35433075;stroke-miterlimit:4;stroke-dasharray:none;stroke-opacity:1"
       d="m 117.98778,6.4837842 1,1 -1,1.0000002 -1,-1.0000002 v -1 l 1,-1.9999999 1,-1 3,-1 h 4 l 3,1 1,1 1,1.9999999 v 2.0000002 l -1,1.9999996 -3,2 -5,2 -2,1 -2,2 -1,3 v 3 m 9,-20.9999997 2,1 1,1 1,1.9999999 v 2.0000002 l -1,1.9999996 -3,2 -4,2 m -5,7 1,-1 h 2 l 5,2 h 3 l 2,-1 1,-1 m -11,0 5,3 h 4 l 1,-1 1,-2 v -2" />
    <path
       sodipodi:nodetypes="cssc"
       inkscape:connector-curvature="0"
       id="path9547"
       d="m 119.69678,0.59988608 c -9.6868,0 -17.5395,7.83441502 -17.5395,17.49864492 0,9.66424 7.8527,17.49865 17.5395,17.49865 9.68681,0 17.53951,-7.83441 17.53951,-17.49865"
       style="display:inline;opacity:1;fill:none;fill-opacity:1;stroke:#000000;stroke-width:0.35433075;stroke-linecap:round;stroke-linejoin:round;stroke-miterlimit:4;stroke-dasharray:none;stroke-opacity:1" />
    <path
       sodipodi:nodetypes="cssc"
       inkscape:connector-curvature="0"
       id="path8585"
       d="m 200.06231,0.30805995 c -9.6868,0 -17.5395,7.83441105 -17.5395,17.49864105 0,9.66424 7.8527,17.49865 17.5395,17.49865 9.6868,0 17.5395,-7.83441 17.5395,-17.49865"
       style="display:inline;opacity:1;fill:none;fill-opacity:1;stroke:#000000;stroke-width:0.35433075;stroke-linecap:round;stroke-linejoin:round;stroke-miterlimit:4;stroke-dasharray:none;stroke-opacity:1" />
    <path
       id="path6217"
       style="opacity:1;fill:none;stroke:#000000;stroke-width:0.35433075;stroke-miterlimit:4;stroke-dasharray:none;stroke-opacity:1"
       d="m 200.1789,6.462091 1,1 -1,1 -1,-1 v -1 l 1,-1.999998 1,-1 3.00001,-1 h 4 l 3,1 1,1.999998 v 3 l -1,2 -3,1 h -3 m 3,-8.999998 2,1 1,1.999998 v 3 l -1,2 -2,1 m 0,0 2,1 2,2 1,2 v 3 l -1,2 -1,1 -3,1 h -4 l -3.00001,-1 -1,-1 -1,-2 v -1 l 1,-1 1,1 -1,1 m 11.00001,-6 1,3 v 3 l -1,2 -1,1 -2,1"
       inkscape:connector-curvature="0" />
    <g
       id="g8496"
       transform="matrix(0.70291066,-0.40582566,0.40582566,0.70291066,-17.829169,41.200953)">
      <g
         id="g8476">
        <rect
           style="fill:none;fill-opacity:0;stroke:#000000;stroke-width:0.35433072;stroke-miterlimit:4;stroke-dasharray:none;stroke-opacity:1"
           id="rect8379"
           width="52.958637"
           height="35.991299"
           x="15.034459"
           y="88.800781"
           rx="5.94312"
           ry="5.94312" />
        <rect
           ry="6.1409788"
           rx="6.1409788"
           y="87.881187"
           x="14.152907"
           height="37.933323"
           width="54.721737"
           id="rect8381"
           style="fill:none;fill-opacity:0;stroke:#000000;stroke-width:0.36612713;stroke-miterlimit:4;stroke-dasharray:none;stroke-opacity:1" />
      </g>
      <g
         id="g8484">
        <circle
           style="fill:none;fill-opacity:0;stroke:#000000;stroke-width:0.35433072;stroke-miterlimit:4;stroke-dasharray:none;stroke-opacity:1"
           id="path8387"
           cx="30.394512"
           cy="101.55198"
           r="4.3189564" />
        <path
           style="fill:none;fill-opacity:0;stroke:#000000;stroke-width:0.35433072;stroke-miterlimit:4;stroke-dasharray:none;stroke-opacity:1"
           d="m 29.447871,107.3106 h 2.30461 c 2.551892,0 6.765781,3.903 6.765781,6.32418 0,2.42119 -2.054411,2.41657 -4.606303,2.41657 h -6.829231 c -2.551892,0 -4.606303,0.005 -4.606303,-2.41657 0,-2.42118 4.419554,-6.32418 6.971446,-6.32418 z"
           id="rect8389"
           inkscape:connector-curvature="0"
           sodipodi:nodetypes="sssssss" />
        <rect
           style="fill:none;fill-opacity:0;stroke:#000000;stroke-width:0.35433072;stroke-miterlimit:4;stroke-dasharray:none;stroke-opacity:1"
           id="rect8391"
           width="20.15513"
           height="24.782583"
           x="20.00845"
           y="92.914078"
           rx="4.6063032"
           ry="4.6063032" />
        <rect
           style="fill:none;fill-opacity:0;stroke:#000000;stroke-width:0.35433072;stroke-miterlimit:4;stroke-dasharray:none;stroke-opacity:1"
           id="rect8394"
           width="17.275826"
           height="1.9538137"
           x="43.865543"
           y="99.186836"
           rx="0.97690684"
           ry="0.97690684" />
        <rect
           ry="0.97690684"
           rx="0.97690684"
           y="105.0997"
           x="43.865543"
           height="1.9538137"
           width="17.275826"
           id="rect8396"
           style="fill:none;fill-opacity:0;stroke:#000000;stroke-width:0.35433072;stroke-miterlimit:4;stroke-dasharray:none;stroke-opacity:1" />
        <path
           style="fill:none;fill-opacity:0;stroke:#000000;stroke-width:0.35433072;stroke-miterlimit:4;stroke-dasharray:none;stroke-opacity:1"
           d="m 44.84245,111.01257 h 9.871899 c 0.541207,0 0.976907,0.4357 0.976907,0.9769 0,0.54121 -0.4357,0.97691 -0.976907,0.97691 H 44.84245 c -0.541207,0 -0.976907,-0.4357 -0.976907,-0.97691 0,-0.5412 0.4357,-0.9769 0.976907,-0.9769 z"
           id="rect8398"
           inkscape:connector-curvature="0"
           sodipodi:nodetypes="sssssss" />
      </g>
    </g>
    <g
       id="g17315"
       transform="translate(0,1.8750001)">
      <g
         id="g17302">
        <rect
           style="fill:none;fill-opacity:0;stroke:#000000;stroke-width:0.35433072;stroke-miterlimit:4;stroke-dasharray:none;stroke-opacity:1"
           id="rect16733"
           width="69.103302"
           height="23.857094"
           x="6.5812674"
           y="131.83104"
           rx="7.8152514"
           ry="7.8152514" />
        <g
           inkscape:label="Hershey Text"
           transform="matrix(0.46105845,0,0,0.46105845,9.7468126,144.45117)"
           id="g16827">
          <path
             inkscape:connector-curvature="0"
             d="M 8,-7 7,-9 5,-11 3,-12 h -4 l -2,1 -2,2 -1,2 -1,3 v 5 l 1,3 1,2 2,2 2,1 H 3 L 5,8 7,6 8,4"
             style="fill:none;stroke:#000000"
             transform="translate(10)"
             id="path16819" />
          <path
             inkscape:connector-curvature="0"
             d="M 6,-5 V 9 M 6,-2 4,-4 2,-5 h -3 l -2,1 -2,2 -1,3 v 2 l 1,3 2,2 2,1 H 2 L 4,8 6,6"
             style="fill:none;stroke:#000000"
             transform="translate(30)"
             id="path16821" />
          <path
             inkscape:connector-curvature="0"
             d="M 0,-12 V 9"
             style="fill:none;stroke:#000000"
             transform="translate(44)"
             id="path16823" />
          <path
             inkscape:connector-curvature="0"
             d="M 0,-12 V 9"
             style="fill:none;stroke:#000000"
             transform="translate(52)"
             id="path16825" />
        </g>
      </g>
      <g
         inkscape:label="Hershey Text"
         transform="matrix(0.56525062,0,0,0.56525062,41.202631,144.46837)"
         id="g17107">
        <path
           inkscape:connector-curvature="0"
           d="m -6,-7 v -1 l 1,-2 1,-1 2,-1 h 4 l 2,1 1,1 1,2 v 2 L 5,-4 3,-1 -6,9 m 0,-16 h 1 v -1 l 1,-2 2,-1 h 4 l 2,1 1,2 v 2 L 4,-4 2,-1 -7,9 M -6,8 H 7 V 9 M -7,9 H 7"
           style="fill:none;stroke:#000000"
           transform="translate(10)"
           id="path17101" />
        <path
           inkscape:connector-curvature="0"
           d="m -4,-8 2,-1 3,-3 V 9 M -4,-8 v 1 l 2,-1 2,-2 V 9 h 1"
           style="fill:none;stroke:#000000"
           transform="translate(30)"
           id="path17103" />
        <path
           inkscape:connector-curvature="0"
           d="m -4,-8 2,-1 3,-3 V 9 M -4,-8 v 1 l 2,-1 2,-2 V 9 h 1"
           style="fill:none;stroke:#000000"
           transform="translate(50)"
           id="path17105" />
      </g>
    </g>
    <path
       inkscape:connector-curvature="0"
       d=""
       style="fill:none;stroke:#000000;stroke-width:0.18768072"
       id="path18498" />
    <path
       inkscape:connector-curvature="0"
       d=""
       style="fill:none;stroke:#000000;stroke-width:0.18768072"
       id="path18506" />
    <path
       inkscape:connector-curvature="0"
       d=""
       style="fill:none;stroke:#000000;stroke-width:0.18768072"
       id="path18512" />
    <path
       inkscape:connector-curvature="0"
       d=""
       style="fill:none;stroke:#000000;stroke-width:0.18768072"
       id="path18518" />
    <g
       id="g19854"
       transform="translate(8.1111625,0.91824481)">
      <path
         id="path18492"
         style="fill:none;stroke:#000000;stroke-width:0.18768072"
         d="m 5.723072,161.30491 -1.5014458,3.9413 m 1.5014458,-3.9413 1.5014458,3.9413 m -2.4398494,-1.31377 h 1.8768072"
         inkscape:connector-curvature="0" />
      <path
         id="path18494"
         style="fill:none;stroke:#000000;stroke-width:0.18768072"
         d="M 10.039729,163.18172 9.8520478,162.80636 9.2890056,162.61868 H 8.7259635 l -0.5630422,0.18768 -0.1876807,0.37536 0.1876807,0.37536 0.3753615,0.18768 0.9384036,0.18768 0.3753614,0.18768 0.1876812,0.37536 v 0.18768 l -0.1876812,0.37537 -0.5630422,0.18768 H 8.7259635 l -0.5630422,-0.18768 -0.1876807,-0.37537"
         inkscape:connector-curvature="0" />
      <path
         id="path18496"
         style="fill:none;stroke:#000000;stroke-width:0.18768072"
         d="m 11.353493,161.30491 v 3.9413 m 1.876808,-2.62753 -1.876808,1.8768 m 0.750723,-0.75072 1.313765,1.50145"
         inkscape:connector-curvature="0" />
      <path
         id="path18500"
         style="fill:none;stroke:#000000;stroke-width:0.18768072"
         d="M 18.673042,161.30491 H 18.29768 l -0.375361,0.18768 -0.187681,0.56304 v 3.19058 m -0.563042,-2.62753 h 1.313765"
         inkscape:connector-curvature="0" />
      <path
         id="path18502"
         style="fill:none;stroke:#000000;stroke-width:0.18768072"
         d="m 20.549849,162.61868 -0.375361,0.18768 -0.375362,0.37536 -0.18768,0.56304 v 0.37536 l 0.18768,0.56304 0.375362,0.37537 0.375361,0.18768 h 0.563042 l 0.375362,-0.18768 0.375361,-0.37537 0.187681,-0.56304 v -0.37536 l -0.187681,-0.56304 -0.375361,-0.37536 -0.375362,-0.18768 h -0.563042"
         inkscape:connector-curvature="0" />
      <path
         id="path18504"
         style="fill:none;stroke:#000000;stroke-width:0.18768072"
         d="m 23.36506,162.61868 v 2.62753 m 0,-1.50145 0.187681,-0.56304 0.375361,-0.37536 0.375361,-0.18768 h 0.563043"
         inkscape:connector-curvature="0" />
      <path
         id="path18508"
         style="fill:none;stroke:#000000;stroke-width:0.18768072"
         d="m 30.872288,162.61868 v 2.62753 m 0,-2.06449 -0.375361,-0.37536 -0.375362,-0.18768 h -0.563042 l -0.375361,0.18768 -0.375362,0.37536 -0.18768,0.56304 v 0.37536 l 0.18768,0.56304 0.375362,0.37537 0.375361,0.18768 h 0.563042 l 0.375362,-0.18768 0.375361,-0.37537"
         inkscape:connector-curvature="0" />
      <path
         id="path18510"
         style="fill:none;stroke:#000000;stroke-width:0.18768072"
         d="m 32.373734,162.61868 v 2.62753 m 0,-1.87681 0.563043,-0.56304 0.375361,-0.18768 h 0.563042 l 0.375362,0.18768 0.18768,0.56304 v 1.87681"
         inkscape:connector-curvature="0" />
      <path
         id="path18514"
         style="fill:none;stroke:#000000;stroke-width:0.18768072"
         d="m 38.942559,161.30491 v 3.9413"
         inkscape:connector-curvature="0" />
      <path
         id="path18516"
         style="fill:none;stroke:#000000;stroke-width:0.18768072"
         d="m 40.444005,161.30491 v 3.9413 m 0,-3.9413 h 1.313765 l 0.563042,0.18768 0.375362,0.37536 0.18768,0.37536 0.187681,0.56305 v 0.9384 l -0.187681,0.56304 -0.18768,0.37536 -0.375362,0.37537 -0.563042,0.18768 h -1.313765"
         inkscape:connector-curvature="0" />
      <path
         id="path18520"
         style="fill:none;stroke:#000000;stroke-width:0.18768072"
         d="m 49.452679,163.18172 -0.375361,-0.37536 -0.375362,-0.18768 h -0.563042 l -0.375361,0.18768 -0.375362,0.37536 -0.18768,0.56304 v 0.37536 l 0.18768,0.56304 0.375362,0.37537 0.375361,0.18768 h 0.563042 l 0.375362,-0.18768 0.375361,-0.37537"
         inkscape:connector-curvature="0" />
      <path
         id="path18522"
         style="fill:none;stroke:#000000;stroke-width:0.18768072"
         d="m 50.766445,161.30491 v 3.9413"
         inkscape:connector-curvature="0" />
      <path
         id="path18524"
         style="fill:none;stroke:#000000;stroke-width:0.18768072"
         d="m 52.08021,161.30491 0.187681,0.18768 0.187681,-0.18768 -0.187681,-0.18768 -0.187681,0.18768 m 0.187681,1.31377 v 2.62753"
         inkscape:connector-curvature="0" />
      <path
         id="path18526"
         style="fill:none;stroke:#000000;stroke-width:0.18768072"
         d="m 53.769336,162.61868 v 2.62753 m 0,-1.87681 0.563043,-0.56304 0.375361,-0.18768 h 0.563042 l 0.375362,0.18768 0.18768,0.56304 v 1.87681"
         inkscape:connector-curvature="0" />
      <path
         id="path18528"
         style="fill:none;stroke:#000000;stroke-width:0.18768072"
         d="m 57.147589,161.30491 0.187681,0.18768 0.187681,-0.18768 -0.187681,-0.18768 -0.187681,0.18768 m 0.187681,1.31377 v 2.62753"
         inkscape:connector-curvature="0" />
      <path
         id="path18530"
         style="fill:none;stroke:#000000;stroke-width:0.18768072"
         d="m 60.901203,163.18172 -0.375361,-0.37536 -0.375362,-0.18768 h -0.563042 l -0.375361,0.18768 -0.375362,0.37536 -0.18768,0.56304 v 0.37536 l 0.18768,0.56304 0.375362,0.37537 0.375361,0.18768 h 0.563042 l 0.375362,-0.18768 0.375361,-0.37537"
         inkscape:connector-curvature="0" />
      <path
         id="path18532"
         style="fill:none;stroke:#000000;stroke-width:0.18768072"
         d="m 62.214969,164.3078 -0.187681,0.18768 0.187681,0.18768 0.187681,-0.18768 -0.187681,-0.18768"
         inkscape:connector-curvature="0" />
    </g>
    <path
       inkscape:connector-curvature="0"
       d=""
       style="fill:none;stroke:#000000;stroke-width:0.18768072"
       id="path18534" />
    <path
       inkscape:connector-curvature="0"
       d=""
       style="fill:none;stroke:#000000;stroke-width:0.18768072"
       id="path18540" />
    <path
       inkscape:connector-curvature="0"
       d=""
       style="fill:none;stroke:#000000;stroke-width:0.18768072"
       id="path18546" />
    <path
       inkscape:connector-curvature="0"
       d=""
       style="fill:none;stroke:#000000;stroke-width:0.18768072"
       id="path18560" />
    <path
       inkscape:connector-curvature="0"
       d=""
       style="fill:none;stroke:#000000;stroke-width:0.18768072"
       id="path18566" />
    <path
       inkscape:connector-curvature="0"
       d=""
       style="fill:none;stroke:#000000;stroke-width:0.18768072"
       id="path18572" />
    <path
       inkscape:connector-curvature="0"
       d=""
       style="fill:none;stroke:#000000;stroke-width:0.18768072"
       id="path18584" />
    <path
       inkscape:connector-curvature="0"
       d=""
       style="fill:none;stroke:#000000;stroke-width:0.18768072"
       id="path18590" />
    <path
       inkscape:connector-curvature="0"
       d=""
       style="fill:none;stroke:#000000;stroke-width:0.18768072"
       id="path18600" />
    <path
       inkscape:connector-curvature="0"
       d=""
       style="fill:none;stroke:#000000;stroke-width:0.18768072"
       id="path18608" />
    <path
       inkscape:connector-curvature="0"
       d=""
       style="fill:none;stroke:#000000;stroke-width:0.18768072"
       id="path18616" />
    <path
       inkscape:connector-curvature="0"
       d=""
       style="fill:none;stroke:#000000;stroke-width:0.18768072"
       id="path18626" />
    <path
       inkscape:connector-curvature="0"
       d=""
       style="fill:none;stroke:#000000;stroke-width:0.18768072"
       id="path18648" />
    <path
       inkscape:connector-curvature="0"
       d=""
       style="fill:none;stroke:#000000;stroke-width:0.18768072"
       id="path18662" />
    <path
       inkscape:connector-curvature="0"
       d=""
       style="fill:none;stroke:#000000;stroke-width:0.18768072"
       id="path18670" />
    <path
       inkscape:connector-curvature="0"
       d=""
       style="fill:none;stroke:#000000;stroke-width:0.18768072"
       id="path18676" />
    <path
       inkscape:connector-curvature="0"
       d=""
       style="fill:none;stroke:#000000;stroke-width:0.18768072"
       id="path18682" />
    <path
       inkscape:connector-curvature="0"
       d=""
       style="fill:none;stroke:#000000;stroke-width:0.18768072"
       id="path18696" />
    <path
       inkscape:connector-curvature="0"
       d=""
       style="fill:none;stroke:#000000;stroke-width:0.18768072"
       id="path18702" />
    <path
       inkscape:connector-curvature="0"
       d=""
       style="fill:none;stroke:#000000;stroke-width:0.18768072"
       id="path18708" />
    <path
       inkscape:connector-curvature="0"
       d=""
       style="fill:none;stroke:#000000;stroke-width:0.18768072"
       id="path18720" />
    <path
       inkscape:connector-curvature="0"
       d=""
       style="fill:none;stroke:#000000;stroke-width:0.18768072"
       id="path18732" />
    <path
       inkscape:connector-curvature="0"
       d=""
       style="fill:none;stroke:#000000;stroke-width:0.18768072"
       id="path18748" />
    <path
       inkscape:connector-curvature="0"
       d=""
       style="fill:none;stroke:#000000;stroke-width:0.18768072"
       id="path18758" />
    <path
       inkscape:connector-curvature="0"
       d=""
       style="fill:none;stroke:#000000;stroke-width:0.18768072"
       id="path18772" />
    <path
       inkscape:connector-curvature="0"
       d=""
       style="fill:none;stroke:#000000;stroke-width:0.18768072"
       id="path18776" />
    <path
       inkscape:connector-curvature="0"
       d=""
       style="fill:none;stroke:#000000;stroke-width:0.18768072"
       id="path18790" />
    <path
       inkscape:connector-curvature="0"
       d=""
       style="fill:none;stroke:#000000;stroke-width:0.18768072"
       id="path18796" />
    <path
       inkscape:connector-curvature="0"
       d=""
       style="fill:none;stroke:#000000;stroke-width:0.18768072"
       id="path18806" />
    <path
       inkscape:connector-curvature="0"
       d=""
       style="fill:none;stroke:#000000;stroke-width:0.18768072"
       id="path18816" />
    <path
       inkscape:connector-curvature="0"
       d=""
       style="fill:none;stroke:#000000;stroke-width:0.18768072"
       id="path18824" />
    <path
       inkscape:connector-curvature="0"
       d=""
       style="fill:none;stroke:#000000;stroke-width:0.18768072"
       id="path18832" />
    <path
       inkscape:connector-curvature="0"
       d=""
       style="fill:none;stroke:#000000;stroke-width:0.18768072"
       id="path18844" />
    <path
       inkscape:connector-curvature="0"
       d=""
       style="fill:none;stroke:#000000;stroke-width:0.18768072"
       id="path18856" />
    <path
       inkscape:connector-curvature="0"
       d=""
       style="fill:none;stroke:#000000;stroke-width:0.18768072"
       id="path18866" />
    <path
       inkscape:connector-curvature="0"
       d=""
       style="fill:none;stroke:#000000;stroke-width:0.18768072"
       id="path18872" />
    <g
       id="g20159"
       transform="translate(0,4.6831627)">
      <path
         id="path18536"
         style="fill:none;stroke:#000000;stroke-width:0.18768072"
         d="m 5.723072,171.49414 -1.501446,3.9413 m 1.501446,-3.9413 1.501446,3.9413 m -2.43985,-1.31377 h 1.876808"
         inkscape:connector-curvature="0" />
      <path
         id="path18538"
         style="fill:none;stroke:#000000;stroke-width:0.18768072"
         d="m 8.162921,172.80791 v 2.62753 m 0,-1.87681 0.563043,-0.56304 0.375361,-0.18768 h 0.563042 l 0.375362,0.18768 0.18768,0.56304 v 1.87681"
         inkscape:connector-curvature="0" />
      <path
         id="path18542"
         style="fill:none;stroke:#000000;stroke-width:0.18768072"
         d="m 14.731747,171.49414 v 3.9413"
         inkscape:connector-curvature="0" />
      <path
         id="path18544"
         style="fill:none;stroke:#000000;stroke-width:0.18768072"
         d="m 16.233193,171.49414 v 3.9413 m 0,-3.9413 h 1.313765 l 0.563042,0.18768 0.375362,0.37536 0.18768,0.37536 0.187681,0.56305 v 0.9384 l -0.187681,0.56304 -0.18768,0.37536 -0.375362,0.37537 -0.563042,0.18768 h -1.313765"
         inkscape:connector-curvature="0" />
      <path
         id="path18548"
         style="fill:none;stroke:#000000;stroke-width:0.18768072"
         d="m 25.804909,172.43254 -0.187681,-0.37536 -0.375361,-0.37536 -0.375362,-0.18768 h -0.750723 l -0.375361,0.18768 -0.375362,0.37536 -0.18768,0.37536 -0.187681,0.56305 v 0.9384 l 0.187681,0.56304 0.18768,0.37536 0.375362,0.37537 0.375361,0.18768 h 0.750723 l 0.375362,-0.18768 0.375361,-0.37537 0.187681,-0.37536"
         inkscape:connector-curvature="0" />
      <path
         id="path18550"
         style="fill:none;stroke:#000000;stroke-width:0.18768072"
         d="m 27.118674,171.49414 v 3.9413"
         inkscape:connector-curvature="0" />
      <path
         id="path18552"
         style="fill:none;stroke:#000000;stroke-width:0.18768072"
         d="m 28.432439,171.49414 0.187681,0.18768 0.187681,-0.18768 -0.187681,-0.18768 -0.187681,0.18768 m 0.187681,1.31377 v 2.62753"
         inkscape:connector-curvature="0" />
      <path
         id="path18554"
         style="fill:none;stroke:#000000;stroke-width:0.18768072"
         d="m 30.121565,172.80791 v 2.62753 m 0,-1.87681 0.563043,-0.56304 0.375361,-0.18768 h 0.563042 l 0.375362,0.18768 0.18768,0.56304 v 1.87681"
         inkscape:connector-curvature="0" />
      <path
         id="path18556"
         style="fill:none;stroke:#000000;stroke-width:0.18768072"
         d="m 33.499819,171.49414 0.187681,0.18768 0.187681,-0.18768 -0.187681,-0.18768 -0.187681,0.18768 m 0.187681,1.31377 v 2.62753"
         inkscape:connector-curvature="0" />
      <path
         id="path18558"
         style="fill:none;stroke:#000000;stroke-width:0.18768072"
         d="m 37.253424,173.37095 -0.37536,-0.37536 -0.37536,-0.18768 h -0.56304 l -0.375362,0.18768 -0.375362,0.37536 -0.18768,0.56304 v 0.37536 l 0.18768,0.56304 0.375362,0.37537 0.375362,0.18768 h 0.56304 l 0.37536,-0.18768 0.37536,-0.37537"
         inkscape:connector-curvature="0" />
      <path
         id="path18562"
         style="fill:none;stroke:#000000;stroke-width:0.18768072"
         d="m 41.382414,171.49414 0.18768,0.18768 0.18768,-0.18768 -0.18768,-0.18768 -0.18768,0.18768 m 0.18768,1.31377 v 2.62753"
         inkscape:connector-curvature="0" />
      <path
         id="path18564"
         style="fill:none;stroke:#000000;stroke-width:0.18768072"
         d="m 44.948334,173.37095 -0.18768,-0.37536 -0.56304,-0.18768 h -0.56304 l -0.56304,0.18768 -0.18768,0.37536 0.18768,0.37536 0.37536,0.18768 0.9384,0.18768 0.37536,0.18768 0.18768,0.37536 v 0.18768 l -0.18768,0.37537 -0.56304,0.18768 h -0.56304 l -0.56304,-0.18768 -0.18768,-0.37537"
         inkscape:connector-curvature="0" />
      <path
         id="path18568"
         style="fill:none;stroke:#000000;stroke-width:0.18768072"
         d="m 51.329484,172.80791 v 2.62753 m 0,-2.06449 -0.37536,-0.37536 -0.37536,-0.18768 h -0.56304 l -0.37536,0.18768 -0.37536,0.37536 -0.18768,0.56304 v 0.37536 l 0.18768,0.56304 0.37536,0.37537 0.37536,0.18768 h 0.56304 l 0.37536,-0.18768 0.37536,-0.37537"
         inkscape:connector-curvature="0" />
      <path
         id="path18570"
         style="fill:none;stroke:#000000;stroke-width:0.18768072"
         d="m 52.830934,172.80791 v 2.62753 m 0,-1.87681 0.56304,-0.56304 0.37536,-0.18768 h 0.56304 l 0.37536,0.18768 0.18768,0.56304 v 1.87681"
         inkscape:connector-curvature="0" />
      <path
         id="path18574"
         style="fill:none;stroke:#000000;stroke-width:0.18768072"
         d="m 59.212084,173.93399 h 2.25216 v -0.37536 l -0.18768,-0.37536 -0.18768,-0.18768 -0.37536,-0.18768 h -0.56304 l -0.37536,0.18768 -0.37536,0.37536 -0.18768,0.56304 v 0.37536 l 0.18768,0.56304 0.37536,0.37537 0.37536,0.18768 h 0.56304 l 0.37536,-0.18768 0.37536,-0.37537"
         inkscape:connector-curvature="0" />
      <path
         id="path18576"
         style="fill:none;stroke:#000000;stroke-width:0.18768072"
         d="m 62.402654,172.80791 1.12608,2.62753 m 1.12608,-2.62753 -1.12608,2.62753"
         inkscape:connector-curvature="0" />
      <path
         id="path18578"
         style="fill:none;stroke:#000000;stroke-width:0.18768072"
         d="m 65.593224,173.93399 h 2.25216 v -0.37536 l -0.18768,-0.37536 -0.18768,-0.18768 -0.37536,-0.18768 h -0.56304 l -0.37536,0.18768 -0.37536,0.37536 -0.18768,0.56304 v 0.37536 l 0.18768,0.56304 0.37536,0.37537 0.37536,0.18768 h 0.56304 l 0.37536,-0.18768 0.37536,-0.37537"
         inkscape:connector-curvature="0" />
      <path
         id="path18580"
         style="fill:none;stroke:#000000;stroke-width:0.18768072"
         d="m 69.159164,172.80791 v 2.62753 m 0,-1.87681 0.56304,-0.56304 0.37536,-0.18768 h 0.56304 l 0.37536,0.18768 0.18768,0.56304 v 1.87681"
         inkscape:connector-curvature="0" />
      <path
         id="path18582"
         style="fill:none;stroke:#000000;stroke-width:0.18768072"
         d="m 72.912774,171.49414 v 3.19057 l 0.18768,0.56305 0.37536,0.18768 h 0.37536 m -1.50144,-2.62753 h 1.31376"
         inkscape:connector-curvature="0" />
    </g>
    <g
       id="g20425"
       transform="translate(0,2.8081626)">
      <path
         id="path18586"
         style="fill:none;stroke:#000000;stroke-width:0.18768072"
         d="m 4.696973,181.17422 v 3.19057 l 0.18768,0.56305 0.37536,0.18768 h 0.37536 m -1.50144,-2.62753 h 1.31376"
         inkscape:connector-curvature="0" />
      <path
         id="path18588"
         style="fill:none;stroke:#000000;stroke-width:0.18768072"
         d="m 7.512183,182.48799 -0.37536,0.18768 -0.37536,0.37536 -0.18768,0.56304 v 0.37536 l 0.18768,0.56304 0.37536,0.37537 0.37536,0.18768 h 0.56304 l 0.37536,-0.18768 0.37536,-0.37537 0.18769,-0.56304 v -0.37536 l -0.18769,-0.56304 -0.37536,-0.37536 -0.37536,-0.18768 h -0.56304"
         inkscape:connector-curvature="0" />
      <path
         id="path18592"
         style="fill:none;stroke:#000000;stroke-width:0.18768072"
         d="m 13.330283,181.17422 v 3.9413 m 0,-1.87681 0.56304,-0.56304 0.37536,-0.18768 h 0.56304 l 0.37536,0.18768 0.18768,0.56304 v 1.87681"
         inkscape:connector-curvature="0" />
      <path
         id="path18594"
         style="fill:none;stroke:#000000;stroke-width:0.18768072"
         d="m 16.708543,183.61407 h 2.25216 v -0.37536 l -0.18768,-0.37536 -0.18768,-0.18768 -0.37536,-0.18768 h -0.56304 l -0.37536,0.18768 -0.37536,0.37536 -0.18768,0.56304 v 0.37536 l 0.18768,0.56304 0.37536,0.37537 0.37536,0.18768 h 0.56304 l 0.37536,-0.18768 0.37536,-0.37537"
         inkscape:connector-curvature="0" />
      <path
         id="path18596"
         style="fill:none;stroke:#000000;stroke-width:0.18768072"
         d="m 20.274473,181.17422 v 3.9413"
         inkscape:connector-curvature="0" />
      <path
         id="path18598"
         style="fill:none;stroke:#000000;stroke-width:0.18768072"
         d="m 21.775923,182.48799 v 3.94129 m 0,-3.37825 0.37536,-0.37536 0.37536,-0.18768 h 0.56304 l 0.37536,0.18768 0.37536,0.37536 0.18768,0.56304 v 0.37536 l -0.18768,0.56304 -0.37536,0.37537 -0.37536,0.18768 h -0.56304 l -0.37536,-0.18768 -0.37536,-0.37537"
         inkscape:connector-curvature="0" />
      <path
         id="path18602"
         style="fill:none;stroke:#000000;stroke-width:0.18768072"
         d="m 27.969379,182.48799 1.12608,2.62753 m 1.12608,-2.62753 -1.12608,2.62753 -0.37536,0.75072 -0.37536,0.37536 -0.37536,0.18768 h -0.18769"
         inkscape:connector-curvature="0" />
      <path
         id="path18604"
         style="fill:none;stroke:#000000;stroke-width:0.18768072"
         d="m 32.098349,182.48799 -0.37536,0.18768 -0.37536,0.37536 -0.18768,0.56304 v 0.37536 l 0.18768,0.56304 0.37536,0.37537 0.37536,0.18768 h 0.56304 l 0.37536,-0.18768 0.37536,-0.37537 0.18769,-0.56304 v -0.37536 l -0.18769,-0.56304 -0.37536,-0.37536 -0.37536,-0.18768 h -0.56304"
         inkscape:connector-curvature="0" />
      <path
         id="path18606"
         style="fill:none;stroke:#000000;stroke-width:0.18768072"
         d="m 34.913569,182.48799 v 1.8768 l 0.18768,0.56305 0.37536,0.18768 h 0.56304 l 0.37536,-0.18768 0.56304,-0.56305 m 0,-1.8768 v 2.62753"
         inkscape:connector-curvature="0" />
      <path
         id="path18610"
         style="fill:none;stroke:#000000;stroke-width:0.18768072"
         d="m 43.546869,182.48799 v 3.00289 l -0.18768,0.56304 -0.18768,0.18768 -0.37536,0.18768 h -0.56304 l -0.37536,-0.18768 m 1.68912,-3.19057 -0.37536,-0.37536 -0.37536,-0.18768 h -0.56304 l -0.37536,0.18768 -0.37536,0.37536 -0.18768,0.56304 v 0.37536 l 0.18768,0.56304 0.37536,0.37537 0.37536,0.18768 h 0.56304 l 0.37536,-0.18768 0.37536,-0.37537"
         inkscape:connector-curvature="0" />
      <path
         id="path18612"
         style="fill:none;stroke:#000000;stroke-width:0.18768072"
         d="m 44.860639,183.61407 h 2.25216 v -0.37536 l -0.18768,-0.37536 -0.18768,-0.18768 -0.37536,-0.18768 h -0.56304 l -0.37536,0.18768 -0.37536,0.37536 -0.18768,0.56304 v 0.37536 l 0.18768,0.56304 0.37536,0.37537 0.37536,0.18768 h 0.56304 l 0.37536,-0.18768 0.37536,-0.37537"
         inkscape:connector-curvature="0" />
      <path
         id="path18614"
         style="fill:none;stroke:#000000;stroke-width:0.18768072"
         d="m 48.614249,181.17422 v 3.19057 l 0.18768,0.56305 0.37536,0.18768 h 0.37536 m -1.50144,-2.62753 h 1.31376"
         inkscape:connector-curvature="0" />
      <path
         id="path18618"
         style="fill:none;stroke:#000000;stroke-width:0.18768072"
         d="m 53.306279,182.48799 1.12608,2.62753 m 1.12608,-2.62753 -1.12608,2.62753 -0.37536,0.75072 -0.37536,0.37536 -0.37536,0.18768 h -0.18769"
         inkscape:connector-curvature="0" />
      <path
         id="path18620"
         style="fill:none;stroke:#000000;stroke-width:0.18768072"
         d="m 57.435249,182.48799 -0.37536,0.18768 -0.37536,0.37536 -0.18768,0.56304 v 0.37536 l 0.18768,0.56304 0.37536,0.37537 0.37536,0.18768 h 0.56304 l 0.37536,-0.18768 0.37536,-0.37537 0.18769,-0.56304 v -0.37536 l -0.18769,-0.56304 -0.37536,-0.37536 -0.37536,-0.18768 h -0.56304"
         inkscape:connector-curvature="0" />
      <path
         id="path18622"
         style="fill:none;stroke:#000000;stroke-width:0.18768072"
         d="m 60.250459,182.48799 v 1.8768 l 0.18768,0.56305 0.37536,0.18768 h 0.56304 l 0.37536,-0.18768 0.56304,-0.56305 m 0,-1.8768 v 2.62753"
         inkscape:connector-curvature="0" />
      <path
         id="path18624"
         style="fill:none;stroke:#000000;stroke-width:0.18768072"
         d="m 63.816399,182.48799 v 2.62753 m 0,-1.50145 0.18768,-0.56304 0.37536,-0.37536 0.37536,-0.18768 h 0.56304"
         inkscape:connector-curvature="0" />
    </g>
    <g
       id="g20660">
      <path
         id="path18628"
         style="fill:none;stroke:#000000;stroke-width:0.18768072"
         d="m 7.042993,193.69722 -0.18768,-0.37536 -0.37537,-0.37536 -0.37536,-0.18768 h -0.75072 l -0.37536,0.18768 -0.37536,0.37536 -0.18768,0.37536 -0.18769,0.56305 v 0.9384 l 0.18769,0.56304 0.18768,0.37536 0.37536,0.37537 0.37536,0.18768 h 0.75072 l 0.37536,-0.18768 0.37537,-0.37537 0.18768,-0.37536 v -0.56304 m -0.93841,0 h 0.93841"
         inkscape:connector-curvature="0" />
      <path
         id="path18630"
         style="fill:none;stroke:#000000;stroke-width:0.18768072"
         d="m 9.107473,194.07259 -0.37536,0.18768 -0.37536,0.37536 -0.18768,0.56304 v 0.37536 l 0.18768,0.56304 0.37536,0.37537 0.37536,0.18768 h 0.56304 l 0.37536,-0.18768 0.37536,-0.37537 0.18769,-0.56304 v -0.37536 l -0.18769,-0.56304 -0.37536,-0.37536 -0.37536,-0.18768 h -0.56304"
         inkscape:connector-curvature="0" />
      <path
         id="path18632"
         style="fill:none;stroke:#000000;stroke-width:0.18768072"
         d="m 11.547333,194.07259 1.12608,2.62753 m 1.12608,-2.62753 -1.12608,2.62753"
         inkscape:connector-curvature="0" />
      <path
         id="path18634"
         style="fill:none;stroke:#000000;stroke-width:0.18768072"
         d="m 14.737903,195.19867 h 2.25216 v -0.37536 l -0.18768,-0.37536 -0.18768,-0.18768 -0.37536,-0.18768 h -0.56304 l -0.37536,0.18768 -0.37536,0.37536 -0.18768,0.56304 v 0.37536 l 0.18768,0.56304 0.37536,0.37537 0.37536,0.18768 h 0.56304 l 0.37536,-0.18768 0.37536,-0.37537"
         inkscape:connector-curvature="0" />
      <path
         id="path18636"
         style="fill:none;stroke:#000000;stroke-width:0.18768072"
         d="m 18.303833,194.07259 v 2.62753 m 0,-1.50145 0.18768,-0.56304 0.37536,-0.37536 0.37536,-0.18768 h 0.56304"
         inkscape:connector-curvature="0" />
      <path
         id="path18638"
         style="fill:none;stroke:#000000;stroke-width:0.18768072"
         d="m 20.743683,194.07259 v 2.62753 m 0,-1.87681 0.56304,-0.56304 0.37536,-0.18768 h 0.56304 l 0.37536,0.18768 0.18768,0.56304 v 1.87681"
         inkscape:connector-curvature="0" />
      <path
         id="path18640"
         style="fill:none;stroke:#000000;stroke-width:0.18768072"
         d="m 24.309613,194.07259 v 2.62753 m 0,-1.87681 0.56304,-0.56304 0.37537,-0.18768 h 0.56304 l 0.37536,0.18768 0.18768,0.56304 v 1.87681 m 0,-1.87681 0.56304,-0.56304 0.37536,-0.18768 h 0.56305 l 0.37536,0.18768 0.18768,0.56304 v 1.87681"
         inkscape:connector-curvature="0" />
      <path
         id="path18642"
         style="fill:none;stroke:#000000;stroke-width:0.18768072"
         d="m 29.752363,195.19867 h 2.25216 v -0.37536 l -0.18768,-0.37536 -0.18768,-0.18768 -0.37536,-0.18768 h -0.56304 l -0.37536,0.18768 -0.37536,0.37536 -0.18768,0.56304 v 0.37536 l 0.18768,0.56304 0.37536,0.37537 0.37536,0.18768 h 0.56304 l 0.37536,-0.18768 0.37536,-0.37537"
         inkscape:connector-curvature="0" />
      <path
         id="path18644"
         style="fill:none;stroke:#000000;stroke-width:0.18768072"
         d="m 33.318293,194.07259 v 2.62753 m 0,-1.87681 0.56304,-0.56304 0.37536,-0.18768 h 0.56304 l 0.375361,0.18768 0.18768,0.56304 v 1.87681"
         inkscape:connector-curvature="0" />
      <path
         id="path18646"
         style="fill:none;stroke:#000000;stroke-width:0.18768072"
         d="m 37.071904,192.75882 v 3.19057 l 0.18768,0.56305 0.37536,0.18768 h 0.37536 m -1.50144,-2.62753 h 1.31376"
         inkscape:connector-curvature="0" />
      <path
         id="path18650"
         style="fill:none;stroke:#000000;stroke-width:0.18768072"
         d="m 41.951604,192.75882 0.18768,0.18768 0.18768,-0.18768 -0.18768,-0.18768 -0.18768,0.18768 m 0.18768,1.31377 v 2.62753"
         inkscape:connector-curvature="0" />
      <path
         id="path18652"
         style="fill:none;stroke:#000000;stroke-width:0.18768072"
         d="m 45.517534,194.63563 -0.18768,-0.37536 -0.56304,-0.18768 h -0.56304 l -0.56304,0.18768 -0.18768,0.37536 0.18768,0.37536 0.37536,0.18768 0.9384,0.18768 0.37536,0.18768 0.18768,0.37536 v 0.18768 l -0.18768,0.37537 -0.56304,0.18768 h -0.56304 l -0.56304,-0.18768 -0.18768,-0.37537"
         inkscape:connector-curvature="0" />
      <path
         id="path18654"
         style="fill:none;stroke:#000000;stroke-width:0.18768072"
         d="m 48.708104,194.63563 -0.18768,-0.37536 -0.56304,-0.18768 h -0.56304 l -0.56304,0.18768 -0.18768,0.37536 0.18768,0.37536 0.37536,0.18768 0.9384,0.18768 0.37536,0.18768 0.18768,0.37536 v 0.18768 l -0.18768,0.37537 -0.56304,0.18768 h -0.56304 l -0.56304,-0.18768 -0.18768,-0.37537"
         inkscape:connector-curvature="0" />
      <path
         id="path18656"
         style="fill:none;stroke:#000000;stroke-width:0.18768072"
         d="m 50.021874,194.07259 v 1.8768 l 0.18768,0.56305 0.37536,0.18768 h 0.56304 l 0.37536,-0.18768 0.56304,-0.56305 m 0,-1.8768 v 2.62753"
         inkscape:connector-curvature="0" />
      <path
         id="path18658"
         style="fill:none;stroke:#000000;stroke-width:0.18768072"
         d="m 53.400134,195.19867 h 2.25216 v -0.37536 l -0.18768,-0.37536 -0.18768,-0.18768 -0.37536,-0.18768 h -0.56304 l -0.37536,0.18768 -0.37536,0.37536 -0.18768,0.56304 v 0.37536 l 0.18768,0.56304 0.37536,0.37537 0.37536,0.18768 h 0.56304 l 0.37536,-0.18768 0.37536,-0.37537"
         inkscape:connector-curvature="0" />
      <path
         id="path18660"
         style="fill:none;stroke:#000000;stroke-width:0.18768072"
         d="m 59.030544,192.75882 v 3.9413 m 0,-2.06449 -0.37536,-0.37536 -0.37536,-0.18768 h -0.56304 l -0.37536,0.18768 -0.37536,0.37536 -0.18768,0.56304 v 0.37536 l 0.18768,0.56304 0.37536,0.37537 0.37536,0.18768 h 0.56304 l 0.37536,-0.18768 0.37536,-0.37537"
         inkscape:connector-curvature="0" />
      <path
         id="path18664"
         style="fill:none;stroke:#000000;stroke-width:0.18768072"
         d="m 63.534884,192.75882 v 3.9413"
         inkscape:connector-curvature="0" />
      <path
         id="path18666"
         style="fill:none;stroke:#000000;stroke-width:0.18768072"
         d="m 65.036324,192.75882 v 3.9413 m 0,-3.9413 h 1.31377 l 0.56304,0.18768 0.37536,0.37536 0.18768,0.37536 0.18769,0.56305 v 0.9384 l -0.18769,0.56304 -0.18768,0.37536 -0.37536,0.37537 -0.56304,0.18768 h -1.31377"
         inkscape:connector-curvature="0" />
      <path
         id="path18668"
         style="fill:none;stroke:#000000;stroke-width:0.18768072"
         d="m 68.977624,195.76171 -0.18768,0.18768 0.18768,0.18768 0.18768,-0.18768 -0.18768,-0.18768"
         inkscape:connector-curvature="0" />
    </g>
    <g
       id="g20857">
      <path
         id="path18672"
         style="fill:none;stroke:#000000;stroke-width:0.18768072"
         d="m 5.723075,205.51379 -1.50145,3.9413 m 1.50145,-3.9413 1.50145,3.9413 m -2.43985,-1.31377 h 1.8768"
         inkscape:connector-curvature="0" />
      <path
         id="path18674"
         style="fill:none;stroke:#000000;stroke-width:0.18768072"
         d="m 8.162925,206.82756 v 2.62753 m 0,-1.87681 0.56304,-0.56304 0.37536,-0.18768 h 0.56304 l 0.37536,0.18768 0.18768,0.56304 v 1.87681"
         inkscape:connector-curvature="0" />
      <path
         id="path18678"
         style="fill:none;stroke:#000000;stroke-width:0.18768072"
         d="m 14.731755,205.51379 v 3.9413"
         inkscape:connector-curvature="0" />
      <path
         id="path18680"
         style="fill:none;stroke:#000000;stroke-width:0.18768072"
         d="m 16.233195,205.51379 v 3.9413 m 0,-3.9413 h 1.31377 l 0.56304,0.18768 0.37536,0.37536 0.18768,0.37536 0.18769,0.56305 v 0.9384 l -0.18769,0.56304 -0.18768,0.37536 -0.37536,0.37537 -0.56304,0.18768 h -1.31377"
         inkscape:connector-curvature="0" />
      <path
         id="path18684"
         style="fill:none;stroke:#000000;stroke-width:0.18768072"
         d="m 25.804915,206.45219 -0.18768,-0.37536 -0.37537,-0.37536 -0.37536,-0.18768 h -0.75072 l -0.37536,0.18768 -0.37536,0.37536 -0.18768,0.37536 -0.18769,0.56305 v 0.9384 l 0.18769,0.56304 0.18768,0.37536 0.37536,0.37537 0.37536,0.18768 h 0.75072 l 0.37536,-0.18768 0.37537,-0.37537 0.18768,-0.37536"
         inkscape:connector-curvature="0" />
      <path
         id="path18686"
         style="fill:none;stroke:#000000;stroke-width:0.18768072"
         d="m 27.118675,205.51379 v 3.9413"
         inkscape:connector-curvature="0" />
      <path
         id="path18688"
         style="fill:none;stroke:#000000;stroke-width:0.18768072"
         d="m 28.432445,205.51379 0.18768,0.18768 0.18768,-0.18768 -0.18768,-0.18768 -0.18768,0.18768 m 0.18768,1.31377 v 2.62753"
         inkscape:connector-curvature="0" />
      <path
         id="path18690"
         style="fill:none;stroke:#000000;stroke-width:0.18768072"
         d="m 30.121571,206.82756 v 2.62753 m 0,-1.87681 0.56304,-0.56304 0.37536,-0.18768 h 0.56304 l 0.37536,0.18768 0.18768,0.56304 v 1.87681"
         inkscape:connector-curvature="0" />
      <path
         id="path18692"
         style="fill:none;stroke:#000000;stroke-width:0.18768072"
         d="m 33.499821,205.51379 0.18768,0.18768 0.18768,-0.18768 -0.18768,-0.18768 -0.18768,0.18768 m 0.18768,1.31377 v 2.62753"
         inkscape:connector-curvature="0" />
      <path
         id="path18694"
         style="fill:none;stroke:#000000;stroke-width:0.18768072"
         d="m 37.253431,207.3906 -0.37536,-0.37536 -0.37536,-0.18768 h -0.56304 l -0.37536,0.18768 -0.37536,0.37536 -0.18768,0.56304 v 0.37536 l 0.18768,0.56304 0.37536,0.37537 0.37536,0.18768 h 0.56304 l 0.37536,-0.18768 0.37536,-0.37537"
         inkscape:connector-curvature="0" />
      <path
         id="path18698"
         style="fill:none;stroke:#000000;stroke-width:0.18768072"
         d="m 41.382411,205.51379 0.18768,0.18768 0.18768,-0.18768 -0.18768,-0.18768 -0.18768,0.18768 m 0.18768,1.31377 v 2.62753"
         inkscape:connector-curvature="0" />
      <path
         id="path18700"
         style="fill:none;stroke:#000000;stroke-width:0.18768072"
         d="m 44.948341,207.3906 -0.18768,-0.37536 -0.56304,-0.18768 h -0.56304 l -0.56304,0.18768 -0.18768,0.37536 0.18768,0.37536 0.37536,0.18768 0.9384,0.18768 0.37536,0.18768 0.18768,0.37536 v 0.18768 l -0.18768,0.37537 -0.56304,0.18768 h -0.56304 l -0.56304,-0.18768 -0.18768,-0.37537"
         inkscape:connector-curvature="0" />
      <path
         id="path18704"
         style="fill:none;stroke:#000000;stroke-width:0.18768072"
         d="m 51.329481,206.82756 v 2.62753 m 0,-2.06449 -0.37536,-0.37536 -0.37536,-0.18768 h -0.56304 l -0.37536,0.18768 -0.37536,0.37536 -0.18768,0.56304 v 0.37536 l 0.18768,0.56304 0.37536,0.37537 0.37536,0.18768 h 0.56304 l 0.37536,-0.18768 0.37536,-0.37537"
         inkscape:connector-curvature="0" />
      <path
         id="path18706"
         style="fill:none;stroke:#000000;stroke-width:0.18768072"
         d="m 52.830941,206.82756 v 2.62753 m 0,-1.87681 0.56304,-0.56304 0.37536,-0.18768 h 0.56304 l 0.37536,0.18768 0.18768,0.56304 v 1.87681"
         inkscape:connector-curvature="0" />
      <path
         id="path18710"
         style="fill:none;stroke:#000000;stroke-width:0.18768072"
         d="m 59.212081,207.95364 h 2.25216 v -0.37536 l -0.18768,-0.37536 -0.18768,-0.18768 -0.37536,-0.18768 h -0.56304 l -0.37536,0.18768 -0.37536,0.37536 -0.18768,0.56304 v 0.37536 l 0.18768,0.56304 0.37536,0.37537 0.37536,0.18768 h 0.56304 l 0.37536,-0.18768 0.37536,-0.37537"
         inkscape:connector-curvature="0" />
      <path
         id="path18712"
         style="fill:none;stroke:#000000;stroke-width:0.18768072"
         d="m 62.402651,206.82756 1.12608,2.62753 m 1.12608,-2.62753 -1.12608,2.62753"
         inkscape:connector-curvature="0" />
      <path
         id="path18714"
         style="fill:none;stroke:#000000;stroke-width:0.18768072"
         d="m 65.593231,207.95364 h 2.25216 v -0.37536 l -0.18768,-0.37536 -0.18768,-0.18768 -0.37536,-0.18768 h -0.56304 l -0.37536,0.18768 -0.37536,0.37536 -0.18768,0.56304 v 0.37536 l 0.18768,0.56304 0.37536,0.37537 0.37536,0.18768 h 0.56304 l 0.37536,-0.18768 0.37536,-0.37537"
         inkscape:connector-curvature="0" />
      <path
         id="path18716"
         style="fill:none;stroke:#000000;stroke-width:0.18768072"
         d="m 69.159161,206.82756 v 2.62753 m 0,-1.87681 0.56304,-0.56304 0.37536,-0.18768 h 0.56304 l 0.37536,0.18768 0.18768,0.56304 v 1.87681"
         inkscape:connector-curvature="0" />
      <path
         id="path18718"
         style="fill:none;stroke:#000000;stroke-width:0.18768072"
         d="m 72.912771,205.51379 v 3.19057 l 0.18768,0.56305 0.37536,0.18768 h 0.37536 m -1.50144,-2.62753 h 1.31376"
         inkscape:connector-curvature="0" />
    </g>
    <g
       id="g21019">
      <path
         id="path18722"
         style="fill:none;stroke:#000000;stroke-width:0.18768072"
         d="m 4.224162,214.72416 0.75073,2.62753 m 0.75072,-2.62753 -0.75072,2.62753 m 0.75072,-2.62753 0.75072,2.62753 m 0.75073,-2.62753 -0.75073,2.62753"
         inkscape:connector-curvature="0" />
      <path
         id="path18724"
         style="fill:none;stroke:#000000;stroke-width:0.18768072"
         d="m 8.540832,213.41039 v 3.9413 m 0,-1.87681 0.56304,-0.56304 0.37536,-0.18768 h 0.56304 l 0.37536,0.18768 0.18768,0.56304 v 1.87681"
         inkscape:connector-curvature="0" />
      <path
         id="path18726"
         style="fill:none;stroke:#000000;stroke-width:0.18768072"
         d="m 11.919082,213.41039 0.18768,0.18768 0.18768,-0.18768 -0.18768,-0.18768 -0.18768,0.18768 m 0.18768,1.31377 v 2.62753"
         inkscape:connector-curvature="0" />
      <path
         id="path18728"
         style="fill:none;stroke:#000000;stroke-width:0.18768072"
         d="m 15.672692,215.2872 -0.37536,-0.37536 -0.37536,-0.18768 h -0.56304 l -0.37536,0.18768 -0.37536,0.37536 -0.18768,0.56304 v 0.37536 l 0.18768,0.56304 0.37536,0.37537 0.37536,0.18768 h 0.56304 l 0.37536,-0.18768 0.37536,-0.37537"
         inkscape:connector-curvature="0" />
      <path
         id="path18730"
         style="fill:none;stroke:#000000;stroke-width:0.18768072"
         d="m 16.986462,213.41039 v 3.9413 m 0,-1.87681 0.56304,-0.56304 0.37536,-0.18768 h 0.56304 l 0.37536,0.18768 0.18768,0.56304 v 1.87681"
         inkscape:connector-curvature="0" />
      <path
         id="path18734"
         style="fill:none;stroke:#000000;stroke-width:0.18768072"
         d="m 23.555292,214.72416 v 1.8768 l 0.18768,0.56305 0.37536,0.18768 h 0.56304 l 0.37536,-0.18768 0.56304,-0.56305 m 0,-1.8768 v 2.62753"
         inkscape:connector-curvature="0" />
      <path
         id="path18736"
         style="fill:none;stroke:#000000;stroke-width:0.18768072"
         d="m 28.998021,215.2872 -0.18768,-0.37536 -0.56304,-0.18768 h -0.56304 l -0.56304,0.18768 -0.18768,0.37536 0.18768,0.37536 0.37536,0.18768 0.9384,0.18768 0.37536,0.18768 0.18768,0.37536 v 0.18768 l -0.18768,0.37537 -0.56304,0.18768 h -0.56304 l -0.56304,-0.18768 -0.18768,-0.37537"
         inkscape:connector-curvature="0" />
      <path
         id="path18738"
         style="fill:none;stroke:#000000;stroke-width:0.18768072"
         d="m 30.311791,214.72416 v 1.8768 l 0.18768,0.56305 0.37536,0.18768 h 0.56304 l 0.37536,-0.18768 0.56304,-0.56305 m 0,-1.8768 v 2.62753"
         inkscape:connector-curvature="0" />
      <path
         id="path18740"
         style="fill:none;stroke:#000000;stroke-width:0.18768072"
         d="m 35.942201,214.72416 v 2.62753 m 0,-2.06449 -0.37536,-0.37536 -0.37536,-0.18768 h -0.56304 l -0.37536,0.18768 -0.37536,0.37536 -0.18768,0.56304 v 0.37536 l 0.18768,0.56304 0.37536,0.37537 0.37536,0.18768 h 0.56304 l 0.37536,-0.18768 0.37536,-0.37537"
         inkscape:connector-curvature="0" />
      <path
         id="path18742"
         style="fill:none;stroke:#000000;stroke-width:0.18768072"
         d="m 37.443651,213.41039 v 3.9413"
         inkscape:connector-curvature="0" />
      <path
         id="path18744"
         style="fill:none;stroke:#000000;stroke-width:0.18768072"
         d="m 38.945101,213.41039 v 3.9413"
         inkscape:connector-curvature="0" />
      <path
         id="path18746"
         style="fill:none;stroke:#000000;stroke-width:0.18768072"
         d="m 40.071191,214.72416 1.12608,2.62753 m 1.12608,-2.62753 -1.12608,2.62753 -0.37536,0.75072 -0.37536,0.37536 -0.37536,0.18768 h -0.18769"
         inkscape:connector-curvature="0" />
      <path
         id="path18750"
         style="fill:none;stroke:#000000;stroke-width:0.18768072"
         d="m 46.452331,213.41039 v 3.9413"
         inkscape:connector-curvature="0" />
      <path
         id="path18752"
         style="fill:none;stroke:#000000;stroke-width:0.18768072"
         d="m 50.018261,214.72416 v 2.62753 m 0,-2.06449 -0.37536,-0.37536 -0.37536,-0.18768 h -0.56304 l -0.37536,0.18768 -0.37536,0.37536 -0.18768,0.56304 v 0.37536 l 0.18768,0.56304 0.37536,0.37537 0.37536,0.18768 h 0.56304 l 0.37536,-0.18768 0.37536,-0.37537"
         inkscape:connector-curvature="0" />
      <path
         id="path18754"
         style="fill:none;stroke:#000000;stroke-width:0.18768072"
         d="m 53.396511,215.2872 -0.18768,-0.37536 -0.56304,-0.18768 h -0.56304 l -0.56304,0.18768 -0.18768,0.37536 0.18768,0.37536 0.37536,0.18768 0.9384,0.18768 0.37536,0.18768 0.18768,0.37536 v 0.18768 l -0.18768,0.37537 -0.56304,0.18768 h -0.56304 l -0.56304,-0.18768 -0.18768,-0.37537"
         inkscape:connector-curvature="0" />
      <path
         id="path18756"
         style="fill:none;stroke:#000000;stroke-width:0.18768072"
         d="m 54.897961,213.41039 v 3.19057 l 0.18768,0.56305 0.37536,0.18768 h 0.37536 m -1.50144,-2.62753 h 1.31376"
         inkscape:connector-curvature="0" />
      <path
         id="path18760"
         style="fill:none;stroke:#000000;stroke-width:0.18768072"
         d="m 62.029821,214.72416 v 2.62753 m 0,-2.06449 -0.37536,-0.37536 -0.37536,-0.18768 h -0.56304 l -0.37536,0.18768 -0.37536,0.37536 -0.18768,0.56304 v 0.37536 l 0.18768,0.56304 0.37536,0.37537 0.37536,0.18768 h 0.56304 l 0.37536,-0.18768 0.37536,-0.37537"
         inkscape:connector-curvature="0" />
      <path
         id="path18762"
         style="fill:none;stroke:#000000;stroke-width:0.18768072"
         d="m 63.531281,214.72416 v 2.62753 m 0,-1.50145 0.18768,-0.56304 0.37536,-0.37536 0.37536,-0.18768 h 0.56304"
         inkscape:connector-curvature="0" />
      <path
         id="path18764"
         style="fill:none;stroke:#000000;stroke-width:0.18768072"
         d="m 66.721851,214.72416 -0.37536,0.18768 -0.37536,0.37536 -0.18768,0.56304 v 0.37536 l 0.18768,0.56304 0.37536,0.37537 0.37536,0.18768 h 0.56304 l 0.37536,-0.18768 0.37536,-0.37537 0.18769,-0.56304 v -0.37536 l -0.18769,-0.56304 -0.37536,-0.37536 -0.37536,-0.18768 h -0.56304"
         inkscape:connector-curvature="0" />
      <path
         id="path18766"
         style="fill:none;stroke:#000000;stroke-width:0.18768072"
         d="m 69.537061,214.72416 v 1.8768 l 0.18768,0.56305 0.37536,0.18768 h 0.56304 l 0.37536,-0.18768 0.56304,-0.56305 m 0,-1.8768 v 2.62753"
         inkscape:connector-curvature="0" />
      <path
         id="path18768"
         style="fill:none;stroke:#000000;stroke-width:0.18768072"
         d="m 73.103001,214.72416 v 2.62753 m 0,-1.87681 0.56304,-0.56304 0.37536,-0.18768 h 0.56304 l 0.37536,0.18768 0.18768,0.56304 v 1.87681"
         inkscape:connector-curvature="0" />
      <path
         id="path18770"
         style="fill:none;stroke:#000000;stroke-width:0.18768072"
         d="m 78.733411,213.41039 v 3.9413 m 0,-2.06449 -0.37536,-0.37536 -0.37536,-0.18768 h -0.56304 l -0.37536,0.18768 -0.37536,0.37536 -0.18768,0.56304 v 0.37536 l 0.18768,0.56304 0.37536,0.37537 0.37536,0.18768 h 0.56304 l 0.37536,-0.18768 0.37536,-0.37537"
         inkscape:connector-curvature="0" />
    </g>
    <g
       id="g21163">
      <path
         id="path18774"
         style="fill:none;stroke:#000000;stroke-width:0.18768072"
         d="m 4.548173,223.00609 v -0.18768 l 0.18768,-0.37536 0.18768,-0.18768 0.37536,-0.18768 h 0.75072 l 0.37536,0.18768 0.18768,0.18768 0.18768,0.37536 v 0.37537 l -0.18768,0.37536 -0.37536,0.56304 -1.87681,1.87681 h 2.62754"
         inkscape:connector-curvature="0" />
      <path
         id="path18778"
         style="fill:none;stroke:#000000;stroke-width:0.18768072"
         d="m 11.304683,222.06769 v 3.9413 m 0,-1.87681 0.56304,-0.56304 0.37536,-0.18768 h 0.56304 l 0.37536,0.18768 0.18768,0.56304 v 1.87681"
         inkscape:connector-curvature="0" />
      <path
         id="path18780"
         style="fill:none;stroke:#000000;stroke-width:0.18768072"
         d="m 15.621333,223.38146 -0.37536,0.18768 -0.37536,0.37536 -0.18768,0.56304 v 0.37536 l 0.18768,0.56304 0.37536,0.37537 0.37536,0.18768 h 0.56304 l 0.37536,-0.18768 0.37536,-0.37537 0.18769,-0.56304 v -0.37536 l -0.18769,-0.56304 -0.37536,-0.37536 -0.37536,-0.18768 h -0.56304"
         inkscape:connector-curvature="0" />
      <path
         id="path18782"
         style="fill:none;stroke:#000000;stroke-width:0.18768072"
         d="m 18.436553,223.38146 v 1.8768 l 0.18768,0.56305 0.37536,0.18768 h 0.56304 l 0.37536,-0.18768 0.56304,-0.56305 m 0,-1.8768 v 2.62753"
         inkscape:connector-curvature="0" />
      <path
         id="path18784"
         style="fill:none;stroke:#000000;stroke-width:0.18768072"
         d="m 22.002482,223.38146 v 2.62753 m 0,-1.50145 0.18768,-0.56304 0.37536,-0.37536 0.37536,-0.18768 h 0.56304"
         inkscape:connector-curvature="0" />
      <path
         id="path18786"
         style="fill:none;stroke:#000000;stroke-width:0.18768072"
         d="m 26.319132,223.9445 -0.18768,-0.37536 -0.56304,-0.18768 h -0.56304 l -0.56304,0.18768 -0.18768,0.37536 0.18768,0.37536 0.37536,0.18768 0.9384,0.18768 0.37536,0.18768 0.18768,0.37536 v 0.18768 l -0.18768,0.37537 -0.56304,0.18768 h -0.56304 l -0.56304,-0.18768 -0.18768,-0.37537"
         inkscape:connector-curvature="0" />
      <path
         id="path18788"
         style="fill:none;stroke:#000000;stroke-width:0.18768072"
         d="m 27.820582,225.25826 -0.18768,0.18768 -0.18768,-0.18768 0.18768,-0.18768 0.18768,0.18768 v 0.37537 l -0.37536,0.37536"
         inkscape:connector-curvature="0" />
      <path
         id="path18792"
         style="fill:none;stroke:#000000;stroke-width:0.18768072"
         d="m 34.014042,223.9445 -0.18768,-0.37536 -0.56304,-0.18768 h -0.56304 l -0.56304,0.18768 -0.18768,0.37536 0.18768,0.37536 0.37536,0.18768 0.9384,0.18768 0.37536,0.18768 0.18768,0.37536 v 0.18768 l -0.18768,0.37537 -0.56304,0.18768 h -0.56304 l -0.56304,-0.18768 -0.18768,-0.37537"
         inkscape:connector-curvature="0" />
      <path
         id="path18794"
         style="fill:none;stroke:#000000;stroke-width:0.18768072"
         d="m 36.078532,223.38146 -0.37536,0.18768 -0.37536,0.37536 -0.18768,0.56304 v 0.37536 l 0.18768,0.56304 0.37536,0.37537 0.37536,0.18768 h 0.56304 l 0.37536,-0.18768 0.37536,-0.37537 0.18769,-0.56304 v -0.37536 l -0.18769,-0.56304 -0.37536,-0.37536 -0.37536,-0.18768 h -0.56304"
         inkscape:connector-curvature="0" />
      <path
         id="path18798"
         style="fill:none;stroke:#000000;stroke-width:0.18768072"
         d="m 41.896632,223.38146 v 2.62753 m 0,-1.87681 0.56304,-0.56304 0.37537,-0.18768 h 0.56304 l 0.37536,0.18768 0.18768,0.56304 v 1.87681 m 0,-1.87681 0.56304,-0.56304 0.37536,-0.18768 h 0.56305 l 0.37536,0.18768 0.18768,0.56304 v 1.87681"
         inkscape:connector-curvature="0" />
      <path
         id="path18800"
         style="fill:none;stroke:#000000;stroke-width:0.18768072"
         d="m 49.591542,223.38146 v 2.62753 m 0,-2.06449 -0.37536,-0.37536 -0.37536,-0.18768 h -0.56304 l -0.37536,0.18768 -0.37536,0.37536 -0.18768,0.56304 v 0.37536 l 0.18768,0.56304 0.37536,0.37537 0.37536,0.18768 h 0.56304 l 0.37536,-0.18768 0.37536,-0.37537"
         inkscape:connector-curvature="0" />
      <path
         id="path18802"
         style="fill:none;stroke:#000000;stroke-width:0.18768072"
         d="m 51.092992,222.06769 v 3.9413 m 1.8768,-2.62753 -1.8768,1.8768 m 0.75072,-0.75072 1.31376,1.50145"
         inkscape:connector-curvature="0" />
      <path
         id="path18804"
         style="fill:none;stroke:#000000;stroke-width:0.18768072"
         d="m 54.095892,224.50754 h 2.25216 v -0.37536 l -0.18768,-0.37536 -0.18768,-0.18768 -0.37536,-0.18768 h -0.56304 l -0.37536,0.18768 -0.37536,0.37536 -0.18768,0.56304 v 0.37536 l 0.18768,0.56304 0.37536,0.37537 0.37536,0.18768 h 0.56304 l 0.37536,-0.18768 0.37536,-0.37537"
         inkscape:connector-curvature="0" />
      <path
         id="path18808"
         style="fill:none;stroke:#000000;stroke-width:0.18768072"
         d="m 62.541512,223.9445 -0.18768,-0.37536 -0.56304,-0.18768 h -0.56304 l -0.56304,0.18768 -0.18768,0.37536 0.18768,0.37536 0.37536,0.18768 0.9384,0.18768 0.37536,0.18768 0.18768,0.37536 v 0.18768 l -0.18768,0.37537 -0.56304,0.18768 h -0.56304 l -0.56304,-0.18768 -0.18768,-0.37537"
         inkscape:connector-curvature="0" />
      <path
         id="path18810"
         style="fill:none;stroke:#000000;stroke-width:0.18768072"
         d="m 63.855282,223.38146 v 1.8768 l 0.18768,0.56305 0.37536,0.18768 h 0.56304 l 0.37536,-0.18768 0.56304,-0.56305 m 0,-1.8768 v 2.62753"
         inkscape:connector-curvature="0" />
      <path
         id="path18812"
         style="fill:none;stroke:#000000;stroke-width:0.18768072"
         d="m 67.421212,223.38146 v 2.62753 m 0,-1.50145 0.18768,-0.56304 0.37536,-0.37536 0.37536,-0.18768 h 0.56304"
         inkscape:connector-curvature="0" />
      <path
         id="path18814"
         style="fill:none;stroke:#000000;stroke-width:0.18768072"
         d="m 69.673382,224.50754 h 2.25216 v -0.37536 l -0.18768,-0.37536 -0.18768,-0.18768 -0.37536,-0.18768 h -0.56304 l -0.37536,0.18768 -0.37536,0.37536 -0.18768,0.56304 v 0.37536 l 0.18768,0.56304 0.37536,0.37537 0.37536,0.18768 h 0.56304 l 0.37536,-0.18768 0.37536,-0.37537"
         inkscape:connector-curvature="0" />
    </g>
    <g
       id="g21225">
      <path
         id="path18818"
         style="fill:none;stroke:#000000;stroke-width:0.18768072"
         d="m 10.443254,230.74016 1.12608,2.62753 m 1.12608,-2.62753 -1.12608,2.62753 -0.37536,0.75072 -0.37536,0.37536 -0.37536,0.18768 h -0.18769"
         inkscape:connector-curvature="0" />
      <path
         id="path18820"
         style="fill:none;stroke:#000000;stroke-width:0.18768072"
         d="m 14.572224,230.74016 -0.37536,0.18768 -0.37536,0.37536 -0.18768,0.56304 v 0.37536 l 0.18768,0.56304 0.37536,0.37537 0.37536,0.18768 h 0.56304 l 0.37536,-0.18768 0.37536,-0.37537 0.18769,-0.56304 v -0.37536 l -0.18769,-0.56304 -0.37536,-0.37536 -0.37536,-0.18768 h -0.56304"
         inkscape:connector-curvature="0" />
      <path
         id="path18822"
         style="fill:none;stroke:#000000;stroke-width:0.18768072"
         d="m 17.387434,230.74016 v 1.8768 l 0.18768,0.56305 0.37536,0.18768 h 0.56304 l 0.37536,-0.18768 0.56304,-0.56305 m 0,-1.8768 v 2.62753"
         inkscape:connector-curvature="0" />
      <path
         id="path18826"
         style="fill:none;stroke:#000000;stroke-width:0.18768072"
         d="m 26.020744,230.74016 v 3.00289 l -0.18768,0.56304 -0.18768,0.18768 -0.37536,0.18768 h -0.56304 l -0.37536,-0.18768 m 1.68912,-3.19057 -0.37536,-0.37536 -0.37536,-0.18768 h -0.56304 l -0.37536,0.18768 -0.37536,0.37536 -0.18768,0.56304 v 0.37536 l 0.18768,0.56304 0.37536,0.37537 0.37536,0.18768 h 0.56304 l 0.37536,-0.18768 0.37536,-0.37537"
         inkscape:connector-curvature="0" />
      <path
         id="path18828"
         style="fill:none;stroke:#000000;stroke-width:0.18768072"
         d="m 27.334514,231.86624 h 2.25216 v -0.37536 l -0.18768,-0.37536 -0.18768,-0.18768 -0.37536,-0.18768 h -0.56304 l -0.37536,0.18768 -0.37536,0.37536 -0.18768,0.56304 v 0.37536 l 0.18768,0.56304 0.37536,0.37537 0.37536,0.18768 h 0.56304 l 0.37536,-0.18768 0.37536,-0.37537"
         inkscape:connector-curvature="0" />
      <path
         id="path18830"
         style="fill:none;stroke:#000000;stroke-width:0.18768072"
         d="m 31.088124,229.42639 v 3.19057 l 0.18768,0.56305 0.37536,0.18768 h 0.37536 m -1.50144,-2.62753 h 1.31376"
         inkscape:connector-curvature="0" />
      <path
         id="path18834"
         style="fill:none;stroke:#000000;stroke-width:0.18768072"
         d="m 36.343182,229.42639 v 3.19057 l 0.18768,0.56305 0.37536,0.18768 h 0.37536 m -1.50144,-2.62753 h 1.31376"
         inkscape:connector-curvature="0" />
      <path
         id="path18836"
         style="fill:none;stroke:#000000;stroke-width:0.18768072"
         d="m 38.407682,229.42639 v 3.9413 m 0,-1.87681 0.56304,-0.56304 0.37536,-0.18768 h 0.56304 l 0.37536,0.18768 0.18768,0.56304 v 1.87681"
         inkscape:connector-curvature="0" />
      <path
         id="path18838"
         style="fill:none;stroke:#000000;stroke-width:0.18768072"
         d="m 41.785932,231.86624 h 2.25216 v -0.37536 l -0.18768,-0.37536 -0.18768,-0.18768 -0.37536,-0.18768 h -0.56304 l -0.37536,0.18768 -0.37536,0.37536 -0.18768,0.56304 v 0.37536 l 0.18768,0.56304 0.37536,0.37537 0.37536,0.18768 h 0.56304 l 0.37536,-0.18768 0.37536,-0.37537"
         inkscape:connector-curvature="0" />
      <path
         id="path18840"
         style="fill:none;stroke:#000000;stroke-width:0.18768072"
         d="m 45.351862,230.74016 v 2.62753 m 0,-1.50145 0.18768,-0.56304 0.37536,-0.37536 0.37536,-0.18768 h 0.56304"
         inkscape:connector-curvature="0" />
      <path
         id="path18842"
         style="fill:none;stroke:#000000;stroke-width:0.18768072"
         d="m 47.604032,231.86624 h 2.25216 v -0.37536 l -0.18768,-0.37536 -0.18768,-0.18768 -0.37536,-0.18768 h -0.56304 l -0.37536,0.18768 -0.37536,0.37536 -0.18768,0.56304 v 0.37536 l 0.18768,0.56304 0.37536,0.37537 0.37536,0.18768 h 0.56304 l 0.37536,-0.18768 0.37536,-0.37537"
         inkscape:connector-curvature="0" />
      <path
         id="path18846"
         style="fill:none;stroke:#000000;stroke-width:0.18768072"
         d="m 54.172852,230.74016 v 2.62753 m 0,-1.50145 0.18768,-0.56304 0.37536,-0.37536 0.37536,-0.18768 h 0.56304"
         inkscape:connector-curvature="0" />
      <path
         id="path18848"
         style="fill:none;stroke:#000000;stroke-width:0.18768072"
         d="m 56.425022,229.42639 0.18768,0.18768 0.18768,-0.18768 -0.18768,-0.18768 -0.18768,0.18768 m 0.18768,1.31377 v 2.62753"
         inkscape:connector-curvature="0" />
      <path
         id="path18850"
         style="fill:none;stroke:#000000;stroke-width:0.18768072"
         d="m 60.178632,230.74016 v 3.00289 l -0.18768,0.56304 -0.18768,0.18768 -0.37536,0.18768 h -0.56304 l -0.37536,-0.18768 m 1.68912,-3.19057 -0.37536,-0.37536 -0.37536,-0.18768 h -0.56304 l -0.37536,0.18768 -0.37536,0.37536 -0.18768,0.56304 v 0.37536 l 0.18768,0.56304 0.37536,0.37537 0.37536,0.18768 h 0.56304 l 0.37536,-0.18768 0.37536,-0.37537"
         inkscape:connector-curvature="0" />
      <path
         id="path18852"
         style="fill:none;stroke:#000000;stroke-width:0.18768072"
         d="m 61.680082,229.42639 v 3.9413 m 0,-1.87681 0.56304,-0.56304 0.37536,-0.18768 h 0.56304 l 0.37536,0.18768 0.18768,0.56304 v 1.87681"
         inkscape:connector-curvature="0" />
      <path
         id="path18854"
         style="fill:none;stroke:#000000;stroke-width:0.18768072"
         d="m 65.433702,229.42639 v 3.19057 l 0.18768,0.56305 0.37536,0.18768 h 0.37536 m -1.50144,-2.62753 h 1.31376"
         inkscape:connector-curvature="0" />
    </g>
    <g
       id="g21207"
       transform="translate(-51.244272,8.2642033)">
      <path
         id="path18858"
         style="fill:none;stroke:#000000;stroke-width:0.18768072"
         d="m 70.313392,230.74016 0.75073,2.62753 m 0.75072,-2.62753 -0.75072,2.62753 m 0.75072,-2.62753 0.75072,2.62753 m 0.75073,-2.62753 -0.75073,2.62753"
         inkscape:connector-curvature="0" />
      <path
         id="path18860"
         style="fill:none;stroke:#000000;stroke-width:0.18768072"
         d="m 74.630052,229.42639 v 3.9413 m 0,-1.87681 0.56304,-0.56304 0.37536,-0.18768 h 0.56304 l 0.37536,0.18768 0.18768,0.56304 v 1.87681"
         inkscape:connector-curvature="0" />
      <path
         id="path18862"
         style="fill:none;stroke:#000000;stroke-width:0.18768072"
         d="m 78.008312,231.86624 h 2.25216 v -0.37536 l -0.18768,-0.37536 -0.18768,-0.18768 -0.37536,-0.18768 h -0.56304 l -0.37536,0.18768 -0.37536,0.37536 -0.18768,0.56304 v 0.37536 l 0.18768,0.56304 0.37536,0.37537 0.37536,0.18768 h 0.56304 l 0.37536,-0.18768 0.37536,-0.37537"
         inkscape:connector-curvature="0" />
      <path
         id="path18864"
         style="fill:none;stroke:#000000;stroke-width:0.18768072"
         d="m 81.574242,230.74016 v 2.62753 m 0,-1.87681 0.56304,-0.56304 0.37536,-0.18768 h 0.56304 l 0.37536,0.18768 0.18768,0.56304 v 1.87681"
         inkscape:connector-curvature="0" />
      <path
         id="path18868"
         style="fill:none;stroke:#000000;stroke-width:0.18768072"
         d="m 87.955382,229.42639 0.18768,0.18768 0.18768,-0.18768 -0.18768,-0.18768 -0.18768,0.18768 m 0.18768,1.31377 v 2.62753"
         inkscape:connector-curvature="0" />
      <path
         id="path18870"
         style="fill:none;stroke:#000000;stroke-width:0.18768072"
         d="m 89.832192,229.42639 v 3.19057 l 0.18768,0.56305 0.37536,0.18768 h 0.37536 m -1.50144,-2.62753 h 1.31376"
         inkscape:connector-curvature="0" />
      <path
         id="path18874"
         style="fill:none;stroke:#000000;stroke-width:0.18768072"
         d="m 96.776372,231.3032 -0.18768,-0.37536 -0.56304,-0.18768 h -0.56304 l -0.56304,0.18768 -0.18768,0.37536 0.18768,0.37536 0.37536,0.18768 0.9384,0.18768 0.37536,0.18768 0.18768,0.37536 v 0.18768 l -0.18768,0.37537 -0.56304,0.18768 h -0.56304 l -0.56304,-0.18768 -0.18768,-0.37537"
         inkscape:connector-curvature="0" />
      <path
         id="path18876"
         style="fill:none;stroke:#000000;stroke-width:0.18768072"
         d="m 98.277822,229.42639 v 3.19057 l 0.18768,0.56305 0.37536,0.18768 h 0.37536 m -1.50144,-2.62753 h 1.31376"
         inkscape:connector-curvature="0" />
      <path
         id="path18878"
         style="fill:none;stroke:#000000;stroke-width:0.18768072"
         d="m 102.40679,230.74016 v 2.62753 m 0,-2.06449 -0.37536,-0.37536 -0.37536,-0.18768 h -0.56304 l -0.37536,0.18768 -0.37536,0.37536 -0.18768,0.56304 v 0.37536 l 0.18768,0.56304 0.37536,0.37537 0.37536,0.18768 h 0.56304 l 0.37536,-0.18768 0.37536,-0.37537"
         inkscape:connector-curvature="0" />
      <path
         id="path18880"
         style="fill:none;stroke:#000000;stroke-width:0.18768072"
         d="m 103.90824,230.74016 v 2.62753 m 0,-1.50145 0.18768,-0.56304 0.37536,-0.37536 0.37536,-0.18768 h 0.56304"
         inkscape:connector-curvature="0" />
      <path
         id="path18882"
         style="fill:none;stroke:#000000;stroke-width:0.18768072"
         d="m 106.53577,229.42639 v 3.19057 l 0.18768,0.56305 0.37536,0.18768 h 0.37536 m -1.50144,-2.62753 h 1.31376"
         inkscape:connector-curvature="0" />
      <path
         id="path18884"
         style="fill:none;stroke:#000000;stroke-width:0.18768072"
         d="m 110.47706,231.3032 -0.18768,-0.37536 -0.56304,-0.18768 h -0.56304 l -0.56304,0.18768 -0.18768,0.37536 0.18768,0.37536 0.37536,0.18768 0.9384,0.18768 0.37536,0.18768 0.18768,0.37536 v 0.18768 l -0.18768,0.37537 -0.56304,0.18768 h -0.56304 l -0.56304,-0.18768 -0.18768,-0.37537"
         inkscape:connector-curvature="0" />
      <path
         id="path18886"
         style="fill:none;stroke:#000000;stroke-width:0.18768072"
         d="m 111.79083,232.42928 -0.18768,0.18768 0.18768,0.18768 0.18768,-0.18768 -0.18768,-0.18768"
         inkscape:connector-curvature="0" />
    </g>
    <path
       style="fill:none;fill-opacity:0;stroke:#000000;stroke-width:0.2480315;stroke-miterlimit:4;stroke-dasharray:none;stroke-opacity:1"
       d="M 47.136567,166.76688 H 69.174442"
       id="path20285"
       inkscape:connector-curvature="0" />
  </g>
  <g
     inkscape:groupmode="layer"
     id="layer4"
     inkscape:label="Text"
     transform="translate(0,-3.8582677e-5)">
    <path
       inkscape:connector-curvature="0"
       d=""
       style="fill:none;stroke:#000000;stroke-width:0.92052549"
       id="path7559" />
    <path
       inkscape:connector-curvature="0"
       d=""
       style="fill:none;stroke:#000000;stroke-width:0.92052549"
       id="path7565" />
    <path
       inkscape:connector-curvature="0"
       d=""
       style="fill:none;stroke:#000000;stroke-width:0.92052549"
       id="path7579" />
    <path
       inkscape:connector-curvature="0"
       id="path8694"
       style="fill:none;stroke:#000000;stroke-width:0.34588146"
       d="" />
    <path
       inkscape:connector-curvature="0"
       id="path8700"
       style="fill:none;stroke:#000000;stroke-width:0.34588146"
       d="" />
    <path
       inkscape:connector-curvature="0"
       d=""
       style="fill:none;stroke:#000000;stroke-width:0.35277364"
       id="path9252" />
    <path
       inkscape:connector-curvature="0"
       d=""
       style="fill:none;stroke:#000000;stroke-width:0.35277364"
       id="path9264" />
    <path
       inkscape:connector-curvature="0"
       id="path9834"
       style="fill:none;stroke:#000000;stroke-width:0.30689958"
       d="" />
    <path
       id="path4314"
       style="fill:none;stroke:#000000;stroke-width:1.21444738"
       d=""
       inkscape:connector-curvature="0" />
    <path
       id="path4324"
       style="fill:none;stroke:#000000;stroke-width:1.21444738"
       d=""
       inkscape:connector-curvature="0" />
    <path
       id="path4332"
       style="fill:none;stroke:#000000;stroke-width:1.21444738"
       d=""
       inkscape:connector-curvature="0" />
    <path
       id="path4586"
       style="fill:none;stroke:#000000;stroke-width:1.21444738"
       d=""
       inkscape:connector-curvature="0" />
    <path
       id="path4604-3"
       style="fill:none;stroke:#000000;stroke-width:1.21444738"
       d=""
       inkscape:connector-curvature="0" />
    <path
       inkscape:connector-curvature="0"
       id="path4962"
       style="fill:none;stroke:#000000;stroke-width:0.15848389"
       d="" />
    <path
       inkscape:connector-curvature="0"
       id="path4944"
       style="fill:none;stroke:#000000;stroke-width:0.22772643"
       d="m 106.6928,117.69362 4.61933,1.23775 m -4.61933,-1.23775 0.76622,-2.85958 m 1.43346,3.44898 0.47152,-1.75973"
       inkscape:transform-center-x="13.429083"
       inkscape:transform-center-y="-5.0123305" />
    <path
       inkscape:connector-curvature="0"
       id="path4946"
       style="fill:none;stroke:#000000;stroke-width:0.22772643"
       d="m 108.55206,112.83259 0.31108,-0.0833 -0.0833,-0.31108 -0.31107,0.0833 0.0833,0.31106 m 1.49438,0.59984 2.76104,1.59408" />
    <path
       inkscape:connector-curvature="0"
       id="path4948"
       style="fill:none;stroke:#000000;stroke-width:0.22772643"
       d="m 111.78299,110.84026 2.25439,2.25439 m -1.61027,-1.61028 -1e-5,-0.96616 0.16104,-0.48309 0.48307,-0.48307 0.48308,-0.16105 0.64412,0.32207 1.61026,1.61027" />
    <path
       inkscape:connector-curvature="0"
       id="path4950"
       style="fill:none;stroke:#000000;stroke-width:0.22772643"
       d="m 119.24005,106.71189 0.82516,3.07954 m -0.64835,-2.41965 -0.5578,-0.32205 -0.49887,-0.10204 -0.65991,0.17682 -0.38099,0.33785 -0.32206,0.55781 -0.0432,0.71884 0.11788,0.43994 0.39679,0.60095 0.55782,0.32206 0.49887,0.10214 0.65991,-0.17682 0.38099,-0.33786 0.32204,-0.55782" />
    <path
       inkscape:connector-curvature="0"
       id="path4952"
       style="fill:none;stroke:#000000;stroke-width:0.22772643"
       d="m 122.48094,106.21127 v 3.18818 m 0,-2.27727 0.68317,-0.68319 0.45546,-0.22772 h 0.68317 l 0.45546,0.22772 0.22773,0.68319 v 2.27727" />
    <path
       inkscape:connector-curvature="0"
       id="path4954"
       style="fill:none;stroke:#000000;stroke-width:0.22772643"
       d="m 130.6213,107.84341 -0.32203,-0.55782 -0.381,-0.33783 -0.65991,-0.17682 -0.49888,0.10203 -0.55781,0.32206 -0.39678,0.60096 -0.11788,0.43994 0.0432,0.71883 0.32204,0.55782 0.381,0.33786 0.65991,0.17682 0.49888,-0.10214 0.55779,-0.32206" />
    <path
       inkscape:connector-curvature="0"
       id="path4956"
       style="fill:none;stroke:#000000;stroke-width:0.22772643"
       d="m 134.23254,108.35456 -4e-5,0.32206 0.32205,3e-5 3e-5,-0.32204 -0.32204,-3e-5 m -0.96617,1.28822 -2.25438,2.25439" />
    <path
       inkscape:connector-curvature="0"
       id="path4958"
       style="fill:none;stroke:#000000;stroke-width:0.22772643"
       d="m 137.71163,113.09092 -2.25439,2.25438 m 1.77131,-1.77131 10e-6,-0.6441 -0.16104,-0.48308 -0.48308,-0.48309 -0.48307,-0.16104 -0.64412,1e-5 -0.64411,0.32206 -0.32205,0.32205 -0.32206,0.64409 v 0.64413 l 0.16103,0.48309 0.48308,0.48307 0.48307,0.16104 0.64412,-10e-6" />
    <path
       inkscape:connector-curvature="0"
       id="path4960"
       style="fill:none;stroke:#000000;stroke-width:0.22772643"
       d="m 141.04608,114.93219 -4.14156,2.39113" />
    <path
       inkscape:connector-curvature="0"
       id="path4964"
       style="fill:none;stroke:#000000;stroke-width:0.24421312"
       d="m 122.02546,139.3512 -4.25621,3.46455 m 4.25621,-3.46455 -0.8723,5.41825 m -1.89468,-3.06785 2.11495,1.22107" />
    <path
       inkscape:connector-curvature="0"
       id="path4966"
       style="fill:none;stroke:#000000;stroke-width:0.24421312"
       d="m 124.51563,140.00241 0.24421,0.24423 0.2442,-0.24423 -0.2442,-0.24421 -0.24421,0.24421 m 0.24421,1.7095 v 3.41899" />
    <path
       inkscape:connector-curvature="0"
       id="path4968"
       style="fill:none;stroke:#000000;stroke-width:0.24421312"
       d="m 128.5796,138.93281 2.56425,4.4414 m -1.34318,-2.32646 -0.66719,-0.17878 -0.5451,0.0327 -0.63449,0.36632 -0.30088,0.4557 -0.17878,0.6672 0.15483,0.7566 0.24421,0.42298 0.57781,0.51238 0.66722,0.17879 0.54509,-0.0327 0.63448,-0.36632 0.3009,-0.45571 0.17875,-0.66721" />
  </g>
  <g
     inkscape:groupmode="layer"
     id="layer5"
     inkscape:label="FlowLine"
     style="display:inline">
    <path
       style="fill:none;fill-opacity:0;stroke:#000000;stroke-width:0.35433072;stroke-miterlimit:4;stroke-dasharray:none;stroke-opacity:1"
       d="m 32.714063,0.81585883 c 3.5348,1.11421707 6.763943,2.22844197 9.764854,3.32508267 M 72.970396,15.46354 c 7.845837,2.14437 16.5981,3.35585 28.879084,3.038615 m 34.12991,-3.458083 c 13.80876,-2.118963 30.52467,-5.2848526 51.16386,-9.7285536"
       id="path7875"
       inkscape:connector-curvature="0"
       sodipodi:nodetypes="cccccc" />
    <path
       style="fill:none;fill-opacity:0;stroke:#000000;stroke-width:0.35433072;stroke-miterlimit:4;stroke-dasharray:none;stroke-opacity:1"
       d="M 6.5638393,15.857197 C 16.899146,10.776974 28.052348,8.3201076 39.710601,7.5568343 M 68.505174,8.501217 c 11.06095,1.2188847 22.329034,3.209969 33.574856,5.29151 m 35.58998,6.136506 c 15.62164,2.142982 30.69938,2.988984 44.565,0.551992 M 213.73322,6.6059558 c 2.02096,-1.6324569 3.98656,-3.4194333 5.89308,-5.371972"
       id="path7877"
       inkscape:connector-curvature="0"
       sodipodi:nodetypes="cccccccc" />
    <path
       style="fill:none;fill-opacity:0;stroke:#000000;stroke-width:0.35433072;stroke-miterlimit:4;stroke-dasharray:none;stroke-opacity:1"
       d="m 65.631223,1.028319 c 18.448737,0.30236 31.308614,2.0698522 41.485727,4.3326964 m 27.77359,7.9913786 c 11.48197,3.206019 24.09537,5.166588 47.13139,2.781186 m 32.10123,-5.219766 c 4.43262,-0.860593 10.63652,-1.8223806 15.60419,-2.8928987"
       id="path7881"
       inkscape:connector-curvature="0"
       sodipodi:nodetypes="cccccc" />
    <path
       inkscape:connector-curvature="0"
       d=""
       style="fill:none;stroke:#000000"
       id="path8213" />
    <g
       id="g8323"
       transform="matrix(0.78901083,0,0,0.78901083,7.2688024,7.7600411)">
      <path
         id="path8207"
         style="fill:none;stroke:#000000"
         d="m 50.449075,43.257122 -1,-2 -2,-2 -2,-1 h -4 l -2,1 -2,2 -1,2 -1,3 v 5 l 1,3 1,2 2,2 2,1 h 4 l 2,-1 2,-2 1,-2 v -4 h -5 m 5,-7 h -1 l -1,-2 -1,-1 -2,-1 h -4 l -2,1 -1,1 -1,2 -1,3 v 5 l 1,3 1,2 1,1 2,1 h 4 l 2,-1 1,-1 1,-2 v -3 h -4 v -1"
         inkscape:connector-curvature="0" />
      <path
         id="path8209"
         style="fill:none;stroke:#000000"
         d="m 57.449075,52.257122 h 11 v -3 l -1,-2 -1,-1 -2,-1 h -3 l -2,1 -2,2 -1,3 v 2 l 1,3 2,2 2,1 h 3 l 2,-1 2,-2 m -11,-5 h 10 v -2 l -1,-2 -2,-1 h -3 l -2,1 -1,1 -1,3 v 2 l 1,3 1,1 2,1 h 3 l 2,-1 1,-2 1,1"
         inkscape:connector-curvature="0" />
      <path
         id="path8211"
         style="fill:none;stroke:#000000"
         d="m 76.449075,38.257122 v 21 h 1 m -1,-21 h 1 v 21 m -4,-14 h 7 v 1 m -7,-1 v 1 h 7"
         inkscape:connector-curvature="0" />
    </g>
    <g
       id="g8329"
       transform="matrix(0.78901083,0,0,0.78901083,-70.102557,32.641005)">
      <path
         id="path8215"
         style="fill:none;stroke:#000000"
         d="m 102.44907,38.257122 v 21 h 1 m -1,-21 h 1 v 21"
         inkscape:connector-curvature="0" />
      <path
         id="path8217"
         style="fill:none;stroke:#000000"
         d="m 112.44907,56.257122 -1,1 v 1 l 1,1 h 1 l 1,-1 v -1 l -1,-1 h -1 m 0,1 v 1 h 1 v -1 h -1"
         inkscape:connector-curvature="0" />
      <path
         id="path8219"
         style="fill:none;stroke:#000000"
         d="m 122.44907,38.257122 v 21 m 1,-20 v 19 m -1,-20 h 7 l 3,1 2,2 1,2 1,3 v 5 l -1,3 -1,2 -2,2 -3,1 h -7 m 1,-20 h 6 l 3,1 1,1 1,2 1,3 v 5 l -1,3 -1,2 -1,1 -3,1 h -6"
         inkscape:connector-curvature="0" />
      <path
         id="path8221"
         style="fill:none;stroke:#000000"
         d="m 144.44907,56.257122 -1,1 v 1 l 1,1 h 1 l 1,-1 v -1 l -1,-1 h -1 m 0,1 v 1 h 1 v -1 h -1"
         inkscape:connector-curvature="0" />
    </g>
  </g>
  <g
     inkscape:groupmode="layer"
     id="layer2"
     inkscape:label="FlowLineRough"
     style="display:none;opacity:0.50400002"
     sodipodi:insensitive="true">
    <path
       style="fill:none;fill-opacity:0;stroke:#000000;stroke-width:0.35433072;stroke-miterlimit:4;stroke-dasharray:none;stroke-opacity:1"
       d="m -24.97334,-15.323714 c 0.818172,0.439788 0.536875,1.672027 1.135153,2.270304 0.199426,0.199426 0.531143,0.209166 0.756768,0.378384 0.884213,0.66316 1.770903,2.021699 2.648686,2.648687 0.458997,0.3278543 1.009024,0.5045121 1.513537,0.7567685 0.504512,0.2522559 0.99809,0.5276808 1.513536,0.7567678 0.620678,0.2758573 1.284406,0.4530114 1.891919,0.7567678 2.001832,1.0009158 1.645465,1.3087267 3.783839,1.8919197 0.740173,0.2018654 1.522745,0.2058702 2.2703036,0.3783839 2.9795797,0.6875953 2.2512207,0.9320748 5.2973752,1.1351518 1.006789,0.067119 2.0180476,0 3.0270714,0 1.00902383,0 2.01804763,0 3.0270714,0 1.2612798,0 2.5241332,0.062985 3.7838393,0 1.2659889,-0.063299 2.5219786,-0.2582067 3.7838395,-0.3783839 3.6112156,-0.3439253 5.0235796,-0.4501636 8.7028296,-0.7567679 4.351293,-0.3626076 5.005776,-0.4268551 9.459599,-0.7567678 1.765454,-0.1307743 3.528212,-0.3151996 5.297374,-0.3783839 1.764667,-0.063023 3.53271,0.063023 5.297375,0 1.769163,-0.063185 3.527085,-0.3783839 5.297376,-0.3783839 1.77029,0 3.531583,0.2522559 5.297375,0.3783839 1.765791,0.1261279 3.531583,0.2522559 5.297375,0.3783839 1.765791,0.126128 3.544877,0.1280271 5.297375,0.3783839 3.314107,0.4734439 7.403911,1.7032539 10.594749,2.6486875 1.644843,0.4873609 3.317813,0.8976978 4.918992,1.5135357 1.550674,0.5964135 7.899725,3.6956758 9.459598,4.5406071 1.540718,0.8345557 3.027071,1.7657917 4.540607,2.6486875 1.513536,0.8828959 3.072925,1.691503 4.540607,2.6486875 1.436945,0.9371365 2.725276,2.0899349 4.16222,3.0270719 1.467684,0.957184 3.02708,1.765791 4.54061,2.648687 5.32307,3.105122 3.75088,2.381783 9.4596,4.918991 5.22462,2.322051 10.6253,4.583138 16.2705,5.675759 1.9967,0.386457 4.03433,0.519142 6.05415,0.756768 4.25382,0.500449 9.32506,1.135151 13.62182,1.135151 3.8293,0 11.0255,-0.680093 14.75698,-1.135151 8.1672,-0.996001 16.22706,-2.587618 24.21657,-4.540607 2.91228,-0.711892 5.80189,-1.513536 8.70283,-2.270303 2.90094,-0.756768 5.8178,-1.45497 8.70283,-2.270304 11.12635,-3.144405 6.48804,-2.145757 17.78404,-5.675759 3.00966,-0.9405209 6.06613,-1.7257013 9.08121,-2.6486878 3.16571,-0.9690919 6.2939,-2.0579796 9.45961,-3.0270714 3.01508,-0.9229865 6.05923,-1.748523 9.08121,-2.6486875 5.81227,-1.731314 11.58955,-3.5789814 17.40565,-5.297375 2.6418,-0.780527 5.29739,-1.5135357 7.94607,-2.2703036"
       id="path7865"
       inkscape:connector-curvature="0" />
    <path
       style="fill:none;fill-opacity:0;stroke:#000000;stroke-width:0.35433072;stroke-miterlimit:4;stroke-dasharray:none;stroke-opacity:1"
       d="m -23.081419,9.2712419 c 0.315029,-1.4389217 0.577573,-2.6138858 1.513535,-3.7838393 0.222856,-0.27857 0.504512,-0.5045118 0.756768,-0.7567678 0.378383,-0.3783839 0.699711,-0.8241221 1.135151,-1.1351518 1.06544,-0.761028 1.808277,-0.8304528 3.027073,-1.1351518 0.583732,-0.1459332 2.925082,-0.7567678 3.405454,-0.7567678 0.239513,0 3.752138,0.633742 4.1622238,0.7567678 2.0822903,0.6246871 4.3192857,2.1437411 6.0541428,3.4054554 0.6531458,0.4750151 1.2199449,1.0655526 1.8919196,1.5135356 0.8460922,0.5640616 1.8126198,0.9347196 2.6486875,1.5135358 0.8099341,0.5607236 1.4416662,1.359224 2.2703036,1.891919 0.9489527,0.610042 2.0180475,1.009024 3.0270714,1.513536 5.2225613,2.611281 0.7633236,0.560034 6.4325273,2.648688 1.274682,0.46962 2.473265,1.156106 3.783839,1.513535 1.480346,0.403731 3.027071,0.504512 4.540607,0.756768 4.311307,0.718552 4.994986,0.969796 9.459598,1.135153 1.764582,0.06535 3.531583,0 5.297375,0 5.1862,0 5.977677,0.110146 11.351518,-0.378385 5.641306,-0.512846 7.583336,-0.948569 13.243437,-1.891919 2.270304,-0.378384 4.558662,-0.660995 6.810911,-1.135152 2.54442,-0.535668 5.045119,-1.26128 7.567678,-1.89192 8.258826,-2.064706 16.495817,-4.1698869 24.594955,-6.8109105 2.920084,-0.9522026 5.795274,-2.0372649 8.702834,-3.0270715 3.02058,-1.0282836 6.06667,-1.9812098 9.08121,-3.02707136 3.16617,-1.09846584 6.3064,-2.27030354 9.4596,-3.40545534 3.1532,-1.1351518 6.31184,-2.2553115 9.45959,-3.4054553 3.41097,-1.2463128 6.79071,-2.5785145 10.21637,-3.783839 3.12653,-1.100074 17.76219,-5.901581 20.81112,-6.810911 3.63606,-1.084441 7.31999,-2.001628 10.97314,-3.027071 3.53622,-0.992626 7.04691,-2.07676 10.59474,-3.027071 5.9403,-1.591151 14.7449,-3.683279 20.81112,-4.918992 3.39366,-0.691301 6.78397,-1.429866 10.21636,-1.89192 6.21689,-0.836887 11.92202,-0.895444 18.16243,-0.756768 2.777,0.06172 5.5672,0.04213 8.32445,0.378385 2.43096,0.296457 4.80972,0.934719 7.18929,1.513535 2.28951,0.556907 4.58898,1.107707 6.81091,1.891919 2.358,0.832234 9.01772,4.00082 11.35153,5.297376 6.10406,3.39115 11.47068,7.912115 17.78403,10.973133 1.29402,0.627397 2.77483,0.756768 4.16223,1.1351526"
       id="path7867"
       inkscape:connector-curvature="0" />
    <path
       style="fill:none;fill-opacity:0;stroke:#000000;stroke-width:0.35433072;stroke-miterlimit:4;stroke-dasharray:none;stroke-opacity:1"
       d="m -7.9460625,-30.45907 c 3.4794703,-5.219206 -0.3346582,-0.04372 3.0270715,-3.405456 0.4459296,-0.445929 0.6306398,-1.135151 1.1351517,-1.513536 0.543376,-0.407532 1.247555,-0.541979 1.8919197,-0.756768 0.4377997,-0.145933 3.1055581,-0.756767 3.4054553,-0.756767 0.7905096,0 3.6181402,0.838379 4.1622232,1.135152 0.709,0.386727 1.2612798,1.009024 1.8919197,1.513535 2.6611464,2.128918 1.3748983,0.893111 3.7838394,3.78384 0.63064,0.756767 1.255607,1.518298 1.89192,2.270303 0.751128,0.887698 1.551874,1.734324 2.270303,2.648687 0.670332,0.853151 1.250293,1.773744 1.891919,2.648688 0.745875,1.017102 1.513536,2.018048 2.270305,3.027071 0.756768,1.009024 1.513535,2.018048 2.270303,3.027072 1.672045,2.229393 2.93085,4.066002 4.918991,6.054142 0.94806,0.9480604 2.048938,1.7316882 3.027071,2.6486882 1.041032,0.9759671 1.957072,2.0829538 3.027071,3.0270714 1.078328,0.951465 2.270304,1.7657918 3.405456,2.6486876 1.135151,0.8828958 2.239633,1.80670508 3.405456,2.64868744 2.053208,1.48287296 5.013,3.29701086 7.189294,4.54060716 1.372153,0.7840875 2.748689,1.5635366 4.162223,2.2703035 1.363116,0.6815581 2.774816,1.2612798 4.162223,1.8919197 1.387408,0.6306395 2.735248,1.356804 4.162224,1.891919 1.606296,0.602362 3.285082,0.990686 4.918991,1.513536 3.285839,1.051469 6.456366,2.275601 9.837982,3.027072 1.087274,0.241616 9.853482,1.464117 10.59475,1.513536 1.887729,0.125848 3.783839,0 5.675759,0 2.018047,0 4.039788,0.122081 6.054138,0 6.968383,-0.422326 13.737683,-2.321084 20.432733,-4.162224 2.65607,-0.73042 5.31456,-1.45579 7.94607,-2.270303 4.10914,-1.2718763 12.73549,-4.3145752 16.64889,-5.6757592 2.90095,-1.0090239 5.80189,-2.0180477 8.70283,-3.0270714 3.02707,-1.00902385 6.06667,-1.98120992 9.08121,-3.0270715 3.16617,-1.0984659 6.28668,-2.3266615 9.4596,-3.4054553 6.45984,-2.1963454 11.99867,-3.8065738 18.54082,-5.6757586 9.78863,-2.796755 8.9665,-2.712562 18.91919,-4.540607 7.96278,-1.462551 9.81055,-1.750294 17.78405,-2.270304 2.89753,-0.18897 5.7999,-0.44436 8.70283,-0.378384 2.65998,0.06045 5.30593,0.426752 7.94606,0.756768 4.76653,0.595817 9.81771,1.46334 14.37859,3.027071 1.8766,0.643407 9.44916,4.1700564 11.35151,5.2973753 1.71564,1.0166777 3.29163,2.2527394 4.919,3.4054553 4.33865,3.0732151 3.88642,2.8064311 7.94606,6.05414293"
       id="path7869"
       inkscape:connector-curvature="0" />
    <path
       style="fill:none;fill-opacity:0;stroke:#000000;stroke-width:0.35433072;stroke-miterlimit:4;stroke-dasharray:none;stroke-opacity:1"
       d="m -15.513741,42.190644 c 0.504512,-0.378385 1.10981,-0.650681 1.513536,-1.135152 0.255338,-0.306406 0.221268,-0.76855 0.378384,-1.135152 0.222194,-0.518454 0.457816,-1.035213 0.756768,-1.513535 0.334238,-0.534782 0.747976,-1.015739 1.135151,-1.513536 1.100559,-1.415005 2.3124789,-2.741353 3.4054556,-4.162224 8.05564297,-10.472335 -5.4762436,6.48756 4.5406071,-5.675759 0.914198,-1.110097 1.6972225,-2.327128 2.6486875,-3.405455 0.94411765,-1.07 2.04907304,-1.987948 3.0270714,-3.027071 2.9596293,-3.144607 3.1517398,-3.87547 6.4325268,-6.810911 1.203733,-1.077025 2.5531346,-1.980973 3.7838386,-3.027072 1.292919,-1.0989804 2.434089,-2.3770731 3.78384,-3.4054548 1.308093,-0.9966427 2.774815,-1.7657916 4.162223,-2.6486874 5.495528,-3.4971543 2.718518,-1.8612116 8.324446,-4.91899109 1.387409,-0.75676787 2.735362,-1.59084551 4.162224,-2.27030351 2.729004,-1.2995259 5.003444,-1.9480642 7.946063,-2.6486876 5.055254,-1.2036321 10.362755,-1.5700813 15.51374,-0.7567678 2.567454,0.4053875 4.696281,1.1440154 7.189295,1.8919196 3.467301,1.0401903 4.230031,1.1467462 7.567678,2.6486875 1.28595,0.57867727 2.510667,1.28564726 3.783839,1.89191967 1.375969,0.65522313 2.786255,1.23669653 4.162224,1.89191963 1.273172,0.6062724 2.510667,1.2856472 3.783839,1.8919197 1.375969,0.6552231 2.787362,1.234377 4.162224,1.8919196 1.526577,0.7301022 3.002301,1.5652469 4.540607,2.2703036 2.679232,1.2279812 6.741973,2.7385989 9.459603,3.7838389 1.63965,0.63064 3.2346,1.392846 4.91898,1.89192 1.73148,0.513029 3.52896,0.769271 5.29738,1.135152 1.88938,0.390904 3.76224,0.888245 5.67576,1.135151 0.34398,0.04438 12.37853,0.756768 12.48667,0.756768 5.98455,0 8.03131,-0.571078 14.0002,-1.513535 2.39644,-0.378384 4.81029,-0.659351 7.1893,-1.135152 4.08771,-0.817542 11.94293,-2.876439 15.89212,-4.162223 2.80753,-0.9140778 5.54249,-2.0379288 8.32445,-3.0270718 8.89955,-3.1642868 8.62718,-2.8066309 17.40566,-6.43252667 2.9237,-1.20761183 5.79213,-2.54524323 8.70283,-3.78383923 18.74453,-7.9763943 -0.60065,0.6661935 18.16243,-8.3244463 3.00294,-1.438906 6.11561,-2.647872 9.08121,-4.162224 2.96773,-1.515436 5.76087,-3.354117 8.70283,-4.91899 19.47348,-9.736739 -0.98402,0.756892 17.40566,-9.459599 2.86029,-1.589044 5.80306,-3.024819 8.70284,-4.540607 2.64986,-1.385157 5.31134,-2.74847 7.94606,-4.162223 18.74256,-10.05698 -6.99134,3.357988 21.56788,-11.729902 1.99496,-1.053939 4.0361,-2.018048 6.05414,-3.027071"
       id="path7871"
       inkscape:connector-curvature="0" />
  </g>
</svg>
