<?xml version="1.0" encoding="UTF-8" standalone="no"?>
<svg
   xmlns:dc="http://purl.org/dc/elements/1.1/"
   xmlns:cc="http://creativecommons.org/ns#"
   xmlns:rdf="http://www.w3.org/1999/02/22-rdf-syntax-ns#"
   xmlns:svg="http://www.w3.org/2000/svg"
   xmlns="http://www.w3.org/2000/svg"
   version="1.1"
   id="svg2"
   viewBox="0 0 496.063 496.06298"
   height="140mm"
   width="140mm">
  <defs
     id="defs4" />
  <metadata
     id="metadata7">
    <rdf:RDF>
      <cc:Work
         rdf:about="">
        <dc:format>image/svg+xml</dc:format>
        <dc:type
           rdf:resource="http://purl.org/dc/dcmitype/StillImage" />
        <dc:title></dc:title>
      </cc:Work>
    </rdf:RDF>
  </metadata>
  <g
     transform="translate(0,248.0315)"
     id="layer5"
     style="display:inline;opacity:0.23699999" />
  <g
     id="layer1"
     transform="translate(0,-556.29921)">
    <path
       id="path4210"
       d="m 32.63035,816.25639 -7.5219,-0.0144 c 0,0 -12.66546,1.38798 -12.66546,17.67998 l 0,3.30234 c 0,2.15838 2.24186,1.86661 2.24186,1.86661 l 17.22844,-0.21976 c 1.53795,0 3.54023,-1.50712 3.54023,-3.46003 L 35.3366,818.57522 c 0,0 -0.25796,-2.31409 -2.70625,-2.31879 z"
       style="fill:none;fill-rule:evenodd;stroke:#000000;stroke-width:0.88640338px;stroke-linecap:butt;stroke-linejoin:miter;stroke-opacity:1" />
    <path
       id="rect4181"
       d="m 224.25027,806.14691 -200.467594,0 c -12.16858,0 -21.9649595,9.79638 -21.9649595,21.96496 l 0,200.46763 c 0,12.1686 7.54638,21.965 19.7149595,21.965 l 182.197054,0 c 2.89115,-3.0345 -0.0229,-18.0101 8.91242,-19.1303 8.72008,-0.8244 6.42181,19.1303 13.55266,19.1303 16.56734,-0.25 20.02042,-5.1747 20.02042,-19.4901 0,-7.339 -16.42144,-6.9898 -16.42144,-14.9691 0,-7.0326 16.42144,-6.0155 16.42144,-10.3369 l 0,-177.63653 c 0,-12.16858 -9.79637,-21.96496 -21.96496,-21.96496 z"
       style="fill:none;stroke:#000000;stroke-width:3.63543296;stroke-linejoin:round;stroke-miterlimit:4;stroke-dasharray:none;stroke-opacity:1" />
    <path
       style="fill:none;fill-rule:evenodd;stroke:#000000;stroke-width:0.88640338px;stroke-linecap:butt;stroke-linejoin:miter;stroke-opacity:1"
       d="m 280.66185,816.25639 -7.5219,-0.0144 c 0,0 -12.66546,1.38798 -12.66546,17.67998 l 0,3.30234 c 0,2.15838 2.24186,1.86661 2.24186,1.86661 l 17.22844,-0.21976 c 1.53795,0 3.54023,-1.50712 3.54023,-3.46003 l -0.11692,-16.83591 c 0,0 -0.25796,-2.31409 -2.70625,-2.31879 z"
       id="path10811" />
    <path
       style="fill:none;stroke:#000000;stroke-width:3.63543296;stroke-linejoin:round;stroke-miterlimit:4;stroke-dasharray:none;stroke-opacity:1"
       d="m 472.28177,806.14691 -200.4676,0 c -12.16858,0 -21.96496,9.79638 -21.96496,21.96496 l 0,200.46763 c 0,12.1686 7.54638,21.965 19.71496,21.965 l 182.19706,0 c 2.89115,-3.0345 -0.0229,-18.0101 8.91242,-19.1303 8.72008,-0.8244 6.42181,19.1303 13.55266,19.1303 16.56734,-0.25 20.02042,-5.1747 20.02042,-19.4901 0,-7.339 -16.42144,-6.9898 -16.42144,-14.9691 0,-7.0326 16.42144,-6.0155 16.42144,-10.3369 l 0,-177.63653 c 0,-12.16858 -9.79637,-21.96496 -21.96496,-21.96496 z"
       id="path10813" />
    <path
       style="fill:none;fill-rule:evenodd;stroke:#000000;stroke-width:0.88640338px;stroke-linecap:butt;stroke-linejoin:miter;stroke-opacity:1"
       d="m 32.63035,568.22488 -7.5219,-0.0144 c 0,0 -12.66546,1.38798 -12.66546,17.67998 l 0,3.30234 c 0,2.15838 2.24186,1.86661 2.24186,1.86661 l 17.22844,-0.21976 c 1.53795,0 3.54023,-1.50712 3.54023,-3.46003 L 35.3366,570.54371 c 0,0 -0.25796,-2.31409 -2.70625,-2.31879 z"
       id="path11697" />
    <path
       style="fill:none;stroke:#000000;stroke-width:3.63543296;stroke-linejoin:round;stroke-miterlimit:4;stroke-dasharray:none;stroke-opacity:1"
       d="m 224.25027,558.1154 -200.467594,0 c -12.16858,0 -21.9649595,9.79638 -21.9649595,21.96496 l 0,200.46763 c 0,12.1686 7.54638,21.965 19.7149595,21.965 l 182.197054,0 c 2.89115,-3.0345 -0.0229,-18.0101 8.91242,-19.1303 8.72008,-0.8244 6.42181,19.1303 13.55266,19.1303 16.56734,-0.25 20.02042,-5.1747 20.02042,-19.4901 0,-7.339 -16.42144,-6.9898 -16.42144,-14.9691 0,-7.0326 16.42144,-6.0155 16.42144,-10.3369 l 0,-177.63653 c 0,-12.16858 -9.79637,-21.96496 -21.96496,-21.96496 z"
       id="path11699" />
    <path
       id="path11701"
       d="m 280.66185,568.22488 -7.5219,-0.0144 c 0,0 -12.66546,1.38798 -12.66546,17.67998 l 0,3.30234 c 0,2.15838 2.24186,1.86661 2.24186,1.86661 l 17.22844,-0.21976 c 1.53795,0 3.54023,-1.50712 3.54023,-3.46003 l -0.11692,-16.83591 c 0,0 -0.25796,-2.31409 -2.70625,-2.31879 z"
       style="fill:none;fill-rule:evenodd;stroke:#000000;stroke-width:0.88640338px;stroke-linecap:butt;stroke-linejoin:miter;stroke-opacity:1" />
    <path
       id="path11703"
       d="m 472.28177,558.1154 -200.4676,0 c -12.16858,0 -21.96496,9.79638 -21.96496,21.96496 l 0,200.46763 c 0,12.1686 7.54638,21.965 19.71496,21.965 l 182.19706,0 c 2.89115,-3.0345 -0.0229,-18.0101 8.91242,-19.1303 8.72008,-0.8244 6.42181,19.1303 13.55266,19.1303 16.56734,-0.25 20.02042,-5.1747 20.02042,-19.4901 0,-7.339 -16.42144,-6.9898 -16.42144,-14.9691 0,-7.0326 16.42144,-6.0155 16.42144,-10.3369 l 0,-177.63653 c 0,-12.16858 -9.79637,-21.96496 -21.96496,-21.96496 z"
       style="fill:none;stroke:#000000;stroke-width:3.63543296;stroke-linejoin:round;stroke-miterlimit:4;stroke-dasharray:none;stroke-opacity:1" />
  </g>
  <g
     transform="translate(0,248.0315)"
     id="layer3">
    <path
       d=""
       style="fill:none;stroke:#000000;stroke-width:0.30101201"
       id="path5329" />
    <path
       d=""
       style="fill:none;stroke:#000000;stroke-width:0.30101201"
       id="path5341" />
    <path
       d=""
       style="fill:none;stroke:#000000;stroke-width:0.30101201"
       id="path5357" />
    <path
       id="path5719"
       style="fill:none;stroke:#000000;stroke-width:0.28793129"
       d="" />
    <path
       id="path5723"
       style="fill:none;stroke:#000000;stroke-width:0.28793129"
       d="" />
    <path
       id="path5731"
       style="fill:none;stroke:#000000;stroke-width:0.28793129"
       d="" />
    <path
       id="path5735"
       style="fill:none;stroke:#000000;stroke-width:0.28793129"
       d="" />
    <path
       id="path5745"
       style="fill:none;stroke:#000000;stroke-width:0.28793129"
       d="" />
    <path
       d=""
       style="fill:none;stroke:#000000;stroke-width:0.28324676"
       id="path6153" />
    <path
       d=""
       style="fill:none;stroke:#000000;stroke-width:0.28324676"
       id="path6167" />
    <path
       d=""
       style="fill:none;stroke:#000000;stroke-width:0.28324676"
       id="path6173" />
    <path
       d=""
       style="fill:none;stroke:#000000;stroke-width:0.28324676"
       id="path6179" />
    <path
       d=""
       style="fill:none;stroke:#000000;stroke-width:0.28324676"
       id="path6189" />
    <path
       d=""
       style="fill:none;stroke:#000000;stroke-width:0.28324676"
       id="path6197" />
    <path
       d=""
       style="fill:none;stroke:#000000;stroke-width:0.28324676"
       id="path6207" />
    <path
       d=""
       style="fill:none;stroke:#000000;stroke-width:0.28324676"
       id="path6215" />
    <path
       d=""
       style="fill:none;stroke:#000000;stroke-width:0.28324676"
       id="path6223" />
    <path
       d=""
       style="fill:none;stroke:#000000;stroke-width:0.28324676"
       id="path6233" />
    <path
       d=""
       style="fill:none;stroke:#000000;stroke-width:0.28324676"
       id="path6245" />
    <path
       d=""
       style="fill:none;stroke:#000000;stroke-width:0.28324676"
       id="path6251" />
    <path
       d=""
       style="fill:none;stroke:#000000;stroke-width:0.28324676"
       id="path6261" />
    <path
       d=""
       style="fill:none;stroke:#000000;stroke-width:0.28324676"
       id="path6267" />
    <path
       d=""
       style="fill:none;stroke:#000000;stroke-width:0.28324676"
       id="path6279" />
    <path
       id="path9408"
       style="fill:none;stroke:#000000;stroke-width:0.28768027"
       d="" />
    <path
       id="path9420"
       style="fill:none;stroke:#000000;stroke-width:0.28768027"
       d="" />
  </g>
  <g
     transform="translate(0,248.0315)"
     id="layer6" />
  <g
     transform="translate(0,248.0315)"
     id="layer4" />
</svg>
