<?xml version="1.0" encoding="UTF-8" standalone="no"?>
<!-- Created with Inkscape (http://www.inkscape.org/) -->

<svg
   xmlns:dc="http://purl.org/dc/elements/1.1/"
   xmlns:cc="http://creativecommons.org/ns#"
   xmlns:rdf="http://www.w3.org/1999/02/22-rdf-syntax-ns#"
   xmlns:svg="http://www.w3.org/2000/svg"
   xmlns="http://www.w3.org/2000/svg"
   xmlns:sodipodi="http://sodipodi.sourceforge.net/DTD/sodipodi-0.dtd"
   xmlns:inkscape="http://www.inkscape.org/namespaces/inkscape"
   width="150mm"
   height="100mm"
   viewBox="0 0 150.00001 100.00001"
   version="1.1"
   id="svg8"
   sodipodi:docname="instructions.svg"
   inkscape:version="0.92.3 (2405546, 2018-03-11)">
  <sodipodi:namedview
     id="base"
     pagecolor="#838383"
     bordercolor="#666666"
     borderopacity="1.0"
     inkscape:pageopacity="0"
     inkscape:pageshadow="2"
     inkscape:zoom="12.845751"
     inkscape:cx="521.93685"
     inkscape:cy="55.198768"
     inkscape:document-units="mm"
     inkscape:current-layer="svg8"
     showgrid="false"
     units="mm"
     inkscape:window-width="1920"
     inkscape:window-height="1043"
     inkscape:window-x="0"
     inkscape:window-y="0"
     inkscape:window-maximized="1"
     inkscape:snap-global="false" />
  <defs
     id="defs2" />
  <metadata
     id="metadata5">
    <rdf:RDF>
      <cc:Work
         rdf:about="">
        <dc:format>image/svg+xml</dc:format>
        <dc:type
           rdf:resource="http://purl.org/dc/dcmitype/StillImage" />
        <dc:title></dc:title>
      </cc:Work>
    </rdf:RDF>
  </metadata>
  <g
     inkscape:groupmode="layer"
     id="layer2"
     inkscape:label="Graphics"
     transform="translate(0,-179.39999)" />
  <g
     style="opacity:1;stroke-width:0.08422444;stroke-miterlimit:4;stroke-dasharray:none"
     transform="matrix(2.0148781,0,0,1.9948376,-264.49566,-385.01376)"
     id="g4253">
    <ellipse
       ry="3.266196"
       rx="3.242275"
       style="fill:none;stroke:#000000;stroke-width:0.08422444;stroke-linejoin:round;stroke-miterlimit:4;stroke-dasharray:none;stroke-opacity:1"
       id="ellipse4255"
       cx="141.60864"
       cy="225.15659" />
    <ellipse
       ry="3.266196"
       rx="3.242275"
       cy="225.15659"
       cx="151.8253"
       id="ellipse4257"
       style="fill:none;stroke:#000000;stroke-width:0.08422444;stroke-linejoin:round;stroke-miterlimit:4;stroke-dasharray:none;stroke-opacity:1" />
    <ellipse
       style="fill:none;stroke:#000000;stroke-width:0.08422444;stroke-linejoin:round;stroke-miterlimit:4;stroke-dasharray:none;stroke-opacity:1"
       id="ellipse4259"
       cx="146.69386"
       cy="224.87309"
       rx="12.337396"
       ry="12.42842" />
  </g>
  <path
     style="fill:none;stroke:#000000;stroke-width:0.26458332px;stroke-linecap:butt;stroke-linejoin:miter;stroke-opacity:1"
     d="m 109.24624,79.489765 h 27.06439 m 5.45484,-1.019383 c 2.27013,-1.313722 3.79101,-3.767344 3.79101,-6.589251 V 19.613124 c 0,-4.215183 -3.39345,-7.608634 -7.60863,-7.608634 H 79.394436 c -4.215183,0 -7.608634,3.393451 -7.608634,7.608634 l 0.01004,41.898916 -11.919198,7.06099 11.921921,0.01173 -0.01276,3.29637 c 0,4.215183 3.393451,7.608634 7.608634,7.608634 h 21.613021"
     id="path828"
     inkscape:connector-curvature="0"
     sodipodi:nodetypes="cccssssscccssc" />
  <path
     inkscape:connector-curvature="0"
     id="path844"
     style="fill:none;stroke:#000000;stroke-width:0.20357177"
     d="" />
  <path
     inkscape:connector-curvature="0"
     id="path852"
     style="fill:none;stroke:#000000;stroke-width:0.20357177"
     d="" />
  <path
     inkscape:connector-curvature="0"
     id="path864"
     style="fill:none;stroke:#000000;stroke-width:0.20357177"
     d="" />
  <path
     inkscape:connector-curvature="0"
     id="path872"
     style="fill:none;stroke:#000000;stroke-width:0.20357177"
     d="" />
  <path
     inkscape:connector-curvature="0"
     id="path884"
     style="fill:none;stroke:#000000;stroke-width:0.20357177"
     d="" />
  <path
     inkscape:connector-curvature="0"
     id="path898"
     style="fill:none;stroke:#000000;stroke-width:0.20357177"
     d="" />
  <path
     inkscape:connector-curvature="0"
     id="path906"
     style="fill:none;stroke:#000000;stroke-width:0.20357177"
     d="" />
  <path
     inkscape:connector-curvature="0"
     id="path912"
     style="fill:none;stroke:#000000;stroke-width:0.20357177"
     d="" />
  <path
     inkscape:connector-curvature="0"
     id="path924"
     style="fill:none;stroke:#000000;stroke-width:0.20357177"
     d="" />
  <path
     inkscape:connector-curvature="0"
     id="path936"
     style="fill:none;stroke:#000000;stroke-width:0.20357177"
     d="" />
  <path
     inkscape:connector-curvature="0"
     id="path948"
     style="fill:none;stroke:#000000;stroke-width:0.20357177"
     d="" />
  <path
     inkscape:connector-curvature="0"
     id="path956"
     style="fill:none;stroke:#000000;stroke-width:0.20357177"
     d="" />
  <path
     inkscape:connector-curvature="0"
     id="path966"
     style="fill:none;stroke:#000000;stroke-width:0.20357177"
     d="" />
  <path
     inkscape:connector-curvature="0"
     id="path976"
     style="fill:none;stroke:#000000;stroke-width:0.20357177"
     d="" />
  <path
     inkscape:connector-curvature="0"
     id="path984"
     style="fill:none;stroke:#000000;stroke-width:0.20357177"
     d="" />
  <path
     id="path1330"
     style="fill:none;stroke:#000000;stroke-width:0.20357177"
     d=""
     inkscape:connector-curvature="0" />
  <path
     id="path1342"
     style="fill:none;stroke:#000000;stroke-width:0.20357177"
     d=""
     inkscape:connector-curvature="0" />
  <path
     id="path1350"
     style="fill:none;stroke:#000000;stroke-width:0.20357177"
     d=""
     inkscape:connector-curvature="0" />
  <path
     id="path1358"
     style="fill:none;stroke:#000000;stroke-width:0.20357177"
     d=""
     inkscape:connector-curvature="0" />
  <path
     id="path1370"
     style="fill:none;stroke:#000000;stroke-width:0.20357177"
     d=""
     inkscape:connector-curvature="0" />
  <path
     id="path1384"
     style="fill:none;stroke:#000000;stroke-width:0.20357177"
     d=""
     inkscape:connector-curvature="0" />
  <path
     id="path1392"
     style="fill:none;stroke:#000000;stroke-width:0.20357177"
     d=""
     inkscape:connector-curvature="0" />
  <path
     id="path1398"
     style="fill:none;stroke:#000000;stroke-width:0.20357177"
     d=""
     inkscape:connector-curvature="0" />
  <path
     id="path1410"
     style="fill:none;stroke:#000000;stroke-width:0.20357177"
     d=""
     inkscape:connector-curvature="0" />
  <path
     id="path1422"
     style="fill:none;stroke:#000000;stroke-width:0.20357177"
     d=""
     inkscape:connector-curvature="0" />
  <path
     id="path1434"
     style="fill:none;stroke:#000000;stroke-width:0.20357177"
     d=""
     inkscape:connector-curvature="0" />
  <path
     id="path1442"
     style="fill:none;stroke:#000000;stroke-width:0.20357177"
     d=""
     inkscape:connector-curvature="0" />
  <path
     id="path1452"
     style="fill:none;stroke:#000000;stroke-width:0.20357177"
     d=""
     inkscape:connector-curvature="0" />
  <path
     id="path1462"
     style="fill:none;stroke:#000000;stroke-width:0.20357177"
     d=""
     inkscape:connector-curvature="0" />
  <path
     id="path1470"
     style="fill:none;stroke:#000000;stroke-width:0.20357177"
     d=""
     inkscape:connector-curvature="0" />
  <g
     id="g6041"
     transform="translate(1.0583333)">
    <g
       id="g5972">
      <g
         id="g2214"
         transform="translate(-1.4447271,1.7936945e-6)">
        <path
           inkscape:connector-curvature="0"
           d="m 75.349854,16.59354 v 4.275008"
           style="fill:none;stroke:#000000;stroke-width:0.20357177"
           id="path1326" />
        <path
           inkscape:connector-curvature="0"
           d="M 78.199859,16.59354 H 77.792715 L 77.385571,16.797112 77.182,17.407827 v 3.460721 m -0.610716,-2.850005 h 1.425003"
           style="fill:none;stroke:#000000;stroke-width:0.20357177"
           id="path1328" />
        <path
           inkscape:connector-curvature="0"
           d="m 84.917728,18.629258 -0.407144,-0.407143 -0.407143,-0.203572 h -0.610716 l -0.407143,0.203572 -0.407144,0.407143 -0.203572,0.610715 v 0.407144 l 0.203572,0.610715 0.407144,0.407144 0.407143,0.203572 h 0.610716 l 0.407143,-0.203572 0.407144,-0.407144"
           style="fill:none;stroke:#000000;stroke-width:0.20357177"
           id="path1332" />
        <path
           inkscape:connector-curvature="0"
           d="m 88.58202,18.018543 v 2.850005 m 0,-2.23929 -0.407144,-0.407143 -0.407143,-0.203572 h -0.610716 l -0.407143,0.203572 -0.407144,0.407143 -0.203572,0.610715 v 0.407144 l 0.203572,0.610715 0.407144,0.407144 0.407143,0.203572 h 0.610716 l 0.407143,-0.203572 0.407144,-0.407144"
           style="fill:none;stroke:#000000;stroke-width:0.20357177"
           id="path1334" />
        <path
           inkscape:connector-curvature="0"
           d="m 90.210593,18.018543 v 2.850005 m 0,-1.628575 0.203572,-0.610715 0.407144,-0.407143 0.407143,-0.203572 h 0.610716"
           style="fill:none;stroke:#000000;stroke-width:0.20357177"
           id="path1336" />
        <path
           inkscape:connector-curvature="0"
           d="m 95.096316,16.59354 v 4.275008 m 0,-2.23929 -0.407143,-0.407143 -0.407144,-0.203572 h -0.610715 l -0.407144,0.203572 -0.407143,0.407143 -0.203572,0.610715 v 0.407144 l 0.203572,0.610715 0.407143,0.407144 0.407144,0.203572 h 0.610715 l 0.407144,-0.203572 0.407143,-0.407144"
           style="fill:none;stroke:#000000;stroke-width:0.20357177"
           id="path1338" />
        <path
           inkscape:connector-curvature="0"
           d="m 98.760608,18.629258 -0.203572,-0.407143 -0.610715,-0.203572 h -0.610715 l -0.610716,0.203572 -0.203571,0.407143 0.203571,0.407144 0.407144,0.203571 1.017859,0.203572 0.407143,0.203572 0.203572,0.407144 v 0.203571 l -0.203572,0.407144 -0.610715,0.203572 H 97.335606 L 96.72489,20.664976 96.521319,20.257832"
           style="fill:none;stroke:#000000;stroke-width:0.20357177"
           id="path1340" />
        <path
           inkscape:connector-curvature="0"
           d="m 105.68205,18.018543 v 2.850005 m 0,-2.23929 -0.40715,-0.407143 -0.40714,-0.203572 h -0.61071 l -0.40715,0.203572 -0.40714,0.407143 -0.20357,0.610715 v 0.407144 l 0.20357,0.610715 0.40714,0.407144 0.40715,0.203572 h 0.61071 l 0.40714,-0.203572 0.40715,-0.407144"
           style="fill:none;stroke:#000000;stroke-width:0.20357177"
           id="path1344" />
        <path
           inkscape:connector-curvature="0"
           d="m 107.31062,18.018543 v 2.850005 m 0,-1.628575 0.20357,-0.610715 0.40715,-0.407143 0.40714,-0.203572 h 0.61072"
           style="fill:none;stroke:#000000;stroke-width:0.20357177"
           id="path1346" />
        <path
           inkscape:connector-curvature="0"
           d="m 109.75348,19.239973 h 2.44287 V 18.83283 l -0.20358,-0.407144 -0.20357,-0.203571 -0.40714,-0.203572 h -0.61072 l -0.40714,0.203572 -0.40714,0.407143 -0.20358,0.610715 v 0.407144 l 0.20358,0.610715 0.40714,0.407144 0.40714,0.203572 h 0.61072 l 0.40714,-0.203572 0.40715,-0.407144"
           style="fill:none;stroke:#000000;stroke-width:0.20357177"
           id="path1348" />
        <path
           inkscape:connector-curvature="0"
           d="m 119.11779,18.018543 v 2.850005 m 0,-2.23929 -0.40715,-0.407143 -0.40714,-0.203572 h -0.61072 l -0.40714,0.203572 -0.40714,0.407143 -0.20358,0.610715 v 0.407144 l 0.20358,0.610715 0.40714,0.407144 0.40714,0.203572 h 0.61072 l 0.40714,-0.203572 0.40715,-0.407144"
           style="fill:none;stroke:#000000;stroke-width:0.20357177"
           id="path1352" />
        <path
           inkscape:connector-curvature="0"
           d="m 120.74636,16.59354 v 4.275008"
           style="fill:none;stroke:#000000;stroke-width:0.20357177"
           id="path1354" />
        <path
           inkscape:connector-curvature="0"
           d="m 122.37493,16.59354 v 4.275008"
           style="fill:none;stroke:#000000;stroke-width:0.20357177"
           id="path1356" />
        <path
           inkscape:connector-curvature="0"
           d="m 129.49995,18.018543 v 3.257148 l -0.20358,0.610716 -0.20357,0.203571 -0.40714,0.203572 h -0.61072 l -0.40714,-0.203572 m 1.83215,-3.46072 -0.40715,-0.407143 -0.40714,-0.203572 h -0.61072 l -0.40714,0.203572 -0.40714,0.407143 -0.20358,0.610715 v 0.407144 l 0.20358,0.610715 0.40714,0.407144 0.40714,0.203572 h 0.61072 l 0.40714,-0.203572 0.40715,-0.407144"
           style="fill:none;stroke:#000000;stroke-width:0.20357177"
           id="path1360" />
        <path
           inkscape:connector-curvature="0"
           d="m 131.94281,18.018543 -0.40715,0.203572 -0.40714,0.407143 -0.20357,0.610715 v 0.407144 l 0.20357,0.610715 0.40714,0.407144 0.40715,0.203572 h 0.61071 l 0.40715,-0.203572 0.40714,-0.407144 0.20357,-0.610715 v -0.407144 l -0.20357,-0.610715 -0.40714,-0.407143 -0.40715,-0.203572 h -0.61071"
           style="fill:none;stroke:#000000;stroke-width:0.20357177"
           id="path1362" />
        <path
           inkscape:connector-curvature="0"
           d="m 134.99638,18.018543 v 2.850005 m 0,-2.035718 0.61072,-0.610715 0.40714,-0.203572 h 0.61072 l 0.40714,0.203572 0.20357,0.610715 v 2.035718"
           style="fill:none;stroke:#000000;stroke-width:0.20357177"
           id="path1364" />
        <path
           inkscape:connector-curvature="0"
           d="m 138.66068,19.239973 h 2.44286 V 18.83283 l -0.20357,-0.407144 -0.20358,-0.203571 -0.40714,-0.203572 h -0.61072 l -0.40714,0.203572 -0.40714,0.407143 -0.20357,0.610715 v 0.407144 l 0.20357,0.610715 0.40714,0.407144 0.40714,0.203572 h 0.61072 l 0.40714,-0.203572 0.40715,-0.407144"
           style="fill:none;stroke:#000000;stroke-width:0.20357177"
           id="path1366" />
        <path
           inkscape:connector-curvature="0"
           d="m 142.73211,20.054261 -0.20357,0.203571 -0.20357,-0.203571 0.20357,-0.203572 0.20357,0.203572 v 0.407143 l -0.40714,0.407144"
           style="fill:none;stroke:#000000;stroke-width:0.20357177"
           id="path1368" />
      </g>
      <g
         id="g2194"
         transform="translate(-1.1166079,0.79152033)">
        <path
           inkscape:connector-curvature="0"
           d="M 77.273039,26.880873 77.069467,26.47373 76.458752,26.270158 h -0.610715 l -0.610716,0.203572 -0.203572,0.407143 0.203572,0.407144 0.407143,0.203572 1.01786,0.203572 0.407143,0.203571 0.203572,0.407144 v 0.203572 l -0.203572,0.407144 -0.610715,0.203571 h -0.610715 l -0.610716,-0.203571 -0.203572,-0.407144"
           style="fill:none;stroke:#000000;stroke-width:0.20357177"
           id="path1372" />
        <path
           inkscape:connector-curvature="0"
           d="m 78.49447,26.270158 0.814287,2.850005 m 0.814287,-2.850005 -0.814287,2.850005 m 0.814287,-2.850005 0.814287,2.850005 m 0.814288,-2.850005 -0.814288,2.850005"
           style="fill:none;stroke:#000000;stroke-width:0.20357177"
           id="path1374" />
        <path
           inkscape:connector-curvature="0"
           d="m 82.973049,24.845156 0.203572,0.203571 0.203571,-0.203571 -0.203571,-0.203572 -0.203572,0.203572 m 0.203572,1.425002 v 2.850005"
           style="fill:none;stroke:#000000;stroke-width:0.20357177"
           id="path1376" />
        <path
           inkscape:connector-curvature="0"
           d="m 85.008767,24.845156 v 3.46072 l 0.203571,0.610716 0.407144,0.203571 h 0.407144 m -1.628575,-2.850005 h 1.425003"
           style="fill:none;stroke:#000000;stroke-width:0.20357177"
           id="path1378" />
        <path
           inkscape:connector-curvature="0"
           d="M 89.487345,26.880873 89.080202,26.47373 88.673059,26.270158 h -0.610716 l -0.407143,0.203572 -0.407144,0.407143 -0.203572,0.610716 v 0.407143 l 0.203572,0.610716 0.407144,0.407144 0.407143,0.203571 h 0.610716 l 0.407143,-0.203571 0.407143,-0.407144"
           style="fill:none;stroke:#000000;stroke-width:0.20357177"
           id="path1380" />
        <path
           inkscape:connector-curvature="0"
           d="m 90.912348,24.845156 v 4.275007 m 0,-2.035717 0.610715,-0.610716 0.407144,-0.203572 h 0.610715 l 0.407144,0.203572 0.203571,0.610716 v 2.035717"
           style="fill:none;stroke:#000000;stroke-width:0.20357177"
           id="path1382" />
        <path
           inkscape:connector-curvature="0"
           d="m 98.03736,24.845156 v 4.275007 m 0,-2.23929 0.407144,-0.407143 0.407143,-0.203572 h 0.610715 l 0.407144,0.203572 0.407144,0.407143 0.20357,0.610716 v 0.407143 l -0.20357,0.610716 -0.407144,0.407144 -0.407144,0.203571 H 98.851647 L 98.444504,28.916592 98.03736,28.509448"
           style="fill:none;stroke:#000000;stroke-width:0.20357177"
           id="path1386" />
        <path
           inkscape:connector-curvature="0"
           d="m 102.71951,26.270158 -0.40714,0.203572 -0.40715,0.407143 -0.20357,0.610716 v 0.407143 l 0.20357,0.610716 0.40715,0.407144 0.40714,0.203571 h 0.61072 l 0.40714,-0.203571 0.40714,-0.407144 0.20357,-0.610716 v -0.407143 l -0.20357,-0.610716 -0.40714,-0.407143 -0.40714,-0.203572 h -0.61072"
           style="fill:none;stroke:#000000;stroke-width:0.20357177"
           id="path1388" />
        <path
           inkscape:connector-curvature="0"
           d="m 105.56951,26.270158 2.23929,2.850005 m 0,-2.850005 -2.23929,2.850005"
           style="fill:none;stroke:#000000;stroke-width:0.20357177"
           id="path1390" />
        <path
           inkscape:connector-curvature="0"
           d="m 113.30524,26.270158 -0.40714,0.203572 -0.40715,0.407143 -0.20357,0.610716 v 0.407143 l 0.20357,0.610716 0.40715,0.407144 0.40714,0.203571 h 0.61072 l 0.40714,-0.203571 0.40714,-0.407144 0.20357,-0.610716 v -0.407143 l -0.20357,-0.610716 -0.40714,-0.407143 -0.40714,-0.203572 h -0.61072"
           style="fill:none;stroke:#000000;stroke-width:0.20357177"
           id="path1394" />
        <path
           inkscape:connector-curvature="0"
           d="m 116.35882,26.270158 v 2.850005 m 0,-2.035717 0.61071,-0.610716 0.40715,-0.203572 h 0.61072 l 0.40714,0.203572 0.20357,0.610716 v 2.035717"
           style="fill:none;stroke:#000000;stroke-width:0.20357177"
           id="path1396" />
        <path
           inkscape:connector-curvature="0"
           d="m 123.48383,26.270158 v 2.035718 l 0.20357,0.610716 0.40714,0.203571 h 0.61072 l 0.40714,-0.203571 0.61072,-0.610716 m 0,-2.035718 v 2.850005"
           style="fill:none;stroke:#000000;stroke-width:0.20357177"
           id="path1400" />
        <path
           inkscape:connector-curvature="0"
           d="m 127.3517,26.270158 v 2.850005 m 0,-2.035717 0.61071,-0.610716 0.40715,-0.203572 h 0.61071 l 0.40715,0.203572 0.20357,0.610716 v 2.035717"
           style="fill:none;stroke:#000000;stroke-width:0.20357177"
           id="path1402" />
        <path
           inkscape:connector-curvature="0"
           d="m 131.42313,24.845156 v 3.46072 l 0.20357,0.610716 0.40715,0.203571 h 0.40714 m -1.62857,-2.850005 h 1.425"
           style="fill:none;stroke:#000000;stroke-width:0.20357177"
           id="path1404" />
        <path
           inkscape:connector-curvature="0"
           d="m 133.45885,24.845156 0.20357,0.203571 0.20357,-0.203571 -0.20357,-0.203572 -0.20357,0.203572 m 0.20357,1.425002 v 2.850005"
           style="fill:none;stroke:#000000;stroke-width:0.20357177"
           id="path1406" />
        <path
           inkscape:connector-curvature="0"
           d="m 135.29099,24.845156 v 4.275007"
           style="fill:none;stroke:#000000;stroke-width:0.20357177"
           id="path1408" />
      </g>
      <g
         id="g2176"
         transform="translate(-0.54059612,-1.5850999e-6)">
        <path
           inkscape:connector-curvature="0"
           d="m 74.445723,35.371471 v 4.275008"
           style="fill:none;stroke:#000000;stroke-width:0.20357177"
           id="path1412" />
        <path
           inkscape:connector-curvature="0"
           d="M 75.870731,35.371471 76.0743,35.575043 76.277869,35.371471 76.0743,35.1679 75.870731,35.371471 m 0.203569,1.425003 v 2.850005"
           style="fill:none;stroke:#000000;stroke-width:0.20357177"
           id="path1414" />
        <path
           inkscape:connector-curvature="0"
           d="m 79.942161,36.796474 v 3.257149 l -0.203569,0.610715 -0.203577,0.203571 -0.407138,0.203572 h -0.610716 l -0.407146,-0.203572 m 1.832146,-3.46072 -0.407146,-0.407143 -0.407138,-0.203572 h -0.610716 l -0.407146,0.203572 -0.407146,0.407143 -0.203569,0.610715 v 0.407144 l 0.203569,0.610715 0.407146,0.407144 0.407146,0.203572 h 0.610716 l 0.407138,-0.203572 0.407146,-0.407144"
           style="fill:none;stroke:#000000;stroke-width:0.20357177"
           id="path1416" />
        <path
           inkscape:connector-curvature="0"
           d="m 81.57073,35.371471 v 4.275008 m 0,-2.035718 0.610715,-0.610715 0.407147,-0.203572 h 0.610715 l 0.407146,0.203572 0.203569,0.610715 v 2.035718"
           style="fill:none;stroke:#000000;stroke-width:0.20357177"
           id="path1418" />
        <path
           inkscape:connector-curvature="0"
           d="m 85.642168,35.371471 v 3.460721 l 0.203569,0.610715 0.407147,0.203572 h 0.407146 m -1.628577,-2.850005 h 1.425"
           style="fill:none;stroke:#000000;stroke-width:0.20357177"
           id="path1420" />
        <path
           inkscape:connector-curvature="0"
           d="m 91.342183,35.371471 v 3.460721 l 0.203569,0.610715 0.407146,0.203572 h 0.407147 m -1.628577,-2.850005 h 1.425"
           style="fill:none;stroke:#000000;stroke-width:0.20357177"
           id="path1424" />
        <path
           inkscape:connector-curvature="0"
           d="m 93.581468,36.796474 v 2.035718 l 0.203576,0.610715 0.407139,0.203572 h 0.610715 l 0.407146,-0.203572 0.610716,-0.610715 m 0,-2.035718 v 2.850005"
           style="fill:none;stroke:#000000;stroke-width:0.20357177"
           id="path1426" />
        <path
           inkscape:connector-curvature="0"
           d="m 97.449336,36.796474 v 2.850005 m 0,-1.628575 0.20357,-0.610715 0.407146,-0.407143 0.407146,-0.203572 h 0.610715"
           style="fill:none;stroke:#000000;stroke-width:0.20357177"
           id="path1428" />
        <path
           inkscape:connector-curvature="0"
           d="m 100.09577,36.796474 v 2.850005 m 0,-2.035718 0.61071,-0.610715 0.40715,-0.203572 h 0.61071 l 0.40715,0.203572 0.20357,0.610715 v 2.035718"
           style="fill:none;stroke:#000000;stroke-width:0.20357177"
           id="path1430" />
        <path
           inkscape:connector-curvature="0"
           d="m 105.99935,37.407189 -0.20357,-0.407143 -0.61071,-0.203572 h -0.61072 l -0.61071,0.203572 -0.20358,0.407143 0.20358,0.407144 0.40713,0.203571 1.01787,0.203573 0.40714,0.203571 0.20357,0.407144 v 0.203571 l -0.20357,0.407144 -0.61071,0.203572 h -0.61072 l -0.61071,-0.203572 -0.20358,-0.407144"
           style="fill:none;stroke:#000000;stroke-width:0.20357177"
           id="path1432" />
        <path
           inkscape:connector-curvature="0"
           d="m 111.49579,36.796474 -0.40715,0.203572 -0.40714,0.407143 -0.20357,0.610715 v 0.407144 l 0.20357,0.610715 0.40714,0.407144 0.40715,0.203572 h 0.61071 l 0.40714,-0.203572 0.40715,-0.407144 0.20357,-0.610715 v -0.407144 l -0.20357,-0.610715 -0.40715,-0.407143 -0.40714,-0.203572 h -0.61071"
           style="fill:none;stroke:#000000;stroke-width:0.20357177"
           id="path1436" />
        <path
           inkscape:connector-curvature="0"
           d="m 114.54936,36.796474 v 2.850005 m 0,-2.035718 0.61071,-0.610715 0.40715,-0.203572 h 0.61071 l 0.40715,0.203572 0.20357,0.610715 v 2.035718"
           style="fill:none;stroke:#000000;stroke-width:0.20357177"
           id="path1438" />
        <path
           inkscape:connector-curvature="0"
           d="m 118.41723,38.62862 -0.20357,0.203572 0.20357,0.203571 0.20356,-0.203571 -0.20356,-0.203572"
           style="fill:none;stroke:#000000;stroke-width:0.20357177"
           id="path1440" />
      </g>
    </g>
    <g
       transform="translate(-48.888889,13.333333)"
       id="g2161">
      <path
         id="path1444"
         style="fill:none;stroke:#000000;stroke-width:0.20357177"
         d="m 124.11723,35.371471 v 4.275008 m -1.425,-4.275008 h 2.85"
         inkscape:connector-curvature="0" />
      <path
         id="path1446"
         style="fill:none;stroke:#000000;stroke-width:0.20357177"
         d="m 126.56009,35.371471 v 4.275008 m 0,-2.035718 0.61072,-0.610715 0.40715,-0.203572 h 0.61071 l 0.40715,0.203572 0.20357,0.610715 v 2.035718"
         inkscape:connector-curvature="0" />
      <path
         id="path1448"
         style="fill:none;stroke:#000000;stroke-width:0.20357177"
         d="m 130.22439,38.017904 h 2.44286 v -0.407143 l -0.20357,-0.407144 -0.20358,-0.203571 -0.40714,-0.203572 h -0.61071 l -0.40715,0.203572 -0.40714,0.407143 -0.20357,0.610715 v 0.407144 l 0.20357,0.610715 0.40714,0.407144 0.40715,0.203572 h 0.61071 l 0.40714,-0.203572 0.40715,-0.407144"
         inkscape:connector-curvature="0" />
      <path
         id="path1450"
         style="fill:none;stroke:#000000;stroke-width:0.20357177"
         d="m 134.09225,36.796474 v 2.850005 m 0,-2.035718 0.61071,-0.610715 0.40715,-0.203572 h 0.61071 l 0.40715,0.203572 0.20357,0.610715 v 2.035718"
         inkscape:connector-curvature="0" />
      <path
         id="path1454"
         style="fill:none;stroke:#000000;stroke-width:0.20357177"
         d="m 141.42084,35.371471 v 3.460721 l 0.20357,0.610715 0.40714,0.203572 h 0.40715 m -1.62858,-2.850005 h 1.425"
         inkscape:connector-curvature="0" />
      <path
         id="path1456"
         style="fill:none;stroke:#000000;stroke-width:0.20357177"
         d="m 143.66012,36.796474 v 2.035718 l 0.20358,0.610715 0.40714,0.203572 h 0.61071 l 0.40715,-0.203572 0.61072,-0.610715 m 0,-2.035718 v 2.850005"
         inkscape:connector-curvature="0" />
      <path
         id="path1458"
         style="fill:none;stroke:#000000;stroke-width:0.20357177"
         d="m 147.52799,36.796474 v 2.850005 m 0,-1.628575 0.20357,-0.610715 0.40715,-0.407143 0.40714,-0.203572 h 0.61072"
         inkscape:connector-curvature="0" />
      <path
         id="path1460"
         style="fill:none;stroke:#000000;stroke-width:0.20357177"
         d="m 150.17442,36.796474 v 2.850005 m 0,-2.035718 0.61072,-0.610715 0.40714,-0.203572 h 0.61072 l 0.40715,0.203572 0.20356,0.610715 v 2.035718"
         inkscape:connector-curvature="0" />
      <path
         id="path1464"
         style="fill:none;stroke:#000000;stroke-width:0.20357177"
         d="m 157.29944,35.371471 v 4.275008 m 0,-2.23929 0.40714,-0.407143 0.40714,-0.203572 h 0.61072 l 0.40714,0.203572 0.40715,0.407143 0.20357,0.610715 v 0.407144 l -0.20357,0.610715 -0.40715,0.407144 -0.40714,0.203572 h -0.61072 l -0.40714,-0.203572 -0.40714,-0.407144"
         inkscape:connector-curvature="0" />
      <path
         id="path1466"
         style="fill:none;stroke:#000000;stroke-width:0.20357177"
         d="m 161.98159,36.796474 -0.40715,0.203572 -0.40714,0.407143 -0.20357,0.610715 v 0.407144 l 0.20357,0.610715 0.40714,0.407144 0.40715,0.203572 h 0.61072 l 0.40713,-0.203572 0.40715,-0.407144 0.20357,-0.610715 v -0.407144 l -0.20357,-0.610715 -0.40715,-0.407143 -0.40713,-0.203572 h -0.61072"
         inkscape:connector-curvature="0" />
      <path
         id="path1468"
         style="fill:none;stroke:#000000;stroke-width:0.20357177"
         d="m 164.83159,36.796474 2.23929,2.850005 m 0,-2.850005 -2.23929,2.850005"
         inkscape:connector-curvature="0" />
      <path
         id="path1472"
         style="fill:none;stroke:#000000;stroke-width:0.20357177"
         d="m 172.56732,36.796474 -0.40715,0.203572 -0.40714,0.407143 -0.20357,0.610715 v 0.407144 l 0.20357,0.610715 0.40714,0.407144 0.40715,0.203572 h 0.61072 l 0.40713,-0.203572 0.40715,-0.407144 0.20357,-0.610715 v -0.407144 l -0.20357,-0.610715 -0.40715,-0.407143 -0.40713,-0.203572 h -0.61072"
         inkscape:connector-curvature="0" />
      <path
         id="path1474"
         style="fill:none;stroke:#000000;stroke-width:0.20357177"
         d="m 176.84233,35.371471 h -0.40715 l -0.40714,0.203572 -0.20357,0.610715 v 3.460721 m -0.61072,-2.850005 h 1.425"
         inkscape:connector-curvature="0" />
      <path
         id="path1476"
         style="fill:none;stroke:#000000;stroke-width:0.20357177"
         d="m 179.28519,35.371471 h -0.40715 l -0.40714,0.203572 -0.20357,0.610715 v 3.460721 m -0.61072,-2.850005 h 1.425"
         inkscape:connector-curvature="0" />
      <path
         id="path1478"
         style="fill:none;stroke:#000000;stroke-width:0.20357177"
         d="m 180.50662,38.62862 -0.20357,0.203572 0.20357,0.203571 0.20357,-0.203571 -0.20357,-0.203572"
         inkscape:connector-curvature="0" />
    </g>
  </g>
  <path
     sodipodi:nodetypes="cccssssscccssc"
     inkscape:connector-curvature="0"
     id="path6043"
     d="m 109.41101,79.489765 h 26.89962 m 5.45484,-1.019383 c 2.27013,-1.313722 3.79101,-3.767344 3.79101,-6.589251 V 19.613124 c 0,-4.215183 -3.39345,-7.608634 -7.60863,-7.608634 H 79.394436 c -4.215183,0 -7.608634,3.393451 -7.608634,7.608634 l 0.01004,41.898916 -11.919198,7.06099 11.921921,0.01173 -0.01276,3.29637 c 0,4.215183 3.393451,7.608634 7.608634,7.608634 h 21.448241"
     style="fill:none;stroke:#000000;stroke-width:0.26458332px;stroke-linecap:butt;stroke-linejoin:miter;stroke-opacity:1" />
  <path
     id="path6045"
     style="fill:none;stroke:#000000;stroke-width:0.26458332px;stroke-linecap:butt;stroke-linejoin:miter;stroke-opacity:1"
     d="m 136.66666,74.385965 11.75439,10.994152 m 0,0 -11.75439,10.994152 m 0,0 v -7.836257"
     inkscape:connector-curvature="0"
     sodipodi:nodetypes="cccccc" />
  <path
     d="M 148.42105,85.380117 136.66666,74.385965 v 6.723182 l -21.34502,0.11696 c -11.53488,0.116514 -14.0909,-11.187121 -14.27002,-23.841605 -0.17912,13.193469 -3.556616,31.620012 14.27002,31.27047 l 21.34502,-0.11696 m 11.75439,-3.157895 -11.75439,10.994152 m 0,0 v -7.836257"
     style="fill:none;stroke:#000000;stroke-width:0.26458332px;stroke-linecap:butt;stroke-linejoin:miter;stroke-opacity:1"
     id="path6060"
     inkscape:connector-curvature="0"
     sodipodi:nodetypes="ccccccccccc" />
</svg>
