<?xml version="1.0" encoding="UTF-8" standalone="no"?>
<svg
   xmlns:dc="http://purl.org/dc/elements/1.1/"
   xmlns:cc="http://creativecommons.org/ns#"
   xmlns:rdf="http://www.w3.org/1999/02/22-rdf-syntax-ns#"
   xmlns:svg="http://www.w3.org/2000/svg"
   xmlns="http://www.w3.org/2000/svg"
   xmlns:sodipodi="http://sodipodi.sourceforge.net/DTD/sodipodi-0.dtd"
   xmlns:inkscape="http://www.inkscape.org/namespaces/inkscape"
   id="svg8"
   version="1.1"
   viewBox="0 0 150.00001 100.00001"
   height="100mm"
   width="150mm"
   sodipodi:docname="Sign.svg"
   inkscape:version="0.92.3 (2405546, 2018-03-11)">
  <sodipodi:namedview
     pagecolor="#ffffff"
     bordercolor="#666666"
     borderopacity="1"
     objecttolerance="10"
     gridtolerance="10"
     guidetolerance="10"
     inkscape:pageopacity="0"
     inkscape:pageshadow="2"
     inkscape:window-width="1920"
     inkscape:window-height="1043"
     id="namedview105"
     showgrid="false"
     inkscape:zoom="0.62441667"
     inkscape:cx="780.72868"
     inkscape:cy="188.97638"
     inkscape:window-x="0"
     inkscape:window-y="0"
     inkscape:window-maximized="1"
     inkscape:current-layer="svg8" />
  <defs
     id="defs2" />
  <metadata
     id="metadata5">
    <rdf:RDF>
      <cc:Work
         rdf:about="">
        <dc:format>image/svg+xml</dc:format>
        <dc:type
           rdf:resource="http://purl.org/dc/dcmitype/StillImage" />
        <dc:title></dc:title>
      </cc:Work>
    </rdf:RDF>
  </metadata>
  <g
     transform="translate(0,-179.39999)"
     id="layer2" />
  <path
     id="ellipse4255"
     d="m 27.361282,64.137062 a 6.5327888,6.5155306 0 0 1 -6.532789,6.515531 6.5327888,6.5155306 0 0 1 -6.532789,-6.515531 6.5327888,6.5155306 0 0 1 6.532789,-6.515531 6.5327888,6.5155306 0 0 1 6.532789,6.515531 z"
     style="fill:none;stroke:#000000;stroke-width:0.16885592;stroke-linejoin:round;stroke-miterlimit:4;stroke-dasharray:none;stroke-opacity:1" />
  <path
     id="ellipse4257"
     d="m 47.946603,64.137062 a 6.5327888,6.5155306 0 0 1 -6.532788,6.515531 6.5327888,6.5155306 0 0 1 -6.532789,-6.515531 6.5327888,6.5155306 0 0 1 6.532789,-6.515531 6.5327888,6.5155306 0 0 1 6.532788,6.515531 z"
     style="fill:none;stroke:#000000;stroke-width:0.16885592;stroke-linejoin:round;stroke-miterlimit:4;stroke-dasharray:none;stroke-opacity:1" />
  <path
     id="ellipse4259"
     d="M 55.932941,63.571541 A 24.858349,24.792679 0 0 1 31.074593,88.36422 24.858349,24.792679 0 0 1 6.2162437,63.571541 24.858349,24.792679 0 0 1 31.074593,38.778862 24.858349,24.792679 0 0 1 55.932941,63.571541 Z"
     style="fill:none;stroke:#000000;stroke-width:0.16885592;stroke-linejoin:round;stroke-miterlimit:4;stroke-dasharray:none;stroke-opacity:1" />
  <path
     id="path828"
     d="m 109.24624,79.489765 h 27.06439 m 5.45484,-1.019383 c 2.27013,-1.313722 3.79101,-3.767344 3.79101,-6.589251 V 19.613124 c 0,-4.215183 -3.39345,-7.608634 -7.60863,-7.608634 H 79.394436 c -4.215183,0 -7.608634,3.393451 -7.608634,7.608634 l 0.01004,41.898916 -11.919198,7.06099 11.921921,0.01173 -0.01276,3.29637 c 0,4.215183 3.393451,7.608634 7.608634,7.608634 h 21.613021"
     style="fill:none;stroke:#000000;stroke-width:0.26458332px;stroke-linecap:butt;stroke-linejoin:miter;stroke-opacity:1" />
  <path
     d=""
     style="fill:none;stroke:#000000;stroke-width:0.20357177"
     id="path844" />
  <path
     d=""
     style="fill:none;stroke:#000000;stroke-width:0.20357177"
     id="path852" />
  <path
     d=""
     style="fill:none;stroke:#000000;stroke-width:0.20357177"
     id="path864" />
  <path
     d=""
     style="fill:none;stroke:#000000;stroke-width:0.20357177"
     id="path872" />
  <path
     d=""
     style="fill:none;stroke:#000000;stroke-width:0.20357177"
     id="path884" />
  <path
     d=""
     style="fill:none;stroke:#000000;stroke-width:0.20357177"
     id="path898" />
  <path
     d=""
     style="fill:none;stroke:#000000;stroke-width:0.20357177"
     id="path906" />
  <path
     d=""
     style="fill:none;stroke:#000000;stroke-width:0.20357177"
     id="path912" />
  <path
     d=""
     style="fill:none;stroke:#000000;stroke-width:0.20357177"
     id="path924" />
  <path
     d=""
     style="fill:none;stroke:#000000;stroke-width:0.20357177"
     id="path936" />
  <path
     d=""
     style="fill:none;stroke:#000000;stroke-width:0.20357177"
     id="path948" />
  <path
     d=""
     style="fill:none;stroke:#000000;stroke-width:0.20357177"
     id="path956" />
  <path
     d=""
     style="fill:none;stroke:#000000;stroke-width:0.20357177"
     id="path966" />
  <path
     d=""
     style="fill:none;stroke:#000000;stroke-width:0.20357177"
     id="path976" />
  <path
     d=""
     style="fill:none;stroke:#000000;stroke-width:0.20357177"
     id="path984" />
  <path
     d=""
     style="fill:none;stroke:#000000;stroke-width:0.20357177"
     id="path1330" />
  <path
     d=""
     style="fill:none;stroke:#000000;stroke-width:0.20357177"
     id="path1342" />
  <path
     d=""
     style="fill:none;stroke:#000000;stroke-width:0.20357177"
     id="path1350" />
  <path
     d=""
     style="fill:none;stroke:#000000;stroke-width:0.20357177"
     id="path1358" />
  <path
     d=""
     style="fill:none;stroke:#000000;stroke-width:0.20357177"
     id="path1370" />
  <path
     d=""
     style="fill:none;stroke:#000000;stroke-width:0.20357177"
     id="path1384" />
  <path
     d=""
     style="fill:none;stroke:#000000;stroke-width:0.20357177"
     id="path1392" />
  <path
     d=""
     style="fill:none;stroke:#000000;stroke-width:0.20357177"
     id="path1398" />
  <path
     d=""
     style="fill:none;stroke:#000000;stroke-width:0.20357177"
     id="path1410" />
  <path
     d=""
     style="fill:none;stroke:#000000;stroke-width:0.20357177"
     id="path1422" />
  <path
     d=""
     style="fill:none;stroke:#000000;stroke-width:0.20357177"
     id="path1434" />
  <path
     d=""
     style="fill:none;stroke:#000000;stroke-width:0.20357177"
     id="path1442" />
  <path
     d=""
     style="fill:none;stroke:#000000;stroke-width:0.20357177"
     id="path1452" />
  <path
     d=""
     style="fill:none;stroke:#000000;stroke-width:0.20357177"
     id="path1462" />
  <path
     d=""
     style="fill:none;stroke:#000000;stroke-width:0.20357177"
     id="path1470" />
  <path
     d="M 74.96346,16.593542 V 20.86855"
     style="fill:none;stroke:#000000;stroke-width:0.20357177"
     id="path1326" />
  <path
     d="m 77.813465,16.593542 h -0.407144 l -0.407144,0.203572 -0.203571,0.610715 V 20.86855 M 76.18489,18.018545 h 1.425003"
     style="fill:none;stroke:#000000;stroke-width:0.20357177"
     id="path1328" />
  <path
     d="M 84.531334,18.62926 84.12419,18.222117 83.717047,18.018545 h -0.610716 l -0.407143,0.203572 -0.407144,0.407143 -0.203572,0.610715 v 0.407144 l 0.203572,0.610715 0.407144,0.407144 0.407143,0.203572 h 0.610716 l 0.407143,-0.203572 0.407144,-0.407144"
     style="fill:none;stroke:#000000;stroke-width:0.20357177"
     id="path1332" />
  <path
     d="m 88.195626,18.018545 v 2.850005 m 0,-2.23929 -0.407144,-0.407143 -0.407143,-0.203572 h -0.610716 l -0.407143,0.203572 -0.407144,0.407143 -0.203572,0.610715 v 0.407144 l 0.203572,0.610715 0.407144,0.407144 0.407143,0.203572 h 0.610716 l 0.407143,-0.203572 0.407144,-0.407144"
     style="fill:none;stroke:#000000;stroke-width:0.20357177"
     id="path1334" />
  <path
     d="m 89.824199,18.018545 v 2.850005 m 0,-1.628575 0.203572,-0.610715 0.407144,-0.407143 0.407143,-0.203572 h 0.610716"
     style="fill:none;stroke:#000000;stroke-width:0.20357177"
     id="path1336" />
  <path
     d="m 94.709922,16.593542 v 4.275008 m 0,-2.23929 -0.407143,-0.407143 -0.407144,-0.203572 H 93.28492 l -0.407144,0.203572 -0.407143,0.407143 -0.203572,0.610715 v 0.407144 l 0.203572,0.610715 0.407143,0.407144 0.407144,0.203572 h 0.610715 l 0.407144,-0.203572 0.407143,-0.407144"
     style="fill:none;stroke:#000000;stroke-width:0.20357177"
     id="path1338" />
  <path
     d="m 98.374214,18.62926 -0.203572,-0.407143 -0.610715,-0.203572 h -0.610715 l -0.610716,0.203572 -0.203571,0.407143 0.203571,0.407144 0.407144,0.203571 1.017859,0.203572 0.407143,0.203572 0.203572,0.407144 v 0.203571 l -0.203572,0.407144 -0.610715,0.203572 h -0.610715 l -0.610716,-0.203572 -0.203571,-0.407144"
     style="fill:none;stroke:#000000;stroke-width:0.20357177"
     id="path1340" />
  <path
     d="m 105.29566,18.018545 v 2.850005 m 0,-2.23929 -0.40715,-0.407143 -0.40714,-0.203572 h -0.61071 l -0.40715,0.203572 -0.40714,0.407143 -0.20357,0.610715 v 0.407144 l 0.20357,0.610715 0.40714,0.407144 0.40715,0.203572 h 0.61071 l 0.40714,-0.203572 0.40715,-0.407144"
     style="fill:none;stroke:#000000;stroke-width:0.20357177"
     id="path1344" />
  <path
     d="m 106.92423,18.018545 v 2.850005 m 0,-1.628575 0.20357,-0.610715 0.40715,-0.407143 0.40714,-0.203572 h 0.61072"
     style="fill:none;stroke:#000000;stroke-width:0.20357177"
     id="path1346" />
  <path
     d="m 109.36709,19.239975 h 2.44287 v -0.407143 l -0.20358,-0.407144 -0.20357,-0.203571 -0.40714,-0.203572 h -0.61072 l -0.40714,0.203572 -0.40714,0.407143 -0.20358,0.610715 v 0.407144 l 0.20358,0.610715 0.40714,0.407144 0.40714,0.203572 h 0.61072 l 0.40714,-0.203572 0.40715,-0.407144"
     style="fill:none;stroke:#000000;stroke-width:0.20357177"
     id="path1348" />
  <path
     d="m 118.7314,18.018545 v 2.850005 m 0,-2.23929 -0.40715,-0.407143 -0.40714,-0.203572 h -0.61072 l -0.40714,0.203572 -0.40714,0.407143 -0.20358,0.610715 v 0.407144 l 0.20358,0.610715 0.40714,0.407144 0.40714,0.203572 h 0.61072 l 0.40714,-0.203572 0.40715,-0.407144"
     style="fill:none;stroke:#000000;stroke-width:0.20357177"
     id="path1352" />
  <path
     d="M 120.35997,16.593542 V 20.86855"
     style="fill:none;stroke:#000000;stroke-width:0.20357177"
     id="path1354" />
  <path
     d="M 121.98854,16.593542 V 20.86855"
     style="fill:none;stroke:#000000;stroke-width:0.20357177"
     id="path1356" />
  <path
     d="m 129.11356,18.018545 v 3.257148 l -0.20358,0.610716 -0.20357,0.203571 -0.40714,0.203572 h -0.61072 l -0.40714,-0.203572 m 1.83215,-3.46072 -0.40715,-0.407143 -0.40714,-0.203572 h -0.61072 l -0.40714,0.203572 -0.40714,0.407143 -0.20358,0.610715 v 0.407144 l 0.20358,0.610715 0.40714,0.407144 0.40714,0.203572 h 0.61072 l 0.40714,-0.203572 0.40715,-0.407144"
     style="fill:none;stroke:#000000;stroke-width:0.20357177"
     id="path1360" />
  <path
     d="m 131.55642,18.018545 -0.40715,0.203572 -0.40714,0.407143 -0.20357,0.610715 v 0.407144 l 0.20357,0.610715 0.40714,0.407144 0.40715,0.203572 h 0.61071 l 0.40715,-0.203572 0.40714,-0.407144 0.20357,-0.610715 v -0.407144 l -0.20357,-0.610715 -0.40714,-0.407143 -0.40715,-0.203572 h -0.61071"
     style="fill:none;stroke:#000000;stroke-width:0.20357177"
     id="path1362" />
  <path
     d="m 134.60999,18.018545 v 2.850005 m 0,-2.035718 0.61072,-0.610715 0.40714,-0.203572 h 0.61072 l 0.40714,0.203572 0.20357,0.610715 v 2.035718"
     style="fill:none;stroke:#000000;stroke-width:0.20357177"
     id="path1364" />
  <path
     d="m 138.27429,19.239975 h 2.44286 v -0.407143 l -0.20357,-0.407144 -0.20358,-0.203571 -0.40714,-0.203572 h -0.61072 l -0.40714,0.203572 -0.40714,0.407143 -0.20357,0.610715 v 0.407144 l 0.20357,0.610715 0.40714,0.407144 0.40714,0.203572 h 0.61072 l 0.40714,-0.203572 0.40715,-0.407144"
     style="fill:none;stroke:#000000;stroke-width:0.20357177"
     id="path1366" />
  <path
     d="m 142.34572,20.054263 -0.20357,0.203571 -0.20357,-0.203571 0.20357,-0.203572 0.20357,0.203572 v 0.407143 l -0.40714,0.407144"
     style="fill:none;stroke:#000000;stroke-width:0.20357177"
     id="path1368" />
  <path
     d="M 77.214764,27.672393 77.011192,27.26525 76.400477,27.061678 h -0.610715 l -0.610716,0.203572 -0.203572,0.407143 0.203572,0.407144 0.407143,0.203572 1.01786,0.203572 0.407143,0.203571 0.203572,0.407144 v 0.203572 l -0.203572,0.407144 -0.610715,0.203571 h -0.610715 l -0.610716,-0.203571 -0.203572,-0.407144"
     style="fill:none;stroke:#000000;stroke-width:0.20357177"
     id="path1372" />
  <path
     d="m 78.436195,27.061678 0.814287,2.850005 m 0.814287,-2.850005 -0.814287,2.850005 m 0.814287,-2.850005 0.814287,2.850005 m 0.814288,-2.850005 -0.814288,2.850005"
     style="fill:none;stroke:#000000;stroke-width:0.20357177"
     id="path1374" />
  <path
     d="m 82.914774,25.636676 0.203572,0.203571 0.203571,-0.203571 -0.203571,-0.203572 -0.203572,0.203572 m 0.203572,1.425002 v 2.850005"
     style="fill:none;stroke:#000000;stroke-width:0.20357177"
     id="path1376" />
  <path
     d="m 84.950492,25.636676 v 3.46072 l 0.203571,0.610716 0.407144,0.203571 h 0.407144 m -1.628575,-2.850005 h 1.425003"
     style="fill:none;stroke:#000000;stroke-width:0.20357177"
     id="path1378" />
  <path
     d="M 89.42907,27.672393 89.021927,27.26525 88.614784,27.061678 h -0.610716 l -0.407143,0.203572 -0.407144,0.407143 -0.203572,0.610716 v 0.407143 l 0.203572,0.610716 0.407144,0.407144 0.407143,0.203571 h 0.610716 l 0.407143,-0.203571 0.407143,-0.407144"
     style="fill:none;stroke:#000000;stroke-width:0.20357177"
     id="path1380" />
  <path
     d="m 90.854073,25.636676 v 4.275007 m 0,-2.035717 0.610715,-0.610716 0.407144,-0.203572 h 0.610715 l 0.407144,0.203572 0.203571,0.610716 v 2.035717"
     style="fill:none;stroke:#000000;stroke-width:0.20357177"
     id="path1382" />
  <path
     d="m 97.979085,25.636676 v 4.275007 m 0,-2.23929 0.407144,-0.407143 0.407143,-0.203572 h 0.610715 l 0.407144,0.203572 0.407149,0.407143 0.20357,0.610716 v 0.407143 l -0.20357,0.610716 -0.407149,0.407144 -0.407144,0.203571 h -0.610715 l -0.407143,-0.203571 -0.407144,-0.407144"
     style="fill:none;stroke:#000000;stroke-width:0.20357177"
     id="path1386" />
  <path
     d="m 102.66124,27.061678 -0.40714,0.203572 -0.40715,0.407143 -0.20357,0.610716 v 0.407143 l 0.20357,0.610716 0.40715,0.407144 0.40714,0.203571 h 0.61072 l 0.40714,-0.203571 0.40714,-0.407144 0.20357,-0.610716 v -0.407143 l -0.20357,-0.610716 -0.40714,-0.407143 -0.40714,-0.203572 h -0.61072"
     style="fill:none;stroke:#000000;stroke-width:0.20357177"
     id="path1388" />
  <path
     d="m 105.51124,27.061678 2.23929,2.850005 m 0,-2.850005 -2.23929,2.850005"
     style="fill:none;stroke:#000000;stroke-width:0.20357177"
     id="path1390" />
  <path
     d="m 113.24697,27.061678 -0.40714,0.203572 -0.40715,0.407143 -0.20357,0.610716 v 0.407143 l 0.20357,0.610716 0.40715,0.407144 0.40714,0.203571 h 0.61072 l 0.40714,-0.203571 0.40714,-0.407144 0.20357,-0.610716 v -0.407143 l -0.20357,-0.610716 -0.40714,-0.407143 -0.40714,-0.203572 h -0.61072"
     style="fill:none;stroke:#000000;stroke-width:0.20357177"
     id="path1394" />
  <path
     d="m 116.30055,27.061678 v 2.850005 m 0,-2.035717 0.61071,-0.610716 0.40715,-0.203572 h 0.61072 l 0.40714,0.203572 0.20357,0.610716 v 2.035717"
     style="fill:none;stroke:#000000;stroke-width:0.20357177"
     id="path1396" />
  <path
     d="m 123.42556,27.061678 v 2.035718 l 0.20357,0.610716 0.40714,0.203571 h 0.61072 l 0.40714,-0.203571 0.61072,-0.610716 m 0,-2.035718 v 2.850005"
     style="fill:none;stroke:#000000;stroke-width:0.20357177"
     id="path1400" />
  <path
     d="m 127.29343,27.061678 v 2.850005 m 0,-2.035717 0.61071,-0.610716 0.40715,-0.203572 h 0.61071 l 0.40715,0.203572 0.20357,0.610716 v 2.035717"
     style="fill:none;stroke:#000000;stroke-width:0.20357177"
     id="path1402" />
  <path
     d="m 131.36486,25.636676 v 3.46072 l 0.20357,0.610716 0.40715,0.203571 h 0.40714 m -1.62857,-2.850005 h 1.425"
     style="fill:none;stroke:#000000;stroke-width:0.20357177"
     id="path1404" />
  <path
     d="m 133.40058,25.636676 0.20357,0.203571 0.20357,-0.203571 -0.20357,-0.203572 -0.20357,0.203572 m 0.20357,1.425002 v 2.850005"
     style="fill:none;stroke:#000000;stroke-width:0.20357177"
     id="path1406" />
  <path
     d="m 135.23272,25.636676 v 4.275007"
     style="fill:none;stroke:#000000;stroke-width:0.20357177"
     id="path1408" />
  <path
     d="m 74.96346,35.371469 v 4.275008"
     style="fill:none;stroke:#000000;stroke-width:0.20357177"
     id="path1412" />
  <path
     d="m 76.388468,35.371469 0.203569,0.203572 0.203569,-0.203572 -0.203569,-0.203571 -0.203569,0.203571 m 0.203569,1.425003 v 2.850005"
     style="fill:none;stroke:#000000;stroke-width:0.20357177"
     id="path1414" />
  <path
     d="m 80.459898,36.796472 v 3.257149 l -0.203569,0.610715 -0.203577,0.203571 -0.407138,0.203572 h -0.610716 l -0.407146,-0.203572 m 1.832146,-3.46072 -0.407146,-0.407143 -0.407138,-0.203572 h -0.610716 l -0.407146,0.203572 -0.407146,0.407143 -0.203569,0.610715 v 0.407144 l 0.203569,0.610715 0.407146,0.407144 0.407146,0.203572 h 0.610716 l 0.407138,-0.203572 0.407146,-0.407144"
     style="fill:none;stroke:#000000;stroke-width:0.20357177"
     id="path1416" />
  <path
     d="m 82.088467,35.371469 v 4.275008 m 0,-2.035718 0.610715,-0.610715 0.407147,-0.203572 h 0.610715 l 0.407146,0.203572 0.203569,0.610715 v 2.035718"
     style="fill:none;stroke:#000000;stroke-width:0.20357177"
     id="path1418" />
  <path
     d="m 86.159905,35.371469 v 3.460721 l 0.203569,0.610715 0.407147,0.203572 h 0.407146 M 85.54919,36.796472 h 1.425"
     style="fill:none;stroke:#000000;stroke-width:0.20357177"
     id="path1420" />
  <path
     d="m 91.85992,35.371469 v 3.460721 l 0.203569,0.610715 0.407146,0.203572 h 0.407147 m -1.628577,-2.850005 h 1.425"
     style="fill:none;stroke:#000000;stroke-width:0.20357177"
     id="path1424" />
  <path
     d="m 94.099205,36.796472 v 2.035718 l 0.203576,0.610715 0.407139,0.203572 h 0.610715 l 0.407146,-0.203572 0.610716,-0.610715 m 0,-2.035718 v 2.850005"
     style="fill:none;stroke:#000000;stroke-width:0.20357177"
     id="path1426" />
  <path
     d="m 97.967073,36.796472 v 2.850005 m 0,-1.628575 0.20357,-0.610715 0.407146,-0.407143 0.407146,-0.203572 h 0.610715"
     style="fill:none;stroke:#000000;stroke-width:0.20357177"
     id="path1428" />
  <path
     d="m 100.61351,36.796472 v 2.850005 m 0,-2.035718 0.61071,-0.610715 0.40715,-0.203572 h 0.61071 l 0.40715,0.203572 0.20357,0.610715 v 2.035718"
     style="fill:none;stroke:#000000;stroke-width:0.20357177"
     id="path1430" />
  <path
     d="m 106.51709,37.407187 -0.20357,-0.407143 -0.61071,-0.203572 h -0.61072 l -0.61071,0.203572 -0.20358,0.407143 0.20358,0.407144 0.40713,0.203571 1.01787,0.203573 0.40714,0.203571 0.20357,0.407144 v 0.203571 l -0.20357,0.407144 -0.61071,0.203572 h -0.61072 l -0.61071,-0.203572 -0.20358,-0.407144"
     style="fill:none;stroke:#000000;stroke-width:0.20357177"
     id="path1432" />
  <path
     d="m 112.01353,36.796472 -0.40715,0.203572 -0.40714,0.407143 -0.20357,0.610715 v 0.407144 l 0.20357,0.610715 0.40714,0.407144 0.40715,0.203572 h 0.61071 l 0.40714,-0.203572 0.40715,-0.407144 0.20357,-0.610715 v -0.407144 l -0.20357,-0.610715 -0.40715,-0.407143 -0.40714,-0.203572 h -0.61071"
     style="fill:none;stroke:#000000;stroke-width:0.20357177"
     id="path1436" />
  <path
     d="m 115.0671,36.796472 v 2.850005 m 0,-2.035718 0.61071,-0.610715 0.40715,-0.203572 h 0.61071 l 0.40715,0.203572 0.20357,0.610715 v 2.035718"
     style="fill:none;stroke:#000000;stroke-width:0.20357177"
     id="path1438" />
  <path
     d="m 118.93497,38.628618 -0.20357,0.203572 0.20357,0.203571 0.20356,-0.203571 -0.20356,-0.203572"
     style="fill:none;stroke:#000000;stroke-width:0.20357177"
     id="path1440" />
  <path
     d="m 76.286674,48.704804 v 4.275008 m -1.425,-4.275008 h 2.85"
     style="fill:none;stroke:#000000;stroke-width:0.20357177"
     id="path1444" />
  <path
     d="m 78.729534,48.704804 v 4.275008 m 0,-2.035718 0.61072,-0.610715 0.40715,-0.203572 h 0.61071 l 0.40715,0.203572 0.20357,0.610715 v 2.035718"
     style="fill:none;stroke:#000000;stroke-width:0.20357177"
     id="path1446" />
  <path
     d="m 82.393834,51.351237 h 2.44286 v -0.407143 l -0.20357,-0.407144 -0.20358,-0.203571 -0.40714,-0.203572 h -0.61071 l -0.40715,0.203572 -0.40714,0.407143 -0.20357,0.610715 v 0.407144 l 0.20357,0.610715 0.40714,0.407144 0.40715,0.203572 h 0.61071 l 0.40714,-0.203572 0.40715,-0.407144"
     style="fill:none;stroke:#000000;stroke-width:0.20357177"
     id="path1448" />
  <path
     d="m 86.261694,50.129807 v 2.850005 m 0,-2.035718 0.61071,-0.610715 0.40715,-0.203572 h 0.61071 l 0.40715,0.203572 0.20357,0.610715 v 2.035718"
     style="fill:none;stroke:#000000;stroke-width:0.20357177"
     id="path1450" />
  <path
     d="m 93.590284,48.704804 v 3.460721 l 0.20357,0.610715 0.40714,0.203572 h 0.40715 m -1.62858,-2.850005 h 1.425"
     style="fill:none;stroke:#000000;stroke-width:0.20357177"
     id="path1454" />
  <path
     d="m 95.829564,50.129807 v 2.035718 l 0.20358,0.610715 0.40714,0.203572 h 0.61071 l 0.40715,-0.203572 0.61072,-0.610715 m 0,-2.035718 v 2.850005"
     style="fill:none;stroke:#000000;stroke-width:0.20357177"
     id="path1456" />
  <path
     d="m 99.697434,50.129807 v 2.850005 m 0,-1.628575 0.20357,-0.610715 0.407146,-0.407143 0.40714,-0.203572 h 0.61072"
     style="fill:none;stroke:#000000;stroke-width:0.20357177"
     id="path1458" />
  <path
     d="m 102.34386,50.129807 v 2.850005 m 0,-2.035718 0.61072,-0.610715 0.40714,-0.203572 h 0.61072 l 0.40715,0.203572 0.20356,0.610715 v 2.035718"
     style="fill:none;stroke:#000000;stroke-width:0.20357177"
     id="path1460" />
  <path
     d="m 109.46888,48.704804 v 4.275008 m 0,-2.23929 0.40714,-0.407143 0.40714,-0.203572 h 0.61072 l 0.40714,0.203572 0.40715,0.407143 0.20357,0.610715 v 0.407144 l -0.20357,0.610715 -0.40715,0.407144 -0.40714,0.203572 h -0.61072 l -0.40714,-0.203572 -0.40714,-0.407144"
     style="fill:none;stroke:#000000;stroke-width:0.20357177"
     id="path1464" />
  <path
     d="m 114.15103,50.129807 -0.40715,0.203572 -0.40714,0.407143 -0.20357,0.610715 v 0.407144 l 0.20357,0.610715 0.40714,0.407144 0.40715,0.203572 h 0.61072 l 0.40713,-0.203572 0.40715,-0.407144 0.20357,-0.610715 v -0.407144 l -0.20357,-0.610715 -0.40715,-0.407143 -0.40713,-0.203572 h -0.61072"
     style="fill:none;stroke:#000000;stroke-width:0.20357177"
     id="path1466" />
  <path
     d="m 117.00103,50.129807 2.23929,2.850005 m 0,-2.850005 -2.23929,2.850005"
     style="fill:none;stroke:#000000;stroke-width:0.20357177"
     id="path1468" />
  <path
     d="m 124.73676,50.129807 -0.40715,0.203572 -0.40714,0.407143 -0.20357,0.610715 v 0.407144 l 0.20357,0.610715 0.40714,0.407144 0.40715,0.203572 h 0.61072 l 0.40713,-0.203572 0.40715,-0.407144 0.20357,-0.610715 v -0.407144 l -0.20357,-0.610715 -0.40715,-0.407143 -0.40713,-0.203572 h -0.61072"
     style="fill:none;stroke:#000000;stroke-width:0.20357177"
     id="path1472" />
  <path
     d="m 129.01177,48.704804 h -0.40715 l -0.40714,0.203572 -0.20357,0.610715 v 3.460721 m -0.61072,-2.850005 h 1.425"
     style="fill:none;stroke:#000000;stroke-width:0.20357177"
     id="path1474" />
  <path
     d="m 131.45463,48.704804 h -0.40715 l -0.40714,0.203572 -0.20357,0.610715 v 3.460721 m -0.61072,-2.850005 h 1.425"
     style="fill:none;stroke:#000000;stroke-width:0.20357177"
     id="path1476" />
  <path
     d="m 132.67606,51.961953 -0.20357,0.203572 0.20357,0.203571 0.20357,-0.203571 -0.20357,-0.203572"
     style="fill:none;stroke:#000000;stroke-width:0.20357177"
     id="path1478" />
  <path
     style="fill:none;stroke:#000000;stroke-width:0.26458332px;stroke-linecap:butt;stroke-linejoin:miter;stroke-opacity:1"
     d="m 109.41101,79.489765 h 26.89962 m 5.45484,-1.019383 c 2.27013,-1.313722 3.79101,-3.767344 3.79101,-6.589251 V 19.613124 c 0,-4.215183 -3.39345,-7.608634 -7.60863,-7.608634 H 79.394436 c -4.215183,0 -7.608634,3.393451 -7.608634,7.608634 l 0.01004,41.898916 -11.919198,7.06099 11.921921,0.01173 -0.01276,3.29637 c 0,4.215183 3.393451,7.608634 7.608634,7.608634 h 21.448241"
     id="path6043" />
  <path
     d="m 136.66666,74.385965 11.75439,10.994152 m 0,0 -11.75439,10.994152 m 0,0 v -7.836257"
     style="fill:none;stroke:#000000;stroke-width:0.26458332px;stroke-linecap:butt;stroke-linejoin:miter;stroke-opacity:1"
     id="path6045" />
  <path
     id="path6060"
     style="fill:none;stroke:#000000;stroke-width:0.26458332px;stroke-linecap:butt;stroke-linejoin:miter;stroke-opacity:1"
     d="M 148.42105,85.380117 136.66666,74.385965 v 6.723182 l -21.34502,0.11696 c -11.53488,0.116514 -14.0909,-11.187121 -14.27002,-23.841605 -0.17912,13.193469 -3.556616,31.620012 14.27002,31.27047 l 21.34502,-0.11696 m 11.75439,-3.157895 -11.75439,10.994152 m 0,0 v -7.836257" />
  <path
     style="fill:none;fill-opacity:1;stroke:#000000;stroke-width:0.01369228;stroke-miterlimit:4;stroke-dasharray:none;stroke-opacity:1"
     d="m 0.99315396,99.500008 a 0.4931539,0.4931539 0 0 1 -0.4931539,0.493154 0.4931539,0.4931539 0 0 1 -0.4931539,-0.493154 0.4931539,0.4931539 0 0 1 0.4931539,-0.493154 0.4931539,0.4931539 0 0 1 0.4931539,0.493154 z"
     id="path913" />
  <path
     id="path916"
     d="m 149.99317,0.49999994 a 0.4931539,0.4931539 0 0 1 -0.49316,0.493154 0.4931539,0.4931539 0 0 1 -0.49315,-0.493154 0.4931539,0.4931539 0 0 1 0.49315,-0.493154 0.4931539,0.4931539 0 0 1 0.49316,0.493154 z"
     style="fill:none;fill-opacity:1;stroke:#000000;stroke-width:0.01369228;stroke-miterlimit:4;stroke-dasharray:none;stroke-opacity:1"
     inkscape:connector-curvature="0" />
</svg>
