<?xml version="1.0" encoding="UTF-8" standalone="no"?>
<svg
   xmlns:dc="http://purl.org/dc/elements/1.1/"
   xmlns:cc="http://creativecommons.org/ns#"
   xmlns:rdf="http://www.w3.org/1999/02/22-rdf-syntax-ns#"
   xmlns:svg="http://www.w3.org/2000/svg"
   xmlns="http://www.w3.org/2000/svg"
   xmlns:sodipodi="http://sodipodi.sourceforge.net/DTD/sodipodi-0.dtd"
   xmlns:inkscape="http://www.inkscape.org/namespaces/inkscape"
   style="enable-background:new"
   version="1.1"
   id="svg2"
   viewBox="0 0 2048.0315 311.81102"
   height="88mm"
   width="578mm"
   inkscape:version="0.91 r13725"
   sodipodi:docname="Cut2.svg">
  <sodipodi:namedview
     pagecolor="#ffffff"
     bordercolor="#666666"
     borderopacity="1"
     objecttolerance="10"
     gridtolerance="10"
     guidetolerance="10"
     inkscape:pageopacity="0"
     inkscape:pageshadow="2"
     inkscape:window-width="1366"
     inkscape:window-height="744"
     id="namedview29"
     showgrid="false"
     inkscape:zoom="13.357483"
     inkscape:cx="1754.2866"
     inkscape:cy="238.42837"
     inkscape:window-x="0"
     inkscape:window-y="1"
     inkscape:window-maximized="1"
     inkscape:current-layer="svg2" />
  <defs
     id="defs4" />
  <metadata
     id="metadata7">
    <rdf:RDF>
      <cc:Work
         rdf:about="">
        <dc:format>image/svg+xml</dc:format>
        <dc:type
           rdf:resource="http://purl.org/dc/dcmitype/StillImage" />
        <dc:title></dc:title>
      </cc:Work>
    </rdf:RDF>
  </metadata>
  <g
     transform="translate(0,-740.55118)"
     id="layer1" />
  <g
     transform="translate(0,10.629916)"
     id="layer2">
    <path
       id="rect4874-6"
       d="m 470.43413,-6.90931 c 22.02214,0 39.75197,17.76139 39.75197,39.82272 l 0,221.00266 c 0,22.0613 -17.72983,39.8207 -39.75197,39.8207 l -155.26427,0.18 c -5.62581,0 -4.80478,-6.4314 -5.85389,-10.748 -0.79217,-3.2594 -2.69624,-6.0556 -6.04492,-6.0556 l -4.80187,0 c -3.34869,0 -7.52296,2.701 -7.52296,6.0556 -1.47803,8.6923 -2.44612,10.7198 -11.65826,10.6876 -13.88786,0.1703 -16.63804,-7.0372 -16.63804,-18.939 0,-11.3251 8.22232,-11.2589 12.25558,-11.2589 3.37546,-0.1956 6.04492,-2.701 6.04492,-6.0557 l 0,-5.6889 c 0,-3.3547 -2.00858,-5.7802 -6.04492,-6.0557 0,0 -12.39543,-0.1391 -12.39543,-5.15989 l -0.088,-72.32739 c 0,0 -1.29022,-18.33445 10.86943,-21.59262 12.15965,-3.25817 11.6468,-20.17284 11.6468,-20.17284 l 0,-119.29645 c -0.13714,-8.57026 2.13906,-13.92879 17.79476,-14.1926 z"
       style="fill:none;fill-opacity:0.2961877;stroke:#000000;stroke-width:0.35544944;stroke-linecap:round;stroke-linejoin:round;stroke-miterlimit:4;stroke-dasharray:none;stroke-opacity:1" />
    <path
       id="path4163-5"
       d="m 476.69948,44.95634 c 0,-5.98858 4.84608,-10.84329 10.82403,-10.84329 5.97794,0 10.82402,4.85471 10.82403,10.84329 0,3.32509 -1.49399,6.30061 -3.8462,8.28967 -0.39035,0.33916 -0.53193,0.36277 -0.94715,0.37196 -4.67312,-0.007 -8.19746,-0.10799 -12.02989,-0.11906 -0.62645,0 -0.6425,-0.012 -1.02253,-0.29023 -2.32688,-1.98885 -3.8023,-4.94799 -3.80229,-8.25234 z"
       style="fill:none;fill-opacity:0.2961877;stroke:#000000;stroke-width:0.35544944;stroke-linecap:round;stroke-linejoin:round;stroke-miterlimit:4;stroke-dasharray:none;stroke-opacity:1" />
    <path
       style="display:inline;opacity:1;fill:none;fill-opacity:0.2961877;stroke:#000000;stroke-width:0.35433072;stroke-linecap:round;stroke-linejoin:round;stroke-miterlimit:4;stroke-dasharray:none;stroke-opacity:1"
       d="m 30.08127,186.09933 c 0,0 0.51285,-16.91467 -11.6468,-20.17284 C 6.2748195,162.66832 7.4333795,142.91034 7.4333795,142.91034 l 0.005,-4.38295 0.51857,-105.613382 c 0,-22.06133 17.7298405,-39.8227203 39.7519805,-39.8227203 l 167.33905,0 c 22.02214,0 39.75198,17.7613903 39.75198,39.8227203 l 0,221.002622 c 0,22.0613 -17.72984,39.8207 -39.75198,39.8207 l -155.26426,0.18 c -5.62581,0 -4.80478,-6.4314 -5.85389,-10.748 -0.79217,-3.2594 -2.69624,-6.0556 -6.04492,-6.0556 l -4.80187,0 c -3.34869,0 -7.52296,2.701 -7.52296,6.0556 -1.47803,8.6923 -2.44612,10.7198 -11.65826,10.6876 -13.88786,0.1703 -16.6380405,-7.0372 -16.6380405,-18.939 0,-11.3251 8.2223205,-11.2589 12.2555805,-11.2589 3.37546,-0.1956 10.5655,-2.701 10.56377,-6.0882 z"
       id="path4139-3-3" />
    <path
       style="fill:none;fill-opacity:0.2961877;stroke:#000000;stroke-width:0.35544944;stroke-linecap:round;stroke-linejoin:round;stroke-miterlimit:4;stroke-dasharray:none;stroke-opacity:1"
       d="m 980.6703,-6.90931 c 22.0221,0 39.752,17.76139 39.752,39.82272 l 0,221.00266 c 0,22.0613 -17.7299,39.8207 -39.752,39.8207 l -155.26427,0.18 c -5.62581,0 -4.80478,-6.4314 -5.85389,-10.748 -0.79217,-3.2594 -2.69624,-6.0556 -6.04492,-6.0556 l -4.80187,0 c -3.34869,0 -7.52296,2.701 -7.52296,6.0556 -1.47803,8.6923 -2.44612,10.7198 -11.65826,10.6876 -13.88786,0.1703 -16.63804,-7.0372 -16.63804,-18.939 0,-11.3251 8.22232,-11.2589 12.25558,-11.2589 3.37546,-0.1956 6.04492,-2.701 6.04492,-6.0557 l 0,-5.6889 c 0,-3.3547 -2.00858,-5.7802 -6.04492,-6.0557 0,0 -12.39543,-0.1391 -12.39543,-5.15989 l -0.088,-72.32739 c 0,0 -1.29022,-18.33445 10.86943,-21.59262 12.15965,-3.25817 11.6468,-20.17284 11.6468,-20.17284 l 0,-119.29645 c -0.13714,-8.57026 2.13906,-13.92879 17.79476,-14.1926 z"
       id="path32151" />
    <path
       style="fill:none;fill-opacity:0.2961877;stroke:#000000;stroke-width:0.35544944;stroke-linecap:round;stroke-linejoin:round;stroke-miterlimit:4;stroke-dasharray:none;stroke-opacity:1"
       d="m 986.93565,44.95634 c 0,-5.98858 4.84608,-10.84329 10.82403,-10.84329 5.97792,0 10.82402,4.85471 10.82402,10.84329 0,3.32509 -1.494,6.30061 -3.8462,8.28967 -0.3903,0.33916 -0.5319,0.36277 -0.9471,0.37196 -4.67316,-0.007 -8.1975,-0.10799 -12.02993,-0.11906 -0.62645,0 -0.6425,-0.012 -1.02253,-0.29023 -2.32688,-1.98885 -3.8023,-4.94799 -3.80229,-8.25234 z"
       id="path32155" />
    <path
       id="path32815"
       d="m 540.31749,186.09933 c 0,0 0.51285,-16.91467 -11.6468,-20.17284 -12.15965,-3.25817 -11.00109,-23.01615 -11.00109,-23.01615 l 0.005,-4.38295 0.51857,-105.613382 c 0,-22.06133 17.72984,-39.8227203 39.75198,-39.8227203 l 167.33905,0 c 22.02214,0 39.75198,17.7613903 39.75198,39.8227203 l 0,221.002622 c 0,22.0613 -17.72984,39.8207 -39.75198,39.8207 l -155.26426,0.18 c -5.62581,0 -4.80478,-6.4314 -5.85389,-10.748 -0.79217,-3.2594 -2.69624,-6.0556 -6.04492,-6.0556 l -4.80187,0 c -3.34869,0 -7.52296,2.701 -7.52296,6.0556 -1.47803,8.6923 -2.44612,10.7198 -11.65826,10.6876 -13.88786,0.1703 -16.63804,-7.0372 -16.63804,-18.939 0,-11.3251 8.22232,-11.2589 12.25558,-11.2589 3.37546,-0.1956 10.5655,-2.701 10.56377,-6.0882 z"
       style="display:inline;opacity:1;fill:none;fill-opacity:0.2961877;stroke:#000000;stroke-width:0.35433072;stroke-linecap:round;stroke-linejoin:round;stroke-miterlimit:4;stroke-dasharray:none;stroke-opacity:1" />
    <path
       style="fill:none;fill-opacity:0.2961877;stroke:#000000;stroke-width:0.35544944;stroke-linecap:round;stroke-linejoin:round;stroke-miterlimit:4;stroke-dasharray:none;stroke-opacity:1"
       d="m 1490.9065,-6.90931 c 22.0221,0 39.752,17.76139 39.752,39.82272 l 0,221.00266 c 0,22.0613 -17.7299,39.8207 -39.752,39.8207 l -155.2643,0.18 c -5.6258,0 -4.8047,-6.4314 -5.8539,-10.748 -0.7921,-3.2594 -2.6962,-6.0556 -6.0449,-6.0556 l -4.8018,0 c -3.3487,0 -7.523,2.701 -7.523,6.0556 -1.478,8.6923 -2.4461,10.7198 -11.6583,10.6876 -13.8878,0.1703 -16.638,-7.0372 -16.638,-18.939 0,-11.3251 8.2223,-11.2589 12.2556,-11.2589 3.3754,-0.1956 6.0449,-2.701 6.0449,-6.0557 l 0,-5.6889 c 0,-3.3547 -2.0086,-5.7802 -6.0449,-6.0557 0,0 -12.3955,-0.1391 -12.3955,-5.15989 l -0.088,-72.32739 c 0,0 -1.2902,-18.33445 10.8695,-21.59262 12.1596,-3.25817 11.6468,-20.17284 11.6468,-20.17284 l 0,-119.29645 c -0.1372,-8.57026 2.139,-13.92879 17.7947,-14.1926 z"
       id="path36347" />
    <path
       style="fill:none;fill-opacity:0.2961877;stroke:#000000;stroke-width:0.35544944;stroke-linecap:round;stroke-linejoin:round;stroke-miterlimit:4;stroke-dasharray:none;stroke-opacity:1"
       d="m 1497.1718,44.95634 c 10e-5,-5.98858 4.8461,-10.84329 10.8241,-10.84329 5.9779,0 10.824,4.85471 10.824,10.84329 0,3.32509 -1.494,6.30061 -3.8462,8.28967 -0.3903,0.33916 -0.5319,0.36277 -0.9471,0.37196 -4.6732,-0.007 -8.1975,-0.10799 -12.0299,-0.11906 -0.6265,0 -0.6425,-0.012 -1.0226,-0.29023 -2.3268,-1.98885 -3.8023,-4.94799 -3.8023,-8.25234 z"
       id="path36351" />
    <path
       id="path37011"
       d="m 1050.5537,186.09933 c 0,0 0.5128,-16.91467 -11.6468,-20.17284 -12.1597,-3.25817 -11.0011,-23.01615 -11.0011,-23.01615 l 0.01,-4.38295 0.5186,-105.613382 c 0,-22.06133 17.7298,-39.8227203 39.7519,-39.8227203 l 167.3391,0 c 22.0221,0 39.752,17.7613903 39.752,39.8227203 l 0,221.002622 c 0,22.0613 -17.7299,39.8207 -39.752,39.8207 l -155.2643,0.18 c -5.6258,0 -4.8048,-6.4314 -5.8539,-10.748 -0.7921,-3.2594 -2.6962,-6.0556 -6.0449,-6.0556 l -4.8019,0 c -3.3486,0 -7.5229,2.701 -7.5229,6.0556 -1.478,8.6923 -2.4461,10.7198 -11.6583,10.6876 -13.8878,0.1703 -16.638,-7.0372 -16.638,-18.939 0,-11.3251 8.2223,-11.2589 12.2556,-11.2589 3.3754,-0.1956 10.5655,-2.701 10.5637,-6.0882 z"
       style="display:inline;opacity:1;fill:none;fill-opacity:0.2961877;stroke:#000000;stroke-width:0.35433072;stroke-linecap:round;stroke-linejoin:round;stroke-miterlimit:4;stroke-dasharray:none;stroke-opacity:1" />
    <path
       id="path40543"
       d="m 2001.1428,-6.90931 c 22.0221,0 39.752,17.76139 39.752,39.82272 l 0,221.00266 c 0,22.0613 -17.7299,39.8207 -39.752,39.8207 l -155.2643,0.18 c -5.6258,0 -4.8047,-6.4314 -5.8539,-10.748 -0.7921,-3.2594 -2.6962,-6.0556 -6.0449,-6.0556 l -4.8018,0 c -3.3487,0 -7.523,2.701 -7.523,6.0556 -1.478,8.6923 -2.4461,10.7198 -11.6583,10.6876 -13.8878,0.1703 -16.638,-7.0372 -16.638,-18.939 0,-11.3251 8.2223,-11.2589 12.2556,-11.2589 3.3754,-0.1956 6.0449,-2.701 6.0449,-6.0557 l 0,-5.6889 c 0,-3.3547 -2.0086,-5.7802 -6.0449,-6.0557 0,0 -12.3955,-0.1391 -12.3955,-5.15989 l -0.088,-72.32739 c 0,0 -1.2902,-18.33445 10.8695,-21.59262 12.1596,-3.25817 11.6468,-20.17284 11.6468,-20.17284 l 0,-119.29645 c -0.1372,-8.57026 2.139,-13.92879 17.7947,-14.1926 z"
       style="fill:none;fill-opacity:0.2961877;stroke:#000000;stroke-width:0.35544944;stroke-linecap:round;stroke-linejoin:round;stroke-miterlimit:4;stroke-dasharray:none;stroke-opacity:1" />
    <path
       id="path40547"
       d="m 2007.4081,44.95634 c 10e-5,-5.98858 4.8461,-10.84329 10.8241,-10.84329 5.9779,0 10.824,4.85471 10.824,10.84329 0,3.32509 -1.494,6.30061 -3.8462,8.28967 -0.3903,0.33916 -0.5319,0.36277 -0.9471,0.37196 -4.6732,-0.007 -8.1975,-0.10799 -12.0299,-0.11906 -0.6265,0 -0.6425,-0.012 -1.0226,-0.29023 -2.3268,-1.98885 -3.8023,-4.94799 -3.8023,-8.25234 z"
       style="fill:none;fill-opacity:0.2961877;stroke:#000000;stroke-width:0.35544944;stroke-linecap:round;stroke-linejoin:round;stroke-miterlimit:4;stroke-dasharray:none;stroke-opacity:1" />
    <path
       style="display:inline;opacity:1;fill:none;fill-opacity:0.2961877;stroke:#000000;stroke-width:0.35433072;stroke-linecap:round;stroke-linejoin:round;stroke-miterlimit:4;stroke-dasharray:none;stroke-opacity:1"
       d="m 1560.79,186.09933 c 0,0 0.5128,-16.91467 -11.6468,-20.17284 -12.1597,-3.25817 -11.0011,-23.01615 -11.0011,-23.01615 l 0,-4.38295 0.5186,-105.613382 c 0,-22.06133 17.7298,-39.8227203 39.7519,-39.8227203 l 167.3391,0 c 22.0221,0 39.752,17.7613903 39.752,39.8227203 l 0,221.002622 c 0,22.0613 -17.7299,39.8207 -39.752,39.8207 l -155.2643,0.18 c -5.6258,0 -4.8048,-6.4314 -5.8539,-10.748 -0.7921,-3.2594 -2.6962,-6.0556 -6.0449,-6.0556 l -4.8019,0 c -3.3486,0 -7.5229,2.701 -7.5229,6.0556 -1.478,8.6923 -2.4461,10.7198 -11.6583,10.6876 -13.8878,0.1703 -16.638,-7.0372 -16.638,-18.939 0,-11.3251 8.2223,-11.2589 12.2556,-11.2589 3.3754,-0.1956 10.5655,-2.701 10.5637,-6.0882 z"
       id="path41207" />
    <path
       id="path4182"
       d="m 3.4881613,299.40945 a 1.7165078,1.7165078 0 0 1 -1.7165078,1.71651 1.7165078,1.7165078 0 0 1 -1.71650776,-1.71651 1.7165078,1.7165078 0 0 1 1.71650776,-1.7165 1.7165078,1.7165078 0 0 1 1.7165078,1.7165 z"
       style="opacity:0.75400002;fill:none;fill-opacity:1;stroke:#000000;stroke-width:0.11029146;stroke-linecap:round;stroke-linejoin:round;stroke-miterlimit:4;stroke-dasharray:none;stroke-opacity:1" />
    <path
       id="circle4184"
       d="m 2047.9764,-8.8582621 a 1.7165078,1.7165078 0 0 1 -1.7165,1.7165078 1.7165078,1.7165078 0 0 1 -1.7165,-1.7165078 1.7165078,1.7165078 0 0 1 1.7165,-1.7165079 1.7165078,1.7165078 0 0 1 1.7165,1.7165079 z"
       style="opacity:0.75400002;fill:none;fill-opacity:1;stroke:#000000;stroke-width:0.11029146;stroke-linecap:round;stroke-linejoin:round;stroke-miterlimit:4;stroke-dasharray:none;stroke-opacity:1" />
    <path
       style="fill:none;fill-opacity:0.2961877;stroke:#000000;stroke-width:0.35544944;stroke-linecap:round;stroke-linejoin:round;stroke-miterlimit:4;stroke-dasharray:none;stroke-opacity:1"
       d="m 221.10398,44.95634 c 0,-5.98858 4.84608,-10.84329 10.82403,-10.84329 5.97794,0 10.82402,4.85471 10.82403,10.84329 0,3.32509 -1.49399,6.30061 -3.8462,8.28967 -0.39035,0.33916 -0.53193,0.36277 -0.94715,0.37196 -4.67312,-0.007 -8.19746,-0.10799 -12.02989,-0.11906 -0.62645,0 -0.6425,-0.012 -1.02253,-0.29023 -2.32688,-1.98885 -3.8023,-4.94799 -3.80229,-8.25234 z"
       id="path8089"
       inkscape:connector-curvature="0" />
    <path
       id="path8091"
       d="m 731.34015,44.95634 c 0,-5.98858 4.84608,-10.84329 10.82403,-10.84329 5.97792,0 10.82402,4.85471 10.82402,10.84329 0,3.32509 -1.494,6.30061 -3.8462,8.28967 -0.3903,0.33916 -0.5319,0.36277 -0.9471,0.37196 -4.67316,-0.007 -8.1975,-0.10799 -12.02993,-0.11906 -0.62645,0 -0.6425,-0.012 -1.02253,-0.29023 -2.32688,-1.98885 -3.8023,-4.94799 -3.80229,-8.25234 z"
       style="fill:none;fill-opacity:0.2961877;stroke:#000000;stroke-width:0.35544944;stroke-linecap:round;stroke-linejoin:round;stroke-miterlimit:4;stroke-dasharray:none;stroke-opacity:1"
       inkscape:connector-curvature="0" />
    <path
       id="path8093"
       d="m 1241.5763,44.95634 c 10e-5,-5.98858 4.8461,-10.84329 10.8241,-10.84329 5.9779,0 10.824,4.85471 10.824,10.84329 0,3.32509 -1.494,6.30061 -3.8462,8.28967 -0.3903,0.33916 -0.5319,0.36277 -0.9471,0.37196 -4.6732,-0.007 -8.1975,-0.10799 -12.0299,-0.11906 -0.6265,0 -0.6425,-0.012 -1.0226,-0.29023 -2.3268,-1.98885 -3.8023,-4.94799 -3.8023,-8.25234 z"
       style="fill:none;fill-opacity:0.2961877;stroke:#000000;stroke-width:0.35544944;stroke-linecap:round;stroke-linejoin:round;stroke-miterlimit:4;stroke-dasharray:none;stroke-opacity:1"
       inkscape:connector-curvature="0" />
    <path
       style="fill:none;fill-opacity:0.2961877;stroke:#000000;stroke-width:0.35544944;stroke-linecap:round;stroke-linejoin:round;stroke-miterlimit:4;stroke-dasharray:none;stroke-opacity:1"
       d="m 1751.8126,44.95634 c 10e-5,-5.98858 4.8461,-10.84329 10.8241,-10.84329 5.9779,0 10.824,4.85471 10.824,10.84329 0,3.32509 -1.494,6.30061 -3.8462,8.28967 -0.3903,0.33916 -0.5319,0.36277 -0.9471,0.37196 -4.6732,-0.007 -8.1975,-0.10799 -12.0299,-0.11906 -0.6265,0 -0.6425,-0.012 -1.0226,-0.29023 -2.3268,-1.98885 -3.8023,-4.94799 -3.8023,-8.25234 z"
       id="path8095"
       inkscape:connector-curvature="0" />
  </g>
</svg>
