<?xml version="1.0" encoding="UTF-8" standalone="no"?>
<!-- Created with Inkscape (http://www.inkscape.org/) -->

<svg
   xmlns:dc="http://purl.org/dc/elements/1.1/"
   xmlns:cc="http://creativecommons.org/ns#"
   xmlns:rdf="http://www.w3.org/1999/02/22-rdf-syntax-ns#"
   xmlns:svg="http://www.w3.org/2000/svg"
   xmlns="http://www.w3.org/2000/svg"
   xmlns:sodipodi="http://sodipodi.sourceforge.net/DTD/sodipodi-0.dtd"
   xmlns:inkscape="http://www.inkscape.org/namespaces/inkscape"
   sodipodi:docname="Side6.svg"
   inkscape:version="0.92.3 (2405546, 2018-03-11)"
   version="1.1"
   id="svg2"
   viewBox="0 0 248.03151 248.03149"
   height="70mm"
   width="70mm"
   enable-background="new">
  <sodipodi:namedview
     inkscape:window-maximized="0"
     inkscape:window-y="1"
     inkscape:window-x="683"
     inkscape:window-height="737"
     inkscape:window-width="681"
     borderlayer="true"
     showgrid="false"
     inkscape:current-layer="layer1"
     inkscape:document-units="mm"
     inkscape:cy="212.66449"
     inkscape:cx="-3.9792978"
     inkscape:zoom="2.8284271"
     inkscape:pageshadow="2"
     inkscape:pageopacity="0"
     borderopacity="1.0"
     bordercolor="#666666"
     pagecolor="#585858"
     id="base"
     showguides="true"
     inkscape:object-paths="false"
     inkscape:snap-intersection-paths="false"
     inkscape:guide-bbox="true"
     inkscape:snap-global="false" />
  <defs
     id="defs4">
    <filter
       id="filter4811"
       style="color-interpolation-filters:sRGB"
       inkscape:collect="always">
      <feBlend
         id="feBlend4813"
         in2="BackgroundImage"
         mode="overlay"
         inkscape:collect="always" />
    </filter>
  </defs>
  <metadata
     id="metadata7">
    <rdf:RDF>
      <cc:Work
         rdf:about="">
        <dc:format>image/svg+xml</dc:format>
        <dc:type
           rdf:resource="http://purl.org/dc/dcmitype/StillImage" />
        <dc:title />
      </cc:Work>
    </rdf:RDF>
  </metadata>
  <g
     style="opacity:1;filter:url(#filter4811)"
     transform="translate(0,-804.33071)"
     id="layer1"
     inkscape:groupmode="layer"
     inkscape:label="Cutout">
    <g
       transform="matrix(-1,0,0,1,247.80365,3.8671876)"
       id="g896" />
    <g
       id="g4850">
      <g
         id="g4817">
        <path
           sodipodi:nodetypes="cscccccc"
           inkscape:connector-curvature="0"
           id="path4210"
           d="m 224.81061,821.82654 c 3.72723,0 10.96536,2.79492 10.96536,27.42629 v 1.93184 c 0,4.65377 -0.12506,4.93242 -1.85064,6.25575 -4.741,2.73721 -18.07115,-3.70535 -18.07115,-12.73734 l 0.10123,-19.35985 c 0,0 -0.20085,-3.5031 3.85125,-3.51665 z"
           style="fill:none;fill-rule:evenodd;stroke:#000000;stroke-width:0.32609031;stroke-linecap:butt;stroke-linejoin:miter;stroke-miterlimit:4;stroke-dasharray:none;stroke-opacity:1" />
        <path
           sodipodi:nodetypes="ccssccccsssccsssssaac"
           inkscape:connector-curvature="0"
           id="path4818"
           d="m 0.17760343,1001.5263 0.005011,4.2852 c 0.2312384,5.0599 16.74898957,4.0315 16.74898957,11.1333 0,8.0577 -16.51802176,7.7055 -16.51802176,15.1166 0,14.4563 3.47304566,19.4286 20.13910676,19.6811 7.173341,0 4.860857,-20.1495 13.632903,-19.317 8.988574,1.1311 6.273522,16.6931 9.181901,19.7574 h 1.053049 167.697378 c 19.67233,0 35.50818,-15.8379 35.50818,-35.5102 V 840.01657 c 0,-19.67232 -15.83585,-35.51014 -35.50818,-35.51014 l -176.658101,-0.002 c -6.603613,0 -18.041305,0.0825 -18.039371,9.3776 l 0.02115,101.57849 c 9.92e-4,4.74699 -3.821617,9.41084 -8.5686579,9.41084 -4.7470315,0 -8.56864843,4.52936 -8.56864843,8.56867 0,12.41857 2.005e-5,15.02829 2.005e-5,25.46178 0,9.18249 11.88499628,8.77922 14.54990028,15.29076 0.321102,0.78449 0.259298,1.72351 0.04159,2.54288 -2.467889,9.28792 -14.38447309,7.9342 -14.71828257,24.79085"
           style="fill:none;stroke:#000000;stroke-width:0.35509607;stroke-linejoin:round;stroke-miterlimit:4;stroke-dasharray:none;stroke-opacity:1" />
        <path
           style="fill:none;stroke:#000000;stroke-width:0.34737363;stroke-linejoin:round;stroke-miterlimit:4;stroke-dasharray:none;stroke-opacity:1"
           d="m 25.266026,817.56998 c -0.0017,-6.92884 7.50771,-7.00934 10.721225,-7.00934 l 177.527909,0.002 c 12.05159,0 27.62181,13.48847 27.62181,29.32708 l 0,161.07378 c 0,19.2445 -4.23696,25.6478 -23.48147,25.6478 H 50.213216 c -20.71023,0 -24.949583,-6.4033 -24.94719,-25.6478 l 0.01035,-83.24179 z"
           id="path4779"
           inkscape:connector-curvature="0"
           sodipodi:nodetypes="sccssscscs" />
        <g
           id="g4825"
           transform="matrix(0.28741442,0,0,0.28741442,53.395289,1043.6901)"
           inkscape:label="Hershey Text">
          <path
             id="path4790"
             transform="translate(10)"
             style="fill:none;stroke:#000000"
             d="M 8,-7 7,-9 5,-11 3,-12 h -4 l -2,1 -2,2 -1,2 -1,3 v 5 l 1,3 1,2 2,2 2,1 H 3 L 5,8 7,6 8,4"
             inkscape:connector-curvature="0" />
          <path
             id="path4792"
             transform="translate(30)"
             style="fill:none;stroke:#000000"
             d="M -5,-12 V 9 m 0,-10 3,-3 2,-1 h 3 l 2,1 1,3 V 9"
             inkscape:connector-curvature="0" />
          <path
             id="path4794"
             transform="translate(49)"
             style="fill:none;stroke:#000000"
             d="M 6,-5 V 9 M 6,-2 4,-4 2,-5 h -3 l -2,1 -2,2 -1,3 v 2 l 1,3 2,2 2,1 H 2 L 4,8 6,6"
             inkscape:connector-curvature="0" />
          <path
             id="path4796"
             transform="translate(63)"
             style="fill:none;stroke:#000000"
             d="M 0,-12 V 9"
             inkscape:connector-curvature="0" />
          <path
             id="path4798"
             transform="translate(82)"
             style="fill:none;stroke:#000000"
             d="M -11,-5 V 9 m 0,-10 3,-3 2,-1 h 3 l 2,1 1,3 V 9 M 0,-1 3,-4 5,-5 h 3 l 2,1 1,3 V 9"
             inkscape:connector-curvature="0" />
          <path
             id="path4800"
             transform="translate(106)"
             style="fill:none;stroke:#000000"
             d="M -6,1 H 6 V -1 L 5,-3 4,-4 2,-5 h -3 l -2,1 -2,2 -1,3 v 2 l 1,3 2,2 2,1 H 2 L 4,8 6,6"
             inkscape:connector-curvature="0" />
          <path
             id="path4802"
             transform="translate(122)"
             style="fill:none;stroke:#000000"
             d="M -3,-5 V 9 m 0,-8 1,-3 2,-2 2,-1 h 3"
             inkscape:connector-curvature="0" />
          <path
             id="path4804"
             transform="translate(136)"
             style="fill:none;stroke:#000000"
             d="M 6,-2 5,-4 2,-5 h -3 l -3,1 -1,2 1,2 2,1 5,1 2,1 1,2 V 6 L 5,8 2,9 H -1 L -4,8 -5,6"
             inkscape:connector-curvature="0" />
          <path
             id="path4806"
             transform="translate(155)"
             style="fill:none;stroke:#000000"
             d="M 8,-7 7,-9 5,-11 3,-12 h -4 l -2,1 -2,2 -1,2 -1,3 v 5 l 1,3 1,2 2,2 2,1 H 3 L 5,8 7,6 8,4"
             inkscape:connector-curvature="0" />
          <path
             id="path4808"
             transform="translate(175)"
             style="fill:none;stroke:#000000"
             d="M 6,-5 V 9 M 6,-2 4,-4 2,-5 h -3 l -2,1 -2,2 -1,3 v 2 l 1,3 2,2 2,1 H 2 L 4,8 6,6"
             inkscape:connector-curvature="0" />
          <path
             id="path4810"
             transform="translate(192)"
             style="fill:none;stroke:#000000"
             d="M -3,-5 V 9 m 0,-8 1,-3 2,-2 2,-1 h 3"
             inkscape:connector-curvature="0" />
          <path
             id="path4812"
             transform="translate(207)"
             style="fill:none;stroke:#000000"
             d="M 6,-12 V 9 M 6,-2 4,-4 2,-5 h -3 l -2,1 -2,2 -1,3 v 2 l 1,3 2,2 2,1 H 2 L 4,8 6,6"
             inkscape:connector-curvature="0" />
          <path
             id="path4814"
             transform="translate(225)"
             style="fill:none;stroke:#000000"
             d="M 6,-2 5,-4 2,-5 h -3 l -3,1 -1,2 1,2 2,1 5,1 2,1 1,2 V 6 L 5,8 2,9 H -1 L -4,8 -5,6"
             inkscape:connector-curvature="0" />
          <path
             id="path4816"
             transform="translate(238)"
             style="fill:none;stroke:#000000"
             d="M 0,4 -1,5 0,6 1,5 0,4"
             inkscape:connector-curvature="0" />
          <path
             id="path4819"
             transform="translate(251)"
             style="fill:none;stroke:#000000"
             d="M 6,-2 4,-4 2,-5 h -3 l -2,1 -2,2 -1,3 v 2 l 1,3 2,2 2,1 H 2 L 4,8 6,6"
             inkscape:connector-curvature="0" />
          <path
             id="path4821"
             transform="translate(269)"
             style="fill:none;stroke:#000000"
             d="m -1,-5 -2,1 -2,2 -1,3 v 2 l 1,3 2,2 2,1 H 2 L 4,8 6,6 7,3 V 1 L 6,-2 4,-4 2,-5 h -3"
             inkscape:connector-curvature="0" />
          <path
             id="path4823"
             transform="translate(294)"
             style="fill:none;stroke:#000000"
             d="M -11,-5 V 9 m 0,-10 3,-3 2,-1 h 3 l 2,1 1,3 V 9 M 0,-1 3,-4 5,-5 h 3 l 2,1 1,3 V 9"
             inkscape:connector-curvature="0" />
        </g>
      </g>
    </g>
  </g>
  <g
     transform="translate(0,-3.8582677e-5)"
     inkscape:label="Dividers"
     id="layer3"
     inkscape:groupmode="layer">
    <path
       inkscape:connector-curvature="0"
       id="path13036"
       style="fill:none;stroke:#000000;stroke-width:0.20732725"
       d="" />
    <path
       inkscape:connector-curvature="0"
       d=""
       style="fill:none;stroke:#000000;stroke-width:0.26252338"
       id="path4251" />
    <path
       inkscape:connector-curvature="0"
       d=""
       style="fill:none;stroke:#000000;stroke-width:0.26252338"
       id="path4255" />
    <path
       inkscape:connector-curvature="0"
       d=""
       style="fill:none;stroke:#000000;stroke-width:0.26252338"
       id="path4265" />
    <path
       inkscape:connector-curvature="0"
       d=""
       style="fill:none;stroke:#000000;stroke-width:0.26252338"
       id="path4269" />
    <path
       inkscape:connector-curvature="0"
       id="path4369"
       style="fill:none;stroke:#000000;stroke-width:0.26892704"
       d="" />
    <path
       inkscape:connector-curvature="0"
       id="path4373"
       style="fill:none;stroke:#000000;stroke-width:0.26892704"
       d="" />
    <path
       inkscape:connector-curvature="0"
       id="path4383"
       style="fill:none;stroke:#000000;stroke-width:0.26892704"
       d="" />
    <path
       inkscape:connector-curvature="0"
       id="path4387"
       style="fill:none;stroke:#000000;stroke-width:0.26892704"
       d="" />
    <path
       inkscape:connector-curvature="0"
       d=""
       style="fill:none;stroke:#000000;stroke-width:0.41828161"
       id="path6267" />
    <path
       inkscape:connector-curvature="0"
       d=""
       style="fill:none;stroke:#000000;stroke-width:0.41828161"
       id="path6287" />
    <path
       inkscape:connector-curvature="0"
       d=""
       style="fill:none;stroke:#000000;stroke-width:0.41828161"
       id="path6295" />
  </g>
  <g
     transform="translate(0,-3.8582677e-5)"
     inkscape:label="Graphics"
     id="layer6"
     inkscape:groupmode="layer" />
  <g
     transform="translate(0,-3.8582677e-5)"
     inkscape:label="Text"
     id="layer4"
     inkscape:groupmode="layer">
    <path
       id="path7559"
       style="fill:none;stroke:#000000;stroke-width:0.92052549"
       d=""
       inkscape:connector-curvature="0" />
    <path
       id="path7565"
       style="fill:none;stroke:#000000;stroke-width:0.92052549"
       d=""
       inkscape:connector-curvature="0" />
    <path
       id="path7579"
       style="fill:none;stroke:#000000;stroke-width:0.92052549"
       d=""
       inkscape:connector-curvature="0" />
    <path
       d=""
       style="fill:none;stroke:#000000;stroke-width:0.34588146"
       id="path8694"
       inkscape:connector-curvature="0" />
    <path
       d=""
       style="fill:none;stroke:#000000;stroke-width:0.34588146"
       id="path8700"
       inkscape:connector-curvature="0" />
    <path
       id="path9252"
       style="fill:none;stroke:#000000;stroke-width:0.35277364"
       d=""
       inkscape:connector-curvature="0" />
    <path
       id="path9264"
       style="fill:none;stroke:#000000;stroke-width:0.35277364"
       d=""
       inkscape:connector-curvature="0" />
    <path
       d=""
       style="fill:none;stroke:#000000;stroke-width:0.30689958"
       id="path9834"
       inkscape:connector-curvature="0" />
    <path
       inkscape:connector-curvature="0"
       d=""
       style="fill:none;stroke:#000000;stroke-width:1.21444738"
       id="path4314" />
    <path
       inkscape:connector-curvature="0"
       d=""
       style="fill:none;stroke:#000000;stroke-width:1.21444738"
       id="path4324" />
    <path
       inkscape:connector-curvature="0"
       d=""
       style="fill:none;stroke:#000000;stroke-width:1.21444738"
       id="path4332" />
    <path
       inkscape:connector-curvature="0"
       d=""
       style="fill:none;stroke:#000000;stroke-width:1.21444738"
       id="path4586" />
    <path
       inkscape:connector-curvature="0"
       d=""
       style="fill:none;stroke:#000000;stroke-width:1.21444738"
       id="path4604-3" />
  </g>
</svg>
