<?xml version="1.0" encoding="UTF-8" standalone="no"?>
<!-- Created with Inkscape (http://www.inkscape.org/) -->

<svg
   xmlns:dc="http://purl.org/dc/elements/1.1/"
   xmlns:cc="http://creativecommons.org/ns#"
   xmlns:rdf="http://www.w3.org/1999/02/22-rdf-syntax-ns#"
   xmlns:svg="http://www.w3.org/2000/svg"
   xmlns="http://www.w3.org/2000/svg"
   xmlns:sodipodi="http://sodipodi.sourceforge.net/DTD/sodipodi-0.dtd"
   xmlns:inkscape="http://www.inkscape.org/namespaces/inkscape"
   sodipodi:docname="Side6.svg"
   inkscape:version="0.92.3 (2405546, 2018-03-11)"
   version="1.1"
   id="svg2"
   viewBox="0 0 248.03151 248.03149"
   height="70mm"
   width="70mm"
   enable-background="new">
  <sodipodi:namedview
     inkscape:window-maximized="1"
     inkscape:window-y="1"
     inkscape:window-x="0"
     inkscape:window-height="738"
     inkscape:window-width="1366"
     borderlayer="true"
     showgrid="false"
     inkscape:current-layer="layer1"
     inkscape:document-units="mm"
     inkscape:cy="212.66449"
     inkscape:cx="-3.9792978"
     inkscape:zoom="2.8284271"
     inkscape:pageshadow="2"
     inkscape:pageopacity="0"
     borderopacity="1.0"
     bordercolor="#666666"
     pagecolor="#585858"
     id="base"
     showguides="true"
     inkscape:object-paths="false"
     inkscape:snap-intersection-paths="false"
     inkscape:guide-bbox="true"
     inkscape:snap-global="false" />
  <defs
     id="defs4">
    <filter
       inkscape:collect="always"
       style="color-interpolation-filters:sRGB"
       id="filter4811">
      <feBlend
         inkscape:collect="always"
         mode="overlay"
         in2="BackgroundImage"
         id="feBlend4813" />
    </filter>
  </defs>
  <metadata
     id="metadata7">
    <rdf:RDF>
      <cc:Work
         rdf:about="">
        <dc:format>image/svg+xml</dc:format>
        <dc:type
           rdf:resource="http://purl.org/dc/dcmitype/StillImage" />
        <dc:title />
      </cc:Work>
    </rdf:RDF>
  </metadata>
  <g
     inkscape:label="Cutout"
     inkscape:groupmode="layer"
     id="layer1"
     transform="translate(0,-804.33071)"
     style="opacity:1;filter:url(#filter4811)">
    <g
       id="g896"
       transform="matrix(-1,0,0,1,247.80365,3.8671876)" />
    <path
       style="fill:none;fill-rule:evenodd;stroke:#000000;stroke-width:0.32609031;stroke-linecap:butt;stroke-linejoin:miter;stroke-miterlimit:4;stroke-dasharray:none;stroke-opacity:1"
       d="m 224.81061,821.82654 c 3.72723,0 10.96536,2.79492 10.96536,27.42629 v 1.93184 c 0,4.65377 -0.12506,4.93242 -1.85064,6.25575 -4.741,2.73721 -18.07115,-3.70535 -18.07115,-12.73734 l 0.10123,-19.35985 c 0,0 -0.20085,-3.5031 3.85125,-3.51665 z"
       id="path4210"
       inkscape:connector-curvature="0"
       sodipodi:nodetypes="cscccccc" />
    <path
       style="fill:none;stroke:#000000;stroke-width:0.35509607;stroke-linejoin:round;stroke-miterlimit:4;stroke-dasharray:none;stroke-opacity:1"
       d="m 0.17760343,1001.5263 0.005011,4.2852 c 0.2312384,5.0599 16.74898957,4.0315 16.74898957,11.1333 0,8.0577 -16.51802176,7.7055 -16.51802176,15.1166 0,14.4563 3.47304566,19.4286 20.13910676,19.6811 7.173341,0 4.860857,-20.1495 13.632903,-19.317 8.988574,1.1311 6.273522,16.6931 9.181901,19.7574 h 1.053049 167.697378 c 19.67233,0 35.50818,-15.8379 35.50818,-35.5102 V 840.01657 c 0,-19.67232 -15.83585,-35.51014 -35.50818,-35.51014 l -176.658101,-0.002 c -6.603613,0 -18.041305,0.0825 -18.039371,9.3776 l 0.02115,101.57849 c 9.92e-4,4.74699 -3.821617,9.41084 -8.5686579,9.41084 -4.7470315,0 -8.56864843,4.52936 -8.56864843,8.56867 0,12.41857 2.005e-5,15.02829 2.005e-5,25.46178 0,9.18249 11.88499628,8.77922 14.54990028,15.29076 0.321102,0.78449 0.259298,1.72351 0.04159,2.54288 -2.467889,9.28792 -14.38447309,7.9342 -14.71828257,24.79085"
       id="path4818"
       inkscape:connector-curvature="0"
       sodipodi:nodetypes="ccssccccsssccsssssaac" />
    <g
       inkscape:label="Hershey Text"
       transform="matrix(0.31524002,0,0,0.31524002,51.305238,1043.276)"
       id="g4825">
      <path
         inkscape:connector-curvature="0"
         d="M 8,-7 7,-9 5,-11 3,-12 h -4 l -2,1 -2,2 -1,2 -1,3 v 5 l 1,3 1,2 2,2 2,1 H 3 L 5,8 7,6 8,4"
         style="fill:none;stroke:#000000"
         transform="translate(10)"
         id="path4790" />
      <path
         inkscape:connector-curvature="0"
         d="M -5,-12 V 9 m 0,-10 3,-3 2,-1 h 3 l 2,1 1,3 V 9"
         style="fill:none;stroke:#000000"
         transform="translate(30)"
         id="path4792" />
      <path
         inkscape:connector-curvature="0"
         d="M 6,-5 V 9 M 6,-2 4,-4 2,-5 h -3 l -2,1 -2,2 -1,3 v 2 l 1,3 2,2 2,1 H 2 L 4,8 6,6"
         style="fill:none;stroke:#000000"
         transform="translate(49)"
         id="path4794" />
      <path
         inkscape:connector-curvature="0"
         d="M 0,-12 V 9"
         style="fill:none;stroke:#000000"
         transform="translate(63)"
         id="path4796" />
      <path
         inkscape:connector-curvature="0"
         d="M -11,-5 V 9 m 0,-10 3,-3 2,-1 h 3 l 2,1 1,3 V 9 M 0,-1 3,-4 5,-5 h 3 l 2,1 1,3 V 9"
         style="fill:none;stroke:#000000"
         transform="translate(82)"
         id="path4798" />
      <path
         inkscape:connector-curvature="0"
         d="M -6,1 H 6 V -1 L 5,-3 4,-4 2,-5 h -3 l -2,1 -2,2 -1,3 v 2 l 1,3 2,2 2,1 H 2 L 4,8 6,6"
         style="fill:none;stroke:#000000"
         transform="translate(106)"
         id="path4800" />
      <path
         inkscape:connector-curvature="0"
         d="M -3,-5 V 9 m 0,-8 1,-3 2,-2 2,-1 h 3"
         style="fill:none;stroke:#000000"
         transform="translate(122)"
         id="path4802" />
      <path
         inkscape:connector-curvature="0"
         d="M 6,-2 5,-4 2,-5 h -3 l -3,1 -1,2 1,2 2,1 5,1 2,1 1,2 V 6 L 5,8 2,9 H -1 L -4,8 -5,6"
         style="fill:none;stroke:#000000"
         transform="translate(136)"
         id="path4804" />
      <path
         inkscape:connector-curvature="0"
         d="M 8,-7 7,-9 5,-11 3,-12 h -4 l -2,1 -2,2 -1,2 -1,3 v 5 l 1,3 1,2 2,2 2,1 H 3 L 5,8 7,6 8,4"
         style="fill:none;stroke:#000000"
         transform="translate(155)"
         id="path4806" />
      <path
         inkscape:connector-curvature="0"
         d="M 6,-5 V 9 M 6,-2 4,-4 2,-5 h -3 l -2,1 -2,2 -1,3 v 2 l 1,3 2,2 2,1 H 2 L 4,8 6,6"
         style="fill:none;stroke:#000000"
         transform="translate(175)"
         id="path4808" />
      <path
         inkscape:connector-curvature="0"
         d="M -3,-5 V 9 m 0,-8 1,-3 2,-2 2,-1 h 3"
         style="fill:none;stroke:#000000"
         transform="translate(192)"
         id="path4810" />
      <path
         inkscape:connector-curvature="0"
         d="M 6,-12 V 9 M 6,-2 4,-4 2,-5 h -3 l -2,1 -2,2 -1,3 v 2 l 1,3 2,2 2,1 H 2 L 4,8 6,6"
         style="fill:none;stroke:#000000"
         transform="translate(207)"
         id="path4812" />
      <path
         inkscape:connector-curvature="0"
         d="M 6,-2 5,-4 2,-5 h -3 l -3,1 -1,2 1,2 2,1 5,1 2,1 1,2 V 6 L 5,8 2,9 H -1 L -4,8 -5,6"
         style="fill:none;stroke:#000000"
         transform="translate(225)"
         id="path4814" />
      <path
         inkscape:connector-curvature="0"
         d="M 0,4 -1,5 0,6 1,5 0,4"
         style="fill:none;stroke:#000000"
         transform="translate(238)"
         id="path4816" />
      <path
         inkscape:connector-curvature="0"
         d="M 6,-2 4,-4 2,-5 h -3 l -2,1 -2,2 -1,3 v 2 l 1,3 2,2 2,1 H 2 L 4,8 6,6"
         style="fill:none;stroke:#000000"
         transform="translate(251)"
         id="path4819" />
      <path
         inkscape:connector-curvature="0"
         d="m -1,-5 -2,1 -2,2 -1,3 v 2 l 1,3 2,2 2,1 H 2 L 4,8 6,6 7,3 V 1 L 6,-2 4,-4 2,-5 h -3"
         style="fill:none;stroke:#000000"
         transform="translate(269)"
         id="path4821" />
      <path
         inkscape:connector-curvature="0"
         d="M -11,-5 V 9 m 0,-10 3,-3 2,-1 h 3 l 2,1 1,3 V 9 M 0,-1 3,-4 5,-5 h 3 l 2,1 1,3 V 9"
         style="fill:none;stroke:#000000"
         transform="translate(294)"
         id="path4823" />
    </g>
    <g
       id="g4815"
       transform="translate(-107.64976,-2.0422521)">
      <circle
         style="display:inline;opacity:0.98000004;fill:none;fill-opacity:0;stroke:#000000;stroke-width:0.12710917;stroke-miterlimit:3.98765421;stroke-dasharray:none;stroke-opacity:1"
         id="path9541"
         cx="109.42142"
         cy="1052.6328"
         r="1.7080989" />
      <circle
         r="1.7080989"
         cy="808.14459"
         cx="-353.90961"
         id="circle9543"
         style="display:inline;opacity:0.98000004;fill:none;fill-opacity:0;stroke:#000000;stroke-width:0.12710917;stroke-miterlimit:3.98765421;stroke-dasharray:none;stroke-opacity:1"
         transform="scale(-1,1)" />
    </g>
  </g>
  <g
     inkscape:groupmode="layer"
     id="layer3"
     inkscape:label="Dividers"
     transform="translate(0,-3.8582677e-5)">
    <path
       d=""
       style="fill:none;stroke:#000000;stroke-width:0.20732725"
       id="path13036"
       inkscape:connector-curvature="0" />
    <path
       id="path4251"
       style="fill:none;stroke:#000000;stroke-width:0.26252338"
       d=""
       inkscape:connector-curvature="0" />
    <path
       id="path4255"
       style="fill:none;stroke:#000000;stroke-width:0.26252338"
       d=""
       inkscape:connector-curvature="0" />
    <path
       id="path4265"
       style="fill:none;stroke:#000000;stroke-width:0.26252338"
       d=""
       inkscape:connector-curvature="0" />
    <path
       id="path4269"
       style="fill:none;stroke:#000000;stroke-width:0.26252338"
       d=""
       inkscape:connector-curvature="0" />
    <path
       d=""
       style="fill:none;stroke:#000000;stroke-width:0.26892704"
       id="path4369"
       inkscape:connector-curvature="0" />
    <path
       d=""
       style="fill:none;stroke:#000000;stroke-width:0.26892704"
       id="path4373"
       inkscape:connector-curvature="0" />
    <path
       d=""
       style="fill:none;stroke:#000000;stroke-width:0.26892704"
       id="path4383"
       inkscape:connector-curvature="0" />
    <path
       d=""
       style="fill:none;stroke:#000000;stroke-width:0.26892704"
       id="path4387"
       inkscape:connector-curvature="0" />
    <path
       id="path6267"
       style="fill:none;stroke:#000000;stroke-width:0.41828161"
       d=""
       inkscape:connector-curvature="0" />
    <path
       id="path6287"
       style="fill:none;stroke:#000000;stroke-width:0.41828161"
       d=""
       inkscape:connector-curvature="0" />
    <path
       id="path6295"
       style="fill:none;stroke:#000000;stroke-width:0.41828161"
       d=""
       inkscape:connector-curvature="0" />
  </g>
  <g
     inkscape:groupmode="layer"
     id="layer6"
     inkscape:label="Graphics"
     transform="translate(0,-3.8582677e-5)" />
  <g
     inkscape:groupmode="layer"
     id="layer4"
     inkscape:label="Text"
     transform="translate(0,-3.8582677e-5)">
    <path
       inkscape:connector-curvature="0"
       d=""
       style="fill:none;stroke:#000000;stroke-width:0.92052549"
       id="path7559" />
    <path
       inkscape:connector-curvature="0"
       d=""
       style="fill:none;stroke:#000000;stroke-width:0.92052549"
       id="path7565" />
    <path
       inkscape:connector-curvature="0"
       d=""
       style="fill:none;stroke:#000000;stroke-width:0.92052549"
       id="path7579" />
    <path
       inkscape:connector-curvature="0"
       id="path8694"
       style="fill:none;stroke:#000000;stroke-width:0.34588146"
       d="" />
    <path
       inkscape:connector-curvature="0"
       id="path8700"
       style="fill:none;stroke:#000000;stroke-width:0.34588146"
       d="" />
    <path
       inkscape:connector-curvature="0"
       d=""
       style="fill:none;stroke:#000000;stroke-width:0.35277364"
       id="path9252" />
    <path
       inkscape:connector-curvature="0"
       d=""
       style="fill:none;stroke:#000000;stroke-width:0.35277364"
       id="path9264" />
    <path
       inkscape:connector-curvature="0"
       id="path9834"
       style="fill:none;stroke:#000000;stroke-width:0.30689958"
       d="" />
    <path
       id="path4314"
       style="fill:none;stroke:#000000;stroke-width:1.21444738"
       d=""
       inkscape:connector-curvature="0" />
    <path
       id="path4324"
       style="fill:none;stroke:#000000;stroke-width:1.21444738"
       d=""
       inkscape:connector-curvature="0" />
    <path
       id="path4332"
       style="fill:none;stroke:#000000;stroke-width:1.21444738"
       d=""
       inkscape:connector-curvature="0" />
    <path
       id="path4586"
       style="fill:none;stroke:#000000;stroke-width:1.21444738"
       d=""
       inkscape:connector-curvature="0" />
    <path
       id="path4604-3"
       style="fill:none;stroke:#000000;stroke-width:1.21444738"
       d=""
       inkscape:connector-curvature="0" />
  </g>
</svg>
