<?xml version="1.0" encoding="UTF-8" standalone="no"?>
<svg
   xmlns:dc="http://purl.org/dc/elements/1.1/"
   xmlns:cc="http://creativecommons.org/ns#"
   xmlns:rdf="http://www.w3.org/1999/02/22-rdf-syntax-ns#"
   xmlns:svg="http://www.w3.org/2000/svg"
   xmlns="http://www.w3.org/2000/svg"
   width="215mm"
   height="85mm"
   viewBox="0 0 761.81101 301.1811"
   id="svg2"
   version="1.1">
  <defs
     id="defs4" />
  <metadata
     id="metadata7">
    <rdf:RDF>
      <cc:Work
         rdf:about="">
        <dc:format>image/svg+xml</dc:format>
        <dc:type
           rdf:resource="http://purl.org/dc/dcmitype/StillImage" />
        <dc:title></dc:title>
      </cc:Work>
    </rdf:RDF>
  </metadata>
  <g
     transform="translate(0,-751.1811)"
     id="layer1">
    <path
       id="rect4874-5"
       d="m 293.53958,750.79077 c -21.97235,0 -39.66211,17.68779 -39.66211,39.66016 l 0,220.11137 c 0,21.9723 17.68976,39.662 39.66211,39.662 l 172.99804,0 c 8.67474,-0.2256 34.56055,-3.5296 34.56055,-35.5683 l -0.93555,-224.20507 c 0,-21.97237 -17.68975,-39.66016 -39.66211,-39.66016 l -166.96093,0 z m 6.11718,10.6914 155.36915,0 c 20.44691,0 36.9082,16.46129 36.9082,36.90821 l 0.87109,208.63862 c 0,29.8144 -24.08766,32.8896 -32.16015,33.0996 l -160.98829,0 c -20.4469,0 -36.9082,-16.4613 -36.9082,-36.9081 l 0,-204.83012 c 0,-20.44692 16.4613,-36.90821 36.9082,-36.90821 z"
       style="display:inline;opacity:0.4;fill:none;fill-opacity:0.2961877;stroke:#000000;stroke-width:0.35433072;stroke-linecap:round;stroke-linejoin:round;stroke-miterlimit:4;stroke-dasharray:none;stroke-opacity:1" />
    <path
       id="rect4932"
       d="m 293.93379,790.58206 c -4.58706,0 -8.28124,3.68209 -8.28124,8.25586 l 0,4.375 a 14.700643,14.700643 0 0 0 -5.25391,11.24219 14.700643,14.700643 0 0 0 5.25391,11.26172 l 0,4.69336 c 0,4.57377 3.69418,8.25586 8.28124,8.25586 l 31.52344,0 c 4.58706,0 8.2793,-3.68209 8.2793,-8.25586 l 0,-2.4336 a 14.700643,14.700643 0 0 0 8.9707,-13.52148 14.700643,14.700643 0 0 0 -8.9707,-13.53711 l 0,-2.08008 c 0,-4.57377 -3.69224,-8.25586 -8.2793,-8.25586 l -31.52344,0 z m 3.01758,6.8711 25.48828,0 c 2.45374,0 4.42774,1.97399 4.42774,4.42773 l 0,25.48828 c 0,2.45374 -1.974,4.42969 -4.42774,4.42969 l -25.48828,0 c -2.45374,0 -4.42968,-1.97595 -4.42968,-4.42969 l 0,-25.48828 c 0,-2.45374 1.97594,-4.42773 4.42968,-4.42773 z"
       style="display:inline;fill:none;fill-opacity:0.2961877;stroke:#000000;stroke-width:0.35433072;stroke-linecap:round;stroke-linejoin:round;stroke-miterlimit:4;stroke-dasharray:none;stroke-opacity:1" />
    <path
       id="path5549"
       d="m 39.837292,750.79356 c -21.972354,0 -39.66015716,17.68975 -39.66015716,39.66211 l 0,220.11133 c 0,21.9723 17.68780316,39.6601 39.66015716,39.6601 l 172.999998,0 c 8.67474,-0.2256 34.56054,-3.5277 34.56054,-35.5664 l -0.9375,-224.20503 c 0,-21.97236 -17.68779,-39.66211 -39.66015,-39.66211 l -166.962888,0 z m -17.367188,103.50586 32.322266,0 c 4.591618,0 8.287109,3.68209 8.287109,8.25586 l 0,131.08984 c 0,4.57377 -3.695491,8.25588 -8.287109,8.25588 l -32.322266,0 c -4.591618,0 -8.287109,-3.68211 -8.287109,-8.25588 l 0,-131.08984 c 0,-4.57377 3.695491,-8.25586 8.287109,-8.25586 z"
       style="display:inline;opacity:0.4;fill:none;fill-opacity:0.2961877;stroke:#000000;stroke-width:0.35433072;stroke-linecap:round;stroke-linejoin:round;stroke-miterlimit:4;stroke-dasharray:none;stroke-opacity:1" />
    <path
       id="rect4874-8"
       d="m 551.10846,752.7511 166.96178,0 c 21.97236,0 39.66129,17.68893 39.66129,39.66129 l 0.93635,224.20501 c 0,32.0386 -25.88517,35.342 -34.55991,35.5676 l -172.99951,0 c -21.97235,0 -39.66129,-17.6889 -39.66129,-39.6612 l 0,-220.11141 c 0,-21.97236 17.68894,-39.66129 39.66129,-39.66129 z"
       style="display:inline;opacity:0.4;fill:none;fill-opacity:0.2961877;stroke:#000000;stroke-width:0.35433072;stroke-linecap:round;stroke-linejoin:round;stroke-miterlimit:4;stroke-dasharray:none;stroke-opacity:1" />
    <path
       id="rect4152-2"
       d="m 434.83836,797.42216 0.0273,6.86329 -4.82422,0 c -2.29353,0 -4.14062,1.84709 -4.14062,4.14062 0,2.29353 1.84709,4.14063 4.14062,4.14063 l 4.85743,0 0.0176,4.81835 -0.15235,0 -4.83789,0 c -2.29353,0 -4.13867,1.84515 -4.13867,4.13868 0,2.29353 1.84514,4.14062 4.13867,4.14062 l 5.02344,0 0.0273,6.88477 c 1.42814,0.17585 2.04594,0.66 2.04594,-0.63283 -0.12076,-4.14849 3.68463,-8.44541 8.51851,-7.96962 2.04298,0.002 4.64046,1.446 6.03359,2.94032 1.2139,-1.34504 1.93654,-2.87011 2.34727,-4.53906 -4.05113,-0.0297 -7.31974,-3.32181 -7.32031,-7.37305 4.9e-4,-4.0452 2.82217,-6.99112 7.24218,-7.5918 -0.43871,-1.6373 -1.05625,-2.98134 -2.27109,-4.32422 -1.39199,1.49526 -3.98875,2.89592 -6.03164,2.89945 -4.85364,0.37005 -8.77008,-3.64311 -8.77008,-7.92484 0,-0.94066 -1.18347,-0.73447 -1.93304,-0.61131 z"
       style="fill:none;fill-opacity:0.2961877;stroke:#000000;stroke-width:0.35433072;stroke-linecap:round;stroke-linejoin:round;stroke-miterlimit:4;stroke-dasharray:none;stroke-opacity:1" />
    <path
       style="fill:none;fill-opacity:0.2961877;stroke:#000000;stroke-width:0.35433072;stroke-linecap:round;stroke-linejoin:round;stroke-miterlimit:4;stroke-dasharray:none;stroke-opacity:1"
       d="m 400.60079,798.03156 0.0273,6.86329 -4.82422,0 c -2.29353,0 -4.14062,1.84709 -4.14062,4.14062 0,2.29353 1.84709,4.14063 4.14062,4.14063 l 4.85743,0 0.0176,4.81835 -0.15235,0 -4.83789,0 c -2.29353,0 -4.13867,1.84515 -4.13867,4.13868 0,2.29353 1.84514,4.14062 4.13867,4.14062 l 5.02344,0 0.0273,6.88477 c 1.42814,0.17585 2.04594,0.66 2.04594,-0.63283 -0.12076,-4.14849 3.68463,-8.44541 8.51851,-7.96962 2.04298,0.002 4.64046,1.446 6.03359,2.94032 1.2139,-1.34504 1.93654,-2.87011 2.34727,-4.53906 -4.05113,-0.0297 -7.31974,-3.32181 -7.32031,-7.37305 4.9e-4,-4.0452 2.82217,-6.99112 7.24218,-7.5918 -0.43871,-1.6373 -1.05625,-2.98134 -2.27109,-4.32422 -1.39199,1.49526 -3.98875,2.89592 -6.03164,2.89945 -4.85364,0.37005 -8.77008,-3.64311 -8.77008,-7.92484 0,-0.94066 -1.18347,-0.73447 -1.93304,-0.61131 z"
       id="path4789-7" />
    <path
       id="path4795-1"
       d="m 363.01388,797.54564 0.0273,6.86329 -4.82422,0 c -2.29353,0 -4.14062,1.84709 -4.14062,4.14062 0,2.29353 1.84709,4.14063 4.14062,4.14063 l 4.85743,0 0.0176,4.81835 -0.15235,0 -4.83789,0 c -2.29353,0 -4.13867,1.84515 -4.13867,4.13868 0,2.29353 1.84514,4.14062 4.13867,4.14062 l 5.02344,0 0.0273,6.88477 c 1.42814,0.17585 2.04594,0.66 2.04594,-0.63283 -0.12076,-4.14849 3.68463,-8.44541 8.51851,-7.96962 2.04298,0.002 4.64046,1.446 6.03359,2.94032 1.2139,-1.34504 1.93654,-2.87011 2.34727,-4.53906 -4.05113,-0.0297 -7.31974,-3.32181 -7.32031,-7.37305 4.9e-4,-4.0452 2.82217,-6.99112 7.24218,-7.5918 -0.43871,-1.6373 -1.05625,-2.98134 -2.27109,-4.32422 -1.39199,1.49526 -3.98875,2.89592 -6.03164,2.89945 -4.85364,0.37005 -8.77008,-3.64311 -8.77008,-7.92484 0,-0.94066 -1.18347,-0.73447 -1.93304,-0.61131 z"
       style="fill:none;fill-opacity:0.2961877;stroke:#000000;stroke-width:0.35433072;stroke-linecap:round;stroke-linejoin:round;stroke-miterlimit:4;stroke-dasharray:none;stroke-opacity:1" />
    <path
       id="path4797-0"
       d="m 416.65192,880.71435 c -0.0516,-0.42251 -0.0796,-0.77892 -0.0796,-1.14197 l 3e-5,0 c 0,-3.75165 2.99185,-6.79297 6.68248,-6.79296 3.69063,0 6.68247,3.04131 6.68247,6.79296 0,0.32018 -0.0218,0.63518 -0.0737,0.91964 2.49532,-0.66375 4.63905,-1.70592 6.38333,-3.18364 -7.26146,-6.45353 -1.27385,-14.58047 5.23962,-14.04857 l -2e-5,0 c 0.14282,-1.12145 0.13263,-1.72986 -0.0122,-2.62837 l 0.0193,-0.19882 5.65057,0 0,24.06344 -48.66219,0 -48.25,0 -47.91219,0 0,-24.06344 6.12584,0 -0.12475,0.34355 c -0.14705,0.94131 -0.22417,1.9073 -0.22417,2.88989 -3e-5,0.0441 4e-5,0.0881 0.0388,0.14141 0.53865,-0.0977 1.05749,-0.154 1.58948,-0.154 4.0727,0 7.37427,3.30158 7.37427,7.37428 0,2.74503 -1.49985,5.13974 -3.74466,6.43202 1.84078,1.61728 4.14287,2.68316 6.79729,3.25458 -0.0516,-0.42251 -0.0796,-0.77892 -0.0796,-1.14197 l 3e-5,0 c 0,-3.75165 2.99185,-6.79297 6.68248,-6.79296 3.69063,0 6.68247,3.04131 6.68247,6.79296 0,0.32018 -0.0218,0.63518 -0.0737,0.91964 2.49532,-0.66375 4.63905,-1.70592 6.38333,-3.18364 -7.26146,-6.45353 -1.27385,-14.58047 5.23962,-14.04857 l -2e-5,0 c 0.14282,-1.12145 0.13263,-1.72986 -0.0122,-2.62837 l 0.0193,-0.19882 5.23838,0 5.71365,0 -0.12475,0.34355 c -0.14705,0.94131 -0.22417,1.9073 -0.22417,2.88989 -3e-5,0.0441 4e-5,0.0881 0.0388,0.14141 0.53865,-0.0977 1.05749,-0.154 1.58948,-0.154 4.0727,0 7.37427,3.30158 7.37427,7.37428 0,2.74503 -1.49985,5.13974 -3.74466,6.43202 1.84078,1.61728 4.14287,2.68316 6.79729,3.25458 -0.0516,-0.42251 -0.0796,-0.77892 -0.0796,-1.14197 l 3e-5,0 c 0,-3.75165 2.99185,-6.79297 6.68248,-6.79296 3.69063,0 6.68247,3.04131 6.68247,6.79296 0,0.32018 -0.0218,0.63518 -0.0737,0.91964 2.49532,-0.66375 4.63905,-1.70592 6.38333,-3.18364 -7.26146,-6.45353 -1.27385,-14.58047 5.23962,-14.04857 l -2e-5,0 c 0.14282,-1.12145 0.13263,-1.72986 -0.0122,-2.62837 l 0.0193,-0.19882 5.98838,0 6.46365,0 -0.12475,0.34355 c -0.14705,0.94131 -0.22417,1.9073 -0.22417,2.88989 -3e-5,0.0441 4e-5,0.0881 0.0388,0.14141 0.53865,-0.0977 1.05749,-0.154 1.58948,-0.154 4.0727,0 7.37427,3.30158 7.37427,7.37428 0,2.74503 -1.49985,5.13974 -3.74466,6.43202 1.84078,1.61728 4.14287,2.68316 6.79728,3.25458"
       style="fill:none;fill-opacity:0.2961877;stroke:#000000;stroke-width:0.35433072;stroke-linecap:round;stroke-linejoin:round;stroke-miterlimit:4;stroke-dasharray:none;stroke-opacity:1" />
    <path
       id="rect4924"
       d="m 306.63259,898.89673 31.524,0 c 4.58706,0 8.27989,3.68213 8.27989,8.2559 l 0,31.57198 c 0,4.57377 -3.69283,8.25591 -8.27989,8.25591 l -31.524,0 c -4.58706,0 -8.27989,-3.68214 -8.27989,-8.25591 l 0,-31.57198 c 0,-4.57377 3.69283,-8.2559 8.27989,-8.2559 z"
       style="fill:none;fill-opacity:0.2961877;stroke:#000000;stroke-width:0.35433072;stroke-linecap:round;stroke-linejoin:round;stroke-miterlimit:4;stroke-dasharray:none;stroke-opacity:1" />
    <path
       id="rect4922"
       d="m 309.65094,905.76581 25.4873,0 c 2.45374,0 4.42913,1.97539 4.42913,4.42913 l 0,25.4873 c 0,2.45374 -1.97539,4.42913 -4.42913,4.42913 l -25.4873,0 c -2.45374,0 -4.42913,-1.97539 -4.42913,-4.42913 l 0,-25.4873 c 0,-2.45374 1.97539,-4.42913 4.42913,-4.42913 z"
       style="fill:none;fill-opacity:0.2961877;stroke:#000000;stroke-width:0.35433072;stroke-linecap:round;stroke-linejoin:round;stroke-miterlimit:4;stroke-dasharray:none;stroke-opacity:1" />
  </g>
  <g
     transform="translate(0,-407.48031)"
     id="layer2">
    <path
       id="path4163"
       d="m 0.35321265,708.47595 a 0.16774806,0.16774806 0 0 1 -0.16774806,0.16775 0.16774806,0.16774806 0 0 1 -0.16774806,-0.16775 0.16774806,0.16774806 0 0 1 0.16774806,-0.16775 0.16774806,0.16774806 0 0 1 0.16774806,0.16775 z"
       style="fill:none;fill-opacity:0.2961877;stroke:#000000;stroke-width:0.03543307;stroke-linecap:round;stroke-linejoin:round;stroke-miterlimit:4;stroke-dasharray:none;stroke-opacity:1" />
    <path
       id="circle4165"
       d="m 761.8099,407.64917 a 0.16774806,0.16774806 0 0 1 -0.16775,0.16775 0.16774806,0.16774806 0 0 1 -0.16775,-0.16775 0.16774806,0.16774806 0 0 1 0.16775,-0.16775 0.16774806,0.16774806 0 0 1 0.16775,0.16775 z"
       style="fill:none;fill-opacity:0.2961877;stroke:#000000;stroke-width:0.03543307;stroke-linecap:round;stroke-linejoin:round;stroke-miterlimit:4;stroke-dasharray:none;stroke-opacity:1" />
  </g>
</svg>
