<?xml version="1.0" encoding="UTF-8" standalone="no"?>
<svg
   xmlns:dc="http://purl.org/dc/elements/1.1/"
   xmlns:cc="http://creativecommons.org/ns#"
   xmlns:rdf="http://www.w3.org/1999/02/22-rdf-syntax-ns#"
   xmlns:svg="http://www.w3.org/2000/svg"
   xmlns="http://www.w3.org/2000/svg"
   width="434mm"
   height="146mm"
   viewBox="0 0 1537.7953 517.32282"
   id="svg2"
   version="1.1">
  <defs
     id="defs4" />
  <metadata
     id="metadata7">
    <rdf:RDF>
      <cc:Work
         rdf:about="">
        <dc:format>image/svg+xml</dc:format>
        <dc:type
           rdf:resource="http://purl.org/dc/dcmitype/StillImage" />
        <dc:title></dc:title>
      </cc:Work>
    </rdf:RDF>
  </metadata>
  <g
     id="layer1"
     transform="translate(0,-535.03938)"
     style="opacity:1">
    <path
       id="path7559-6"
       style="fill:none;stroke:#000000;stroke-width:0.92052549"
       d="" />
    <path
       id="path7565-1"
       style="fill:none;stroke:#000000;stroke-width:0.92052549"
       d="" />
    <path
       id="path7579-8"
       style="fill:none;stroke:#000000;stroke-width:0.92052549"
       d="" />
    <path
       d=""
       style="fill:none;stroke:#000000;stroke-width:0.34588146"
       id="path8694-7" />
    <path
       d=""
       style="fill:none;stroke:#000000;stroke-width:0.34588146"
       id="path8700-9" />
    <path
       id="path9252-2"
       style="fill:none;stroke:#000000;stroke-width:0.35277364"
       d="" />
    <path
       id="path9264-0"
       style="fill:none;stroke:#000000;stroke-width:0.35277364"
       d="" />
    <path
       d=""
       style="fill:none;stroke:#000000;stroke-width:0.30689958"
       id="path9834-2" />
    <path
       d=""
       style="fill:none;stroke:#000000;stroke-width:1.21444738"
       id="path4314-3" />
    <path
       d=""
       style="fill:none;stroke:#000000;stroke-width:1.21444738"
       id="path4324-7" />
    <path
       d=""
       style="fill:none;stroke:#000000;stroke-width:1.21444738"
       id="path4332-5" />
    <path
       d=""
       style="fill:none;stroke:#000000;stroke-width:1.21444738"
       id="path4586-9" />
    <path
       d=""
       style="fill:none;stroke:#000000;stroke-width:1.21444738"
       id="path4604-3-2" />
    <path
       id="path7559-6-3"
       style="opacity:1;fill:none;stroke:#000000;stroke-width:0.92031395"
       d="" />
    <path
       id="path7565-1-6"
       style="opacity:1;fill:none;stroke:#000000;stroke-width:0.92031395"
       d="" />
    <path
       id="path7579-8-7"
       style="opacity:1;fill:none;stroke:#000000;stroke-width:0.92031395"
       d="" />
    <path
       d=""
       style="opacity:1;fill:none;stroke:#000000;stroke-width:0.34580198"
       id="path8694-7-5" />
    <path
       d=""
       style="opacity:1;fill:none;stroke:#000000;stroke-width:0.34580198"
       id="path8700-9-3" />
    <path
       id="path9252-2-5"
       style="opacity:1;fill:none;stroke:#000000;stroke-width:0.35269257"
       d="" />
    <path
       id="path9264-0-6"
       style="opacity:1;fill:none;stroke:#000000;stroke-width:0.35269257"
       d="" />
    <path
       d=""
       style="opacity:1;fill:none;stroke:#000000;stroke-width:0.30682907"
       id="path9834-2-2" />
    <path
       d=""
       style="opacity:1;fill:none;stroke:#000000;stroke-width:1.21416831"
       id="path4314-3-9" />
    <path
       d=""
       style="opacity:1;fill:none;stroke:#000000;stroke-width:1.21416831"
       id="path4324-7-1" />
    <path
       d=""
       style="opacity:1;fill:none;stroke:#000000;stroke-width:1.21416831"
       id="path4332-5-2" />
    <path
       d=""
       style="opacity:1;fill:none;stroke:#000000;stroke-width:1.21416831"
       id="path4586-9-7" />
    <path
       d=""
       style="opacity:1;fill:none;stroke:#000000;stroke-width:1.21416831"
       id="path4604-3-2-0" />
    <path
       id="path7559-9"
       style="opacity:1;fill:none;stroke:#000000;stroke-width:0.92031395"
       d="" />
    <path
       id="path7565-3"
       style="opacity:1;fill:none;stroke:#000000;stroke-width:0.92031395"
       d="" />
    <path
       id="path7579-1"
       style="opacity:1;fill:none;stroke:#000000;stroke-width:0.92031395"
       d="" />
    <path
       d=""
       style="opacity:1;fill:none;stroke:#000000;stroke-width:0.34580198"
       id="path8694-9" />
    <path
       d=""
       style="opacity:1;fill:none;stroke:#000000;stroke-width:0.34580198"
       id="path8700-4" />
    <path
       id="path9252-7"
       style="opacity:1;fill:none;stroke:#000000;stroke-width:0.35269257"
       d="" />
    <path
       id="path9264-8"
       style="opacity:1;fill:none;stroke:#000000;stroke-width:0.35269257"
       d="" />
    <path
       d=""
       style="opacity:1;fill:none;stroke:#000000;stroke-width:0.30682907"
       id="path9834-4" />
    <path
       d=""
       style="opacity:1;fill:none;stroke:#000000;stroke-width:1.21416831"
       id="path4314-5" />
    <path
       d=""
       style="opacity:1;fill:none;stroke:#000000;stroke-width:1.21416831"
       id="path4324-0" />
    <path
       d=""
       style="opacity:1;fill:none;stroke:#000000;stroke-width:1.21416831"
       id="path4332-3" />
    <path
       d=""
       style="opacity:1;fill:none;stroke:#000000;stroke-width:1.21416831"
       id="path4586-6" />
    <path
       d=""
       style="opacity:1;fill:none;stroke:#000000;stroke-width:1.21416831"
       id="path4604-3-1" />
    <path
       id="path4210-1"
       d="m 293.70641,807.66828 -7.61853,-0.0146 c 0,0 -12.82818,1.40658 -12.82818,17.91705 l 0,3.34661 c 0,2.18732 2.27066,1.89164 2.27066,1.89164 l 17.44977,-0.22271 c 1.55771,0 3.58571,-1.52734 3.58571,-3.50643 l -0.11842,-17.06165 c 0,0 -0.26128,-2.34512 -2.74101,-2.34988 z"
       style="opacity:1;fill:none;fill-rule:evenodd;stroke:#000000;stroke-width:0.35693958;stroke-linecap:butt;stroke-linejoin:miter;stroke-miterlimit:4;stroke-dasharray:none;stroke-opacity:1" />
    <path
       id="rect4181-3-2"
       d="m 487.78719,797.42254 -203.04286,0 c -12.32491,0 -22.24714,9.92774 -22.24714,22.25948 l 0,203.15548 c 0,12.3317 7.64332,22.2596 19.96823,22.2596 l 184.53762,0 c 2.92829,-3.0752 -0.0232,-18.2517 9.0269,-19.3868 8.83211,-0.8355 6.50431,19.3868 13.72677,19.3868 16.78017,-0.2534 20.2776,-5.2441 20.2776,-19.7515 0,-7.4374 -16.63239,-7.0836 -16.63239,-15.1697 0,-7.127 16.63239,-6.0962 16.63239,-10.47552 l 0,-58.92077 c 0,0 0.48578,-3.88312 -2.99423,-4.08499 l -26.18382,-1.51891 c 0,0 -4.53414,-0.65882 -4.53414,-5.75652 l 0,-19.04092 c 0,-4.34115 4.80997,-4.65361 4.80997,-4.65361 l 25.0197,-1.36414 c 3.90445,-0.10755 3.88252,-3.58267 3.88252,-3.58267 l 0,-81.09583 c 0,-12.33174 -9.9222,-22.25948 -22.24712,-22.25948 z"
       style="opacity:1;fill:none;stroke:#000000;stroke-width:0.35693958;stroke-linejoin:round;stroke-miterlimit:4;stroke-dasharray:none;stroke-opacity:1" />
    <path
       id="path4210"
       d="m 223.64365,807.66676 7.61191,-0.0146 c 0,0 12.81703,1.40659 12.81703,17.91716 l 0,3.34665 c 0,2.18732 -2.26868,1.89164 -2.26868,1.89164 l -17.43461,-0.2227 c -1.55635,0 -3.58259,-1.52735 -3.58259,-3.50646 l 0.11831,-17.06176 c 0,0 0.26105,-2.34514 2.73863,-2.3499 z"
       style="opacity:1;fill:none;fill-rule:evenodd;stroke:#000000;stroke-width:0.35678571;stroke-linecap:butt;stroke-linejoin:miter;stroke-miterlimit:4;stroke-dasharray:none;stroke-opacity:1" />
    <path
       id="rect4181-3"
       d="m 29.731458,797.42095 202.866482,0 c 12.31421,0 22.22782,9.92781 22.22782,22.25963 l 0,180.59082 c 0,7.9229 -8.27522,6.824 -8.27522,6.824 l -20.22951,-0.1149 c -12.36138,-0.07 -12.06425,8.133 -12.02493,20.4175 l 0.0326,10.1734 c 0,0 -0.92632,7.5258 -6.80409,7.5258 l -157.027002,0 c -2.92574,-3.0752 0.0232,-18.2518 -9.01906,-19.387 -8.82444,-0.8354 -6.49867,19.387 -13.71485,19.387 -16.76558,-0.2535 -20.25999,-5.2441 -20.25999,-19.7516 0,-7.4374 16.61795,-7.0836 16.61795,-15.1698 0,-7.127 -16.61795,-6.0962 -16.61795,-10.47562 l 0,-180.0196 c 0,-12.33182 9.9136,-22.25963 22.2278,-22.25963 z"
       style="opacity:1;fill:none;stroke:#000000;stroke-width:0.35678571;stroke-linejoin:round;stroke-miterlimit:4;stroke-dasharray:none;stroke-opacity:1" />
    <path
       id="path7559-6-9"
       style="fill:none;stroke:#000000;stroke-width:0.92052549"
       d="" />
    <path
       id="path7565-1-4"
       style="fill:none;stroke:#000000;stroke-width:0.92052549"
       d="" />
    <path
       id="path7579-8-78"
       style="fill:none;stroke:#000000;stroke-width:0.92052549"
       d="" />
    <path
       d=""
       style="fill:none;stroke:#000000;stroke-width:0.34588146"
       id="path8694-7-4" />
    <path
       d=""
       style="fill:none;stroke:#000000;stroke-width:0.34588146"
       id="path8700-9-5" />
    <path
       id="path9252-2-0"
       style="fill:none;stroke:#000000;stroke-width:0.35277364"
       d="" />
    <path
       id="path9264-0-3"
       style="fill:none;stroke:#000000;stroke-width:0.35277364"
       d="" />
    <path
       d=""
       style="fill:none;stroke:#000000;stroke-width:0.30689958"
       id="path9834-2-6" />
    <path
       d=""
       style="fill:none;stroke:#000000;stroke-width:1.21444738"
       id="path4314-3-1" />
    <path
       d=""
       style="fill:none;stroke:#000000;stroke-width:1.21444738"
       id="path4324-7-0" />
    <path
       d=""
       style="fill:none;stroke:#000000;stroke-width:1.21444738"
       id="path4332-5-6" />
    <path
       d=""
       style="fill:none;stroke:#000000;stroke-width:1.21444738"
       id="path4586-9-3" />
    <path
       d=""
       style="fill:none;stroke:#000000;stroke-width:1.21444738"
       id="path4604-3-2-2" />
    <path
       id="path7559-9-0"
       style="fill:none;stroke:#000000;stroke-width:0.92052549"
       d="" />
    <path
       id="path7565-3-6"
       style="fill:none;stroke:#000000;stroke-width:0.92052549"
       d="" />
    <path
       id="path7579-1-1"
       style="fill:none;stroke:#000000;stroke-width:0.92052549"
       d="" />
    <path
       d=""
       style="fill:none;stroke:#000000;stroke-width:0.34588146"
       id="path8694-9-5" />
    <path
       d=""
       style="fill:none;stroke:#000000;stroke-width:0.34588146"
       id="path8700-4-5" />
    <path
       id="path9252-7-4"
       style="fill:none;stroke:#000000;stroke-width:0.35277364"
       d="" />
    <path
       id="path9264-8-7"
       style="fill:none;stroke:#000000;stroke-width:0.35277364"
       d="" />
    <path
       d=""
       style="fill:none;stroke:#000000;stroke-width:0.30689958"
       id="path9834-4-6" />
    <path
       d=""
       style="fill:none;stroke:#000000;stroke-width:1.21444738"
       id="path4314-5-5" />
    <path
       d=""
       style="fill:none;stroke:#000000;stroke-width:1.21444738"
       id="path4324-0-6" />
    <path
       d=""
       style="fill:none;stroke:#000000;stroke-width:1.21444738"
       id="path4332-3-9" />
    <path
       d=""
       style="fill:none;stroke:#000000;stroke-width:1.21444738"
       id="path4586-6-3" />
    <path
       d=""
       style="fill:none;stroke:#000000;stroke-width:1.21444738"
       id="path4604-3-1-7" />
    <path
       style="opacity:1;fill:none;fill-rule:evenodd;stroke:#000000;stroke-width:0.35693958;stroke-linecap:butt;stroke-linejoin:miter;stroke-miterlimit:4;stroke-dasharray:none;stroke-opacity:1"
       d="m 803.94263,807.66828 -7.61853,-0.0146 c 0,0 -12.82818,1.40658 -12.82818,17.91705 l 0,3.34661 c 0,2.18732 2.27066,1.89164 2.27066,1.89164 l 17.44977,-0.22271 c 1.55771,0 3.58571,-1.52734 3.58571,-3.50643 l -0.11842,-17.06165 c 0,0 -0.26128,-2.34512 -2.74101,-2.34988 z"
       id="path4919" />
    <path
       style="opacity:1;fill:none;stroke:#000000;stroke-width:0.35693958;stroke-linejoin:round;stroke-miterlimit:4;stroke-dasharray:none;stroke-opacity:1"
       d="m 998.02341,797.42254 -203.04286,0 c -12.32491,0 -22.24714,9.92774 -22.24714,22.25948 l 0,203.15548 c 0,12.3317 7.64332,22.2596 19.96823,22.2596 l 184.53762,0 c 2.92829,-3.0752 -0.0232,-18.2517 9.0269,-19.3868 8.83211,-0.8355 6.50431,19.3868 13.72677,19.3868 16.78017,-0.2534 20.27757,-5.2441 20.27757,-19.7515 0,-7.4374 -16.6324,-7.0836 -16.6324,-15.1697 0,-7.127 16.6324,-6.0962 16.6324,-10.47552 l 0,-58.92077 c 0,0 0.4858,-3.88312 -2.9942,-4.08499 l -26.18382,-1.51891 c 0,0 -4.53414,-0.65882 -4.53414,-5.75652 l 0,-19.04092 c 0,-4.34115 4.80997,-4.65361 4.80997,-4.65361 l 25.01969,-1.36414 c 3.9045,-0.10755 3.8825,-3.58267 3.8825,-3.58267 l 0,-81.09583 c 0,-12.33174 -9.9222,-22.25948 -22.24709,-22.25948 z"
       id="path4921" />
    <path
       style="opacity:1;fill:none;fill-rule:evenodd;stroke:#000000;stroke-width:0.35678571;stroke-linecap:butt;stroke-linejoin:miter;stroke-miterlimit:4;stroke-dasharray:none;stroke-opacity:1"
       d="m 733.87987,807.66676 7.61191,-0.0146 c 0,0 12.81703,1.40659 12.81703,17.91716 l 0,3.34665 c 0,2.18732 -2.26868,1.89164 -2.26868,1.89164 l -17.43461,-0.2227 c -1.55635,0 -3.58259,-1.52735 -3.58259,-3.50646 l 0.11831,-17.06176 c 0,0 0.26105,-2.34514 2.73863,-2.3499 z"
       id="path4925" />
    <path
       style="opacity:1;fill:none;stroke:#000000;stroke-width:0.35678571;stroke-linejoin:round;stroke-miterlimit:4;stroke-dasharray:none;stroke-opacity:1"
       d="m 539.96768,797.42095 202.86648,0 c 12.31421,0 22.22782,9.92781 22.22782,22.25963 l 0,180.59082 c 0,7.9229 -8.27522,6.824 -8.27522,6.824 l -20.22951,-0.1149 c -12.36138,-0.07 -12.06425,8.133 -12.02493,20.4175 l 0.0326,10.1734 c 0,0 -0.92632,7.5258 -6.80409,7.5258 l -157.027,0 c -2.92574,-3.0752 0.0232,-18.2518 -9.01906,-19.387 -8.82444,-0.8354 -6.49867,19.387 -13.71485,19.387 -16.76558,-0.2535 -20.25999,-5.2441 -20.25999,-19.7516 0,-7.4374 16.61795,-7.0836 16.61795,-15.1698 0,-7.127 -16.61795,-6.0962 -16.61795,-10.47562 l 0,-180.0196 c 0,-12.33182 9.9136,-22.25963 22.2278,-22.25963 z"
       id="path4927" />
    <path
       d=""
       style="fill:none;stroke:#000000;stroke-width:0.92052549"
       id="path4933" />
    <path
       d=""
       style="fill:none;stroke:#000000;stroke-width:0.92052549"
       id="path4935" />
    <path
       d=""
       style="fill:none;stroke:#000000;stroke-width:0.92052549"
       id="path4937" />
    <path
       id="path4939"
       style="fill:none;stroke:#000000;stroke-width:0.34588146"
       d="" />
    <path
       id="path4941"
       style="fill:none;stroke:#000000;stroke-width:0.34588146"
       d="" />
    <path
       d=""
       style="fill:none;stroke:#000000;stroke-width:0.35277364"
       id="path4943" />
    <path
       d=""
       style="fill:none;stroke:#000000;stroke-width:0.35277364"
       id="path4945" />
    <path
       id="path4947"
       style="fill:none;stroke:#000000;stroke-width:0.30689958"
       d="" />
    <path
       id="path4949"
       style="fill:none;stroke:#000000;stroke-width:1.21444738"
       d="" />
    <path
       id="path4951"
       style="fill:none;stroke:#000000;stroke-width:1.21444738"
       d="" />
    <path
       id="path4953"
       style="fill:none;stroke:#000000;stroke-width:1.21444738"
       d="" />
    <path
       id="path4955"
       style="fill:none;stroke:#000000;stroke-width:1.21444738"
       d="" />
    <path
       id="path4957"
       style="fill:none;stroke:#000000;stroke-width:1.21444738"
       d="" />
    <path
       d=""
       style="fill:none;stroke:#000000;stroke-width:0.92052549"
       id="path4959" />
    <path
       d=""
       style="fill:none;stroke:#000000;stroke-width:0.92052549"
       id="path4961" />
    <path
       d=""
       style="fill:none;stroke:#000000;stroke-width:0.92052549"
       id="path4963" />
    <path
       id="path4965"
       style="fill:none;stroke:#000000;stroke-width:0.34588146"
       d="" />
    <path
       id="path4967"
       style="fill:none;stroke:#000000;stroke-width:0.34588146"
       d="" />
    <path
       d=""
       style="fill:none;stroke:#000000;stroke-width:0.35277364"
       id="path4969" />
    <path
       d=""
       style="fill:none;stroke:#000000;stroke-width:0.35277364"
       id="path4971" />
    <path
       id="path4973"
       style="fill:none;stroke:#000000;stroke-width:0.30689958"
       d="" />
    <path
       id="path4975"
       style="fill:none;stroke:#000000;stroke-width:1.21444738"
       d="" />
    <path
       id="path4977"
       style="fill:none;stroke:#000000;stroke-width:1.21444738"
       d="" />
    <path
       id="path4979"
       style="fill:none;stroke:#000000;stroke-width:1.21444738"
       d="" />
    <path
       id="path4981"
       style="fill:none;stroke:#000000;stroke-width:1.21444738"
       d="" />
    <path
       id="path4983"
       style="fill:none;stroke:#000000;stroke-width:1.21444738"
       d="" />
    <path
       id="path5059"
       d="m 1314.1788,807.66828 -7.6185,-0.0146 c 0,0 -12.8282,1.40658 -12.8282,17.91705 l 0,3.34661 c 0,2.18732 2.2707,1.89164 2.2707,1.89164 l 17.4497,-0.22271 c 1.5577,0 3.5857,-1.52734 3.5857,-3.50643 l -0.1184,-17.06165 c 0,0 -0.2613,-2.34512 -2.741,-2.34988 z"
       style="opacity:1;fill:none;fill-rule:evenodd;stroke:#000000;stroke-width:0.35693958;stroke-linecap:butt;stroke-linejoin:miter;stroke-miterlimit:4;stroke-dasharray:none;stroke-opacity:1" />
    <path
       id="path5061"
       d="m 1508.2596,797.42254 -203.0429,0 c -12.3249,0 -22.2471,9.92774 -22.2471,22.25948 l 0,203.15548 c 0,12.3317 7.6433,22.2596 19.9682,22.2596 l 184.5376,0 c 2.9283,-3.0752 -0.023,-18.2517 9.0269,-19.3868 8.8322,-0.8355 6.5044,19.3868 13.7268,19.3868 16.7802,-0.2534 20.2776,-5.2441 20.2776,-19.7515 0,-7.4374 -16.6324,-7.0836 -16.6324,-15.1697 0,-7.127 16.6324,-6.0962 16.6324,-10.47552 l 0,-58.92077 c 0,0 0.4858,-3.88312 -2.9942,-4.08499 l -26.1838,-1.51891 c 0,0 -4.5342,-0.65882 -4.5342,-5.75652 l 0,-19.04092 c 0,-4.34115 4.81,-4.65361 4.81,-4.65361 l 25.0197,-1.36414 c 3.9044,-0.10755 3.8825,-3.58267 3.8825,-3.58267 l 0,-81.09583 c 0,-12.33174 -9.9222,-22.25948 -22.2471,-22.25948 z"
       style="opacity:1;fill:none;stroke:#000000;stroke-width:0.35693958;stroke-linejoin:round;stroke-miterlimit:4;stroke-dasharray:none;stroke-opacity:1" />
    <path
       id="path5065"
       d="m 1244.1161,807.66676 7.6119,-0.0146 c 0,0 12.817,1.40659 12.817,17.91716 l 0,3.34665 c 0,2.18732 -2.2687,1.89164 -2.2687,1.89164 l -17.4346,-0.2227 c -1.5563,0 -3.5826,-1.52735 -3.5826,-3.50646 l 0.1183,-17.06176 c 0,0 0.2611,-2.34514 2.7387,-2.3499 z"
       style="opacity:1;fill:none;fill-rule:evenodd;stroke:#000000;stroke-width:0.35678571;stroke-linecap:butt;stroke-linejoin:miter;stroke-miterlimit:4;stroke-dasharray:none;stroke-opacity:1" />
    <path
       id="path5067"
       d="m 1050.2039,797.42095 202.8664,0 c 12.3143,0 22.2279,9.92781 22.2279,22.25963 l 0,180.59082 c 0,7.9229 -8.2753,6.824 -8.2753,6.824 l -20.2295,-0.1149 c -12.3614,-0.07 -12.0642,8.133 -12.0249,20.4175 l 0.033,10.1734 c 0,0 -0.9263,7.5258 -6.8041,7.5258 l -157.027,0 c -2.9257,-3.0752 0.023,-18.2518 -9.0191,-19.387 -8.8244,-0.8354 -6.4986,19.387 -13.7148,19.387 -16.7656,-0.2535 -20.26,-5.2441 -20.26,-19.7516 0,-7.4374 16.618,-7.0836 16.618,-15.1698 0,-7.127 -16.618,-6.0962 -16.618,-10.47562 l 0,-180.0196 c 0,-12.33182 9.9136,-22.25963 22.2278,-22.25963 z"
       style="opacity:1;fill:none;stroke:#000000;stroke-width:0.35678571;stroke-linejoin:round;stroke-miterlimit:4;stroke-dasharray:none;stroke-opacity:1" />
    <path
       id="path5073"
       style="fill:none;stroke:#000000;stroke-width:0.92052549"
       d="" />
    <path
       id="path5075"
       style="fill:none;stroke:#000000;stroke-width:0.92052549"
       d="" />
    <path
       id="path5077"
       style="fill:none;stroke:#000000;stroke-width:0.92052549"
       d="" />
    <path
       d=""
       style="fill:none;stroke:#000000;stroke-width:0.34588146"
       id="path5079" />
    <path
       d=""
       style="fill:none;stroke:#000000;stroke-width:0.34588146"
       id="path5081" />
    <path
       id="path5083"
       style="fill:none;stroke:#000000;stroke-width:0.35277364"
       d="" />
    <path
       id="path5085"
       style="fill:none;stroke:#000000;stroke-width:0.35277364"
       d="" />
    <path
       d=""
       style="fill:none;stroke:#000000;stroke-width:0.30689958"
       id="path5087" />
    <path
       d=""
       style="fill:none;stroke:#000000;stroke-width:1.21444738"
       id="path5089" />
    <path
       d=""
       style="fill:none;stroke:#000000;stroke-width:1.21444738"
       id="path5091" />
    <path
       d=""
       style="fill:none;stroke:#000000;stroke-width:1.21444738"
       id="path5093" />
    <path
       d=""
       style="fill:none;stroke:#000000;stroke-width:1.21444738"
       id="path5095" />
    <path
       d=""
       style="fill:none;stroke:#000000;stroke-width:1.21444738"
       id="path5097" />
    <path
       id="path5099"
       style="fill:none;stroke:#000000;stroke-width:0.92052549"
       d="" />
    <path
       id="path5101"
       style="fill:none;stroke:#000000;stroke-width:0.92052549"
       d="" />
    <path
       id="path5103"
       style="fill:none;stroke:#000000;stroke-width:0.92052549"
       d="" />
    <path
       d=""
       style="fill:none;stroke:#000000;stroke-width:0.34588146"
       id="path5105" />
    <path
       d=""
       style="fill:none;stroke:#000000;stroke-width:0.34588146"
       id="path5107" />
    <path
       id="path5109"
       style="fill:none;stroke:#000000;stroke-width:0.35277364"
       d="" />
    <path
       id="path5111"
       style="fill:none;stroke:#000000;stroke-width:0.35277364"
       d="" />
    <path
       d=""
       style="fill:none;stroke:#000000;stroke-width:0.30689958"
       id="path5113" />
    <path
       d=""
       style="fill:none;stroke:#000000;stroke-width:1.21444738"
       id="path5115" />
    <path
       d=""
       style="fill:none;stroke:#000000;stroke-width:1.21444738"
       id="path5117" />
    <path
       d=""
       style="fill:none;stroke:#000000;stroke-width:1.21444738"
       id="path5119" />
    <path
       d=""
       style="fill:none;stroke:#000000;stroke-width:1.21444738"
       id="path5121" />
    <path
       d=""
       style="fill:none;stroke:#000000;stroke-width:1.21444738"
       id="path5123" />
    <path
       style="opacity:1;fill:none;fill-rule:evenodd;stroke:#000000;stroke-width:0.35693958;stroke-linecap:butt;stroke-linejoin:miter;stroke-miterlimit:4;stroke-dasharray:none;stroke-opacity:1"
       d="m 293.70641,552.55017 -7.61853,-0.0146 c 0,0 -12.82818,1.40658 -12.82818,17.91705 l 0,3.34661 c 0,2.18732 2.27066,1.89164 2.27066,1.89164 l 17.44977,-0.22271 c 1.55771,0 3.58571,-1.52734 3.58571,-3.50643 l -0.11842,-17.06165 c 0,0 -0.26128,-2.34512 -2.74101,-2.34988 z"
       id="path5199" />
    <path
       style="opacity:1;fill:none;stroke:#000000;stroke-width:0.35693958;stroke-linejoin:round;stroke-miterlimit:4;stroke-dasharray:none;stroke-opacity:1"
       d="m 487.78719,542.30443 -203.04286,0 c -12.32491,0 -22.24714,9.92774 -22.24714,22.25948 l 0,203.15546 c 0,12.3317 7.64332,22.2596 19.96823,22.2596 l 184.53762,0 c 2.92829,-3.0752 -0.0232,-18.2517 9.0269,-19.3868 8.83211,-0.8355 6.50431,19.3868 13.72677,19.3868 16.78017,-0.2534 20.2776,-5.2441 20.2776,-19.7515 0,-7.4374 -16.63239,-7.0836 -16.63239,-15.1697 0,-7.127 16.63239,-6.0962 16.63239,-10.4755 l 0,-58.92077 c 0,0 0.48578,-3.88312 -2.99423,-4.08499 l -26.18382,-1.51891 c 0,0 -4.53414,-0.65882 -4.53414,-5.75652 l 0,-19.04092 c 0,-4.34115 4.80997,-4.65361 4.80997,-4.65361 l 25.0197,-1.36414 c 3.90445,-0.10755 3.88252,-3.58267 3.88252,-3.58267 l 0,-81.09583 c 0,-12.33174 -9.9222,-22.25948 -22.24712,-22.25948 z"
       id="path5201" />
    <path
       style="opacity:1;fill:none;fill-rule:evenodd;stroke:#000000;stroke-width:0.35678571;stroke-linecap:butt;stroke-linejoin:miter;stroke-miterlimit:4;stroke-dasharray:none;stroke-opacity:1"
       d="m 223.64365,552.54865 7.61191,-0.0146 c 0,0 12.81703,1.40659 12.81703,17.91716 l 0,3.34665 c 0,2.18732 -2.26868,1.89164 -2.26868,1.89164 l -17.43461,-0.2227 c -1.55635,0 -3.58259,-1.52735 -3.58259,-3.50646 l 0.11831,-17.06176 c 0,0 0.26105,-2.34514 2.73863,-2.3499 z"
       id="path5205" />
    <path
       style="opacity:1;fill:none;stroke:#000000;stroke-width:0.35678571;stroke-linejoin:round;stroke-miterlimit:4;stroke-dasharray:none;stroke-opacity:1"
       d="m 29.731458,542.30284 202.866482,0 c 12.31421,0 22.22782,9.92781 22.22782,22.25963 l 0,180.5908 c 0,7.9229 -8.27522,6.824 -8.27522,6.824 l -20.22951,-0.1149 c -12.36138,-0.07 -12.06425,8.133 -12.02493,20.4175 l 0.0326,10.1734 c 0,0 -0.92632,7.5258 -6.80409,7.5258 l -157.027002,0 c -2.92574,-3.0752 0.0232,-18.2518 -9.01906,-19.387 -8.82444,-0.8354 -6.49867,19.387 -13.71485,19.387 -16.76558,-0.2535 -20.25999,-5.2441 -20.25999,-19.7516 0,-7.4374 16.61795,-7.0836 16.61795,-15.1698 0,-7.127 -16.61795,-6.0962 -16.61795,-10.4756 l 0,-180.0196 c 0,-12.33182 9.9136,-22.25963 22.2278,-22.25963 z"
       id="path5207" />
    <path
       d=""
       style="fill:none;stroke:#000000;stroke-width:0.92052549"
       id="path5213" />
    <path
       d=""
       style="fill:none;stroke:#000000;stroke-width:0.92052549"
       id="path5215" />
    <path
       d=""
       style="fill:none;stroke:#000000;stroke-width:0.92052549"
       id="path5217" />
    <path
       id="path5219"
       style="fill:none;stroke:#000000;stroke-width:0.34588146"
       d="" />
    <path
       id="path5221"
       style="fill:none;stroke:#000000;stroke-width:0.34588146"
       d="" />
    <path
       d=""
       style="fill:none;stroke:#000000;stroke-width:0.35277364"
       id="path5223" />
    <path
       d=""
       style="fill:none;stroke:#000000;stroke-width:0.35277364"
       id="path5225" />
    <path
       id="path5227"
       style="fill:none;stroke:#000000;stroke-width:0.30689958"
       d="" />
    <path
       id="path5229"
       style="fill:none;stroke:#000000;stroke-width:1.21444738"
       d="" />
    <path
       id="path5231"
       style="fill:none;stroke:#000000;stroke-width:1.21444738"
       d="" />
    <path
       id="path5233"
       style="fill:none;stroke:#000000;stroke-width:1.21444738"
       d="" />
    <path
       id="path5235"
       style="fill:none;stroke:#000000;stroke-width:1.21444738"
       d="" />
    <path
       id="path5237"
       style="fill:none;stroke:#000000;stroke-width:1.21444738"
       d="" />
    <path
       d=""
       style="fill:none;stroke:#000000;stroke-width:0.92052549"
       id="path5239" />
    <path
       d=""
       style="fill:none;stroke:#000000;stroke-width:0.92052549"
       id="path5241" />
    <path
       d=""
       style="fill:none;stroke:#000000;stroke-width:0.92052549"
       id="path5243" />
    <path
       id="path5245"
       style="fill:none;stroke:#000000;stroke-width:0.34588146"
       d="" />
    <path
       id="path5247"
       style="fill:none;stroke:#000000;stroke-width:0.34588146"
       d="" />
    <path
       d=""
       style="fill:none;stroke:#000000;stroke-width:0.35277364"
       id="path5249" />
    <path
       d=""
       style="fill:none;stroke:#000000;stroke-width:0.35277364"
       id="path5251" />
    <path
       id="path5253"
       style="fill:none;stroke:#000000;stroke-width:0.30689958"
       d="" />
    <path
       id="path5255"
       style="fill:none;stroke:#000000;stroke-width:1.21444738"
       d="" />
    <path
       id="path5257"
       style="fill:none;stroke:#000000;stroke-width:1.21444738"
       d="" />
    <path
       id="path5259"
       style="fill:none;stroke:#000000;stroke-width:1.21444738"
       d="" />
    <path
       id="path5261"
       style="fill:none;stroke:#000000;stroke-width:1.21444738"
       d="" />
    <path
       id="path5263"
       style="fill:none;stroke:#000000;stroke-width:1.21444738"
       d="" />
    <path
       id="path5339"
       d="m 803.94263,552.55017 -7.61853,-0.0146 c 0,0 -12.82818,1.40658 -12.82818,17.91705 l 0,3.34661 c 0,2.18732 2.27066,1.89164 2.27066,1.89164 l 17.44977,-0.22271 c 1.55771,0 3.58571,-1.52734 3.58571,-3.50643 l -0.11842,-17.06165 c 0,0 -0.26128,-2.34512 -2.74101,-2.34988 z"
       style="opacity:1;fill:none;fill-rule:evenodd;stroke:#000000;stroke-width:0.35693958;stroke-linecap:butt;stroke-linejoin:miter;stroke-miterlimit:4;stroke-dasharray:none;stroke-opacity:1" />
    <path
       id="path5341"
       d="m 998.02341,542.30443 -203.04286,0 c -12.32491,0 -22.24714,9.92774 -22.24714,22.25948 l 0,203.15546 c 0,12.3317 7.64332,22.2596 19.96823,22.2596 l 184.53762,0 c 2.92829,-3.0752 -0.0232,-18.2517 9.0269,-19.3868 8.83211,-0.8355 6.50431,19.3868 13.72677,19.3868 16.78017,-0.2534 20.27757,-5.2441 20.27757,-19.7515 0,-7.4374 -16.6324,-7.0836 -16.6324,-15.1697 0,-7.127 16.6324,-6.0962 16.6324,-10.4755 l 0,-58.92077 c 0,0 0.4858,-3.88312 -2.9942,-4.08499 l -26.18382,-1.51891 c 0,0 -4.53414,-0.65882 -4.53414,-5.75652 l 0,-19.04092 c 0,-4.34115 4.80997,-4.65361 4.80997,-4.65361 l 25.01969,-1.36414 c 3.9045,-0.10755 3.8825,-3.58267 3.8825,-3.58267 l 0,-81.09583 c 0,-12.33174 -9.9222,-22.25948 -22.24709,-22.25948 z"
       style="opacity:1;fill:none;stroke:#000000;stroke-width:0.35693958;stroke-linejoin:round;stroke-miterlimit:4;stroke-dasharray:none;stroke-opacity:1" />
    <path
       id="path5345"
       d="m 733.87987,552.54865 7.61191,-0.0146 c 0,0 12.81703,1.40659 12.81703,17.91716 l 0,3.34665 c 0,2.18732 -2.26868,1.89164 -2.26868,1.89164 l -17.43461,-0.2227 c -1.55635,0 -3.58259,-1.52735 -3.58259,-3.50646 l 0.11831,-17.06176 c 0,0 0.26105,-2.34514 2.73863,-2.3499 z"
       style="opacity:1;fill:none;fill-rule:evenodd;stroke:#000000;stroke-width:0.35678571;stroke-linecap:butt;stroke-linejoin:miter;stroke-miterlimit:4;stroke-dasharray:none;stroke-opacity:1" />
    <path
       id="path5347"
       d="m 539.96768,542.30284 202.86648,0 c 12.31421,0 22.22782,9.92781 22.22782,22.25963 l 0,180.5908 c 0,7.9229 -8.27522,6.824 -8.27522,6.824 l -20.22951,-0.1149 c -12.36138,-0.07 -12.06425,8.133 -12.02493,20.4175 l 0.0326,10.1734 c 0,0 -0.92632,7.5258 -6.80409,7.5258 l -157.027,0 c -2.92574,-3.0752 0.0232,-18.2518 -9.01906,-19.387 -8.82444,-0.8354 -6.49867,19.387 -13.71485,19.387 -16.76558,-0.2535 -20.25999,-5.2441 -20.25999,-19.7516 0,-7.4374 16.61795,-7.0836 16.61795,-15.1698 0,-7.127 -16.61795,-6.0962 -16.61795,-10.4756 l 0,-180.0196 c 0,-12.33182 9.9136,-22.25963 22.2278,-22.25963 z"
       style="opacity:1;fill:none;stroke:#000000;stroke-width:0.35678571;stroke-linejoin:round;stroke-miterlimit:4;stroke-dasharray:none;stroke-opacity:1" />
    <path
       id="path5353"
       style="fill:none;stroke:#000000;stroke-width:0.92052549"
       d="" />
    <path
       id="path5355"
       style="fill:none;stroke:#000000;stroke-width:0.92052549"
       d="" />
    <path
       id="path5357"
       style="fill:none;stroke:#000000;stroke-width:0.92052549"
       d="" />
    <path
       d=""
       style="fill:none;stroke:#000000;stroke-width:0.34588146"
       id="path5359" />
    <path
       d=""
       style="fill:none;stroke:#000000;stroke-width:0.34588146"
       id="path5361" />
    <path
       id="path5363"
       style="fill:none;stroke:#000000;stroke-width:0.35277364"
       d="" />
    <path
       id="path5365"
       style="fill:none;stroke:#000000;stroke-width:0.35277364"
       d="" />
    <path
       d=""
       style="fill:none;stroke:#000000;stroke-width:0.30689958"
       id="path5367" />
    <path
       d=""
       style="fill:none;stroke:#000000;stroke-width:1.21444738"
       id="path5369" />
    <path
       d=""
       style="fill:none;stroke:#000000;stroke-width:1.21444738"
       id="path5371" />
    <path
       d=""
       style="fill:none;stroke:#000000;stroke-width:1.21444738"
       id="path5373" />
    <path
       d=""
       style="fill:none;stroke:#000000;stroke-width:1.21444738"
       id="path5375" />
    <path
       d=""
       style="fill:none;stroke:#000000;stroke-width:1.21444738"
       id="path5377" />
    <path
       id="path5379"
       style="fill:none;stroke:#000000;stroke-width:0.92052549"
       d="" />
    <path
       id="path5381"
       style="fill:none;stroke:#000000;stroke-width:0.92052549"
       d="" />
    <path
       id="path5383"
       style="fill:none;stroke:#000000;stroke-width:0.92052549"
       d="" />
    <path
       d=""
       style="fill:none;stroke:#000000;stroke-width:0.34588146"
       id="path5385" />
    <path
       d=""
       style="fill:none;stroke:#000000;stroke-width:0.34588146"
       id="path5387" />
    <path
       id="path5389"
       style="fill:none;stroke:#000000;stroke-width:0.35277364"
       d="" />
    <path
       id="path5391"
       style="fill:none;stroke:#000000;stroke-width:0.35277364"
       d="" />
    <path
       d=""
       style="fill:none;stroke:#000000;stroke-width:0.30689958"
       id="path5393" />
    <path
       d=""
       style="fill:none;stroke:#000000;stroke-width:1.21444738"
       id="path5395" />
    <path
       d=""
       style="fill:none;stroke:#000000;stroke-width:1.21444738"
       id="path5397" />
    <path
       d=""
       style="fill:none;stroke:#000000;stroke-width:1.21444738"
       id="path5399" />
    <path
       d=""
       style="fill:none;stroke:#000000;stroke-width:1.21444738"
       id="path5401" />
    <path
       d=""
       style="fill:none;stroke:#000000;stroke-width:1.21444738"
       id="path5403" />
    <path
       style="opacity:1;fill:none;fill-rule:evenodd;stroke:#000000;stroke-width:0.35693958;stroke-linecap:butt;stroke-linejoin:miter;stroke-miterlimit:4;stroke-dasharray:none;stroke-opacity:1"
       d="m 1314.1788,552.55017 -7.6185,-0.0146 c 0,0 -12.8282,1.40658 -12.8282,17.91705 l 0,3.34661 c 0,2.18732 2.2707,1.89164 2.2707,1.89164 l 17.4497,-0.22271 c 1.5577,0 3.5857,-1.52734 3.5857,-3.50643 l -0.1184,-17.06165 c 0,0 -0.2613,-2.34512 -2.741,-2.34988 z"
       id="path5479" />
    <path
       style="opacity:1;fill:none;stroke:#000000;stroke-width:0.35693958;stroke-linejoin:round;stroke-miterlimit:4;stroke-dasharray:none;stroke-opacity:1"
       d="m 1508.2596,542.30443 -203.0429,0 c -12.3249,0 -22.2471,9.92774 -22.2471,22.25948 l 0,203.15546 c 0,12.3317 7.6433,22.2596 19.9682,22.2596 l 184.5376,0 c 2.9283,-3.0752 -0.023,-18.2517 9.0269,-19.3868 8.8322,-0.8355 6.5044,19.3868 13.7268,19.3868 16.7802,-0.2534 20.2776,-5.2441 20.2776,-19.7515 0,-7.4374 -16.6324,-7.0836 -16.6324,-15.1697 0,-7.127 16.6324,-6.0962 16.6324,-10.4755 l 0,-58.92077 c 0,0 0.4858,-3.88312 -2.9942,-4.08499 l -26.1838,-1.51891 c 0,0 -4.5342,-0.65882 -4.5342,-5.75652 l 0,-19.04092 c 0,-4.34115 4.81,-4.65361 4.81,-4.65361 l 25.0197,-1.36414 c 3.9044,-0.10755 3.8825,-3.58267 3.8825,-3.58267 l 0,-81.09583 c 0,-12.33174 -9.9222,-22.25948 -22.2471,-22.25948 z"
       id="path5481" />
    <path
       id="circle9313-5"
       d="m 3.3758507,1050.5906 a 1.604197,1.604197 0 0 1 -1.604197,1.6042 1.604197,1.604197 0 0 1 -1.60419707,-1.6042 1.604197,1.604197 0 0 1 1.60419707,-1.6042 1.604197,1.604197 0 0 1 1.604197,1.6042 z"
       style="opacity:0.97000002;fill:none;fill-opacity:1;stroke:#000000;stroke-width:0.33491319;stroke-linecap:round;stroke-linejoin:round;stroke-miterlimit:4;stroke-dasharray:none;stroke-opacity:1" />
    <path
       id="ellipse5483"
       d="m 1537.6263,536.8111 a 1.6034594,1.6041975 0 0 1 -1.6035,1.60419 1.6034594,1.6041975 0 0 1 -1.6034,-1.60419 1.6034594,1.6041975 0 0 1 1.6034,-1.6042 1.6034594,1.6041975 0 0 1 1.6035,1.6042 z"
       style="opacity:0.97000002;fill:none;fill-opacity:1;stroke:#000000;stroke-width:0.33483624;stroke-linecap:round;stroke-linejoin:round;stroke-miterlimit:4;stroke-dasharray:none;stroke-opacity:1" />
    <path
       style="opacity:1;fill:none;fill-rule:evenodd;stroke:#000000;stroke-width:0.35678571;stroke-linecap:butt;stroke-linejoin:miter;stroke-miterlimit:4;stroke-dasharray:none;stroke-opacity:1"
       d="m 1244.1161,552.54865 7.6119,-0.0146 c 0,0 12.817,1.40659 12.817,17.91716 l 0,3.34665 c 0,2.18732 -2.2687,1.89164 -2.2687,1.89164 l -17.4346,-0.2227 c -1.5563,0 -3.5826,-1.52735 -3.5826,-3.50646 l 0.1183,-17.06176 c 0,0 0.2611,-2.34514 2.7387,-2.3499 z"
       id="path5485" />
    <path
       style="opacity:1;fill:none;stroke:#000000;stroke-width:0.35678571;stroke-linejoin:round;stroke-miterlimit:4;stroke-dasharray:none;stroke-opacity:1"
       d="m 1050.2039,542.30284 202.8664,0 c 12.3143,0 22.2279,9.92781 22.2279,22.25963 l 0,180.5908 c 0,7.9229 -8.2753,6.824 -8.2753,6.824 l -20.2295,-0.1149 c -12.3614,-0.07 -12.0642,8.133 -12.0249,20.4175 l 0.033,10.1734 c 0,0 -0.9263,7.5258 -6.8041,7.5258 l -157.027,0 c -2.9257,-3.0752 0.023,-18.2518 -9.0191,-19.387 -8.8244,-0.8354 -6.4986,19.387 -13.7148,19.387 -16.7656,-0.2535 -20.26,-5.2441 -20.26,-19.7516 0,-7.4374 16.618,-7.0836 16.618,-15.1698 0,-7.127 -16.618,-6.0962 -16.618,-10.4756 l 0,-180.0196 c 0,-12.33182 9.9136,-22.25963 22.2278,-22.25963 z"
       id="path5487" />
    <path
       d=""
       style="fill:none;stroke:#000000;stroke-width:0.92052549"
       id="path5493" />
    <path
       d=""
       style="fill:none;stroke:#000000;stroke-width:0.92052549"
       id="path5495" />
    <path
       d=""
       style="fill:none;stroke:#000000;stroke-width:0.92052549"
       id="path5497" />
    <path
       id="path5499"
       style="fill:none;stroke:#000000;stroke-width:0.34588146"
       d="" />
    <path
       id="path5501"
       style="fill:none;stroke:#000000;stroke-width:0.34588146"
       d="" />
    <path
       d=""
       style="fill:none;stroke:#000000;stroke-width:0.35277364"
       id="path5503" />
    <path
       d=""
       style="fill:none;stroke:#000000;stroke-width:0.35277364"
       id="path5505" />
    <path
       id="path5507"
       style="fill:none;stroke:#000000;stroke-width:0.30689958"
       d="" />
    <path
       id="path5509"
       style="fill:none;stroke:#000000;stroke-width:1.21444738"
       d="" />
    <path
       id="path5511"
       style="fill:none;stroke:#000000;stroke-width:1.21444738"
       d="" />
    <path
       id="path5513"
       style="fill:none;stroke:#000000;stroke-width:1.21444738"
       d="" />
    <path
       id="path5515"
       style="fill:none;stroke:#000000;stroke-width:1.21444738"
       d="" />
    <path
       id="path5517"
       style="fill:none;stroke:#000000;stroke-width:1.21444738"
       d="" />
    <path
       d=""
       style="fill:none;stroke:#000000;stroke-width:0.92052549"
       id="path5519" />
    <path
       d=""
       style="fill:none;stroke:#000000;stroke-width:0.92052549"
       id="path5521" />
    <path
       d=""
       style="fill:none;stroke:#000000;stroke-width:0.92052549"
       id="path5523" />
    <path
       id="path5525"
       style="fill:none;stroke:#000000;stroke-width:0.34588146"
       d="" />
    <path
       id="path5527"
       style="fill:none;stroke:#000000;stroke-width:0.34588146"
       d="" />
    <path
       d=""
       style="fill:none;stroke:#000000;stroke-width:0.35277364"
       id="path5529" />
    <path
       d=""
       style="fill:none;stroke:#000000;stroke-width:0.35277364"
       id="path5531" />
    <path
       id="path5533"
       style="fill:none;stroke:#000000;stroke-width:0.30689958"
       d="" />
    <path
       id="path5535"
       style="fill:none;stroke:#000000;stroke-width:1.21444738"
       d="" />
    <path
       id="path5537"
       style="fill:none;stroke:#000000;stroke-width:1.21444738"
       d="" />
    <path
       id="path5539"
       style="fill:none;stroke:#000000;stroke-width:1.21444738"
       d="" />
    <path
       id="path5541"
       style="fill:none;stroke:#000000;stroke-width:1.21444738"
       d="" />
    <path
       id="path5543"
       style="fill:none;stroke:#000000;stroke-width:1.21444738"
       d="" />
  </g>
</svg>
