<?xml version="1.0" encoding="UTF-8" standalone="no"?>
<!-- Created with Inkscape (http://www.inkscape.org/) -->

<svg
   xmlns:dc="http://purl.org/dc/elements/1.1/"
   xmlns:cc="http://creativecommons.org/ns#"
   xmlns:rdf="http://www.w3.org/1999/02/22-rdf-syntax-ns#"
   xmlns:svg="http://www.w3.org/2000/svg"
   xmlns="http://www.w3.org/2000/svg"
   xmlns:sodipodi="http://sodipodi.sourceforge.net/DTD/sodipodi-0.dtd"
   xmlns:inkscape="http://www.inkscape.org/namespaces/inkscape"
   sodipodi:docname="CutTwo.svg"
   inkscape:version="0.91 r13725"
   version="1.1"
   id="svg2"
   viewBox="0 0 503.14963 248.03149"
   height="70mm"
   width="142mm">
  <sodipodi:namedview
     inkscape:window-maximized="1"
     inkscape:window-y="0"
     inkscape:window-x="0"
     inkscape:window-height="768"
     inkscape:window-width="1366"
     borderlayer="true"
     showgrid="false"
     inkscape:current-layer="layer1"
     inkscape:document-units="mm"
     inkscape:cy="243.76296"
     inkscape:cx="498.52313"
     inkscape:zoom="37.543464"
     inkscape:pageshadow="2"
     inkscape:pageopacity="0"
     borderopacity="1.0"
     bordercolor="#666666"
     pagecolor="#585858"
     id="base"
     showguides="false" />
  <defs
     id="defs4" />
  <metadata
     id="metadata7">
    <rdf:RDF>
      <cc:Work
         rdf:about="">
        <dc:format>image/svg+xml</dc:format>
        <dc:type
           rdf:resource="http://purl.org/dc/dcmitype/StillImage" />
        <dc:title></dc:title>
      </cc:Work>
    </rdf:RDF>
  </metadata>
  <g
     style="opacity:1"
     transform="translate(0,-804.33071)"
     id="layer1"
     inkscape:groupmode="layer"
     inkscape:label="Cutout">
    <path
       inkscape:connector-curvature="0"
       d=""
       style="fill:none;stroke:#000000;stroke-width:0.92031395"
       id="path7559-6" />
    <path
       inkscape:connector-curvature="0"
       d=""
       style="fill:none;stroke:#000000;stroke-width:0.92031395"
       id="path7565-1" />
    <path
       inkscape:connector-curvature="0"
       d=""
       style="fill:none;stroke:#000000;stroke-width:0.92031395"
       id="path7579-8" />
    <path
       inkscape:connector-curvature="0"
       id="path8694-7"
       style="fill:none;stroke:#000000;stroke-width:0.34580198"
       d="" />
    <path
       inkscape:connector-curvature="0"
       id="path8700-9"
       style="fill:none;stroke:#000000;stroke-width:0.34580198"
       d="" />
    <path
       inkscape:connector-curvature="0"
       d=""
       style="fill:none;stroke:#000000;stroke-width:0.35269257"
       id="path9252-2" />
    <path
       inkscape:connector-curvature="0"
       d=""
       style="fill:none;stroke:#000000;stroke-width:0.35269257"
       id="path9264-0" />
    <path
       inkscape:connector-curvature="0"
       id="path9834-2"
       style="fill:none;stroke:#000000;stroke-width:0.30682907"
       d="" />
    <path
       id="path4314-3"
       style="fill:none;stroke:#000000;stroke-width:1.21416831"
       d=""
       inkscape:connector-curvature="0" />
    <path
       id="path4324-7"
       style="fill:none;stroke:#000000;stroke-width:1.21416831"
       d=""
       inkscape:connector-curvature="0" />
    <path
       id="path4332-5"
       style="fill:none;stroke:#000000;stroke-width:1.21416831"
       d=""
       inkscape:connector-curvature="0" />
    <path
       id="path4586-9"
       style="fill:none;stroke:#000000;stroke-width:1.21416831"
       d=""
       inkscape:connector-curvature="0" />
    <path
       id="path4604-3-2"
       style="fill:none;stroke:#000000;stroke-width:1.21416831"
       d=""
       inkscape:connector-curvature="0" />
    <path
       style="opacity:1;fill:none;fill-rule:evenodd;stroke:#000000;stroke-width:0.35693958;stroke-linecap:butt;stroke-linejoin:miter;stroke-miterlimit:4;stroke-dasharray:none;stroke-opacity:1"
       d="m 286.62005,814.7549 -7.61853,-0.0146 c 0,0 -12.82818,1.40658 -12.82818,17.91705 l 0,3.34661 c 0,2.18732 2.27066,1.89164 2.27066,1.89164 l 17.44977,-0.22271 c 1.55771,0 3.58571,-1.52734 3.58571,-3.50643 l -0.11842,-17.06165 c 0,0 -0.26128,-2.34512 -2.74101,-2.34988 z"
       id="path4210-1"
       inkscape:connector-curvature="0"
       sodipodi:nodetypes="ccscccccc" />
    <path
       style="opacity:1;fill:none;stroke:#000000;stroke-width:0.35693958;stroke-linejoin:round;stroke-miterlimit:4;stroke-dasharray:none;stroke-opacity:1"
       d="m 480.70083,804.50916 -203.04286,0 c -12.32491,0 -22.24714,9.92774 -22.24714,22.25948 l 0,203.15546 c 0,12.3317 7.64332,22.2596 19.96823,22.2596 l 184.53762,0 c 2.92829,-3.0752 -0.0232,-18.2517 9.0269,-19.3868 8.83211,-0.8355 6.50431,19.3868 13.72677,19.3868 16.78017,-0.2534 20.2776,-5.2441 20.2776,-19.7515 0,-7.4374 -16.63239,-7.0836 -16.63239,-15.1697 0,-7.127 16.63239,-6.0962 16.63239,-10.4755 l 0,-58.92077 c 0,0 0.48578,-3.88312 -2.99423,-4.08499 l -26.18382,-1.51891 c 0,0 -4.53414,-0.65882 -4.53414,-5.75652 l 0,-19.04092 c 0,-4.34115 4.80997,-4.65361 4.80997,-4.65361 l 25.0197,-1.36414 c 3.90445,-0.10755 3.88252,-3.58267 3.88252,-3.58267 l 0,-81.09583 c 0,-12.33174 -9.9222,-22.25948 -22.24712,-22.25948 z"
       id="rect4181-3-2"
       inkscape:connector-curvature="0"
       sodipodi:nodetypes="sssssccccccccccccccss" />
    <path
       inkscape:connector-curvature="0"
       d=""
       style="fill:none;stroke:#000000;stroke-width:0.92031395"
       id="path7559-9" />
    <path
       inkscape:connector-curvature="0"
       d=""
       style="fill:none;stroke:#000000;stroke-width:0.92031395"
       id="path7565-3" />
    <path
       inkscape:connector-curvature="0"
       d=""
       style="fill:none;stroke:#000000;stroke-width:0.92031395"
       id="path7579-1" />
    <path
       inkscape:connector-curvature="0"
       id="path8694-9"
       style="fill:none;stroke:#000000;stroke-width:0.34580198"
       d="" />
    <path
       inkscape:connector-curvature="0"
       id="path8700-4"
       style="fill:none;stroke:#000000;stroke-width:0.34580198"
       d="" />
    <path
       inkscape:connector-curvature="0"
       d=""
       style="fill:none;stroke:#000000;stroke-width:0.35269257"
       id="path9252-7" />
    <path
       inkscape:connector-curvature="0"
       d=""
       style="fill:none;stroke:#000000;stroke-width:0.35269257"
       id="path9264-8" />
    <path
       inkscape:connector-curvature="0"
       id="path9834-4"
       style="fill:none;stroke:#000000;stroke-width:0.30682907"
       d="" />
    <path
       id="path4314-5"
       style="fill:none;stroke:#000000;stroke-width:1.21416831"
       d=""
       inkscape:connector-curvature="0" />
    <path
       id="path4324-0"
       style="fill:none;stroke:#000000;stroke-width:1.21416831"
       d=""
       inkscape:connector-curvature="0" />
    <path
       id="path4332-3"
       style="fill:none;stroke:#000000;stroke-width:1.21416831"
       d=""
       inkscape:connector-curvature="0" />
    <path
       id="path4586-6"
       style="fill:none;stroke:#000000;stroke-width:1.21416831"
       d=""
       inkscape:connector-curvature="0" />
    <path
       id="path4604-3-1"
       style="fill:none;stroke:#000000;stroke-width:1.21416831"
       d=""
       inkscape:connector-curvature="0" />
    <ellipse
       style="opacity:0.97000002;fill:none;fill-opacity:1;stroke:#000000;stroke-width:0.33483624;stroke-linecap:round;stroke-linejoin:round;stroke-miterlimit:4;stroke-dasharray:none;stroke-opacity:1"
       id="path9309-6"
       cx="501.3772"
       cy="806.10229"
       rx="1.6034594"
       ry="1.6041975" />
    <path
       style="opacity:1;fill:none;fill-rule:evenodd;stroke:#000000;stroke-width:0.35678571;stroke-linecap:butt;stroke-linejoin:miter;stroke-miterlimit:4;stroke-dasharray:none;stroke-opacity:1"
       d="m 216.55729,814.75338 7.61191,-0.0146 c 0,0 12.81703,1.40659 12.81703,17.91716 l 0,3.34665 c 0,2.18732 -2.26868,1.89164 -2.26868,1.89164 l -17.43461,-0.2227 c -1.55635,0 -3.58259,-1.52735 -3.58259,-3.50646 l 0.11831,-17.06176 c 0,0 0.26105,-2.34514 2.73863,-2.3499 z"
       id="path4210"
       inkscape:connector-curvature="0"
       sodipodi:nodetypes="ccscccccc" />
    <path
       style="opacity:1;fill:none;stroke:#000000;stroke-width:0.35678571;stroke-linejoin:round;stroke-miterlimit:4;stroke-dasharray:none;stroke-opacity:1"
       d="m 22.6451,804.50757 202.86648,0 c 12.31421,0 22.22782,9.92781 22.22782,22.25963 l 0,180.5908 c 0,7.9229 -8.27522,6.824 -8.27522,6.824 l -20.22951,-0.1149 c -12.36138,-0.07 -12.06425,8.133 -12.02493,20.4175 l 0.0326,10.1734 c 0,0 -0.92632,7.5258 -6.80409,7.5258 l -157.027,0 c -2.925747,-3.0752 0.02319,-18.2518 -9.019065,-19.387 -8.824433,-0.8354 -6.498664,19.387 -13.714843,19.387 -16.7655891,-0.2535 -20.25999037,-5.2441 -20.25999037,-19.7516 0,-7.4374 16.61794637,-7.0836 16.61794637,-15.1698 0,-7.127 -16.61794637,-6.0962 -16.61794637,-10.4756 l 0,-180.0196 c 0,-12.33182 9.91359237,-22.25963 22.22779837,-22.25963 z"
       id="rect4181-3"
       inkscape:connector-curvature="0"
       sodipodi:nodetypes="cssccsscccccccccsc" />
    <ellipse
       cy="1050.5906"
       cx="1.7711356"
       id="circle9313"
       style="opacity:0.97000002;fill:none;fill-opacity:1;stroke:#000000;stroke-width:0.33483624;stroke-linecap:round;stroke-linejoin:round;stroke-miterlimit:4;stroke-dasharray:none;stroke-opacity:1"
       rx="1.6034594"
       ry="1.6041975" />
  </g>
</svg>
