<?xml version="1.0" encoding="UTF-8" standalone="no"?>
<!-- Created with Inkscape (http://www.inkscape.org/) -->

<svg
   xmlns:dc="http://purl.org/dc/elements/1.1/"
   xmlns:cc="http://creativecommons.org/ns#"
   xmlns:rdf="http://www.w3.org/1999/02/22-rdf-syntax-ns#"
   xmlns:svg="http://www.w3.org/2000/svg"
   xmlns="http://www.w3.org/2000/svg"
   xmlns:sodipodi="http://sodipodi.sourceforge.net/DTD/sodipodi-0.dtd"
   xmlns:inkscape="http://www.inkscape.org/namespaces/inkscape"
   sodipodi:docname="Side1.svg"
   inkscape:version="0.91 r13725"
   version="1.1"
   id="svg2"
   viewBox="0 0 248.03151 248.03149"
   height="70mm"
   width="70mm">
  <sodipodi:namedview
     inkscape:window-maximized="1"
     inkscape:window-y="1"
     inkscape:window-x="0"
     inkscape:window-height="744"
     inkscape:window-width="1366"
     borderlayer="true"
     showgrid="false"
     inkscape:current-layer="layer4"
     inkscape:document-units="mm"
     inkscape:cy="111.09489"
     inkscape:cx="214.9595"
     inkscape:zoom="150.17447"
     inkscape:pageshadow="2"
     inkscape:pageopacity="0"
     borderopacity="1.0"
     bordercolor="#666666"
     pagecolor="#585858"
     id="base"
     showguides="false"
     inkscape:object-paths="false"
     inkscape:snap-intersection-paths="false" />
  <defs
     id="defs4" />
  <metadata
     id="metadata7">
    <rdf:RDF>
      <cc:Work
         rdf:about="">
        <dc:format>image/svg+xml</dc:format>
        <dc:type
           rdf:resource="http://purl.org/dc/dcmitype/StillImage" />
        <dc:title></dc:title>
      </cc:Work>
    </rdf:RDF>
  </metadata>
  <g
     inkscape:label="Cutout"
     inkscape:groupmode="layer"
     id="layer1"
     transform="translate(0,-804.33071)"
     style="opacity:1">
    <path
       style="fill:none;fill-rule:evenodd;stroke:#000000;stroke-width:0.35702163;stroke-linecap:butt;stroke-linejoin:miter;stroke-miterlimit:4;stroke-dasharray:none;stroke-opacity:1"
       d="m 31.402088,814.75494 -7.622038,-0.0146 c 0,0 -12.834075,1.40658 -12.834075,17.91704 l 0,3.34661 c 0,2.18732 2.271706,1.89164 2.271706,1.89164 l 17.45779,-0.22271 c 1.558424,0 3.587359,-1.52734 3.587359,-3.50643 l -0.118474,-17.06165 c 0,0 -0.261396,-2.34511 -2.742268,-2.34987 z"
       id="path4210"
       inkscape:connector-curvature="0"
       sodipodi:nodetypes="ccscccccc" />
    <path
       style="fill:none;stroke:#000000;stroke-width:0.35702163;stroke-linejoin:round;stroke-miterlimit:4;stroke-dasharray:none;stroke-opacity:1"
       d="m 225.57215,804.5092 -203.136261,0 c -12.330582,0 -22.25737818,9.92774 -22.25737818,22.25947 l 0,203.15543 c 0,12.3317 7.64684268,22.2596 19.97741418,22.2596 l 184.622515,0 c 2.92964,-3.0752 -0.0232,-18.2517 9.03106,-19.3868 8.83617,-0.8355 6.5073,19.3868 13.73308,19.3868 16.78789,-0.2534 20.28693,-5.2441 20.28693,-19.7515 0,-7.4374 -16.64004,-7.0836 -16.64004,-15.1697 0,-7.127 16.64004,-6.0962 16.64004,-10.4755 l 0,-58.92078 c 0,0 0.486,-3.88311 -2.99561,-4.08498 l -26.19586,-1.51891 c 0,0 -4.53623,-0.65882 -4.53623,-5.75652 l 0,-19.04092 c 0,-4.34115 4.81218,-4.6536 4.81218,-4.6536 l 25.03121,-1.36414 c 3.90625,-0.10755 3.88431,-3.58267 3.88431,-3.58267 l 0,-81.09581 c 0,-12.33173 -9.92677,-22.25947 -22.25736,-22.25947 z"
       id="rect4181-3"
       inkscape:connector-curvature="0"
       sodipodi:nodetypes="sssssccccccccccccccss" />
  </g>
  <g
     inkscape:groupmode="layer"
     id="layer3"
     inkscape:label="Dividers"
     transform="translate(0,-3.8582677e-5)">
    <path
       d=""
       style="fill:none;stroke:#000000;stroke-width:0.20732725"
       id="path13036"
       inkscape:connector-curvature="0" />
    <path
       id="path4251"
       style="fill:none;stroke:#000000;stroke-width:0.26252338"
       d=""
       inkscape:connector-curvature="0" />
    <path
       id="path4255"
       style="fill:none;stroke:#000000;stroke-width:0.26252338"
       d=""
       inkscape:connector-curvature="0" />
    <path
       id="path4265"
       style="fill:none;stroke:#000000;stroke-width:0.26252338"
       d=""
       inkscape:connector-curvature="0" />
    <path
       id="path4269"
       style="fill:none;stroke:#000000;stroke-width:0.26252338"
       d=""
       inkscape:connector-curvature="0" />
    <path
       d=""
       style="fill:none;stroke:#000000;stroke-width:0.26892704"
       id="path4369"
       inkscape:connector-curvature="0" />
    <path
       d=""
       style="fill:none;stroke:#000000;stroke-width:0.26892704"
       id="path4373"
       inkscape:connector-curvature="0" />
    <path
       d=""
       style="fill:none;stroke:#000000;stroke-width:0.26892704"
       id="path4383"
       inkscape:connector-curvature="0" />
    <path
       d=""
       style="fill:none;stroke:#000000;stroke-width:0.26892704"
       id="path4387"
       inkscape:connector-curvature="0" />
    <path
       id="path6267"
       style="fill:none;stroke:#000000;stroke-width:0.41828161"
       d=""
       inkscape:connector-curvature="0" />
    <path
       id="path6287"
       style="fill:none;stroke:#000000;stroke-width:0.41828161"
       d=""
       inkscape:connector-curvature="0" />
    <path
       id="path6295"
       style="fill:none;stroke:#000000;stroke-width:0.41828161"
       d=""
       inkscape:connector-curvature="0" />
  </g>
  <g
     inkscape:groupmode="layer"
     id="layer6"
     inkscape:label="Graphics"
     transform="translate(0,-3.8582677e-5)" />
  <g
     inkscape:groupmode="layer"
     id="layer4"
     inkscape:label="Text"
     transform="translate(0,-3.8582677e-5)">
    <path
       inkscape:connector-curvature="0"
       d=""
       style="fill:none;stroke:#000000;stroke-width:0.92052549"
       id="path7559" />
    <path
       inkscape:connector-curvature="0"
       d=""
       style="fill:none;stroke:#000000;stroke-width:0.92052549"
       id="path7565" />
    <path
       inkscape:connector-curvature="0"
       d=""
       style="fill:none;stroke:#000000;stroke-width:0.92052549"
       id="path7579" />
    <path
       inkscape:connector-curvature="0"
       id="path8694"
       style="fill:none;stroke:#000000;stroke-width:0.34588146"
       d="" />
    <path
       inkscape:connector-curvature="0"
       id="path8700"
       style="fill:none;stroke:#000000;stroke-width:0.34588146"
       d="" />
    <path
       inkscape:connector-curvature="0"
       d=""
       style="fill:none;stroke:#000000;stroke-width:0.35277364"
       id="path9252" />
    <path
       inkscape:connector-curvature="0"
       d=""
       style="fill:none;stroke:#000000;stroke-width:0.35277364"
       id="path9264" />
    <path
       inkscape:connector-curvature="0"
       id="path9834"
       style="fill:none;stroke:#000000;stroke-width:0.30689958"
       d="" />
    <path
       id="path4314"
       style="fill:none;stroke:#000000;stroke-width:1.21444738"
       d=""
       inkscape:connector-curvature="0" />
    <path
       id="path4324"
       style="fill:none;stroke:#000000;stroke-width:1.21444738"
       d=""
       inkscape:connector-curvature="0" />
    <path
       id="path4332"
       style="fill:none;stroke:#000000;stroke-width:1.21444738"
       d=""
       inkscape:connector-curvature="0" />
    <path
       id="path4586"
       style="fill:none;stroke:#000000;stroke-width:1.21444738"
       d=""
       inkscape:connector-curvature="0" />
    <path
       id="path4604-3"
       style="fill:none;stroke:#000000;stroke-width:1.21444738"
       d=""
       inkscape:connector-curvature="0" />
    <path
       inkscape:connector-curvature="0"
       id="path4202"
       d="m 217.1493,108.798 -216.9682577,0"
       style="fill:none;fill-opacity:0.2961877;stroke:#000000;stroke-width:0.35700002;stroke-linecap:round;stroke-linejoin:round;stroke-miterlimit:4;stroke-dasharray:none;stroke-opacity:1"
       sodipodi:nodetypes="cc" />
    <path
       style="fill:none;fill-opacity:0.2961877;stroke:#000000;stroke-width:0.35700002;stroke-linecap:round;stroke-linejoin:round;stroke-miterlimit:4;stroke-dasharray:none;stroke-opacity:1"
       d="m 216.34786,137.05949 -216.39847517,0"
       id="path4204"
       inkscape:connector-curvature="0"
       sodipodi:nodetypes="cc" />
    <g
       id="g9325">
      <circle
         r="1.604197"
         cy="1.7716846"
         cx="246.25986"
         id="path9309"
         style="opacity:0.97000002;fill:none;fill-opacity:1;stroke:#000000;stroke-width:0.33491319;stroke-linecap:round;stroke-linejoin:round;stroke-miterlimit:4;stroke-dasharray:none;stroke-opacity:1" />
      <circle
         style="opacity:0.97000002;fill:none;fill-opacity:1;stroke:#000000;stroke-width:0.33491319;stroke-linecap:round;stroke-linejoin:round;stroke-miterlimit:4;stroke-dasharray:none;stroke-opacity:1"
         id="circle9313"
         cx="1.7716537"
         cy="246.25989"
         r="1.604197" />
    </g>
    <g
       inkscape:label="Hershey Text"
       transform="matrix(0.58561103,0,0,0.58561103,7.2244189,124.01294)"
       id="g6910">
      <path
         inkscape:connector-curvature="0"
         d="m 8,-7 -1,-2 -2,-2 -2,-1 -4,0 -2,1 -2,2 -1,2 -1,3 0,5 1,3 1,2 2,2 2,1 L 3,9 5,8 7,6 8,4"
         style="fill:none;stroke:#000000"
         transform="translate(10,0)"
         id="path6912" />
      <path
         inkscape:connector-curvature="0"
         d="m -5,-12 0,21 m 0,-10 3,-3 2,-1 3,0 2,1 1,3 0,10"
         style="fill:none;stroke:#000000"
         transform="translate(30,0)"
         id="path6914" />
      <path
         inkscape:connector-curvature="0"
         d="M 6,-5 6,9 M 6,-2 4,-4 2,-5 l -3,0 -2,1 -2,2 -1,3 0,2 1,3 2,2 2,1 3,0 2,-1 2,-2"
         style="fill:none;stroke:#000000"
         transform="translate(49,0)"
         id="path6916" />
      <path
         inkscape:connector-curvature="0"
         d="M 0,-12 0,9"
         style="fill:none;stroke:#000000"
         transform="translate(63,0)"
         id="path6918" />
      <path
         inkscape:connector-curvature="0"
         d="m -11,-5 0,14 m 0,-10 3,-3 2,-1 3,0 2,1 1,3 0,10 m 0,-10 3,-3 2,-1 3,0 2,1 1,3 0,10"
         style="fill:none;stroke:#000000"
         transform="translate(82,0)"
         id="path6920" />
      <path
         inkscape:connector-curvature="0"
         d="M -6,1 6,1 6,-1 5,-3 4,-4 2,-5 l -3,0 -2,1 -2,2 -1,3 0,2 1,3 2,2 2,1 3,0 2,-1 2,-2"
         style="fill:none;stroke:#000000"
         transform="translate(106,0)"
         id="path6922" />
      <path
         inkscape:connector-curvature="0"
         d="m -3,-5 0,14 m 0,-8 1,-3 2,-2 2,-1 3,0"
         style="fill:none;stroke:#000000"
         transform="translate(122,0)"
         id="path6924" />
      <path
         inkscape:connector-curvature="0"
         d="m 6,-2 -1,-2 -3,-1 -3,0 -3,1 -1,2 1,2 2,1 L 3,2 5,3 6,5 6,6 5,8 2,9 -1,9 -4,8 -5,6"
         style="fill:none;stroke:#000000"
         transform="translate(136,0)"
         id="path6926" />
      <path
         inkscape:connector-curvature="0"
         d="m 8,-7 -1,-2 -2,-2 -2,-1 -4,0 -2,1 -2,2 -1,2 -1,3 0,5 1,3 1,2 2,2 2,1 L 3,9 5,8 7,6 8,4"
         style="fill:none;stroke:#000000"
         transform="translate(155,0)"
         id="path6928" />
      <path
         inkscape:connector-curvature="0"
         d="M 6,-5 6,9 M 6,-2 4,-4 2,-5 l -3,0 -2,1 -2,2 -1,3 0,2 1,3 2,2 2,1 3,0 2,-1 2,-2"
         style="fill:none;stroke:#000000"
         transform="translate(175,0)"
         id="path6930" />
      <path
         inkscape:connector-curvature="0"
         d="m -3,-5 0,14 m 0,-8 1,-3 2,-2 2,-1 3,0"
         style="fill:none;stroke:#000000"
         transform="translate(192,0)"
         id="path6932" />
      <path
         inkscape:connector-curvature="0"
         d="M 6,-12 6,9 M 6,-2 4,-4 2,-5 l -3,0 -2,1 -2,2 -1,3 0,2 1,3 2,2 2,1 3,0 2,-1 2,-2"
         style="fill:none;stroke:#000000"
         transform="translate(207,0)"
         id="path6934" />
      <path
         inkscape:connector-curvature="0"
         d="m 6,-2 -1,-2 -3,-1 -3,0 -3,1 -1,2 1,2 2,1 L 3,2 5,3 6,5 6,6 5,8 2,9 -1,9 -4,8 -5,6"
         style="fill:none;stroke:#000000"
         transform="translate(225,0)"
         id="path6936" />
      <path
         inkscape:connector-curvature="0"
         d="M 0,4 -1,5 0,6 1,5 0,4"
         style="fill:none;stroke:#000000"
         transform="translate(238,0)"
         id="path6938" />
      <path
         inkscape:connector-curvature="0"
         d="m 6,-2 -2,-2 -2,-1 -3,0 -2,1 -2,2 -1,3 0,2 1,3 2,2 2,1 3,0 2,-1 2,-2"
         style="fill:none;stroke:#000000"
         transform="translate(251,0)"
         id="path6940" />
      <path
         inkscape:connector-curvature="0"
         d="m -1,-5 -2,1 -2,2 -1,3 0,2 1,3 2,2 2,1 L 2,9 4,8 6,6 7,3 7,1 6,-2 4,-4 2,-5 -1,-5"
         style="fill:none;stroke:#000000"
         transform="translate(269,0)"
         id="path6942" />
      <path
         inkscape:connector-curvature="0"
         d="m -11,-5 0,14 m 0,-10 3,-3 2,-1 3,0 2,1 1,3 0,10 m 0,-10 3,-3 2,-1 3,0 2,1 1,3 0,10"
         style="fill:none;stroke:#000000"
         transform="translate(294,0)"
         id="path6944" />
    </g>
  </g>
</svg>
