<?xml version="1.0" encoding="UTF-8" standalone="no"?>
<svg
   xmlns:dc="http://purl.org/dc/elements/1.1/"
   xmlns:cc="http://creativecommons.org/ns#"
   xmlns:rdf="http://www.w3.org/1999/02/22-rdf-syntax-ns#"
   xmlns:svg="http://www.w3.org/2000/svg"
   xmlns="http://www.w3.org/2000/svg"
   width="560mm"
   height="70mm"
   viewBox="0 0 1984.252 248.03149"
   id="svg2"
   version="1.1">
  <defs
     id="defs4" />
  <metadata
     id="metadata7">
    <rdf:RDF>
      <cc:Work
         rdf:about="">
        <dc:format>image/svg+xml</dc:format>
        <dc:type
           rdf:resource="http://purl.org/dc/dcmitype/StillImage" />
        <dc:title></dc:title>
      </cc:Work>
    </rdf:RDF>
  </metadata>
  <path
     id="path4210"
     d="m 279.36707,10.34158 -7.62754,-0.0146 c 0,0 -12.84332,1.4076 -12.84332,17.93 l 0,3.34904 c 0,2.1889 2.27334,1.89301 2.27334,1.89301 l 17.47037,-0.22287 c 1.55955,0 3.58995,-1.52844 3.58995,-3.50897 l -0.11856,-17.074 c 0,0 -0.26158,-2.34681 -2.74424,-2.35157 z"
     style="opacity:1;fill:none;fill-rule:evenodd;stroke:#000000;stroke-width:0.17863974;stroke-linecap:butt;stroke-linejoin:miter;stroke-miterlimit:4;stroke-dasharray:none;stroke-opacity:1" />
  <path
     id="rect4181-3"
     d="m 473.6771,0.08843 -203.2827,0 c -12.33947,0 -22.27342,9.93493 -22.27342,22.27557 l 0,203.30259 c 0,12.3406 7.65235,22.2756 19.99182,22.2756 l 184.75559,0 c 2.93175,-3.0774 -0.0232,-18.2649 9.03757,-19.4008 8.84254,-0.8361 6.512,19.4008 13.74298,19.4008 16.79999,-0.2536 20.30156,-5.2479 20.30156,-19.7658 0,-7.4427 -16.65204,-7.0886 -16.65204,-15.1806 0,-7.1321 16.65204,-6.1006 16.65204,-10.4832 l 0,-58.96339 c 0,0 0.48634,-3.88591 -2.99778,-4.08794 l -26.21474,-1.52001 c 0,0 -4.53951,-0.65929 -4.53951,-5.76068 l 0,-19.0547 c 0,-4.3443 4.81567,-4.65698 4.81567,-4.65698 l 25.04923,-1.36511 c 3.90908,-0.10764 3.88713,-3.58528 3.88713,-3.58528 l 0,-81.1545 c 0,-12.34064 -9.93393,-22.27557 -22.2734,-22.27557 z"
     style="opacity:1;fill:none;stroke:#000000;stroke-width:0.17863974;stroke-linejoin:round;stroke-miterlimit:4;stroke-dasharray:none;stroke-opacity:1" />
  <path
     id="path4210-5"
     d="M 31.337887,10.3416 23.709595,10.327 c 0,0 -12.8446,1.4076 -12.8446,17.93007 l 0,3.34906 c 0,2.1889 2.273569,1.89301 2.273569,1.89301 l 17.472109,-0.22287 c 1.559702,0 3.590301,-1.52845 3.590301,-3.50899 L 34.082403,12.69322 c 0,0 -0.26161,-2.34682 -2.744516,-2.35158 z"
     style="opacity:1;fill:none;fill-rule:evenodd;stroke:#000000;stroke-width:0.17704143;stroke-linecap:butt;stroke-linejoin:miter;stroke-miterlimit:4;stroke-dasharray:none;stroke-opacity:1" />
  <path
     id="rect4181-3-3"
     d="m 225.66721,0.08841 -203.302877,0 c -12.340697,0 -22.27563494,9.93496 -22.27563494,22.27566 l 0,180.72092 c 0,7.9287 8.29302704,6.829 8.29302704,6.829 l 20.2730209,-0.115 c 12.38797,-0.07 12.0902,8.1389 12.050798,20.4322 l -0.03263,10.1808 c 0,0 0.928306,7.5312 6.818727,7.5312 l 157.364789,0 c 2.93204,-3.0774 -0.0232,-18.265 9.03847,-19.401 8.84341,-0.836 6.51264,19.401 13.74434,19.401 16.80166,-0.2537 20.30358,-5.2479 20.30358,-19.7659 0,-7.4427 -16.6537,-7.0886 -16.6537,-15.1807 0,-7.1321 16.6537,-6.1006 16.6537,-10.4832 l 0,-180.14932 c 0,-12.3407 -9.93492,-22.27566 -22.27562,-22.27566 z"
     style="opacity:1;fill:none;stroke:#000000;stroke-width:0.17704143;stroke-linejoin:round;stroke-miterlimit:4;stroke-dasharray:none;stroke-opacity:1" />
  <path
     style="opacity:1;fill:none;fill-rule:evenodd;stroke:#000000;stroke-width:0.17863974;stroke-linecap:butt;stroke-linejoin:miter;stroke-miterlimit:4;stroke-dasharray:none;stroke-opacity:1"
     d="m 775.42988,10.34158 -7.62754,-0.0146 c 0,0 -12.84332,1.4076 -12.84332,17.93 l 0,3.34904 c 0,2.1889 2.27334,1.89301 2.27334,1.89301 l 17.47037,-0.22287 c 1.55955,0 3.58995,-1.52844 3.58995,-3.50897 l -0.11856,-17.074 c 0,0 -0.26158,-2.34681 -2.74424,-2.35157 z"
     id="path3340" />
  <path
     style="opacity:1;fill:none;stroke:#000000;stroke-width:0.17863974;stroke-linejoin:round;stroke-miterlimit:4;stroke-dasharray:none;stroke-opacity:1"
     d="m 969.73991,0.08843 -203.2827,0 c -12.33947,0 -22.27342,9.93493 -22.27342,22.27557 l 0,203.30259 c 0,12.3406 7.65235,22.2756 19.99182,22.2756 l 184.75559,0 c 2.93175,-3.0774 -0.0232,-18.2649 9.03757,-19.4008 8.84254,-0.8361 6.512,19.4008 13.74298,19.4008 16.79999,-0.2536 20.30156,-5.2479 20.30156,-19.7658 0,-7.4427 -16.65204,-7.0886 -16.65204,-15.1806 0,-7.1321 16.65204,-6.1006 16.65204,-10.4832 l 0,-58.96339 c 0,0 0.48634,-3.88591 -2.99778,-4.08794 l -26.21474,-1.52001 c 0,0 -4.53951,-0.65929 -4.53951,-5.76068 l 0,-19.0547 c 0,-4.3443 4.81567,-4.65698 4.81567,-4.65698 l 25.04923,-1.36511 c 3.90908,-0.10764 3.88713,-3.58528 3.88713,-3.58528 l 0,-81.1545 c 0,-12.34064 -9.93393,-22.27557 -22.2734,-22.27557 z"
     id="path3342" />
  <path
     style="opacity:1;fill:none;fill-rule:evenodd;stroke:#000000;stroke-width:0.17704143;stroke-linecap:butt;stroke-linejoin:miter;stroke-miterlimit:4;stroke-dasharray:none;stroke-opacity:1"
     d="m 527.4007,10.3416 -7.62829,-0.0146 c 0,0 -12.8446,1.4076 -12.8446,17.93007 l 0,3.34906 c 0,2.1889 2.27356,1.89301 2.27356,1.89301 l 17.47211,-0.22287 c 1.55971,0 3.5903,-1.52845 3.5903,-3.50899 l -0.11857,-17.07406 c 0,0 -0.26161,-2.34682 -2.74451,-2.35158 z"
     id="path3344" />
  <path
     style="opacity:1;fill:none;stroke:#000000;stroke-width:0.17704143;stroke-linejoin:round;stroke-miterlimit:4;stroke-dasharray:none;stroke-opacity:1"
     d="m 721.73002,0.08841 -203.30288,0 c -12.34069,0 -22.27563,9.93496 -22.27563,22.27566 l 0,180.72092 c 0,7.9287 8.29303,6.829 8.29303,6.829 l 20.27302,-0.115 c 12.38797,-0.07 12.0902,8.1389 12.05079,20.4322 l -0.0326,10.1808 c 0,0 0.92831,7.5312 6.81873,7.5312 l 157.36479,0 c 2.93204,-3.0774 -0.0232,-18.265 9.03847,-19.401 8.84341,-0.836 6.51264,19.401 13.74434,19.401 16.80166,-0.2537 20.30358,-5.2479 20.30358,-19.7659 0,-7.4427 -16.6537,-7.0886 -16.6537,-15.1807 0,-7.1321 16.6537,-6.1006 16.6537,-10.4832 l 0,-180.14932 c 0,-12.3407 -9.93492,-22.27566 -22.27562,-22.27566 z"
     id="path3346" />
  <path
     style="opacity:1;fill:none;fill-rule:evenodd;stroke:#000000;stroke-width:0.17863974;stroke-linecap:butt;stroke-linejoin:miter;stroke-miterlimit:4;stroke-dasharray:none;stroke-opacity:1"
     d="m 1271.4929,10.34158 -7.6276,-0.0146 c 0,0 -12.8433,1.4076 -12.8433,17.93 l 0,3.34904 c 0,2.1889 2.2734,1.89301 2.2734,1.89301 l 17.4703,-0.22287 c 1.5596,0 3.59,-1.52844 3.59,-3.50897 l -0.1186,-17.074 c 0,0 -0.2616,-2.34681 -2.7442,-2.35157 z"
     id="path3360" />
  <path
     style="opacity:1;fill:none;stroke:#000000;stroke-width:0.17863974;stroke-linejoin:round;stroke-miterlimit:4;stroke-dasharray:none;stroke-opacity:1"
     d="m 1465.8029,0.08843 -203.2827,0 c -12.3395,0 -22.2734,9.93493 -22.2734,22.27557 l 0,203.30259 c 0,12.3406 7.6523,22.2756 19.9918,22.2756 l 184.7556,0 c 2.9318,-3.0774 -0.023,-18.2649 9.0376,-19.4008 8.8425,-0.8361 6.512,19.4008 13.743,19.4008 16.7999,-0.2536 20.3015,-5.2479 20.3015,-19.7658 0,-7.4427 -16.652,-7.0886 -16.652,-15.1806 0,-7.1321 16.652,-6.1006 16.652,-10.4832 l 0,-58.96339 c 0,0 0.4864,-3.88591 -2.9978,-4.08794 l -26.2147,-1.52001 c 0,0 -4.5395,-0.65929 -4.5395,-5.76068 l 0,-19.0547 c 0,-4.3443 4.8157,-4.65698 4.8157,-4.65698 l 25.0492,-1.36511 c 3.9091,-0.10764 3.8871,-3.58528 3.8871,-3.58528 l 0,-81.1545 c 0,-12.34064 -9.9339,-22.27557 -22.2734,-22.27557 z"
     id="path3362" />
  <path
     style="opacity:1;fill:none;fill-rule:evenodd;stroke:#000000;stroke-width:0.17704143;stroke-linecap:butt;stroke-linejoin:miter;stroke-miterlimit:4;stroke-dasharray:none;stroke-opacity:1"
     d="m 1023.4637,10.3416 -7.6283,-0.0146 c 0,0 -12.8446,1.4076 -12.8446,17.93007 l 0,3.34906 c 0,2.1889 2.2736,1.89301 2.2736,1.89301 l 17.4721,-0.22287 c 1.5597,0 3.5903,-1.52845 3.5903,-3.50899 l -0.1186,-17.07406 c 0,0 -0.2616,-2.34682 -2.7445,-2.35158 z"
     id="path3364" />
  <path
     style="opacity:1;fill:none;stroke:#000000;stroke-width:0.17704143;stroke-linejoin:round;stroke-miterlimit:4;stroke-dasharray:none;stroke-opacity:1"
     d="m 1217.793,0.08841 -203.3029,0 c -12.3407,0 -22.27559,9.93496 -22.27559,22.27566 l 0,180.72092 c 0,7.9287 8.29299,6.829 8.29299,6.829 l 20.2731,-0.115 c 12.3879,-0.07 12.0902,8.1389 12.0508,20.4322 l -0.033,10.1808 c 0,0 0.9283,7.5312 6.8188,7.5312 l 157.3647,0 c 2.9321,-3.0774 -0.023,-18.265 9.0385,-19.401 8.8434,-0.836 6.5127,19.401 13.7444,19.401 16.8016,-0.2537 20.3035,-5.2479 20.3035,-19.7659 0,-7.4427 -16.6537,-7.0886 -16.6537,-15.1807 0,-7.1321 16.6537,-6.1006 16.6537,-10.4832 l 0,-180.14932 c 0,-12.3407 -9.9349,-22.27566 -22.2756,-22.27566 z"
     id="path3366" />
  <path
     id="path3370"
     d="m 1767.5557,10.34158 -7.6276,-0.0146 c 0,0 -12.8433,1.4076 -12.8433,17.93 l 0,3.34904 c 0,2.1889 2.2734,1.89301 2.2734,1.89301 l 17.4703,-0.22287 c 1.5596,0 3.59,-1.52844 3.59,-3.50897 l -0.1186,-17.074 c 0,0 -0.2616,-2.34681 -2.7442,-2.35157 z"
     style="opacity:1;fill:none;fill-rule:evenodd;stroke:#000000;stroke-width:0.17863974;stroke-linecap:butt;stroke-linejoin:miter;stroke-miterlimit:4;stroke-dasharray:none;stroke-opacity:1" />
  <path
     id="path3372"
     d="m 1961.8657,0.08843 -203.2827,0 c -12.3395,0 -22.2734,9.93493 -22.2734,22.27557 l 0,203.30259 c 0,12.3406 7.6523,22.2756 19.9918,22.2756 l 184.7556,0 c 2.9317,-3.0774 -0.023,-18.2649 9.0376,-19.4008 8.8425,-0.8361 6.512,19.4008 13.7429,19.4008 16.8,-0.2536 20.3016,-5.2479 20.3016,-19.7658 0,-7.4427 -16.652,-7.0886 -16.652,-15.1806 0,-7.1321 16.652,-6.1006 16.652,-10.4832 l 0,-58.96339 c 0,0 0.4863,-3.88591 -2.9978,-4.08794 l -26.2147,-1.52001 c 0,0 -4.5395,-0.65929 -4.5395,-5.76068 l 0,-19.0547 c 0,-4.3443 4.8156,-4.65698 4.8156,-4.65698 l 25.0493,-1.36511 c 3.9091,-0.10764 3.8871,-3.58528 3.8871,-3.58528 l 0,-81.1545 c 0,-12.34064 -9.9339,-22.27557 -22.2734,-22.27557 z"
     style="opacity:1;fill:none;stroke:#000000;stroke-width:0.17863974;stroke-linejoin:round;stroke-miterlimit:4;stroke-dasharray:none;stroke-opacity:1" />
  <path
     id="path3374"
     d="m 1519.5265,10.3416 -7.6283,-0.0146 c 0,0 -12.8446,1.4076 -12.8446,17.93007 l 0,3.34906 c 0,2.1889 2.2736,1.89301 2.2736,1.89301 l 17.4721,-0.22287 c 1.5597,0 3.5903,-1.52845 3.5903,-3.50899 l -0.1186,-17.07406 c 0,0 -0.2616,-2.34682 -2.7445,-2.35158 z"
     style="opacity:1;fill:none;fill-rule:evenodd;stroke:#000000;stroke-width:0.17704143;stroke-linecap:butt;stroke-linejoin:miter;stroke-miterlimit:4;stroke-dasharray:none;stroke-opacity:1" />
  <path
     id="path3376"
     d="m 1713.8558,0.08841 -203.3029,0 c -12.3407,0 -22.2756,9.93496 -22.2756,22.27566 l 0,180.72092 c 0,7.9287 8.293,6.829 8.293,6.829 l 20.273,-0.115 c 12.388,-0.07 12.0902,8.1389 12.0508,20.4322 l -0.033,10.1808 c 0,0 0.9283,7.5312 6.8187,7.5312 l 157.3648,0 c 2.9321,-3.0774 -0.023,-18.265 9.0385,-19.401 8.8434,-0.836 6.5126,19.401 13.7443,19.401 16.8017,-0.2537 20.3036,-5.2479 20.3036,-19.7659 0,-7.4427 -16.6537,-7.0886 -16.6537,-15.1807 0,-7.1321 16.6537,-6.1006 16.6537,-10.4832 l 0,-180.14932 c 0,-12.3407 -9.9349,-22.27566 -22.2756,-22.27566 z"
     style="opacity:1;fill:none;stroke:#000000;stroke-width:0.17704143;stroke-linejoin:round;stroke-miterlimit:4;stroke-dasharray:none;stroke-opacity:1" />
</svg>
