<?xml version="1.0" encoding="UTF-8" standalone="no"?>
<svg
   xmlns:dc="http://purl.org/dc/elements/1.1/"
   xmlns:cc="http://creativecommons.org/ns#"
   xmlns:rdf="http://www.w3.org/1999/02/22-rdf-syntax-ns#"
   xmlns:svg="http://www.w3.org/2000/svg"
   xmlns="http://www.w3.org/2000/svg"
   width="280mm"
   height="280mm"
   viewBox="0 0 992.126 992.12596"
   id="svg2"
   version="1.1">
  <defs
     id="defs4" />
  <metadata
     id="metadata7">
    <rdf:RDF>
      <cc:Work
         rdf:about="">
        <dc:format>image/svg+xml</dc:format>
        <dc:type
           rdf:resource="http://purl.org/dc/dcmitype/StillImage" />
        <dc:title></dc:title>
      </cc:Work>
    </rdf:RDF>
  </metadata>
  <g
     style="display:inline;opacity:0.23699999"
     id="layer5"
     transform="translate(0,744.09449)" />
  <g
     transform="translate(0,-60.236218)"
     id="layer1">
    <path
       style="fill:none;fill-rule:evenodd;stroke:#000000;stroke-width:0.03595471;stroke-linecap:butt;stroke-linejoin:miter;stroke-miterlimit:4;stroke-dasharray:none;stroke-opacity:1"
       d="m 31.284235,814.60704 -7.632637,-0.0146 c 0,0 -12.851921,1.40842 -12.851921,17.94026 l 0,3.35096 c 0,2.19015 2.274864,1.89408 2.274864,1.89408 l 17.482078,-0.22299 c 1.560592,0 3.592349,-1.5293 3.592349,-3.51097 L 34.030327,816.96 c 0,0 -0.261758,-2.34815 -2.746092,-2.35292 z"
       id="path4210" />
    <path
       style="fill:none;stroke:#000000;stroke-width:0.03595471;stroke-linejoin:round;stroke-miterlimit:4;stroke-dasharray:none;stroke-opacity:1"
       d="m 225.72519,804.34873 -203.418885,0 c -12.3477256,0 -22.28832765,9.9406 -22.28832765,22.28832 l 0,203.41885 c 0,12.3477 7.65747805,22.2884 20.00520365,22.2884 l 184.879359,0 c 2.93372,-3.0792 -0.0232,-18.2753 9.04364,-19.412 8.84846,-0.8365 6.51635,19.412 13.75218,19.412 16.81124,-0.2537 20.31516,-5.2509 20.31516,-19.7771 0,-7.447 -16.66319,-7.0927 -16.66319,-15.1895 0,-7.1361 16.66319,-6.104 16.66319,-10.489 l 0,-180.25165 c 0,-12.34772 -9.94059,-22.28832 -22.28833,-22.28832 z"
       id="rect4181" />
    <path
       id="path4171"
       d="m 279.31573,814.60704 -7.63264,-0.0146 c 0,0 -12.85192,1.40842 -12.85192,17.94026 l 0,3.35096 c 0,2.19015 2.27487,1.89408 2.27487,1.89408 l 17.48208,-0.22299 c 1.56059,0 3.59234,-1.5293 3.59234,-3.51097 L 282.06182,816.96 c 0,0 -0.26175,-2.34815 -2.74609,-2.35292 z"
       style="fill:none;fill-rule:evenodd;stroke:#000000;stroke-width:0.03595471;stroke-linecap:butt;stroke-linejoin:miter;stroke-miterlimit:4;stroke-dasharray:none;stroke-opacity:1" />
    <path
       id="path4173"
       d="m 473.75669,804.34873 -203.41889,0 c -12.34772,0 -22.28833,9.9406 -22.28833,22.28832 l 0,203.41885 c 0,12.3477 7.65748,22.2884 20.00521,22.2884 l 184.87936,0 c 2.93372,-3.0792 -0.0232,-18.2753 9.04364,-19.412 8.84846,-0.8365 6.51635,19.412 13.75218,19.412 16.81124,-0.2537 20.31516,-5.2509 20.31516,-19.7771 0,-7.447 -16.66319,-7.0927 -16.66319,-15.1895 0,-7.1361 16.66319,-6.104 16.66319,-10.489 l 0,-180.25165 c 0,-12.34772 -9.94059,-22.28832 -22.28833,-22.28832 z"
       style="fill:none;stroke:#000000;stroke-width:0.03595471;stroke-linejoin:round;stroke-miterlimit:4;stroke-dasharray:none;stroke-opacity:1" />
    <path
       id="path4175"
       d="m 31.284235,566.57547 -7.632637,-0.0146 c 0,0 -12.851921,1.40842 -12.851921,17.94026 l 0,3.35096 c 0,2.19015 2.274864,1.89408 2.274864,1.89408 l 17.482078,-0.22299 c 1.560592,0 3.592349,-1.5293 3.592349,-3.51097 l -0.118641,-17.08378 c 0,0 -0.261758,-2.34815 -2.746092,-2.35292 z"
       style="fill:none;fill-rule:evenodd;stroke:#000000;stroke-width:0.03595471;stroke-linecap:butt;stroke-linejoin:miter;stroke-miterlimit:4;stroke-dasharray:none;stroke-opacity:1" />
    <path
       id="path4177"
       d="m 225.72519,556.31716 -203.418885,0 c -12.3477256,0 -22.28832765,9.9406 -22.28832765,22.28832 l 0,203.41885 c 0,12.3477 7.65747805,22.2884 20.00520365,22.2884 l 184.879359,0 c 2.93372,-3.0792 -0.0232,-18.2753 9.04364,-19.412 8.84846,-0.8365 6.51635,19.412 13.75218,19.412 16.81124,-0.2537 20.31516,-5.2509 20.31516,-19.7771 0,-7.447 -16.66319,-7.0927 -16.66319,-15.1895 0,-7.1361 16.66319,-6.104 16.66319,-10.489 l 0,-180.25165 c 0,-12.34772 -9.94059,-22.28832 -22.28833,-22.28832 z"
       style="fill:none;stroke:#000000;stroke-width:0.03595471;stroke-linejoin:round;stroke-miterlimit:4;stroke-dasharray:none;stroke-opacity:1" />
    <path
       style="fill:none;fill-rule:evenodd;stroke:#000000;stroke-width:0.03595471;stroke-linecap:butt;stroke-linejoin:miter;stroke-miterlimit:4;stroke-dasharray:none;stroke-opacity:1"
       d="m 279.31573,566.57547 -7.63264,-0.0146 c 0,0 -12.85192,1.40842 -12.85192,17.94026 l 0,3.35096 c 0,2.19015 2.27487,1.89408 2.27487,1.89408 l 17.48208,-0.22299 c 1.56059,0 3.59234,-1.5293 3.59234,-3.51097 l -0.11864,-17.08378 c 0,0 -0.26175,-2.34815 -2.74609,-2.35292 z"
       id="path4179" />
    <path
       style="fill:none;stroke:#000000;stroke-width:0.03595471;stroke-linejoin:round;stroke-miterlimit:4;stroke-dasharray:none;stroke-opacity:1"
       d="m 473.75669,556.31716 -203.41889,0 c -12.34772,0 -22.28833,9.9406 -22.28833,22.28832 l 0,203.41885 c 0,12.3477 7.65748,22.2884 20.00521,22.2884 l 184.87936,0 c 2.93372,-3.0792 -0.0232,-18.2753 9.04364,-19.412 8.84846,-0.8365 6.51635,19.412 13.75218,19.412 16.81124,-0.2537 20.31516,-5.2509 20.31516,-19.7771 0,-7.447 -16.66319,-7.0927 -16.66319,-15.1895 0,-7.1361 16.66319,-6.104 16.66319,-10.489 l 0,-180.25165 c 0,-12.34772 -9.94059,-22.28832 -22.28833,-22.28832 z"
       id="path4181" />
    <path
       id="path4183"
       d="m 527.34723,814.60704 -7.63264,-0.0146 c 0,0 -12.85192,1.40842 -12.85192,17.94026 l 0,3.35096 c 0,2.19015 2.27486,1.89408 2.27486,1.89408 l 17.48208,-0.22299 c 1.56059,0 3.59235,-1.5293 3.59235,-3.51097 L 530.09332,816.96 c 0,0 -0.26176,-2.34815 -2.74609,-2.35292 z"
       style="fill:none;fill-rule:evenodd;stroke:#000000;stroke-width:0.03595471;stroke-linecap:butt;stroke-linejoin:miter;stroke-miterlimit:4;stroke-dasharray:none;stroke-opacity:1" />
    <path
       id="path4185"
       d="m 721.78818,804.34873 -203.41888,0 c -12.34773,0 -22.28833,9.9406 -22.28833,22.28832 l 0,203.41885 c 0,12.3477 7.65748,22.2884 20.0052,22.2884 l 184.87936,0 c 2.93372,-3.0792 -0.0232,-18.2753 9.04364,-19.412 8.84846,-0.8365 6.51635,19.412 13.75218,19.412 16.81124,-0.2537 20.31516,-5.2509 20.31516,-19.7771 0,-7.447 -16.66319,-7.0927 -16.66319,-15.1895 0,-7.1361 16.66319,-6.104 16.66319,-10.489 l 0,-180.25165 c 0,-12.34772 -9.94059,-22.28832 -22.28833,-22.28832 z"
       style="fill:none;stroke:#000000;stroke-width:0.03595471;stroke-linejoin:round;stroke-miterlimit:4;stroke-dasharray:none;stroke-opacity:1" />
    <path
       style="fill:none;fill-rule:evenodd;stroke:#000000;stroke-width:0.03595471;stroke-linecap:butt;stroke-linejoin:miter;stroke-miterlimit:4;stroke-dasharray:none;stroke-opacity:1"
       d="m 775.37872,814.60704 -7.63264,-0.0146 c 0,0 -12.85192,1.40842 -12.85192,17.94026 l 0,3.35096 c 0,2.19015 2.27487,1.89408 2.27487,1.89408 l 17.48208,-0.22299 c 1.56059,0 3.59234,-1.5293 3.59234,-3.51097 L 778.12481,816.96 c 0,0 -0.26175,-2.34815 -2.74609,-2.35292 z"
       id="path4187" />
    <path
       style="fill:none;stroke:#000000;stroke-width:0.03595471;stroke-linejoin:round;stroke-miterlimit:4;stroke-dasharray:none;stroke-opacity:1"
       d="m 969.81968,804.34873 -203.41889,0 c -12.34772,0 -22.28833,9.9406 -22.28833,22.28832 l 0,203.41885 c 0,12.3477 7.65748,22.2884 20.00521,22.2884 l 184.87936,0 c 2.93372,-3.0792 -0.0232,-18.2753 9.04364,-19.412 8.84846,-0.8365 6.51635,19.412 13.75218,19.412 16.81124,-0.2537 20.31516,-5.2509 20.31516,-19.7771 0,-7.447 -16.66319,-7.0927 -16.66319,-15.1895 0,-7.1361 16.66319,-6.104 16.66319,-10.489 l 0,-180.25165 c 0,-12.34772 -9.94059,-22.28832 -22.28833,-22.28832 z"
       id="path4189" />
    <path
       style="fill:none;fill-rule:evenodd;stroke:#000000;stroke-width:0.03595471;stroke-linecap:butt;stroke-linejoin:miter;stroke-miterlimit:4;stroke-dasharray:none;stroke-opacity:1"
       d="m 527.34723,566.57547 -7.63264,-0.0146 c 0,0 -12.85192,1.40842 -12.85192,17.94026 l 0,3.35096 c 0,2.19015 2.27486,1.89408 2.27486,1.89408 l 17.48208,-0.22299 c 1.56059,0 3.59235,-1.5293 3.59235,-3.51097 l -0.11864,-17.08378 c 0,0 -0.26176,-2.34815 -2.74609,-2.35292 z"
       id="path4191" />
    <path
       style="fill:none;stroke:#000000;stroke-width:0.03595471;stroke-linejoin:round;stroke-miterlimit:4;stroke-dasharray:none;stroke-opacity:1"
       d="m 721.78818,556.31716 -203.41888,0 c -12.34773,0 -22.28833,9.9406 -22.28833,22.28832 l 0,203.41885 c 0,12.3477 7.65748,22.2884 20.0052,22.2884 l 184.87936,0 c 2.93372,-3.0792 -0.0232,-18.2753 9.04364,-19.412 8.84846,-0.8365 6.51635,19.412 13.75218,19.412 16.81124,-0.2537 20.31516,-5.2509 20.31516,-19.7771 0,-7.447 -16.66319,-7.0927 -16.66319,-15.1895 0,-7.1361 16.66319,-6.104 16.66319,-10.489 l 0,-180.25165 c 0,-12.34772 -9.94059,-22.28832 -22.28833,-22.28832 z"
       id="path4193" />
    <path
       id="path4195"
       d="m 775.37872,566.57547 -7.63264,-0.0146 c 0,0 -12.85192,1.40842 -12.85192,17.94026 l 0,3.35096 c 0,2.19015 2.27487,1.89408 2.27487,1.89408 l 17.48208,-0.22299 c 1.56059,0 3.59234,-1.5293 3.59234,-3.51097 l -0.11864,-17.08378 c 0,0 -0.26175,-2.34815 -2.74609,-2.35292 z"
       style="fill:none;fill-rule:evenodd;stroke:#000000;stroke-width:0.03595471;stroke-linecap:butt;stroke-linejoin:miter;stroke-miterlimit:4;stroke-dasharray:none;stroke-opacity:1" />
    <path
       id="path4197"
       d="m 969.81968,556.31716 -203.41889,0 c -12.34772,0 -22.28833,9.9406 -22.28833,22.28832 l 0,203.41885 c 0,12.3477 7.65748,22.2884 20.00521,22.2884 l 184.87936,0 c 2.93372,-3.0792 -0.0232,-18.2753 9.04364,-19.412 8.84846,-0.8365 6.51635,19.412 13.75218,19.412 16.81124,-0.2537 20.31516,-5.2509 20.31516,-19.7771 0,-7.447 -16.66319,-7.0927 -16.66319,-15.1895 0,-7.1361 16.66319,-6.104 16.66319,-10.489 l 0,-180.25165 c 0,-12.34772 -9.94059,-22.28832 -22.28833,-22.28832 z"
       style="fill:none;stroke:#000000;stroke-width:0.03595471;stroke-linejoin:round;stroke-miterlimit:4;stroke-dasharray:none;stroke-opacity:1" />
    <path
       id="path4199"
       d="m 31.284235,318.54397 -7.632637,-0.0146 c 0,0 -12.851921,1.40842 -12.851921,17.94026 l 0,3.35096 c 0,2.19015 2.274864,1.89408 2.274864,1.89408 l 17.482078,-0.22299 c 1.560592,0 3.592349,-1.5293 3.592349,-3.51097 l -0.118641,-17.08378 c 0,0 -0.261758,-2.34815 -2.746092,-2.35292 z"
       style="fill:none;fill-rule:evenodd;stroke:#000000;stroke-width:0.03595471;stroke-linecap:butt;stroke-linejoin:miter;stroke-miterlimit:4;stroke-dasharray:none;stroke-opacity:1" />
    <path
       id="path4201"
       d="m 225.72519,308.28566 -203.418885,0 c -12.3477256,0 -22.28832764,9.9406 -22.28832764,22.28832 l 0,203.41885 c 0,12.3477 7.65747804,22.2884 20.00520364,22.2884 l 184.879359,0 c 2.93372,-3.0792 -0.0232,-18.2753 9.04364,-19.412 8.84846,-0.8365 6.51635,19.412 13.75218,19.412 16.81124,-0.2537 20.31516,-5.2509 20.31516,-19.7771 0,-7.447 -16.66319,-7.0927 -16.66319,-15.1895 0,-7.1361 16.66319,-6.104 16.66319,-10.489 l 0,-180.25165 c 0,-12.34772 -9.94059,-22.28832 -22.28833,-22.28832 z"
       style="fill:none;stroke:#000000;stroke-width:0.03595471;stroke-linejoin:round;stroke-miterlimit:4;stroke-dasharray:none;stroke-opacity:1" />
    <path
       style="fill:none;fill-rule:evenodd;stroke:#000000;stroke-width:0.03595471;stroke-linecap:butt;stroke-linejoin:miter;stroke-miterlimit:4;stroke-dasharray:none;stroke-opacity:1"
       d="m 279.31573,318.54397 -7.63264,-0.0146 c 0,0 -12.85192,1.40842 -12.85192,17.94026 l 0,3.35096 c 0,2.19015 2.27487,1.89408 2.27487,1.89408 l 17.48208,-0.22299 c 1.56059,0 3.59234,-1.5293 3.59234,-3.51097 l -0.11864,-17.08378 c 0,0 -0.26175,-2.34815 -2.74609,-2.35292 z"
       id="path4203" />
    <path
       style="fill:none;stroke:#000000;stroke-width:0.03595471;stroke-linejoin:round;stroke-miterlimit:4;stroke-dasharray:none;stroke-opacity:1"
       d="m 473.75669,308.28566 -203.41889,0 c -12.34772,0 -22.28833,9.9406 -22.28833,22.28832 l 0,203.41885 c 0,12.3477 7.65748,22.2884 20.00521,22.2884 l 184.87936,0 c 2.93372,-3.0792 -0.0232,-18.2753 9.04364,-19.412 8.84846,-0.8365 6.51635,19.412 13.75218,19.412 16.81124,-0.2537 20.31516,-5.2509 20.31516,-19.7771 0,-7.447 -16.66319,-7.0927 -16.66319,-15.1895 0,-7.1361 16.66319,-6.104 16.66319,-10.489 l 0,-180.25165 c 0,-12.34772 -9.94059,-22.28832 -22.28833,-22.28832 z"
       id="path4205" />
    <path
       style="fill:none;fill-rule:evenodd;stroke:#000000;stroke-width:0.03595471;stroke-linecap:butt;stroke-linejoin:miter;stroke-miterlimit:4;stroke-dasharray:none;stroke-opacity:1"
       d="m 31.284235,70.512403 -7.632637,-0.0146 c 0,0 -12.851921,1.40842 -12.851921,17.94026 l 0,3.35096 c 0,2.19015 2.274864,1.89408 2.274864,1.89408 l 17.482078,-0.22299 c 1.560592,0 3.592349,-1.5293 3.592349,-3.51097 l -0.118641,-17.08378 c 0,0 -0.261758,-2.34815 -2.746092,-2.35292 z"
       id="path4207" />
    <path
       style="fill:none;stroke:#000000;stroke-width:0.03595471;stroke-linejoin:round;stroke-miterlimit:4;stroke-dasharray:none;stroke-opacity:1"
       d="m 225.72519,60.254093 -203.418885,0 c -12.3477256,0 -22.28832764,9.9406 -22.28832764,22.28832 l 0,203.418847 c 0,12.3477 7.65747804,22.2884 20.00520364,22.2884 l 184.879359,0 c 2.93372,-3.0792 -0.0232,-18.2753 9.04364,-19.412 8.84846,-0.8365 6.51635,19.412 13.75218,19.412 16.81124,-0.2537 20.31516,-5.2509 20.31516,-19.7771 0,-7.447 -16.66319,-7.0927 -16.66319,-15.1895 0,-7.1361 16.66319,-6.104 16.66319,-10.489 l 0,-180.251647 c 0,-12.34772 -9.94059,-22.28832 -22.28833,-22.28832 z"
       id="path4209" />
    <path
       id="path4211"
       d="m 279.31573,70.512403 -7.63264,-0.0146 c 0,0 -12.85192,1.40842 -12.85192,17.94026 l 0,3.35096 c 0,2.19015 2.27487,1.89408 2.27487,1.89408 l 17.48208,-0.22299 c 1.56059,0 3.59234,-1.5293 3.59234,-3.51097 l -0.11864,-17.08378 c 0,0 -0.26175,-2.34815 -2.74609,-2.35292 z"
       style="fill:none;fill-rule:evenodd;stroke:#000000;stroke-width:0.03595471;stroke-linecap:butt;stroke-linejoin:miter;stroke-miterlimit:4;stroke-dasharray:none;stroke-opacity:1" />
    <path
       id="path4213"
       d="m 473.75669,60.254093 -203.41889,0 c -12.34772,0 -22.28833,9.9406 -22.28833,22.28832 l 0,203.418847 c 0,12.3477 7.65748,22.2884 20.00521,22.2884 l 184.87936,0 c 2.93372,-3.0792 -0.0232,-18.2753 9.04364,-19.412 8.84846,-0.8365 6.51635,19.412 13.75218,19.412 16.81124,-0.2537 20.31516,-5.2509 20.31516,-19.7771 0,-7.447 -16.66319,-7.0927 -16.66319,-15.1895 0,-7.1361 16.66319,-6.104 16.66319,-10.489 l 0,-180.251647 c 0,-12.34772 -9.94059,-22.28832 -22.28833,-22.28832 z"
       style="fill:none;stroke:#000000;stroke-width:0.03595471;stroke-linejoin:round;stroke-miterlimit:4;stroke-dasharray:none;stroke-opacity:1" />
    <path
       style="fill:none;fill-rule:evenodd;stroke:#000000;stroke-width:0.03595471;stroke-linecap:butt;stroke-linejoin:miter;stroke-miterlimit:4;stroke-dasharray:none;stroke-opacity:1"
       d="m 527.34723,318.54397 -7.63264,-0.0146 c 0,0 -12.85192,1.40842 -12.85192,17.94026 l 0,3.35096 c 0,2.19015 2.27486,1.89408 2.27486,1.89408 l 17.48208,-0.22299 c 1.56059,0 3.59235,-1.5293 3.59235,-3.51097 l -0.11864,-17.08378 c 0,0 -0.26176,-2.34815 -2.74609,-2.35292 z"
       id="path4215" />
    <path
       style="fill:none;stroke:#000000;stroke-width:0.03595471;stroke-linejoin:round;stroke-miterlimit:4;stroke-dasharray:none;stroke-opacity:1"
       d="m 721.78818,308.28566 -203.41888,0 c -12.34773,0 -22.28833,9.9406 -22.28833,22.28832 l 0,203.41885 c 0,12.3477 7.65748,22.2884 20.0052,22.2884 l 184.87936,0 c 2.93372,-3.0792 -0.0232,-18.2753 9.04364,-19.412 8.84846,-0.8365 6.51635,19.412 13.75218,19.412 16.81124,-0.2537 20.31516,-5.2509 20.31516,-19.7771 0,-7.447 -16.66319,-7.0927 -16.66319,-15.1895 0,-7.1361 16.66319,-6.104 16.66319,-10.489 l 0,-180.25165 c 0,-12.34772 -9.94059,-22.28832 -22.28833,-22.28832 z"
       id="path4217" />
    <path
       id="path4219"
       d="m 775.37872,318.54397 -7.63264,-0.0146 c 0,0 -12.85192,1.40842 -12.85192,17.94026 l 0,3.35096 c 0,2.19015 2.27487,1.89408 2.27487,1.89408 l 17.48208,-0.22299 c 1.56059,0 3.59234,-1.5293 3.59234,-3.51097 l -0.11864,-17.08378 c 0,0 -0.26175,-2.34815 -2.74609,-2.35292 z"
       style="fill:none;fill-rule:evenodd;stroke:#000000;stroke-width:0.03595471;stroke-linecap:butt;stroke-linejoin:miter;stroke-miterlimit:4;stroke-dasharray:none;stroke-opacity:1" />
    <path
       id="path4221"
       d="m 969.81968,308.28566 -203.41889,0 c -12.34772,0 -22.28833,9.9406 -22.28833,22.28832 l 0,203.41885 c 0,12.3477 7.65748,22.2884 20.00521,22.2884 l 184.87936,0 c 2.93372,-3.0792 -0.0232,-18.2753 9.04364,-19.412 8.84846,-0.8365 6.51635,19.412 13.75218,19.412 16.81124,-0.2537 20.31516,-5.2509 20.31516,-19.7771 0,-7.447 -16.66319,-7.0927 -16.66319,-15.1895 0,-7.1361 16.66319,-6.104 16.66319,-10.489 l 0,-180.25165 c 0,-12.34772 -9.94059,-22.28832 -22.28833,-22.28832 z"
       style="fill:none;stroke:#000000;stroke-width:0.03595471;stroke-linejoin:round;stroke-miterlimit:4;stroke-dasharray:none;stroke-opacity:1" />
    <path
       id="path4223"
       d="m 527.34723,70.512403 -7.63264,-0.0146 c 0,0 -12.85192,1.40842 -12.85192,17.94026 l 0,3.35096 c 0,2.19015 2.27486,1.89408 2.27486,1.89408 l 17.48208,-0.22299 c 1.56059,0 3.59235,-1.5293 3.59235,-3.51097 l -0.11864,-17.08378 c 0,0 -0.26176,-2.34815 -2.74609,-2.35292 z"
       style="fill:none;fill-rule:evenodd;stroke:#000000;stroke-width:0.03595471;stroke-linecap:butt;stroke-linejoin:miter;stroke-miterlimit:4;stroke-dasharray:none;stroke-opacity:1" />
    <path
       id="path4225"
       d="m 721.78818,60.254093 -203.41888,0 c -12.34773,0 -22.28833,9.9406 -22.28833,22.28832 l 0,203.418847 c 0,12.3477 7.65748,22.2884 20.0052,22.2884 l 184.87936,0 c 2.93372,-3.0792 -0.0232,-18.2753 9.04364,-19.412 8.84846,-0.8365 6.51635,19.412 13.75218,19.412 16.81124,-0.2537 20.31516,-5.2509 20.31516,-19.7771 0,-7.447 -16.66319,-7.0927 -16.66319,-15.1895 0,-7.1361 16.66319,-6.104 16.66319,-10.489 l 0,-180.251647 c 0,-12.34772 -9.94059,-22.28832 -22.28833,-22.28832 z"
       style="fill:none;stroke:#000000;stroke-width:0.03595471;stroke-linejoin:round;stroke-miterlimit:4;stroke-dasharray:none;stroke-opacity:1" />
    <path
       style="fill:none;fill-rule:evenodd;stroke:#000000;stroke-width:0.03595471;stroke-linecap:butt;stroke-linejoin:miter;stroke-miterlimit:4;stroke-dasharray:none;stroke-opacity:1"
       d="m 775.37872,70.512403 -7.63264,-0.0146 c 0,0 -12.85192,1.40842 -12.85192,17.94026 l 0,3.35096 c 0,2.19015 2.27487,1.89408 2.27487,1.89408 l 17.48208,-0.22299 c 1.56059,0 3.59234,-1.5293 3.59234,-3.51097 l -0.11864,-17.08378 c 0,0 -0.26175,-2.34815 -2.74609,-2.35292 z"
       id="path4227" />
    <path
       style="fill:none;stroke:#000000;stroke-width:0.03595471;stroke-linejoin:round;stroke-miterlimit:4;stroke-dasharray:none;stroke-opacity:1"
       d="m 969.81968,60.254093 -203.41889,0 c -12.34772,0 -22.28833,9.9406 -22.28833,22.28832 l 0,203.418847 c 0,12.3477 7.65748,22.2884 20.00521,22.2884 l 184.87936,0 c 2.93372,-3.0792 -0.0232,-18.2753 9.04364,-19.412 8.84846,-0.8365 6.51635,19.412 13.75218,19.412 16.81124,-0.2537 20.31516,-5.2509 20.31516,-19.7771 0,-7.447 -16.66319,-7.0927 -16.66319,-15.1895 0,-7.1361 16.66319,-6.104 16.66319,-10.489 l 0,-180.251647 c 0,-12.34772 -9.94059,-22.28832 -22.28833,-22.28832 z"
       id="path4229" />
  </g>
  <g
     id="layer3"
     transform="translate(0,744.09449)">
    <path
       id="path5329"
       style="fill:none;stroke:#000000;stroke-width:0.30101201"
       d="" />
    <path
       id="path5341"
       style="fill:none;stroke:#000000;stroke-width:0.30101201"
       d="" />
    <path
       id="path5357"
       style="fill:none;stroke:#000000;stroke-width:0.30101201"
       d="" />
    <path
       d=""
       style="fill:none;stroke:#000000;stroke-width:0.28793129"
       id="path5719" />
    <path
       d=""
       style="fill:none;stroke:#000000;stroke-width:0.28793129"
       id="path5723" />
    <path
       d=""
       style="fill:none;stroke:#000000;stroke-width:0.28793129"
       id="path5731" />
    <path
       d=""
       style="fill:none;stroke:#000000;stroke-width:0.28793129"
       id="path5735" />
    <path
       d=""
       style="fill:none;stroke:#000000;stroke-width:0.28793129"
       id="path5745" />
    <path
       id="path6153"
       style="fill:none;stroke:#000000;stroke-width:0.28324676"
       d="" />
    <path
       id="path6167"
       style="fill:none;stroke:#000000;stroke-width:0.28324676"
       d="" />
    <path
       id="path6173"
       style="fill:none;stroke:#000000;stroke-width:0.28324676"
       d="" />
    <path
       id="path6179"
       style="fill:none;stroke:#000000;stroke-width:0.28324676"
       d="" />
    <path
       id="path6189"
       style="fill:none;stroke:#000000;stroke-width:0.28324676"
       d="" />
    <path
       id="path6197"
       style="fill:none;stroke:#000000;stroke-width:0.28324676"
       d="" />
    <path
       id="path6207"
       style="fill:none;stroke:#000000;stroke-width:0.28324676"
       d="" />
    <path
       id="path6215"
       style="fill:none;stroke:#000000;stroke-width:0.28324676"
       d="" />
    <path
       id="path6223"
       style="fill:none;stroke:#000000;stroke-width:0.28324676"
       d="" />
    <path
       id="path6233"
       style="fill:none;stroke:#000000;stroke-width:0.28324676"
       d="" />
    <path
       id="path6245"
       style="fill:none;stroke:#000000;stroke-width:0.28324676"
       d="" />
    <path
       id="path6251"
       style="fill:none;stroke:#000000;stroke-width:0.28324676"
       d="" />
    <path
       id="path6261"
       style="fill:none;stroke:#000000;stroke-width:0.28324676"
       d="" />
    <path
       id="path6267"
       style="fill:none;stroke:#000000;stroke-width:0.28324676"
       d="" />
    <path
       id="path6279"
       style="fill:none;stroke:#000000;stroke-width:0.28324676"
       d="" />
    <path
       d=""
       style="fill:none;stroke:#000000;stroke-width:0.28768027"
       id="path9408" />
    <path
       d=""
       style="fill:none;stroke:#000000;stroke-width:0.28768027"
       id="path9420" />
  </g>
  <g
     id="layer6"
     transform="translate(0,744.09449)" />
  <g
     id="layer4"
     transform="translate(0,744.09449)" />
</svg>
