<?xml version="1.0" encoding="UTF-8" standalone="no"?>
<!-- Created with Inkscape (http://www.inkscape.org/) -->

<svg
   xmlns:dc="http://purl.org/dc/elements/1.1/"
   xmlns:cc="http://creativecommons.org/ns#"
   xmlns:rdf="http://www.w3.org/1999/02/22-rdf-syntax-ns#"
   xmlns:svg="http://www.w3.org/2000/svg"
   xmlns="http://www.w3.org/2000/svg"
   xmlns:sodipodi="http://sodipodi.sourceforge.net/DTD/sodipodi-0.dtd"
   xmlns:inkscape="http://www.inkscape.org/namespaces/inkscape"
   sodipodi:docname="Cut2.svg"
   inkscape:version="0.91 r13725"
   version="1.1"
   id="svg2"
   viewBox="0 0 517.32286 262.20472"
   height="74mm"
   width="146mm">
  <sodipodi:namedview
     inkscape:window-maximized="1"
     inkscape:window-y="1"
     inkscape:window-x="0"
     inkscape:window-height="744"
     inkscape:window-width="1366"
     borderlayer="true"
     showgrid="false"
     inkscape:current-layer="layer1"
     inkscape:document-units="mm"
     inkscape:cy="130.39832"
     inkscape:cx="257.67022"
     inkscape:zoom="2.3598733"
     inkscape:pageshadow="2"
     inkscape:pageopacity="0"
     borderopacity="1.0"
     bordercolor="#666666"
     pagecolor="#585858"
     id="base"
     showguides="false" />
  <defs
     id="defs4" />
  <metadata
     id="metadata7">
    <rdf:RDF>
      <cc:Work
         rdf:about="">
        <dc:format>image/svg+xml</dc:format>
        <dc:type
           rdf:resource="http://purl.org/dc/dcmitype/StillImage" />
        <dc:title></dc:title>
      </cc:Work>
    </rdf:RDF>
  </metadata>
  <g
     inkscape:label="Cutout"
     inkscape:groupmode="layer"
     id="layer1"
     transform="translate(0,-790.15748)"
     style="opacity:1">
    <path
       transform="matrix(-1,0,0,1,254.41408,-6.3825602)"
       style="opacity:1;fill:none;stroke:#000000;stroke-width:0.35433072;stroke-linejoin:round;stroke-miterlimit:4;stroke-dasharray:none;stroke-opacity:1"
       d="m 23.874537,805.21189 201.227523,0 c 12.21472,0 22.04824,9.87141 22.04824,22.13316 l 0,202.00275 c 0,12.2617 -7.57499,22.1332 -19.7897,22.1332 l -182.887733,0 c -2.90211,-3.0577 0.023,-18.1481 -8.9462,-19.2768 -8.75314,-0.8307 -6.44616,19.2768 -13.60404,19.2768 -16.6301405,-0.252 -20.0963105,-5.2143 -20.0963105,-19.6394 0,-7.3951 16.4836905,-7.0433 16.4836905,-15.0836 0,-7.0865 -16.4836905,-6.0616 -16.4836905,-10.4161 l 0,-58.58645 c 0,0 -0.481422,-3.86107 2.9674683,-4.0618 l 25.9497182,-1.5103 c 0,0 4.493611,-0.65507 4.493611,-5.72384 l 0,-18.93288 c 0,-4.31652 -4.766979,-4.6272 -4.766979,-4.6272 L 5.6741424,911.54304 C 1.804586,911.43609 1.8263165,907.98069 1.8263165,907.98069 l 0,-80.63564 c 0,-12.26175 9.8335005,-22.13316 22.0482205,-22.13316 z"
       id="rect4181-3"
       inkscape:connector-curvature="0"
       sodipodi:nodetypes="sssssccccccccccccccss" />
    <circle
       style="opacity:1;fill:none;fill-opacity:1;stroke:#000000;stroke-width:0.3979682;stroke-linecap:round;stroke-linejoin:round;stroke-miterlimit:4;stroke-dasharray:none;stroke-opacity:1"
       id="path8099"
       cx="217.97366"
       cy="30.910204"
       r="21.06086"
       transform="matrix(-1,0,0,1,254.41408,797.94811)" />
    <path
       transform="translate(157.11711,816.4903)"
       sodipodi:nodetypes="cssccsscccccccccsc"
       inkscape:connector-curvature="0"
       id="rect4181-3-9"
       d="m 127.68385,-17.660972 201.22752,0 c 12.21472,0 22.04824,9.8714099 22.04824,22.1331599 l 0,179.5647821 c 0,7.87793 -8.20837,6.78527 -8.20837,6.78527 l -20.06607,-0.11425 c -12.26151,-0.0698 -11.96678,8.08683 -11.92778,20.30147 l 0.0323,10.11567 c 0,0 -0.91883,7.48301 -6.74912,7.48301 l -155.75838,0 c -2.90211,-3.0577 0.023,-18.1481 -8.9462,-19.2768 -8.75314,-0.8307 -6.44616,19.2768 -13.60404,19.2768 -16.63014,-0.252 -20.09631,-5.2143 -20.09631,-19.6394 0,-7.3951 16.48369,-7.0433 16.48369,-15.0836 0,-7.0865 -16.48369,-6.0616 -16.48369,-10.4161 l 0,-178.9968521 c 0,-12.26175 9.8335,-22.1331599 22.04822,-22.1331599 z"
       style="opacity:1;fill:none;stroke:#000000;stroke-width:0.35433072;stroke-linejoin:round;stroke-miterlimit:4;stroke-dasharray:none;stroke-opacity:1" />
    <circle
       style="opacity:1;fill:none;fill-opacity:1;stroke:#000000;stroke-width:0.39796817;stroke-linecap:round;stroke-linejoin:round;stroke-miterlimit:4;stroke-dasharray:none;stroke-opacity:1"
       id="path8099-4"
       cx="216.34781"
       cy="31.614185"
       r="21.06086"
       transform="translate(261.87155,797.9481)" />
    <circle
       style="opacity:1;fill:none;fill-opacity:1;stroke:#000000;stroke-width:0.40409154;stroke-linecap:round;stroke-linejoin:round;stroke-miterlimit:4;stroke-dasharray:none;stroke-opacity:1"
       id="path9041"
       cx="478.21936"
       cy="829.56226"
       r="12.199531" />
    <circle
       r="12.199531"
       cy="828.85834"
       cx="36.440418"
       id="circle9044"
       style="opacity:1;fill:none;fill-opacity:1;stroke:#000000;stroke-width:0.40409154;stroke-linecap:round;stroke-linejoin:round;stroke-miterlimit:4;stroke-dasharray:none;stroke-opacity:1" />
    <g
       transform="translate(-2.9802322e-8,804.33066)"
       id="g9039">
      <circle
         transform="scale(-1,1)"
         r="1.604197"
         cy="246.2599"
         cx="-1.7716537"
         id="path9309"
         style="opacity:0.97000002;fill:none;fill-opacity:1;stroke:#000000;stroke-width:0.33491319;stroke-linecap:round;stroke-linejoin:round;stroke-miterlimit:4;stroke-dasharray:none;stroke-opacity:1" />
      <circle
         style="opacity:0.97000002;fill:none;fill-opacity:1;stroke:#000000;stroke-width:0.33491319;stroke-linecap:round;stroke-linejoin:round;stroke-miterlimit:4;stroke-dasharray:none;stroke-opacity:1"
         id="circle9037"
         cx="-515.55127"
         cy="-12.401552"
         r="1.604197"
         transform="scale(-1,1)" />
    </g>
  </g>
  <g
     inkscape:groupmode="layer"
     id="layer6"
     inkscape:label="Graphics"
     transform="translate(0,14.173191)" />
</svg>
