<?xml version="1.0" encoding="UTF-8" standalone="no"?>
<!-- Created with Inkscape (http://www.inkscape.org/) -->

<svg
   xmlns:dc="http://purl.org/dc/elements/1.1/"
   xmlns:cc="http://creativecommons.org/ns#"
   xmlns:rdf="http://www.w3.org/1999/02/22-rdf-syntax-ns#"
   xmlns:svg="http://www.w3.org/2000/svg"
   xmlns="http://www.w3.org/2000/svg"
   xmlns:sodipodi="http://sodipodi.sourceforge.net/DTD/sodipodi-0.dtd"
   xmlns:inkscape="http://www.inkscape.org/namespaces/inkscape"
   width="70mm"
   height="90mm"
   viewBox="0 0 248.0315 318.89764"
   id="svg2"
   version="1.1"
   inkscape:version="0.91 r13725"
   sodipodi:docname="Version5.svg">
  <defs
     id="defs4" />
  <sodipodi:namedview
     id="base"
     pagecolor="#585858"
     bordercolor="#666666"
     borderopacity="1.0"
     inkscape:pageopacity="0"
     inkscape:pageshadow="2"
     inkscape:zoom="2.8284271"
     inkscape:cx="67.911326"
     inkscape:cy="89.082077"
     inkscape:document-units="mm"
     inkscape:current-layer="layer1"
     showgrid="false"
     borderlayer="true"
     inkscape:window-width="1366"
     inkscape:window-height="742"
     inkscape:window-x="0"
     inkscape:window-y="1"
     inkscape:window-maximized="1"
     inkscape:object-nodes="false" />
  <metadata
     id="metadata7">
    <rdf:RDF>
      <cc:Work
         rdf:about="">
        <dc:format>image/svg+xml</dc:format>
        <dc:type
           rdf:resource="http://purl.org/dc/dcmitype/StillImage" />
        <dc:title />
      </cc:Work>
    </rdf:RDF>
  </metadata>
  <g
     inkscape:label="Layer 1"
     inkscape:groupmode="layer"
     id="layer1"
     transform="translate(0,-733.46457)">
    <path
       style="opacity:1;fill:none;fill-rule:evenodd;stroke:#000000;stroke-width:2.37416553;stroke-linecap:butt;stroke-linejoin:round;stroke-miterlimit:4;stroke-dasharray:none;stroke-opacity:1"
       d="m 55.596271,991.64178 117.600429,0 c 22.01295,0 27.55137,-4.61392 27.55137,-23.52957 l 0,-167.5 c 0,-11.08742 -1.4193,-21.98363 -18.99807,-21.98363 l -145.235549,0 c -1.84914,0 -1.496125,3.80075 1.693383,4.64641 l 128.094746,14.95745 c 8.56626,0.97338 10.5086,4.46799 10.5086,11.00477 0,8.84652 -1.12894,16.54385 -10.81118,16.54385 l -100.894272,0 c -2.482746,0 -2.72661,-3.42256 0,-3.47469 l 92.422962,-8.73556 c 5.35829,-1.43575 6.51683,-6.71965 0.66492,-6.71965 l -113.19583,0.44059 c -10.346591,-0.26576 -9.769441,8.62228 -9.772378,13.57089 l -0.08805,148.32606 c 0,10.46179 8.095824,22.45308 20.458919,22.45308 z"
       id="path4135"
       inkscape:connector-curvature="0"
       sodipodi:nodetypes="cccccccccccccccccc" />
  </g>
</svg>
