<?xml version="1.0" encoding="UTF-8" standalone="no"?>
<svg
   xmlns:dc="http://purl.org/dc/elements/1.1/"
   xmlns:cc="http://creativecommons.org/ns#"
   xmlns:rdf="http://www.w3.org/1999/02/22-rdf-syntax-ns#"
   xmlns:svg="http://www.w3.org/2000/svg"
   xmlns="http://www.w3.org/2000/svg"
   xmlns:sodipodi="http://sodipodi.sourceforge.net/DTD/sodipodi-0.dtd"
   xmlns:inkscape="http://www.inkscape.org/namespaces/inkscape"
   width="142mm"
   height="70mm"
   viewBox="0 0 503.14963 248.03149"
   id="svg2"
   version="1.1"
   inkscape:version="0.91 r13725"
   sodipodi:docname="SideTwoEtchTwo.svg">
  <sodipodi:namedview
     pagecolor="#ffffff"
     bordercolor="#666666"
     borderopacity="1"
     objecttolerance="10"
     gridtolerance="10"
     guidetolerance="10"
     inkscape:pageopacity="0"
     inkscape:pageshadow="2"
     inkscape:window-width="927"
     inkscape:window-height="480"
     id="namedview139"
     showgrid="false"
     inkscape:zoom="0.71549296"
     inkscape:cx="624.74409"
     inkscape:cy="124.01575"
     inkscape:window-x="0"
     inkscape:window-y="1"
     inkscape:window-maximized="0"
     inkscape:current-layer="svg2" />
  <defs
     id="defs4" />
  <metadata
     id="metadata7">
    <rdf:RDF>
      <cc:Work
         rdf:about="">
        <dc:format>image/svg+xml</dc:format>
        <dc:type
           rdf:resource="http://purl.org/dc/dcmitype/StillImage" />
        <dc:title></dc:title>
      </cc:Work>
    </rdf:RDF>
  </metadata>
  <g
     id="layer1"
     transform="translate(0,-804.33071)"
     style="opacity:1">
    <path
       id="path7559-6"
       style="fill:none;stroke:#000000;stroke-width:0.92052549"
       d="" />
    <path
       id="path7565-1"
       style="fill:none;stroke:#000000;stroke-width:0.92052549"
       d="" />
    <path
       id="path7579-8"
       style="fill:none;stroke:#000000;stroke-width:0.92052549"
       d="" />
    <path
       d=""
       style="fill:none;stroke:#000000;stroke-width:0.34588146"
       id="path8694-7" />
    <path
       d=""
       style="fill:none;stroke:#000000;stroke-width:0.34588146"
       id="path8700-9" />
    <path
       id="path9252-2"
       style="fill:none;stroke:#000000;stroke-width:0.35277364"
       d="" />
    <path
       id="path9264-0"
       style="fill:none;stroke:#000000;stroke-width:0.35277364"
       d="" />
    <path
       d=""
       style="fill:none;stroke:#000000;stroke-width:0.30689958"
       id="path9834-2" />
    <path
       d=""
       style="fill:none;stroke:#000000;stroke-width:1.21444738"
       id="path4314-3" />
    <path
       d=""
       style="fill:none;stroke:#000000;stroke-width:1.21444738"
       id="path4324-7" />
    <path
       d=""
       style="fill:none;stroke:#000000;stroke-width:1.21444738"
       id="path4332-5" />
    <path
       d=""
       style="fill:none;stroke:#000000;stroke-width:1.21444738"
       id="path4586-9" />
    <path
       d=""
       style="fill:none;stroke:#000000;stroke-width:1.21444738"
       id="path4604-3-2" />
    <path
       id="path7559-9"
       style="fill:none;stroke:#000000;stroke-width:0.92052549"
       d="" />
    <path
       id="path7565-3"
       style="fill:none;stroke:#000000;stroke-width:0.92052549"
       d="" />
    <path
       id="path7579-1"
       style="fill:none;stroke:#000000;stroke-width:0.92052549"
       d="" />
    <path
       d=""
       style="fill:none;stroke:#000000;stroke-width:0.34588146"
       id="path8694-9" />
    <path
       d=""
       style="fill:none;stroke:#000000;stroke-width:0.34588146"
       id="path8700-4" />
    <path
       id="path9252-7"
       style="fill:none;stroke:#000000;stroke-width:0.35277364"
       d="" />
    <path
       id="path9264-8"
       style="fill:none;stroke:#000000;stroke-width:0.35277364"
       d="" />
    <path
       d=""
       style="fill:none;stroke:#000000;stroke-width:0.30689958"
       id="path9834-4" />
    <path
       d=""
       style="fill:none;stroke:#000000;stroke-width:1.21444738"
       id="path4314-5" />
    <path
       d=""
       style="fill:none;stroke:#000000;stroke-width:1.21444738"
       id="path4324-0" />
    <path
       d=""
       style="fill:none;stroke:#000000;stroke-width:1.21444738"
       id="path4332-3" />
    <path
       d=""
       style="fill:none;stroke:#000000;stroke-width:1.21444738"
       id="path4586-6" />
    <path
       d=""
       style="fill:none;stroke:#000000;stroke-width:1.21444738"
       id="path4604-3-1" />
    <path
       style="fill:none;fill-opacity:0.2961877;stroke:#000000;stroke-width:0.35700002;stroke-linecap:round;stroke-linejoin:round;stroke-miterlimit:4;stroke-dasharray:none;stroke-opacity:1"
       d="m 472.49908,913.12867 -216.96826,0"
       id="path4202" />
    <path
       id="path4204"
       d="m 471.69764,941.39016 -216.39848,0"
       style="fill:none;fill-opacity:0.2961877;stroke:#000000;stroke-width:0.35700002;stroke-linecap:round;stroke-linejoin:round;stroke-miterlimit:4;stroke-dasharray:none;stroke-opacity:1" />
    <path
       id="path9309-6"
       d="m 503.21385,806.10236 a 1.604197,1.604197 0 0 1 -1.6042,1.60419 1.604197,1.604197 0 0 1 -1.6042,-1.60419 1.604197,1.604197 0 0 1 1.6042,-1.6042 1.604197,1.604197 0 0 1 1.6042,1.6042 z"
       style="opacity:0.97000002;fill:none;fill-opacity:1;stroke:#000000;stroke-width:0.33491319;stroke-linecap:round;stroke-linejoin:round;stroke-miterlimit:4;stroke-dasharray:none;stroke-opacity:1" />
    <path
       d="m 273.1152,924.24433 -0.58561,-1.17122 -1.17122,-1.17122 -1.17123,-0.58561 -2.34244,0 -1.17122,0.58561 -1.17123,1.17122 -0.58561,1.17122 -0.58561,1.75684 0,2.92805 0.58561,1.75683 0.58561,1.17123 1.17123,1.17122 1.17122,0.58561 2.34244,0 1.17123,-0.58561 1.17122,-1.17122 0.58561,-1.17123"
       style="fill:none;stroke:#000000;stroke-width:0.58561105"
       id="path6912" />
    <path
       d="m 277.21447,921.31628 0,12.29783 m 0,-5.85611 1.75684,-1.75683 1.17122,-0.58562 1.75683,0 1.17123,0.58562 0.58561,1.75683 0,5.85611"
       style="fill:none;stroke:#000000;stroke-width:0.58561105"
       id="path6914" />
    <path
       d="m 294.78281,925.41555 0,8.19856 m 0,-6.44172 -1.17123,-1.17122 -1.17122,-0.58562 -1.75683,0 -1.17122,0.58562 -1.17123,1.17122 -0.58561,1.75683 0,1.17122 0.58561,1.75684 1.17123,1.17122 1.17122,0.58561 1.75683,0 1.17122,-0.58561 1.17123,-1.17122"
       style="fill:none;stroke:#000000;stroke-width:0.58561105"
       id="path6916-2" />
    <path
       d="m 299.46769,921.31628 0,12.29783"
       style="fill:none;stroke:#000000;stroke-width:0.58561105"
       id="path6918" />
    <path
       d="m 304.15258,925.41555 0,8.19856 m 0,-5.85611 1.75683,-1.75683 1.17122,-0.58562 1.75684,0 1.17122,0.58562 0.58561,1.75683 0,5.85611 m 0,-5.85611 1.75683,-1.75683 1.17123,-0.58562 1.75683,0 1.17122,0.58562 0.58561,1.75683 0,5.85611"
       style="fill:none;stroke:#000000;stroke-width:0.58561105"
       id="path6920" />
    <path
       d="m 321.1353,928.92922 7.02734,0 0,-1.17122 -0.58561,-1.17122 -0.58562,-0.58561 -1.17122,-0.58562 -1.75683,0 -1.17122,0.58562 -1.17123,1.17122 -0.58561,1.75683 0,1.17122 0.58561,1.75684 1.17123,1.17122 1.17122,0.58561 1.75683,0 1.17122,-0.58561 1.17123,-1.17122"
       style="fill:none;stroke:#000000;stroke-width:0.58561105"
       id="path6922" />
    <path
       d="m 332.26192,925.41555 0,8.19856 m 0,-4.68489 0.58561,-1.75683 1.17122,-1.17122 1.17122,-0.58562 1.75684,0"
       style="fill:none;stroke:#000000;stroke-width:0.58561105"
       id="path6924" />
    <path
       d="m 345.73097,927.17239 -0.58561,-1.17122 -1.75684,-0.58562 -1.75683,0 -1.75683,0.58562 -0.58562,1.17122 0.58562,1.17122 1.17122,0.58561 2.92805,0.58561 1.17123,0.58561 0.58561,1.17123 0,0.58561 -0.58561,1.17122 -1.75684,0.58561 -1.75683,0 -1.75683,-0.58561 -0.58562,-1.17122"
       style="fill:none;stroke:#000000;stroke-width:0.58561105"
       id="path6926-0" />
    <path
       d="m 358.0288,924.24433 -0.58561,-1.17122 -1.17122,-1.17122 -1.17123,-0.58561 -2.34244,0 -1.17122,0.58561 -1.17123,1.17122 -0.58561,1.17122 -0.58561,1.75684 0,2.92805 0.58561,1.75683 0.58561,1.17123 1.17123,1.17122 1.17122,0.58561 2.34244,0 1.17123,-0.58561 1.17122,-1.17122 0.58561,-1.17123"
       style="fill:none;stroke:#000000;stroke-width:0.58561105"
       id="path6928" />
    <path
       d="m 368.5698,925.41555 0,8.19856 m 0,-6.44172 -1.17123,-1.17122 -1.17122,-0.58562 -1.75683,0 -1.17122,0.58562 -1.17123,1.17122 -0.58561,1.75683 0,1.17122 0.58561,1.75684 1.17123,1.17122 1.17122,0.58561 1.75683,0 1.17122,-0.58561 1.17123,-1.17122"
       style="fill:none;stroke:#000000;stroke-width:0.58561105"
       id="path6930" />
    <path
       d="m 373.25469,925.41555 0,8.19856 m 0,-4.68489 0.58561,-1.75683 1.17122,-1.17122 1.17122,-0.58562 1.75684,0"
       style="fill:none;stroke:#000000;stroke-width:0.58561105"
       id="path6932" />
    <path
       d="m 387.30935,921.31628 0,12.29783 m 0,-6.44172 -1.17123,-1.17122 -1.17122,-0.58562 -1.75683,0 -1.17122,0.58562 -1.17123,1.17122 -0.58561,1.75683 0,1.17122 0.58561,1.75684 1.17123,1.17122 1.17122,0.58561 1.75683,0 1.17122,-0.58561 1.17123,-1.17122"
       style="fill:none;stroke:#000000;stroke-width:0.58561105"
       id="path6934" />
    <path
       d="m 397.85035,927.17239 -0.58561,-1.17122 -1.75684,-0.58562 -1.75683,0 -1.75683,0.58562 -0.58562,1.17122 0.58562,1.17122 1.17122,0.58561 2.92805,0.58561 1.17123,0.58561 0.58561,1.17123 0,0.58561 -0.58561,1.17122 -1.75684,0.58561 -1.75683,0 -1.75683,-0.58561 -0.58562,-1.17122"
       style="fill:none;stroke:#000000;stroke-width:0.58561105"
       id="path6936" />
    <path
       d="m 401.94963,930.68605 -0.58561,0.58562 0.58561,0.58561 0.58561,-0.58561 -0.58561,-0.58562"
       style="fill:none;stroke:#000000;stroke-width:0.58561105"
       id="path6938" />
    <path
       d="m 413.07624,927.17239 -1.17123,-1.17122 -1.17122,-0.58562 -1.75683,0 -1.17122,0.58562 -1.17123,1.17122 -0.58561,1.75683 0,1.17122 0.58561,1.75684 1.17123,1.17122 1.17122,0.58561 1.75683,0 1.17122,-0.58561 1.17123,-1.17122"
       style="fill:none;stroke:#000000;stroke-width:0.58561105"
       id="path6940" />
    <path
       d="m 419.51796,925.41555 -1.17122,0.58562 -1.17123,1.17122 -0.58561,1.75683 0,1.17122 0.58561,1.75684 1.17123,1.17122 1.17122,0.58561 1.75683,0 1.17122,-0.58561 1.17123,-1.17122 0.58561,-1.75684 0,-1.17122 -0.58561,-1.75683 -1.17123,-1.17122 -1.17122,-0.58562 -1.75683,0"
       style="fill:none;stroke:#000000;stroke-width:0.58561105"
       id="path6942-6" />
    <path
       d="m 428.30212,925.41555 0,8.19856 m 0,-5.85611 1.75683,-1.75683 1.17122,-0.58562 1.75684,0 1.17122,0.58562 0.58561,1.75683 0,5.85611 m 0,-5.85611 1.75683,-1.75683 1.17123,-0.58562 1.75683,0 1.17122,0.58562 0.58561,1.75683 0,5.85611"
       style="fill:none;stroke:#000000;stroke-width:0.58561105"
       id="path6944" />
    <path
       style="opacity:1;fill:none;fill-opacity:0.2961877;stroke:#000000;stroke-width:0.35686773;stroke-linecap:round;stroke-linejoin:round;stroke-miterlimit:4;stroke-dasharray:none;stroke-opacity:1"
       d="M 0.62088377,845.73373 C 48.116292,848.38636 74.910681,856.16935 100.57038,875.53638 m 70.8919,85.8608 c 17.48087,21.14185 33.8914,37.83183 60.12475,51.90332"
       id="path4164" />
    <path
       style="opacity:1;fill:none;fill-opacity:0.2961877;stroke:#000000;stroke-width:0.35686773;stroke-linecap:round;stroke-linejoin:round;stroke-miterlimit:4;stroke-dasharray:none;stroke-opacity:1"
       d="M 0.18121095,891.54634 C 27.64276,887.70096 50.786771,884.65671 79.219907,892.49292 m 100.314583,53.53313 c 27.84537,15.8911 46.97524,22.83147 66.46901,22.99996"
       id="path4182" />
    <path
       style="opacity:1;fill:none;fill-opacity:0.2961877;stroke:#000000;stroke-width:0.35686773;stroke-linecap:round;stroke-linejoin:round;stroke-miterlimit:4;stroke-dasharray:none;stroke-opacity:1"
       d="M 0.51280538,865.64584 C 39.170854,863.83326 64.527414,868.50889 86.647679,879.33133 m 86.889141,74.14641 c 27.56225,22.84742 54.10573,34.69732 72.71871,42.7971"
       id="path4186" />
    <path
       id="ellipse5539"
       d="m 116.28751,929.54089 a 13.806692,13.770217 0 0 1 -13.80669,13.77022 13.806692,13.770217 0 0 1 -13.806692,-13.77022 13.806692,13.770217 0 0 1 13.806692,-13.77021 13.806692,13.770217 0 0 1 13.80669,13.77021 z"
       style="fill:none;stroke:#000000;stroke-width:0.35686773;stroke-linejoin:round;stroke-miterlimit:4;stroke-dasharray:none;stroke-opacity:1" />
    <path
       id="ellipse5541"
       d="m 159.79346,929.54089 a 13.806692,13.770217 0 0 1 -13.80669,13.77022 13.806692,13.770217 0 0 1 -13.80669,-13.77022 13.806692,13.770217 0 0 1 13.80669,-13.77021 13.806692,13.770217 0 0 1 13.80669,13.77021 z"
       style="fill:none;stroke:#000000;stroke-width:0.35686773;stroke-linejoin:round;stroke-miterlimit:4;stroke-dasharray:none;stroke-opacity:1" />
    <path
       id="ellipse5543"
       d="M 176.67214,928.3457 A 52.536758,52.397968 0 0 1 124.13538,980.74367 52.536758,52.397968 0 0 1 71.598625,928.3457 52.536758,52.397968 0 0 1 124.13538,875.94773 52.536758,52.397968 0 0 1 176.67214,928.3457 Z"
       style="fill:none;stroke:#000000;stroke-width:0.35686773;stroke-linejoin:round;stroke-miterlimit:4;stroke-dasharray:none;stroke-opacity:1" />
    <path
       id="ellipse4255"
       d="m 116.28751,929.54089 a 13.806692,13.770217 0 0 1 -13.80669,13.77022 13.806692,13.770217 0 0 1 -13.806692,-13.77022 13.806692,13.770217 0 0 1 13.806692,-13.77021 13.806692,13.770217 0 0 1 13.80669,13.77021 z"
       style="fill:none;stroke:#000000;stroke-width:0.35686773;stroke-linejoin:round;stroke-miterlimit:4;stroke-dasharray:none;stroke-opacity:1" />
    <path
       id="ellipse4257"
       d="m 159.79346,929.54089 a 13.806692,13.770217 0 0 1 -13.80669,13.77022 13.806692,13.770217 0 0 1 -13.80669,-13.77022 13.806692,13.770217 0 0 1 13.80669,-13.77021 13.806692,13.770217 0 0 1 13.80669,13.77021 z"
       style="fill:none;stroke:#000000;stroke-width:0.35686773;stroke-linejoin:round;stroke-miterlimit:4;stroke-dasharray:none;stroke-opacity:1" />
    <path
       id="ellipse4259"
       d="M 176.67214,928.3457 A 52.536758,52.397968 0 0 1 124.13538,980.74367 52.536758,52.397968 0 0 1 71.598625,928.3457 52.536758,52.397968 0 0 1 124.13538,875.94773 52.536758,52.397968 0 0 1 176.67214,928.3457 Z"
       style="fill:none;stroke:#000000;stroke-width:0.35686773;stroke-linejoin:round;stroke-miterlimit:4;stroke-dasharray:none;stroke-opacity:1" />
    <path
       id="circle9313"
       d="m 3.3761088,1050.5906 a 1.604197,1.604197 0 0 1 -1.6041971,1.6042 1.604197,1.604197 0 0 1 -1.60419698,-1.6042 1.604197,1.604197 0 0 1 1.60419698,-1.6042 1.604197,1.604197 0 0 1 1.6041971,1.6042 z"
       style="opacity:0.97000002;fill:none;fill-opacity:1;stroke:#000000;stroke-width:0.33491319;stroke-linecap:round;stroke-linejoin:round;stroke-miterlimit:4;stroke-dasharray:none;stroke-opacity:1" />
  </g>
  <g
     id="layer3"
     transform="translate(0,-3.8582677e-5)">
    <path
       d=""
       style="fill:none;stroke:#000000;stroke-width:0.20732725"
       id="path13036" />
    <path
       id="path4251"
       style="fill:none;stroke:#000000;stroke-width:0.26252338"
       d="" />
    <path
       id="path4255"
       style="fill:none;stroke:#000000;stroke-width:0.26252338"
       d="" />
    <path
       id="path4265"
       style="fill:none;stroke:#000000;stroke-width:0.26252338"
       d="" />
    <path
       id="path4269"
       style="fill:none;stroke:#000000;stroke-width:0.26252338"
       d="" />
    <path
       d=""
       style="fill:none;stroke:#000000;stroke-width:0.26892704"
       id="path4369" />
    <path
       d=""
       style="fill:none;stroke:#000000;stroke-width:0.26892704"
       id="path4373" />
    <path
       d=""
       style="fill:none;stroke:#000000;stroke-width:0.26892704"
       id="path4383" />
    <path
       d=""
       style="fill:none;stroke:#000000;stroke-width:0.26892704"
       id="path4387" />
    <path
       id="path6267"
       style="fill:none;stroke:#000000;stroke-width:0.41828161"
       d="" />
    <path
       id="path6287"
       style="fill:none;stroke:#000000;stroke-width:0.41828161"
       d="" />
    <path
       id="path6295"
       style="fill:none;stroke:#000000;stroke-width:0.41828161"
       d="" />
  </g>
  <g
     id="layer6"
     transform="translate(0,-3.8582677e-5)" />
  <g
     id="layer4"
     transform="translate(0,-3.8582677e-5)">
    <path
       d=""
       style="fill:none;stroke:#000000;stroke-width:0.92052549"
       id="path7559" />
    <path
       d=""
       style="fill:none;stroke:#000000;stroke-width:0.92052549"
       id="path7565" />
    <path
       d=""
       style="fill:none;stroke:#000000;stroke-width:0.92052549"
       id="path7579" />
    <path
       id="path8694"
       style="fill:none;stroke:#000000;stroke-width:0.34588146"
       d="" />
    <path
       id="path8700"
       style="fill:none;stroke:#000000;stroke-width:0.34588146"
       d="" />
    <path
       d=""
       style="fill:none;stroke:#000000;stroke-width:0.35277364"
       id="path9252" />
    <path
       d=""
       style="fill:none;stroke:#000000;stroke-width:0.35277364"
       id="path9264" />
    <path
       id="path9834"
       style="fill:none;stroke:#000000;stroke-width:0.30689958"
       d="" />
    <path
       id="path4314"
       style="fill:none;stroke:#000000;stroke-width:1.21444738"
       d="" />
    <path
       id="path4324"
       style="fill:none;stroke:#000000;stroke-width:1.21444738"
       d="" />
    <path
       id="path4332"
       style="fill:none;stroke:#000000;stroke-width:1.21444738"
       d="" />
    <path
       id="path4586"
       style="fill:none;stroke:#000000;stroke-width:1.21444738"
       d="" />
    <path
       id="path4604-3"
       style="fill:none;stroke:#000000;stroke-width:1.21444738"
       d="" />
    <path
       d=""
       style="fill:none;stroke:#000000;stroke-width:0.44536859"
       id="path4803" />
    <path
       d=""
       style="fill:none;stroke:#000000;stroke-width:0.44536859"
       id="path4815" />
    <path
       d=""
       style="fill:none;stroke:#000000;stroke-width:0.44536859"
       id="path4821" />
    <path
       d=""
       style="fill:none;stroke:#000000;stroke-width:0.44536859"
       id="path4841" />
    <path
       id="path5902"
       style="fill:none;stroke:#000000;stroke-width:0.33006233"
       d="" />
    <path
       id="path5910"
       style="fill:none;stroke:#000000;stroke-width:0.33006233"
       d="" />
    <path
       id="path5918"
       style="fill:none;stroke:#000000;stroke-width:0.33006233"
       d="" />
    <path
       id="path5926"
       style="fill:none;stroke:#000000;stroke-width:0.33006233"
       d="" />
    <path
       id="path5934"
       style="fill:none;stroke:#000000;stroke-width:0.33006233"
       d="" />
    <path
       id="path5940"
       style="fill:none;stroke:#000000;stroke-width:0.33006233"
       d="" />
    <path
       id="path5946"
       style="fill:none;stroke:#000000;stroke-width:0.33006233"
       d="" />
    <path
       id="path5960"
       style="fill:none;stroke:#000000;stroke-width:0.33006233"
       d="" />
    <path
       id="path5980"
       style="fill:none;stroke:#000000;stroke-width:0.33006233"
       d="" />
    <path
       id="path5990"
       style="fill:none;stroke:#000000;stroke-width:0.33006233"
       d="" />
    <path
       id="path6000"
       style="fill:none;stroke:#000000;stroke-width:0.33006233"
       d="" />
    <path
       id="path6010"
       style="fill:none;stroke:#000000;stroke-width:0.33006233"
       d="" />
    <path
       d=""
       style="fill:none;stroke:#000000;stroke-width:0.4792164"
       id="path6350" />
    <path
       d=""
       style="fill:none;stroke:#000000;stroke-width:0.4792164"
       id="path6372" />
    <path
       d=""
       style="fill:none;stroke:#000000;stroke-width:0.4792164"
       id="path6380" />
    <path
       d=""
       style="fill:none;stroke:#000000;stroke-width:0.4792164"
       id="path6400" />
    <path
       id="path6814"
       style="fill:none;stroke:#000000;stroke-width:0.33006233"
       d="" />
    <path
       id="path6830"
       style="fill:none;stroke:#000000;stroke-width:0.33006233"
       d="" />
    <path
       id="path6842"
       style="fill:none;stroke:#000000;stroke-width:0.33006233"
       d="" />
    <path
       id="path6850"
       style="fill:none;stroke:#000000;stroke-width:0.33006233"
       d="" />
    <path
       id="path6858"
       style="fill:none;stroke:#000000;stroke-width:0.33006233"
       d="" />
    <path
       id="path6864"
       style="fill:none;stroke:#000000;stroke-width:0.33006233"
       d="" />
    <path
       id="path6888"
       style="fill:none;stroke:#000000;stroke-width:0.33006233"
       d="" />
    <path
       id="path6898"
       style="fill:none;stroke:#000000;stroke-width:0.33006233"
       d="" />
    <path
       id="path6908"
       style="fill:none;stroke:#000000;stroke-width:0.33006233"
       d="" />
    <path
       id="path6916"
       style="fill:none;stroke:#000000;stroke-width:0.33006233"
       d="" />
    <path
       id="path6926"
       style="fill:none;stroke:#000000;stroke-width:0.33006233"
       d="" />
    <path
       id="path6942"
       style="fill:none;stroke:#000000;stroke-width:0.33006233"
       d="" />
    <path
       id="path6952"
       style="fill:none;stroke:#000000;stroke-width:0.33006233"
       d="" />
    <path
       id="path6962"
       style="fill:none;stroke:#000000;stroke-width:0.33006233"
       d="" />
    <path
       id="path6976"
       style="fill:none;stroke:#000000;stroke-width:0.33006233"
       d="" />
    <path
       id="path6992"
       style="fill:none;stroke:#000000;stroke-width:0.33006233"
       d="" />
    <path
       id="path6998"
       style="fill:none;stroke:#000000;stroke-width:0.33006233"
       d="" />
    <path
       id="path7008"
       style="fill:none;stroke:#000000;stroke-width:0.33006233"
       d="" />
    <path
       id="path7018"
       style="fill:none;stroke:#000000;stroke-width:0.33006233"
       d="" />
    <path
       id="path7024"
       style="fill:none;stroke:#000000;stroke-width:0.33006233"
       d="" />
    <path
       id="path8386"
       style="fill:none;stroke:#000000;stroke-width:0.33006233"
       d="" />
    <path
       id="path8396"
       style="fill:none;stroke:#000000;stroke-width:0.33006233"
       d="" />
    <path
       id="path8402"
       style="fill:none;stroke:#000000;stroke-width:0.33006233"
       d="" />
    <path
       id="path8420"
       style="fill:none;stroke:#000000;stroke-width:0.33006233"
       d="" />
    <path
       id="path8436"
       style="fill:none;stroke:#000000;stroke-width:0.33006233"
       d="" />
    <path
       id="path8442"
       style="fill:none;stroke:#000000;stroke-width:0.33006233"
       d="" />
    <path
       id="path8448"
       style="fill:none;stroke:#000000;stroke-width:0.33006233"
       d="" />
    <path
       id="path8456"
       style="fill:none;stroke:#000000;stroke-width:0.33006233"
       d="" />
    <path
       id="path8462"
       style="fill:none;stroke:#000000;stroke-width:0.33006233"
       d="" />
  </g>
  <g
     id="layer1-6"
     transform="translate(0.00948915,-804.34046)"
     style="opacity:1;stroke:#ff0000;stroke-opacity:1">
    <path
       inkscape:connector-curvature="0"
       id="path7559-6-9"
       style="fill:none;stroke:#ff0000;stroke-width:0.35433072;stroke-miterlimit:4;stroke-dasharray:none;stroke-opacity:1"
       d="" />
    <path
       inkscape:connector-curvature="0"
       id="path7565-1-2"
       style="fill:none;stroke:#ff0000;stroke-width:0.35433072;stroke-miterlimit:4;stroke-dasharray:none;stroke-opacity:1"
       d="" />
    <path
       inkscape:connector-curvature="0"
       id="path7579-8-2"
       style="fill:none;stroke:#ff0000;stroke-width:0.35433072;stroke-miterlimit:4;stroke-dasharray:none;stroke-opacity:1"
       d="" />
    <path
       inkscape:connector-curvature="0"
       d=""
       style="fill:none;stroke:#ff0000;stroke-width:0.35433072;stroke-miterlimit:4;stroke-dasharray:none;stroke-opacity:1"
       id="path8694-7-4" />
    <path
       inkscape:connector-curvature="0"
       d=""
       style="fill:none;stroke:#ff0000;stroke-width:0.35433072;stroke-miterlimit:4;stroke-dasharray:none;stroke-opacity:1"
       id="path8700-9-7" />
    <path
       inkscape:connector-curvature="0"
       id="path9252-2-7"
       style="fill:none;stroke:#ff0000;stroke-width:0.35433072;stroke-miterlimit:4;stroke-dasharray:none;stroke-opacity:1"
       d="" />
    <path
       inkscape:connector-curvature="0"
       id="path9264-0-5"
       style="fill:none;stroke:#ff0000;stroke-width:0.35433072;stroke-miterlimit:4;stroke-dasharray:none;stroke-opacity:1"
       d="" />
    <path
       inkscape:connector-curvature="0"
       d=""
       style="fill:none;stroke:#ff0000;stroke-width:0.35433072;stroke-miterlimit:4;stroke-dasharray:none;stroke-opacity:1"
       id="path9834-2-4" />
    <path
       inkscape:connector-curvature="0"
       d=""
       style="fill:none;stroke:#ff0000;stroke-width:0.35433072;stroke-miterlimit:4;stroke-dasharray:none;stroke-opacity:1"
       id="path4314-3-8" />
    <path
       inkscape:connector-curvature="0"
       d=""
       style="fill:none;stroke:#ff0000;stroke-width:0.35433072;stroke-miterlimit:4;stroke-dasharray:none;stroke-opacity:1"
       id="path4324-7-1" />
    <path
       inkscape:connector-curvature="0"
       d=""
       style="fill:none;stroke:#ff0000;stroke-width:0.35433072;stroke-miterlimit:4;stroke-dasharray:none;stroke-opacity:1"
       id="path4332-5-2" />
    <path
       inkscape:connector-curvature="0"
       d=""
       style="fill:none;stroke:#ff0000;stroke-width:0.35433072;stroke-miterlimit:4;stroke-dasharray:none;stroke-opacity:1"
       id="path4586-9-8" />
    <path
       inkscape:connector-curvature="0"
       d=""
       style="fill:none;stroke:#ff0000;stroke-width:0.35433072;stroke-miterlimit:4;stroke-dasharray:none;stroke-opacity:1"
       id="path4604-3-2-9" />
    <path
       inkscape:connector-curvature="0"
       id="path4210-1"
       d="m 286.62005,814.7549 -7.61853,-0.0146 c 0,0 -12.82818,1.40658 -12.82818,17.91705 l 0,3.34661 c 0,2.18732 2.27066,1.89164 2.27066,1.89164 l 17.44977,-0.22271 c 1.55771,0 3.58571,-1.52734 3.58571,-3.50643 l -0.11842,-17.06165 c 0,0 -0.26128,-2.34512 -2.74101,-2.34988 z"
       style="opacity:1;fill:none;fill-rule:evenodd;stroke:#ff0000;stroke-width:0.35433072;stroke-linecap:butt;stroke-linejoin:miter;stroke-miterlimit:4;stroke-dasharray:none;stroke-opacity:1" />
    <path
       inkscape:connector-curvature="0"
       id="rect4181-3-2"
       d="m 480.70083,804.50916 -203.04286,0 c -12.32491,0 -22.24714,9.92774 -22.24714,22.25948 l 0,203.15546 c 0,12.3317 7.64332,22.2596 19.96823,22.2596 l 184.53762,0 c 2.92829,-3.0752 -0.0232,-18.2517 9.0269,-19.3868 8.83211,-0.8355 6.50431,19.3868 13.72677,19.3868 16.78017,-0.2534 20.2776,-5.2441 20.2776,-19.7515 0,-7.4374 -16.63239,-7.0836 -16.63239,-15.1697 0,-7.127 16.63239,-6.0962 16.63239,-10.4755 l 0,-58.92077 c 0,0 0.48578,-3.88312 -2.99423,-4.08499 l -26.18382,-1.51891 c 0,0 -4.53414,-0.65882 -4.53414,-5.75652 l 0,-19.04092 c 0,-4.34115 4.80997,-4.65361 4.80997,-4.65361 l 25.0197,-1.36414 c 3.90445,-0.10755 3.88252,-3.58267 3.88252,-3.58267 l 0,-81.09583 c 0,-12.33174 -9.9222,-22.25948 -22.24712,-22.25948 z"
       style="opacity:1;fill:none;stroke:#ff0000;stroke-width:0.35433072;stroke-linejoin:round;stroke-miterlimit:4;stroke-dasharray:none;stroke-opacity:1" />
    <path
       inkscape:connector-curvature="0"
       id="path7559-9-3"
       style="fill:none;stroke:#ff0000;stroke-width:0.35433072;stroke-miterlimit:4;stroke-dasharray:none;stroke-opacity:1"
       d="" />
    <path
       inkscape:connector-curvature="0"
       id="path7565-3-6"
       style="fill:none;stroke:#ff0000;stroke-width:0.35433072;stroke-miterlimit:4;stroke-dasharray:none;stroke-opacity:1"
       d="" />
    <path
       inkscape:connector-curvature="0"
       id="path7579-1-8"
       style="fill:none;stroke:#ff0000;stroke-width:0.35433072;stroke-miterlimit:4;stroke-dasharray:none;stroke-opacity:1"
       d="" />
    <path
       inkscape:connector-curvature="0"
       d=""
       style="fill:none;stroke:#ff0000;stroke-width:0.35433072;stroke-miterlimit:4;stroke-dasharray:none;stroke-opacity:1"
       id="path8694-9-0" />
    <path
       inkscape:connector-curvature="0"
       d=""
       style="fill:none;stroke:#ff0000;stroke-width:0.35433072;stroke-miterlimit:4;stroke-dasharray:none;stroke-opacity:1"
       id="path8700-4-2" />
    <path
       inkscape:connector-curvature="0"
       id="path9252-7-1"
       style="fill:none;stroke:#ff0000;stroke-width:0.35433072;stroke-miterlimit:4;stroke-dasharray:none;stroke-opacity:1"
       d="" />
    <path
       inkscape:connector-curvature="0"
       id="path9264-8-0"
       style="fill:none;stroke:#ff0000;stroke-width:0.35433072;stroke-miterlimit:4;stroke-dasharray:none;stroke-opacity:1"
       d="" />
    <path
       inkscape:connector-curvature="0"
       d=""
       style="fill:none;stroke:#ff0000;stroke-width:0.35433072;stroke-miterlimit:4;stroke-dasharray:none;stroke-opacity:1"
       id="path9834-4-5" />
    <path
       inkscape:connector-curvature="0"
       d=""
       style="fill:none;stroke:#ff0000;stroke-width:0.35433072;stroke-miterlimit:4;stroke-dasharray:none;stroke-opacity:1"
       id="path4314-5-1" />
    <path
       inkscape:connector-curvature="0"
       d=""
       style="fill:none;stroke:#ff0000;stroke-width:0.35433072;stroke-miterlimit:4;stroke-dasharray:none;stroke-opacity:1"
       id="path4324-0-1" />
    <path
       inkscape:connector-curvature="0"
       d=""
       style="fill:none;stroke:#ff0000;stroke-width:0.35433072;stroke-miterlimit:4;stroke-dasharray:none;stroke-opacity:1"
       id="path4332-3-0" />
    <path
       inkscape:connector-curvature="0"
       d=""
       style="fill:none;stroke:#ff0000;stroke-width:0.35433072;stroke-miterlimit:4;stroke-dasharray:none;stroke-opacity:1"
       id="path4586-6-8" />
    <path
       inkscape:connector-curvature="0"
       d=""
       style="fill:none;stroke:#ff0000;stroke-width:0.35433072;stroke-miterlimit:4;stroke-dasharray:none;stroke-opacity:1"
       id="path4604-3-1-5" />
    <path
       inkscape:connector-curvature="0"
       id="path9309-6-0"
       d="m 502.98066,806.10229 a 1.6034594,1.6041975 0 0 1 -1.60346,1.6042 1.6034594,1.6041975 0 0 1 -1.60346,-1.6042 1.6034594,1.6041975 0 0 1 1.60346,-1.60419 1.6034594,1.6041975 0 0 1 1.60346,1.60419 z"
       style="opacity:0.97000002;fill:none;fill-opacity:1;stroke:#ff0000;stroke-width:0.35433072;stroke-linecap:round;stroke-linejoin:round;stroke-miterlimit:4;stroke-dasharray:none;stroke-opacity:1" />
    <path
       inkscape:connector-curvature="0"
       id="path4210"
       d="m 216.55729,814.75338 7.61191,-0.0146 c 0,0 12.81703,1.40659 12.81703,17.91716 l 0,3.34665 c 0,2.18732 -2.26868,1.89164 -2.26868,1.89164 l -17.43461,-0.2227 c -1.55635,0 -3.58259,-1.52735 -3.58259,-3.50646 l 0.11831,-17.06176 c 0,0 0.26105,-2.34514 2.73863,-2.3499 z"
       style="opacity:1;fill:none;fill-rule:evenodd;stroke:#ff0000;stroke-width:0.35433072;stroke-linecap:butt;stroke-linejoin:miter;stroke-miterlimit:4;stroke-dasharray:none;stroke-opacity:1" />
    <path
       inkscape:connector-curvature="0"
       id="rect4181-3"
       d="m 22.6451,804.50757 202.86648,0 c 12.31421,0 22.22782,9.92781 22.22782,22.25963 l 0,180.5908 c 0,7.9229 -8.27522,6.824 -8.27522,6.824 l -20.22951,-0.1149 c -12.36138,-0.07 -12.06425,8.133 -12.02493,20.4175 l 0.0326,10.1734 c 0,0 -0.92632,7.5258 -6.80409,7.5258 l -157.027,0 c -2.925747,-3.0752 0.02319,-18.2518 -9.019065,-19.387 -8.824433,-0.8354 -6.498664,19.387 -13.714843,19.387 -16.7655891,-0.2535 -20.25999037,-5.2441 -20.25999037,-19.7516 0,-7.4374 16.61794637,-7.0836 16.61794637,-15.1698 0,-7.127 -16.61794637,-6.0962 -16.61794637,-10.4756 l 0,-180.0196 c 0,-12.33182 9.91359237,-22.25963 22.22779837,-22.25963 z"
       style="opacity:1;fill:none;stroke:#ff0000;stroke-width:0.35433072;stroke-linejoin:round;stroke-miterlimit:4;stroke-dasharray:none;stroke-opacity:1" />
    <path
       inkscape:connector-curvature="0"
       id="circle9313-6"
       d="m 3.3745949,1050.5906 a 1.6034594,1.6041975 0 0 1 -1.6034593,1.6042 1.6034594,1.6041975 0 0 1 -1.60345939,-1.6042 1.6034594,1.6041975 0 0 1 1.60345939,-1.6042 1.6034594,1.6041975 0 0 1 1.6034593,1.6042 z"
       style="opacity:0.97000002;fill:none;fill-opacity:1;stroke:#ff0000;stroke-width:0.35433072;stroke-linecap:round;stroke-linejoin:round;stroke-miterlimit:4;stroke-dasharray:none;stroke-opacity:1" />
  </g>
</svg>
