<?xml version="1.0" encoding="UTF-8" standalone="no"?>
<svg
   xmlns:dc="http://purl.org/dc/elements/1.1/"
   xmlns:cc="http://creativecommons.org/ns#"
   xmlns:rdf="http://www.w3.org/1999/02/22-rdf-syntax-ns#"
   xmlns:svg="http://www.w3.org/2000/svg"
   xmlns="http://www.w3.org/2000/svg"
   version="1.1"
   id="svg2"
   viewBox="0 0 503.14957 301.1811"
   height="85mm"
   width="142mm">
  <defs
     id="defs4" />
  <metadata
     id="metadata7">
    <rdf:RDF>
      <cc:Work
         rdf:about="">
        <dc:format>image/svg+xml</dc:format>
        <dc:type
           rdf:resource="http://purl.org/dc/dcmitype/StillImage" />
        <dc:title></dc:title>
      </cc:Work>
    </rdf:RDF>
  </metadata>
  <g
     transform="translate(0,-751.1811)"
     id="layer1">
    <path
       style="fill:none;fill-opacity:0.2961877;stroke:#000000;stroke-width:0.35544944;stroke-linecap:round;stroke-linejoin:round;stroke-miterlimit:4;stroke-dasharray:none;stroke-opacity:1"
       d="m 255.1548,998.96599 c 0,5.02081 12.39543,5.15991 12.39543,5.15991 4.03634,0.2755 6.04492,2.701 6.04492,6.0557 l 0,5.6889 c 0,3.3547 -2.66946,5.8601 -6.04492,6.0557 -4.03326,0 -12.25558,-0.066 -12.25558,11.2589 0,11.9018 2.75018,19.1093 16.63804,18.939 9.21214,0.032 10.18023,-1.9953 11.65826,-10.6876 0,-3.3546 4.17427,-6.0556 7.52296,-6.0556 l 4.80187,0 c 3.34868,0 5.25275,2.7962 6.04492,6.0556 1.04911,4.3166 0.22808,10.748 5.85389,10.748 l 155.26427,-0.18 c 22.02214,0 39.75197,-17.7594 39.75197,-39.8207 l 0,-221.00268 c 0,-22.06133 -17.72983,-39.82609 -39.75197,-39.82272 l -167.70105,0.0257 c -15.6557,0.26381 -17.9319,5.62234 -17.79476,14.1926 l 0,119.29645 c 0,0 0.51278,16.9144 -11.6468,20.17284 -12.14364,3.25417 -10.61859,23.17843 -10.7592,23.21358 l -0.0605,33.61538 z"
       id="rect4874" />
    <path
       style="fill:none;fill-opacity:0.2961877;stroke:#000000;stroke-width:0.34313571;stroke-linecap:round;stroke-linejoin:round;stroke-miterlimit:4;stroke-dasharray:none;stroke-opacity:1"
       d="m 471.29036,870.77683 a 10.458354,10.458347 0 0 0 10.45836,10.45835 10.458354,10.458347 0 0 0 10.45835,-10.45835 10.458354,10.458347 0 0 0 -10.45835,-10.45836 10.458354,10.458347 0 0 0 -10.45836,10.45836 z"
       id="path7681" />
    <path
       style="display:inline;opacity:1;fill:none;fill-opacity:0.2961877;stroke:#000000;stroke-width:0.35433072;stroke-linecap:round;stroke-linejoin:round;stroke-miterlimit:4;stroke-dasharray:none;stroke-opacity:1"
       d="m 22.99464,944.367 c 0,0 0.51285,-16.91467 -11.6468,-20.17284 C -0.81181,920.93599 0.34675,901.17801 0.34675,901.17801 l 0.005,-4.38295 0.51857,-105.61338 c 0,-22.06133 17.72984,-39.82272 39.75198,-39.82272 l 167.33905,0 c 22.02214,0 39.75198,17.76139 39.75198,39.82272 l 0,221.00262 c 0,22.0613 -17.72984,39.8207 -39.75198,39.8207 l -155.26426,0.18 c -5.62581,0 -4.80478,-6.4314 -5.85389,-10.748 -0.79217,-3.2594 -2.69624,-6.0556 -6.04492,-6.0556 l -4.80187,0 c -3.34869,0 -7.52296,2.701 -7.52296,6.0556 -1.47803,8.6923 -2.44612,10.7198 -11.65826,10.6876 -13.88786,0.1703 -16.63804,-7.0372 -16.63804,-18.939 0,-11.3251 8.22232,-11.2589 12.25558,-11.2589 3.37546,-0.1956 10.5655,-2.701 10.56377,-6.0882 z"
       id="path4139" />
    <path
       style="opacity:0.98009997;fill:none;fill-opacity:0.2961877;stroke:#000000;stroke-width:0.34313571;stroke-linecap:round;stroke-linejoin:round;stroke-miterlimit:4;stroke-dasharray:none;stroke-opacity:1"
       d="m 216.17274,870.77739 a 10.458354,10.458347 0 0 0 10.45835,10.45835 10.458354,10.458347 0 0 0 10.45836,-10.45835 10.458354,10.458347 0 0 0 -10.45836,-10.45836 10.458354,10.458347 0 0 0 -10.45835,10.45836 z"
       id="path7681-2" />
    <path
       id="path4161"
       d="m 502.95266,752.95276 a 1.5747262,1.5747262 0 0 1 -1.57473,1.57473 1.5747262,1.5747262 0 0 1 -1.57473,-1.57473 1.5747262,1.5747262 0 0 1 1.57473,-1.57473 1.5747262,1.5747262 0 0 1 1.57473,1.57473 z"
       style="fill:none;fill-opacity:0.2961877;stroke:#000000;stroke-width:0.39385468;stroke-linecap:round;stroke-linejoin:round;stroke-miterlimit:4;stroke-dasharray:none;stroke-opacity:1" />
    <path
       id="circle4163"
       d="m 3.3463645,1050.5906 a 1.5747262,1.5747262 0 0 1 -1.5747262,1.5747 1.5747262,1.5747262 0 0 1 -1.57472625,-1.5747 1.5747262,1.5747262 0 0 1 1.57472625,-1.5748 1.5747262,1.5747262 0 0 1 1.5747262,1.5748 z"
       style="fill:none;fill-opacity:0.2961877;stroke:#000000;stroke-width:0.39385468;stroke-linecap:round;stroke-linejoin:round;stroke-miterlimit:4;stroke-dasharray:none;stroke-opacity:1" />
  </g>
</svg>
