<?xml version="1.0" encoding="UTF-8" standalone="no"?>
<svg
   xmlns:dc="http://purl.org/dc/elements/1.1/"
   xmlns:cc="http://creativecommons.org/ns#"
   xmlns:rdf="http://www.w3.org/1999/02/22-rdf-syntax-ns#"
   xmlns:svg="http://www.w3.org/2000/svg"
   xmlns="http://www.w3.org/2000/svg"
   width="70mm"
   height="120mm"
   viewBox="0 0 248.03151 425.19684"
   id="svg2"
   version="1.1">
  <defs
     id="defs4" />
  <metadata
     id="metadata7">
    <rdf:RDF>
      <cc:Work
         rdf:about="">
        <dc:format>image/svg+xml</dc:format>
        <dc:type
           rdf:resource="http://purl.org/dc/dcmitype/StillImage" />
        <dc:title></dc:title>
      </cc:Work>
    </rdf:RDF>
  </metadata>
  <g
     id="layer1"
     transform="translate(0,-627.16535)"
     style="display:inline;opacity:1">
    <path
       id="rect4976"
       d="m 22.328108,671.58535 4.926941,0 c 2.471402,0 4.461014,1.09128 4.461014,2.44683 l 0,37.22983 c 0,1.35555 -1.989612,2.44683 -4.461014,2.44683 l -4.926941,0 c -2.471402,0 -4.461014,-1.09128 -4.461014,-2.44683 l 0,-37.22983 c 0,-1.35555 1.989612,-2.44683 4.461014,-2.44683 z"
       style="fill:none;stroke:#000000;stroke-width:0.33038363;stroke-miterlimit:4;stroke-dasharray:none;stroke-opacity:1" />
    <path
       style="fill:none;stroke:#000000;stroke-width:0.30878755;stroke-miterlimit:4;stroke-dasharray:none;stroke-opacity:1"
       d="m 247.49531,965.13576 0,27.42395 c 0,1.53294 -1.58363,2.76709 -3.55074,2.76709 l -14.67205,0 c -6.39927,2.03532 -5.60307,7.8788 -5.60057,12.4478 0,13.2745 13.43852,4.6926 21.1459,18.4434 6.58027,11.6486 2.97304,25.3414 -15.02582,25.3414 -13.26314,0 -13.99697,-17.1663 -23.85028,-17.1663 -9.58891,0 -7.49819,4.9756 -12.48288,17.8143 l -172.032088,-0.706 C 9.6419786,1051.4535 0.15439378,1042.0336 0.15439378,1030.273 l 0,-381.72478 c 0,-11.76057 9.48748512,-21.22845 21.27238822,-21.22845 l 199.091298,0 c 2.8913,0 3.30628,0.91805 3.30668,2.87244 0.009,44.35201 0.004,87.2724 0.004,131.68758 0,2.86769 0.73731,4.18572 3.87648,4.19352 l 18.36859,0.0464 c 0,0 1.69524,-0.10003 1.69524,2.27319 l -0.29117,196.79845"
       id="rect5496" />
  </g>
  <g
     id="layer3"
     transform="translate(0,177.16532)"
     style="display:inline" />
  <g
     id="layer6"
     transform="translate(0,177.16532)" />
  <g
     id="layer4"
     transform="translate(0,177.16532)">
    <path
       d=""
       style="fill:none;stroke:#000000;stroke-width:0.92052549"
       id="path7559" />
    <path
       d=""
       style="fill:none;stroke:#000000;stroke-width:0.92052549"
       id="path7565" />
    <path
       d=""
       style="fill:none;stroke:#000000;stroke-width:0.92052549"
       id="path7579" />
    <path
       id="path8694"
       style="fill:none;stroke:#000000;stroke-width:0.34588146"
       d="" />
    <path
       id="path8700"
       style="fill:none;stroke:#000000;stroke-width:0.34588146"
       d="" />
    <path
       d=""
       style="fill:none;stroke:#000000;stroke-width:0.35277364"
       id="path9252" />
    <path
       d=""
       style="fill:none;stroke:#000000;stroke-width:0.35277364"
       id="path9264" />
    <path
       id="path9834"
       style="fill:none;stroke:#000000;stroke-width:0.30689958"
       d="" />
    <path
       id="path4314"
       style="fill:none;stroke:#000000;stroke-width:1.21444738"
       d="" />
    <path
       id="path4324"
       style="fill:none;stroke:#000000;stroke-width:1.21444738"
       d="" />
    <path
       id="path4332"
       style="fill:none;stroke:#000000;stroke-width:1.21444738"
       d="" />
    <path
       id="path4586"
       style="fill:none;stroke:#000000;stroke-width:1.21444738"
       d="" />
    <path
       id="path4604-3"
       style="fill:none;stroke:#000000;stroke-width:1.21444738"
       d="" />
    <path
       d=""
       style="fill:none;stroke:#000000;stroke-width:0.2444419"
       id="path7014" />
    <path
       d=""
       style="fill:none;stroke:#000000;stroke-width:0.2444419"
       id="path7038" />
    <path
       d=""
       style="fill:none;stroke:#000000;stroke-width:0.2444419"
       id="path7044" />
    <path
       d=""
       style="fill:none;stroke:#000000;stroke-width:0.2444419"
       id="path7058" />
    <path
       d=""
       style="fill:none;stroke:#000000;stroke-width:0.2444419"
       id="path7078" />
    <path
       d=""
       style="fill:none;stroke:#000000;stroke-width:0.2444419"
       id="path7084" />
  </g>
</svg>
