<?xml version="1.0" encoding="UTF-8" standalone="no"?>
<!-- Created with Inkscape (http://www.inkscape.org/) -->

<svg
   xmlns:dc="http://purl.org/dc/elements/1.1/"
   xmlns:cc="http://creativecommons.org/ns#"
   xmlns:rdf="http://www.w3.org/1999/02/22-rdf-syntax-ns#"
   xmlns:svg="http://www.w3.org/2000/svg"
   xmlns="http://www.w3.org/2000/svg"
   xmlns:sodipodi="http://sodipodi.sourceforge.net/DTD/sodipodi-0.dtd"
   xmlns:inkscape="http://www.inkscape.org/namespaces/inkscape"
   sodipodi:docname="Cut.svg"
   inkscape:version="0.91 r13725"
   version="1.1"
   id="svg2"
   viewBox="0 0 761.81101 301.1811"
   height="85mm"
   width="215mm">
  <sodipodi:namedview
     inkscape:window-maximized="1"
     inkscape:window-y="1"
     inkscape:window-x="0"
     inkscape:window-height="744"
     inkscape:window-width="1366"
     showgrid="false"
     inkscape:current-layer="layer1"
     inkscape:document-units="mm"
     inkscape:cy="150.8743"
     inkscape:cx="380.90549"
     inkscape:zoom="0.88079583"
     inkscape:pageshadow="2"
     inkscape:pageopacity="0"
     borderopacity="1"
     bordercolor="#919191"
     pagecolor="#5e5e5e"
     id="base"
     showguides="true"
     inkscape:guide-bbox="true" />
  <defs
     id="defs4" />
  <metadata
     id="metadata7">
    <rdf:RDF>
      <cc:Work
         rdf:about="">
        <dc:format>image/svg+xml</dc:format>
        <dc:type
           rdf:resource="http://purl.org/dc/dcmitype/StillImage" />
        <dc:title></dc:title>
      </cc:Work>
    </rdf:RDF>
  </metadata>
  <g
     transform="translate(0,-751.1811)"
     id="layer1"
     inkscape:groupmode="layer"
     inkscape:label="Cut"
     sodipodi:insensitive="true">
    <path
       style="display:inline;opacity:0.4;fill:none;fill-opacity:0.2961877;stroke:#000000;stroke-width:0.35433072;stroke-linecap:round;stroke-linejoin:round;stroke-miterlimit:4;stroke-dasharray:none;stroke-opacity:1"
       d="m 39.837292,750.79356 c -21.972354,0 -39.66015716,17.68975 -39.66015716,39.66211 l 0,220.11133 c 0,21.9723 17.68780316,39.6601 39.66015716,39.6601 l 172.999998,0 c 8.67474,-0.2256 34.56054,-3.5277 34.56054,-35.5664 l -0.9375,-224.20503 c 0,-21.97236 -17.68779,-39.66211 -39.66015,-39.66211 z"
       id="path8091"
       inkscape:connector-curvature="0" />
    <path
       style="display:inline;opacity:0.4;fill:none;fill-opacity:0.2961877;stroke:#000000;stroke-width:0.35433072;stroke-linecap:round;stroke-linejoin:round;stroke-miterlimit:4;stroke-dasharray:none;stroke-opacity:1"
       d="m 22.470104,903.61643 32.322266,0 c 4.591618,0 8.287109,3.68209 8.287109,8.25586 l 0,81.77283 c 0,4.57377 -3.695491,8.25588 -8.287109,8.25588 l -32.322266,0 c -4.591618,0 -8.287109,-3.68211 -8.287109,-8.25588 l 0,-81.77283 c 0,-4.57377 3.695491,-8.25586 8.287109,-8.25586 z"
       id="path5549"
       inkscape:connector-curvature="0" />
    <path
       style="fill:none;fill-opacity:0.2961877;stroke:#000000;stroke-width:0.35433072;stroke-linecap:round;stroke-linejoin:round;stroke-miterlimit:4;stroke-dasharray:none;stroke-opacity:1"
       d="m 296.73949,832.20736 31.524,0 c 4.58706,0 8.27989,3.68213 8.27989,8.2559 l 0,31.57198 c 0,4.57377 -3.69283,8.25591 -8.27989,8.25591 l -31.524,0 c -4.58706,0 -8.27989,-3.68214 -8.27989,-8.25591 l 0,-31.57198 c 0,-4.57377 3.69283,-8.2559 8.27989,-8.2559 z"
       id="rect4924"
       inkscape:connector-curvature="0" />
    <path
       style="fill:none;fill-opacity:0.2961877;stroke:#000000;stroke-width:0.35433072;stroke-linecap:round;stroke-linejoin:round;stroke-miterlimit:4;stroke-dasharray:none;stroke-opacity:1"
       d="m 299.75784,839.07644 25.4873,0 c 2.45374,0 4.42913,1.97539 4.42913,4.42913 l 0,25.4873 c 0,2.45374 -1.97539,4.42913 -4.42913,4.42913 l -25.4873,0 c -2.45374,0 -4.42913,-1.97539 -4.42913,-4.42913 l 0,-25.4873 c 0,-2.45374 1.97539,-4.42913 4.42913,-4.42913 z"
       id="rect4922"
       inkscape:connector-curvature="0" />
    <path
       style="display:inline;fill:none;fill-opacity:0.2961877;stroke:#000000;stroke-width:0.35433072;stroke-linecap:round;stroke-linejoin:round;stroke-miterlimit:4;stroke-dasharray:none;stroke-opacity:1"
       d="m 299.0006,899.66166 25.48828,0 c 2.45374,0 4.42774,1.97399 4.42774,4.42773 l 0,25.48828 c 0,2.45374 -1.974,4.42969 -4.42774,4.42969 l -25.48828,0 c -2.45374,0 -4.42968,-1.97595 -4.42968,-4.42969 l 0,-25.48828 c 0,-2.45374 1.97594,-4.42773 4.42968,-4.42773 z"
       id="path8090"
       inkscape:connector-curvature="0"
       sodipodi:nodetypes="sssssssss" />
    <path
       style="opacity:1;fill:none;fill-opacity:1;stroke:#000000;stroke-width:0.35433072;stroke-linecap:round;stroke-linejoin:round;stroke-miterlimit:4;stroke-dasharray:none;stroke-opacity:1"
       d="m 285.13053,941.15716 0,42.51969 7.22214,-1.4e-4 0.04,-35.08223 1.66328,-0.0522 0.007,-6.98968 35.2839,0 0.004,6.98968 1.667,0.0522 0.0166,35.08223 7.24571,1.4e-4 0,-42.51969 c -1.41565,-5.28328 -2.49777,-7.46465 -2.4944,-10.97207 5.43222,-2.29918 8.96408,-7.62274 8.9707,-13.52148 -3.5e-4,-5.90443 -3.53325,-11.23571 -8.9707,-13.53711 l 0,-2.08008 c 0,-4.57377 -3.69224,-8.25586 -8.2793,-8.25586 l -31.52344,0 c -4.58706,0 -8.28124,3.68209 -8.28124,8.25586 l 0,4.375 c -3.32464,2.78836 -5.24759,6.90305 -5.25391,11.24219 5.5e-4,4.34597 1.92404,8.46897 5.25391,11.26172 -1.05302,5.59913 -0.58908,5.83427 -2.57125,13.23183 z"
       id="rect8092"
       inkscape:connector-curvature="0"
       sodipodi:nodetypes="cccccccccccccccsssscccc" />
    <path
       inkscape:connector-curvature="0"
       id="path8107"
       d="m 319.55638,1050.2243 147.72341,0 c 8.67474,-0.2256 34.56055,-3.5296 34.56055,-35.5683 l -0.93555,-224.20507 c 0,-21.97237 -17.68975,-39.66016 -39.66211,-39.66016 l -166.96092,0 c -21.97235,0 -39.66211,17.68779 -39.66211,39.66016 l 0,220.11137 c 0,11.1525 4.55741,21.2018 11.91905,28.3945 l -0.0334,-21.0551 c -1.94038,-4.495 -3.01455,-9.4581 -3.01455,-14.6812 l 0,-204.83012 c 0,-20.44692 16.4613,-36.90821 36.9082,-36.90821 l 155.36914,0 c 20.44691,0 36.9082,16.46129 36.9082,36.90821 l 0.87109,208.63862 c 0,29.8144 -24.08766,32.8896 -32.16015,33.0996 l -141.58632,0 z"
       style="display:inline;opacity:0.4;fill:none;fill-opacity:0.2961877;stroke:#000000;stroke-width:0.35433072;stroke-linecap:round;stroke-linejoin:round;stroke-miterlimit:4;stroke-dasharray:none;stroke-opacity:1"
       sodipodi:nodetypes="ccccssssccssssccccc" />
    <path
       inkscape:connector-curvature="0"
       id="path8122"
       d="m 22.542441,832.56274 a 3.2357316,3.2357316 0 0 1 -1.18436,4.42009 3.2357316,3.2357316 0 0 1 -4.420091,-1.18435 3.2357316,3.2357316 0 0 1 1.184361,-4.42009 3.2357316,3.2357316 0 0 1 4.42009,1.18435 z"
       style="opacity:1;fill:none;fill-opacity:1;stroke:#000000;stroke-width:0.35433072;stroke-linecap:round;stroke-linejoin:round;stroke-miterlimit:4;stroke-dasharray:none;stroke-opacity:1" />
    <path
       inkscape:connector-curvature="0"
       id="circle8124"
       d="m 29.596321,828.49018 a 3.2357316,3.2357316 0 0 1 -1.184361,4.4201 3.2357316,3.2357316 0 0 1 -4.42009,-1.18436 3.2357316,3.2357316 0 0 1 1.18436,-4.42009 3.2357316,3.2357316 0 0 1 4.420091,1.18435 z"
       style="opacity:1;fill:none;fill-opacity:1;stroke:#000000;stroke-width:0.35433072;stroke-linecap:round;stroke-linejoin:round;stroke-miterlimit:4;stroke-dasharray:none;stroke-opacity:1" />
    <path
       inkscape:connector-curvature="0"
       id="circle8126"
       d="m 36.55357,824.47342 a 3.2357316,3.2357316 0 0 1 -1.184361,4.42009 3.2357316,3.2357316 0 0 1 -4.420091,-1.18436 3.2357316,3.2357316 0 0 1 1.184361,-4.42009 3.2357316,3.2357316 0 0 1 4.420091,1.18436 z"
       style="opacity:1;fill:none;fill-opacity:1;stroke:#000000;stroke-width:0.35433072;stroke-linecap:round;stroke-linejoin:round;stroke-miterlimit:4;stroke-dasharray:none;stroke-opacity:1" />
    <path
       inkscape:connector-curvature="0"
       id="circle8128"
       d="m 43.317562,820.56822 a 3.2357316,3.2357316 0 0 1 -1.18436,4.42009 3.2357316,3.2357316 0 0 1 -4.420091,-1.18436 3.2357316,3.2357316 0 0 1 1.184361,-4.42009 3.2357316,3.2357316 0 0 1 4.42009,1.18436 z"
       style="opacity:1;fill:none;fill-opacity:1;stroke:#000000;stroke-width:0.35433072;stroke-linecap:round;stroke-linejoin:round;stroke-miterlimit:4;stroke-dasharray:none;stroke-opacity:1" />
    <path
       inkscape:connector-curvature="0"
       id="circle8130"
       d="m 22.21788,840.48043 a 3.2357316,3.2357316 0 0 1 -1.184361,4.42009 3.2357316,3.2357316 0 0 1 -4.42009,-1.18435 3.2357316,3.2357316 0 0 1 1.18436,-4.42009 3.2357316,3.2357316 0 0 1 4.420091,1.18435 z"
       style="opacity:1;fill:none;fill-opacity:1;stroke:#000000;stroke-width:0.35433072;stroke-linecap:round;stroke-linejoin:round;stroke-miterlimit:4;stroke-dasharray:none;stroke-opacity:1" />
    <path
       inkscape:connector-curvature="0"
       id="circle8132"
       d="m 29.271759,836.40787 a 3.2357316,3.2357316 0 0 1 -1.18436,4.42009 3.2357316,3.2357316 0 0 1 -4.420091,-1.18435 3.2357316,3.2357316 0 0 1 1.184361,-4.42009 3.2357316,3.2357316 0 0 1 4.42009,1.18435 z"
       style="opacity:1;fill:none;fill-opacity:1;stroke:#000000;stroke-width:0.35433072;stroke-linecap:round;stroke-linejoin:round;stroke-miterlimit:4;stroke-dasharray:none;stroke-opacity:1" />
    <path
       inkscape:connector-curvature="0"
       id="circle8134"
       d="m 36.229006,832.39111 a 3.2357316,3.2357316 0 0 1 -1.18436,4.42009 3.2357316,3.2357316 0 0 1 -4.420091,-1.18436 3.2357316,3.2357316 0 0 1 1.184361,-4.42009 3.2357316,3.2357316 0 0 1 4.42009,1.18436 z"
       style="opacity:1;fill:none;fill-opacity:1;stroke:#000000;stroke-width:0.35433072;stroke-linecap:round;stroke-linejoin:round;stroke-miterlimit:4;stroke-dasharray:none;stroke-opacity:1" />
    <path
       inkscape:connector-curvature="0"
       id="circle8136"
       d="m 42.993,828.48591 a 3.2357316,3.2357316 0 0 1 -1.184361,4.42009 3.2357316,3.2357316 0 0 1 -4.420091,-1.18436 3.2357316,3.2357316 0 0 1 1.184361,-4.42009 3.2357316,3.2357316 0 0 1 4.420091,1.18436 z"
       style="opacity:1;fill:none;fill-opacity:1;stroke:#000000;stroke-width:0.35433072;stroke-linecap:round;stroke-linejoin:round;stroke-miterlimit:4;stroke-dasharray:none;stroke-opacity:1" />
    <path
       inkscape:connector-curvature="0"
       id="circle8138"
       d="m 50.04688,824.41335 a 3.2357316,3.2357316 0 0 1 -1.184362,4.42009 3.2357316,3.2357316 0 0 1 -4.42009,-1.18436 3.2357316,3.2357316 0 0 1 1.18436,-4.42008 3.2357316,3.2357316 0 0 1 4.420092,1.18435 z"
       style="opacity:1;fill:none;fill-opacity:1;stroke:#000000;stroke-width:0.35433072;stroke-linecap:round;stroke-linejoin:round;stroke-miterlimit:4;stroke-dasharray:none;stroke-opacity:1" />
    <path
       inkscape:connector-curvature="0"
       id="circle8140"
       d="m 22.807838,848.6432 a 3.2357316,3.2357316 0 0 1 -1.184361,4.42009 3.2357316,3.2357316 0 0 1 -4.420091,-1.18436 3.2357316,3.2357316 0 0 1 1.184356,-4.4201 3.2357316,3.2357316 0 0 1 4.420096,1.18437 z"
       style="opacity:1;fill:none;fill-opacity:1;stroke:#000000;stroke-width:0.35433072;stroke-linecap:round;stroke-linejoin:round;stroke-miterlimit:4;stroke-dasharray:none;stroke-opacity:1" />
    <path
       inkscape:connector-curvature="0"
       id="circle8142"
       d="m 29.861717,844.57064 a 3.2357316,3.2357316 0 0 1 -1.18436,4.42009 3.2357316,3.2357316 0 0 1 -4.420091,-1.18436 3.2357316,3.2357316 0 0 1 1.184356,-4.4201 3.2357316,3.2357316 0 0 1 4.420095,1.18437 z"
       style="opacity:1;fill:none;fill-opacity:1;stroke:#000000;stroke-width:0.35433072;stroke-linecap:round;stroke-linejoin:round;stroke-miterlimit:4;stroke-dasharray:none;stroke-opacity:1" />
    <path
       inkscape:connector-curvature="0"
       id="circle8144"
       d="m 36.818966,840.55387 a 3.2357316,3.2357316 0 0 1 -1.184361,4.42009 3.2357316,3.2357316 0 0 1 -4.42009,-1.18436 3.2357316,3.2357316 0 0 1 1.184355,-4.4201 3.2357316,3.2357316 0 0 1 4.420096,1.18437 z"
       style="opacity:1;fill:none;fill-opacity:1;stroke:#000000;stroke-width:0.35433072;stroke-linecap:round;stroke-linejoin:round;stroke-miterlimit:4;stroke-dasharray:none;stroke-opacity:1" />
    <path
       inkscape:connector-curvature="0"
       id="circle8146"
       d="m 43.58296,836.64868 a 3.2357316,3.2357316 0 0 1 -1.184361,4.42009 3.2357316,3.2357316 0 0 1 -4.420091,-1.18436 3.2357316,3.2357316 0 0 1 1.184356,-4.4201 3.2357316,3.2357316 0 0 1 4.420096,1.18437 z"
       style="opacity:1;fill:none;fill-opacity:1;stroke:#000000;stroke-width:0.35433072;stroke-linecap:round;stroke-linejoin:round;stroke-miterlimit:4;stroke-dasharray:none;stroke-opacity:1" />
    <path
       inkscape:connector-curvature="0"
       id="circle8148"
       d="m 50.636839,832.57612 a 3.2357316,3.2357316 0 0 1 -1.18436,4.42009 3.2357316,3.2357316 0 0 1 -4.420092,-1.18436 3.2357316,3.2357316 0 0 1 1.184357,-4.4201 3.2357316,3.2357316 0 0 1 4.420095,1.18437 z"
       style="opacity:1;fill:none;fill-opacity:1;stroke:#000000;stroke-width:0.35433072;stroke-linecap:round;stroke-linejoin:round;stroke-miterlimit:4;stroke-dasharray:none;stroke-opacity:1" />
    <path
       inkscape:connector-curvature="0"
       id="circle8182"
       d="m 57.49746,828.61514 a 3.2357316,3.2357316 0 0 1 -1.18436,4.42009 3.2357316,3.2357316 0 0 1 -4.420091,-1.18436 3.2357316,3.2357316 0 0 1 1.184356,-4.4201 3.2357316,3.2357316 0 0 1 4.420095,1.18437 z"
       style="opacity:1;fill:none;fill-opacity:1;stroke:#000000;stroke-width:0.35433072;stroke-linecap:round;stroke-linejoin:round;stroke-miterlimit:4;stroke-dasharray:none;stroke-opacity:1" />
    <path
       inkscape:connector-curvature="0"
       id="circle8172"
       d="m 29.455458,852.79315 a 3.2357316,3.2357316 0 0 1 -1.184361,4.42009 3.2357316,3.2357316 0 0 1 -4.420091,-1.18436 3.2357316,3.2357316 0 0 1 1.184356,-4.4201 3.2357316,3.2357316 0 0 1 4.420096,1.18437 z"
       style="opacity:1;fill:none;fill-opacity:1;stroke:#000000;stroke-width:0.35433072;stroke-linecap:round;stroke-linejoin:round;stroke-miterlimit:4;stroke-dasharray:none;stroke-opacity:1" />
    <path
       inkscape:connector-curvature="0"
       id="circle8174"
       d="m 36.509337,848.72059 a 3.2357316,3.2357316 0 0 1 -1.18436,4.42009 3.2357316,3.2357316 0 0 1 -4.420091,-1.18436 3.2357316,3.2357316 0 0 1 1.184356,-4.4201 3.2357316,3.2357316 0 0 1 4.420095,1.18437 z"
       style="opacity:1;fill:none;fill-opacity:1;stroke:#000000;stroke-width:0.35433072;stroke-linecap:round;stroke-linejoin:round;stroke-miterlimit:4;stroke-dasharray:none;stroke-opacity:1" />
    <path
       inkscape:connector-curvature="0"
       id="circle8176"
       d="m 43.466586,844.70382 a 3.2357316,3.2357316 0 0 1 -1.184361,4.42009 3.2357316,3.2357316 0 0 1 -4.42009,-1.18436 3.2357316,3.2357316 0 0 1 1.184355,-4.4201 3.2357316,3.2357316 0 0 1 4.420096,1.18437 z"
       style="opacity:1;fill:none;fill-opacity:1;stroke:#000000;stroke-width:0.35433072;stroke-linecap:round;stroke-linejoin:round;stroke-miterlimit:4;stroke-dasharray:none;stroke-opacity:1" />
    <path
       inkscape:connector-curvature="0"
       id="circle8178"
       d="m 50.23058,840.79863 a 3.2357316,3.2357316 0 0 1 -1.184361,4.42009 3.2357316,3.2357316 0 0 1 -4.420091,-1.18436 3.2357316,3.2357316 0 0 1 1.184356,-4.4201 3.2357316,3.2357316 0 0 1 4.420096,1.18437 z"
       style="opacity:1;fill:none;fill-opacity:1;stroke:#000000;stroke-width:0.35433072;stroke-linecap:round;stroke-linejoin:round;stroke-miterlimit:4;stroke-dasharray:none;stroke-opacity:1" />
    <path
       inkscape:connector-curvature="0"
       id="circle8180"
       d="m 57.284459,836.72607 a 3.2357316,3.2357316 0 0 1 -1.18436,4.42009 3.2357316,3.2357316 0 0 1 -4.420092,-1.18436 3.2357316,3.2357316 0 0 1 1.184357,-4.4201 3.2357316,3.2357316 0 0 1 4.420095,1.18437 z"
       style="opacity:1;fill:none;fill-opacity:1;stroke:#000000;stroke-width:0.35433072;stroke-linecap:round;stroke-linejoin:round;stroke-miterlimit:4;stroke-dasharray:none;stroke-opacity:1" />
    <path
       inkscape:connector-curvature="0"
       id="circle8200"
       d="m 36.545351,856.81649 a 3.2357316,3.2357316 0 0 1 -1.18436,4.42009 3.2357316,3.2357316 0 0 1 -4.420091,-1.18435 3.2357316,3.2357316 0 0 1 1.184361,-4.42009 3.2357316,3.2357316 0 0 1 4.42009,1.18435 z"
       style="opacity:1;fill:none;fill-opacity:1;stroke:#000000;stroke-width:0.35433072;stroke-linecap:round;stroke-linejoin:round;stroke-miterlimit:4;stroke-dasharray:none;stroke-opacity:1" />
    <path
       inkscape:connector-curvature="0"
       id="circle8202"
       d="m 43.599231,852.74393 a 3.2357316,3.2357316 0 0 1 -1.184361,4.4201 3.2357316,3.2357316 0 0 1 -4.42009,-1.18436 3.2357316,3.2357316 0 0 1 1.18436,-4.42009 3.2357316,3.2357316 0 0 1 4.420091,1.18435 z"
       style="opacity:1;fill:none;fill-opacity:1;stroke:#000000;stroke-width:0.35433072;stroke-linecap:round;stroke-linejoin:round;stroke-miterlimit:4;stroke-dasharray:none;stroke-opacity:1" />
    <path
       inkscape:connector-curvature="0"
       id="circle8204"
       d="m 50.55648,848.72717 a 3.2357316,3.2357316 0 0 1 -1.184361,4.42009 3.2357316,3.2357316 0 0 1 -4.420091,-1.18436 3.2357316,3.2357316 0 0 1 1.184361,-4.42009 3.2357316,3.2357316 0 0 1 4.420091,1.18436 z"
       style="opacity:1;fill:none;fill-opacity:1;stroke:#000000;stroke-width:0.35433072;stroke-linecap:round;stroke-linejoin:round;stroke-miterlimit:4;stroke-dasharray:none;stroke-opacity:1" />
    <path
       inkscape:connector-curvature="0"
       id="circle8206"
       d="m 57.320472,844.82197 a 3.2357316,3.2357316 0 0 1 -1.18436,4.42009 3.2357316,3.2357316 0 0 1 -4.420091,-1.18436 3.2357316,3.2357316 0 0 1 1.184361,-4.42009 3.2357316,3.2357316 0 0 1 4.42009,1.18436 z"
       style="opacity:1;fill:none;fill-opacity:1;stroke:#000000;stroke-width:0.35433072;stroke-linecap:round;stroke-linejoin:round;stroke-miterlimit:4;stroke-dasharray:none;stroke-opacity:1" />
    <path
       style="display:inline;opacity:0.4;fill:none;fill-opacity:0.2961877;stroke:#000000;stroke-width:0.35433072;stroke-linecap:round;stroke-linejoin:round;stroke-miterlimit:4;stroke-dasharray:none;stroke-opacity:1"
       d="m 552.03542,750.79356 c -21.97235,0 -39.66016,17.68975 -39.66016,39.66211 l 0,220.11133 c 0,21.9723 17.68781,39.6601 39.66016,39.6601 l 173,0 c 8.67474,-0.2256 34.56054,-3.5277 34.56054,-35.5664 l -0.9375,-224.20503 c 0,-21.97236 -17.68779,-39.66211 -39.66015,-39.66211 z"
       id="path14422"
       inkscape:connector-curvature="0" />
    <path
       style="display:inline;opacity:0.4;fill:none;fill-opacity:0.2961877;stroke:#000000;stroke-width:0.35433072;stroke-linecap:round;stroke-linejoin:round;stroke-miterlimit:4;stroke-dasharray:none;stroke-opacity:1"
       d="m 534.66823,903.61643 32.32227,0 c 4.59162,0 8.28711,3.68209 8.28711,8.25586 l 0,81.77283 c 0,4.57377 -3.69549,8.25588 -8.28711,8.25588 l -32.32227,0 c -4.59162,0 -8.28711,-3.68211 -8.28711,-8.25588 l 0,-81.77283 c 0,-4.57377 3.69549,-8.25586 8.28711,-8.25586 z"
       id="path14424"
       inkscape:connector-curvature="0" />
    <path
       style="opacity:1;fill:none;fill-opacity:1;stroke:#000000;stroke-width:0.06280065;stroke-linecap:round;stroke-linejoin:round;stroke-miterlimit:4;stroke-dasharray:none;stroke-opacity:1"
       d="m 3.5119067,1050.5906 a 1.7402532,1.7402532 0 0 1 -1.7402532,1.7402 1.7402532,1.7402532 0 0 1 -1.74025318,-1.7402 1.7402532,1.7402532 0 0 1 1.74025318,-1.7403 1.7402532,1.7402532 0 0 1 1.7402532,1.7403 z"
       id="path16991"
       inkscape:connector-curvature="0" />
    <path
       style="opacity:1;fill:none;fill-opacity:1;stroke:#000000;stroke-width:0.06280065;stroke-linecap:round;stroke-linejoin:round;stroke-miterlimit:4;stroke-dasharray:none;stroke-opacity:1"
       d="m 761.77962,752.95276 a 1.7402532,1.7402532 0 0 1 -1.74025,1.74025 1.7402532,1.7402532 0 0 1 -1.74026,-1.74025 1.7402532,1.7402532 0 0 1 1.74026,-1.74025 1.7402532,1.7402532 0 0 1 1.74025,1.74025 z"
       id="circle16993"
       inkscape:connector-curvature="0" />
  </g>
  <g
     transform="translate(0,-407.48031)"
     inkscape:label="Etch"
     id="layer2"
     inkscape:groupmode="layer">
    <path
       inkscape:connector-curvature="0"
       d=""
       style="fill:none;stroke:#000000;stroke-width:0.35433071;stroke-miterlimit:4;stroke-dasharray:none"
       id="path8437" />
    <path
       inkscape:connector-curvature="0"
       d=""
       style="fill:none;stroke:#000000;stroke-width:0.35433071;stroke-miterlimit:4;stroke-dasharray:none"
       id="path8445" />
    <path
       inkscape:connector-curvature="0"
       d=""
       style="fill:none;stroke:#000000;stroke-width:0.35433071;stroke-miterlimit:4;stroke-dasharray:none"
       id="path8453" />
    <path
       inkscape:connector-curvature="0"
       d=""
       style="fill:none;stroke:#000000;stroke-width:0.35433071;stroke-miterlimit:4;stroke-dasharray:none"
       id="path8459" />
    <path
       inkscape:connector-curvature="0"
       d=""
       style="fill:none;stroke:#000000;stroke-width:0.35433071;stroke-miterlimit:4;stroke-dasharray:none"
       id="path8465" />
    <path
       inkscape:connector-curvature="0"
       d=""
       style="fill:none;stroke:#000000;stroke-width:0.35433071;stroke-miterlimit:4;stroke-dasharray:none"
       id="path8475" />
    <path
       inkscape:connector-curvature="0"
       d=""
       style="fill:none;stroke:#000000;stroke-width:0.35433071;stroke-miterlimit:4;stroke-dasharray:none"
       id="path8487" />
    <path
       inkscape:connector-curvature="0"
       d=""
       style="fill:none;stroke:#000000;stroke-width:0.35433071;stroke-miterlimit:4;stroke-dasharray:none"
       id="path8507" />
    <path
       inkscape:connector-curvature="0"
       d=""
       style="fill:none;stroke:#000000;stroke-width:0.35433071;stroke-miterlimit:4;stroke-dasharray:none"
       id="path8523" />
    <path
       inkscape:connector-curvature="0"
       d=""
       style="fill:none;stroke:#000000;stroke-width:0.35433071;stroke-miterlimit:4;stroke-dasharray:none"
       id="path8543" />
    <path
       inkscape:connector-curvature="0"
       d=""
       style="fill:none;stroke:#000000;stroke-width:0.35433071;stroke-miterlimit:4;stroke-dasharray:none"
       id="path8549" />
    <path
       inkscape:connector-curvature="0"
       d=""
       style="fill:none;stroke:#000000;stroke-width:0.35433071;stroke-miterlimit:4;stroke-dasharray:none"
       id="path8557" />
    <path
       inkscape:connector-curvature="0"
       d=""
       style="fill:none;stroke:#000000;stroke-width:0.35433071;stroke-miterlimit:4;stroke-dasharray:none"
       id="path8561" />
    <path
       inkscape:connector-curvature="0"
       d=""
       style="fill:none;stroke:#000000;stroke-width:0.35433071;stroke-miterlimit:4;stroke-dasharray:none"
       id="path8577" />
    <path
       inkscape:connector-curvature="0"
       d=""
       style="fill:none;stroke:#000000;stroke-width:0.35433071;stroke-miterlimit:4;stroke-dasharray:none"
       id="path8597" />
    <path
       inkscape:connector-curvature="0"
       d=""
       style="fill:none;stroke:#000000;stroke-width:0.35433071;stroke-miterlimit:4;stroke-dasharray:none"
       id="path8607" />
    <path
       inkscape:connector-curvature="0"
       d=""
       style="fill:none;stroke:#000000;stroke-width:0.35433071;stroke-miterlimit:4;stroke-dasharray:none"
       id="path8617" />
    <path
       inkscape:connector-curvature="0"
       d=""
       style="fill:none;stroke:#000000;stroke-width:0.35433071;stroke-miterlimit:4;stroke-dasharray:none"
       id="path8625" />
    <path
       inkscape:connector-curvature="0"
       d=""
       style="fill:none;stroke:#000000;stroke-width:0.35433071;stroke-miterlimit:4;stroke-dasharray:none"
       id="path8633" />
    <path
       inkscape:connector-curvature="0"
       d=""
       style="fill:none;stroke:#000000;stroke-width:0.35433071;stroke-miterlimit:4;stroke-dasharray:none"
       id="path8639" />
    <path
       inkscape:connector-curvature="0"
       d=""
       style="fill:none;stroke:#000000;stroke-width:0.35433071;stroke-miterlimit:4;stroke-dasharray:none"
       id="path8647" />
    <path
       inkscape:connector-curvature="0"
       d=""
       style="fill:none;stroke:#000000;stroke-width:0.35433071;stroke-miterlimit:4;stroke-dasharray:none"
       id="path8657" />
    <path
       inkscape:connector-curvature="0"
       d=""
       style="fill:none;stroke:#000000;stroke-width:0.35433071;stroke-miterlimit:4;stroke-dasharray:none"
       id="path8665" />
    <path
       inkscape:connector-curvature="0"
       d=""
       style="fill:none;stroke:#000000;stroke-width:0.35433071;stroke-miterlimit:4;stroke-dasharray:none"
       id="path8683" />
    <path
       inkscape:connector-curvature="0"
       id="path10171"
       style="fill:none;stroke:#000000;stroke-width:0.35433071;stroke-miterlimit:4;stroke-dasharray:none"
       d="" />
    <path
       inkscape:connector-curvature="0"
       id="path10175"
       style="fill:none;stroke:#000000;stroke-width:0.35433071;stroke-miterlimit:4;stroke-dasharray:none"
       d="" />
    <path
       inkscape:connector-curvature="0"
       id="path10195"
       style="fill:none;stroke:#000000;stroke-width:0.35433071;stroke-miterlimit:4;stroke-dasharray:none"
       d="" />
    <path
       inkscape:connector-curvature="0"
       id="path10209"
       style="fill:none;stroke:#000000;stroke-width:0.35433071;stroke-miterlimit:4;stroke-dasharray:none"
       d="" />
    <path
       inkscape:connector-curvature="0"
       id="path10225"
       style="fill:none;stroke:#000000;stroke-width:0.35433071;stroke-miterlimit:4;stroke-dasharray:none"
       d="" />
    <path
       inkscape:connector-curvature="0"
       id="path10243"
       style="fill:none;stroke:#000000;stroke-width:0.35433071;stroke-miterlimit:4;stroke-dasharray:none"
       d="" />
    <path
       inkscape:connector-curvature="0"
       id="path10247"
       style="fill:none;stroke:#000000;stroke-width:0.35433071;stroke-miterlimit:4;stroke-dasharray:none"
       d="" />
    <path
       inkscape:connector-curvature="0"
       id="path10253"
       style="fill:none;stroke:#000000;stroke-width:0.35433071;stroke-miterlimit:4;stroke-dasharray:none"
       d="" />
    <path
       inkscape:connector-curvature="0"
       id="path10263"
       style="fill:none;stroke:#000000;stroke-width:0.35433071;stroke-miterlimit:4;stroke-dasharray:none"
       d="" />
    <path
       inkscape:connector-curvature="0"
       id="path10273"
       style="fill:none;stroke:#000000;stroke-width:0.35433071;stroke-miterlimit:4;stroke-dasharray:none"
       d="" />
    <path
       inkscape:connector-curvature="0"
       id="path10281"
       style="fill:none;stroke:#000000;stroke-width:0.35433071;stroke-miterlimit:4;stroke-dasharray:none"
       d="" />
    <path
       inkscape:connector-curvature="0"
       id="path10289"
       style="fill:none;stroke:#000000;stroke-width:0.35433071;stroke-miterlimit:4;stroke-dasharray:none"
       d="" />
    <path
       inkscape:connector-curvature="0"
       id="path10295"
       style="fill:none;stroke:#000000;stroke-width:0.35433071;stroke-miterlimit:4;stroke-dasharray:none"
       d="" />
    <path
       inkscape:connector-curvature="0"
       id="path10303"
       style="fill:none;stroke:#000000;stroke-width:0.35433071;stroke-miterlimit:4;stroke-dasharray:none"
       d="" />
    <path
       inkscape:connector-curvature="0"
       id="path10317"
       style="fill:none;stroke:#000000;stroke-width:0.35433071;stroke-miterlimit:4;stroke-dasharray:none"
       d="" />
    <path
       inkscape:connector-curvature="0"
       id="path10327"
       style="fill:none;stroke:#000000;stroke-width:0.35433071;stroke-miterlimit:4;stroke-dasharray:none"
       d="" />
    <path
       inkscape:connector-curvature="0"
       id="path10333"
       style="fill:none;stroke:#000000;stroke-width:0.35433071;stroke-miterlimit:4;stroke-dasharray:none"
       d="" />
    <path
       inkscape:connector-curvature="0"
       id="path10341"
       style="fill:none;stroke:#000000;stroke-width:0.35433071;stroke-miterlimit:4;stroke-dasharray:none"
       d="" />
    <path
       inkscape:connector-curvature="0"
       d=""
       style="fill:none;stroke:#000000;stroke-width:0.35433071;stroke-miterlimit:4;stroke-dasharray:none"
       id="path10963" />
    <path
       inkscape:connector-curvature="0"
       d=""
       style="fill:none;stroke:#000000;stroke-width:0.35433071;stroke-miterlimit:4;stroke-dasharray:none"
       id="path10967" />
    <path
       inkscape:connector-curvature="0"
       d=""
       style="fill:none;stroke:#000000;stroke-width:0.35433071;stroke-miterlimit:4;stroke-dasharray:none"
       id="path10985" />
    <path
       inkscape:connector-curvature="0"
       d=""
       style="fill:none;stroke:#000000;stroke-width:0.35433071;stroke-miterlimit:4;stroke-dasharray:none"
       id="path11005" />
    <path
       inkscape:connector-curvature="0"
       d=""
       style="fill:none;stroke:#000000;stroke-width:0.35433071;stroke-miterlimit:4;stroke-dasharray:none"
       id="path11015" />
    <path
       inkscape:connector-curvature="0"
       d=""
       style="fill:none;stroke:#000000;stroke-width:0.35433071;stroke-miterlimit:4;stroke-dasharray:none"
       id="path11023" />
    <path
       inkscape:connector-curvature="0"
       d=""
       style="fill:none;stroke:#000000;stroke-width:0.35433071;stroke-miterlimit:4;stroke-dasharray:none"
       id="path11031" />
    <path
       inkscape:connector-curvature="0"
       d=""
       style="fill:none;stroke:#000000;stroke-width:0.35433071;stroke-miterlimit:4;stroke-dasharray:none"
       id="path11051" />
    <path
       inkscape:connector-curvature="0"
       d=""
       style="fill:none;stroke:#000000;stroke-width:0.35433071;stroke-miterlimit:4;stroke-dasharray:none"
       id="path11061" />
    <path
       inkscape:connector-curvature="0"
       d=""
       style="fill:none;stroke:#000000;stroke-width:0.35433071;stroke-miterlimit:4;stroke-dasharray:none"
       id="path11067" />
    <path
       inkscape:connector-curvature="0"
       d=""
       style="fill:none;stroke:#000000;stroke-width:0.35433071;stroke-miterlimit:4;stroke-dasharray:none"
       id="path11075" />
    <path
       inkscape:connector-curvature="0"
       d=""
       style="fill:none;stroke:#000000;stroke-width:0.35433071;stroke-miterlimit:4;stroke-dasharray:none"
       id="path11085" />
    <path
       inkscape:connector-curvature="0"
       d=""
       style="fill:none;stroke:#000000;stroke-width:0.35433071;stroke-miterlimit:4;stroke-dasharray:none"
       id="path11095" />
    <path
       inkscape:connector-curvature="0"
       d=""
       style="fill:none;stroke:#000000;stroke-width:0.35433071;stroke-miterlimit:4;stroke-dasharray:none"
       id="path11101" />
    <path
       inkscape:connector-curvature="0"
       d=""
       style="fill:none;stroke:#000000;stroke-width:0.35433071;stroke-miterlimit:4;stroke-dasharray:none"
       id="path11109" />
    <path
       inkscape:connector-curvature="0"
       d=""
       style="fill:none;stroke:#000000;stroke-width:0.35433071;stroke-miterlimit:4;stroke-dasharray:none"
       id="path11129" />
    <path
       inkscape:connector-curvature="0"
       d=""
       style="fill:none;stroke:#000000;stroke-width:0.35433071;stroke-miterlimit:4;stroke-dasharray:none"
       id="path11135" />
    <path
       inkscape:connector-curvature="0"
       d=""
       style="fill:none;stroke:#000000;stroke-width:0.35433071;stroke-miterlimit:4;stroke-dasharray:none"
       id="path11143" />
    <path
       inkscape:connector-curvature="0"
       d=""
       style="fill:none;stroke:#000000;stroke-width:0.35433071;stroke-miterlimit:4;stroke-dasharray:none"
       id="path11161" />
    <path
       inkscape:connector-curvature="0"
       d=""
       style="fill:none;stroke:#000000;stroke-width:0.35433071;stroke-miterlimit:4;stroke-dasharray:none"
       id="path11173" />
    <path
       inkscape:connector-curvature="0"
       d=""
       style="fill:none;stroke:#000000;stroke-width:0.35433071;stroke-miterlimit:4;stroke-dasharray:none"
       id="path11179" />
    <path
       inkscape:connector-curvature="0"
       d=""
       style="fill:none;stroke:#000000;stroke-width:0.35433071;stroke-miterlimit:4;stroke-dasharray:none"
       id="path11189" />
    <path
       inkscape:connector-curvature="0"
       d=""
       style="fill:none;stroke:#000000;stroke-width:0.35433071;stroke-miterlimit:4;stroke-dasharray:none"
       id="path11197" />
    <path
       inkscape:connector-curvature="0"
       d=""
       style="fill:none;stroke:#000000;stroke-width:0.35433071;stroke-miterlimit:4;stroke-dasharray:none"
       id="path11211" />
    <path
       inkscape:connector-curvature="0"
       d=""
       style="fill:none;stroke:#000000;stroke-width:0.35433071;stroke-miterlimit:4;stroke-dasharray:none"
       id="path11239" />
    <path
       inkscape:connector-curvature="0"
       d=""
       style="fill:none;stroke:#000000;stroke-width:0.35433071;stroke-miterlimit:4;stroke-dasharray:none"
       id="path11247" />
    <path
       inkscape:connector-curvature="0"
       d=""
       style="fill:none;stroke:#000000;stroke-width:0.35433071;stroke-miterlimit:4;stroke-dasharray:none"
       id="path11257" />
    <path
       inkscape:connector-curvature="0"
       d=""
       style="fill:none;stroke:#000000;stroke-width:0.35433071;stroke-miterlimit:4;stroke-dasharray:none"
       id="path11277" />
    <path
       inkscape:connector-curvature="0"
       d=""
       style="fill:none;stroke:#000000;stroke-width:0.35433071;stroke-miterlimit:4;stroke-dasharray:none"
       id="path11285" />
    <path
       inkscape:connector-curvature="0"
       d=""
       style="fill:none;stroke:#000000;stroke-width:0.35433071;stroke-miterlimit:4;stroke-dasharray:none"
       id="path11297" />
    <path
       inkscape:connector-curvature="0"
       d=""
       style="fill:none;stroke:#000000;stroke-width:0.35433071;stroke-miterlimit:4;stroke-dasharray:none"
       id="path11307" />
    <path
       inkscape:connector-curvature="0"
       d=""
       style="fill:none;stroke:#000000;stroke-width:0.35433071;stroke-miterlimit:4;stroke-dasharray:none"
       id="path11313" />
    <path
       inkscape:connector-curvature="0"
       d=""
       style="fill:none;stroke:#000000;stroke-width:0.35433071;stroke-miterlimit:4;stroke-dasharray:none"
       id="path11327" />
    <path
       inkscape:connector-curvature="0"
       d=""
       style="fill:none;stroke:#000000;stroke-width:0.35433071;stroke-miterlimit:4;stroke-dasharray:none"
       id="path11335" />
    <path
       inkscape:connector-curvature="0"
       d=""
       style="fill:none;stroke:#000000;stroke-width:0.35433071;stroke-miterlimit:4;stroke-dasharray:none"
       id="path11349" />
    <path
       inkscape:connector-curvature="0"
       d=""
       style="fill:none;stroke:#000000;stroke-width:0.35433071;stroke-miterlimit:4;stroke-dasharray:none"
       id="path11361" />
    <path
       inkscape:connector-curvature="0"
       d=""
       style="fill:none;stroke:#000000;stroke-width:0.35433071;stroke-miterlimit:4;stroke-dasharray:none"
       id="path11375" />
    <path
       inkscape:connector-curvature="0"
       d=""
       style="fill:none;stroke:#000000;stroke-width:0.35433071;stroke-miterlimit:4;stroke-dasharray:none"
       id="path11383" />
    <path
       inkscape:connector-curvature="0"
       d=""
       style="fill:none;stroke:#000000;stroke-width:0.35433071;stroke-miterlimit:4;stroke-dasharray:none"
       id="path11397" />
    <path
       inkscape:connector-curvature="0"
       d=""
       style="fill:none;stroke:#000000;stroke-width:0.35433071;stroke-miterlimit:4;stroke-dasharray:none"
       id="path11407" />
    <path
       inkscape:connector-curvature="0"
       d=""
       style="fill:none;stroke:#000000;stroke-width:0.35433071;stroke-miterlimit:4;stroke-dasharray:none"
       id="path11413" />
  </g>
</svg>
