<?xml version="1.0" encoding="UTF-8" standalone="no"?>
<!-- Created with Inkscape (http://www.inkscape.org/) -->

<svg
   xmlns:dc="http://purl.org/dc/elements/1.1/"
   xmlns:cc="http://creativecommons.org/ns#"
   xmlns:rdf="http://www.w3.org/1999/02/22-rdf-syntax-ns#"
   xmlns:svg="http://www.w3.org/2000/svg"
   xmlns="http://www.w3.org/2000/svg"
   xmlns:sodipodi="http://sodipodi.sourceforge.net/DTD/sodipodi-0.dtd"
   xmlns:inkscape="http://www.inkscape.org/namespaces/inkscape"
   width="215mm"
   height="85mm"
   viewBox="0 0 761.81101 301.1811"
   id="svg2"
   version="1.1"
   inkscape:version="0.91 r13725"
   sodipodi:docname="Etch.svg">
  <defs
     id="defs4" />
  <sodipodi:namedview
     id="base"
     pagecolor="#5e5e5e"
     bordercolor="#919191"
     borderopacity="1"
     inkscape:pageopacity="0"
     inkscape:pageshadow="2"
     inkscape:zoom="256"
     inkscape:cx="-0.89349408"
     inkscape:cy="0.46698101"
     inkscape:document-units="mm"
     inkscape:current-layer="svg2"
     showgrid="false"
     inkscape:window-width="1366"
     inkscape:window-height="744"
     inkscape:window-x="0"
     inkscape:window-y="1"
     inkscape:window-maximized="1" />
  <metadata
     id="metadata7">
    <rdf:RDF>
      <cc:Work
         rdf:about="">
        <dc:format>image/svg+xml</dc:format>
        <dc:type
           rdf:resource="http://purl.org/dc/dcmitype/StillImage" />
        <dc:title></dc:title>
      </cc:Work>
    </rdf:RDF>
  </metadata>
  <g
     inkscape:label="Cut"
     inkscape:groupmode="layer"
     id="layer1"
     transform="translate(0,-751.1811)" />
  <g
     inkscape:groupmode="layer"
     id="layer2"
     inkscape:label="Etch"
     transform="translate(0,-407.48031)">
    <path
       style="display:inline;fill:none;fill-opacity:0.2961877;stroke:#000000;stroke-width:0.35433072;stroke-linecap:round;stroke-linejoin:round;stroke-miterlimit:4;stroke-dasharray:none;stroke-opacity:1"
       d="m 533.74108,512.55652 32.32122,0 c 4.59162,0 8.28812,3.68213 8.28812,8.2559 l 0,131.08906 c 0,4.57377 -3.6965,8.2559 -8.28812,8.2559 l -32.32122,0 c -4.59162,0 -8.28812,-3.68213 -8.28812,-8.2559 l 0,-131.08906 c 0,-4.57377 3.6965,-8.2559 8.28812,-8.2559 z"
       id="rect4875-9"
       inkscape:connector-curvature="0" />
    <path
       style="fill:none;fill-opacity:0.2961877;stroke:#000000;stroke-width:0.35433072;stroke-linecap:round;stroke-linejoin:round;stroke-miterlimit:4;stroke-dasharray:none;stroke-opacity:1"
       d="m 591.55935,568.79197 0.0273,6.86329 -4.82422,0 c -2.29353,0 -4.14062,1.84709 -4.14062,4.14062 0,2.29353 1.84709,4.14063 4.14062,4.14063 l 4.85743,0 0.0176,4.81835 -0.15235,0 -4.83789,0 c -2.29353,0 -4.13867,1.84515 -4.13867,4.13868 0,2.29353 1.84514,4.14062 4.13867,4.14062 l 5.02344,0 0.0273,6.88477 c 1.42814,0.17585 2.04594,0.66 2.04594,-0.63283 -0.12076,-4.14849 3.68463,-8.44541 8.51851,-7.96962 2.04298,0.002 4.64046,1.446 6.03359,2.94032 1.2139,-1.34504 1.93654,-2.87011 2.34727,-4.53906 -4.05113,-0.0297 -7.31974,-3.32181 -7.32031,-7.37305 4.9e-4,-4.0452 2.82217,-6.99112 7.24218,-7.5918 -0.43871,-1.6373 -1.05625,-2.98134 -2.27109,-4.32422 -1.39198,1.49526 -3.98874,2.89592 -6.03164,2.89945 -4.85364,0.37005 -8.77008,-3.64311 -8.77008,-7.92484 0,-0.94066 -1.18347,-0.73447 -1.93304,-0.61131 z"
       id="rect4152"
       inkscape:connector-curvature="0"
       sodipodi:nodetypes="ccssscccssscccccccccccc" />
    <path
       style="fill:none;fill-opacity:0.2961877;stroke:#000000;stroke-width:0.35433072;stroke-linecap:round;stroke-linejoin:round;stroke-miterlimit:4;stroke-dasharray:none;stroke-opacity:1"
       d="m 611.52749,592.85922 c -0.42251,0.0516 -0.77892,0.0796 -1.14197,0.0796 l 0,-3e-5 c -3.75165,0 -6.79296,-2.99185 -6.79296,-6.68248 0,-3.69063 3.04131,-6.68247 6.79296,-6.68247 0.32018,0 0.63518,0.0218 0.91964,0.0737 -0.66375,-2.49532 -1.70592,-4.63905 -3.18364,-6.38333 -6.45353,7.26146 -14.58047,1.27385 -14.04857,-5.23962 l 0,2e-5 c -1.12145,-0.14282 -1.72986,-0.13263 -2.62837,0.0122 l -0.19882,-0.0193 0,-5.65057 24.06344,0 0,48.32438 -24.06344,0 0,-6.12584 0.34355,0.12475 c 0.94131,0.14705 1.9073,0.22417 2.88989,0.22417 0.0441,3e-5 0.0881,-4e-5 0.14141,-0.0388 -0.0977,-0.53865 -0.154,-1.05749 -0.154,-1.58948 0,-4.0727 3.30158,-7.37427 7.37428,-7.37427 2.74503,0 5.13974,1.49985 6.43202,3.74466 1.61728,-1.84078 2.68316,-4.14287 3.25458,-6.79728"
       id="circle4201"
       inkscape:connector-curvature="0"
       sodipodi:nodetypes="cscssccccccccccccccsscc" />
    <path
       sodipodi:nodetypes="ccssscccssscccccccccccc"
       inkscape:connector-curvature="0"
       id="path4789"
       d="m 591.55935,616.29197 0.0273,6.86329 -4.82422,0 c -2.29353,0 -4.14062,1.84709 -4.14062,4.14062 0,2.29353 1.84709,4.14063 4.14062,4.14063 l 4.85743,0 0.0176,4.81835 -0.15235,0 -4.83789,0 c -2.29353,0 -4.13867,1.84515 -4.13867,4.13868 0,2.29353 1.84514,4.14062 4.13867,4.14062 l 5.02344,0 0.0273,6.88477 c 1.42814,0.17585 2.04594,0.66 2.04594,-0.63283 -0.12076,-4.14849 3.68463,-8.44541 8.51851,-7.96962 2.04298,0.002 4.64046,1.446 6.03359,2.94032 1.2139,-1.34504 1.93654,-2.87011 2.34727,-4.53906 -4.05113,-0.0297 -7.31974,-3.32181 -7.32031,-7.37305 4.9e-4,-4.0452 2.82217,-6.99112 7.24218,-7.5918 -0.43871,-1.6373 -1.05625,-2.98134 -2.27109,-4.32422 -1.39198,1.49526 -3.98874,2.89592 -6.03164,2.89945 -4.85364,0.37005 -8.77008,-3.64311 -8.77008,-7.92484 0,-0.94066 -1.18347,-0.73447 -1.93304,-0.61131 z"
       style="fill:none;fill-opacity:0.2961877;stroke:#000000;stroke-width:0.35433072;stroke-linecap:round;stroke-linejoin:round;stroke-miterlimit:4;stroke-dasharray:none;stroke-opacity:1" />
    <path
       sodipodi:nodetypes="cscssccccccccccccccsscc"
       inkscape:connector-curvature="0"
       id="path4791"
       d="m 611.52749,640.35922 c -0.42251,0.0516 -0.77892,0.0796 -1.14197,0.0796 l 0,-3e-5 c -3.75165,0 -6.79296,-2.99185 -6.79296,-6.68248 0,-3.69063 3.04131,-6.68247 6.79296,-6.68247 0.32018,0 0.63518,0.0218 0.91964,0.0737 -0.66375,-2.49532 -1.70592,-4.63905 -3.18364,-6.38333 -6.45353,7.26146 -14.58047,1.27385 -14.04857,-5.23962 l 0,2e-5 c -1.12145,-0.14282 -1.72986,-0.13263 -2.62837,0.0122 l -0.19882,-0.0193 0,-5.65057 24.06344,0 0,48.32438 -24.06344,0 0,-6.12584 0.34355,0.12475 c 0.94131,0.14705 1.9073,0.22417 2.88989,0.22417 0.0441,3e-5 0.0881,-4e-5 0.14141,-0.0388 -0.0977,-0.53865 -0.154,-1.05749 -0.154,-1.58948 0,-4.0727 3.30158,-7.37427 7.37428,-7.37427 2.74503,0 5.13974,1.49985 6.43202,3.74466 1.61728,-1.84078 2.68316,-4.14287 3.25458,-6.79728"
       style="fill:none;fill-opacity:0.2961877;stroke:#000000;stroke-width:0.35433072;stroke-linecap:round;stroke-linejoin:round;stroke-miterlimit:4;stroke-dasharray:none;stroke-opacity:1" />
    <path
       style="fill:none;fill-opacity:0.2961877;stroke:#000000;stroke-width:0.35433072;stroke-linecap:round;stroke-linejoin:round;stroke-miterlimit:4;stroke-dasharray:none;stroke-opacity:1"
       d="m 591.55935,519.79197 0.0273,6.86329 -4.82422,0 c -2.29353,0 -4.14062,1.84709 -4.14062,4.14062 0,2.29353 1.84709,4.14063 4.14062,4.14063 l 4.85743,0 0.0176,4.81835 -0.15235,0 -4.83789,0 c -2.29353,0 -4.13867,1.84515 -4.13867,4.13868 0,2.29353 1.84514,4.14062 4.13867,4.14062 l 5.02344,0 0.0273,6.88477 c 1.42814,0.17585 2.04594,0.66 2.04594,-0.63283 -0.12076,-4.14849 3.68463,-8.44541 8.51851,-7.96962 2.04298,0.002 4.64046,1.446 6.03359,2.94032 1.2139,-1.34504 1.93654,-2.87011 2.34727,-4.53906 -4.05113,-0.0297 -7.31974,-3.32181 -7.32031,-7.37305 4.9e-4,-4.0452 2.82217,-6.99112 7.24218,-7.5918 -0.43871,-1.6373 -1.05625,-2.98134 -2.27109,-4.32422 -1.39198,1.49526 -3.98874,2.89592 -6.03164,2.89945 -4.85364,0.37005 -8.77008,-3.64311 -8.77008,-7.92484 0,-0.94066 -1.18347,-0.73447 -1.93304,-0.61131 z"
       id="path4795"
       inkscape:connector-curvature="0"
       sodipodi:nodetypes="ccssscccssscccccccccccc" />
    <path
       style="fill:none;fill-opacity:0.2961877;stroke:#000000;stroke-width:0.35433072;stroke-linecap:round;stroke-linejoin:round;stroke-miterlimit:4;stroke-dasharray:none;stroke-opacity:1"
       d="m 611.52749,543.85922 c -0.42251,0.0516 -0.77892,0.0796 -1.14197,0.0796 l 0,-3e-5 c -3.75165,0 -6.79296,-2.99185 -6.79296,-6.68248 0,-3.69063 3.04131,-6.68247 6.79296,-6.68247 0.32018,0 0.63518,0.0218 0.91964,0.0737 -0.66375,-2.49532 -1.70592,-4.63905 -3.18364,-6.38333 -6.45353,7.26146 -14.58047,1.27385 -14.04857,-5.23962 l 0,2e-5 c -1.12145,-0.14282 -1.72986,-0.13263 -2.62837,0.0122 l -0.19882,-0.0193 0,-5.65057 24.06344,0 0,48.32438 -24.06344,0 0,-6.12584 0.34355,0.12475 c 0.94131,0.14705 1.9073,0.22417 2.88989,0.22417 0.0441,3e-5 0.0881,-4e-5 0.14141,-0.0388 -0.0977,-0.53865 -0.154,-1.05749 -0.154,-1.58948 0,-4.0727 3.30158,-7.37427 7.37428,-7.37427 2.74503,0 5.13974,1.49985 6.43202,3.74466 1.61728,-1.84078 2.68316,-4.14287 3.25458,-6.79728"
       id="path4797"
       inkscape:connector-curvature="0"
       sodipodi:nodetypes="cscssccccccccccccccsscc" />
    <path
       style="fill:none;fill-opacity:0.2961877;stroke:#000000;stroke-width:0.35433072;stroke-linecap:round;stroke-linejoin:round;stroke-miterlimit:4;stroke-dasharray:none;stroke-opacity:1"
       d="m 565.84037,538.92718 a 15.975315,15.975315 0 0 1 -15.97531,15.97532 15.975315,15.975315 0 0 1 -15.97532,-15.97532 15.975315,15.975315 0 0 1 15.97532,-15.97531 15.975315,15.975315 0 0 1 15.97531,15.97531 z"
       id="path5737"
       inkscape:connector-curvature="0" />
    <path
       style="fill:none;fill-opacity:0.2961877;stroke:#000000;stroke-width:0.35433072;stroke-linecap:round;stroke-linejoin:round;stroke-miterlimit:4;stroke-dasharray:none;stroke-opacity:1"
       d="m 565.84037,586.85315 a 15.975315,15.975315 0 0 1 -15.97531,15.97531 15.975315,15.975315 0 0 1 -15.97532,-15.97531 15.975315,15.975315 0 0 1 15.97532,-15.97532 15.975315,15.975315 0 0 1 15.97531,15.97532 z"
       id="circle5739"
       inkscape:connector-curvature="0" />
    <path
       style="fill:none;fill-opacity:0.2961877;stroke:#000000;stroke-width:0.35433072;stroke-linecap:round;stroke-linejoin:round;stroke-miterlimit:4;stroke-dasharray:none;stroke-opacity:1"
       d="m 565.84037,633.98034 a 15.975315,15.975315 0 0 1 -15.97531,15.97532 15.975315,15.975315 0 0 1 -15.97532,-15.97532 15.975315,15.975315 0 0 1 15.97532,-15.97531 15.975315,15.975315 0 0 1 15.97531,15.97531 z"
       id="circle5741"
       inkscape:connector-curvature="0" />
  </g>
  <circle
     style="fill:none;fill-opacity:0.2961877;stroke:#000000;stroke-width:0.03543307;stroke-linecap:round;stroke-linejoin:round;stroke-miterlimit:4;stroke-dasharray:none;stroke-opacity:1"
     id="path4163"
     cx="0.16774806"
     cy="301.01337"
     r="0.16774806" />
  <circle
     r="0.16774806"
     cy="0.18658264"
     cx="761.62445"
     id="circle4165"
     style="fill:none;fill-opacity:0.2961877;stroke:#000000;stroke-width:0.03543307;stroke-linecap:round;stroke-linejoin:round;stroke-miterlimit:4;stroke-dasharray:none;stroke-opacity:1" />
</svg>
