<?xml version="1.0" encoding="UTF-8" standalone="no"?>
<svg
   xmlns:dc="http://purl.org/dc/elements/1.1/"
   xmlns:cc="http://creativecommons.org/ns#"
   xmlns:rdf="http://www.w3.org/1999/02/22-rdf-syntax-ns#"
   xmlns:svg="http://www.w3.org/2000/svg"
   xmlns="http://www.w3.org/2000/svg"
   width="70mm"
   height="120mm"
   viewBox="0 0 248.03151 425.19684"
   id="svg2"
   version="1.1">
  <defs
     id="defs4" />
  <metadata
     id="metadata7">
    <rdf:RDF>
      <cc:Work
         rdf:about="">
        <dc:format>image/svg+xml</dc:format>
        <dc:type
           rdf:resource="http://purl.org/dc/dcmitype/StillImage" />
        <dc:title></dc:title>
      </cc:Work>
    </rdf:RDF>
  </metadata>
  <g
     id="layer1"
     transform="translate(0,-627.16535)"
     style="display:inline;opacity:1">
    <path
       id="rect4974"
       d="m 226.59194,627.34244 c 11.77939,-0.0643 21.28007,9.44193 21.26276,21.17024 m -24.26144,353.66462 c -0.0127,-12.65803 -0.0267,-23.92387 -0.0256,-35.15498 -0.10752,-67.3877 0.33386,-134.77622 0.1773,-202.16382 l 20.11826,-8.4e-4 c 3.67908,-1.5e-4 3.82863,-3.89317 3.82863,-3.89317 l 0.16224,-112.45181 m -24.26118,353.66462 c 0,20.6308 14.18245,11.9944 21.13634,22.9693 m 0,0 c 6.5773,11.6166 2.9717,26.3921 -15.01903,26.3921 -13.25714,0 -13.99064,-17.1193 -23.83949,-17.1193 -9.58457,0 -7.49479,4.962 -12.47724,17.7655 l -171.953918,-0.704 C 9.660098,1051.4331 0.17680381,1042.039 0.17680381,1030.3107 l 0,-380.67785 c 0,-11.72832 9.48337169,-21.10592 21.26276819,-21.17024 l 205.152368,-1.12017"
       style="fill:none;stroke:#000000;stroke-width:0.35360759;stroke-miterlimit:4;stroke-dasharray:none;stroke-opacity:1" />
    <path
       id="rect4976"
       d="m 22.340492,672.6068 4.924712,0 c 2.470284,0 4.458996,1.08828 4.458996,2.44012 l 0,37.12773 c 0,1.35183 -1.988712,2.44012 -4.458996,2.44012 l -4.924712,0 c -2.470285,0 -4.458997,-1.08829 -4.458997,-2.44012 l 0,-37.12773 c 0,-1.35184 1.988712,-2.44012 4.458997,-2.44012 z"
       style="fill:none;stroke:#000000;stroke-width:0.32985568;stroke-miterlimit:4;stroke-dasharray:none;stroke-opacity:1" />
  </g>
  <g
     id="layer3"
     transform="translate(0,177.16532)"
     style="display:inline">
    <path
       style="fill:none;stroke:#000000;stroke-width:0.35356975;stroke-miterlimit:4;stroke-dasharray:none;stroke-opacity:1"
       d="m 223.75031,-42.050443 0,-131.425907"
       id="path5498" />
    <path
       id="path6013"
       style="fill:none;stroke:#000000"
       d="" />
    <path
       id="path6031"
       style="fill:none;stroke:#000000"
       d="" />
    <path
       id="path10032"
       style="fill:none;stroke:#000000;stroke-width:0.30474845"
       d="" />
    <path
       id="path10042"
       style="fill:none;stroke:#000000;stroke-width:0.30474845"
       d="" />
    <path
       id="path10050"
       style="fill:none;stroke:#000000;stroke-width:0.30474845"
       d="" />
    <path
       id="path10060"
       style="fill:none;stroke:#000000;stroke-width:0.30474845"
       d="" />
  </g>
  <g
     id="layer6"
     transform="translate(0,177.16532)" />
  <g
     id="layer4"
     transform="translate(0,177.16532)">
    <path
       d=""
       style="fill:none;stroke:#000000;stroke-width:0.92052549"
       id="path7559" />
    <path
       d=""
       style="fill:none;stroke:#000000;stroke-width:0.92052549"
       id="path7565" />
    <path
       d=""
       style="fill:none;stroke:#000000;stroke-width:0.92052549"
       id="path7579" />
    <path
       id="path8694"
       style="fill:none;stroke:#000000;stroke-width:0.34588146"
       d="" />
    <path
       id="path8700"
       style="fill:none;stroke:#000000;stroke-width:0.34588146"
       d="" />
    <path
       d=""
       style="fill:none;stroke:#000000;stroke-width:0.35277364"
       id="path9252" />
    <path
       d=""
       style="fill:none;stroke:#000000;stroke-width:0.35277364"
       id="path9264" />
    <path
       id="path9834"
       style="fill:none;stroke:#000000;stroke-width:0.30689958"
       d="" />
    <path
       id="path4314"
       style="fill:none;stroke:#000000;stroke-width:1.21444738"
       d="" />
    <path
       id="path4324"
       style="fill:none;stroke:#000000;stroke-width:1.21444738"
       d="" />
    <path
       id="path4332"
       style="fill:none;stroke:#000000;stroke-width:1.21444738"
       d="" />
    <path
       id="path4586"
       style="fill:none;stroke:#000000;stroke-width:1.21444738"
       d="" />
    <path
       id="path4604-3"
       style="fill:none;stroke:#000000;stroke-width:1.21444738"
       d="" />
    <path
       d="m 233.95083,-54.497011 -0.72901,0.362939 -0.72901,0.725878 -0.3645,0.725879 0,1.451756 0.3645,0.725878 0.72901,0.725879 0.72901,0.362939 1.09352,0.362939 1.82253,0 1.09351,-0.362939 0.72901,-0.362939 0.72901,-0.725879 0.36451,-0.725878 0,-1.451756 -0.36451,-0.725879 -0.72901,-0.725878 -0.72901,-0.362939"
       style="fill:none;stroke:#000000;stroke-width:0.36372137"
       id="path5773" />
    <path
       d="m 232.12831,-57.037585 7.65461,0 m -3.64506,0 -1.09351,-1.088818 -0.36451,-0.725878 0,-1.088817 0.36451,-0.725879 1.09351,-0.362939 3.64506,0"
       style="fill:none;stroke:#000000;stroke-width:0.36372137"
       id="path5775" />
    <path
       d="m 234.67984,-67.925759 5.10308,0 m -4.00956,0 -0.72901,0.725878 -0.36451,0.725879 0,1.088817 0.36451,0.725878 0.72901,0.725879 1.09352,0.362939 0.72901,0 1.09351,-0.362939 0.72901,-0.725879 0.36451,-0.725878 0,-1.088817 -0.36451,-0.725879 -0.72901,-0.725878"
       style="fill:none;stroke:#000000;stroke-width:0.36372137"
       id="path5777" />
    <path
       d="m 232.12831,-70.829272 7.65461,0"
       style="fill:none;stroke:#000000;stroke-width:0.36372137"
       id="path5779" />
    <path
       d="m 234.67984,-73.732786 5.10308,0 m -3.64506,0 -1.09351,-1.088817 -0.36451,-0.725878 0,-1.088818 0.36451,-0.725878 1.09351,-0.362939 3.64506,0 m -3.64506,0 -1.09351,-1.088817 -0.36451,-0.725879 0,-1.088817 0.36451,-0.725878 1.09351,-0.362939 3.64506,0"
       style="fill:none;stroke:#000000;stroke-width:0.36372137"
       id="path5781" />
    <path
       d="m 236.86688,-84.25802 0,-4.35527 -0.72902,0 -0.72901,0.362939 -0.3645,0.362939 -0.36451,0.725879 0,1.088817 0.36451,0.725878 0.72901,0.725879 1.09352,0.362939 0.72901,0 1.09351,-0.362939 0.72901,-0.725879 0.36451,-0.725878 0,-1.088817 -0.36451,-0.725879 -0.72901,-0.725878"
       style="fill:none;stroke:#000000;stroke-width:0.36372137"
       id="path5783" />
    <path
       d="m 234.67984,-91.153864 5.10308,0 m -2.91604,0 -1.09352,-0.362939 -0.72901,-0.725878 -0.36451,-0.725878 0,-1.088818"
       style="fill:none;stroke:#000000;stroke-width:0.36372137"
       id="path5785" />
    <path
       d="m 235.77336,-99.501464 -0.72901,0.362939 -0.36451,1.088818 0,1.088817 0.36451,1.088818 0.72901,0.362939 0.72901,-0.362939 0.36451,-0.725879 0.3645,-1.814695 0.36451,-0.725879 0.72901,-0.362939 0.3645,0 0.72901,0.362939 0.36451,1.088818 0,1.088817 -0.36451,1.088818 -0.72901,0.362939"
       style="fill:none;stroke:#000000;stroke-width:0.36372137"
       id="path5787" />
    <path
       d="m 233.95083,-107.12318 -0.72901,0.36294 -0.72901,0.72587 -0.3645,0.72588 0,1.45176 0.3645,0.72588 0.72901,0.72588 0.72901,0.36293 1.09352,0.36294 1.82253,0 1.09351,-0.36294 0.72901,-0.36293 0.72901,-0.72588 0.36451,-0.72588 0,-1.45176 -0.36451,-0.72588 -0.72901,-0.72587 -0.72901,-0.36294"
       style="fill:none;stroke:#000000;stroke-width:0.36372137"
       id="path5789" />
    <path
       d="m 234.67984,-113.65608 5.10308,0 m -4.00956,0 -0.72901,0.72587 -0.36451,0.72588 0,1.08882 0.36451,0.72588 0.72901,0.72588 1.09352,0.36293 0.72901,0 1.09351,-0.36293 0.72901,-0.72588 0.36451,-0.72588 0,-1.08882 -0.36451,-0.72588 -0.72901,-0.72587"
       style="fill:none;stroke:#000000;stroke-width:0.36372137"
       id="path5791" />
    <path
       d="m 234.67984,-116.5596 5.10308,0 m -2.91604,0 -1.09352,-0.36294 -0.72901,-0.72588 -0.36451,-0.72588 0,-1.08882"
       style="fill:none;stroke:#000000;stroke-width:0.36372137"
       id="path5793" />
    <path
       d="m 232.12831,-125.27014 7.65461,0 m -4.00956,0 -0.72901,0.72587 -0.36451,0.72588 0,1.08882 0.36451,0.72588 0.72901,0.72588 1.09352,0.36293 0.72901,0 1.09351,-0.36293 0.72901,-0.72588 0.36451,-0.72588 0,-1.08882 -0.36451,-0.72588 -0.72901,-0.72587"
       style="fill:none;stroke:#000000;stroke-width:0.36372137"
       id="path5795" />
    <path
       d="m 235.77336,-131.80304 -0.72901,0.36293 -0.36451,1.08882 0,1.08882 0.36451,1.08882 0.72901,0.36294 0.72901,-0.36294 0.36451,-0.72588 0.3645,-1.8147 0.36451,-0.72588 0.72901,-0.36293 0.3645,0 0.72901,0.36293 0.36451,1.08882 0,1.08882 -0.36451,1.08882 -0.72901,0.36294"
       style="fill:none;stroke:#000000;stroke-width:0.36372137"
       id="path5797" />
    <path
       d="m 237.96039,-134.34362 0.36451,0.36294 0.3645,-0.36294 -0.3645,-0.36294 -0.36451,0.36294"
       style="fill:none;stroke:#000000;stroke-width:0.36372137"
       id="path5799" />
    <path
       d="m 235.77336,-141.23946 -0.72901,0.72587 -0.36451,0.72588 0,1.08882 0.36451,0.72588 0.72901,0.72588 1.09352,0.36293 0.72901,0 1.09351,-0.36293 0.72901,-0.72588 0.36451,-0.72588 0,-1.08882 -0.36451,-0.72588 -0.72901,-0.72587"
       style="fill:none;stroke:#000000;stroke-width:0.36372137"
       id="path5801" />
    <path
       d="m 234.67984,-145.23179 0.36451,0.72588 0.72901,0.72588 1.09352,0.36293 0.72901,0 1.09351,-0.36293 0.72901,-0.72588 0.36451,-0.72588 0,-1.08882 -0.36451,-0.72588 -0.72901,-0.72587 -1.09351,-0.36294 -0.72901,0 -1.09352,0.36294 -0.72901,0.72587 -0.36451,0.72588 0,1.08882"
       style="fill:none;stroke:#000000;stroke-width:0.36372137"
       id="path5803" />
    <path
       d="m 234.67984,-150.67588 5.10308,0 m -3.64506,0 -1.09351,-1.08882 -0.36451,-0.72588 0,-1.08881 0.36451,-0.72588 1.09351,-0.36294 3.64506,0 m -3.64506,0 -1.09351,-1.08882 -0.36451,-0.72588 0,-1.08881 0.36451,-0.72588 1.09351,-0.36294 3.64506,0"
       style="fill:none;stroke:#000000;stroke-width:0.36372137"
       id="path5805" />
    <path
       d=""
       style="fill:none;stroke:#000000;stroke-width:0.2444419"
       id="path7014" />
    <path
       d=""
       style="fill:none;stroke:#000000;stroke-width:0.2444419"
       id="path7038" />
    <path
       d=""
       style="fill:none;stroke:#000000;stroke-width:0.2444419"
       id="path7044" />
    <path
       d=""
       style="fill:none;stroke:#000000;stroke-width:0.2444419"
       id="path7058" />
    <path
       d=""
       style="fill:none;stroke:#000000;stroke-width:0.2444419"
       id="path7078" />
    <path
       d=""
       style="fill:none;stroke:#000000;stroke-width:0.2444419"
       id="path7084" />
  </g>
</svg>
