<?xml version="1.0" encoding="UTF-8" standalone="no"?>
<svg
   xmlns:dc="http://purl.org/dc/elements/1.1/"
   xmlns:cc="http://creativecommons.org/ns#"
   xmlns:rdf="http://www.w3.org/1999/02/22-rdf-syntax-ns#"
   xmlns:svg="http://www.w3.org/2000/svg"
   xmlns="http://www.w3.org/2000/svg"
   width="560mm"
   height="420mm"
   viewBox="0 0 1984.252 1488.1889"
   id="svg2"
   version="1.1">
  <defs
     id="defs4" />
  <metadata
     id="metadata7">
    <rdf:RDF>
      <cc:Work
         rdf:about="">
        <dc:format>image/svg+xml</dc:format>
        <dc:type
           rdf:resource="http://purl.org/dc/dcmitype/StillImage" />
        <dc:title></dc:title>
      </cc:Work>
    </rdf:RDF>
  </metadata>
  <g
     transform="translate(0,1240.1575)"
     style="display:inline;opacity:0.23699999"
     id="layer5" />
  <g
     transform="translate(0,435.82677)"
     id="layer1">
    <path
       style="fill:none;fill-rule:evenodd;stroke:#000000;stroke-width:0.88640338px;stroke-linecap:butt;stroke-linejoin:miter;stroke-opacity:1"
       d="m 32.63035,816.25639 -7.5219,-0.0144 c 0,0 -12.66546,1.38798 -12.66546,17.67998 l 0,3.30234 c 0,2.15838 2.24186,1.86661 2.24186,1.86661 l 17.22844,-0.21976 c 1.53795,0 3.54023,-1.50712 3.54023,-3.46003 L 35.3366,818.57522 c 0,0 -0.25796,-2.31409 -2.70625,-2.31879 z"
       id="path4210" />
    <path
       style="fill:none;stroke:#000000;stroke-width:3.63543296;stroke-linejoin:round;stroke-miterlimit:4;stroke-dasharray:none;stroke-opacity:1"
       d="m 224.25027,806.14691 -200.467594,0 c -12.16858,0 -21.9649595,9.79638 -21.9649595,21.96496 l 0,200.46763 c 0,12.1686 7.54638,21.965 19.7149595,21.965 l 182.197054,0 c 2.89115,-3.0345 -0.0229,-18.0101 8.91242,-19.1303 8.72008,-0.8244 6.42181,19.1303 13.55266,19.1303 16.56734,-0.25 20.02042,-5.1747 20.02042,-19.4901 0,-7.339 -16.42144,-6.9898 -16.42144,-14.9691 0,-7.0326 16.42144,-6.0155 16.42144,-10.3369 l 0,-177.63653 c 0,-12.16858 -9.79637,-21.96496 -21.96496,-21.96496 z"
       id="rect4181" />
  </g>
  <g
     transform="translate(0,1240.1575)"
     id="layer3">
    <path
       id="path5329"
       style="fill:none;stroke:#000000;stroke-width:0.30101201"
       d="" />
    <path
       id="path5341"
       style="fill:none;stroke:#000000;stroke-width:0.30101201"
       d="" />
    <path
       id="path5357"
       style="fill:none;stroke:#000000;stroke-width:0.30101201"
       d="" />
    <path
       d=""
       style="fill:none;stroke:#000000;stroke-width:0.28793129"
       id="path5719" />
    <path
       d=""
       style="fill:none;stroke:#000000;stroke-width:0.28793129"
       id="path5723" />
    <path
       d=""
       style="fill:none;stroke:#000000;stroke-width:0.28793129"
       id="path5731" />
    <path
       d=""
       style="fill:none;stroke:#000000;stroke-width:0.28793129"
       id="path5735" />
    <path
       d=""
       style="fill:none;stroke:#000000;stroke-width:0.28793129"
       id="path5745" />
    <path
       id="path6153"
       style="fill:none;stroke:#000000;stroke-width:0.28324676"
       d="" />
    <path
       id="path6167"
       style="fill:none;stroke:#000000;stroke-width:0.28324676"
       d="" />
    <path
       id="path6173"
       style="fill:none;stroke:#000000;stroke-width:0.28324676"
       d="" />
    <path
       id="path6179"
       style="fill:none;stroke:#000000;stroke-width:0.28324676"
       d="" />
    <path
       id="path6189"
       style="fill:none;stroke:#000000;stroke-width:0.28324676"
       d="" />
    <path
       id="path6197"
       style="fill:none;stroke:#000000;stroke-width:0.28324676"
       d="" />
    <path
       id="path6207"
       style="fill:none;stroke:#000000;stroke-width:0.28324676"
       d="" />
    <path
       id="path6215"
       style="fill:none;stroke:#000000;stroke-width:0.28324676"
       d="" />
    <path
       id="path6223"
       style="fill:none;stroke:#000000;stroke-width:0.28324676"
       d="" />
    <path
       id="path6233"
       style="fill:none;stroke:#000000;stroke-width:0.28324676"
       d="" />
    <path
       id="path6245"
       style="fill:none;stroke:#000000;stroke-width:0.28324676"
       d="" />
    <path
       id="path6251"
       style="fill:none;stroke:#000000;stroke-width:0.28324676"
       d="" />
    <path
       id="path6261"
       style="fill:none;stroke:#000000;stroke-width:0.28324676"
       d="" />
    <path
       id="path6267"
       style="fill:none;stroke:#000000;stroke-width:0.28324676"
       d="" />
    <path
       id="path6279"
       style="fill:none;stroke:#000000;stroke-width:0.28324676"
       d="" />
    <path
       d=""
       style="fill:none;stroke:#000000;stroke-width:0.28768027"
       id="path9408" />
    <path
       d=""
       style="fill:none;stroke:#000000;stroke-width:0.28768027"
       id="path9420" />
  </g>
  <g
     transform="translate(0,1240.1575)"
     id="layer6" />
  <g
     transform="translate(0,1240.1575)"
     id="layer4" />
  <g
     id="g4165"
     transform="translate(248.0315,435.82677)">
    <path
       id="path4167"
       d="m 32.63035,816.25639 -7.5219,-0.0144 c 0,0 -12.66546,1.38798 -12.66546,17.67998 l 0,3.30234 c 0,2.15838 2.24186,1.86661 2.24186,1.86661 l 17.22844,-0.21976 c 1.53795,0 3.54023,-1.50712 3.54023,-3.46003 L 35.3366,818.57522 c 0,0 -0.25796,-2.31409 -2.70625,-2.31879 z"
       style="fill:none;fill-rule:evenodd;stroke:#000000;stroke-width:0.88640338px;stroke-linecap:butt;stroke-linejoin:miter;stroke-opacity:1" />
    <path
       id="path4169"
       d="m 224.25027,806.14691 -200.467594,0 c -12.16858,0 -21.9649595,9.79638 -21.9649595,21.96496 l 0,200.46763 c 0,12.1686 7.54638,21.965 19.7149595,21.965 l 182.197054,0 c 2.89115,-3.0345 -0.0229,-18.0101 8.91242,-19.1303 8.72008,-0.8244 6.42181,19.1303 13.55266,19.1303 16.56734,-0.25 20.02042,-5.1747 20.02042,-19.4901 0,-7.339 -16.42144,-6.9898 -16.42144,-14.9691 0,-7.0326 16.42144,-6.0155 16.42144,-10.3369 l 0,-177.63653 c 0,-12.16858 -9.79637,-21.96496 -21.96496,-21.96496 z"
       style="fill:none;stroke:#000000;stroke-width:3.63543296;stroke-linejoin:round;stroke-miterlimit:4;stroke-dasharray:none;stroke-opacity:1" />
  </g>
  <g
     transform="translate(496.06299,435.82677)"
     id="g4171">
    <path
       style="fill:none;fill-rule:evenodd;stroke:#000000;stroke-width:0.88640338px;stroke-linecap:butt;stroke-linejoin:miter;stroke-opacity:1"
       d="m 32.63035,816.25639 -7.5219,-0.0144 c 0,0 -12.66546,1.38798 -12.66546,17.67998 l 0,3.30234 c 0,2.15838 2.24186,1.86661 2.24186,1.86661 l 17.22844,-0.21976 c 1.53795,0 3.54023,-1.50712 3.54023,-3.46003 L 35.3366,818.57522 c 0,0 -0.25796,-2.31409 -2.70625,-2.31879 z"
       id="path4173" />
    <path
       style="fill:none;stroke:#000000;stroke-width:3.63543296;stroke-linejoin:round;stroke-miterlimit:4;stroke-dasharray:none;stroke-opacity:1"
       d="m 224.25027,806.14691 -200.467594,0 c -12.16858,0 -21.9649595,9.79638 -21.9649595,21.96496 l 0,200.46763 c 0,12.1686 7.54638,21.965 19.7149595,21.965 l 182.197054,0 c 2.89115,-3.0345 -0.0229,-18.0101 8.91242,-19.1303 8.72008,-0.8244 6.42181,19.1303 13.55266,19.1303 16.56734,-0.25 20.02042,-5.1747 20.02042,-19.4901 0,-7.339 -16.42144,-6.9898 -16.42144,-14.9691 0,-7.0326 16.42144,-6.0155 16.42144,-10.3369 l 0,-177.63653 c 0,-12.16858 -9.79637,-21.96496 -21.96496,-21.96496 z"
       id="path4175" />
  </g>
  <g
     id="g4177"
     transform="translate(744.09449,435.82677)">
    <path
       id="path4179"
       d="m 32.63035,816.25639 -7.5219,-0.0144 c 0,0 -12.66546,1.38798 -12.66546,17.67998 l 0,3.30234 c 0,2.15838 2.24186,1.86661 2.24186,1.86661 l 17.22844,-0.21976 c 1.53795,0 3.54023,-1.50712 3.54023,-3.46003 L 35.3366,818.57522 c 0,0 -0.25796,-2.31409 -2.70625,-2.31879 z"
       style="fill:none;fill-rule:evenodd;stroke:#000000;stroke-width:0.88640338px;stroke-linecap:butt;stroke-linejoin:miter;stroke-opacity:1" />
    <path
       id="path4181"
       d="m 224.25027,806.14691 -200.467594,0 c -12.16858,0 -21.9649595,9.79638 -21.9649595,21.96496 l 0,200.46763 c 0,12.1686 7.54638,21.965 19.7149595,21.965 l 182.197054,0 c 2.89115,-3.0345 -0.0229,-18.0101 8.91242,-19.1303 8.72008,-0.8244 6.42181,19.1303 13.55266,19.1303 16.56734,-0.25 20.02042,-5.1747 20.02042,-19.4901 0,-7.339 -16.42144,-6.9898 -16.42144,-14.9691 0,-7.0326 16.42144,-6.0155 16.42144,-10.3369 l 0,-177.63653 c 0,-12.16858 -9.79637,-21.96496 -21.96496,-21.96496 z"
       style="fill:none;stroke:#000000;stroke-width:3.63543296;stroke-linejoin:round;stroke-miterlimit:4;stroke-dasharray:none;stroke-opacity:1" />
  </g>
  <g
     transform="translate(992.12598,435.82677)"
     id="g4183">
    <path
       style="fill:none;fill-rule:evenodd;stroke:#000000;stroke-width:0.88640338px;stroke-linecap:butt;stroke-linejoin:miter;stroke-opacity:1"
       d="m 32.63035,816.25639 -7.5219,-0.0144 c 0,0 -12.66546,1.38798 -12.66546,17.67998 l 0,3.30234 c 0,2.15838 2.24186,1.86661 2.24186,1.86661 l 17.22844,-0.21976 c 1.53795,0 3.54023,-1.50712 3.54023,-3.46003 L 35.3366,818.57522 c 0,0 -0.25796,-2.31409 -2.70625,-2.31879 z"
       id="path4185" />
    <path
       style="fill:none;stroke:#000000;stroke-width:3.63543296;stroke-linejoin:round;stroke-miterlimit:4;stroke-dasharray:none;stroke-opacity:1"
       d="m 224.25027,806.14691 -200.467594,0 c -12.16858,0 -21.9649595,9.79638 -21.9649595,21.96496 l 0,200.46763 c 0,12.1686 7.54638,21.965 19.7149595,21.965 l 182.197054,0 c 2.89115,-3.0345 -0.0229,-18.0101 8.91242,-19.1303 8.72008,-0.8244 6.42181,19.1303 13.55266,19.1303 16.56734,-0.25 20.02042,-5.1747 20.02042,-19.4901 0,-7.339 -16.42144,-6.9898 -16.42144,-14.9691 0,-7.0326 16.42144,-6.0155 16.42144,-10.3369 l 0,-177.63653 c 0,-12.16858 -9.79637,-21.96496 -21.96496,-21.96496 z"
       id="path4187" />
  </g>
  <g
     id="g4189"
     transform="translate(1240.1575,435.82677)">
    <path
       id="path4191"
       d="m 32.63035,816.25639 -7.5219,-0.0144 c 0,0 -12.66546,1.38798 -12.66546,17.67998 l 0,3.30234 c 0,2.15838 2.24186,1.86661 2.24186,1.86661 l 17.22844,-0.21976 c 1.53795,0 3.54023,-1.50712 3.54023,-3.46003 L 35.3366,818.57522 c 0,0 -0.25796,-2.31409 -2.70625,-2.31879 z"
       style="fill:none;fill-rule:evenodd;stroke:#000000;stroke-width:0.88640338px;stroke-linecap:butt;stroke-linejoin:miter;stroke-opacity:1" />
    <path
       id="path4193"
       d="m 224.25027,806.14691 -200.467594,0 c -12.16858,0 -21.9649595,9.79638 -21.9649595,21.96496 l 0,200.46763 c 0,12.1686 7.54638,21.965 19.7149595,21.965 l 182.197054,0 c 2.89115,-3.0345 -0.0229,-18.0101 8.91242,-19.1303 8.72008,-0.8244 6.42181,19.1303 13.55266,19.1303 16.56734,-0.25 20.02042,-5.1747 20.02042,-19.4901 0,-7.339 -16.42144,-6.9898 -16.42144,-14.9691 0,-7.0326 16.42144,-6.0155 16.42144,-10.3369 l 0,-177.63653 c 0,-12.16858 -9.79637,-21.96496 -21.96496,-21.96496 z"
       style="fill:none;stroke:#000000;stroke-width:3.63543296;stroke-linejoin:round;stroke-miterlimit:4;stroke-dasharray:none;stroke-opacity:1" />
  </g>
  <g
     transform="translate(1488.189,435.82677)"
     id="g4195">
    <path
       style="fill:none;fill-rule:evenodd;stroke:#000000;stroke-width:0.88640338px;stroke-linecap:butt;stroke-linejoin:miter;stroke-opacity:1"
       d="m 32.63035,816.25639 -7.5219,-0.0144 c 0,0 -12.66546,1.38798 -12.66546,17.67998 l 0,3.30234 c 0,2.15838 2.24186,1.86661 2.24186,1.86661 l 17.22844,-0.21976 c 1.53795,0 3.54023,-1.50712 3.54023,-3.46003 L 35.3366,818.57522 c 0,0 -0.25796,-2.31409 -2.70625,-2.31879 z"
       id="path4197" />
    <path
       style="fill:none;stroke:#000000;stroke-width:3.63543296;stroke-linejoin:round;stroke-miterlimit:4;stroke-dasharray:none;stroke-opacity:1"
       d="m 224.25027,806.14691 -200.467594,0 c -12.16858,0 -21.9649595,9.79638 -21.9649595,21.96496 l 0,200.46763 c 0,12.1686 7.54638,21.965 19.7149595,21.965 l 182.197054,0 c 2.89115,-3.0345 -0.0229,-18.0101 8.91242,-19.1303 8.72008,-0.8244 6.42181,19.1303 13.55266,19.1303 16.56734,-0.25 20.02042,-5.1747 20.02042,-19.4901 0,-7.339 -16.42144,-6.9898 -16.42144,-14.9691 0,-7.0326 16.42144,-6.0155 16.42144,-10.3369 l 0,-177.63653 c 0,-12.16858 -9.79637,-21.96496 -21.96496,-21.96496 z"
       id="path4199" />
  </g>
  <g
     id="g4201"
     transform="translate(1736.2205,435.82677)">
    <path
       id="path4203"
       d="m 32.63035,816.25639 -7.5219,-0.0144 c 0,0 -12.66546,1.38798 -12.66546,17.67998 l 0,3.30234 c 0,2.15838 2.24186,1.86661 2.24186,1.86661 l 17.22844,-0.21976 c 1.53795,0 3.54023,-1.50712 3.54023,-3.46003 L 35.3366,818.57522 c 0,0 -0.25796,-2.31409 -2.70625,-2.31879 z"
       style="fill:none;fill-rule:evenodd;stroke:#000000;stroke-width:0.88640338px;stroke-linecap:butt;stroke-linejoin:miter;stroke-opacity:1" />
    <path
       id="path4205"
       d="m 224.25027,806.14691 -200.467594,0 c -12.16858,0 -21.9649595,9.79638 -21.9649595,21.96496 l 0,200.46763 c 0,12.1686 7.54638,21.965 19.7149595,21.965 l 182.197054,0 c 2.89115,-3.0345 -0.0229,-18.0101 8.91242,-19.1303 8.72008,-0.8244 6.42181,19.1303 13.55266,19.1303 16.56734,-0.25 20.02042,-5.1747 20.02042,-19.4901 0,-7.339 -16.42144,-6.9898 -16.42144,-14.9691 0,-7.0326 16.42144,-6.0155 16.42144,-10.3369 l 0,-177.63653 c 0,-12.16858 -9.79637,-21.96496 -21.96496,-21.96496 z"
       style="fill:none;stroke:#000000;stroke-width:3.63543296;stroke-linejoin:round;stroke-miterlimit:4;stroke-dasharray:none;stroke-opacity:1" />
  </g>
  <g
     id="g4207"
     transform="translate(-2.0698556e-8,187.7952)">
    <path
       id="path4209"
       d="m 32.63035,816.25639 -7.5219,-0.0144 c 0,0 -12.66546,1.38798 -12.66546,17.67998 l 0,3.30234 c 0,2.15838 2.24186,1.86661 2.24186,1.86661 l 17.22844,-0.21976 c 1.53795,0 3.54023,-1.50712 3.54023,-3.46003 L 35.3366,818.57522 c 0,0 -0.25796,-2.31409 -2.70625,-2.31879 z"
       style="fill:none;fill-rule:evenodd;stroke:#000000;stroke-width:0.88640338px;stroke-linecap:butt;stroke-linejoin:miter;stroke-opacity:1" />
    <path
       id="path4211"
       d="m 224.25027,806.14691 -200.467594,0 c -12.16858,0 -21.9649595,9.79638 -21.9649595,21.96496 l 0,200.46763 c 0,12.1686 7.54638,21.965 19.7149595,21.965 l 182.197054,0 c 2.89115,-3.0345 -0.0229,-18.0101 8.91242,-19.1303 8.72008,-0.8244 6.42181,19.1303 13.55266,19.1303 16.56734,-0.25 20.02042,-5.1747 20.02042,-19.4901 0,-7.339 -16.42144,-6.9898 -16.42144,-14.9691 0,-7.0326 16.42144,-6.0155 16.42144,-10.3369 l 0,-177.63653 c 0,-12.16858 -9.79637,-21.96496 -21.96496,-21.96496 z"
       style="fill:none;stroke:#000000;stroke-width:3.63543296;stroke-linejoin:round;stroke-miterlimit:4;stroke-dasharray:none;stroke-opacity:1" />
  </g>
  <g
     transform="translate(248.0315,187.7952)"
     id="g4213">
    <path
       style="fill:none;fill-rule:evenodd;stroke:#000000;stroke-width:0.88640338px;stroke-linecap:butt;stroke-linejoin:miter;stroke-opacity:1"
       d="m 32.63035,816.25639 -7.5219,-0.0144 c 0,0 -12.66546,1.38798 -12.66546,17.67998 l 0,3.30234 c 0,2.15838 2.24186,1.86661 2.24186,1.86661 l 17.22844,-0.21976 c 1.53795,0 3.54023,-1.50712 3.54023,-3.46003 L 35.3366,818.57522 c 0,0 -0.25796,-2.31409 -2.70625,-2.31879 z"
       id="path4215" />
    <path
       style="fill:none;stroke:#000000;stroke-width:3.63543296;stroke-linejoin:round;stroke-miterlimit:4;stroke-dasharray:none;stroke-opacity:1"
       d="m 224.25027,806.14691 -200.467594,0 c -12.16858,0 -21.9649595,9.79638 -21.9649595,21.96496 l 0,200.46763 c 0,12.1686 7.54638,21.965 19.7149595,21.965 l 182.197054,0 c 2.89115,-3.0345 -0.0229,-18.0101 8.91242,-19.1303 8.72008,-0.8244 6.42181,19.1303 13.55266,19.1303 16.56734,-0.25 20.02042,-5.1747 20.02042,-19.4901 0,-7.339 -16.42144,-6.9898 -16.42144,-14.9691 0,-7.0326 16.42144,-6.0155 16.42144,-10.3369 l 0,-177.63653 c 0,-12.16858 -9.79637,-21.96496 -21.96496,-21.96496 z"
       id="path4217" />
  </g>
  <g
     id="g4219"
     transform="translate(496.06299,187.7952)">
    <path
       id="path4221"
       d="m 32.63035,816.25639 -7.5219,-0.0144 c 0,0 -12.66546,1.38798 -12.66546,17.67998 l 0,3.30234 c 0,2.15838 2.24186,1.86661 2.24186,1.86661 l 17.22844,-0.21976 c 1.53795,0 3.54023,-1.50712 3.54023,-3.46003 L 35.3366,818.57522 c 0,0 -0.25796,-2.31409 -2.70625,-2.31879 z"
       style="fill:none;fill-rule:evenodd;stroke:#000000;stroke-width:0.88640338px;stroke-linecap:butt;stroke-linejoin:miter;stroke-opacity:1" />
    <path
       id="path4223"
       d="m 224.25027,806.14691 -200.467594,0 c -12.16858,0 -21.9649595,9.79638 -21.9649595,21.96496 l 0,200.46763 c 0,12.1686 7.54638,21.965 19.7149595,21.965 l 182.197054,0 c 2.89115,-3.0345 -0.0229,-18.0101 8.91242,-19.1303 8.72008,-0.8244 6.42181,19.1303 13.55266,19.1303 16.56734,-0.25 20.02042,-5.1747 20.02042,-19.4901 0,-7.339 -16.42144,-6.9898 -16.42144,-14.9691 0,-7.0326 16.42144,-6.0155 16.42144,-10.3369 l 0,-177.63653 c 0,-12.16858 -9.79637,-21.96496 -21.96496,-21.96496 z"
       style="fill:none;stroke:#000000;stroke-width:3.63543296;stroke-linejoin:round;stroke-miterlimit:4;stroke-dasharray:none;stroke-opacity:1" />
  </g>
  <g
     transform="translate(744.09449,187.7952)"
     id="g4225">
    <path
       style="fill:none;fill-rule:evenodd;stroke:#000000;stroke-width:0.88640338px;stroke-linecap:butt;stroke-linejoin:miter;stroke-opacity:1"
       d="m 32.63035,816.25639 -7.5219,-0.0144 c 0,0 -12.66546,1.38798 -12.66546,17.67998 l 0,3.30234 c 0,2.15838 2.24186,1.86661 2.24186,1.86661 l 17.22844,-0.21976 c 1.53795,0 3.54023,-1.50712 3.54023,-3.46003 L 35.3366,818.57522 c 0,0 -0.25796,-2.31409 -2.70625,-2.31879 z"
       id="path4227" />
    <path
       style="fill:none;stroke:#000000;stroke-width:3.63543296;stroke-linejoin:round;stroke-miterlimit:4;stroke-dasharray:none;stroke-opacity:1"
       d="m 224.25027,806.14691 -200.467594,0 c -12.16858,0 -21.9649595,9.79638 -21.9649595,21.96496 l 0,200.46763 c 0,12.1686 7.54638,21.965 19.7149595,21.965 l 182.197054,0 c 2.89115,-3.0345 -0.0229,-18.0101 8.91242,-19.1303 8.72008,-0.8244 6.42181,19.1303 13.55266,19.1303 16.56734,-0.25 20.02042,-5.1747 20.02042,-19.4901 0,-7.339 -16.42144,-6.9898 -16.42144,-14.9691 0,-7.0326 16.42144,-6.0155 16.42144,-10.3369 l 0,-177.63653 c 0,-12.16858 -9.79637,-21.96496 -21.96496,-21.96496 z"
       id="path4229" />
  </g>
  <g
     id="g4231"
     transform="translate(992.12598,187.7952)">
    <path
       id="path4233"
       d="m 32.63035,816.25639 -7.5219,-0.0144 c 0,0 -12.66546,1.38798 -12.66546,17.67998 l 0,3.30234 c 0,2.15838 2.24186,1.86661 2.24186,1.86661 l 17.22844,-0.21976 c 1.53795,0 3.54023,-1.50712 3.54023,-3.46003 L 35.3366,818.57522 c 0,0 -0.25796,-2.31409 -2.70625,-2.31879 z"
       style="fill:none;fill-rule:evenodd;stroke:#000000;stroke-width:0.88640338px;stroke-linecap:butt;stroke-linejoin:miter;stroke-opacity:1" />
    <path
       id="path4235"
       d="m 224.25027,806.14691 -200.467594,0 c -12.16858,0 -21.9649595,9.79638 -21.9649595,21.96496 l 0,200.46763 c 0,12.1686 7.54638,21.965 19.7149595,21.965 l 182.197054,0 c 2.89115,-3.0345 -0.0229,-18.0101 8.91242,-19.1303 8.72008,-0.8244 6.42181,19.1303 13.55266,19.1303 16.56734,-0.25 20.02042,-5.1747 20.02042,-19.4901 0,-7.339 -16.42144,-6.9898 -16.42144,-14.9691 0,-7.0326 16.42144,-6.0155 16.42144,-10.3369 l 0,-177.63653 c 0,-12.16858 -9.79637,-21.96496 -21.96496,-21.96496 z"
       style="fill:none;stroke:#000000;stroke-width:3.63543296;stroke-linejoin:round;stroke-miterlimit:4;stroke-dasharray:none;stroke-opacity:1" />
  </g>
  <g
     transform="translate(1240.1575,187.7952)"
     id="g4237">
    <path
       style="fill:none;fill-rule:evenodd;stroke:#000000;stroke-width:0.88640338px;stroke-linecap:butt;stroke-linejoin:miter;stroke-opacity:1"
       d="m 32.63035,816.25639 -7.5219,-0.0144 c 0,0 -12.66546,1.38798 -12.66546,17.67998 l 0,3.30234 c 0,2.15838 2.24186,1.86661 2.24186,1.86661 l 17.22844,-0.21976 c 1.53795,0 3.54023,-1.50712 3.54023,-3.46003 L 35.3366,818.57522 c 0,0 -0.25796,-2.31409 -2.70625,-2.31879 z"
       id="path4239" />
    <path
       style="fill:none;stroke:#000000;stroke-width:3.63543296;stroke-linejoin:round;stroke-miterlimit:4;stroke-dasharray:none;stroke-opacity:1"
       d="m 224.25027,806.14691 -200.467594,0 c -12.16858,0 -21.9649595,9.79638 -21.9649595,21.96496 l 0,200.46763 c 0,12.1686 7.54638,21.965 19.7149595,21.965 l 182.197054,0 c 2.89115,-3.0345 -0.0229,-18.0101 8.91242,-19.1303 8.72008,-0.8244 6.42181,19.1303 13.55266,19.1303 16.56734,-0.25 20.02042,-5.1747 20.02042,-19.4901 0,-7.339 -16.42144,-6.9898 -16.42144,-14.9691 0,-7.0326 16.42144,-6.0155 16.42144,-10.3369 l 0,-177.63653 c 0,-12.16858 -9.79637,-21.96496 -21.96496,-21.96496 z"
       id="path4241" />
  </g>
  <g
     id="g4243"
     transform="translate(1488.189,187.7952)">
    <path
       id="path4245"
       d="m 32.63035,816.25639 -7.5219,-0.0144 c 0,0 -12.66546,1.38798 -12.66546,17.67998 l 0,3.30234 c 0,2.15838 2.24186,1.86661 2.24186,1.86661 l 17.22844,-0.21976 c 1.53795,0 3.54023,-1.50712 3.54023,-3.46003 L 35.3366,818.57522 c 0,0 -0.25796,-2.31409 -2.70625,-2.31879 z"
       style="fill:none;fill-rule:evenodd;stroke:#000000;stroke-width:0.88640338px;stroke-linecap:butt;stroke-linejoin:miter;stroke-opacity:1" />
    <path
       id="path4247"
       d="m 224.25027,806.14691 -200.467594,0 c -12.16858,0 -21.9649595,9.79638 -21.9649595,21.96496 l 0,200.46763 c 0,12.1686 7.54638,21.965 19.7149595,21.965 l 182.197054,0 c 2.89115,-3.0345 -0.0229,-18.0101 8.91242,-19.1303 8.72008,-0.8244 6.42181,19.1303 13.55266,19.1303 16.56734,-0.25 20.02042,-5.1747 20.02042,-19.4901 0,-7.339 -16.42144,-6.9898 -16.42144,-14.9691 0,-7.0326 16.42144,-6.0155 16.42144,-10.3369 l 0,-177.63653 c 0,-12.16858 -9.79637,-21.96496 -21.96496,-21.96496 z"
       style="fill:none;stroke:#000000;stroke-width:3.63543296;stroke-linejoin:round;stroke-miterlimit:4;stroke-dasharray:none;stroke-opacity:1" />
  </g>
  <g
     transform="translate(1736.2205,187.7952)"
     id="g4249">
    <path
       style="fill:none;fill-rule:evenodd;stroke:#000000;stroke-width:0.88640338px;stroke-linecap:butt;stroke-linejoin:miter;stroke-opacity:1"
       d="m 32.63035,816.25639 -7.5219,-0.0144 c 0,0 -12.66546,1.38798 -12.66546,17.67998 l 0,3.30234 c 0,2.15838 2.24186,1.86661 2.24186,1.86661 l 17.22844,-0.21976 c 1.53795,0 3.54023,-1.50712 3.54023,-3.46003 L 35.3366,818.57522 c 0,0 -0.25796,-2.31409 -2.70625,-2.31879 z"
       id="path4251" />
    <path
       style="fill:none;stroke:#000000;stroke-width:3.63543296;stroke-linejoin:round;stroke-miterlimit:4;stroke-dasharray:none;stroke-opacity:1"
       d="m 224.25027,806.14691 -200.467594,0 c -12.16858,0 -21.9649595,9.79638 -21.9649595,21.96496 l 0,200.46763 c 0,12.1686 7.54638,21.965 19.7149595,21.965 l 182.197054,0 c 2.89115,-3.0345 -0.0229,-18.0101 8.91242,-19.1303 8.72008,-0.8244 6.42181,19.1303 13.55266,19.1303 16.56734,-0.25 20.02042,-5.1747 20.02042,-19.4901 0,-7.339 -16.42144,-6.9898 -16.42144,-14.9691 0,-7.0326 16.42144,-6.0155 16.42144,-10.3369 l 0,-177.63653 c 0,-12.16858 -9.79637,-21.96496 -21.96496,-21.96496 z"
       id="path4253" />
  </g>
  <g
     transform="translate(-2.0698556e-8,-60.236293)"
     id="g4255">
    <path
       style="fill:none;fill-rule:evenodd;stroke:#000000;stroke-width:0.88640338px;stroke-linecap:butt;stroke-linejoin:miter;stroke-opacity:1"
       d="m 32.63035,816.25639 -7.5219,-0.0144 c 0,0 -12.66546,1.38798 -12.66546,17.67998 l 0,3.30234 c 0,2.15838 2.24186,1.86661 2.24186,1.86661 l 17.22844,-0.21976 c 1.53795,0 3.54023,-1.50712 3.54023,-3.46003 L 35.3366,818.57522 c 0,0 -0.25796,-2.31409 -2.70625,-2.31879 z"
       id="path4257" />
    <path
       style="fill:none;stroke:#000000;stroke-width:3.63543296;stroke-linejoin:round;stroke-miterlimit:4;stroke-dasharray:none;stroke-opacity:1"
       d="m 224.25027,806.14691 -200.467594,0 c -12.16858,0 -21.9649595,9.79638 -21.9649595,21.96496 l 0,200.46763 c 0,12.1686 7.54638,21.965 19.7149595,21.965 l 182.197054,0 c 2.89115,-3.0345 -0.0229,-18.0101 8.91242,-19.1303 8.72008,-0.8244 6.42181,19.1303 13.55266,19.1303 16.56734,-0.25 20.02042,-5.1747 20.02042,-19.4901 0,-7.339 -16.42144,-6.9898 -16.42144,-14.9691 0,-7.0326 16.42144,-6.0155 16.42144,-10.3369 l 0,-177.63653 c 0,-12.16858 -9.79637,-21.96496 -21.96496,-21.96496 z"
       id="path4259" />
  </g>
  <g
     id="g4261"
     transform="translate(248.0315,-60.236293)">
    <path
       id="path4263"
       d="m 32.63035,816.25639 -7.5219,-0.0144 c 0,0 -12.66546,1.38798 -12.66546,17.67998 l 0,3.30234 c 0,2.15838 2.24186,1.86661 2.24186,1.86661 l 17.22844,-0.21976 c 1.53795,0 3.54023,-1.50712 3.54023,-3.46003 L 35.3366,818.57522 c 0,0 -0.25796,-2.31409 -2.70625,-2.31879 z"
       style="fill:none;fill-rule:evenodd;stroke:#000000;stroke-width:0.88640338px;stroke-linecap:butt;stroke-linejoin:miter;stroke-opacity:1" />
    <path
       id="path4265"
       d="m 224.25027,806.14691 -200.467594,0 c -12.16858,0 -21.9649595,9.79638 -21.9649595,21.96496 l 0,200.46763 c 0,12.1686 7.54638,21.965 19.7149595,21.965 l 182.197054,0 c 2.89115,-3.0345 -0.0229,-18.0101 8.91242,-19.1303 8.72008,-0.8244 6.42181,19.1303 13.55266,19.1303 16.56734,-0.25 20.02042,-5.1747 20.02042,-19.4901 0,-7.339 -16.42144,-6.9898 -16.42144,-14.9691 0,-7.0326 16.42144,-6.0155 16.42144,-10.3369 l 0,-177.63653 c 0,-12.16858 -9.79637,-21.96496 -21.96496,-21.96496 z"
       style="fill:none;stroke:#000000;stroke-width:3.63543296;stroke-linejoin:round;stroke-miterlimit:4;stroke-dasharray:none;stroke-opacity:1" />
  </g>
  <g
     transform="translate(496.06299,-60.236293)"
     id="g4267">
    <path
       style="fill:none;fill-rule:evenodd;stroke:#000000;stroke-width:0.88640338px;stroke-linecap:butt;stroke-linejoin:miter;stroke-opacity:1"
       d="m 32.63035,816.25639 -7.5219,-0.0144 c 0,0 -12.66546,1.38798 -12.66546,17.67998 l 0,3.30234 c 0,2.15838 2.24186,1.86661 2.24186,1.86661 l 17.22844,-0.21976 c 1.53795,0 3.54023,-1.50712 3.54023,-3.46003 L 35.3366,818.57522 c 0,0 -0.25796,-2.31409 -2.70625,-2.31879 z"
       id="path4269" />
    <path
       style="fill:none;stroke:#000000;stroke-width:3.63543296;stroke-linejoin:round;stroke-miterlimit:4;stroke-dasharray:none;stroke-opacity:1"
       d="m 224.25027,806.14691 -200.467594,0 c -12.16858,0 -21.9649595,9.79638 -21.9649595,21.96496 l 0,200.46763 c 0,12.1686 7.54638,21.965 19.7149595,21.965 l 182.197054,0 c 2.89115,-3.0345 -0.0229,-18.0101 8.91242,-19.1303 8.72008,-0.8244 6.42181,19.1303 13.55266,19.1303 16.56734,-0.25 20.02042,-5.1747 20.02042,-19.4901 0,-7.339 -16.42144,-6.9898 -16.42144,-14.9691 0,-7.0326 16.42144,-6.0155 16.42144,-10.3369 l 0,-177.63653 c 0,-12.16858 -9.79637,-21.96496 -21.96496,-21.96496 z"
       id="path4271" />
  </g>
  <g
     id="g4273"
     transform="translate(744.09449,-60.236293)">
    <path
       id="path4275"
       d="m 32.63035,816.25639 -7.5219,-0.0144 c 0,0 -12.66546,1.38798 -12.66546,17.67998 l 0,3.30234 c 0,2.15838 2.24186,1.86661 2.24186,1.86661 l 17.22844,-0.21976 c 1.53795,0 3.54023,-1.50712 3.54023,-3.46003 L 35.3366,818.57522 c 0,0 -0.25796,-2.31409 -2.70625,-2.31879 z"
       style="fill:none;fill-rule:evenodd;stroke:#000000;stroke-width:0.88640338px;stroke-linecap:butt;stroke-linejoin:miter;stroke-opacity:1" />
    <path
       id="path4277"
       d="m 224.25027,806.14691 -200.467594,0 c -12.16858,0 -21.9649595,9.79638 -21.9649595,21.96496 l 0,200.46763 c 0,12.1686 7.54638,21.965 19.7149595,21.965 l 182.197054,0 c 2.89115,-3.0345 -0.0229,-18.0101 8.91242,-19.1303 8.72008,-0.8244 6.42181,19.1303 13.55266,19.1303 16.56734,-0.25 20.02042,-5.1747 20.02042,-19.4901 0,-7.339 -16.42144,-6.9898 -16.42144,-14.9691 0,-7.0326 16.42144,-6.0155 16.42144,-10.3369 l 0,-177.63653 c 0,-12.16858 -9.79637,-21.96496 -21.96496,-21.96496 z"
       style="fill:none;stroke:#000000;stroke-width:3.63543296;stroke-linejoin:round;stroke-miterlimit:4;stroke-dasharray:none;stroke-opacity:1" />
  </g>
  <g
     transform="translate(992.12598,-60.236293)"
     id="g4279">
    <path
       style="fill:none;fill-rule:evenodd;stroke:#000000;stroke-width:0.88640338px;stroke-linecap:butt;stroke-linejoin:miter;stroke-opacity:1"
       d="m 32.63035,816.25639 -7.5219,-0.0144 c 0,0 -12.66546,1.38798 -12.66546,17.67998 l 0,3.30234 c 0,2.15838 2.24186,1.86661 2.24186,1.86661 l 17.22844,-0.21976 c 1.53795,0 3.54023,-1.50712 3.54023,-3.46003 L 35.3366,818.57522 c 0,0 -0.25796,-2.31409 -2.70625,-2.31879 z"
       id="path4281" />
    <path
       style="fill:none;stroke:#000000;stroke-width:3.63543296;stroke-linejoin:round;stroke-miterlimit:4;stroke-dasharray:none;stroke-opacity:1"
       d="m 224.25027,806.14691 -200.467594,0 c -12.16858,0 -21.9649595,9.79638 -21.9649595,21.96496 l 0,200.46763 c 0,12.1686 7.54638,21.965 19.7149595,21.965 l 182.197054,0 c 2.89115,-3.0345 -0.0229,-18.0101 8.91242,-19.1303 8.72008,-0.8244 6.42181,19.1303 13.55266,19.1303 16.56734,-0.25 20.02042,-5.1747 20.02042,-19.4901 0,-7.339 -16.42144,-6.9898 -16.42144,-14.9691 0,-7.0326 16.42144,-6.0155 16.42144,-10.3369 l 0,-177.63653 c 0,-12.16858 -9.79637,-21.96496 -21.96496,-21.96496 z"
       id="path4283" />
  </g>
  <g
     id="g4285"
     transform="translate(1240.1575,-60.236293)">
    <path
       id="path4287"
       d="m 32.63035,816.25639 -7.5219,-0.0144 c 0,0 -12.66546,1.38798 -12.66546,17.67998 l 0,3.30234 c 0,2.15838 2.24186,1.86661 2.24186,1.86661 l 17.22844,-0.21976 c 1.53795,0 3.54023,-1.50712 3.54023,-3.46003 L 35.3366,818.57522 c 0,0 -0.25796,-2.31409 -2.70625,-2.31879 z"
       style="fill:none;fill-rule:evenodd;stroke:#000000;stroke-width:0.88640338px;stroke-linecap:butt;stroke-linejoin:miter;stroke-opacity:1" />
    <path
       id="path4289"
       d="m 224.25027,806.14691 -200.467594,0 c -12.16858,0 -21.9649595,9.79638 -21.9649595,21.96496 l 0,200.46763 c 0,12.1686 7.54638,21.965 19.7149595,21.965 l 182.197054,0 c 2.89115,-3.0345 -0.0229,-18.0101 8.91242,-19.1303 8.72008,-0.8244 6.42181,19.1303 13.55266,19.1303 16.56734,-0.25 20.02042,-5.1747 20.02042,-19.4901 0,-7.339 -16.42144,-6.9898 -16.42144,-14.9691 0,-7.0326 16.42144,-6.0155 16.42144,-10.3369 l 0,-177.63653 c 0,-12.16858 -9.79637,-21.96496 -21.96496,-21.96496 z"
       style="fill:none;stroke:#000000;stroke-width:3.63543296;stroke-linejoin:round;stroke-miterlimit:4;stroke-dasharray:none;stroke-opacity:1" />
  </g>
  <g
     transform="translate(1488.189,-60.236293)"
     id="g4291">
    <path
       style="fill:none;fill-rule:evenodd;stroke:#000000;stroke-width:0.88640338px;stroke-linecap:butt;stroke-linejoin:miter;stroke-opacity:1"
       d="m 32.63035,816.25639 -7.5219,-0.0144 c 0,0 -12.66546,1.38798 -12.66546,17.67998 l 0,3.30234 c 0,2.15838 2.24186,1.86661 2.24186,1.86661 l 17.22844,-0.21976 c 1.53795,0 3.54023,-1.50712 3.54023,-3.46003 L 35.3366,818.57522 c 0,0 -0.25796,-2.31409 -2.70625,-2.31879 z"
       id="path4293" />
    <path
       style="fill:none;stroke:#000000;stroke-width:3.63543296;stroke-linejoin:round;stroke-miterlimit:4;stroke-dasharray:none;stroke-opacity:1"
       d="m 224.25027,806.14691 -200.467594,0 c -12.16858,0 -21.9649595,9.79638 -21.9649595,21.96496 l 0,200.46763 c 0,12.1686 7.54638,21.965 19.7149595,21.965 l 182.197054,0 c 2.89115,-3.0345 -0.0229,-18.0101 8.91242,-19.1303 8.72008,-0.8244 6.42181,19.1303 13.55266,19.1303 16.56734,-0.25 20.02042,-5.1747 20.02042,-19.4901 0,-7.339 -16.42144,-6.9898 -16.42144,-14.9691 0,-7.0326 16.42144,-6.0155 16.42144,-10.3369 l 0,-177.63653 c 0,-12.16858 -9.79637,-21.96496 -21.96496,-21.96496 z"
       id="path4295" />
  </g>
  <g
     id="g4297"
     transform="translate(1736.2205,-60.236293)">
    <path
       id="path4299"
       d="m 32.63035,816.25639 -7.5219,-0.0144 c 0,0 -12.66546,1.38798 -12.66546,17.67998 l 0,3.30234 c 0,2.15838 2.24186,1.86661 2.24186,1.86661 l 17.22844,-0.21976 c 1.53795,0 3.54023,-1.50712 3.54023,-3.46003 L 35.3366,818.57522 c 0,0 -0.25796,-2.31409 -2.70625,-2.31879 z"
       style="fill:none;fill-rule:evenodd;stroke:#000000;stroke-width:0.88640338px;stroke-linecap:butt;stroke-linejoin:miter;stroke-opacity:1" />
    <path
       id="path4301"
       d="m 224.25027,806.14691 -200.467594,0 c -12.16858,0 -21.9649595,9.79638 -21.9649595,21.96496 l 0,200.46763 c 0,12.1686 7.54638,21.965 19.7149595,21.965 l 182.197054,0 c 2.89115,-3.0345 -0.0229,-18.0101 8.91242,-19.1303 8.72008,-0.8244 6.42181,19.1303 13.55266,19.1303 16.56734,-0.25 20.02042,-5.1747 20.02042,-19.4901 0,-7.339 -16.42144,-6.9898 -16.42144,-14.9691 0,-7.0326 16.42144,-6.0155 16.42144,-10.3369 l 0,-177.63653 c 0,-12.16858 -9.79637,-21.96496 -21.96496,-21.96496 z"
       style="fill:none;stroke:#000000;stroke-width:3.63543296;stroke-linejoin:round;stroke-miterlimit:4;stroke-dasharray:none;stroke-opacity:1" />
  </g>
  <g
     id="g4303"
     transform="translate(-2.0698556e-8,-308.26779)">
    <path
       id="path4305"
       d="m 32.63035,816.25639 -7.5219,-0.0144 c 0,0 -12.66546,1.38798 -12.66546,17.67998 l 0,3.30234 c 0,2.15838 2.24186,1.86661 2.24186,1.86661 l 17.22844,-0.21976 c 1.53795,0 3.54023,-1.50712 3.54023,-3.46003 L 35.3366,818.57522 c 0,0 -0.25796,-2.31409 -2.70625,-2.31879 z"
       style="fill:none;fill-rule:evenodd;stroke:#000000;stroke-width:0.88640338px;stroke-linecap:butt;stroke-linejoin:miter;stroke-opacity:1" />
    <path
       id="path4307"
       d="m 224.25027,806.14691 -200.467594,0 c -12.16858,0 -21.9649595,9.79638 -21.9649595,21.96496 l 0,200.46763 c 0,12.1686 7.54638,21.965 19.7149595,21.965 l 182.197054,0 c 2.89115,-3.0345 -0.0229,-18.0101 8.91242,-19.1303 8.72008,-0.8244 6.42181,19.1303 13.55266,19.1303 16.56734,-0.25 20.02042,-5.1747 20.02042,-19.4901 0,-7.339 -16.42144,-6.9898 -16.42144,-14.9691 0,-7.0326 16.42144,-6.0155 16.42144,-10.3369 l 0,-177.63653 c 0,-12.16858 -9.79637,-21.96496 -21.96496,-21.96496 z"
       style="fill:none;stroke:#000000;stroke-width:3.63543296;stroke-linejoin:round;stroke-miterlimit:4;stroke-dasharray:none;stroke-opacity:1" />
  </g>
  <g
     transform="translate(248.0315,-308.26779)"
     id="g4309">
    <path
       style="fill:none;fill-rule:evenodd;stroke:#000000;stroke-width:0.88640338px;stroke-linecap:butt;stroke-linejoin:miter;stroke-opacity:1"
       d="m 32.63035,816.25639 -7.5219,-0.0144 c 0,0 -12.66546,1.38798 -12.66546,17.67998 l 0,3.30234 c 0,2.15838 2.24186,1.86661 2.24186,1.86661 l 17.22844,-0.21976 c 1.53795,0 3.54023,-1.50712 3.54023,-3.46003 L 35.3366,818.57522 c 0,0 -0.25796,-2.31409 -2.70625,-2.31879 z"
       id="path4311" />
    <path
       style="fill:none;stroke:#000000;stroke-width:3.63543296;stroke-linejoin:round;stroke-miterlimit:4;stroke-dasharray:none;stroke-opacity:1"
       d="m 224.25027,806.14691 -200.467594,0 c -12.16858,0 -21.9649595,9.79638 -21.9649595,21.96496 l 0,200.46763 c 0,12.1686 7.54638,21.965 19.7149595,21.965 l 182.197054,0 c 2.89115,-3.0345 -0.0229,-18.0101 8.91242,-19.1303 8.72008,-0.8244 6.42181,19.1303 13.55266,19.1303 16.56734,-0.25 20.02042,-5.1747 20.02042,-19.4901 0,-7.339 -16.42144,-6.9898 -16.42144,-14.9691 0,-7.0326 16.42144,-6.0155 16.42144,-10.3369 l 0,-177.63653 c 0,-12.16858 -9.79637,-21.96496 -21.96496,-21.96496 z"
       id="path4313" />
  </g>
  <g
     id="g4315"
     transform="translate(496.06299,-308.26779)">
    <path
       id="path4317"
       d="m 32.63035,816.25639 -7.5219,-0.0144 c 0,0 -12.66546,1.38798 -12.66546,17.67998 l 0,3.30234 c 0,2.15838 2.24186,1.86661 2.24186,1.86661 l 17.22844,-0.21976 c 1.53795,0 3.54023,-1.50712 3.54023,-3.46003 L 35.3366,818.57522 c 0,0 -0.25796,-2.31409 -2.70625,-2.31879 z"
       style="fill:none;fill-rule:evenodd;stroke:#000000;stroke-width:0.88640338px;stroke-linecap:butt;stroke-linejoin:miter;stroke-opacity:1" />
    <path
       id="path4319"
       d="m 224.25027,806.14691 -200.467594,0 c -12.16858,0 -21.9649595,9.79638 -21.9649595,21.96496 l 0,200.46763 c 0,12.1686 7.54638,21.965 19.7149595,21.965 l 182.197054,0 c 2.89115,-3.0345 -0.0229,-18.0101 8.91242,-19.1303 8.72008,-0.8244 6.42181,19.1303 13.55266,19.1303 16.56734,-0.25 20.02042,-5.1747 20.02042,-19.4901 0,-7.339 -16.42144,-6.9898 -16.42144,-14.9691 0,-7.0326 16.42144,-6.0155 16.42144,-10.3369 l 0,-177.63653 c 0,-12.16858 -9.79637,-21.96496 -21.96496,-21.96496 z"
       style="fill:none;stroke:#000000;stroke-width:3.63543296;stroke-linejoin:round;stroke-miterlimit:4;stroke-dasharray:none;stroke-opacity:1" />
  </g>
  <g
     transform="translate(744.09449,-308.26779)"
     id="g4321">
    <path
       style="fill:none;fill-rule:evenodd;stroke:#000000;stroke-width:0.88640338px;stroke-linecap:butt;stroke-linejoin:miter;stroke-opacity:1"
       d="m 32.63035,816.25639 -7.5219,-0.0144 c 0,0 -12.66546,1.38798 -12.66546,17.67998 l 0,3.30234 c 0,2.15838 2.24186,1.86661 2.24186,1.86661 l 17.22844,-0.21976 c 1.53795,0 3.54023,-1.50712 3.54023,-3.46003 L 35.3366,818.57522 c 0,0 -0.25796,-2.31409 -2.70625,-2.31879 z"
       id="path4323" />
    <path
       style="fill:none;stroke:#000000;stroke-width:3.63543296;stroke-linejoin:round;stroke-miterlimit:4;stroke-dasharray:none;stroke-opacity:1"
       d="m 224.25027,806.14691 -200.467594,0 c -12.16858,0 -21.9649595,9.79638 -21.9649595,21.96496 l 0,200.46763 c 0,12.1686 7.54638,21.965 19.7149595,21.965 l 182.197054,0 c 2.89115,-3.0345 -0.0229,-18.0101 8.91242,-19.1303 8.72008,-0.8244 6.42181,19.1303 13.55266,19.1303 16.56734,-0.25 20.02042,-5.1747 20.02042,-19.4901 0,-7.339 -16.42144,-6.9898 -16.42144,-14.9691 0,-7.0326 16.42144,-6.0155 16.42144,-10.3369 l 0,-177.63653 c 0,-12.16858 -9.79637,-21.96496 -21.96496,-21.96496 z"
       id="path4325" />
  </g>
  <g
     id="g4327"
     transform="translate(992.12598,-308.26779)">
    <path
       id="path4329"
       d="m 32.63035,816.25639 -7.5219,-0.0144 c 0,0 -12.66546,1.38798 -12.66546,17.67998 l 0,3.30234 c 0,2.15838 2.24186,1.86661 2.24186,1.86661 l 17.22844,-0.21976 c 1.53795,0 3.54023,-1.50712 3.54023,-3.46003 L 35.3366,818.57522 c 0,0 -0.25796,-2.31409 -2.70625,-2.31879 z"
       style="fill:none;fill-rule:evenodd;stroke:#000000;stroke-width:0.88640338px;stroke-linecap:butt;stroke-linejoin:miter;stroke-opacity:1" />
    <path
       id="path4331"
       d="m 224.25027,806.14691 -200.467594,0 c -12.16858,0 -21.9649595,9.79638 -21.9649595,21.96496 l 0,200.46763 c 0,12.1686 7.54638,21.965 19.7149595,21.965 l 182.197054,0 c 2.89115,-3.0345 -0.0229,-18.0101 8.91242,-19.1303 8.72008,-0.8244 6.42181,19.1303 13.55266,19.1303 16.56734,-0.25 20.02042,-5.1747 20.02042,-19.4901 0,-7.339 -16.42144,-6.9898 -16.42144,-14.9691 0,-7.0326 16.42144,-6.0155 16.42144,-10.3369 l 0,-177.63653 c 0,-12.16858 -9.79637,-21.96496 -21.96496,-21.96496 z"
       style="fill:none;stroke:#000000;stroke-width:3.63543296;stroke-linejoin:round;stroke-miterlimit:4;stroke-dasharray:none;stroke-opacity:1" />
  </g>
  <g
     transform="translate(1240.1575,-308.26779)"
     id="g4333">
    <path
       style="fill:none;fill-rule:evenodd;stroke:#000000;stroke-width:0.88640338px;stroke-linecap:butt;stroke-linejoin:miter;stroke-opacity:1"
       d="m 32.63035,816.25639 -7.5219,-0.0144 c 0,0 -12.66546,1.38798 -12.66546,17.67998 l 0,3.30234 c 0,2.15838 2.24186,1.86661 2.24186,1.86661 l 17.22844,-0.21976 c 1.53795,0 3.54023,-1.50712 3.54023,-3.46003 L 35.3366,818.57522 c 0,0 -0.25796,-2.31409 -2.70625,-2.31879 z"
       id="path4335" />
    <path
       style="fill:none;stroke:#000000;stroke-width:3.63543296;stroke-linejoin:round;stroke-miterlimit:4;stroke-dasharray:none;stroke-opacity:1"
       d="m 224.25027,806.14691 -200.467594,0 c -12.16858,0 -21.9649595,9.79638 -21.9649595,21.96496 l 0,200.46763 c 0,12.1686 7.54638,21.965 19.7149595,21.965 l 182.197054,0 c 2.89115,-3.0345 -0.0229,-18.0101 8.91242,-19.1303 8.72008,-0.8244 6.42181,19.1303 13.55266,19.1303 16.56734,-0.25 20.02042,-5.1747 20.02042,-19.4901 0,-7.339 -16.42144,-6.9898 -16.42144,-14.9691 0,-7.0326 16.42144,-6.0155 16.42144,-10.3369 l 0,-177.63653 c 0,-12.16858 -9.79637,-21.96496 -21.96496,-21.96496 z"
       id="path4337" />
  </g>
  <g
     id="g4339"
     transform="translate(1488.189,-308.26779)">
    <path
       id="path4341"
       d="m 32.63035,816.25639 -7.5219,-0.0144 c 0,0 -12.66546,1.38798 -12.66546,17.67998 l 0,3.30234 c 0,2.15838 2.24186,1.86661 2.24186,1.86661 l 17.22844,-0.21976 c 1.53795,0 3.54023,-1.50712 3.54023,-3.46003 L 35.3366,818.57522 c 0,0 -0.25796,-2.31409 -2.70625,-2.31879 z"
       style="fill:none;fill-rule:evenodd;stroke:#000000;stroke-width:0.88640338px;stroke-linecap:butt;stroke-linejoin:miter;stroke-opacity:1" />
    <path
       id="path4343"
       d="m 224.25027,806.14691 -200.467594,0 c -12.16858,0 -21.9649595,9.79638 -21.9649595,21.96496 l 0,200.46763 c 0,12.1686 7.54638,21.965 19.7149595,21.965 l 182.197054,0 c 2.89115,-3.0345 -0.0229,-18.0101 8.91242,-19.1303 8.72008,-0.8244 6.42181,19.1303 13.55266,19.1303 16.56734,-0.25 20.02042,-5.1747 20.02042,-19.4901 0,-7.339 -16.42144,-6.9898 -16.42144,-14.9691 0,-7.0326 16.42144,-6.0155 16.42144,-10.3369 l 0,-177.63653 c 0,-12.16858 -9.79637,-21.96496 -21.96496,-21.96496 z"
       style="fill:none;stroke:#000000;stroke-width:3.63543296;stroke-linejoin:round;stroke-miterlimit:4;stroke-dasharray:none;stroke-opacity:1" />
  </g>
  <g
     transform="translate(1736.2205,-308.26779)"
     id="g4345">
    <path
       style="fill:none;fill-rule:evenodd;stroke:#000000;stroke-width:0.88640338px;stroke-linecap:butt;stroke-linejoin:miter;stroke-opacity:1"
       d="m 32.63035,816.25639 -7.5219,-0.0144 c 0,0 -12.66546,1.38798 -12.66546,17.67998 l 0,3.30234 c 0,2.15838 2.24186,1.86661 2.24186,1.86661 l 17.22844,-0.21976 c 1.53795,0 3.54023,-1.50712 3.54023,-3.46003 L 35.3366,818.57522 c 0,0 -0.25796,-2.31409 -2.70625,-2.31879 z"
       id="path4347" />
    <path
       style="fill:none;stroke:#000000;stroke-width:3.63543296;stroke-linejoin:round;stroke-miterlimit:4;stroke-dasharray:none;stroke-opacity:1"
       d="m 224.25027,806.14691 -200.467594,0 c -12.16858,0 -21.9649595,9.79638 -21.9649595,21.96496 l 0,200.46763 c 0,12.1686 7.54638,21.965 19.7149595,21.965 l 182.197054,0 c 2.89115,-3.0345 -0.0229,-18.0101 8.91242,-19.1303 8.72008,-0.8244 6.42181,19.1303 13.55266,19.1303 16.56734,-0.25 20.02042,-5.1747 20.02042,-19.4901 0,-7.339 -16.42144,-6.9898 -16.42144,-14.9691 0,-7.0326 16.42144,-6.0155 16.42144,-10.3369 l 0,-177.63653 c 0,-12.16858 -9.79637,-21.96496 -21.96496,-21.96496 z"
       id="path4349" />
  </g>
  <g
     transform="translate(-2.0698556e-8,-556.29929)"
     id="g4351">
    <path
       style="fill:none;fill-rule:evenodd;stroke:#000000;stroke-width:0.88640338px;stroke-linecap:butt;stroke-linejoin:miter;stroke-opacity:1"
       d="m 32.63035,816.25639 -7.5219,-0.0144 c 0,0 -12.66546,1.38798 -12.66546,17.67998 l 0,3.30234 c 0,2.15838 2.24186,1.86661 2.24186,1.86661 l 17.22844,-0.21976 c 1.53795,0 3.54023,-1.50712 3.54023,-3.46003 L 35.3366,818.57522 c 0,0 -0.25796,-2.31409 -2.70625,-2.31879 z"
       id="path4353" />
    <path
       style="fill:none;stroke:#000000;stroke-width:3.63543296;stroke-linejoin:round;stroke-miterlimit:4;stroke-dasharray:none;stroke-opacity:1"
       d="m 224.25027,806.14691 -200.467594,0 c -12.16858,0 -21.9649595,9.79638 -21.9649595,21.96496 l 0,200.46763 c 0,12.1686 7.54638,21.965 19.7149595,21.965 l 182.197054,0 c 2.89115,-3.0345 -0.0229,-18.0101 8.91242,-19.1303 8.72008,-0.8244 6.42181,19.1303 13.55266,19.1303 16.56734,-0.25 20.02042,-5.1747 20.02042,-19.4901 0,-7.339 -16.42144,-6.9898 -16.42144,-14.9691 0,-7.0326 16.42144,-6.0155 16.42144,-10.3369 l 0,-177.63653 c 0,-12.16858 -9.79637,-21.96496 -21.96496,-21.96496 z"
       id="path4355" />
  </g>
  <g
     id="g4357"
     transform="translate(248.0315,-556.29929)">
    <path
       id="path4359"
       d="m 32.63035,816.25639 -7.5219,-0.0144 c 0,0 -12.66546,1.38798 -12.66546,17.67998 l 0,3.30234 c 0,2.15838 2.24186,1.86661 2.24186,1.86661 l 17.22844,-0.21976 c 1.53795,0 3.54023,-1.50712 3.54023,-3.46003 L 35.3366,818.57522 c 0,0 -0.25796,-2.31409 -2.70625,-2.31879 z"
       style="fill:none;fill-rule:evenodd;stroke:#000000;stroke-width:0.88640338px;stroke-linecap:butt;stroke-linejoin:miter;stroke-opacity:1" />
    <path
       id="path4361"
       d="m 224.25027,806.14691 -200.467594,0 c -12.16858,0 -21.9649595,9.79638 -21.9649595,21.96496 l 0,200.46763 c 0,12.1686 7.54638,21.965 19.7149595,21.965 l 182.197054,0 c 2.89115,-3.0345 -0.0229,-18.0101 8.91242,-19.1303 8.72008,-0.8244 6.42181,19.1303 13.55266,19.1303 16.56734,-0.25 20.02042,-5.1747 20.02042,-19.4901 0,-7.339 -16.42144,-6.9898 -16.42144,-14.9691 0,-7.0326 16.42144,-6.0155 16.42144,-10.3369 l 0,-177.63653 c 0,-12.16858 -9.79637,-21.96496 -21.96496,-21.96496 z"
       style="fill:none;stroke:#000000;stroke-width:3.63543296;stroke-linejoin:round;stroke-miterlimit:4;stroke-dasharray:none;stroke-opacity:1" />
  </g>
  <g
     transform="translate(496.06299,-556.29929)"
     id="g4363">
    <path
       style="fill:none;fill-rule:evenodd;stroke:#000000;stroke-width:0.88640338px;stroke-linecap:butt;stroke-linejoin:miter;stroke-opacity:1"
       d="m 32.63035,816.25639 -7.5219,-0.0144 c 0,0 -12.66546,1.38798 -12.66546,17.67998 l 0,3.30234 c 0,2.15838 2.24186,1.86661 2.24186,1.86661 l 17.22844,-0.21976 c 1.53795,0 3.54023,-1.50712 3.54023,-3.46003 L 35.3366,818.57522 c 0,0 -0.25796,-2.31409 -2.70625,-2.31879 z"
       id="path4365" />
    <path
       style="fill:none;stroke:#000000;stroke-width:3.63543296;stroke-linejoin:round;stroke-miterlimit:4;stroke-dasharray:none;stroke-opacity:1"
       d="m 224.25027,806.14691 -200.467594,0 c -12.16858,0 -21.9649595,9.79638 -21.9649595,21.96496 l 0,200.46763 c 0,12.1686 7.54638,21.965 19.7149595,21.965 l 182.197054,0 c 2.89115,-3.0345 -0.0229,-18.0101 8.91242,-19.1303 8.72008,-0.8244 6.42181,19.1303 13.55266,19.1303 16.56734,-0.25 20.02042,-5.1747 20.02042,-19.4901 0,-7.339 -16.42144,-6.9898 -16.42144,-14.9691 0,-7.0326 16.42144,-6.0155 16.42144,-10.3369 l 0,-177.63653 c 0,-12.16858 -9.79637,-21.96496 -21.96496,-21.96496 z"
       id="path4367" />
  </g>
  <g
     id="g4369"
     transform="translate(744.09449,-556.29929)">
    <path
       id="path4371"
       d="m 32.63035,816.25639 -7.5219,-0.0144 c 0,0 -12.66546,1.38798 -12.66546,17.67998 l 0,3.30234 c 0,2.15838 2.24186,1.86661 2.24186,1.86661 l 17.22844,-0.21976 c 1.53795,0 3.54023,-1.50712 3.54023,-3.46003 L 35.3366,818.57522 c 0,0 -0.25796,-2.31409 -2.70625,-2.31879 z"
       style="fill:none;fill-rule:evenodd;stroke:#000000;stroke-width:0.88640338px;stroke-linecap:butt;stroke-linejoin:miter;stroke-opacity:1" />
    <path
       id="path4373"
       d="m 224.25027,806.14691 -200.467594,0 c -12.16858,0 -21.9649595,9.79638 -21.9649595,21.96496 l 0,200.46763 c 0,12.1686 7.54638,21.965 19.7149595,21.965 l 182.197054,0 c 2.89115,-3.0345 -0.0229,-18.0101 8.91242,-19.1303 8.72008,-0.8244 6.42181,19.1303 13.55266,19.1303 16.56734,-0.25 20.02042,-5.1747 20.02042,-19.4901 0,-7.339 -16.42144,-6.9898 -16.42144,-14.9691 0,-7.0326 16.42144,-6.0155 16.42144,-10.3369 l 0,-177.63653 c 0,-12.16858 -9.79637,-21.96496 -21.96496,-21.96496 z"
       style="fill:none;stroke:#000000;stroke-width:3.63543296;stroke-linejoin:round;stroke-miterlimit:4;stroke-dasharray:none;stroke-opacity:1" />
  </g>
  <g
     transform="translate(992.12598,-556.29929)"
     id="g4375">
    <path
       style="fill:none;fill-rule:evenodd;stroke:#000000;stroke-width:0.88640338px;stroke-linecap:butt;stroke-linejoin:miter;stroke-opacity:1"
       d="m 32.63035,816.25639 -7.5219,-0.0144 c 0,0 -12.66546,1.38798 -12.66546,17.67998 l 0,3.30234 c 0,2.15838 2.24186,1.86661 2.24186,1.86661 l 17.22844,-0.21976 c 1.53795,0 3.54023,-1.50712 3.54023,-3.46003 L 35.3366,818.57522 c 0,0 -0.25796,-2.31409 -2.70625,-2.31879 z"
       id="path4377" />
    <path
       style="fill:none;stroke:#000000;stroke-width:3.63543296;stroke-linejoin:round;stroke-miterlimit:4;stroke-dasharray:none;stroke-opacity:1"
       d="m 224.25027,806.14691 -200.467594,0 c -12.16858,0 -21.9649595,9.79638 -21.9649595,21.96496 l 0,200.46763 c 0,12.1686 7.54638,21.965 19.7149595,21.965 l 182.197054,0 c 2.89115,-3.0345 -0.0229,-18.0101 8.91242,-19.1303 8.72008,-0.8244 6.42181,19.1303 13.55266,19.1303 16.56734,-0.25 20.02042,-5.1747 20.02042,-19.4901 0,-7.339 -16.42144,-6.9898 -16.42144,-14.9691 0,-7.0326 16.42144,-6.0155 16.42144,-10.3369 l 0,-177.63653 c 0,-12.16858 -9.79637,-21.96496 -21.96496,-21.96496 z"
       id="path4379" />
  </g>
  <g
     id="g4381"
     transform="translate(1240.1575,-556.29929)">
    <path
       id="path4383"
       d="m 32.63035,816.25639 -7.5219,-0.0144 c 0,0 -12.66546,1.38798 -12.66546,17.67998 l 0,3.30234 c 0,2.15838 2.24186,1.86661 2.24186,1.86661 l 17.22844,-0.21976 c 1.53795,0 3.54023,-1.50712 3.54023,-3.46003 L 35.3366,818.57522 c 0,0 -0.25796,-2.31409 -2.70625,-2.31879 z"
       style="fill:none;fill-rule:evenodd;stroke:#000000;stroke-width:0.88640338px;stroke-linecap:butt;stroke-linejoin:miter;stroke-opacity:1" />
    <path
       id="path4385"
       d="m 224.25027,806.14691 -200.467594,0 c -12.16858,0 -21.9649595,9.79638 -21.9649595,21.96496 l 0,200.46763 c 0,12.1686 7.54638,21.965 19.7149595,21.965 l 182.197054,0 c 2.89115,-3.0345 -0.0229,-18.0101 8.91242,-19.1303 8.72008,-0.8244 6.42181,19.1303 13.55266,19.1303 16.56734,-0.25 20.02042,-5.1747 20.02042,-19.4901 0,-7.339 -16.42144,-6.9898 -16.42144,-14.9691 0,-7.0326 16.42144,-6.0155 16.42144,-10.3369 l 0,-177.63653 c 0,-12.16858 -9.79637,-21.96496 -21.96496,-21.96496 z"
       style="fill:none;stroke:#000000;stroke-width:3.63543296;stroke-linejoin:round;stroke-miterlimit:4;stroke-dasharray:none;stroke-opacity:1" />
  </g>
  <g
     transform="translate(1488.189,-556.29929)"
     id="g4387">
    <path
       style="fill:none;fill-rule:evenodd;stroke:#000000;stroke-width:0.88640338px;stroke-linecap:butt;stroke-linejoin:miter;stroke-opacity:1"
       d="m 32.63035,816.25639 -7.5219,-0.0144 c 0,0 -12.66546,1.38798 -12.66546,17.67998 l 0,3.30234 c 0,2.15838 2.24186,1.86661 2.24186,1.86661 l 17.22844,-0.21976 c 1.53795,0 3.54023,-1.50712 3.54023,-3.46003 L 35.3366,818.57522 c 0,0 -0.25796,-2.31409 -2.70625,-2.31879 z"
       id="path4389" />
    <path
       style="fill:none;stroke:#000000;stroke-width:3.63543296;stroke-linejoin:round;stroke-miterlimit:4;stroke-dasharray:none;stroke-opacity:1"
       d="m 224.25027,806.14691 -200.467594,0 c -12.16858,0 -21.9649595,9.79638 -21.9649595,21.96496 l 0,200.46763 c 0,12.1686 7.54638,21.965 19.7149595,21.965 l 182.197054,0 c 2.89115,-3.0345 -0.0229,-18.0101 8.91242,-19.1303 8.72008,-0.8244 6.42181,19.1303 13.55266,19.1303 16.56734,-0.25 20.02042,-5.1747 20.02042,-19.4901 0,-7.339 -16.42144,-6.9898 -16.42144,-14.9691 0,-7.0326 16.42144,-6.0155 16.42144,-10.3369 l 0,-177.63653 c 0,-12.16858 -9.79637,-21.96496 -21.96496,-21.96496 z"
       id="path4391" />
  </g>
  <g
     id="g4393"
     transform="translate(1736.2205,-556.29929)">
    <path
       id="path4395"
       d="m 32.63035,816.25639 -7.5219,-0.0144 c 0,0 -12.66546,1.38798 -12.66546,17.67998 l 0,3.30234 c 0,2.15838 2.24186,1.86661 2.24186,1.86661 l 17.22844,-0.21976 c 1.53795,0 3.54023,-1.50712 3.54023,-3.46003 L 35.3366,818.57522 c 0,0 -0.25796,-2.31409 -2.70625,-2.31879 z"
       style="fill:none;fill-rule:evenodd;stroke:#000000;stroke-width:0.88640338px;stroke-linecap:butt;stroke-linejoin:miter;stroke-opacity:1" />
    <path
       id="path4397"
       d="m 224.25027,806.14691 -200.467594,0 c -12.16858,0 -21.9649595,9.79638 -21.9649595,21.96496 l 0,200.46763 c 0,12.1686 7.54638,21.965 19.7149595,21.965 l 182.197054,0 c 2.89115,-3.0345 -0.0229,-18.0101 8.91242,-19.1303 8.72008,-0.8244 6.42181,19.1303 13.55266,19.1303 16.56734,-0.25 20.02042,-5.1747 20.02042,-19.4901 0,-7.339 -16.42144,-6.9898 -16.42144,-14.9691 0,-7.0326 16.42144,-6.0155 16.42144,-10.3369 l 0,-177.63653 c 0,-12.16858 -9.79637,-21.96496 -21.96496,-21.96496 z"
       style="fill:none;stroke:#000000;stroke-width:3.63543296;stroke-linejoin:round;stroke-miterlimit:4;stroke-dasharray:none;stroke-opacity:1" />
  </g>
  <g
     id="g4399"
     transform="translate(-2.0698555e-8,-804.33078)">
    <path
       id="path4401"
       d="m 32.63035,816.25639 -7.5219,-0.0144 c 0,0 -12.66546,1.38798 -12.66546,17.67998 l 0,3.30234 c 0,2.15838 2.24186,1.86661 2.24186,1.86661 l 17.22844,-0.21976 c 1.53795,0 3.54023,-1.50712 3.54023,-3.46003 L 35.3366,818.57522 c 0,0 -0.25796,-2.31409 -2.70625,-2.31879 z"
       style="fill:none;fill-rule:evenodd;stroke:#000000;stroke-width:0.88640338px;stroke-linecap:butt;stroke-linejoin:miter;stroke-opacity:1" />
    <path
       id="path4403"
       d="m 224.25027,806.14691 -200.467594,0 c -12.16858,0 -21.9649595,9.79638 -21.9649595,21.96496 l 0,200.46763 c 0,12.1686 7.54638,21.965 19.7149595,21.965 l 182.197054,0 c 2.89115,-3.0345 -0.0229,-18.0101 8.91242,-19.1303 8.72008,-0.8244 6.42181,19.1303 13.55266,19.1303 16.56734,-0.25 20.02042,-5.1747 20.02042,-19.4901 0,-7.339 -16.42144,-6.9898 -16.42144,-14.9691 0,-7.0326 16.42144,-6.0155 16.42144,-10.3369 l 0,-177.63653 c 0,-12.16858 -9.79637,-21.96496 -21.96496,-21.96496 z"
       style="fill:none;stroke:#000000;stroke-width:3.63543296;stroke-linejoin:round;stroke-miterlimit:4;stroke-dasharray:none;stroke-opacity:1" />
  </g>
  <g
     transform="translate(248.0315,-804.33078)"
     id="g4405">
    <path
       style="fill:none;fill-rule:evenodd;stroke:#000000;stroke-width:0.88640338px;stroke-linecap:butt;stroke-linejoin:miter;stroke-opacity:1"
       d="m 32.63035,816.25639 -7.5219,-0.0144 c 0,0 -12.66546,1.38798 -12.66546,17.67998 l 0,3.30234 c 0,2.15838 2.24186,1.86661 2.24186,1.86661 l 17.22844,-0.21976 c 1.53795,0 3.54023,-1.50712 3.54023,-3.46003 L 35.3366,818.57522 c 0,0 -0.25796,-2.31409 -2.70625,-2.31879 z"
       id="path4407" />
    <path
       style="fill:none;stroke:#000000;stroke-width:3.63543296;stroke-linejoin:round;stroke-miterlimit:4;stroke-dasharray:none;stroke-opacity:1"
       d="m 224.25027,806.14691 -200.467594,0 c -12.16858,0 -21.9649595,9.79638 -21.9649595,21.96496 l 0,200.46763 c 0,12.1686 7.54638,21.965 19.7149595,21.965 l 182.197054,0 c 2.89115,-3.0345 -0.0229,-18.0101 8.91242,-19.1303 8.72008,-0.8244 6.42181,19.1303 13.55266,19.1303 16.56734,-0.25 20.02042,-5.1747 20.02042,-19.4901 0,-7.339 -16.42144,-6.9898 -16.42144,-14.9691 0,-7.0326 16.42144,-6.0155 16.42144,-10.3369 l 0,-177.63653 c 0,-12.16858 -9.79637,-21.96496 -21.96496,-21.96496 z"
       id="path4409" />
  </g>
  <g
     id="g4411"
     transform="translate(496.06299,-804.33078)">
    <path
       id="path4413"
       d="m 32.63035,816.25639 -7.5219,-0.0144 c 0,0 -12.66546,1.38798 -12.66546,17.67998 l 0,3.30234 c 0,2.15838 2.24186,1.86661 2.24186,1.86661 l 17.22844,-0.21976 c 1.53795,0 3.54023,-1.50712 3.54023,-3.46003 L 35.3366,818.57522 c 0,0 -0.25796,-2.31409 -2.70625,-2.31879 z"
       style="fill:none;fill-rule:evenodd;stroke:#000000;stroke-width:0.88640338px;stroke-linecap:butt;stroke-linejoin:miter;stroke-opacity:1" />
    <path
       id="path4415"
       d="m 224.25027,806.14691 -200.467594,0 c -12.16858,0 -21.9649595,9.79638 -21.9649595,21.96496 l 0,200.46763 c 0,12.1686 7.54638,21.965 19.7149595,21.965 l 182.197054,0 c 2.89115,-3.0345 -0.0229,-18.0101 8.91242,-19.1303 8.72008,-0.8244 6.42181,19.1303 13.55266,19.1303 16.56734,-0.25 20.02042,-5.1747 20.02042,-19.4901 0,-7.339 -16.42144,-6.9898 -16.42144,-14.9691 0,-7.0326 16.42144,-6.0155 16.42144,-10.3369 l 0,-177.63653 c 0,-12.16858 -9.79637,-21.96496 -21.96496,-21.96496 z"
       style="fill:none;stroke:#000000;stroke-width:3.63543296;stroke-linejoin:round;stroke-miterlimit:4;stroke-dasharray:none;stroke-opacity:1" />
  </g>
  <g
     transform="translate(744.09449,-804.33078)"
     id="g4417">
    <path
       style="fill:none;fill-rule:evenodd;stroke:#000000;stroke-width:0.88640338px;stroke-linecap:butt;stroke-linejoin:miter;stroke-opacity:1"
       d="m 32.63035,816.25639 -7.5219,-0.0144 c 0,0 -12.66546,1.38798 -12.66546,17.67998 l 0,3.30234 c 0,2.15838 2.24186,1.86661 2.24186,1.86661 l 17.22844,-0.21976 c 1.53795,0 3.54023,-1.50712 3.54023,-3.46003 L 35.3366,818.57522 c 0,0 -0.25796,-2.31409 -2.70625,-2.31879 z"
       id="path4419" />
    <path
       style="fill:none;stroke:#000000;stroke-width:3.63543296;stroke-linejoin:round;stroke-miterlimit:4;stroke-dasharray:none;stroke-opacity:1"
       d="m 224.25027,806.14691 -200.467594,0 c -12.16858,0 -21.9649595,9.79638 -21.9649595,21.96496 l 0,200.46763 c 0,12.1686 7.54638,21.965 19.7149595,21.965 l 182.197054,0 c 2.89115,-3.0345 -0.0229,-18.0101 8.91242,-19.1303 8.72008,-0.8244 6.42181,19.1303 13.55266,19.1303 16.56734,-0.25 20.02042,-5.1747 20.02042,-19.4901 0,-7.339 -16.42144,-6.9898 -16.42144,-14.9691 0,-7.0326 16.42144,-6.0155 16.42144,-10.3369 l 0,-177.63653 c 0,-12.16858 -9.79637,-21.96496 -21.96496,-21.96496 z"
       id="path4421" />
  </g>
  <g
     id="g4423"
     transform="translate(992.12598,-804.33078)">
    <path
       id="path4425"
       d="m 32.63035,816.25639 -7.5219,-0.0144 c 0,0 -12.66546,1.38798 -12.66546,17.67998 l 0,3.30234 c 0,2.15838 2.24186,1.86661 2.24186,1.86661 l 17.22844,-0.21976 c 1.53795,0 3.54023,-1.50712 3.54023,-3.46003 L 35.3366,818.57522 c 0,0 -0.25796,-2.31409 -2.70625,-2.31879 z"
       style="fill:none;fill-rule:evenodd;stroke:#000000;stroke-width:0.88640338px;stroke-linecap:butt;stroke-linejoin:miter;stroke-opacity:1" />
    <path
       id="path4427"
       d="m 224.25027,806.14691 -200.467594,0 c -12.16858,0 -21.9649595,9.79638 -21.9649595,21.96496 l 0,200.46763 c 0,12.1686 7.54638,21.965 19.7149595,21.965 l 182.197054,0 c 2.89115,-3.0345 -0.0229,-18.0101 8.91242,-19.1303 8.72008,-0.8244 6.42181,19.1303 13.55266,19.1303 16.56734,-0.25 20.02042,-5.1747 20.02042,-19.4901 0,-7.339 -16.42144,-6.9898 -16.42144,-14.9691 0,-7.0326 16.42144,-6.0155 16.42144,-10.3369 l 0,-177.63653 c 0,-12.16858 -9.79637,-21.96496 -21.96496,-21.96496 z"
       style="fill:none;stroke:#000000;stroke-width:3.63543296;stroke-linejoin:round;stroke-miterlimit:4;stroke-dasharray:none;stroke-opacity:1" />
  </g>
  <g
     transform="translate(1240.1575,-804.33078)"
     id="g4429">
    <path
       style="fill:none;fill-rule:evenodd;stroke:#000000;stroke-width:0.88640338px;stroke-linecap:butt;stroke-linejoin:miter;stroke-opacity:1"
       d="m 32.63035,816.25639 -7.5219,-0.0144 c 0,0 -12.66546,1.38798 -12.66546,17.67998 l 0,3.30234 c 0,2.15838 2.24186,1.86661 2.24186,1.86661 l 17.22844,-0.21976 c 1.53795,0 3.54023,-1.50712 3.54023,-3.46003 L 35.3366,818.57522 c 0,0 -0.25796,-2.31409 -2.70625,-2.31879 z"
       id="path4431" />
    <path
       style="fill:none;stroke:#000000;stroke-width:3.63543296;stroke-linejoin:round;stroke-miterlimit:4;stroke-dasharray:none;stroke-opacity:1"
       d="m 224.25027,806.14691 -200.467594,0 c -12.16858,0 -21.9649595,9.79638 -21.9649595,21.96496 l 0,200.46763 c 0,12.1686 7.54638,21.965 19.7149595,21.965 l 182.197054,0 c 2.89115,-3.0345 -0.0229,-18.0101 8.91242,-19.1303 8.72008,-0.8244 6.42181,19.1303 13.55266,19.1303 16.56734,-0.25 20.02042,-5.1747 20.02042,-19.4901 0,-7.339 -16.42144,-6.9898 -16.42144,-14.9691 0,-7.0326 16.42144,-6.0155 16.42144,-10.3369 l 0,-177.63653 c 0,-12.16858 -9.79637,-21.96496 -21.96496,-21.96496 z"
       id="path4433" />
  </g>
  <g
     id="g4435"
     transform="translate(1488.189,-804.33078)">
    <path
       id="path4437"
       d="m 32.63035,816.25639 -7.5219,-0.0144 c 0,0 -12.66546,1.38798 -12.66546,17.67998 l 0,3.30234 c 0,2.15838 2.24186,1.86661 2.24186,1.86661 l 17.22844,-0.21976 c 1.53795,0 3.54023,-1.50712 3.54023,-3.46003 L 35.3366,818.57522 c 0,0 -0.25796,-2.31409 -2.70625,-2.31879 z"
       style="fill:none;fill-rule:evenodd;stroke:#000000;stroke-width:0.88640338px;stroke-linecap:butt;stroke-linejoin:miter;stroke-opacity:1" />
    <path
       id="path4439"
       d="m 224.25027,806.14691 -200.467594,0 c -12.16858,0 -21.9649595,9.79638 -21.9649595,21.96496 l 0,200.46763 c 0,12.1686 7.54638,21.965 19.7149595,21.965 l 182.197054,0 c 2.89115,-3.0345 -0.0229,-18.0101 8.91242,-19.1303 8.72008,-0.8244 6.42181,19.1303 13.55266,19.1303 16.56734,-0.25 20.02042,-5.1747 20.02042,-19.4901 0,-7.339 -16.42144,-6.9898 -16.42144,-14.9691 0,-7.0326 16.42144,-6.0155 16.42144,-10.3369 l 0,-177.63653 c 0,-12.16858 -9.79637,-21.96496 -21.96496,-21.96496 z"
       style="fill:none;stroke:#000000;stroke-width:3.63543296;stroke-linejoin:round;stroke-miterlimit:4;stroke-dasharray:none;stroke-opacity:1" />
  </g>
  <g
     transform="translate(1736.2205,-804.33078)"
     id="g4441">
    <path
       style="fill:none;fill-rule:evenodd;stroke:#000000;stroke-width:0.88640338px;stroke-linecap:butt;stroke-linejoin:miter;stroke-opacity:1"
       d="m 32.63035,816.25639 -7.5219,-0.0144 c 0,0 -12.66546,1.38798 -12.66546,17.67998 l 0,3.30234 c 0,2.15838 2.24186,1.86661 2.24186,1.86661 l 17.22844,-0.21976 c 1.53795,0 3.54023,-1.50712 3.54023,-3.46003 L 35.3366,818.57522 c 0,0 -0.25796,-2.31409 -2.70625,-2.31879 z"
       id="path4443" />
    <path
       style="fill:none;stroke:#000000;stroke-width:3.63543296;stroke-linejoin:round;stroke-miterlimit:4;stroke-dasharray:none;stroke-opacity:1"
       d="m 224.25027,806.14691 -200.467594,0 c -12.16858,0 -21.9649595,9.79638 -21.9649595,21.96496 l 0,200.46763 c 0,12.1686 7.54638,21.965 19.7149595,21.965 l 182.197054,0 c 2.89115,-3.0345 -0.0229,-18.0101 8.91242,-19.1303 8.72008,-0.8244 6.42181,19.1303 13.55266,19.1303 16.56734,-0.25 20.02042,-5.1747 20.02042,-19.4901 0,-7.339 -16.42144,-6.9898 -16.42144,-14.9691 0,-7.0326 16.42144,-6.0155 16.42144,-10.3369 l 0,-177.63653 c 0,-12.16858 -9.79637,-21.96496 -21.96496,-21.96496 z"
       id="path4445" />
  </g>
</svg>
