<?xml version="1.0" encoding="UTF-8" standalone="no"?>
<!-- Created with Inkscape (http://www.inkscape.org/) -->

<svg
   xmlns:dc="http://purl.org/dc/elements/1.1/"
   xmlns:cc="http://creativecommons.org/ns#"
   xmlns:rdf="http://www.w3.org/1999/02/22-rdf-syntax-ns#"
   xmlns:svg="http://www.w3.org/2000/svg"
   xmlns="http://www.w3.org/2000/svg"
   xmlns:sodipodi="http://sodipodi.sourceforge.net/DTD/sodipodi-0.dtd"
   xmlns:inkscape="http://www.inkscape.org/namespaces/inkscape"
   width="70mm"
   height="85mm"
   viewBox="0 0 248.03149 301.1811"
   id="svg2"
   version="1.1"
   inkscape:version="0.91 r13725"
   sodipodi:docname="FrontCard.svg">
  <sodipodi:namedview
     id="base"
     pagecolor="#5e5e5e"
     bordercolor="#919191"
     borderopacity="1"
     inkscape:pageopacity="0"
     inkscape:pageshadow="2"
     inkscape:zoom="7.7295782"
     inkscape:cx="204.01572"
     inkscape:cy="0.067595723"
     inkscape:document-units="mm"
     inkscape:current-layer="layer3"
     showgrid="false"
     inkscape:window-width="1366"
     inkscape:window-height="744"
     inkscape:window-x="0"
     inkscape:window-y="1"
     inkscape:window-maximized="1"
     showguides="true"
     inkscape:guide-bbox="true" />
  <defs
     id="defs4" />
  <metadata
     id="metadata7">
    <rdf:RDF>
      <cc:Work
         rdf:about="">
        <dc:format>image/svg+xml</dc:format>
        <dc:type
           rdf:resource="http://purl.org/dc/dcmitype/StillImage" />
        <dc:title></dc:title>
      </cc:Work>
    </rdf:RDF>
  </metadata>
  <g
     inkscape:label="CardCutOut"
     inkscape:groupmode="layer"
     id="layer1"
     transform="translate(0,-751.1811)">
    <g
       style="opacity:1;filter:url(#filter4772)"
       id="g4243"
       transform="matrix(0.35277905,0,0,0.35277905,207.83966,733.02104)" />
  </g>
  <g
     style="display:inline;opacity:0.4"
     inkscape:groupmode="layer"
     id="layer3"
     inkscape:label="Lines">
    <path
       style="fill:#996f1c;fill-opacity:0.2961877;stroke:#ffffff;stroke-width:1.747136;stroke-linecap:round;stroke-linejoin:round;stroke-miterlimit:4;stroke-dasharray:none;stroke-opacity:1"
       d="m 40.535156,0.87304688 c -21.972354,0 -39.66210913,17.68975512 -39.66210912,39.66210912 l 0,220.111324 c -10e-9,21.97235 17.68975512,39.66016 39.66210912,39.66016 l 154.913244,0.17922 c 5.61309,0 4.79392,-6.40542 5.84066,-10.70461 0.79038,-3.24628 2.69014,-6.03125 6.03125,-6.03125 l 4.79102,0 c 3.34111,0 6.03125,2.69014 6.03125,6.03125 0,10.68494 3.18301,10.67656 12.37432,10.64449 13.85646,0.16958 16.83062,-9.96709 16.83062,-21.82088 0,-7.92732 -7.70165,-8.25525 -11.72579,-8.25525 -3.36783,-0.19482 -6.03125,-2.69013 -6.03125,-6.03125 l 0,-5.66602 c 0,-3.34112 2.00404,-5.75681 6.03125,-6.03125 0,0 12.36741,-0.13858 12.36741,-5.13907 L 247.1582,40.535156 c 0,-21.972354 -17.68975,-39.66210913 -39.66211,-39.66210912 z"
       id="rect4874"
       inkscape:connector-curvature="0"
       sodipodi:nodetypes="ssssccssccccsscccss" />
    <circle
       style="fill:none;fill-opacity:0.2961877;stroke:#ffffff;stroke-width:0.35433072;stroke-linecap:round;stroke-linejoin:round;stroke-miterlimit:4;stroke-dasharray:none;stroke-opacity:1"
       id="path7676"
       cx="51.936283"
       cy="50.942657"
       r="37.026344" />
    <circle
       style="fill:none;fill-opacity:0.2961877;stroke:#ffffff;stroke-width:0.36972654;stroke-linecap:round;stroke-linejoin:round;stroke-miterlimit:4;stroke-dasharray:none;stroke-opacity:1"
       id="path7681"
       cx="22.788528"
       cy="89.069199"
       r="10.79956" />
  </g>
  <g
     inkscape:groupmode="layer"
     id="layer2"
     inkscape:label="Graphics">
    <path
       style="fill:#996f1c;fill-opacity:0.2961877;stroke:#ffffff;stroke-width:1.0629921;stroke-linecap:round;stroke-linejoin:round;stroke-miterlimit:4;stroke-dasharray:none;stroke-opacity:1"
       d="m 81.246449,83.823574 0,208.560146"
       id="path4899"
       inkscape:connector-curvature="0"
       sodipodi:nodetypes="cc" />
  </g>
  <g
     inkscape:groupmode="layer"
     id="layer4"
     inkscape:label="slideSlot"
     style="display:inline" />
  <g
     inkscape:groupmode="layer"
     id="layer6"
     inkscape:label="SliderPuck"
     style="display:inline" />
  <g
     inkscape:groupmode="layer"
     id="layer5"
     inkscape:label="Slider"
     style="display:inline">
    <g
       id="g4818">
      <g
         id="g4810">
        <path
           style="display:inline;fill:none;fill-opacity:0.2961877;stroke:#ffffff;stroke-width:0.35433072;stroke-linecap:round;stroke-linejoin:round;stroke-miterlimit:4;stroke-dasharray:none;stroke-opacity:1"
           d="m 23.517578,154.29492 c -4.587061,0 -8.28125,3.68209 -8.28125,8.25586 l 0,4.375 a 14.700643,14.700643 0 0 0 -5.2539061,11.24219 14.700643,14.700643 0 0 0 5.2539061,11.26172 l 0,4.69336 c 0,4.57377 3.694189,8.25586 8.28125,8.25586 l 31.523438,0 c 4.587061,0 8.279296,-3.68209 8.279296,-8.25586 l 0,-2.4336 a 14.700643,14.700643 0 0 0 8.970704,-13.52148 14.700643,14.700643 0 0 0 -8.970704,-13.53711 l 0,-2.08008 c 0,-4.57377 -3.692235,-8.25586 -8.279296,-8.25586 l -31.523438,0 z"
           id="rect4932"
           inkscape:connector-curvature="0" />
        <g
           id="g4799"
           style="fill:none">
          <rect
             style="fill:none;fill-opacity:0.2961877;stroke:#ffffff;stroke-width:0.35433072;stroke-linecap:round;stroke-linejoin:round;stroke-miterlimit:4;stroke-dasharray:none;stroke-opacity:1"
             id="rect4924"
             width="48.083786"
             height="48.08379"
             x="15.237048"
             y="154.2953"
             rx="8.2798929"
             ry="8.2559052" />
          <rect
             ry="4.4291339"
             rx="4.4291339"
             y="161.16441"
             x="22.106159"
             height="34.345566"
             width="34.345562"
             id="rect4922"
             style="fill:none;fill-opacity:0.2961877;stroke:#ffffff;stroke-width:0.35433072;stroke-linecap:round;stroke-linejoin:round;stroke-miterlimit:4;stroke-dasharray:none;stroke-opacity:1" />
        </g>
      </g>
    </g>
    <rect
       style="fill:none;fill-opacity:0.2961877;stroke:#ffffff;stroke-width:0.35450655;stroke-linecap:round;stroke-linejoin:round;stroke-miterlimit:4;stroke-dasharray:none;stroke-opacity:1"
       id="rect4875"
       width="48.897461"
       height="147.60086"
       x="14.879367"
       y="104.37981"
       rx="8.2881193"
       ry="8.2559004" />
  </g>
  <g
     id="g4783">
    <path
       sodipodi:nodetypes="ccssscccssscccccccccccc"
       inkscape:connector-curvature="0"
       id="rect4152"
       d="m 81.126953,160.61523 0.02734,6.86329 -4.824219,0 c -2.29353,0 -4.140625,1.84709 -4.140625,4.14062 0,2.29353 1.847095,4.14063 4.140625,4.14063 l 4.857422,0 0.01758,4.81835 -0.152344,0 -4.83789,0 c -2.29353,0 -4.138672,1.84515 -4.138672,4.13868 0,2.29353 1.845142,4.14062 4.138672,4.14062 l 5.023437,0 0.02734,6.88477 c 1.428138,0.17585 2.045945,0.66 2.045945,-0.63283 -0.120762,-4.14849 3.684625,-8.44541 8.518509,-7.96962 2.042981,0.002 4.640461,1.446 6.033586,2.94032 1.213904,-1.34504 1.936537,-2.87011 2.347271,-4.53906 -4.051128,-0.0297 -7.319743,-3.32181 -7.32031,-7.37305 4.94e-4,-4.0452 2.822166,-6.99112 7.24218,-7.5918 -0.438713,-1.6373 -1.056254,-2.98134 -2.271094,-4.32422 -1.391981,1.49526 -3.988741,2.89592 -6.031633,2.89945 -4.85364,0.37005 -8.770081,-3.64311 -8.770081,-7.92484 0,-0.94066 -1.183473,-0.73447 -1.933039,-0.61131 z"
       style="fill:#996f1c;fill-opacity:0.2961877;stroke:#ffffff;stroke-width:0.35433072;stroke-linecap:round;stroke-linejoin:round;stroke-miterlimit:4;stroke-dasharray:none;stroke-opacity:1" />
    <path
       sodipodi:nodetypes="cscssccccccccccccccsscc"
       inkscape:connector-curvature="0"
       id="circle4201"
       d="m 101.09509,184.68248 c -0.42251,0.0516 -0.77892,0.0796 -1.141973,0.0796 l 0,-3e-5 c -3.75165,0 -6.792962,-2.99185 -6.792957,-6.68248 10e-7,-3.69063 3.041311,-6.68247 6.792957,-6.68247 0.320183,0 0.635183,0.0218 0.919643,0.0737 -0.66375,-2.49532 -1.705917,-4.63905 -3.183642,-6.38333 -6.45353,7.26146 -14.580471,1.27385 -14.048569,-5.23962 l 0,2e-5 c -1.121452,-0.14282 -1.72986,-0.13263 -2.62837,0.0122 l -0.19882,-0.0193 0,-5.65057 24.063441,0 0,48.32438 -24.063441,0 0,-6.12584 0.34355,0.12475 c 0.94131,0.14705 1.9073,0.22417 2.88989,0.22417 0.04411,3e-5 0.08812,-4e-5 0.141412,-0.0388 -0.09766,-0.53865 -0.153997,-1.05749 -0.153997,-1.58948 0,-4.0727 3.301581,-7.37427 7.374279,-7.37427 2.745024,0 5.13974,1.49985 6.432015,3.74466 1.617279,-1.84078 2.683162,-4.14287 3.254582,-6.79728"
       style="fill:#996f1c;fill-opacity:0.2961877;stroke:#ffffff;stroke-width:0.32373318;stroke-linecap:round;stroke-linejoin:round;stroke-miterlimit:4;stroke-dasharray:none;stroke-opacity:1" />
  </g>
  <g
     id="g4787"
     transform="translate(0,47.5)">
    <path
       style="fill:#996f1c;fill-opacity:0.2961877;stroke:#ffffff;stroke-width:0.35433072;stroke-linecap:round;stroke-linejoin:round;stroke-miterlimit:4;stroke-dasharray:none;stroke-opacity:1"
       d="m 81.126953,160.61523 0.02734,6.86329 -4.824219,0 c -2.29353,0 -4.140625,1.84709 -4.140625,4.14062 0,2.29353 1.847095,4.14063 4.140625,4.14063 l 4.857422,0 0.01758,4.81835 -0.152344,0 -4.83789,0 c -2.29353,0 -4.138672,1.84515 -4.138672,4.13868 0,2.29353 1.845142,4.14062 4.138672,4.14062 l 5.023437,0 0.02734,6.88477 c 1.428138,0.17585 2.045945,0.66 2.045945,-0.63283 -0.120762,-4.14849 3.684625,-8.44541 8.518509,-7.96962 2.042981,0.002 4.640461,1.446 6.033586,2.94032 1.213904,-1.34504 1.936537,-2.87011 2.347271,-4.53906 -4.051128,-0.0297 -7.319743,-3.32181 -7.32031,-7.37305 4.94e-4,-4.0452 2.822166,-6.99112 7.24218,-7.5918 -0.438713,-1.6373 -1.056254,-2.98134 -2.271094,-4.32422 -1.391981,1.49526 -3.988741,2.89592 -6.031633,2.89945 -4.85364,0.37005 -8.770081,-3.64311 -8.770081,-7.92484 0,-0.94066 -1.183473,-0.73447 -1.933039,-0.61131 z"
       id="path4789"
       inkscape:connector-curvature="0"
       sodipodi:nodetypes="ccssscccssscccccccccccc" />
    <path
       style="fill:#996f1c;fill-opacity:0.2961877;stroke:#ffffff;stroke-width:0.32373318;stroke-linecap:round;stroke-linejoin:round;stroke-miterlimit:4;stroke-dasharray:none;stroke-opacity:1"
       d="m 101.09509,184.68248 c -0.42251,0.0516 -0.77892,0.0796 -1.141973,0.0796 l 0,-3e-5 c -3.75165,0 -6.792962,-2.99185 -6.792957,-6.68248 10e-7,-3.69063 3.041311,-6.68247 6.792957,-6.68247 0.320183,0 0.635183,0.0218 0.919643,0.0737 -0.66375,-2.49532 -1.705917,-4.63905 -3.183642,-6.38333 -6.45353,7.26146 -14.580471,1.27385 -14.048569,-5.23962 l 0,2e-5 c -1.121452,-0.14282 -1.72986,-0.13263 -2.62837,0.0122 l -0.19882,-0.0193 0,-5.65057 24.063441,0 0,48.32438 -24.063441,0 0,-6.12584 0.34355,0.12475 c 0.94131,0.14705 1.9073,0.22417 2.88989,0.22417 0.04411,3e-5 0.08812,-4e-5 0.141412,-0.0388 -0.09766,-0.53865 -0.153997,-1.05749 -0.153997,-1.58948 0,-4.0727 3.301581,-7.37427 7.374279,-7.37427 2.745024,0 5.13974,1.49985 6.432015,3.74466 1.617279,-1.84078 2.683162,-4.14287 3.254582,-6.79728"
       id="path4791"
       inkscape:connector-curvature="0"
       sodipodi:nodetypes="cscssccccccccccccccsscc" />
  </g>
  <g
     transform="translate(0,-49)"
     id="g4793">
    <path
       sodipodi:nodetypes="ccssscccssscccccccccccc"
       inkscape:connector-curvature="0"
       id="path4795"
       d="m 81.126953,160.61523 0.02734,6.86329 -4.824219,0 c -2.29353,0 -4.140625,1.84709 -4.140625,4.14062 0,2.29353 1.847095,4.14063 4.140625,4.14063 l 4.857422,0 0.01758,4.81835 -0.152344,0 -4.83789,0 c -2.29353,0 -4.138672,1.84515 -4.138672,4.13868 0,2.29353 1.845142,4.14062 4.138672,4.14062 l 5.023437,0 0.02734,6.88477 c 1.428138,0.17585 2.045945,0.66 2.045945,-0.63283 -0.120762,-4.14849 3.684625,-8.44541 8.518509,-7.96962 2.042981,0.002 4.640461,1.446 6.033586,2.94032 1.213904,-1.34504 1.936537,-2.87011 2.347271,-4.53906 -4.051128,-0.0297 -7.319743,-3.32181 -7.32031,-7.37305 4.94e-4,-4.0452 2.822166,-6.99112 7.24218,-7.5918 -0.438713,-1.6373 -1.056254,-2.98134 -2.271094,-4.32422 -1.391981,1.49526 -3.988741,2.89592 -6.031633,2.89945 -4.85364,0.37005 -8.770081,-3.64311 -8.770081,-7.92484 0,-0.94066 -1.183473,-0.73447 -1.933039,-0.61131 z"
       style="fill:#996f1c;fill-opacity:0.2961877;stroke:#ffffff;stroke-width:0.35433072;stroke-linecap:round;stroke-linejoin:round;stroke-miterlimit:4;stroke-dasharray:none;stroke-opacity:1" />
    <path
       sodipodi:nodetypes="cscssccccccccccccccsscc"
       inkscape:connector-curvature="0"
       id="path4797"
       d="m 101.09509,184.68248 c -0.42251,0.0516 -0.77892,0.0796 -1.141973,0.0796 l 0,-3e-5 c -3.75165,0 -6.792962,-2.99185 -6.792957,-6.68248 10e-7,-3.69063 3.041311,-6.68247 6.792957,-6.68247 0.320183,0 0.635183,0.0218 0.919643,0.0737 -0.66375,-2.49532 -1.705917,-4.63905 -3.183642,-6.38333 -6.45353,7.26146 -14.580471,1.27385 -14.048569,-5.23962 l 0,2e-5 c -1.121452,-0.14282 -1.72986,-0.13263 -2.62837,0.0122 l -0.19882,-0.0193 0,-5.65057 24.063441,0 0,48.32438 -24.063441,0 0,-6.12584 0.34355,0.12475 c 0.94131,0.14705 1.9073,0.22417 2.88989,0.22417 0.04411,3e-5 0.08812,-4e-5 0.141412,-0.0388 -0.09766,-0.53865 -0.153997,-1.05749 -0.153997,-1.58948 0,-4.0727 3.301581,-7.37427 7.374279,-7.37427 2.745024,0 5.13974,1.49985 6.432015,3.74466 1.617279,-1.84078 2.683162,-4.14287 3.254582,-6.79728"
       style="fill:#996f1c;fill-opacity:0.2961877;stroke:#ffffff;stroke-width:0.32373318;stroke-linecap:round;stroke-linejoin:round;stroke-miterlimit:4;stroke-dasharray:none;stroke-opacity:1" />
  </g>
</svg>
