<?xml version="1.0" encoding="UTF-8" standalone="no"?>
<svg
   xmlns:dc="http://purl.org/dc/elements/1.1/"
   xmlns:cc="http://creativecommons.org/ns#"
   xmlns:rdf="http://www.w3.org/1999/02/22-rdf-syntax-ns#"
   xmlns:svg="http://www.w3.org/2000/svg"
   xmlns="http://www.w3.org/2000/svg"
   version="1.1"
   id="svg2"
   viewBox="0 0 1027.559 315.35433"
   height="89mm"
   width="290mm">
  <defs
     id="defs4" />
  <metadata
     id="metadata7">
    <rdf:RDF>
      <cc:Work
         rdf:about="">
        <dc:format>image/svg+xml</dc:format>
        <dc:type
           rdf:resource="http://purl.org/dc/dcmitype/StillImage" />
        <dc:title></dc:title>
      </cc:Work>
    </rdf:RDF>
  </metadata>
  <g
     transform="translate(0,-737.00787)"
     id="layer1">
    <path
       id="circle4154"
       d="m -0.05496633,738.77954 a 1.7166262,1.7166262 0 0 1 -1.71662617,1.71663 1.7166262,1.7166262 0 0 1 -1.7166262,-1.71663 1.7166262,1.7166262 0 0 1 1.7166262,-1.71663 1.7166262,1.7166262 0 0 1 1.71662617,1.71663 z"
       style="fill:none;fill-opacity:0.2961877;stroke:#000000;stroke-width:0.11005465;stroke-linecap:round;stroke-linejoin:round;stroke-miterlimit:4;stroke-dasharray:none;stroke-opacity:1"
       transform="scale(-1,1)" />
    <g
       id="g4847"
       transform="translate(517.32277,-7.0866182)">
      <path
         style="fill:none;fill-opacity:0.2961877;stroke:#000000;stroke-width:0.11005465;stroke-linecap:round;stroke-linejoin:round;stroke-miterlimit:4;stroke-dasharray:none;stroke-opacity:1"
         d="m -10.574874,1050.5906 a 1.7166262,1.7166262 0 0 0 1.7166266,1.7166 1.7166262,1.7166262 0 0 0 1.7166261,-1.7166 1.7166262,1.7166262 0 0 0 -1.7166261,-1.7166 1.7166262,1.7166262 0 0 0 -1.7166266,1.7166 z"
         id="path4152-3" />
      <path
         style="fill:none;fill-opacity:0.2961877;stroke:#000000;stroke-width:0.11005465;stroke-linecap:round;stroke-linejoin:round;stroke-miterlimit:4;stroke-dasharray:none;stroke-opacity:1"
         d="m -255.06306,752.95273 a 1.7166262,1.7166262 0 0 0 1.71663,1.71662 1.7166262,1.7166262 0 0 0 1.71662,-1.71662 1.7166262,1.7166262 0 0 0 -1.71662,-1.71663 1.7166262,1.7166262 0 0 0 -1.71663,1.71663 z"
         id="circle4154-4" />
    </g>
    <path
       style="fill:none;fill-opacity:0.2961877;stroke:#000000;stroke-width:0.35433072;stroke-linecap:round;stroke-linejoin:round;stroke-miterlimit:4;stroke-dasharray:none;stroke-opacity:1"
       d="m 214.49502,744.27273 c 4.04503,-10e-6 7.94635,0.59868 11.57813,1.73242 l -0.041,3.59765 c -0.0953,8.4948 -8.95313,8.30078 -8.95313,8.30078 l -169.08788,0 c -21.1938,0 -28.14393,14.73034 -30.41993,24.05274 l -10.0996,-0.20313 c 1.20209,-20.96318 18.44814,-37.48046 39.68554,-37.48046 l 167.33789,0 z m -198.02929,256.50397 0,14.0156 c 0,9.0611 10.03654,16.9351 23.91211,22.4531 2.45857,0.9777 1.5,7.2832 1.5,7.2832 -19.57088,-2.5963 -34.47266,-19.206 -34.47266,-39.4316 l 0,-4.3203 9.06055,0 z"
       id="path11489" />
    <path
       id="path4152-5"
       d="m 251.62979,1043.504 a 1.7166262,1.7166262 0 0 0 1.71663,1.7166 1.7166262,1.7166262 0 0 0 1.71662,-1.7166 1.7166262,1.7166262 0 0 0 -1.71662,-1.7166 1.7166262,1.7166262 0 0 0 -1.71663,1.7166 z"
       style="fill:none;fill-opacity:0.2961877;stroke:#000000;stroke-width:0.11005465;stroke-linecap:round;stroke-linejoin:round;stroke-miterlimit:4;stroke-dasharray:none;stroke-opacity:1" />
    <path
       id="circle4154-8"
       d="m 7.1416,745.86611 a 1.7166262,1.7166262 0 0 0 1.71663,1.71662 1.7166262,1.7166262 0 0 0 1.71662,-1.71662 1.7166262,1.7166262 0 0 0 -1.71662,-1.71663 1.7166262,1.7166262 0 0 0 -1.71663,1.71663 z"
       style="fill:none;fill-opacity:0.2961877;stroke:#000000;stroke-width:0.11005465;stroke-linecap:round;stroke-linejoin:round;stroke-miterlimit:4;stroke-dasharray:none;stroke-opacity:1" />
    <path
       style="fill:none;fill-opacity:0.2961877;stroke:#000000;stroke-width:0.11005465;stroke-linecap:round;stroke-linejoin:round;stroke-miterlimit:4;stroke-dasharray:none;stroke-opacity:1"
       d="m 1024.0707,1050.5906 a 1.7166262,1.7166262 0 0 0 1.7166,1.7166 1.7166262,1.7166262 0 0 0 1.7166,-1.7166 1.7166262,1.7166262 0 0 0 -1.7166,-1.7166 1.7166262,1.7166262 0 0 0 -1.7166,1.7166 z"
       id="path4152" />
    <path
       style="fill:none;fill-opacity:0.2961877;stroke:#000000;stroke-width:0.35544944;stroke-linecap:round;stroke-linejoin:round;stroke-miterlimit:4;stroke-dasharray:none;stroke-opacity:1"
       d="m 772.61854,991.87937 c 0,5.02079 12.39543,5.15989 12.39543,5.15989 4.03634,0.2755 6.04492,2.701 6.04492,6.05574 l 0,5.6889 c 0,3.3547 -2.66946,5.8601 -6.04492,6.0557 -4.03326,0 -12.25558,-0.066 -12.25558,11.2589 0,11.9018 2.75018,19.1093 16.63804,18.939 9.21214,0.032 10.18023,-1.9953 11.65826,-10.6876 0,-3.3546 4.17427,-6.0556 7.52296,-6.0556 l 4.80187,0 c 3.34868,0 5.25275,2.7962 6.04492,6.0556 1.04911,4.3166 0.22808,10.748 5.85389,10.748 l 155.26427,-0.18 c 22.0221,0 39.752,-17.7594 39.752,-39.8207 l 0,-221.0027 c 0,-22.06133 -17.7299,-39.82609 -39.752,-39.82272 l -167.70105,0.0257 c -15.6557,0.26381 -17.9319,5.62234 -17.79476,14.1926 l 0,119.29645 c 0,0 0.51278,16.9144 -11.6468,20.17284 -12.14364,3.25417 -10.61859,23.17843 -10.7592,23.21358 l -0.0605,33.61538 z"
       id="rect4874" />
    <path
       style="fill:none;fill-opacity:0.2961877;stroke:#000000;stroke-width:0.34313571;stroke-linecap:round;stroke-linejoin:round;stroke-miterlimit:4;stroke-dasharray:none;stroke-opacity:1"
       d="m 988.7541,863.69021 a 10.458354,10.458347 0 0 0 10.45836,10.45835 10.458354,10.458347 0 0 0 10.45834,-10.45835 10.458354,10.458347 0 0 0 -10.45834,-10.45836 10.458354,10.458347 0 0 0 -10.45836,10.45836 z"
       id="path7681" />
    <path
       style="display:inline;opacity:1;fill:none;fill-opacity:0.2961877;stroke:#000000;stroke-width:0.35433072;stroke-linecap:round;stroke-linejoin:round;stroke-miterlimit:4;stroke-dasharray:none;stroke-opacity:1"
       d="m 540.45843,937.28038 c 0,0 0.51285,-16.91467 -11.6468,-20.17284 -12.15965,-3.25817 -11.00109,-23.01615 -11.00109,-23.01615 l 0.005,-4.38295 0.51857,-105.61338 c 0,-22.06133 17.72984,-39.82272 39.75198,-39.82272 l 167.33906,0 c 22.02214,0 39.75197,17.76139 39.75197,39.82272 l 0,221.00264 c 0,22.0613 -17.72983,39.8207 -39.75197,39.8207 l -155.26427,0.18 c -5.62581,0 -4.80478,-6.4314 -5.85389,-10.748 -0.79217,-3.2594 -2.69624,-6.0556 -6.04492,-6.0556 l -4.80187,0 c -3.34869,0 -7.52296,2.701 -7.52296,6.0556 -1.47803,8.6923 -2.44612,10.7198 -11.65826,10.6876 -13.88786,0.1703 -16.63804,-7.0372 -16.63804,-18.939 0,-11.3251 8.22232,-11.2589 12.25558,-11.2589 3.37546,-0.1956 10.5655,-2.701 10.56377,-6.0882 z"
       id="path4139" />
    <path
       style="opacity:0.98009997;fill:none;fill-opacity:0.2961877;stroke:#000000;stroke-width:0.34313571;stroke-linecap:round;stroke-linejoin:round;stroke-miterlimit:4;stroke-dasharray:none;stroke-opacity:1"
       d="m 733.63653,863.69077 a 10.458354,10.458347 0 0 0 10.45835,10.45835 10.458354,10.458347 0 0 0 10.45836,-10.45835 10.458354,10.458347 0 0 0 -10.45836,-10.45836 10.458354,10.458347 0 0 0 -10.45835,10.45836 z"
       id="path7681-2" />
    <path
       id="path6245"
       d="m 487.24159,937.28038 c 0,0 -0.51285,-16.91467 11.64676,-20.17284 12.15961,-3.25817 11.00106,-23.01615 11.00106,-23.01615 l -0.005,-4.38295 -0.51857,-105.61338 c 0,-22.06133 -17.72979,-39.82272 -39.75186,-39.82272 l -167.33855,0 c -22.02207,0 -39.75186,17.76139 -39.75186,39.82272 l 0,221.00264 c 0,22.0613 17.72979,39.8207 39.75186,39.8207 l 155.2638,0.18 c 5.62579,0 4.80476,-6.4314 5.85387,-10.748 0.79217,-3.2594 2.69623,-6.0556 6.0449,-6.0556 l 4.80186,0 c 3.34868,0 7.52293,2.701 7.52293,6.0556 1.47803,8.6923 2.44612,10.7198 11.65823,10.6876 13.88782,0.1703 16.63799,-7.0372 16.63799,-18.939 0,-11.3251 -8.2223,-11.2589 -12.25555,-11.2589 -3.37545,-0.1956 -10.56546,-2.701 -10.56373,-6.0882 z"
       style="display:inline;opacity:1;fill:none;fill-opacity:0.2961877;stroke:#000000;stroke-width:0.35433072;stroke-linecap:round;stroke-linejoin:round;stroke-miterlimit:4;stroke-dasharray:none;stroke-opacity:1" />
    <path
       id="path6247"
       d="m 294.06407,863.69077 a 10.458322,10.458347 0 0 1 -10.45832,10.45835 10.458322,10.458347 0 0 1 -10.45832,-10.45835 10.458322,10.458347 0 0 1 10.45832,-10.45836 10.458322,10.458347 0 0 1 10.45832,10.45836 z"
       style="opacity:0.98009997;fill:none;fill-opacity:0.2961877;stroke:#000000;stroke-width:0.34313571;stroke-linecap:round;stroke-linejoin:round;stroke-miterlimit:4;stroke-dasharray:none;stroke-opacity:1" />
  </g>
</svg>
