<?xml version="1.0" encoding="UTF-8" standalone="no"?>
<svg
   xmlns:dc="http://purl.org/dc/elements/1.1/"
   xmlns:cc="http://creativecommons.org/ns#"
   xmlns:rdf="http://www.w3.org/1999/02/22-rdf-syntax-ns#"
   xmlns:svg="http://www.w3.org/2000/svg"
   xmlns="http://www.w3.org/2000/svg"
   width="70mm"
   height="70mm"
   viewBox="0 0 248.03151 248.03149"
   id="svg2"
   version="1.1">
  <defs
     id="defs4" />
  <metadata
     id="metadata7">
    <rdf:RDF>
      <cc:Work
         rdf:about="">
        <dc:format>image/svg+xml</dc:format>
        <dc:type
           rdf:resource="http://purl.org/dc/dcmitype/StillImage" />
        <dc:title></dc:title>
      </cc:Work>
    </rdf:RDF>
  </metadata>
  <g
     style="opacity:1"
     transform="translate(0,-804.33071)"
     id="layer1">
    <path
       id="path4210"
       d="m 22.993037,821.82654 c -3.727232,0 -10.965357,2.79492 -10.965357,27.42629 v 1.93184 c 0,4.65377 0.12506,4.93242 1.850636,6.25575 4.740999,2.73721 18.071147,-3.70535 18.071147,-12.73734 L 31.84824,825.34323 c 0,0 0.200843,-3.5031 -3.851252,-3.51665 z"
       style="fill:none;fill-rule:evenodd;stroke:#000000;stroke-width:0.32609031;stroke-linecap:butt;stroke-linejoin:miter;stroke-miterlimit:4;stroke-dasharray:none;stroke-opacity:1" />
    <path
       style="opacity:1;fill:none;fill-opacity:0.2961877;stroke:#000000;stroke-width:0.35686773;stroke-linecap:round;stroke-linejoin:round;stroke-miterlimit:4;stroke-dasharray:none;stroke-opacity:1"
       d="m 0.62088377,852.56965 c 3.79360093,0.21187 7.45513563,0.45648 10.99457423,0.7371 m 14.519984,1.44122 c 32.36376,3.94119 53.767411,12.02522 74.434938,27.62433 m 70.8919,85.8608 c 17.48087,21.14185 33.8914,37.8318 60.12475,51.9033"
       id="path4164" />
    <path
       style="opacity:1;fill:none;fill-opacity:0.2961877;stroke:#000000;stroke-width:0.35686773;stroke-linecap:round;stroke-linejoin:round;stroke-miterlimit:4;stroke-dasharray:none;stroke-opacity:1"
       d="M 0.18121095,898.38226 C 27.64276,894.53688 50.786771,891.49263 79.219907,899.32884 m 100.314583,53.53313 c 24.32963,13.8847 42.00565,20.9362 59.08432,22.60789"
       id="path4182" />
    <path
       style="opacity:1;fill:none;fill-opacity:0.2961877;stroke:#000000;stroke-width:0.35686773;stroke-linecap:round;stroke-linejoin:round;stroke-miterlimit:4;stroke-dasharray:none;stroke-opacity:1"
       d="M 0.51280538,872.48176 C 39.170854,870.66918 64.527414,875.34481 86.647679,886.16725 m 86.889141,74.14641 c 27.56225,22.84742 54.10573,34.69732 72.71871,42.79714"
       id="path4186" />
    <path
       id="ellipse5539"
       d="m 116.28751,936.37683 a 13.806692,13.770217 0 0 1 -13.80669,13.77022 13.806692,13.770217 0 0 1 -13.806692,-13.77022 13.806692,13.770217 0 0 1 13.806692,-13.77022 13.806692,13.770217 0 0 1 13.80669,13.77022 z"
       style="fill:none;stroke:#000000;stroke-width:0.35686773;stroke-linejoin:round;stroke-miterlimit:4;stroke-dasharray:none;stroke-opacity:1" />
    <path
       id="ellipse5541"
       d="m 159.79346,936.37683 a 13.806692,13.770217 0 0 1 -13.80669,13.77022 13.806692,13.770217 0 0 1 -13.80669,-13.77022 13.806692,13.770217 0 0 1 13.80669,-13.77022 13.806692,13.770217 0 0 1 13.80669,13.77022 z"
       style="fill:none;stroke:#000000;stroke-width:0.35686773;stroke-linejoin:round;stroke-miterlimit:4;stroke-dasharray:none;stroke-opacity:1" />
    <path
       id="ellipse5543"
       d="m 176.67214,935.18164 a 52.536758,52.397968 0 0 1 -52.53676,52.39797 52.536758,52.397968 0 0 1 -52.536755,-52.39797 52.536758,52.397968 0 0 1 52.536755,-52.39797 52.536758,52.397968 0 0 1 52.53676,52.39797 z"
       style="fill:none;stroke:#000000;stroke-width:0.35686773;stroke-linejoin:round;stroke-miterlimit:4;stroke-dasharray:none;stroke-opacity:1" />
    <path
       id="ellipse4255"
       d="m 116.28751,936.37683 a 13.806692,13.770217 0 0 1 -13.80669,13.77022 13.806692,13.770217 0 0 1 -13.806692,-13.77022 13.806692,13.770217 0 0 1 13.806692,-13.77022 13.806692,13.770217 0 0 1 13.80669,13.77022 z"
       style="fill:none;stroke:#000000;stroke-width:0.35686773;stroke-linejoin:round;stroke-miterlimit:4;stroke-dasharray:none;stroke-opacity:1" />
    <path
       id="ellipse4257"
       d="m 159.79346,936.37683 a 13.806692,13.770217 0 0 1 -13.80669,13.77022 13.806692,13.770217 0 0 1 -13.80669,-13.77022 13.806692,13.770217 0 0 1 13.80669,-13.77022 13.806692,13.770217 0 0 1 13.80669,13.77022 z"
       style="fill:none;stroke:#000000;stroke-width:0.35686773;stroke-linejoin:round;stroke-miterlimit:4;stroke-dasharray:none;stroke-opacity:1" />
    <path
       id="ellipse4259"
       d="m 176.67214,935.18164 a 52.536758,52.397968 0 0 1 -52.53676,52.39797 52.536758,52.397968 0 0 1 -52.536755,-52.39797 52.536758,52.397968 0 0 1 52.536755,-52.39797 52.536758,52.397968 0 0 1 52.53676,52.39797 z"
       style="fill:none;stroke:#000000;stroke-width:0.35686773;stroke-linejoin:round;stroke-miterlimit:4;stroke-dasharray:none;stroke-opacity:1" />
    <path
       id="rect881"
       d="m 230.17702,889.94891 c 0.25018,-6.30132 -0.4611,-11.08636 3.49497,-13.3704 2.49383,-1.43981 4.84481,-2.66211 4.91451,-2.70231 7.75109,-4.47509 9.24181,-7.85163 9.25463,-34.48174 0.0128,-19.05221 -15.82498,-34.89003 -35.4973,-34.89003 l -176.658109,0.002 c -19.672322,0 -35.50817297,15.83782 -35.50817297,35.51014 v 176.65613 c 0,19.6723 15.83585097,35.5102 35.50817297,35.5102 h 167.697379 1.05305 c 2.90838,-3.0643 0.19333,-18.6263 9.1819,-19.7574 8.77205,-0.8325 6.45957,19.317 13.63291,19.317 16.66606,-0.2525 20.1391,-5.2248 20.1391,-19.6811 0,-7.4111 -16.51802,-7.0589 -16.51802,-15.1166 0,-7.1018 16.51775,-6.0734 16.74899,-11.1333 l 0.0328,-17.18042 c 0,-8.12923 -3.52843,-10.58296 -8.30218,-13.33908 -0.0697,-0.0402 -3.18588,-1.2625 -5.67971,-2.70231 -3.95607,-2.28404 -3.24479,-7.06908 -3.49497,-13.3704 -0.1323,-3.33213 -0.11454,-34.63519 -0.11454,-34.63519 0,0 -0.0177,-31.30306 0.11459,-34.63519 z"
       style="fill:none;fill-opacity:0;stroke:#000000;stroke-width:0.35433072;stroke-miterlimit:4;stroke-dasharray:none;stroke-opacity:1" />
  </g>
  <g
     transform="translate(0,-3.8582677e-5)"
     id="layer3">
    <path
       id="path13036"
       style="fill:none;stroke:#000000;stroke-width:0.20732725"
       d="" />
    <path
       d=""
       style="fill:none;stroke:#000000;stroke-width:0.26252338"
       id="path4251" />
    <path
       d=""
       style="fill:none;stroke:#000000;stroke-width:0.26252338"
       id="path4255" />
    <path
       d=""
       style="fill:none;stroke:#000000;stroke-width:0.26252338"
       id="path4265" />
    <path
       d=""
       style="fill:none;stroke:#000000;stroke-width:0.26252338"
       id="path4269" />
    <path
       id="path4369"
       style="fill:none;stroke:#000000;stroke-width:0.26892704"
       d="" />
    <path
       id="path4373"
       style="fill:none;stroke:#000000;stroke-width:0.26892704"
       d="" />
    <path
       id="path4383"
       style="fill:none;stroke:#000000;stroke-width:0.26892704"
       d="" />
    <path
       id="path4387"
       style="fill:none;stroke:#000000;stroke-width:0.26892704"
       d="" />
    <path
       d=""
       style="fill:none;stroke:#000000;stroke-width:0.41828161"
       id="path6267" />
    <path
       d=""
       style="fill:none;stroke:#000000;stroke-width:0.41828161"
       id="path6287" />
    <path
       d=""
       style="fill:none;stroke:#000000;stroke-width:0.41828161"
       id="path6295" />
  </g>
  <g
     transform="translate(0,-3.8582677e-5)"
     id="layer6" />
  <g
     transform="translate(0,-3.8582677e-5)"
     id="layer4">
    <path
       id="path7559"
       style="fill:none;stroke:#000000;stroke-width:0.92052549"
       d="" />
    <path
       id="path7565"
       style="fill:none;stroke:#000000;stroke-width:0.92052549"
       d="" />
    <path
       id="path7579"
       style="fill:none;stroke:#000000;stroke-width:0.92052549"
       d="" />
    <path
       d=""
       style="fill:none;stroke:#000000;stroke-width:0.34588146"
       id="path8694" />
    <path
       d=""
       style="fill:none;stroke:#000000;stroke-width:0.34588146"
       id="path8700" />
    <path
       id="path9252"
       style="fill:none;stroke:#000000;stroke-width:0.35277364"
       d="" />
    <path
       id="path9264"
       style="fill:none;stroke:#000000;stroke-width:0.35277364"
       d="" />
    <path
       d=""
       style="fill:none;stroke:#000000;stroke-width:0.30689958"
       id="path9834" />
    <path
       d=""
       style="fill:none;stroke:#000000;stroke-width:1.21444738"
       id="path4314" />
    <path
       d=""
       style="fill:none;stroke:#000000;stroke-width:1.21444738"
       id="path4324" />
    <path
       d=""
       style="fill:none;stroke:#000000;stroke-width:1.21444738"
       id="path4332" />
    <path
       d=""
       style="fill:none;stroke:#000000;stroke-width:1.21444738"
       id="path4586" />
    <path
       d=""
       style="fill:none;stroke:#000000;stroke-width:1.21444738"
       id="path4604-3" />
  </g>
  <path
     id="path9541"
     d="m 3.4797527,246.25986 a 1.708099,1.708099 0 0 1 -1.708099,1.7081 1.708099,1.708099 0 0 1 -1.70809906,-1.7081 1.708099,1.708099 0 0 1 1.70809906,-1.7081 1.708099,1.708099 0 0 1 1.708099,1.7081 z"
     style="opacity:0.4655;fill:none;fill-opacity:0;stroke:#000000;stroke-width:0.12710918;stroke-miterlimit:3.98765421;stroke-dasharray:none;stroke-opacity:1" />
  <path
     id="circle9543"
     d="m -244.55176,1.7716547 a 1.708099,1.708099 0 0 1 -1.7081,1.708099 1.708099,1.708099 0 0 1 -1.7081,-1.708099 1.708099,1.708099 0 0 1 1.7081,-1.70809898 1.708099,1.708099 0 0 1 1.7081,1.70809898 z"
     style="opacity:0.4655;fill:none;fill-opacity:0;stroke:#000000;stroke-width:0.12710918;stroke-miterlimit:3.98765421;stroke-dasharray:none;stroke-opacity:1"
     transform="scale(-1,1)" />
</svg>
