<?xml version="1.0" encoding="UTF-8" standalone="no"?>
<svg
   xmlns:dc="http://purl.org/dc/elements/1.1/"
   xmlns:cc="http://creativecommons.org/ns#"
   xmlns:rdf="http://www.w3.org/1999/02/22-rdf-syntax-ns#"
   xmlns:svg="http://www.w3.org/2000/svg"
   xmlns="http://www.w3.org/2000/svg"
   xmlns:sodipodi="http://sodipodi.sourceforge.net/DTD/sodipodi-0.dtd"
   xmlns:inkscape="http://www.inkscape.org/namespaces/inkscape"
   version="1.1"
   id="svg2"
   viewBox="0 0 2048.0312 623.62204"
   height="176mm"
   width="578mm"
   inkscape:version="0.91 r13725"
   sodipodi:docname="Cut2.svg">
  <sodipodi:namedview
     pagecolor="#ffffff"
     bordercolor="#666666"
     borderopacity="1"
     objecttolerance="10"
     gridtolerance="10"
     guidetolerance="10"
     inkscape:pageopacity="0"
     inkscape:pageshadow="2"
     inkscape:window-width="927"
     inkscape:window-height="480"
     id="namedview51"
     showgrid="false"
     inkscape:zoom="0.17577855"
     inkscape:cx="1024.0157"
     inkscape:cy="311.81102"
     inkscape:window-x="0"
     inkscape:window-y="1"
     inkscape:window-maximized="0"
     inkscape:current-layer="svg2" />
  <defs
     id="defs4" />
  <metadata
     id="metadata7">
    <rdf:RDF>
      <cc:Work
         rdf:about="">
        <dc:format>image/svg+xml</dc:format>
        <dc:type
           rdf:resource="http://purl.org/dc/dcmitype/StillImage" />
        <dc:title></dc:title>
      </cc:Work>
    </rdf:RDF>
  </metadata>
  <path
     inkscape:connector-curvature="0"
     id="rect4874"
     d="m 262.24137,563.13918 c 0,5.02079 12.39543,5.15989 12.39543,5.15989 4.03634,0.2755 6.04492,2.701 6.04492,6.05567 l 0,5.6889 c 0,3.3547 -2.66946,5.8601 -6.04492,6.0557 -4.03326,0 -12.25558,-0.066 -12.25558,11.2589 0,11.9018 2.75018,19.1093 16.63804,18.939 9.21214,0.032 10.18023,-1.9953 11.65826,-10.6876 0,-3.3546 4.17427,-6.0556 7.52296,-6.0556 l 4.80187,0 c 3.34868,0 5.25275,2.7962 6.04492,6.0556 1.04911,4.3166 0.22808,10.748 5.85389,10.748 l 155.26427,-0.18 c 22.02214,0 39.75197,-17.7594 39.75197,-39.8207 l 0,-221.00263 c 0,-22.06133 -17.72983,-39.82609 -39.75197,-39.82272 l -167.70105,0.0257 c -15.6557,0.26381 -17.9319,5.62234 -17.79476,14.1926 l 0,119.29645 c 0,0 0.51278,16.9144 -11.6468,20.17284 -12.14364,3.25417 -10.61859,23.17843 -10.7592,23.21358 l -0.0605,33.61538 z"
     style="fill:none;fill-opacity:0.2961877;stroke:#000000;stroke-width:0.35544944;stroke-linecap:round;stroke-linejoin:round;stroke-miterlimit:4;stroke-dasharray:none;stroke-opacity:1" />
  <path
     inkscape:connector-curvature="0"
     id="path7681"
     d="m 478.37693,434.95002 a 10.458354,10.458347 0 0 0 10.45836,10.45835 10.458354,10.458347 0 0 0 10.45835,-10.45835 10.458354,10.458347 0 0 0 -10.45835,-10.45836 10.458354,10.458347 0 0 0 -10.45836,10.45836 z"
     style="fill:none;fill-opacity:0.2961877;stroke:#000000;stroke-width:0.34313571;stroke-linecap:round;stroke-linejoin:round;stroke-miterlimit:4;stroke-dasharray:none;stroke-opacity:1" />
  <path
     inkscape:connector-curvature="0"
     id="path4139"
     d="m 30.08121,508.54019 c 0,0 0.51285,-16.91467 -11.6468,-20.17284 C 6.27476,485.10918 7.43332,465.3512 7.43332,465.3512 l 0.005,-4.38295 0.51857,-105.61338 c 0,-22.06133 17.72984,-39.82272 39.75198,-39.82272 l 167.33905,0 c 22.02214,0 39.75198,17.76139 39.75198,39.82272 l 0,221.00267 c 0,22.0613 -17.72984,39.8207 -39.75198,39.8207 l -155.26426,0.18 c -5.62581,0 -4.80478,-6.4314 -5.85389,-10.748 -0.79217,-3.2594 -2.69624,-6.0556 -6.04492,-6.0556 l -4.80187,0 c -3.34869,0 -7.52296,2.701 -7.52296,6.0556 -1.47803,8.6923 -2.44612,10.7198 -11.65826,10.6876 -13.88786,0.1703 -16.63804,-7.0372 -16.63804,-18.939 0,-11.3251 8.22232,-11.2589 12.25558,-11.2589 3.37546,-0.1956 10.5655,-2.701 10.56377,-6.0882 z"
     style="display:inline;opacity:1;fill:none;fill-opacity:0.2961877;stroke:#000000;stroke-width:0.35433072;stroke-linecap:round;stroke-linejoin:round;stroke-miterlimit:4;stroke-dasharray:none;stroke-opacity:1" />
  <path
     inkscape:connector-curvature="0"
     id="path7681-2"
     d="m 223.25931,434.95058 a 10.458354,10.458347 0 0 0 10.45835,10.45835 10.458354,10.458347 0 0 0 10.45836,-10.45835 10.458354,10.458347 0 0 0 -10.45836,-10.45836 10.458354,10.458347 0 0 0 -10.45835,10.45836 z"
     style="opacity:0.98009997;fill:none;fill-opacity:0.2961877;stroke:#000000;stroke-width:0.34313571;stroke-linecap:round;stroke-linejoin:round;stroke-miterlimit:4;stroke-dasharray:none;stroke-opacity:1" />
  <path
     inkscape:connector-curvature="0"
     style="fill:none;fill-opacity:0.2961877;stroke:#000000;stroke-width:0.39385468;stroke-linecap:round;stroke-linejoin:round;stroke-miterlimit:4;stroke-dasharray:none;stroke-opacity:1"
     d="m 510.03923,317.12593 a 1.5747262,1.5747262 0 0 1 -1.57472,1.57473 1.5747262,1.5747262 0 0 1 -1.57473,-1.57473 1.5747262,1.5747262 0 0 1 1.57473,-1.57473 1.5747262,1.5747262 0 0 1 1.57472,1.57473 z"
     id="path4161" />
  <path
     inkscape:connector-curvature="0"
     style="fill:none;fill-opacity:0.2961877;stroke:#000000;stroke-width:0.39385468;stroke-linecap:round;stroke-linejoin:round;stroke-miterlimit:4;stroke-dasharray:none;stroke-opacity:1"
     d="m 3.3462577,621.85044 a 1.5747262,1.5747262 0 0 1 -1.5747262,1.5747 1.5747262,1.5747262 0 0 1 -1.57472626,-1.5747 1.5747262,1.5747262 0 0 1 1.57472626,-1.5748 1.5747262,1.5747262 0 0 1 1.5747262,1.5748 z"
     id="circle4163" />
  <path
     inkscape:connector-curvature="0"
     style="fill:none;fill-opacity:0.2961877;stroke:#000000;stroke-width:0.35544944;stroke-linecap:round;stroke-linejoin:round;stroke-miterlimit:4;stroke-dasharray:none;stroke-opacity:1"
     d="m 772.47754,563.13918 c 0,5.02079 12.39543,5.15989 12.39543,5.15989 4.03634,0.2755 6.04492,2.701 6.04492,6.05567 l 0,5.6889 c 0,3.3547 -2.66946,5.8601 -6.04492,6.0557 -4.03326,0 -12.25558,-0.066 -12.25558,11.2589 0,11.9018 2.75018,19.1093 16.63804,18.939 9.21214,0.032 10.18023,-1.9953 11.65826,-10.6876 0,-3.3546 4.17427,-6.0556 7.52296,-6.0556 l 4.80187,0 c 3.34868,0 5.25275,2.7962 6.04492,6.0556 1.04911,4.3166 0.22808,10.748 5.85389,10.748 l 155.26427,-0.18 c 22.0221,0 39.752,-17.7594 39.752,-39.8207 l 0,-221.00263 c 0,-22.06133 -17.7299,-39.82609 -39.752,-39.82272 l -167.70105,0.0257 c -15.6557,0.26381 -17.9319,5.62234 -17.79476,14.1926 l 0,119.29645 c 0,0 0.51278,16.9144 -11.6468,20.17284 -12.14364,3.25417 -10.61859,23.17843 -10.7592,23.21358 l -0.0605,33.61538 z"
     id="path4147" />
  <path
     inkscape:connector-curvature="0"
     style="fill:none;fill-opacity:0.2961877;stroke:#000000;stroke-width:0.34313571;stroke-linecap:round;stroke-linejoin:round;stroke-miterlimit:4;stroke-dasharray:none;stroke-opacity:1"
     d="m 988.6131,434.95002 a 10.458354,10.458347 0 0 0 10.45836,10.45835 10.458354,10.458347 0 0 0 10.45834,-10.45835 10.458354,10.458347 0 0 0 -10.45834,-10.45836 10.458354,10.458347 0 0 0 -10.45836,10.45836 z"
     id="path4149" />
  <path
     inkscape:connector-curvature="0"
     style="display:inline;opacity:1;fill:none;fill-opacity:0.2961877;stroke:#000000;stroke-width:0.35433072;stroke-linecap:round;stroke-linejoin:round;stroke-miterlimit:4;stroke-dasharray:none;stroke-opacity:1"
     d="m 540.31738,508.54019 c 0,0 0.51285,-16.91467 -11.6468,-20.17284 -12.15965,-3.25817 -11.00109,-23.01615 -11.00109,-23.01615 l 0.005,-4.38295 0.51857,-105.61338 c 0,-22.06133 17.72984,-39.82272 39.75198,-39.82272 l 167.33905,0 c 22.02215,0 39.75198,17.76139 39.75198,39.82272 l 0,221.00267 c 0,22.0613 -17.72983,39.8207 -39.75198,39.8207 l -155.26426,0.18 c -5.62581,0 -4.80478,-6.4314 -5.85389,-10.748 -0.79217,-3.2594 -2.69624,-6.0556 -6.04492,-6.0556 l -4.80187,0 c -3.34869,0 -7.52296,2.701 -7.52296,6.0556 -1.47803,8.6923 -2.44612,10.7198 -11.65826,10.6876 -13.88786,0.1703 -16.63804,-7.0372 -16.63804,-18.939 0,-11.3251 8.22232,-11.2589 12.25558,-11.2589 3.37546,-0.1956 10.5655,-2.701 10.56377,-6.0882 z"
     id="path4153" />
  <path
     inkscape:connector-curvature="0"
     style="opacity:0.98009997;fill:none;fill-opacity:0.2961877;stroke:#000000;stroke-width:0.34313571;stroke-linecap:round;stroke-linejoin:round;stroke-miterlimit:4;stroke-dasharray:none;stroke-opacity:1"
     d="m 733.49548,434.95058 a 10.458354,10.458347 0 0 0 10.45835,10.45835 10.458354,10.458347 0 0 0 10.45836,-10.45835 10.458354,10.458347 0 0 0 -10.45836,-10.45836 10.458354,10.458347 0 0 0 -10.45835,10.45836 z"
     id="path4155" />
  <path
     inkscape:connector-curvature="0"
     style="fill:none;fill-opacity:0.2961877;stroke:#000000;stroke-width:0.39385468;stroke-linecap:round;stroke-linejoin:round;stroke-miterlimit:4;stroke-dasharray:none;stroke-opacity:1"
     d="m 520.66909,614.76374 a 1.5747262,1.5747262 0 0 1 -1.57473,1.5747 1.5747262,1.5747262 0 0 1 -1.57473,-1.5747 1.5747262,1.5747262 0 0 1 1.57473,-1.5747 1.5747262,1.5747262 0 0 1 1.57473,1.5747 z"
     id="circle4161" />
  <path
     inkscape:connector-curvature="0"
     style="fill:none;fill-opacity:0.2961877;stroke:#000000;stroke-width:0.35544944;stroke-linecap:round;stroke-linejoin:round;stroke-miterlimit:4;stroke-dasharray:none;stroke-opacity:1"
     d="m 262.2415,254.87146 c 0,5.02079 12.39543,5.15989 12.39543,5.15989 4.03634,0.2755 6.04492,2.701 6.04492,6.0557 l 0,5.6889 c 0,3.3547 -2.66946,5.8601 -6.04492,6.0557 -4.03326,0 -12.25558,-0.066 -12.25558,11.2589 0,11.9018 2.75018,19.1093 16.63804,18.939 9.21214,0.032 10.18023,-1.9953 11.65826,-10.6876 0,-3.3546 4.17427,-6.0556 7.52296,-6.0556 l 4.80187,0 c 3.34868,0 5.25275,2.7962 6.04492,6.0556 1.04911,4.3166 0.22808,10.748 5.85389,10.748 l 155.26427,-0.18 c 22.02214,0 39.75197,-17.7594 39.75197,-39.8207 l 0,-221.00266 c 0,-22.06133 -17.72983,-39.82609 -39.75197,-39.82272 l -167.70105,0.0257 c -15.6557,0.26381 -17.9319,5.62234 -17.79476,14.1926 l 0,119.29645 c 0,0 0.51278,16.9144 -11.6468,20.17284 -12.14364,3.25417 -10.61859,23.17843 -10.7592,23.21358 l -0.0605,33.61538 z"
     id="path4168" />
  <path
     inkscape:connector-curvature="0"
     style="fill:none;fill-opacity:0.2961877;stroke:#000000;stroke-width:0.34313571;stroke-linecap:round;stroke-linejoin:round;stroke-miterlimit:4;stroke-dasharray:none;stroke-opacity:1"
     d="m 478.37706,126.6823 a 10.458354,10.458347 0 0 0 10.45836,10.45835 10.458354,10.458347 0 0 0 10.45835,-10.45835 10.458354,10.458347 0 0 0 -10.45835,-10.45836 10.458354,10.458347 0 0 0 -10.45836,10.45836 z"
     id="path4170" />
  <path
     inkscape:connector-curvature="0"
     style="display:inline;opacity:1;fill:none;fill-opacity:0.2961877;stroke:#000000;stroke-width:0.35433072;stroke-linecap:round;stroke-linejoin:round;stroke-miterlimit:4;stroke-dasharray:none;stroke-opacity:1"
     d="m 30.08127,200.27247 c 0,0 0.51285,-16.91467 -11.6468,-20.17284 C 6.27482,176.84146 7.43338,157.08348 7.43338,157.08348 l 0.005,-4.38295 0.51857,-105.61338 c 0,-22.06133 17.72984,-39.82272 39.75198,-39.82272 l 167.33905,0 c 22.02215,0 39.75198,17.76139 39.75198,39.82272 l 0,221.00266 c 0,22.0613 -17.72983,39.8207 -39.75198,39.8207 l -155.26426,0.18 c -5.62581,0 -4.80478,-6.4314 -5.85389,-10.748 -0.79217,-3.2594 -2.69624,-6.0556 -6.04492,-6.0556 l -4.80187,0 c -3.34869,0 -7.52296,2.701 -7.52296,6.0556 -1.47803,8.6923 -2.44612,10.7198 -11.65826,10.6876 -13.88786,0.1703 -16.63804,-7.0372 -16.63804,-18.939 0,-11.3251 8.22232,-11.2589 12.25558,-11.2589 3.37546,-0.1956 10.5655,-2.701 10.56377,-6.0882 z"
     id="path4174" />
  <path
     inkscape:connector-curvature="0"
     style="opacity:0.98009997;fill:none;fill-opacity:0.2961877;stroke:#000000;stroke-width:0.34313571;stroke-linecap:round;stroke-linejoin:round;stroke-miterlimit:4;stroke-dasharray:none;stroke-opacity:1"
     d="m 223.25937,126.68286 a 10.458354,10.458347 0 0 0 10.45835,10.45835 10.458354,10.458347 0 0 0 10.45836,-10.45835 10.458354,10.458347 0 0 0 -10.45836,-10.45836 10.458354,10.458347 0 0 0 -10.45835,10.45836 z"
     id="path4176" />
  <path
     inkscape:connector-curvature="0"
     style="fill:none;fill-opacity:0.2961877;stroke:#000000;stroke-width:0.39385468;stroke-linecap:round;stroke-linejoin:round;stroke-miterlimit:4;stroke-dasharray:none;stroke-opacity:1"
     d="m 510.0393,8.8582 a 1.5747262,1.5747262 0 0 1 -1.57473,1.57472 1.5747262,1.5747262 0 0 1 -1.57473,-1.57472 1.5747262,1.5747262 0 0 1 1.57473,-1.57473 1.5747262,1.5747262 0 0 1 1.57473,1.57473 z"
     id="circle4180" />
  <path
     inkscape:connector-curvature="0"
     style="fill:none;fill-opacity:0.2961877;stroke:#000000;stroke-width:0.39385468;stroke-linecap:round;stroke-linejoin:round;stroke-miterlimit:4;stroke-dasharray:none;stroke-opacity:1"
     d="m 10.432993,306.49605 a 1.5747262,1.5747262 0 0 1 -1.5747262,1.57472 1.5747262,1.5747262 0 0 1 -1.5747262,-1.57472 1.5747262,1.5747262 0 0 1 1.5747262,-1.57473 1.5747262,1.5747262 0 0 1 1.5747262,1.57473 z"
     id="circle4182" />
  <path
     inkscape:connector-curvature="0"
     id="path4188"
     d="m 772.47764,254.87146 c 0,5.02079 12.39543,5.15989 12.39543,5.15989 4.03634,0.2755 6.04492,2.701 6.04492,6.0557 l 0,5.6889 c 0,3.3547 -2.66946,5.8601 -6.04492,6.0557 -4.03326,0 -12.25558,-0.066 -12.25558,11.2589 0,11.9018 2.75018,19.1093 16.63804,18.939 9.21214,0.032 10.18023,-1.9953 11.65826,-10.6876 0,-3.3546 4.17427,-6.0556 7.52296,-6.0556 l 4.80187,0 c 3.34868,0 5.25275,2.7962 6.04492,6.0556 1.04911,4.3166 0.22808,10.748 5.85389,10.748 l 155.26427,-0.18 c 22.0221,0 39.752,-17.7594 39.752,-39.8207 l 0,-221.00266 c 0,-22.06133 -17.7299,-39.82609 -39.752,-39.82272 l -167.70105,0.0257 c -15.6557,0.26381 -17.9319,5.62234 -17.79476,14.1926 l 0,119.29645 c 0,0 0.51278,16.9144 -11.6468,20.17284 -12.14364,3.25417 -10.61859,23.17843 -10.7592,23.21358 l -0.0605,33.61538 z"
     style="fill:none;fill-opacity:0.2961877;stroke:#000000;stroke-width:0.35544944;stroke-linecap:round;stroke-linejoin:round;stroke-miterlimit:4;stroke-dasharray:none;stroke-opacity:1" />
  <path
     inkscape:connector-curvature="0"
     id="path4190"
     d="m 988.6132,126.6823 a 10.458354,10.458347 0 0 0 10.45836,10.45835 10.458354,10.458347 0 0 0 10.45834,-10.45835 10.458354,10.458347 0 0 0 -10.45834,-10.45836 10.458354,10.458347 0 0 0 -10.45836,10.45836 z"
     style="fill:none;fill-opacity:0.2961877;stroke:#000000;stroke-width:0.34313571;stroke-linecap:round;stroke-linejoin:round;stroke-miterlimit:4;stroke-dasharray:none;stroke-opacity:1" />
  <path
     inkscape:connector-curvature="0"
     id="path4194"
     d="m 540.31747,200.27247 c 0,0 0.51285,-16.91467 -11.6468,-20.17284 -12.15965,-3.25817 -11.00109,-23.01615 -11.00109,-23.01615 l 0.005,-4.38295 0.51857,-105.61338 c 0,-22.06133 17.72984,-39.82272 39.75198,-39.82272 l 167.33905,0 c 22.02215,0 39.75198,17.76139 39.75198,39.82272 l 0,221.00266 c 0,22.0613 -17.72983,39.8207 -39.75198,39.8207 l -155.26426,0.18 c -5.62581,0 -4.80478,-6.4314 -5.85389,-10.748 -0.79217,-3.2594 -2.69624,-6.0556 -6.04492,-6.0556 l -4.80187,0 c -3.34869,0 -7.52296,2.701 -7.52296,6.0556 -1.47803,8.6923 -2.44612,10.7198 -11.65826,10.6876 -13.88786,0.1703 -16.63804,-7.0372 -16.63804,-18.939 0,-11.3251 8.22232,-11.2589 12.25558,-11.2589 3.37546,-0.1956 10.5655,-2.701 10.56377,-6.0882 z"
     style="display:inline;opacity:1;fill:none;fill-opacity:0.2961877;stroke:#000000;stroke-width:0.35433072;stroke-linecap:round;stroke-linejoin:round;stroke-miterlimit:4;stroke-dasharray:none;stroke-opacity:1" />
  <path
     inkscape:connector-curvature="0"
     id="path4196"
     d="m 733.49557,126.68286 a 10.458354,10.458347 0 0 0 10.45835,10.45835 10.458354,10.458347 0 0 0 10.45836,-10.45835 10.458354,10.458347 0 0 0 -10.45836,-10.45836 10.458354,10.458347 0 0 0 -10.45835,10.45836 z"
     style="opacity:0.98009997;fill:none;fill-opacity:0.2961877;stroke:#000000;stroke-width:0.34313571;stroke-linecap:round;stroke-linejoin:round;stroke-miterlimit:4;stroke-dasharray:none;stroke-opacity:1" />
  <path
     inkscape:connector-curvature="0"
     style="fill:none;fill-opacity:0.2961877;stroke:#000000;stroke-width:0.39385468;stroke-linecap:round;stroke-linejoin:round;stroke-miterlimit:4;stroke-dasharray:none;stroke-opacity:1"
     d="m 520.66921,306.49605 a 1.5747262,1.5747262 0 0 1 -1.57473,1.57472 1.5747262,1.5747262 0 0 1 -1.57472,-1.57472 1.5747262,1.5747262 0 0 1 1.57472,-1.57473 1.5747262,1.5747262 0 0 1 1.57473,1.57473 z"
     id="circle4202" />
  <path
     inkscape:connector-curvature="0"
     style="fill:none;fill-opacity:0.2961877;stroke:#000000;stroke-width:0.35544944;stroke-linecap:round;stroke-linejoin:round;stroke-miterlimit:4;stroke-dasharray:none;stroke-opacity:1"
     d="m 1282.7187,563.13918 c 0,5.02079 12.3955,5.15989 12.3955,5.15989 4.0363,0.2755 6.0449,2.701 6.0449,6.05567 l 0,5.6889 c 0,3.3547 -2.6695,5.8601 -6.0449,6.0557 -4.0333,0 -12.2556,-0.066 -12.2556,11.2589 0,11.9018 2.7502,19.1093 16.638,18.939 9.2122,0.032 10.1803,-1.9953 11.6583,-10.6876 0,-3.3546 4.1743,-6.0556 7.523,-6.0556 l 4.8018,0 c 3.3487,0 5.2528,2.7962 6.0449,6.0556 1.0492,4.3166 0.2281,10.748 5.8539,10.748 l 155.2643,-0.18 c 22.0221,0 39.752,-17.7594 39.752,-39.8207 l 0,-221.00263 c 0,-22.06133 -17.7299,-39.82609 -39.752,-39.82272 l -167.701,0.0257 c -15.6557,0.26381 -17.9319,5.62234 -17.7948,14.1926 l 0,119.29645 c 0,0 0.5128,16.9144 -11.6468,20.17284 -12.1436,3.25417 -10.6186,23.17843 -10.7592,23.21358 l -0.061,33.61538 z"
     id="path4237" />
  <path
     inkscape:connector-curvature="0"
     style="fill:none;fill-opacity:0.2961877;stroke:#000000;stroke-width:0.34313571;stroke-linecap:round;stroke-linejoin:round;stroke-miterlimit:4;stroke-dasharray:none;stroke-opacity:1"
     d="m 1498.8543,434.95002 a 10.458354,10.458347 0 0 0 10.4584,10.45835 10.458354,10.458347 0 0 0 10.4583,-10.45835 10.458354,10.458347 0 0 0 -10.4583,-10.45836 10.458354,10.458347 0 0 0 -10.4584,10.45836 z"
     id="path4239" />
  <path
     inkscape:connector-curvature="0"
     style="display:inline;opacity:1;fill:none;fill-opacity:0.2961877;stroke:#000000;stroke-width:0.35433072;stroke-linecap:round;stroke-linejoin:round;stroke-miterlimit:4;stroke-dasharray:none;stroke-opacity:1"
     d="m 1050.5586,508.54019 c 0,0 0.5128,-16.91467 -11.6468,-20.17284 -12.1597,-3.25817 -11.0011,-23.01615 -11.0011,-23.01615 l 0,-4.38295 0.5186,-105.61338 c 0,-22.06133 17.7298,-39.82272 39.7519,-39.82272 l 167.3391,0 c 22.0221,0 39.752,17.76139 39.752,39.82272 l 0,221.00267 c 0,22.0613 -17.7299,39.8207 -39.752,39.8207 l -155.2643,0.18 c -5.6258,0 -4.8047,-6.4314 -5.8539,-10.748 -0.7921,-3.2594 -2.6962,-6.0556 -6.0449,-6.0556 l -4.8018,0 c -3.3487,0 -7.523,2.701 -7.523,6.0556 -1.478,8.6923 -2.4461,10.7198 -11.6583,10.6876 -13.8878,0.1703 -16.638,-7.0372 -16.638,-18.939 0,-11.3251 8.2223,-11.2589 12.2556,-11.2589 3.3754,-0.1956 10.5655,-2.701 10.5637,-6.0882 z"
     id="path4241" />
  <path
     inkscape:connector-curvature="0"
     style="opacity:0.98009997;fill:none;fill-opacity:0.2961877;stroke:#000000;stroke-width:0.34313571;stroke-linecap:round;stroke-linejoin:round;stroke-miterlimit:4;stroke-dasharray:none;stroke-opacity:1"
     d="m 1243.7367,434.95058 a 10.458354,10.458347 0 0 0 10.4583,10.45835 10.458354,10.458347 0 0 0 10.4584,-10.45835 10.458354,10.458347 0 0 0 -10.4584,-10.45836 10.458354,10.458347 0 0 0 -10.4583,10.45836 z"
     id="path4243" />
  <path
     inkscape:connector-curvature="0"
     style="fill:none;fill-opacity:0.2961877;stroke:#000000;stroke-width:0.39385468;stroke-linecap:round;stroke-linejoin:round;stroke-miterlimit:4;stroke-dasharray:none;stroke-opacity:1"
     d="m 1530.5166,317.12593 a 1.5747262,1.5747262 0 0 1 -1.5747,1.57473 1.5747262,1.5747262 0 0 1 -1.5747,-1.57473 1.5747262,1.5747262 0 0 1 1.5747,-1.57473 1.5747262,1.5747262 0 0 1 1.5747,1.57473 z"
     id="circle4245" />
  <path
     inkscape:connector-curvature="0"
     style="fill:none;fill-opacity:0.2961877;stroke:#000000;stroke-width:0.39385468;stroke-linecap:round;stroke-linejoin:round;stroke-miterlimit:4;stroke-dasharray:none;stroke-opacity:1"
     d="m 1030.9103,614.76374 a 1.5747262,1.5747262 0 0 1 -1.5747,1.5747 1.5747262,1.5747262 0 0 1 -1.5748,-1.5747 1.5747262,1.5747262 0 0 1 1.5748,-1.5747 1.5747262,1.5747262 0 0 1 1.5747,1.5747 z"
     id="circle4247" />
  <path
     inkscape:connector-curvature="0"
     id="path4249"
     d="m 1792.9549,563.13918 c 0,5.02079 12.3954,5.15989 12.3954,5.15989 4.0364,0.2755 6.045,2.701 6.045,6.05567 l 0,5.6889 c 0,3.3547 -2.6695,5.8601 -6.045,6.0557 -4.0332,0 -12.2555,-0.066 -12.2555,11.2589 0,11.9018 2.7501,19.1093 16.638,18.939 9.2121,0.032 10.1802,-1.9953 11.6583,-10.6876 0,-3.3546 4.1742,-6.0556 7.5229,-6.0556 l 4.8019,0 c 3.3487,0 5.2527,2.7962 6.0449,6.0556 1.0491,4.3166 0.2281,10.748 5.8539,10.748 l 155.2643,-0.18 c 22.0221,0 39.752,-17.7594 39.752,-39.8207 l 0,-221.00263 c 0,-22.06133 -17.7299,-39.82609 -39.752,-39.82272 l -167.7011,0.0257 c -15.6557,0.26381 -17.9319,5.62234 -17.7947,14.1926 l 0,119.29645 c 0,0 0.5127,16.9144 -11.6468,20.17284 -12.1437,3.25417 -10.6186,23.17843 -10.7592,23.21358 l -0.06,33.61538 z"
     style="fill:none;fill-opacity:0.2961877;stroke:#000000;stroke-width:0.35544944;stroke-linecap:round;stroke-linejoin:round;stroke-miterlimit:4;stroke-dasharray:none;stroke-opacity:1" />
  <path
     inkscape:connector-curvature="0"
     id="path4251"
     d="m 2009.0905,434.95002 a 10.458354,10.458347 0 0 0 10.4583,10.45835 10.458354,10.458347 0 0 0 10.4584,-10.45835 10.458354,10.458347 0 0 0 -10.4584,-10.45836 10.458354,10.458347 0 0 0 -10.4583,10.45836 z"
     style="fill:none;fill-opacity:0.2961877;stroke:#000000;stroke-width:0.34313571;stroke-linecap:round;stroke-linejoin:round;stroke-miterlimit:4;stroke-dasharray:none;stroke-opacity:1" />
  <path
     inkscape:connector-curvature="0"
     id="path4253"
     d="m 1560.7948,508.54019 c 0,0 0.5128,-16.91467 -11.6468,-20.17284 -12.1597,-3.25817 -11.0011,-23.01615 -11.0011,-23.01615 l 0,-4.38295 0.5185,-105.61338 c 0,-22.06133 17.7299,-39.82272 39.752,-39.82272 l 167.3391,0 c 22.0221,0 39.7519,17.76139 39.7519,39.82272 l 0,221.00267 c 0,22.0613 -17.7298,39.8207 -39.7519,39.8207 l -155.2643,0.18 c -5.6258,0 -4.8048,-6.4314 -5.8539,-10.748 -0.7922,-3.2594 -2.6962,-6.0556 -6.0449,-6.0556 l -4.8019,0 c -3.3487,0 -7.5229,2.701 -7.5229,6.0556 -1.4781,8.6923 -2.4462,10.7198 -11.6583,10.6876 -13.8879,0.1703 -16.638,-7.0372 -16.638,-18.939 0,-11.3251 8.2223,-11.2589 12.2555,-11.2589 3.3755,-0.1956 10.5655,-2.701 10.5638,-6.0882 z"
     style="display:inline;opacity:1;fill:none;fill-opacity:0.2961877;stroke:#000000;stroke-width:0.35433072;stroke-linecap:round;stroke-linejoin:round;stroke-miterlimit:4;stroke-dasharray:none;stroke-opacity:1" />
  <path
     inkscape:connector-curvature="0"
     id="path4255"
     d="m 1753.9729,434.95058 a 10.458354,10.458347 0 0 0 10.4583,10.45835 10.458354,10.458347 0 0 0 10.4584,-10.45835 10.458354,10.458347 0 0 0 -10.4584,-10.45836 10.458354,10.458347 0 0 0 -10.4583,10.45836 z"
     style="opacity:0.98009997;fill:none;fill-opacity:0.2961877;stroke:#000000;stroke-width:0.34313571;stroke-linecap:round;stroke-linejoin:round;stroke-miterlimit:4;stroke-dasharray:none;stroke-opacity:1" />
  <path
     inkscape:connector-curvature="0"
     style="fill:none;fill-opacity:0.2961877;stroke:#000000;stroke-width:0.39385468;stroke-linecap:round;stroke-linejoin:round;stroke-miterlimit:4;stroke-dasharray:none;stroke-opacity:1"
     d="m 1541.1465,614.76374 a 1.5747262,1.5747262 0 0 1 -1.5747,1.5747 1.5747262,1.5747262 0 0 1 -1.5747,-1.5747 1.5747262,1.5747262 0 0 1 1.5747,-1.5747 1.5747262,1.5747262 0 0 1 1.5747,1.5747 z"
     id="circle4257" />
  <path
     inkscape:connector-curvature="0"
     id="path4259"
     d="m 1282.7189,254.87146 c 0,5.02079 12.3954,5.15989 12.3954,5.15989 4.0363,0.2755 6.0449,2.701 6.0449,6.0557 l 0,5.6889 c 0,3.3547 -2.6694,5.8601 -6.0449,6.0557 -4.0333,0 -12.2556,-0.066 -12.2556,11.2589 0,11.9018 2.7502,19.1093 16.6381,18.939 9.2121,0.032 10.1802,-1.9953 11.6582,-10.6876 0,-3.3546 4.1743,-6.0556 7.523,-6.0556 l 4.8019,0 c 3.3486,0 5.2527,2.7962 6.0449,6.0556 1.0491,4.3166 0.2281,10.748 5.8539,10.748 l 155.2642,-0.18 c 22.0222,0 39.752,-17.7594 39.752,-39.8207 l 0,-221.00266 c 0,-22.06133 -17.7298,-39.82609 -39.752,-39.82272 l -167.701,0.0257 c -15.6557,0.26381 -17.9319,5.62234 -17.7948,14.1926 l 0,119.29645 c 0,0 0.5128,16.9144 -11.6468,20.17284 -12.1436,3.25417 -10.6186,23.17843 -10.7592,23.21358 l -0.061,33.61538 z"
     style="fill:none;fill-opacity:0.2961877;stroke:#000000;stroke-width:0.35544944;stroke-linecap:round;stroke-linejoin:round;stroke-miterlimit:4;stroke-dasharray:none;stroke-opacity:1" />
  <path
     inkscape:connector-curvature="0"
     id="path4261"
     d="m 1498.8544,126.6823 a 10.458354,10.458347 0 0 0 10.4584,10.45835 10.458354,10.458347 0 0 0 10.4583,-10.45835 10.458354,10.458347 0 0 0 -10.4583,-10.45836 10.458354,10.458347 0 0 0 -10.4584,10.45836 z"
     style="fill:none;fill-opacity:0.2961877;stroke:#000000;stroke-width:0.34313571;stroke-linecap:round;stroke-linejoin:round;stroke-miterlimit:4;stroke-dasharray:none;stroke-opacity:1" />
  <path
     inkscape:connector-curvature="0"
     id="path4263"
     d="m 1050.5586,200.27247 c 0,0 0.5129,-16.91467 -11.6468,-20.17284 -12.1596,-3.25817 -11.001,-23.01615 -11.001,-23.01615 l 0.01,-4.38295 0.5185,-105.61338 c 0,-22.06133 17.7299,-39.82272 39.752,-39.82272 l 167.3391,0 c 22.0221,0 39.7519,17.76139 39.7519,39.82272 l 0,221.00266 c 0,22.0613 -17.7298,39.8207 -39.7519,39.8207 l -155.2643,0.18 c -5.6258,0 -4.8048,-6.4314 -5.8539,-10.748 -0.7922,-3.2594 -2.6962,-6.0556 -6.0449,-6.0556 l -4.8019,0 c -3.3487,0 -7.5229,2.701 -7.5229,6.0556 -1.4781,8.6923 -2.4462,10.7198 -11.6583,10.6876 -13.8879,0.1703 -16.638,-7.0372 -16.638,-18.939 0,-11.3251 8.2223,-11.2589 12.2555,-11.2589 3.3755,-0.1956 10.5655,-2.701 10.5638,-6.0882 z"
     style="display:inline;opacity:1;fill:none;fill-opacity:0.2961877;stroke:#000000;stroke-width:0.35433072;stroke-linecap:round;stroke-linejoin:round;stroke-miterlimit:4;stroke-dasharray:none;stroke-opacity:1" />
  <path
     inkscape:connector-curvature="0"
     id="path4265"
     d="m 1243.7367,126.68286 a 10.458354,10.458347 0 0 0 10.4584,10.45835 10.458354,10.458347 0 0 0 10.4584,-10.45835 10.458354,10.458347 0 0 0 -10.4584,-10.45836 10.458354,10.458347 0 0 0 -10.4584,10.45836 z"
     style="opacity:0.98009997;fill:none;fill-opacity:0.2961877;stroke:#000000;stroke-width:0.34313571;stroke-linecap:round;stroke-linejoin:round;stroke-miterlimit:4;stroke-dasharray:none;stroke-opacity:1" />
  <path
     inkscape:connector-curvature="0"
     style="fill:none;fill-opacity:0.2961877;stroke:#000000;stroke-width:0.39385468;stroke-linecap:round;stroke-linejoin:round;stroke-miterlimit:4;stroke-dasharray:none;stroke-opacity:1"
     d="m 1530.5166,8.8582 a 1.5747262,1.5747262 0 0 1 -1.5747,1.57472 1.5747262,1.5747262 0 0 1 -1.5747,-1.57472 1.5747262,1.5747262 0 0 1 1.5747,-1.57473 1.5747262,1.5747262 0 0 1 1.5747,1.57473 z"
     id="circle4267" />
  <path
     inkscape:connector-curvature="0"
     style="fill:none;fill-opacity:0.2961877;stroke:#000000;stroke-width:0.39385468;stroke-linecap:round;stroke-linejoin:round;stroke-miterlimit:4;stroke-dasharray:none;stroke-opacity:1"
     d="m 1030.9104,306.49605 a 1.5747262,1.5747262 0 0 1 -1.5747,1.57472 1.5747262,1.5747262 0 0 1 -1.5747,-1.57472 1.5747262,1.5747262 0 0 1 1.5747,-1.57473 1.5747262,1.5747262 0 0 1 1.5747,1.57473 z"
     id="circle4269" />
  <path
     inkscape:connector-curvature="0"
     style="fill:none;fill-opacity:0.2961877;stroke:#000000;stroke-width:0.35544944;stroke-linecap:round;stroke-linejoin:round;stroke-miterlimit:4;stroke-dasharray:none;stroke-opacity:1"
     d="m 1792.955,254.87146 c 0,5.02079 12.3954,5.15989 12.3954,5.15989 4.0364,0.2755 6.045,2.701 6.045,6.0557 l 0,5.6889 c 0,3.3547 -2.6695,5.8601 -6.045,6.0557 -4.0332,0 -12.2555,-0.066 -12.2555,11.2589 0,11.9018 2.7501,19.1093 16.638,18.939 9.2121,0.032 10.1802,-1.9953 11.6583,-10.6876 0,-3.3546 4.1742,-6.0556 7.5229,-6.0556 l 4.8019,0 c 3.3487,0 5.2527,2.7962 6.0449,6.0556 1.0491,4.3166 0.2281,10.748 5.8539,10.748 l 155.2643,-0.18 c 22.0221,0 39.752,-17.7594 39.752,-39.8207 l 0,-221.00266 c 0,-22.06133 -17.7299,-39.82609 -39.752,-39.82272 l -167.7011,0.0257 c -15.6557,0.26381 -17.9319,5.62234 -17.7947,14.1926 l 0,119.29645 c 0,0 0.5127,16.9144 -11.6468,20.17284 -12.1437,3.25417 -10.6186,23.17843 -10.7592,23.21358 l -0.06,33.61538 z"
     id="path4271" />
  <path
     inkscape:connector-curvature="0"
     style="fill:none;fill-opacity:0.2961877;stroke:#000000;stroke-width:0.34313571;stroke-linecap:round;stroke-linejoin:round;stroke-miterlimit:4;stroke-dasharray:none;stroke-opacity:1"
     d="m 2009.0906,126.6823 a 10.458354,10.458347 0 0 0 10.4583,10.45835 10.458354,10.458347 0 0 0 10.4584,-10.45835 10.458354,10.458347 0 0 0 -10.4584,-10.45836 10.458354,10.458347 0 0 0 -10.4583,10.45836 z"
     id="path4273" />
  <path
     inkscape:connector-curvature="0"
     style="display:inline;opacity:1;fill:none;fill-opacity:0.2961877;stroke:#000000;stroke-width:0.35433072;stroke-linecap:round;stroke-linejoin:round;stroke-miterlimit:4;stroke-dasharray:none;stroke-opacity:1"
     d="m 1560.7948,200.27247 c 0,0 0.5129,-16.91467 -11.6468,-20.17284 -12.1596,-3.25817 -11.001,-23.01615 -11.001,-23.01615 l 0,-4.38295 0.5185,-105.61338 c 0,-22.06133 17.7299,-39.82272 39.752,-39.82272 l 167.3391,0 c 22.0221,0 39.7519,17.76139 39.7519,39.82272 l 0,221.00266 c 0,22.0613 -17.7298,39.8207 -39.7519,39.8207 l -155.2643,0.18 c -5.6258,0 -4.8048,-6.4314 -5.8539,-10.748 -0.7922,-3.2594 -2.6962,-6.0556 -6.0449,-6.0556 l -4.8019,0 c -3.3487,0 -7.5229,2.701 -7.5229,6.0556 -1.4781,8.6923 -2.4462,10.7198 -11.6583,10.6876 -13.8879,0.1703 -16.638,-7.0372 -16.638,-18.939 0,-11.3251 8.2223,-11.2589 12.2555,-11.2589 3.3755,-0.1956 10.5655,-2.701 10.5638,-6.0882 z"
     id="path4275" />
  <path
     inkscape:connector-curvature="0"
     style="opacity:0.98009997;fill:none;fill-opacity:0.2961877;stroke:#000000;stroke-width:0.34313571;stroke-linecap:round;stroke-linejoin:round;stroke-miterlimit:4;stroke-dasharray:none;stroke-opacity:1"
     d="m 1753.9729,126.68286 a 10.458354,10.458347 0 0 0 10.4584,10.45835 10.458354,10.458347 0 0 0 10.4584,-10.45835 10.458354,10.458347 0 0 0 -10.4584,-10.45836 10.458354,10.458347 0 0 0 -10.4584,10.45836 z"
     id="path4277" />
  <path
     inkscape:connector-curvature="0"
     style="fill:none;fill-opacity:0.2961877;stroke:#000000;stroke-width:0.39385468;stroke-linecap:round;stroke-linejoin:round;stroke-miterlimit:4;stroke-dasharray:none;stroke-opacity:1"
     d="m 1541.1466,306.49605 a 1.5747262,1.5747262 0 0 1 -1.5747,1.57472 1.5747262,1.5747262 0 0 1 -1.5747,-1.57472 1.5747262,1.5747262 0 0 1 1.5747,-1.57473 1.5747262,1.5747262 0 0 1 1.5747,1.57473 z"
     id="circle4279" />
  <path
     inkscape:connector-curvature="0"
     style="fill:none;fill-opacity:0.2961877;stroke:#000000;stroke-width:0.39385468;stroke-linecap:round;stroke-linejoin:round;stroke-miterlimit:4;stroke-dasharray:none;stroke-opacity:1"
     d="m 2047.8345,1.77165 a 1.5747262,1.5747262 0 0 1 -1.5747,1.57473 1.5747262,1.5747262 0 0 1 -1.5748,-1.57473 1.5747262,1.5747262 0 0 1 1.5748,-1.57473 1.5747262,1.5747262 0 0 1 1.5747,1.57473 z"
     id="circle53599" />
</svg>
