<?xml version="1.0" encoding="UTF-8" standalone="no"?>
<!-- Created with Inkscape (http://www.inkscape.org/) -->

<svg
   xmlns:dc="http://purl.org/dc/elements/1.1/"
   xmlns:cc="http://creativecommons.org/ns#"
   xmlns:rdf="http://www.w3.org/1999/02/22-rdf-syntax-ns#"
   xmlns:svg="http://www.w3.org/2000/svg"
   xmlns="http://www.w3.org/2000/svg"
   xmlns:sodipodi="http://sodipodi.sourceforge.net/DTD/sodipodi-0.dtd"
   xmlns:inkscape="http://www.inkscape.org/namespaces/inkscape"
   width="70mm"
   height="85mm"
   viewBox="0 0 248.03149 301.1811"
   id="svg2"
   version="1.1"
   inkscape:version="0.91 r13725"
   sodipodi:docname="Plain Card.svg"
   enable-background="new">
  <sodipodi:namedview
     id="base"
     pagecolor="#5e5e5e"
     bordercolor="#919191"
     borderopacity="1"
     inkscape:pageopacity="0"
     inkscape:pageshadow="2"
     inkscape:zoom="1.3664076"
     inkscape:cx="148.74982"
     inkscape:cy="253.33009"
     inkscape:document-units="mm"
     inkscape:current-layer="layer1"
     showgrid="false"
     inkscape:window-width="1366"
     inkscape:window-height="744"
     inkscape:window-x="0"
     inkscape:window-y="1"
     inkscape:window-maximized="1"
     showguides="true"
     inkscape:guide-bbox="true"
     inkscape:snap-global="false" />
  <defs
     id="defs4" />
  <metadata
     id="metadata7">
    <rdf:RDF>
      <cc:Work
         rdf:about="">
        <dc:format>image/svg+xml</dc:format>
        <dc:type
           rdf:resource="http://purl.org/dc/dcmitype/StillImage" />
        <dc:title></dc:title>
      </cc:Work>
    </rdf:RDF>
  </metadata>
  <g
     inkscape:label="CardCutOut"
     inkscape:groupmode="layer"
     id="layer1"
     transform="translate(0,-751.1811)">
    <g
       style="opacity:1;filter:url(#filter4772)"
       id="g4243"
       transform="matrix(0.35277905,0,0,0.35277905,207.83966,733.02104)" />
    <path
       style="fill:none;fill-opacity:0.2961877;stroke:#000000;stroke-width:0.35544944;stroke-linecap:round;stroke-linejoin:round;stroke-miterlimit:4;stroke-dasharray:none;stroke-opacity:1"
       d="m 39.929704,751.35842 c -22.022141,0 -39.75197889,17.76139 -39.75197888,39.82272 l 0,221.00266 c -10e-9,22.0613 17.72983788,39.8207 39.75197888,39.8207 l 155.264266,0.18 c 5.62581,0 4.80478,-6.4314 5.85389,-10.748 0.79217,-3.2594 2.69624,-6.0556 6.04492,-6.0556 l 4.80187,0 c 3.34869,0 7.52296,2.701 7.52296,6.0556 1.47803,8.6923 2.44612,10.7198 11.65826,10.6876 13.88786,0.1703 16.63804,-7.0372 16.63804,-18.939 0,-11.3251 -8.22232,-11.2589 -12.25558,-11.2589 -3.37546,-0.1956 -6.04492,-2.701 -6.04492,-6.0557 l 0,-5.6889 c 0,-3.3547 2.00858,-5.7802 6.04492,-6.0557 0,0 12.39543,-0.1391 12.39543,-5.15989 l -0.83282,-207.78487 c 0,-22.06133 -17.72984,-39.82272 -39.75198,-39.82272 z"
       id="rect4874"
       inkscape:connector-curvature="0"
       sodipodi:nodetypes="ssssccssccccsscccss" />
    <path
       id="path4139"
       d="m 33.664354,832.28607 c -4e-6,5.98858 -4.846085,10.84329 -10.824031,10.84329 -5.977946,0 -10.824026,-4.85471 -10.82403,-10.84329 -2e-6,-3.32509 1.493988,-6.30061 3.846197,-8.28967 0.390354,-0.33916 0.531929,-0.36277 0.94715,-0.37196 4.673116,0.007 8.197458,0.10799 12.029891,0.11906 0.626453,0 0.642497,0.012 1.022533,0.29023 2.326877,1.98885 3.802292,4.94799 3.80229,8.25234 z"
       style="fill:none;fill-opacity:0.2961877;stroke:#000000;stroke-width:0.35544944;stroke-linecap:round;stroke-linejoin:round;stroke-miterlimit:4;stroke-dasharray:none;stroke-opacity:1"
       inkscape:connector-curvature="0"
       sodipodi:nodetypes="sssccccs" />
    <path
       sodipodi:nodetypes="sssccccs"
       inkscape:connector-curvature="0"
       style="fill:none;fill-opacity:0.2961877;stroke:#000000;stroke-width:0.35544944;stroke-linecap:round;stroke-linejoin:round;stroke-miterlimit:4;stroke-dasharray:none;stroke-opacity:1"
       d="m 33.664354,803.22407 c -4e-6,-5.98858 -4.846085,-10.84329 -10.824031,-10.84329 -5.977946,0 -10.824026,4.85471 -10.82403,10.84329 -2e-6,3.32509 1.493988,6.30061 3.846197,8.28967 0.390354,0.33916 0.531929,0.36277 0.94715,0.37196 4.673116,-0.007 8.197458,-0.10799 12.029891,-0.11906 0.626453,0 0.642497,-0.012 1.022533,-0.29023 2.326877,-1.98885 3.802292,-4.94799 3.80229,-8.25234 z"
       id="path4163" />
  </g>
  <g
     style="display:inline;opacity:0.4"
     inkscape:groupmode="layer"
     id="layer3"
     inkscape:label="Lines">
    <path
       style="fill:none;fill-opacity:0.2961877;stroke:#000000;stroke-width:0.35433072;stroke-linecap:round;stroke-linejoin:round;stroke-miterlimit:4;stroke-dasharray:none;stroke-opacity:1"
       d="m 207.99254,0.22869892 c 15.29391,0.23811913 17.57011,5.59665078 17.43297,14.16691208 l 0,119.296449 c 0,0 -0.51285,16.91467 11.6468,20.17284 12.15965,3.25817 11.00109,23.01615 11.00109,23.01615 l 0,32.52343"
       id="path8499"
       inkscape:connector-curvature="0"
       sodipodi:nodetypes="cccscc" />
  </g>
  <g
     inkscape:groupmode="layer"
     id="layer2"
     inkscape:label="Graphics" />
</svg>
