<?xml version="1.0" encoding="UTF-8" standalone="no"?>
<svg
   xmlns:dc="http://purl.org/dc/elements/1.1/"
   xmlns:cc="http://creativecommons.org/ns#"
   xmlns:rdf="http://www.w3.org/1999/02/22-rdf-syntax-ns#"
   xmlns:svg="http://www.w3.org/2000/svg"
   xmlns="http://www.w3.org/2000/svg"
   enable-background="new"
   width="70mm"
   height="70mm"
   viewBox="0 0 248.03151 248.03149"
   id="svg2"
   version="1.1">
  <defs
     id="defs4">
    <filter
       id="filter4811"
       style="color-interpolation-filters:sRGB">
      <feBlend
         id="feBlend4813"
         in2="BackgroundImage"
         mode="overlay" />
    </filter>
  </defs>
  <metadata
     id="metadata7">
    <rdf:RDF>
      <cc:Work
         rdf:about="">
        <dc:format>image/svg+xml</dc:format>
        <dc:type
           rdf:resource="http://purl.org/dc/dcmitype/StillImage" />
        <dc:title></dc:title>
      </cc:Work>
    </rdf:RDF>
  </metadata>
  <g
     style="opacity:1;filter:url(#filter4811)"
     transform="translate(0,-804.33071)"
     id="layer1">
    <g
       transform="matrix(-1,0,0,1,247.80365,3.8671876)"
       id="g896" />
    <path
       id="path4210"
       d="m 224.81061,821.82654 c 3.72723,0 10.96536,2.79492 10.96536,27.42629 v 1.93184 c 0,4.65377 -0.12506,4.93242 -1.85064,6.25575 -4.741,2.73721 -18.07115,-3.70535 -18.07115,-12.73734 l 0.10123,-19.35985 c 0,0 -0.20085,-3.5031 3.85125,-3.51665 z"
       style="fill:none;fill-rule:evenodd;stroke:#000000;stroke-width:0.32609031;stroke-linecap:butt;stroke-linejoin:miter;stroke-miterlimit:4;stroke-dasharray:none;stroke-opacity:1" />
    <path
       id="path4818"
       d="m 0.17760343,1001.5263 0.005011,4.2852 c 0.2312384,5.0599 16.74898957,4.0315 16.74898957,11.1333 0,8.0577 -16.51802176,7.7055 -16.51802176,15.1166 0,14.4563 3.47304566,19.4286 20.13910676,19.6811 7.173341,0 4.860857,-20.1495 13.632903,-19.317 8.988574,1.1311 6.273522,16.6931 9.181901,19.7574 h 1.053049 167.697378 c 19.67233,0 35.50818,-15.8379 35.50818,-35.5102 V 840.01657 c 0,-19.67232 -15.83585,-35.51014 -35.50818,-35.51014 l -176.658101,-0.002 c -6.603613,0 -18.041305,0.0825 -18.039371,9.3776 l 0.02115,101.57849 c 9.92e-4,4.74699 -3.821617,9.41084 -8.5686579,9.41084 -4.7470315,0 -8.56864843,4.52936 -8.56864843,8.56867 0,12.41857 2.005e-5,15.02829 2.005e-5,25.46178 0,9.18249 11.88499628,8.77922 14.54990028,15.29076 0.321102,0.78449 0.259298,1.72351 0.04159,2.54288 -2.467889,9.28792 -14.38447309,7.9342 -14.71828257,24.79085"
       style="fill:none;stroke:#000000;stroke-width:0.35509607;stroke-linejoin:round;stroke-miterlimit:4;stroke-dasharray:none;stroke-opacity:1" />
    <path
       d="m 56.979558,1041.0693 -0.31524,-0.6305 -0.63048,-0.6304 -0.63048,-0.3153 h -1.26096 l -0.63048,0.3153 -0.63048,0.6304 -0.31524,0.6305 -0.31524,0.9457 v 1.5762 l 0.31524,0.9458 0.31524,0.6304 0.63048,0.6305 0.63048,0.3153 h 1.26096 l 0.63048,-0.3153 0.63048,-0.6305 0.31524,-0.6304"
       style="fill:none;stroke:#000000;stroke-width:0.31524003"
       id="path4790" />
    <path
       d="m 59.186239,1039.4931 v 6.6201 m 0,-3.1524 0.94572,-0.9458 0.63048,-0.3152 h 0.94572 l 0.63048,0.3152 0.31524,0.9458 v 3.1524"
       style="fill:none;stroke:#000000;stroke-width:0.31524003"
       id="path4792" />
    <path
       d="m 68.643439,1041.6998 v 4.4134 m 0,-3.4677 -0.63048,-0.6305 -0.63048,-0.3152 h -0.94572 l -0.63048,0.3152 -0.63048,0.6305 -0.31524,0.9457 v 0.6305 l 0.31524,0.9457 0.63048,0.6305 0.63048,0.3153 h 0.94572 l 0.63048,-0.3153 0.63048,-0.6305"
       style="fill:none;stroke:#000000;stroke-width:0.31524003"
       id="path4794" />
    <path
       d="m 71.165359,1039.4931 v 6.6201"
       style="fill:none;stroke:#000000;stroke-width:0.31524003"
       id="path4796" />
    <path
       d="m 73.68728,1041.6998 v 4.4134 m 0,-3.1524 0.94572,-0.9458 0.63048,-0.3152 h 0.94572 l 0.63048,0.3152 0.31524,0.9458 v 3.1524 m 0,-3.1524 0.94572,-0.9458 0.63048,-0.3152 h 0.94572 l 0.63048,0.3152 0.31524,0.9458 v 3.1524"
       style="fill:none;stroke:#000000;stroke-width:0.31524003"
       id="path4798" />
    <path
       d="m 82.82924,1043.5912 h 3.78288 v -0.6304 l -0.31524,-0.6305 -0.31524,-0.3153 -0.63048,-0.3152 h -0.94572 l -0.63048,0.3152 -0.63048,0.6305 -0.31524,0.9457 v 0.6305 l 0.31524,0.9457 0.63048,0.6305 0.63048,0.3153 h 0.94572 l 0.63048,-0.3153 0.63048,-0.6305"
       style="fill:none;stroke:#000000;stroke-width:0.31524003"
       id="path4800" />
    <path
       d="m 88.8188,1041.6998 v 4.4134 m 0,-2.522 0.31524,-0.9457 0.63048,-0.6305 0.63048,-0.3152 h 0.94572"
       style="fill:none;stroke:#000000;stroke-width:0.31524003"
       id="path4802" />
    <path
       d="m 96.069321,1042.6455 -0.31524,-0.6305 -0.94572,-0.3152 h -0.94572 l -0.94572,0.3152 -0.31524,0.6305 0.31524,0.6305 0.63048,0.3152 1.5762,0.3153 0.63048,0.3152 0.31524,0.6305 v 0.3152 l -0.31524,0.6305 -0.94572,0.3153 h -0.94572 l -0.94572,-0.3153 -0.31524,-0.6305"
       style="fill:none;stroke:#000000;stroke-width:0.31524003"
       id="path4804" />
    <path
       d="m 102.68936,1041.0693 -0.31524,-0.6305 -0.63048,-0.6304 -0.63048,-0.3153 H 99.8522 l -0.63048,0.3153 -0.63048,0.6304 -0.31524,0.6305 -0.31524,0.9457 v 1.5762 l 0.31524,0.9458 0.31524,0.6304 0.63048,0.6305 0.63048,0.3153 h 1.26096 l 0.63048,-0.3153 0.63048,-0.6305 0.31524,-0.6304"
       style="fill:none;stroke:#000000;stroke-width:0.31524003"
       id="path4806" />
    <path
       d="m 108.36368,1041.6998 v 4.4134 m 0,-3.4677 -0.63048,-0.6305 -0.63048,-0.3152 H 106.157 l -0.63048,0.3152 -0.63048,0.6305 -0.31524,0.9457 v 0.6305 l 0.31524,0.9457 0.63048,0.6305 0.63048,0.3153 h 0.94572 l 0.63048,-0.3153 0.63048,-0.6305"
       style="fill:none;stroke:#000000;stroke-width:0.31524003"
       id="path4808" />
    <path
       d="m 110.8856,1041.6998 v 4.4134 m 0,-2.522 0.31524,-0.9457 0.63048,-0.6305 0.63048,-0.3152 h 0.94572"
       style="fill:none;stroke:#000000;stroke-width:0.31524003"
       id="path4810" />
    <path
       d="m 118.45136,1039.4931 v 6.6201 m 0,-3.4677 -0.63048,-0.6305 -0.63048,-0.3152 h -0.94572 l -0.63048,0.3152 -0.63048,0.6305 -0.31524,0.9457 v 0.6305 l 0.31524,0.9457 0.63048,0.6305 0.63048,0.3153 h 0.94572 l 0.63048,-0.3153 0.63048,-0.6305"
       style="fill:none;stroke:#000000;stroke-width:0.31524003"
       id="path4812" />
    <path
       d="m 124.12568,1042.6455 -0.31524,-0.6305 -0.94572,-0.3152 H 121.919 l -0.94572,0.3152 -0.31524,0.6305 0.31524,0.6305 0.63048,0.3152 1.5762,0.3153 0.63048,0.3152 0.31524,0.6305 v 0.3152 l -0.31524,0.6305 -0.94572,0.3153 H 121.919 l -0.94572,-0.3153 -0.31524,-0.6305"
       style="fill:none;stroke:#000000;stroke-width:0.31524003"
       id="path4814" />
    <path
       d="m 126.33236,1044.537 -0.31524,0.3152 0.31524,0.3152 0.31524,-0.3152 -0.31524,-0.3152"
       style="fill:none;stroke:#000000;stroke-width:0.31524003"
       id="path4816" />
    <path
       d="m 132.32192,1042.6455 -0.63048,-0.6305 -0.63048,-0.3152 h -0.94572 l -0.63048,0.3152 -0.63048,0.6305 -0.31524,0.9457 v 0.6305 l 0.31524,0.9457 0.63048,0.6305 0.63048,0.3153 h 0.94572 l 0.63048,-0.3153 0.63048,-0.6305"
       style="fill:none;stroke:#000000;stroke-width:0.31524003"
       id="path4819" />
    <path
       d="m 135.78956,1041.6998 -0.63048,0.3152 -0.63048,0.6305 -0.31524,0.9457 v 0.6305 l 0.31524,0.9457 0.63048,0.6305 0.63048,0.3153 h 0.94572 l 0.63048,-0.3153 0.63048,-0.6305 0.31524,-0.9457 v -0.6305 l -0.31524,-0.9457 -0.63048,-0.6305 -0.63048,-0.3152 h -0.94572"
       style="fill:none;stroke:#000000;stroke-width:0.31524003"
       id="path4821" />
    <path
       d="m 140.51816,1041.6998 v 4.4134 m 0,-3.1524 0.94572,-0.9458 0.63048,-0.3152 h 0.94572 l 0.63048,0.3152 0.31524,0.9458 v 3.1524 m 0,-3.1524 0.94572,-0.9458 0.63048,-0.3152 h 0.94572 l 0.63048,0.3152 0.31524,0.9458 v 3.1524"
       style="fill:none;stroke:#000000;stroke-width:0.31524003"
       id="path4823" />
    <path
       id="path9541"
       d="m 3.4797561,1050.5906 a 1.7080989,1.7080989 0 0 1 -1.7080989,1.7081 1.7080989,1.7080989 0 0 1 -1.70809886,-1.7081 1.7080989,1.7080989 0 0 1 1.70809886,-1.7081 1.7080989,1.7080989 0 0 1 1.7080989,1.7081 z"
       style="display:inline;opacity:0.98000004;fill:none;fill-opacity:0;stroke:#000000;stroke-width:0.12710917;stroke-miterlimit:3.98765421;stroke-dasharray:none;stroke-opacity:1" />
    <path
       id="circle9543"
       d="m -244.55174,806.10236 a 1.7080989,1.7080989 0 0 1 -1.7081,1.70809 1.7080989,1.7080989 0 0 1 -1.7081,-1.70809 1.7080989,1.7080989 0 0 1 1.7081,-1.7081 1.7080989,1.7080989 0 0 1 1.7081,1.7081 z"
       style="display:inline;opacity:0.98000004;fill:none;fill-opacity:0;stroke:#000000;stroke-width:0.12710917;stroke-miterlimit:3.98765421;stroke-dasharray:none;stroke-opacity:1"
       transform="scale(-1,1)" />
  </g>
  <g
     transform="translate(0,-3.8582677e-5)"
     id="layer3">
    <path
       id="path13036"
       style="fill:none;stroke:#000000;stroke-width:0.20732725"
       d="" />
    <path
       d=""
       style="fill:none;stroke:#000000;stroke-width:0.26252338"
       id="path4251" />
    <path
       d=""
       style="fill:none;stroke:#000000;stroke-width:0.26252338"
       id="path4255" />
    <path
       d=""
       style="fill:none;stroke:#000000;stroke-width:0.26252338"
       id="path4265" />
    <path
       d=""
       style="fill:none;stroke:#000000;stroke-width:0.26252338"
       id="path4269" />
    <path
       id="path4369"
       style="fill:none;stroke:#000000;stroke-width:0.26892704"
       d="" />
    <path
       id="path4373"
       style="fill:none;stroke:#000000;stroke-width:0.26892704"
       d="" />
    <path
       id="path4383"
       style="fill:none;stroke:#000000;stroke-width:0.26892704"
       d="" />
    <path
       id="path4387"
       style="fill:none;stroke:#000000;stroke-width:0.26892704"
       d="" />
    <path
       d=""
       style="fill:none;stroke:#000000;stroke-width:0.41828161"
       id="path6267" />
    <path
       d=""
       style="fill:none;stroke:#000000;stroke-width:0.41828161"
       id="path6287" />
    <path
       d=""
       style="fill:none;stroke:#000000;stroke-width:0.41828161"
       id="path6295" />
  </g>
  <g
     transform="translate(0,-3.8582677e-5)"
     id="layer6" />
  <g
     transform="translate(0,-3.8582677e-5)"
     id="layer4">
    <path
       id="path7559"
       style="fill:none;stroke:#000000;stroke-width:0.92052549"
       d="" />
    <path
       id="path7565"
       style="fill:none;stroke:#000000;stroke-width:0.92052549"
       d="" />
    <path
       id="path7579"
       style="fill:none;stroke:#000000;stroke-width:0.92052549"
       d="" />
    <path
       d=""
       style="fill:none;stroke:#000000;stroke-width:0.34588146"
       id="path8694" />
    <path
       d=""
       style="fill:none;stroke:#000000;stroke-width:0.34588146"
       id="path8700" />
    <path
       id="path9252"
       style="fill:none;stroke:#000000;stroke-width:0.35277364"
       d="" />
    <path
       id="path9264"
       style="fill:none;stroke:#000000;stroke-width:0.35277364"
       d="" />
    <path
       d=""
       style="fill:none;stroke:#000000;stroke-width:0.30689958"
       id="path9834" />
    <path
       d=""
       style="fill:none;stroke:#000000;stroke-width:1.21444738"
       id="path4314" />
    <path
       d=""
       style="fill:none;stroke:#000000;stroke-width:1.21444738"
       id="path4324" />
    <path
       d=""
       style="fill:none;stroke:#000000;stroke-width:1.21444738"
       id="path4332" />
    <path
       d=""
       style="fill:none;stroke:#000000;stroke-width:1.21444738"
       id="path4586" />
    <path
       d=""
       style="fill:none;stroke:#000000;stroke-width:1.21444738"
       id="path4604-3" />
  </g>
</svg>
