<?xml version="1.0" encoding="UTF-8" standalone="no"?>
<svg
   xmlns:dc="http://purl.org/dc/elements/1.1/"
   xmlns:cc="http://creativecommons.org/ns#"
   xmlns:rdf="http://www.w3.org/1999/02/22-rdf-syntax-ns#"
   xmlns:svg="http://www.w3.org/2000/svg"
   xmlns="http://www.w3.org/2000/svg"
   width="146mm"
   height="74mm"
   viewBox="0 0 517.32286 262.20472"
   id="svg2"
   version="1.1">
  <defs
     id="defs4" />
  <metadata
     id="metadata7">
    <rdf:RDF>
      <cc:Work
         rdf:about="">
        <dc:format>image/svg+xml</dc:format>
        <dc:type
           rdf:resource="http://purl.org/dc/dcmitype/StillImage" />
        <dc:title></dc:title>
      </cc:Work>
    </rdf:RDF>
  </metadata>
  <g
     style="opacity:1"
     transform="translate(0,-790.15748)"
     id="layer1">
    <path
       id="rect4181-3"
       d="m 23.874537,805.21189 201.227523,0 c 12.21472,0 22.04824,9.87141 22.04824,22.13316 l 0,202.00275 c 0,12.2617 -7.57499,22.1332 -19.7897,22.1332 l -182.887733,0 c -2.90211,-3.0577 0.023,-18.1481 -8.9462,-19.2768 -8.75314,-0.8307 -6.44616,19.2768 -13.60404,19.2768 -16.6301405,-0.252 -20.0963105,-5.2143 -20.0963105,-19.6394 0,-7.3951 16.4836905,-7.0433 16.4836905,-15.0836 0,-7.0865 -16.4836905,-6.0616 -16.4836905,-10.4161 l 0,-58.58645 c 0,0 -0.481422,-3.86107 2.9674683,-4.0618 l 25.9497182,-1.5103 c 0,0 4.493611,-0.65507 4.493611,-5.72384 l 0,-18.93288 c 0,-4.31652 -4.766979,-4.6272 -4.766979,-4.6272 L 5.6741424,911.54304 C 1.804586,911.43609 1.8263165,907.98069 1.8263165,907.98069 l 0,-80.63564 c 0,-12.26175 9.8335005,-22.13316 22.0482205,-22.13316 z"
       style="opacity:1;fill:none;stroke:#000000;stroke-width:0.35433072;stroke-linejoin:round;stroke-miterlimit:4;stroke-dasharray:none;stroke-opacity:1"
       transform="matrix(-1,0,0,1,254.41408,-6.3825602)" />
    <path
       id="path8099"
       d="M 239.03452,30.910204 A 21.06086,21.06086 0 0 1 217.97366,51.971064 21.06086,21.06086 0 0 1 196.9128,30.910204 21.06086,21.06086 0 0 1 217.97366,9.8493443 21.06086,21.06086 0 0 1 239.03452,30.910204 Z"
       style="opacity:1;fill:none;fill-opacity:1;stroke:#000000;stroke-width:0.3979682;stroke-linecap:round;stroke-linejoin:round;stroke-miterlimit:4;stroke-dasharray:none;stroke-opacity:1"
       transform="matrix(-1,0,0,1,254.41408,797.94811)" />
    <path
       style="opacity:1;fill:none;stroke:#000000;stroke-width:0.35433072;stroke-linejoin:round;stroke-miterlimit:4;stroke-dasharray:none;stroke-opacity:1"
       d="m 127.68385,-17.660972 201.22752,0 c 12.21472,0 22.04824,9.8714099 22.04824,22.1331599 l 0,179.5647821 c 0,7.87793 -8.20837,6.78527 -8.20837,6.78527 l -20.06607,-0.11425 c -12.26151,-0.0698 -11.96678,8.08683 -11.92778,20.30147 l 0.0323,10.11567 c 0,0 -0.91883,7.48301 -6.74912,7.48301 l -155.75838,0 c -2.90211,-3.0577 0.023,-18.1481 -8.9462,-19.2768 -8.75314,-0.8307 -6.44616,19.2768 -13.60404,19.2768 -16.63014,-0.252 -20.09631,-5.2143 -20.09631,-19.6394 0,-7.3951 16.48369,-7.0433 16.48369,-15.0836 0,-7.0865 -16.48369,-6.0616 -16.48369,-10.4161 l 0,-178.9968521 c 0,-12.26175 9.8335,-22.1331599 22.04822,-22.1331599 z"
       id="rect4181-3-9"
       transform="translate(157.11711,816.4903)" />
    <path
       id="path8099-4"
       d="m 237.40867,31.614185 a 21.06086,21.06086 0 0 1 -21.06086,21.06086 21.06086,21.06086 0 0 1 -21.06086,-21.06086 21.06086,21.06086 0 0 1 21.06086,-21.060859 21.06086,21.06086 0 0 1 21.06086,21.060859 z"
       style="opacity:1;fill:none;fill-opacity:1;stroke:#000000;stroke-width:0.39796817;stroke-linecap:round;stroke-linejoin:round;stroke-miterlimit:4;stroke-dasharray:none;stroke-opacity:1"
       transform="translate(261.87155,797.9481)" />
    <path
       id="path9041"
       d="m 490.41889,829.56226 a 12.199531,12.199531 0 0 1 -12.19953,12.19953 12.199531,12.199531 0 0 1 -12.19953,-12.19953 12.199531,12.199531 0 0 1 12.19953,-12.19953 12.199531,12.199531 0 0 1 12.19953,12.19953 z"
       style="opacity:1;fill:none;fill-opacity:1;stroke:#000000;stroke-width:0.40409154;stroke-linecap:round;stroke-linejoin:round;stroke-miterlimit:4;stroke-dasharray:none;stroke-opacity:1" />
    <path
       id="circle9044"
       d="m 48.639949,828.85834 a 12.199531,12.199531 0 0 1 -12.199531,12.19953 12.199531,12.199531 0 0 1 -12.19953,-12.19953 12.199531,12.199531 0 0 1 12.19953,-12.19953 12.199531,12.199531 0 0 1 12.199531,12.19953 z"
       style="opacity:1;fill:none;fill-opacity:1;stroke:#000000;stroke-width:0.40409154;stroke-linecap:round;stroke-linejoin:round;stroke-miterlimit:4;stroke-dasharray:none;stroke-opacity:1" />
    <path
       id="path9309"
       d="m -0.16745663,1050.5906 a 1.604197,1.604197 0 0 1 -1.60419707,1.6042 1.604197,1.604197 0 0 1 -1.604197,-1.6042 1.604197,1.604197 0 0 1 1.604197,-1.6042 1.604197,1.604197 0 0 1 1.60419707,1.6042 z"
       style="opacity:0.97000002;fill:none;fill-opacity:1;stroke:#000000;stroke-width:0.33491319;stroke-linecap:round;stroke-linejoin:round;stroke-miterlimit:4;stroke-dasharray:none;stroke-opacity:1"
       transform="scale(-1,1)" />
    <path
       id="circle9037"
       d="m -513.94707,791.92914 a 1.604197,1.604197 0 0 1 -1.6042,1.6042 1.604197,1.604197 0 0 1 -1.6042,-1.6042 1.604197,1.604197 0 0 1 1.6042,-1.6042 1.604197,1.604197 0 0 1 1.6042,1.6042 z"
       style="opacity:0.97000002;fill:none;fill-opacity:1;stroke:#000000;stroke-width:0.33491319;stroke-linecap:round;stroke-linejoin:round;stroke-miterlimit:4;stroke-dasharray:none;stroke-opacity:1"
       transform="scale(-1,1)" />
  </g>
  <g
     transform="translate(0,14.173191)"
     id="layer6" />
</svg>
