<?xml version="1.0" encoding="UTF-8" standalone="no"?>
<!-- Created with Inkscape (http://www.inkscape.org/) -->

<svg
   xmlns:dc="http://purl.org/dc/elements/1.1/"
   xmlns:cc="http://creativecommons.org/ns#"
   xmlns:rdf="http://www.w3.org/1999/02/22-rdf-syntax-ns#"
   xmlns:svg="http://www.w3.org/2000/svg"
   xmlns="http://www.w3.org/2000/svg"
   xmlns:sodipodi="http://sodipodi.sourceforge.net/DTD/sodipodi-0.dtd"
   xmlns:inkscape="http://www.inkscape.org/namespaces/inkscape"
   width="70mm"
   height="85mm"
   viewBox="0 0 248.03149 301.1811"
   id="svg2"
   version="1.1"
   inkscape:version="0.91 r13725"
   sodipodi:docname="ToolSlot.svg"
   enable-background="new">
  <sodipodi:namedview
     id="base"
     pagecolor="#5e5e5e"
     bordercolor="#919191"
     borderopacity="1"
     inkscape:pageopacity="0"
     inkscape:pageshadow="2"
     inkscape:zoom="1.9191109"
     inkscape:cx="124.01575"
     inkscape:cy="150.59054"
     inkscape:document-units="mm"
     inkscape:current-layer="layer1"
     showgrid="false"
     inkscape:window-width="681"
     inkscape:window-height="740"
     inkscape:window-x="683"
     inkscape:window-y="1"
     inkscape:window-maximized="0"
     showguides="true"
     inkscape:guide-bbox="true" />
  <defs
     id="defs4">
    <filter
       inkscape:collect="always"
       style="color-interpolation-filters:sRGB"
       id="filter4178">
      <feBlend
         inkscape:collect="always"
         mode="lighten"
         in2="BackgroundImage"
         id="feBlend4180" />
    </filter>
  </defs>
  <metadata
     id="metadata7">
    <rdf:RDF>
      <cc:Work
         rdf:about="">
        <dc:format>image/svg+xml</dc:format>
        <dc:type
           rdf:resource="http://purl.org/dc/dcmitype/StillImage" />
        <dc:title></dc:title>
      </cc:Work>
    </rdf:RDF>
  </metadata>
  <g
     inkscape:label="CardCutOut"
     inkscape:groupmode="layer"
     id="layer1"
     transform="translate(0,-751.1811)">
    <g
       id="g4187">
      <g
         transform="matrix(0.35277905,0,0,0.35277905,207.83966,733.02104)"
         id="g4243"
         style="opacity:1;filter:url(#filter4772)" />
      <path
         sodipodi:nodetypes="sccscscsssscs"
         inkscape:connector-curvature="0"
         id="path4146"
         d="m 214.74114,1044.3315 c 13.87557,-5.518 23.91101,-13.3911 23.91101,-22.4522 l 0,-225.36471 c 0,0 -0.52107,-31.52502 -31.52501,-31.52502 l -169.088696,0 c 0,0 -8.857119,0.19428 -8.952378,-8.30052 l -0.04034,-3.59765 c 3.631782,-1.13374 7.531997,-1.73298 11.577027,-1.73298 l 167.339057,0 c 22.02214,0 39.75197,17.76139 39.75197,39.82272 l 0,221.00266 c 0,20.2256 -14.90207,36.8355 -34.47295,39.4318 0,0 -0.95826,-6.3064 1.50031,-7.2841 z"
         style="fill:none;fill-opacity:0.2961877;stroke:#000000;stroke-width:0.35433072;stroke-linecap:round;stroke-linejoin:round;stroke-miterlimit:4;stroke-dasharray:none;stroke-opacity:1" />
      <g
         id="g4156">
        <circle
           style="fill:none;fill-opacity:0.2961877;stroke:#000000;stroke-width:0.11005465;stroke-linecap:round;stroke-linejoin:round;stroke-miterlimit:4;stroke-dasharray:none;stroke-opacity:1"
           id="path4152"
           cx="1.7716535"
           cy="1050.5906"
           r="1.7166262" />
        <circle
           r="1.7166262"
           cy="752.95276"
           cx="246.25984"
           id="circle4154"
           style="fill:none;fill-opacity:0.2961877;stroke:#000000;stroke-width:0.11005465;stroke-linecap:round;stroke-linejoin:round;stroke-miterlimit:4;stroke-dasharray:none;stroke-opacity:1" />
      </g>
    </g>
  </g>
  <g
     inkscape:groupmode="layer"
     id="layer4"
     inkscape:label="RoughLines"
     sodipodi:insensitive="true"
     style="display:none;opacity:0.40800003">
    <path
       style="display:inline;opacity:1;fill:none;fill-opacity:0.2961877;stroke:#000000;stroke-width:0.35433072;stroke-linecap:round;stroke-linejoin:round;stroke-miterlimit:4;stroke-dasharray:none;stroke-opacity:1"
       d="m -12.50579,192.27652 c 0.862795,-1.2941 2.124141,-0.18698 3.1264477,-0.52108 0.2330316,-0.0777 0.3166923,-0.38482 0.5210746,-0.52107 0.3231567,-0.21544 0.6947661,-0.34739 1.0421491,-0.52108 0.3473831,-0.17369 0.6815418,-0.37683 1.0421492,-0.52107 0.5099758,-0.20399 1.0922364,-0.23848 1.5632237,-0.52108 0.4212638,-0.25275 0.6208853,-0.78939 1.0421491,-1.04215 0.4709873,-0.28259 1.0719499,-0.27543 1.5632237,-0.52107 0.5601384,-0.28007 1.0194833,-0.73144 1.5632238,-1.04215 0.67442701,-0.38539 1.40987119,-0.65676 2.0842982,-1.04215 0.5437405,-0.31071 1.0194833,-0.73144 1.5632238,-1.04215 0.674427,-0.38538 1.3895321,-0.69476 2.0842982,-1.04215 1.3895322,-0.69476 2.74895,-1.45334 4.1685966,-2.08429 4.8927893,-2.17458 0.4556975,-0.1519 4.6896713,-1.56323 1.774716,-0.59157 3.47383,-1.38953 5.210746,-2.0843 0.868457,-0.34738 1.709462,-0.77337 2.605372,-1.04215 0.848305,-0.25449 1.750924,-0.28804 2.605373,-0.52107 1.059814,-0.28904 2.060725,-0.77572 3.126448,-1.04215 1.024979,-0.25624 2.084298,-0.34738 3.126447,-0.52107 1.042149,-0.1737 2.084298,-0.34739 3.126448,-0.52108 1.042149,-0.17369 2.073572,-0.43333 3.126447,-0.52107 1.038549,-0.0865 2.084298,0 3.126447,0 1.215841,0 2.431682,0 3.647522,0 1.215841,0 2.435263,-0.0932 3.647522,0 1.053413,0.081 2.082209,0.36042 3.126448,0.52107 5.307582,0.81655 2.046248,0.0636 7.295044,1.56323 1.215841,0.34738 2.431681,0.69476 3.647522,1.04214 1.215841,0.34739 2.456695,0.61686 3.647522,1.04215 1.245732,0.44491 2.431681,1.04215 3.647522,1.56323 1.215841,0.52107 2.464378,0.97165 3.647522,1.56322 1.252507,0.62625 2.411923,1.42531 3.647522,2.0843 2.741548,1.46216 5.629131,2.64531 8.337193,4.1686 1.428166,0.80334 2.740431,1.80203 4.168597,2.60537 1.354031,0.76164 2.814565,1.32265 4.168596,2.0843 1.428166,0.80334 2.756229,1.77457 4.168597,2.60537 3.082731,1.81337 6.296614,3.39737 9.379344,5.21075 9.32297,5.4841 -1.27794,-0.46253 8.85827,5.73182 1.52589,0.93249 3.16377,1.67288 4.68967,2.60537 1.60311,0.97968 3.12644,2.0843 4.68967,3.12645 3.12645,2.08429 6.2024,4.2464 9.37934,6.25289 3.4252,2.16329 6.97694,4.12056 10.42149,6.2529 1.92556,1.19201 3.80626,2.4555 5.73182,3.64752 7.36392,4.55861 3.22077,1.95226 11.46364,6.25289 5.6544,2.95012 6.05864,3.53678 11.98472,6.2529 2.05266,0.9408 4.20023,1.66457 6.25289,2.60537 6.55875,3.0061 6.18444,3.46524 13.02687,6.2529 2.39127,0.97422 4.90377,1.63115 7.29504,2.60537 2.30309,0.93829 4.51598,2.0843 6.77397,3.12645 2.43168,0.86845 4.89174,1.66121 7.29504,2.60537 2.46239,0.96736 4.82143,2.18818 7.29505,3.12645 2.56779,0.97398 5.24833,1.63138 7.81612,2.60537 2.47362,0.93827 4.83265,2.15908 7.29504,3.12645 2.4033,0.94415 4.86336,1.73691 7.29504,2.60537 2.43169,0.86846 4.83681,1.81522 7.29505,2.60537 2.40767,0.77389 4.86336,1.38953 7.29504,2.0843 5.23624,1.49607 14.968,4.54737 21.36406,5.73182 2.4153,0.44728 4.86336,0.69477 7.29504,1.04215"
       id="path4154"
       inkscape:connector-curvature="0" />
    <path
       style="display:inline;opacity:1;fill:none;fill-opacity:0.2961877;stroke:#000000;stroke-width:0.35433072;stroke-linecap:round;stroke-linejoin:round;stroke-miterlimit:4;stroke-dasharray:none;stroke-opacity:1"
       d="m -9.3793423,139.12691 c 0,-0.86846 0,-1.73691 0,-2.60537 0,-0.17369 -0.077677,-0.36572 0,-0.52108 0.1098522,-0.2197 0.4112224,-0.30137 0.5210746,-0.52107 0.077677,-0.15536 -0.077677,-0.36572 0,-0.52108 0.1098521,-0.2197 0.347383,-0.34738 0.5210746,-0.52107 0.1736915,-0.17369 0.3013702,-0.41122 0.5210745,-0.52108 0.1553544,-0.0777 0.3657202,0.0777 0.5210746,0 0.2197043,-0.10985 0.3166923,-0.38481 0.5210746,-0.52107 0.3231567,-0.21544 0.6947661,-0.34738 1.0421491,-0.52107 0.3473831,-0.1737 0.6613053,-0.44491 1.0421492,-0.52108 0.5109556,-0.10219 1.0492389,0.0857 1.5632237,0 0.5417875,-0.0903 1.0214361,-0.43078 1.5632237,-0.52107 0.5139848,-0.0857 1.04923891,0.0857 1.5632237,0 0.54178754,-0.0903 1.0182043,-0.45295 1.5632237,-0.52108 3.6508911,-0.45636 1.49124,0.1657 4.6896712,0.52108 0.8631459,0.0959 1.7412252,-0.0864 2.6053728,0 3.0041983,0.30042 2.6065723,0.78191 5.7318203,1.56322 4.329579,1.0824 1.999831,-0.20889 6.252895,1.56322 1.07553,0.44814 2.068531,1.07496 3.126447,1.56323 2.648052,1.22218 4.288067,1.67634 6.77397,3.12645 1.081889,0.6311 2.059739,1.42786 3.126447,2.08429 1.562232,0.96138 5.732812,3.20723 7.295044,4.1686 1.066708,0.65644 2.059739,1.42786 3.126448,2.0843 1.192616,0.73392 2.469581,1.32705 3.647522,2.0843 1.256847,0.80797 2.431681,1.73691 3.647522,2.60537 1.21584,0.86846 2.463222,1.69437 3.647522,2.60537 1.075253,0.82712 2.051194,1.77826 3.126447,2.60538 2.3686,1.822 4.945287,3.3645 7.295044,5.21074 1.259176,0.98935 2.431681,2.0843 3.647522,3.12645 1.215841,1.04215 2.431681,2.0843 3.647522,3.12645 1.481074,1.26949 6.556648,5.59846 7.816119,6.77397 1.257019,1.17321 2.387514,2.47751 3.647522,3.64752 1.173463,1.08964 2.476841,2.03381 3.647522,3.12644 1.436593,1.34082 2.734986,2.82459 4.168596,4.1686 1.346993,1.26281 2.818801,2.38771 4.168597,3.64752 1.257019,1.17322 2.390503,2.47431 3.647524,3.64753 1.34979,1.2598 2.86302,2.34194 4.16859,3.64752 1.30558,1.30558 2.38772,2.8188 3.64753,4.16859 4.68545,5.02013 2.6409,2.44328 7.81611,7.29505 1.43361,1.34401 2.82459,2.73498 4.1686,4.16859 1.26281,1.347 2.38472,2.82161 3.64752,4.1686 3.73394,3.98287 4.32481,4.27578 8.3372,7.81612 1.34959,1.19082 7.28244,6.50293 8.85826,7.81612 6.09612,5.0801 3.85131,3.15618 9.90042,7.29504 1.7498,1.19723 3.4331,2.49205 5.21075,3.64752 3.69232,2.40001 7.06906,4.14008 10.94256,6.2529 7.57428,4.13142 3.75055,2.22587 11.46364,5.73182 7.78742,3.53973 3.79454,1.79817 11.98472,5.21074 2.0843,0.86846 4.13867,1.81254 6.25289,2.60538 2.05716,0.77143 4.1686,1.38953 6.2529,2.0843 2.0843,0.69476 4.13722,1.49191 6.25289,2.08429 2.23151,0.62483 4.51598,1.04215 6.77397,1.56323 2.25799,0.52107 4.51598,1.04215 6.77397,1.56322 2.25799,0.52108 4.48358,1.21086 6.77397,1.56323 2.23833,0.34435 4.5155,0.35378 6.77397,0.52107 9.20632,0.68195 5.17298,0.52107 14.06901,0.52107 2.43169,0 4.86955,0.17325 7.29505,0 2.45013,-0.175 4.87371,-0.62875 7.29504,-1.04214 14.47464,-2.47128 10.58661,-1.61041 21.36406,-4.68968 4.42789,-1.26511 9.22189,-2.52057 13.54794,-4.16859 1.59859,-0.60899 3.12645,-1.38953 4.68967,-2.0843"
       id="path4156"
       inkscape:connector-curvature="0" />
  </g>
  <g
     style="display:inline;opacity:1;filter:url(#filter4178)"
     inkscape:groupmode="layer"
     id="layer3"
     inkscape:label="Lines" />
  <g
     inkscape:groupmode="layer"
     id="layer2"
     inkscape:label="Graphics" />
</svg>
