<?xml version="1.0" encoding="UTF-8" standalone="no"?>
<!-- Created with Inkscape (http://www.inkscape.org/) -->

<svg
   xmlns:dc="http://purl.org/dc/elements/1.1/"
   xmlns:cc="http://creativecommons.org/ns#"
   xmlns:rdf="http://www.w3.org/1999/02/22-rdf-syntax-ns#"
   xmlns:svg="http://www.w3.org/2000/svg"
   xmlns="http://www.w3.org/2000/svg"
   xmlns:sodipodi="http://sodipodi.sourceforge.net/DTD/sodipodi-0.dtd"
   xmlns:inkscape="http://www.inkscape.org/namespaces/inkscape"
   width="70mm"
   height="85mm"
   viewBox="0 0 248.03149 301.1811"
   id="svg2"
   version="1.1"
   inkscape:version="0.91 r13725"
   sodipodi:docname="Card_2_BackElectronics.svg"
   enable-background="new">
  <sodipodi:namedview
     id="base"
     pagecolor="#5e5e5e"
     bordercolor="#919191"
     borderopacity="1"
     inkscape:pageopacity="0"
     inkscape:pageshadow="2"
     inkscape:zoom="1.1321772"
     inkscape:cx="243.6718"
     inkscape:cy="169.05277"
     inkscape:document-units="mm"
     inkscape:current-layer="layer1"
     showgrid="false"
     inkscape:window-width="895"
     inkscape:window-height="740"
     inkscape:window-x="0"
     inkscape:window-y="1"
     inkscape:window-maximized="0"
     inkscape:snap-center="true"
     inkscape:snap-nodes="false"
     inkscape:snap-global="false"
     showguides="false" />
  <defs
     id="defs4">
    <filter
       inkscape:collect="always"
       style="color-interpolation-filters:sRGB"
       id="filter4755">
      <feBlend
         inkscape:collect="always"
         mode="lighten"
         in2="BackgroundImage"
         id="feBlend4757" />
    </filter>
    <filter
       inkscape:collect="always"
       style="color-interpolation-filters:sRGB"
       id="filter4772">
      <feBlend
         inkscape:collect="always"
         mode="lighten"
         in2="BackgroundImage"
         id="feBlend4774" />
    </filter>
  </defs>
  <metadata
     id="metadata7">
    <rdf:RDF>
      <cc:Work
         rdf:about="">
        <dc:format>image/svg+xml</dc:format>
        <dc:type
           rdf:resource="http://purl.org/dc/dcmitype/StillImage" />
        <dc:title />
      </cc:Work>
    </rdf:RDF>
  </metadata>
  <g
     inkscape:groupmode="layer"
     id="layer2"
     inkscape:label="CardCutOut"
     style="opacity:1;filter:url(#filter4772)">
    <path
       style="fill:none;fill-opacity:1;stroke:#000000;stroke-width:0.5669291;stroke-linecap:round;stroke-miterlimit:4;stroke-dasharray:none;stroke-opacity:1"
       d="m 64.06302,81.035797 0,219.627813"
       id="path4349"
       inkscape:connector-curvature="0"
       sodipodi:nodetypes="cc" />
    <g
       style="display:inline;opacity:1;filter:url(#filter4772)"
       id="g4344"
       transform="matrix(-1,0,0,1,247.88879,0)">
      <g
         transform="matrix(0.85454436,0,0,1.0059338,34.042118,-0.9324623)"
         id="g4689">
        <path
           transform="translate(0,-751.1811)"
           sodipodi:nodetypes="cscsssssscccccccccccc"
           inkscape:connector-curvature="0"
           id="rect8026"
           d="m 250.12266,787.51915 c 1.3e-4,-19.49119 -18.47134,-35.18267 -41.41556,-35.18267 l -207.0047565,0 1.17e-5,0 c -22.9442252,0 -41.4155692,15.69148 -41.4155692,35.18267 l 0,228.68735 c 0,19.4912 18.471344,35.1827 41.4155692,35.1827 l 207.0047548,0 c 22.94423,0 41.41557,-9.8768 41.41557,-29.3681 l 0,-1.3842 c -0.10089,-2.0896 -3.91335,-2.2758 -3.91335,-2.2758 l -10.63848,-0.6033 c -5.23251,-0.3286 -6.97867,-3.3164 -7.26156,-4.5822 l -0.0742,-3.6447 c 0,-2.6947 2.43283,-3.0531 6.00286,-3.79 l 11.79621,-1.301 c 0,0 3.78006,-0.042 3.78006,-3.4003 l 0,-6.40147 0.30185,-94.19012 c 0.005,-38.00539 0.006,-74.92348 0.007,-112.92886 z"
           style="fill:none;fill-opacity:1;stroke:#000000;stroke-width:0.24671572;stroke-linecap:round;stroke-miterlimit:4;stroke-dasharray:none;stroke-opacity:1" />
      </g>
      <rect
         ry="4.440918"
         y="166.7946"
         x="8.9930668"
         height="27.933796"
         width="11.988915"
         id="rect4158-6"
         style="fill:none;fill-opacity:1;stroke:#000000;stroke-width:0.41265979;stroke-linecap:round;stroke-miterlimit:4;stroke-dasharray:none;stroke-opacity:1" />
    </g>
    <circle
       style="display:inline;opacity:1;filter:url(#filter4772);fill:none;fill-opacity:1;stroke:#000000;stroke-width:0.99290049;stroke-linecap:round;stroke-miterlimit:4;stroke-dasharray:none;stroke-opacity:1"
       id="path4353"
       cx="31.889765"
       cy="43.631145"
       r="17.220085" />
  </g>
  <g
     inkscape:groupmode="layer"
     id="layer3"
     inkscape:label="Trace"
     style="display:inline;opacity:0.48800001" />
  <g
     transform="translate(0,-751.1811)"
     id="layer1"
     inkscape:groupmode="layer"
     inkscape:label="Graphics"
     style="opacity:1;filter:url(#filter4755)">
    <g
       id="g4808">
      <rect
         transform="translate(0,751.1811)"
         ry="8.2354698"
         y="85.39312"
         x="14.561389"
         height="165.75911"
         width="34.656746"
         id="rect4357"
         style="opacity:1;filter:url(#filter4772);display:inline;fill:none;fill-opacity:1;stroke:#000000;stroke-width:0.77632511;stroke-linecap:round;stroke-miterlimit:4;stroke-dasharray:none;stroke-opacity:1" />
      <g
         id="g4763">
        <g
           style="display:inline;opacity:1;filter:url(#filter4772)"
           id="g4764"
           transform="matrix(0.47748723,0,0,0.47748723,-19.660502,814.47696)">
          <g
             transform="translate(0,0.16701521)"
             id="g4400">
            <path
               style="fill:none;fill-opacity:1;stroke:#000000;stroke-width:0.5669291;stroke-linecap:round;stroke-miterlimit:4;stroke-dasharray:none;stroke-opacity:1"
               inkscape:transform-center-x="3.3240543"
               d="m 113.53012,117.25621 0,11.51486 0,11.51486 -10.71336,-6.16617 -24.143313,-0.40873 0,-9.87992 24.402063,-0.40874 z"
               id="path4393"
               inkscape:connector-curvature="0"
               sodipodi:nodetypes="cccccccc" />
            <path
               style="fill:none;fill-opacity:1;stroke:#000000;stroke-width:0.56322068;stroke-linecap:round;stroke-miterlimit:4;stroke-dasharray:none;stroke-opacity:1"
               d="m 113.43613,117.12394 4.39107,0 0,23.29427 -4.39107,0 z"
               id="rect4395"
               inkscape:connector-curvature="0"
               sodipodi:nodetypes="ccccc" />
          </g>
          <g
             id="g4410">
            <path
               style="fill:none;fill-opacity:1;stroke:#000000;stroke-width:0.5669291;stroke-linecap:round;stroke-miterlimit:4;stroke-dasharray:none;stroke-opacity:1"
               d="m 122.40125,128.92284 14.271,0"
               id="path4404"
               inkscape:connector-curvature="0" />
            <path
               style="fill:none;fill-opacity:1;stroke:#000000;stroke-width:0.5669291;stroke-linecap:round;stroke-miterlimit:4;stroke-dasharray:none;stroke-opacity:1"
               d="M 121.85237,124.16584 136.0705,115.957"
               id="path4406"
               inkscape:connector-curvature="0" />
            <path
               inkscape:connector-curvature="0"
               id="path4408"
               d="m 136.0705,141.9131 -14.21813,-8.20884"
               style="fill:none;fill-opacity:1;stroke:#000000;stroke-width:0.5669291;stroke-linecap:round;stroke-miterlimit:4;stroke-dasharray:none;stroke-opacity:1" />
          </g>
        </g>
        <g
           id="g4440"
           transform="translate(0,73.089264)">
          <rect
             ry="8.0699539"
             y="894.86652"
             x="14.692931"
             height="34.393661"
             width="34.393661"
             id="rect4785"
             style="fill:none;fill-opacity:1;stroke:#000000;stroke-width:0.68507761;stroke-linecap:round;stroke-miterlimit:4;stroke-dasharray:none;stroke-opacity:1;filter:url(#filter4772)" />
          <rect
             style="fill:none;fill-opacity:1;stroke:#000000;stroke-width:0.55359811;stroke-linecap:round;stroke-miterlimit:4;stroke-dasharray:none;stroke-opacity:1;filter:url(#filter4772)"
             id="rect4787"
             width="27.792858"
             height="27.792858"
             x="17.993332"
             y="898.16693"
             ry="6.5211749" />
        </g>
        <path
           sodipodi:type="star"
           style="fill:none;fill-opacity:1;stroke:#000000;stroke-width:0.5669291;stroke-linecap:round;stroke-miterlimit:4;stroke-dasharray:none;stroke-opacity:1;filter:url(#filter4772)"
           id="path4415"
           sodipodi:sides="3"
           sodipodi:cx="100.26291"
           sodipodi:cy="224.33727"
           sodipodi:r1="12.441383"
           sodipodi:r2="6.2206912"
           sodipodi:arg1="-1.5707963"
           sodipodi:arg2="-0.52359878"
           inkscape:flatsided="false"
           inkscape:rounded="0"
           inkscape:randomized="0"
           d="m 100.26291,211.89588 5.38728,9.33104 5.38727,9.33104 -10.77455,0 -10.774555,0 5.387277,-9.33104 z"
           inkscape:transform-center-y="-3.1103457"
           transform="matrix(0.15445394,0.15445394,-0.26894049,0.26894049,78.581468,834.84469)" />
        <path
           transform="matrix(-0.15445394,-0.15445394,0.26894049,-0.26894049,-14.742855,990.11302)"
           inkscape:transform-center-y="3.1103416"
           d="m 100.26291,211.89588 5.38728,9.33104 5.38727,9.33104 -10.77455,0 -10.774555,0 5.387277,-9.33104 z"
           inkscape:randomized="0"
           inkscape:rounded="0"
           inkscape:flatsided="false"
           sodipodi:arg2="-0.52359878"
           sodipodi:arg1="-1.5707963"
           sodipodi:r2="6.2206912"
           sodipodi:r1="12.441383"
           sodipodi:cy="224.33727"
           sodipodi:cx="100.26291"
           sodipodi:sides="3"
           id="path4417"
           style="fill:none;fill-opacity:1;stroke:#000000;stroke-width:0.5669291;stroke-linecap:round;stroke-miterlimit:4;stroke-dasharray:none;stroke-opacity:1;filter:url(#filter4772)"
           sodipodi:type="star" />
        <circle
           style="fill:none;fill-opacity:1;stroke:#000000;stroke-width:0.50814992;stroke-linecap:round;stroke-miterlimit:4;stroke-dasharray:none;stroke-opacity:1;filter:url(#filter4772)"
           id="path4419"
           cx="113.0151"
           cy="183.04311"
           r="26.320728"
           transform="matrix(0.42843357,0,0,0.42843357,-16.500155,834.05705)" />
        <circle
           r="21.056583"
           cy="183.04311"
           cx="113.0151"
           id="circle4427"
           style="fill:none;fill-opacity:1;stroke:#000000;stroke-width:0.40651995;stroke-linecap:round;stroke-miterlimit:4;stroke-dasharray:none;stroke-opacity:1;filter:url(#filter4772)"
           transform="matrix(0.42843357,0,0,0.42843357,-16.500155,834.05705)" />
        <path
           style="fill:none;fill-opacity:1;stroke:#000000;stroke-width:0.5669291;stroke-linecap:round;stroke-miterlimit:4;stroke-dasharray:none;stroke-opacity:1;filter:url(#filter4772)"
           d="m 110.33929,171.18695 0,-5.21441 5.35162,5.35163 0,-5.26014"
           id="path4429"
           inkscape:connector-curvature="0"
           transform="matrix(0.42843357,0,0,0.42843357,-16.500155,834.05705)" />
        <g
           style="display:inline;opacity:1;filter:url(#filter4755)"
           id="g4598"
           transform="matrix(0.449375,0,0,0.449375,-12.337593,511.74906)">
          <g
             transform="translate(0,763.85969)"
             id="g4496"
             style="opacity:1;filter:url(#filter4772)">
            <path
               style="color:#000000;font-style:normal;font-variant:normal;font-weight:normal;font-stretch:normal;font-size:medium;line-height:normal;font-family:sans-serif;text-indent:0;text-align:start;text-decoration:none;text-decoration-line:none;text-decoration-style:solid;text-decoration-color:#000000;letter-spacing:normal;word-spacing:normal;text-transform:none;direction:ltr;block-progression:tb;writing-mode:lr-tb;baseline-shift:baseline;text-anchor:start;white-space:normal;clip-rule:nonzero;display:inline;overflow:visible;visibility:visible;opacity:1;isolation:auto;mix-blend-mode:normal;color-interpolation:sRGB;color-interpolation-filters:linearRGB;solid-color:#000000;solid-opacity:1;fill:#000000;fill-opacity:1;fill-rule:nonzero;stroke:none;stroke-width:0.5669291;stroke-linecap:round;stroke-linejoin:miter;stroke-miterlimit:4;stroke-dasharray:none;stroke-dashoffset:0;stroke-opacity:1;color-rendering:auto;image-rendering:auto;shape-rendering:auto;text-rendering:auto;enable-background:accumulate"
               d="m 98.841797,205.67969 c -5.454459,0 -10.392134,0.69579 -13.990235,1.83203 -1.79905,0.56812 -3.264068,1.24306 -4.298828,2.01562 -1.034759,0.77257 -1.660156,1.66584 -1.660156,2.64454 0,0.97869 0.625397,1.87196 1.660156,2.64453 1.03476,0.77256 2.499778,1.44945 4.298828,2.01757 3.598101,1.13625 8.535776,1.83204 13.990235,1.83204 5.454463,0 10.392133,-0.69579 13.990233,-1.83204 1.79905,-0.56812 3.26407,-1.24501 4.29883,-2.01757 1.03476,-0.77257 1.6582,-1.66584 1.6582,-2.64453 0,-0.9787 -0.62344,-1.87197 -1.6582,-2.64454 -1.03476,-0.77256 -2.49978,-1.4475 -4.29883,-2.01562 -3.5981,-1.13624 -8.53577,-1.83203 -13.990233,-1.83203 z m 0,0.5664 c 5.406083,0 10.299223,0.69338 13.818363,1.80469 1.75957,0.55565 3.17543,1.21831 4.13086,1.93164 0.95542,0.71333 1.43164,1.45332 1.43164,2.18946 0,0.73613 -0.47622,1.47612 -1.43164,2.18945 -0.95543,0.71333 -2.37129,1.37599 -4.13086,1.93164 -3.51914,1.11131 -8.41228,1.80664 -13.818363,1.80664 -5.406081,0 -10.301175,-0.69533 -13.820313,-1.80664 -1.759569,-0.55565 -3.175438,-1.21831 -4.130859,-1.93164 -0.955421,-0.71333 -1.431641,-1.45332 -1.431641,-2.18945 0,-0.73614 0.47622,-1.47613 1.431641,-2.18946 0.955421,-0.71333 2.37129,-1.37599 4.130859,-1.93164 3.519138,-1.11131 8.414232,-1.80469 13.820313,-1.80469 z"
               id="path4453"
               inkscape:connector-curvature="0" />
            <path
               style="color:#000000;font-style:normal;font-variant:normal;font-weight:normal;font-stretch:normal;font-size:medium;line-height:normal;font-family:sans-serif;text-indent:0;text-align:start;text-decoration:none;text-decoration-line:none;text-decoration-style:solid;text-decoration-color:#000000;letter-spacing:normal;word-spacing:normal;text-transform:none;direction:ltr;block-progression:tb;writing-mode:lr-tb;baseline-shift:baseline;text-anchor:start;white-space:normal;clip-rule:nonzero;display:inline;overflow:visible;visibility:visible;opacity:1;isolation:auto;mix-blend-mode:normal;color-interpolation:sRGB;color-interpolation-filters:linearRGB;solid-color:#000000;solid-opacity:1;fill:#000000;fill-opacity:1;fill-rule:nonzero;stroke:none;stroke-width:0.5669291;stroke-linecap:round;stroke-linejoin:miter;stroke-miterlimit:4;stroke-dasharray:none;stroke-dashoffset:0;stroke-opacity:1;color-rendering:auto;image-rendering:auto;shape-rendering:auto;text-rendering:auto;enable-background:accumulate"
               d="m 98.841797,204.19336 c -6.752764,0 -12.870088,0.86158 -17.349609,2.49805 -2.239761,0.81823 -4.07145,1.83023 -5.369141,3.04297 -1.297691,1.21273 -2.061242,2.64086 -2.107422,4.24023 l 0,0.0137 0.002,0.0137 c 0.625135,9.91798 5.73393,15.96922 12.351563,19.0293 6.615145,3.05893 14.717902,3.16578 21.433592,1.32422 3.88372,-0.94727 6.80417,-2.76354 9.45508,-5.28125 l 0.002,0 c 4.11313,-3.92008 6.48776,-7.89195 6.40625,-15.09375 l 0,-0.002 0,-0.004 c -0.0462,-1.59937 -0.80778,-3.0275 -2.10547,-4.24023 -1.29769,-1.21274 -3.13134,-2.22474 -5.3711,-3.04297 -4.47952,-1.63647 -10.59489,-2.49805 -17.347656,-2.49805 z m 0,0.56836 c 6.704383,0 12.771193,0.86164 17.154293,2.46289 2.19156,0.80062 3.96021,1.78601 5.17774,2.92383 1.21698,1.13731 1.88392,2.41152 1.92578,3.84179 2e-5,6.5e-4 -2e-5,0.001 0,0.002 0.0786,7.07205 -2.17901,10.80648 -6.23242,14.66992 -2.59933,2.46873 -5.4135,4.21921 -9.19922,5.14258 l -0.004,0.002 -0.004,0 c -6.59911,1.81132 -14.591214,1.69883 -21.052738,-1.28906 -6.456723,-2.98567 -11.401586,-8.80624 -12.021484,-18.5332 0.04364,-1.42771 0.708631,-2.70031 1.923828,-3.83594 1.217534,-1.13782 2.986182,-2.12321 5.177734,-2.92383 4.383104,-1.60125 10.44991,-2.46289 17.154297,-2.46289 z"
               id="path4466"
               inkscape:connector-curvature="0" />
          </g>
          <g
             style="stroke-width:1.04476643;stroke-miterlimit:4;stroke-dasharray:none"
             transform="matrix(0.33914825,0,0,0.33914825,-205.13548,635.88444)"
             id="g4591">
            <path
               style="fill:none;fill-opacity:1;stroke:#000000;stroke-width:1.04476643;stroke-linecap:round;stroke-miterlimit:4;stroke-dasharray:none;stroke-opacity:1"
               d="m 836.76294,928.68022 c 18.29615,-23.05315 14.271,-28.17607 11.70954,-36.5923 -6.08318,-19.279 17.5643,5.80068 17.5643,18.29615 0.0359,20.56846 -25.27784,31.31219 -16.83246,48.30184 4.757,8.78215 9.42252,14.17952 9.42252,14.17952 0,0 2.46998,4.20811 -1.46369,3.84219 0,0 -38.69636,-24.97425 -20.40021,-48.0274 z"
               id="path4587"
               inkscape:connector-curvature="0"
               sodipodi:nodetypes="scccccs" />
            <path
               style="fill:none;fill-opacity:1;stroke:#000000;stroke-width:1.04476643;stroke-linecap:round;stroke-miterlimit:4;stroke-dasharray:none;stroke-opacity:1"
               d="m 859.63313,953.56299 c 0,-17.05164 13.4459,-14.66981 13.4459,-34.59528 -0.43875,-30.74426 15.46578,11.86057 8.69244,21.42205 -17.20594,22.16167 2.40146,34.35427 1.00629,34.94565 0,0 -22.41278,-7.68439 -23.14463,-21.77242 z"
               id="path4589"
               inkscape:connector-curvature="0"
               sodipodi:nodetypes="ccccc" />
          </g>
        </g>
        <g
           style="display:inline;opacity:1;filter:url(#filter4755)"
           id="g4744"
           transform="matrix(0.47899013,0,0,0.47899013,-104.17436,525.06455)">
          <g
             style="stroke-width:0.35433072;stroke-miterlimit:4;stroke-dasharray:none"
             transform="translate(-37.486872,66.435107)"
             id="g4721">
            <path
               style="fill:none;fill-opacity:1;stroke:#000000;stroke-width:0.35433072;stroke-linecap:round;stroke-miterlimit:4;stroke-dasharray:none;stroke-opacity:1"
               d="m 314.7653,902.87132 0.12938,3.68714 -0.90562,0.0647 -0.12937,7.24491 1.22905,0 -0.0647,3.62245 30.27336,-0.32343 0.19406,-0.9703 3.62245,-0.12938 0.12937,-1.74654 1.03499,-1.16436 0.19406,-2.65215 -1.81123,-1.68185 -1.9406,-0.25875 -1.48779,-0.64687 -2.97559,-0.25874 -12.67858,-5.8218 -2.97559,-0.12938 -3.49308,4.07526 c 0,0 -3.8812,0.12938 -4.91618,-0.84092 -1.03499,-0.9703 -1.29374,-2.13466 -1.29374,-2.13466 z"
               id="path4685"
               inkscape:connector-curvature="0" />
            <path
               style="fill:none;fill-opacity:1;stroke:#000000;stroke-width:0.35433072;stroke-linecap:round;stroke-miterlimit:4;stroke-dasharray:none;stroke-opacity:1"
               d="m 314.57124,913.60931 11.6436,0.71155 0.71155,0.77624 16.94791,-0.19406 0.64687,-0.64686 4.65744,0"
               id="path4687"
               inkscape:connector-curvature="0" />
            <path
               style="fill:none;fill-opacity:1;stroke:#000000;stroke-width:0.35433072;stroke-linecap:round;stroke-miterlimit:4;stroke-dasharray:none;stroke-opacity:1"
               d="m 313.92438,906.8819 c 0,0 8.15051,1.55248 8.15051,6.85678"
               id="path4689"
               inkscape:connector-curvature="0" />
            <path
               style="fill:none;fill-opacity:1;stroke:#000000;stroke-width:0.35433072;stroke-linecap:round;stroke-miterlimit:4;stroke-dasharray:none;stroke-opacity:1"
               d="m 320.97522,910.05154 c 0.58218,0 6.27461,1.42311 9.76769,1.81123 3.49308,0.38812 5.88648,1.22905 5.95117,1.68185"
               id="path4691"
               inkscape:connector-curvature="0" />
            <path
               style="fill:none;fill-opacity:1;stroke:#000000;stroke-width:0.35433072;stroke-linecap:round;stroke-miterlimit:4;stroke-dasharray:none;stroke-opacity:1"
               d="m 336.95283,913.54462 c 0,0 3.75182,-2.58746 5.3043,-2.71684 1.55248,-0.12937 3.55777,-0.38812 3.94589,-0.71155 0.38812,-0.32343 0.71155,-1.35842 0.71155,-1.35842"
               id="path4693"
               inkscape:connector-curvature="0" />
            <path
               style="fill:none;fill-opacity:1;stroke:#000000;stroke-width:0.35433072;stroke-linecap:round;stroke-miterlimit:4;stroke-dasharray:none;stroke-opacity:1"
               d="m 324.79173,909.98686 c 0,0 3.4284,-2.06998 5.43368,-2.00529 2.00529,0.0647 6.66273,0.58218 6.66273,0.58218 l -3.68714,3.16965"
               id="path4695"
               inkscape:connector-curvature="0" />
            <path
               style="fill:none;fill-opacity:1;stroke:#000000;stroke-width:0.35433072;stroke-linecap:round;stroke-miterlimit:4;stroke-dasharray:none;stroke-opacity:1"
               d="m 337.34095,908.49906 c 0,0 5.88648,-0.4528 6.72741,-0.4528"
               id="path4697"
               inkscape:connector-curvature="0" />
            <path
               style="fill:none;fill-opacity:1;stroke:#000000;stroke-width:0.35433072;stroke-linecap:round;stroke-miterlimit:4;stroke-dasharray:none;stroke-opacity:1"
               d="m 337.98781,906.04097 -1.4231,0.51749"
               id="path4699"
               inkscape:connector-curvature="0" />
            <path
               style="fill:none;fill-opacity:1;stroke:#000000;stroke-width:0.35433072;stroke-linecap:round;stroke-miterlimit:4;stroke-dasharray:none;stroke-opacity:1"
               d="m 336.43533,905.00598 -2.52278,0.71156"
               id="path4701"
               inkscape:connector-curvature="0" />
            <path
               style="fill:none;fill-opacity:1;stroke:#000000;stroke-width:0.35433072;stroke-linecap:round;stroke-miterlimit:4;stroke-dasharray:none;stroke-opacity:1"
               d="m 333.201,903.51819 c -0.25875,0.0647 -2.45809,1.09967 -2.45809,1.09967"
               id="path4703"
               inkscape:connector-curvature="0" />
          </g>
          <g
             style="stroke-width:0.35433072;stroke-miterlimit:4;stroke-dasharray:none"
             transform="matrix(1.2530101,0,0,1.2530101,-134.72464,-248.66011)"
             id="g4733">
            <path
               style="fill:none;fill-opacity:1;stroke:#000000;stroke-width:0.35433072;stroke-linecap:round;stroke-miterlimit:4;stroke-dasharray:none;stroke-opacity:1"
               d="m 342.96869,961.86556 7.2449,-3.16965 -1.03498,-2.19934 c 0,0 -0.26266,-3.97628 -0.59314,-6.52253 -0.68842,-3.57872 -2.10472,-3.26368 -6.39302,-3.56859 l -0.25875,-0.90561 -20.82911,0.38812 -0.51749,0.70323 -2.19934,0.073 c -2.06884,0.0687 -3.23434,3.62245 -3.23434,3.62245 l -0.43663,6.1614 5.53071,2.39341"
               id="path4707"
               inkscape:connector-curvature="0"
               sodipodi:nodetypes="ccccccccsccc" />
            <path
               sodipodi:nodetypes="ccccc"
               style="fill:none;fill-opacity:1;stroke:#000000;stroke-width:0.35433072;stroke-linecap:round;stroke-miterlimit:4;stroke-dasharray:none;stroke-opacity:1"
               d="m 342.83931,954.55597 0,16.15539 m -15.70806,11.91862 -6.8029,0 0,-27.81527"
               id="path4709"
               inkscape:connector-curvature="0" />
            <path
               sodipodi:nodetypes="ccc"
               style="fill:none;fill-opacity:1;stroke:#000000;stroke-width:0.35433072;stroke-linecap:round;stroke-miterlimit:4;stroke-dasharray:none;stroke-opacity:1"
               d="m 320.19898,961.59064 -6.33929,-3.0241 0.77624,-2.00528"
               id="path4713"
               inkscape:connector-curvature="0" />
            <path
               style="fill:none;fill-opacity:1;stroke:#000000;stroke-width:0.35433072;stroke-linecap:round;stroke-miterlimit:4;stroke-dasharray:none;stroke-opacity:1"
               d="m 342.98486,959.43981 6.31709,-2.58029"
               id="path4715"
               inkscape:connector-curvature="0"
               sodipodi:nodetypes="cc" />
            <path
               style="fill:none;fill-opacity:1;stroke:#000000;stroke-width:0.35433072;stroke-linecap:round;stroke-miterlimit:4;stroke-dasharray:none;stroke-opacity:1"
               d="m 325.70845,945.97484 c 2.3344,8.65851 11.98084,6.41616 12.20683,-0.20651"
               id="path4717"
               inkscape:connector-curvature="0"
               sodipodi:nodetypes="cc" />
            <path
               sodipodi:nodetypes="cc"
               inkscape:connector-curvature="0"
               id="path4742"
               d="m 324.18672,946.07113 c 2.91645,10.81739 14.96809,8.01594 15.25043,-0.258"
               style="fill:none;fill-opacity:1;stroke:#000000;stroke-width:0.35433072;stroke-linecap:round;stroke-miterlimit:4;stroke-dasharray:none;stroke-opacity:1" />
          </g>
        </g>
      </g>
    </g>
    <path
       id="path6319"
       style="fill:none;stroke:#000000;stroke-width:0.27840719"
       d=""
       inkscape:connector-curvature="0" />
    <path
       id="path6326"
       style="fill:none;stroke:#000000;stroke-width:0.27840719"
       d=""
       inkscape:connector-curvature="0" />
    <path
       id="path6330"
       style="fill:none;stroke:#000000;stroke-width:0.27840719"
       d=""
       inkscape:connector-curvature="0" />
    <path
       id="path6352"
       style="fill:none;stroke:#000000;stroke-width:0.27840719"
       d=""
       inkscape:connector-curvature="0" />
    <path
       id="path6364"
       style="fill:none;stroke:#000000;stroke-width:0.27840719"
       d=""
       inkscape:connector-curvature="0" />
    <path
       id="path6372"
       style="fill:none;stroke:#000000;stroke-width:0.27840719"
       d=""
       inkscape:connector-curvature="0" />
    <path
       id="path6388"
       style="fill:none;stroke:#000000;stroke-width:0.27840719"
       d=""
       inkscape:connector-curvature="0" />
    <g
       id="g4396"
       transform="translate(-6.7739695,-8.8582678)">
      <g
         id="g5305"
         transform="matrix(0.64954734,0,0,0.64954734,100.24885,844.05312)"
         inkscape:label="Hershey Text">
        <path
           id="path5307"
           transform="translate(8,0)"
           style="fill:none;stroke:#000000"
           d="M 0,-12 0,9 m -7,-21 14,0"
           inkscape:connector-curvature="0" />
        <path
           id="path5309"
           transform="translate(25,0)"
           style="fill:none;stroke:#000000"
           d="M -6,1 6,1 6,-1 5,-3 4,-4 2,-5 l -3,0 -2,1 -2,2 -1,3 0,2 1,3 2,2 2,1 3,0 2,-1 2,-2"
           inkscape:connector-curvature="0" />
        <path
           id="path5311"
           transform="translate(38,0)"
           style="fill:none;stroke:#000000"
           d="M 0,-12 0,9"
           inkscape:connector-curvature="0" />
        <path
           id="path5313"
           transform="translate(51,0)"
           style="fill:none;stroke:#000000"
           d="M -6,1 6,1 6,-1 5,-3 4,-4 2,-5 l -3,0 -2,1 -2,2 -1,3 0,2 1,3 2,2 2,1 3,0 2,-1 2,-2"
           inkscape:connector-curvature="0" />
        <path
           id="path5315"
           transform="translate(71,0)"
           style="fill:none;stroke:#000000"
           d="M -7,-12 -7,9 M 7,-12 7,9 M -7,-2 7,-2"
           inkscape:connector-curvature="0" />
        <path
           id="path5317"
           transform="translate(91,0)"
           style="fill:none;stroke:#000000"
           d="M -6,1 6,1 6,-1 5,-3 4,-4 2,-5 l -3,0 -2,1 -2,2 -1,3 0,2 1,3 2,2 2,1 3,0 2,-1 2,-2"
           inkscape:connector-curvature="0" />
        <path
           id="path5319"
           transform="translate(109,0)"
           style="fill:none;stroke:#000000"
           d="M 6,-5 6,9 M 6,-2 4,-4 2,-5 l -3,0 -2,1 -2,2 -1,3 0,2 1,3 2,2 2,1 3,0 2,-1 2,-2"
           inkscape:connector-curvature="0" />
        <path
           id="path5321"
           transform="translate(123,0)"
           style="fill:none;stroke:#000000"
           d="M 0,-12 0,9"
           inkscape:connector-curvature="0" />
        <path
           id="path5323"
           transform="translate(132,0)"
           style="fill:none;stroke:#000000"
           d="M 0,-12 0,5 1,8 3,9 5,9 m -8,-14 7,0"
           inkscape:connector-curvature="0" />
        <path
           id="path5325"
           transform="translate(148,0)"
           style="fill:none;stroke:#000000"
           d="m -5,-12 0,21 m 0,-10 3,-3 2,-1 3,0 2,1 1,3 0,10"
           inkscape:connector-curvature="0" />
      </g>
      <g
         id="g7309">
        <path
           id="path6309"
           style="fill:none;stroke:#000000;stroke-width:0.27840719"
           d="m 101.80436,858.14601 -0.55681,-0.55682 -0.83523,-0.27841 -1.113624,0 -0.835222,0.27841 -0.556814,0.55682 0,0.55681 0.278407,0.55681 0.278407,0.27841 0.556814,0.27841 1.670442,0.55681 0.55682,0.27841 0.2784,0.27841 0.27841,0.55681 0,0.83522 -0.55681,0.55682 -0.83523,0.2784 -1.113624,0 -0.835222,-0.2784 -0.556814,-0.55682"
           inkscape:connector-curvature="0" />
        <path
           id="path6311"
           style="fill:none;stroke:#000000;stroke-width:0.27840719"
           d="m 103.75321,859.25963 0,5.84656 m 0,-5.01133 0.55681,-0.55682 0.55682,-0.27841 0.83522,0 0.55681,0.27841 0.55682,0.55682 0.2784,0.83522 0,0.55681 -0.2784,0.83522 -0.55682,0.55682 -0.55681,0.2784 -0.83522,0 -0.55682,-0.2784 -0.55681,-0.55682"
           inkscape:connector-curvature="0" />
        <path
           id="path6313"
           style="fill:none;stroke:#000000;stroke-width:0.27840719"
           d="m 108.76454,860.93008 3.34088,0 0,-0.55682 -0.2784,-0.55681 -0.27841,-0.27841 -0.55682,-0.27841 -0.83522,0 -0.55681,0.27841 -0.55682,0.55682 -0.2784,0.83522 0,0.55681 0.2784,0.83522 0.55682,0.55682 0.55681,0.2784 0.83522,0 0.55682,-0.2784 0.55681,-0.55682"
           inkscape:connector-curvature="0" />
        <path
           id="path6315"
           style="fill:none;stroke:#000000;stroke-width:0.27840719"
           d="m 117.11675,859.25963 0,3.8977 m 0,-3.06247 -0.55681,-0.55682 -0.55682,-0.27841 -0.83522,0 -0.55681,0.27841 -0.55682,0.55682 -0.2784,0.83522 0,0.55681 0.2784,0.83522 0.55682,0.55682 0.55681,0.2784 0.83522,0 0.55682,-0.2784 0.55681,-0.55682"
           inkscape:connector-curvature="0" />
        <path
           id="path6317"
           style="fill:none;stroke:#000000;stroke-width:0.27840719"
           d="m 119.34401,857.31078 0,5.84655 m 2.78408,-3.8977 -2.78408,2.78408 m 1.11363,-1.11363 1.94885,2.22725"
           inkscape:connector-curvature="0" />
        <path
           id="path6321"
           style="fill:none;stroke:#000000;stroke-width:0.27840719"
           d="m 128.80986,857.31078 0,4.73293 0.27841,0.83522 0.55681,0.2784 0.55682,0 m -2.22726,-3.8977 1.94885,0"
           inkscape:connector-curvature="0" />
        <path
           id="path6324"
           style="fill:none;stroke:#000000;stroke-width:0.27840719"
           d="m 132.98596,859.25963 -0.55681,0.27841 -0.55682,0.55682 -0.2784,0.83522 0,0.55681 0.2784,0.83522 0.55682,0.55682 0.55681,0.2784 0.83522,0 0.55682,-0.2784 0.55681,-0.55682 0.27841,-0.83522 0,-0.55681 -0.27841,-0.83522 -0.55681,-0.55682 -0.55682,-0.27841 -0.83522,0"
           inkscape:connector-curvature="0" />
        <path
           id="path6328"
           style="fill:none;stroke:#000000;stroke-width:0.27840719"
           d="m 144.67907,859.25963 0,3.8977 m 0,-3.06247 -0.55681,-0.55682 -0.55682,-0.27841 -0.83522,0 -0.55681,0.27841 -0.55682,0.55682 -0.2784,0.83522 0,0.55681 0.2784,0.83522 0.55682,0.55682 0.55681,0.2784 0.83522,0 0.55682,-0.2784 0.55681,-0.55682"
           inkscape:connector-curvature="0" />
        <path
           id="path6332"
           style="fill:none;stroke:#000000;stroke-width:0.27840719"
           d="m 151.36084,857.31078 0,5.84655 m 0,-5.84655 2.50566,0 0.83523,0.27841 0.2784,0.27841 0.27841,0.55681 0,0.55682 -0.27841,0.55681 -0.2784,0.27841 -0.83523,0.27841 -2.50566,0 m 1.94885,0 1.94885,3.06247"
           inkscape:connector-curvature="0" />
        <path
           id="path6334"
           style="fill:none;stroke:#000000;stroke-width:0.27840719"
           d="m 156.92899,860.93008 3.34088,0 0,-0.55682 -0.2784,-0.55681 -0.27841,-0.27841 -0.55682,-0.27841 -0.83522,0 -0.55681,0.27841 -0.55682,0.55682 -0.2784,0.83522 0,0.55681 0.2784,0.83522 0.55682,0.55682 0.55681,0.2784 0.83522,0 0.55682,-0.2784 0.55681,-0.55682"
           inkscape:connector-curvature="0" />
        <path
           id="path6336"
           style="fill:none;stroke:#000000;stroke-width:0.27840719"
           d="m 165.2812,859.25963 0,4.45452 -0.2784,0.83522 -0.27841,0.27841 -0.55682,0.27841 -0.83522,0 -0.55681,-0.27841 m 2.50566,-4.73292 -0.55681,-0.55682 -0.55682,-0.27841 -0.83522,0 -0.55681,0.27841 -0.55682,0.55682 -0.2784,0.83522 0,0.55681 0.2784,0.83522 0.55682,0.55682 0.55681,0.2784 0.83522,0 0.55682,-0.2784 0.55681,-0.55682"
           inkscape:connector-curvature="0" />
        <path
           id="path6338"
           style="fill:none;stroke:#000000;stroke-width:0.27840719"
           d="m 167.23005,857.31078 0.27841,0.27841 0.27841,-0.27841 -0.27841,-0.2784 -0.27841,0.2784 m 0.27841,1.94885 0,3.8977"
           inkscape:connector-curvature="0" />
        <path
           id="path6340"
           style="fill:none;stroke:#000000;stroke-width:0.27840719"
           d="m 172.51979,860.09486 -0.2784,-0.55682 -0.83523,-0.27841 -0.83522,0 -0.83522,0.27841 -0.27841,0.55682 0.27841,0.55681 0.55682,0.27841 1.39203,0.2784 0.55682,0.27841 0.2784,0.55682 0,0.2784 -0.2784,0.55682 -0.83523,0.2784 -0.83522,0 -0.83522,-0.2784 -0.27841,-0.55682"
           inkscape:connector-curvature="0" />
        <path
           id="path6342"
           style="fill:none;stroke:#000000;stroke-width:0.27840719"
           d="m 174.74705,857.31078 0,4.73293 0.27841,0.83522 0.55681,0.2784 0.55682,0 m -2.22726,-3.8977 1.94885,0"
           inkscape:connector-curvature="0" />
        <path
           id="path6344"
           style="fill:none;stroke:#000000;stroke-width:0.27840719"
           d="m 177.53112,860.93008 3.34088,0 0,-0.55682 -0.2784,-0.55681 -0.27841,-0.27841 -0.55682,-0.27841 -0.83522,0 -0.55681,0.27841 -0.55682,0.55682 -0.2784,0.83522 0,0.55681 0.2784,0.83522 0.55682,0.55682 0.55681,0.2784 0.83522,0 0.55682,-0.2784 0.55681,-0.55682"
           inkscape:connector-curvature="0" />
        <path
           id="path6346"
           style="fill:none;stroke:#000000;stroke-width:0.27840719"
           d="m 182.82086,859.25963 0,3.8977 m 0,-2.22725 0.27841,-0.83522 0.55681,-0.55682 0.55681,-0.27841 0.83523,0"
           inkscape:connector-curvature="0" />
        <path
           id="path6348"
           style="fill:none;stroke:#000000;stroke-width:0.27840719"
           d="m 186.16175,860.93008 3.34088,0 0,-0.55682 -0.2784,-0.55681 -0.27841,-0.27841 -0.55682,-0.27841 -0.83522,0 -0.55681,0.27841 -0.55682,0.55682 -0.2784,0.83522 0,0.55681 0.2784,0.83522 0.55682,0.55682 0.55681,0.2784 0.83522,0 0.55682,-0.2784 0.55681,-0.55682"
           inkscape:connector-curvature="0" />
        <path
           id="path6350"
           style="fill:none;stroke:#000000;stroke-width:0.27840719"
           d="m 194.51395,857.31078 0,5.84655 m 0,-3.06247 -0.55681,-0.55682 -0.55682,-0.27841 -0.83522,0 -0.55681,0.27841 -0.55682,0.55682 -0.2784,0.83522 0,0.55681 0.2784,0.83522 0.55682,0.55682 0.55681,0.2784 0.83522,0 0.55682,-0.2784 0.55681,-0.55682"
           inkscape:connector-curvature="0" />
        <path
           id="path6354"
           style="fill:none;stroke:#000000;stroke-width:0.27840719"
           d="m 201.19573,857.31078 0,5.84655 m 0,-5.84655 3.8977,5.84655 m 0,-5.84655 0,5.84655"
           inkscape:connector-curvature="0" />
        <path
           id="path6356"
           style="fill:none;stroke:#000000;stroke-width:0.27840719"
           d="m 207.32069,859.25963 0,2.78408 0.27841,0.83522 0.55682,0.2784 0.83522,0 0.55681,-0.2784 0.83522,-0.83522 m 0,-2.78408 0,3.8977"
           inkscape:connector-curvature="0" />
        <path
           id="path6358"
           style="fill:none;stroke:#000000;stroke-width:0.27840719"
           d="m 212.61043,859.25963 0,3.8977 m 0,-2.22725 0.27841,-0.83522 0.55681,-0.55682 0.55681,-0.27841 0.83523,0"
           inkscape:connector-curvature="0" />
        <path
           id="path6360"
           style="fill:none;stroke:#000000;stroke-width:0.27840719"
           d="m 219.01379,860.09486 -0.2784,-0.55682 -0.83523,-0.27841 -0.83522,0 -0.83522,0.27841 -0.27841,0.55682 0.27841,0.55681 0.55682,0.27841 1.39203,0.2784 0.55682,0.27841 0.2784,0.55682 0,0.2784 -0.2784,0.55682 -0.83523,0.2784 -0.83522,0 -0.83522,-0.2784 -0.27841,-0.55682"
           inkscape:connector-curvature="0" />
        <path
           id="path6362"
           style="fill:none;stroke:#000000;stroke-width:0.27840719"
           d="m 220.68424,860.93008 3.34088,0 0,-0.55682 -0.2784,-0.55681 -0.27841,-0.27841 -0.55682,-0.27841 -0.83522,0 -0.55681,0.27841 -0.55682,0.55682 -0.2784,0.83522 0,0.55681 0.2784,0.83522 0.55682,0.55682 0.55681,0.2784 0.83522,0 0.55682,-0.2784 0.55681,-0.55682"
           inkscape:connector-curvature="0" />
      </g>
      <g
         transform="translate(-132.06939,10.789946)"
         id="g7291">
        <path
           id="path6366"
           style="fill:none;stroke:#000000;stroke-width:0.27840719"
           d="m 232.09893,857.31078 -0.55682,0 -0.55681,0.27841 -0.27841,0.83522 0,4.73292 m -0.83522,-3.8977 1.94885,0"
           inkscape:connector-curvature="0" />
        <path
           id="path6368"
           style="fill:none;stroke:#000000;stroke-width:0.27840719"
           d="m 234.883,859.25963 -0.55681,0.27841 -0.55682,0.55682 -0.2784,0.83522 0,0.55681 0.2784,0.83522 0.55682,0.55682 0.55681,0.2784 0.83522,0 0.55682,-0.2784 0.55681,-0.55682 0.27841,-0.83522 0,-0.55681 -0.27841,-0.83522 -0.55681,-0.55682 -0.55682,-0.27841 -0.83522,0"
           inkscape:connector-curvature="0" />
        <path
           id="path6370"
           style="fill:none;stroke:#000000;stroke-width:0.27840719"
           d="m 239.05911,859.25963 0,3.8977 m 0,-2.22725 0.27841,-0.83522 0.55681,-0.55682 0.55681,-0.27841 0.83523,0"
           inkscape:connector-curvature="0" />
        <path
           id="path6374"
           style="fill:none;stroke:#000000;stroke-width:0.27840719"
           d="m 247.13292,859.25963 0,3.8977 m 0,-2.78407 0.83522,-0.83522 0.55682,-0.27841 0.83522,0 0.55681,0.27841 0.27841,0.83522 0,2.78407 m 0,-2.78407 0.83522,-0.83522 0.55682,-0.27841 0.83522,0 0.55681,0.27841 0.27841,0.83522 0,2.78407"
           inkscape:connector-curvature="0" />
        <path
           id="path6376"
           style="fill:none;stroke:#000000;stroke-width:0.27840719"
           d="m 255.20673,860.93008 3.34088,0 0,-0.55682 -0.2784,-0.55681 -0.27841,-0.27841 -0.55682,-0.27841 -0.83522,0 -0.55681,0.27841 -0.55682,0.55682 -0.2784,0.83522 0,0.55681 0.2784,0.83522 0.55682,0.55682 0.55681,0.2784 0.83522,0 0.55682,-0.2784 0.55681,-0.55682"
           inkscape:connector-curvature="0" />
        <path
           id="path6378"
           style="fill:none;stroke:#000000;stroke-width:0.27840719"
           d="m 263.55894,857.31078 0,5.84655 m 0,-3.06247 -0.55681,-0.55682 -0.55682,-0.27841 -0.83522,0 -0.55681,0.27841 -0.55682,0.55682 -0.2784,0.83522 0,0.55681 0.2784,0.83522 0.55682,0.55682 0.55681,0.2784 0.83522,0 0.55682,-0.2784 0.55681,-0.55682"
           inkscape:connector-curvature="0" />
        <path
           id="path6380"
           style="fill:none;stroke:#000000;stroke-width:0.27840719"
           d="m 265.50779,857.31078 0.27841,0.27841 0.27841,-0.27841 -0.27841,-0.2784 -0.27841,0.2784 m 0.27841,1.94885 0,3.8977"
           inkscape:connector-curvature="0" />
        <path
           id="path6382"
           style="fill:none;stroke:#000000;stroke-width:0.27840719"
           d="m 271.07593,860.09486 -0.55681,-0.55682 -0.55682,-0.27841 -0.83522,0 -0.55681,0.27841 -0.55682,0.55682 -0.2784,0.83522 0,0.55681 0.2784,0.83522 0.55682,0.55682 0.55681,0.2784 0.83522,0 0.55682,-0.2784 0.55681,-0.55682"
           inkscape:connector-curvature="0" />
        <path
           id="path6384"
           style="fill:none;stroke:#000000;stroke-width:0.27840719"
           d="m 276.08726,859.25963 0,3.8977 m 0,-3.06247 -0.55681,-0.55682 -0.55682,-0.27841 -0.83522,0 -0.55681,0.27841 -0.55682,0.55682 -0.2784,0.83522 0,0.55681 0.2784,0.83522 0.55682,0.55682 0.55681,0.2784 0.83522,0 0.55682,-0.2784 0.55681,-0.55682"
           inkscape:connector-curvature="0" />
        <path
           id="path6386"
           style="fill:none;stroke:#000000;stroke-width:0.27840719"
           d="m 278.31453,857.31078 0,5.84655"
           inkscape:connector-curvature="0" />
        <path
           id="path6390"
           style="fill:none;stroke:#000000;stroke-width:0.27840719"
           d="m 288.05877,859.25963 0,3.8977 m 0,-3.06247 -0.55681,-0.55682 -0.55682,-0.27841 -0.83522,0 -0.55681,0.27841 -0.55682,0.55682 -0.2784,0.83522 0,0.55681 0.2784,0.83522 0.55682,0.55682 0.55681,0.2784 0.83522,0 0.55682,-0.2784 0.55681,-0.55682"
           inkscape:connector-curvature="0" />
        <path
           id="path6392"
           style="fill:none;stroke:#000000;stroke-width:0.27840719"
           d="m 293.34851,857.31078 0,5.84655 m 0,-3.06247 -0.55681,-0.55682 -0.55682,-0.27841 -0.83522,0 -0.55681,0.27841 -0.55682,0.55682 -0.2784,0.83522 0,0.55681 0.2784,0.83522 0.55682,0.55682 0.55681,0.2784 0.83522,0 0.55682,-0.2784 0.55681,-0.55682"
           inkscape:connector-curvature="0" />
        <path
           id="path6394"
           style="fill:none;stroke:#000000;stroke-width:0.27840719"
           d="m 295.01896,859.25963 1.67044,3.8977 m 1.67044,-3.8977 -1.67044,3.8977"
           inkscape:connector-curvature="0" />
        <path
           id="path6396"
           style="fill:none;stroke:#000000;stroke-width:0.27840719"
           d="m 299.75188,857.31078 0.27841,0.27841 0.27841,-0.27841 -0.27841,-0.2784 -0.27841,0.2784 m 0.27841,1.94885 0,3.8977"
           inkscape:connector-curvature="0" />
        <path
           id="path6398"
           style="fill:none;stroke:#000000;stroke-width:0.27840719"
           d="m 305.32002,860.09486 -0.55681,-0.55682 -0.55682,-0.27841 -0.83522,0 -0.55681,0.27841 -0.55682,0.55682 -0.2784,0.83522 0,0.55681 0.2784,0.83522 0.55682,0.55682 0.55681,0.2784 0.83522,0 0.55682,-0.2784 0.55681,-0.55682"
           inkscape:connector-curvature="0" />
        <path
           id="path6400"
           style="fill:none;stroke:#000000;stroke-width:0.27840719"
           d="m 306.99047,860.93008 3.34088,0 0,-0.55682 -0.2784,-0.55681 -0.27841,-0.27841 -0.55682,-0.27841 -0.83522,0 -0.55681,0.27841 -0.55682,0.55682 -0.2784,0.83522 0,0.55681 0.2784,0.83522 0.55682,0.55682 0.55681,0.2784 0.83522,0 0.55682,-0.2784 0.55681,-0.55682"
           inkscape:connector-curvature="0" />
      </g>
      <g
         inkscape:label="Hershey Text"
         transform="matrix(0.49515186,0,0,0.49515186,83.157484,884.67725)"
         id="g6939">
        <path
           inkscape:connector-curvature="0"
           d="m -4,-8 2,-1 3,-3 0,21"
           style="fill:none;stroke:#000000"
           transform="translate(10,0)"
           id="path6941" />
        <path
           inkscape:connector-curvature="0"
           d="M -9,0 9,0"
           style="fill:none;stroke:#000000"
           transform="translate(33,0)"
           id="path6943" />
        <path
           inkscape:connector-curvature="0"
           d="m -2,-12 -3,1 -1,2 0,2 1,2 2,1 4,1 3,1 L 6,0 7,2 7,5 6,7 5,8 2,9 -2,9 -5,8 -6,7 -7,5 l 0,-3 1,-2 2,-2 3,-1 4,-1 2,-1 1,-2 0,-2 -1,-2 -3,-1 -4,0"
           style="fill:none;stroke:#000000"
           transform="translate(56,0)"
           id="path6945" />
        <path
           inkscape:connector-curvature="0"
           d="m 6,-9 -1,-2 -3,-1 -2,0 -3,1 -2,3 -1,5 0,5 1,4 2,2 L 0,9 1,9 4,8 6,6 7,3 7,2 6,-1 4,-3 1,-4 l -1,0 -3,1 -2,2 -1,3"
           style="fill:none;stroke:#000000"
           transform="translate(76,0)"
           id="path6947" />
        <path
           inkscape:connector-curvature="0"
           d="m 6,-9 -1,-2 -3,-1 -2,0 -3,1 -2,3 -1,5 0,5 1,4 2,2 L 0,9 1,9 4,8 6,6 7,3 7,2 6,-1 4,-3 1,-4 l -1,0 -3,1 -2,2 -1,3"
           style="fill:none;stroke:#000000"
           transform="translate(96,0)"
           id="path6949" />
        <path
           inkscape:connector-curvature="0"
           d="M -9,0 9,0"
           style="fill:none;stroke:#000000"
           transform="translate(119,0)"
           id="path6951" />
        <path
           inkscape:connector-curvature="0"
           d="M 7,-12 -3,9 m -4,-21 14,0"
           style="fill:none;stroke:#000000"
           transform="translate(142,0)"
           id="path6953" />
        <path
           inkscape:connector-curvature="0"
           d="M 6,-5 5,-2 3,0 0,1 -1,1 -4,0 l -2,-2 -1,-3 0,-1 1,-3 2,-2 3,-1 1,0 3,1 2,2 1,4 L 6,0 5,5 3,8 0,9 -2,9 -5,8 -6,6"
           style="fill:none;stroke:#000000"
           transform="translate(162,0)"
           id="path6955" />
        <path
           inkscape:connector-curvature="0"
           d="M 7,-12 -3,9 m -4,-21 14,0"
           style="fill:none;stroke:#000000"
           transform="translate(182,0)"
           id="path6957" />
        <path
           inkscape:connector-curvature="0"
           d="M -9,0 9,0"
           style="fill:none;stroke:#000000"
           transform="translate(205,0)"
           id="path6959" />
        <path
           inkscape:connector-curvature="0"
           d="m -1,-12 -3,1 -2,3 -1,5 0,3 1,5 2,3 3,1 2,0 3,-1 2,-3 1,-5 0,-3 -1,-5 -2,-3 -3,-1 -2,0"
           style="fill:none;stroke:#000000"
           transform="translate(228,0)"
           id="path6961" />
        <path
           inkscape:connector-curvature="0"
           d="m -1,-12 -3,1 -2,3 -1,5 0,3 1,5 2,3 3,1 2,0 3,-1 2,-3 1,-5 0,-3 -1,-5 -2,-3 -3,-1 -2,0"
           style="fill:none;stroke:#000000"
           transform="translate(248,0)"
           id="path6963" />
        <path
           inkscape:connector-curvature="0"
           d="m -1,-12 -3,1 -2,3 -1,5 0,3 1,5 2,3 3,1 2,0 3,-1 2,-3 1,-5 0,-3 -1,-5 -2,-3 -3,-1 -2,0"
           style="fill:none;stroke:#000000"
           transform="translate(268,0)"
           id="path6965" />
        <path
           inkscape:connector-curvature="0"
           d="m -1,-12 -3,1 -2,3 -1,5 0,3 1,5 2,3 3,1 2,0 3,-1 2,-3 1,-5 0,-3 -1,-5 -2,-3 -3,-1 -2,0"
           style="fill:none;stroke:#000000"
           transform="translate(288,0)"
           id="path6967" />
      </g>
    </g>
    <path
       style="fill:none;fill-opacity:0.2961877;stroke:#000000;stroke-width:1.0629921;stroke-linecap:round;stroke-linejoin:round;stroke-miterlimit:4;stroke-dasharray:none;stroke-opacity:1"
       d="m 83.371932,899.16628 153.195928,0"
       id="path4503"
       inkscape:connector-curvature="0" />
    <path
       inkscape:connector-curvature="0"
       id="path4505"
       d="m 83.371932,971.07457 153.195928,0"
       style="fill:none;fill-opacity:0.2961877;stroke:#000000;stroke-width:1.0629921;stroke-linecap:round;stroke-linejoin:round;stroke-miterlimit:4;stroke-dasharray:none;stroke-opacity:1" />
    <g
       transform="translate(-25.100972,891.16979)"
       id="g4983">
      <g
         transform="matrix(0.67775025,0,0,0.67775025,37.720389,-5.5300539)"
         id="g9287">
        <path
           inkscape:connector-curvature="0"
           d="m 135.93441,28.67716 0,13.448527 m 0.67243,-13.448527 0,13.448527 -0.67243,0 m -4.03456,-14.120954 8.74154,0 0,0.672427 m -8.74154,-0.672427 0,0.672427 8.74154,0"
           style="fill:none;stroke:#000000;stroke-width:0.6724264"
           id="path6768" />
        <path
           inkscape:connector-curvature="0"
           d="m 147.36566,32.711718 -1.34485,0.672426 -1.34485,1.344853 -0.67243,2.017279 0,1.344853 0.67243,2.017279 1.34485,1.344853 1.34485,0.672426 2.01728,0 1.34486,-0.672426 1.34485,-1.344853 0.67242,-2.017279 0,-1.344853 -0.67242,-2.017279 -1.34485,-1.344853 -1.34486,-0.672426 -2.01728,0 m 0,0.672426 -1.34485,0.672427 -0.67243,0.672426 -0.67242,2.017279 0,1.344853 0.67242,2.017279 0.67243,0.672427 1.34485,0.672426 2.01728,0 1.34486,-0.672426 0.67242,-0.672427 0.67243,-2.017279 0,-1.344853 -0.67243,-2.017279 -0.67242,-0.672426 -1.34486,-0.672427 -2.01728,0"
           style="fill:none;stroke:#000000;stroke-width:0.6724264"
           id="path6770" />
        <path
           inkscape:connector-curvature="0"
           d="m 157.45205,32.711718 0,9.413969 0.67243,0 m -0.67243,-9.413969 0.67243,0 0,9.413969 m 0,-5.379411 0.67242,-2.017279 1.34486,-1.344853 1.34485,-0.672426 2.01728,0 m -5.37941,4.034558 0.67242,-1.344852 1.34486,-1.344853 1.34485,-0.672427 2.01728,0 0,-0.672426"
           style="fill:none;stroke:#000000;stroke-width:0.6724264"
           id="path6772" />
        <path
           inkscape:connector-curvature="0"
           d="m 169.55573,32.711718 -1.34485,0.672426 -1.34485,1.344853 -0.67243,2.017279 0,1.344853 0.67243,2.017279 1.34485,1.344853 1.34485,0.672426 2.01728,0 1.34486,-0.672426 1.34485,-1.344853 0.67242,-2.017279 0,-1.344853 -0.67242,-2.017279 -1.34485,-1.344853 -1.34486,-0.672426 -2.01728,0 m 0,0.672426 -1.34485,0.672427 -0.67243,0.672426 -0.67242,2.017279 0,1.344853 0.67242,2.017279 0.67243,0.672427 1.34485,0.672426 2.01728,0 1.34486,-0.672426 0.67242,-0.672427 0.67243,-2.017279 0,-1.344853 -0.67243,-2.017279 -0.67242,-0.672426 -1.34486,-0.672427 -2.01728,0"
           style="fill:none;stroke:#000000;stroke-width:0.6724264"
           id="path6774" />
        <path
           inkscape:connector-curvature="0"
           d="m 179.64212,32.711718 0,9.413969 0.67243,0 m -0.67243,-9.413969 0.67243,0 0,9.413969 m 0,-6.724263 2.01728,-2.01728 1.34485,-0.672426 2.01728,0 1.34485,0.672426 0.67243,2.01728 0,6.724263 m -7.39669,-6.724263 2.01728,-1.344853 1.34485,-0.672427 1.34485,0 1.34486,0.672427 0.67242,1.344853 0,6.724263 0.67243,0"
           style="fill:none;stroke:#000000;stroke-width:0.6724264"
           id="path6776" />
        <path
           inkscape:connector-curvature="0"
           d="m 193.76308,28.004733 0,14.120954 0.67243,0 m -0.67243,-14.120954 0.67243,0 0,14.120954 m -2.68971,-9.413969 4.70699,0 0,0.672426 m -4.70699,-0.672426 0,0.672426 4.70699,0"
           style="fill:none;stroke:#000000;stroke-width:0.6724264"
           id="path6778" />
        <path
           inkscape:connector-curvature="0"
           d="m 203.17705,32.711718 -1.34485,0.672426 -1.34485,1.344853 -0.67243,2.017279 0,1.344853 0.67243,2.017279 1.34485,1.344853 1.34485,0.672426 2.01728,0 1.34486,-0.672426 1.34485,-1.344853 0.67242,-2.017279 0,-1.344853 -0.67242,-2.017279 -1.34485,-1.344853 -1.34486,-0.672426 -2.01728,0 m 0,0.672426 -1.34485,0.672427 -0.67243,0.672426 -0.67242,2.017279 0,1.344853 0.67242,2.017279 0.67243,0.672427 1.34485,0.672426 2.01728,0 1.34486,-0.672426 0.67242,-0.672427 0.67243,-2.017279 0,-1.344853 -0.67243,-2.017279 -0.67242,-0.672426 -1.34486,-0.672427 -2.01728,0"
           style="fill:none;stroke:#000000;stroke-width:0.6724264"
           id="path6780" />
      </g>
      <g
         transform="matrix(0.67775025,0,0,0.67775025,34.747342,-4.9658342)"
         id="g9296">
        <path
           inkscape:connector-curvature="0"
           d="m 224.02227,28.004733 0,14.120954 m 0.67243,-13.448527 0,12.776101 m -0.67243,-13.448528 4.70699,0 2.01728,0.672427 1.34485,1.344853 0.67242,1.344852 0.67243,2.017279 0,3.362132 -0.67243,2.01728 -0.67242,1.344852 -1.34485,1.344853 -2.01728,0.672426 -4.70699,0 m 0.67243,-13.448527 4.03456,0 2.01728,0.672426 0.67242,0.672427 0.67243,1.344852 0.67242,2.017279 0,3.362132 -0.67242,2.01728 -0.67243,1.344852 -0.67242,0.672427 -2.01728,0.672426 -4.03456,0"
           style="fill:none;stroke:#000000;stroke-width:0.6724264"
           id="path6784" />
        <path
           inkscape:connector-curvature="0"
           d="m 238.14322,28.004733 -0.67243,0.672427 0,0.672426 0.67243,0.672427 0.67243,0 0.67242,-0.672427 0,-0.672426 -0.67242,-0.672427 -0.67243,0 m 0,0.672427 0,0.672426 0.67243,0 0,-0.672426 -0.67243,0 m 0,4.034558 0,9.413969 0.67243,0 m -0.67243,-9.413969 0.67243,0 0,9.413969"
           style="fill:none;stroke:#000000;stroke-width:0.6724264"
           id="path6786" />
        <path
           inkscape:connector-curvature="0"
           d="m 250.91932,34.728997 -0.67243,-1.344853 -2.01728,-0.672426 -2.01728,0 -2.01728,0.672426 -0.67242,1.344853 0.67242,1.344853 1.34486,0.672426 3.36213,1.344853 1.34485,0.672427 m -0.67242,-0.672427 0.67242,1.344853 0,0.672426 -0.67242,1.344853 m 0.67242,-0.672426 -2.01728,0.672426 -2.01728,0 -2.01728,-0.672426 m 0.67243,0.672426 -0.67243,-1.344853 -0.67242,0 m 7.39669,-5.379411 -0.67243,0 -0.67242,-1.344853 m 0.67242,0.672427 -2.01728,-0.672427 -2.01728,0 -2.01728,0.672427 m 0.67243,-0.672427 -0.67243,1.344853 0.67243,1.344853 m -0.67243,-0.672426 1.34486,0.672426 3.36213,1.344853 1.34485,0.672426 0.67243,1.344853 0,0.672426 -0.67243,1.344853 -2.01728,0.672426 -2.01728,0 -2.01728,-0.672426 -0.67242,-1.344853"
           style="fill:none;stroke:#000000;stroke-width:0.6724264"
           id="path6788" />
        <path
           inkscape:connector-curvature="0"
           d="m 256.29873,28.004733 0,14.120954 0.67243,0 m -0.67243,-14.120954 0.67243,0 0,14.120954 m -2.68971,-9.413969 4.70699,0 0,0.672426 m -4.70699,-0.672426 0,0.672426 4.70699,0"
           style="fill:none;stroke:#000000;stroke-width:0.6724264"
           id="path6790" />
        <path
           inkscape:connector-curvature="0"
           d="m 263.023,32.711718 0,9.413969 0.67243,0 m -0.67243,-9.413969 0.67243,0 0,9.413969 m 0,-5.379411 0.67242,-2.017279 1.34486,-1.344853 1.34485,-0.672426 2.01728,0 m -5.37941,4.034558 0.67242,-1.344852 1.34486,-1.344853 1.34485,-0.672427 2.01728,0 0,-0.672426"
           style="fill:none;stroke:#000000;stroke-width:0.6724264"
           id="path6792" />
        <path
           inkscape:connector-curvature="0"
           d="m 272.43697,37.418703 7.39669,0 0,-2.017279 -0.67243,-1.344853 -0.67242,-0.672427 -1.34486,-0.672426 -2.01728,0 -1.34485,0.672426 -1.34485,1.344853 -0.67243,2.017279 0,1.344853 0.67243,2.017279 1.34485,1.344853 1.34485,0.672426 2.01728,0 1.34486,-0.672426 1.34485,-1.344853 m -7.39669,-3.362132 6.72426,0 0,-1.344852 -0.67242,-1.344853 -1.34486,-0.672427 -2.01728,0 -1.34485,0.672427 -0.67243,0.672426 -0.67242,2.017279 0,1.344853 0.67242,2.017279 0.67243,0.672427 1.34485,0.672426 2.01728,0 1.34486,-0.672426 0.67242,-1.344853 0.67243,0.672426"
           style="fill:none;stroke:#000000;stroke-width:0.6724264"
           id="path6794" />
        <path
           inkscape:connector-curvature="0"
           d="m 291.26491,34.728997 -0.67243,-1.344853 -2.01728,-0.672426 -2.01728,0 -2.01728,0.672426 -0.67242,1.344853 0.67242,1.344853 1.34486,0.672426 3.36213,1.344853 1.34485,0.672427 m -0.67242,-0.672427 0.67242,1.344853 0,0.672426 -0.67242,1.344853 m 0.67242,-0.672426 -2.01728,0.672426 -2.01728,0 -2.01728,-0.672426 m 0.67243,0.672426 -0.67243,-1.344853 -0.67242,0 m 7.39669,-5.379411 -0.67243,0 -0.67242,-1.344853 m 0.67242,0.672427 -2.01728,-0.672427 -2.01728,0 -2.01728,0.672427 m 0.67243,-0.672427 -0.67243,1.344853 0.67243,1.344853 m -0.67243,-0.672426 1.34486,0.672426 3.36213,1.344853 1.34485,0.672426 0.67243,1.344853 0,0.672426 -0.67243,1.344853 -2.01728,0.672426 -2.01728,0 -2.01728,-0.672426 -0.67242,-1.344853"
           style="fill:none;stroke:#000000;stroke-width:0.6724264"
           id="path6796" />
        <path
           inkscape:connector-curvature="0"
           d="m 302.69616,34.728997 -0.67243,-1.344853 -2.01728,-0.672426 -2.01728,0 -2.01728,0.672426 -0.67242,1.344853 0.67242,1.344853 1.34486,0.672426 3.36213,1.344853 1.34485,0.672427 m -0.67242,-0.672427 0.67242,1.344853 0,0.672426 -0.67242,1.344853 m 0.67242,-0.672426 -2.01728,0.672426 -2.01728,0 -2.01728,-0.672426 m 0.67243,0.672426 -0.67243,-1.344853 -0.67242,0 m 7.39669,-5.379411 -0.67243,0 -0.67242,-1.344853 m 0.67242,0.672427 -2.01728,-0.672427 -2.01728,0 -2.01728,0.672427 m 0.67243,-0.672427 -0.67243,1.344853 0.67243,1.344853 m -0.67243,-0.672426 1.34486,0.672426 3.36213,1.344853 1.34485,0.672426 0.67243,1.344853 0,0.672426 -0.67243,1.344853 -2.01728,0.672426 -2.01728,0 -2.01728,-0.672426 -0.67242,-1.344853"
           style="fill:none;stroke:#000000;stroke-width:0.6724264"
           id="path6798" />
      </g>
      <g
         transform="matrix(0.67775025,0,0,0.67775025,-50.887193,9.4251897)"
         id="g9306">
        <path
           inkscape:connector-curvature="0"
           d="m 327.57593,31.366865 -0.67243,-1.344852 -1.34485,-1.344853 -1.34485,-0.672427 -2.68971,0 -1.34485,0.672427 -1.34485,1.344853 -0.67243,1.344852 -0.67242,2.017279 0,3.362132 0.67242,2.01728 0.67243,1.344852 1.34485,1.344853 1.34485,0.672426 2.68971,0 1.34485,-0.672426 1.34485,-1.344853 0.67243,-1.344852 m 0,-7.396691 -0.67243,0 -0.67242,-1.344852 -0.67243,-0.672427 -1.34485,-0.672426 -2.68971,0 -1.34485,0.672426 -1.34485,2.017279 -0.67243,2.017279 0,3.362132 0.67243,2.01728 1.34485,2.017279 1.34485,0.672426 2.68971,0 1.34485,-0.672426 0.67243,-0.672427 0.67242,-1.344852 0.67243,0"
           style="fill:none;stroke:#000000;stroke-width:0.6724264"
           id="path6802" />
        <path
           inkscape:connector-curvature="0"
           d="m 332.28292,37.418703 7.39669,0 0,-2.017279 -0.67243,-1.344853 -0.67242,-0.672427 -1.34486,-0.672426 -2.01728,0 -1.34485,0.672426 -1.34485,1.344853 -0.67243,2.017279 0,1.344853 0.67243,2.017279 1.34485,1.344853 1.34485,0.672426 2.01728,0 1.34486,-0.672426 1.34485,-1.344853 m -7.39669,-3.362132 6.72426,0 0,-1.344852 -0.67242,-1.344853 -1.34486,-0.672427 -2.01728,0 -1.34485,0.672427 -0.67243,0.672426 -0.67242,2.017279 0,1.344853 0.67242,2.017279 0.67243,0.672427 1.34485,0.672426 2.01728,0 1.34486,-0.672426 0.67242,-1.344853 0.67243,0.672426"
           style="fill:none;stroke:#000000;stroke-width:0.6724264"
           id="path6804" />
        <path
           inkscape:connector-curvature="0"
           d="m 344.38659,32.711718 0,9.413969 0.67243,0 m -0.67243,-9.413969 0.67243,0 0,9.413969 m 0,-6.724263 2.01728,-2.01728 1.34485,-0.672426 2.01728,0 1.34485,0.672426 0.67243,2.01728 0,6.724263 m -7.39669,-6.724263 2.01728,-1.344853 1.34485,-0.672427 1.34485,0 1.34486,0.672427 0.67242,1.344853 0,6.724263 0.67243,0"
           style="fill:none;stroke:#000000;stroke-width:0.6724264"
           id="path6806" />
        <path
           inkscape:connector-curvature="0"
           d="m 358.50754,28.004733 0,14.120954 0.67243,0 m -0.67243,-14.120954 0.67243,0 0,14.120954 m -2.68971,-9.413969 4.70699,0 0,0.672426 m -4.70699,-0.672426 0,0.672426 4.70699,0"
           style="fill:none;stroke:#000000;stroke-width:0.6724264"
           id="path6808" />
        <path
           inkscape:connector-curvature="0"
           d="m 365.23181,37.418703 7.39669,0 0,-2.017279 -0.67243,-1.344853 -0.67242,-0.672427 -1.34486,-0.672426 -2.01728,0 -1.34485,0.672426 -1.34485,1.344853 -0.67243,2.017279 0,1.344853 0.67243,2.017279 1.34485,1.344853 1.34485,0.672426 2.01728,0 1.34486,-0.672426 1.34485,-1.344853 m -7.39669,-3.362132 6.72426,0 0,-1.344852 -0.67242,-1.344853 -1.34486,-0.672427 -2.01728,0 -1.34485,0.672427 -0.67243,0.672426 -0.67242,2.017279 0,1.344853 0.67242,2.017279 0.67243,0.672427 1.34485,0.672426 2.01728,0 1.34486,-0.672426 0.67242,-1.344853 0.67243,0.672426"
           style="fill:none;stroke:#000000;stroke-width:0.6724264"
           id="path6810" />
        <path
           inkscape:connector-curvature="0"
           d="m 377.33548,32.711718 0,9.413969 0.67243,0 m -0.67243,-9.413969 0.67243,0 0,9.413969 m 0,-5.379411 0.67242,-2.017279 1.34486,-1.344853 1.34485,-0.672426 2.01728,0 m -5.37941,4.034558 0.67242,-1.344852 1.34486,-1.344853 1.34485,-0.672427 2.01728,0 0,-0.672426"
           style="fill:none;stroke:#000000;stroke-width:0.6724264"
           id="path6812" />
      </g>
    </g>
    <g
       id="g12466"
       transform="matrix(1.1894574,0,0,1.1894574,-61.17848,790.3741)">
      <g
         inkscape:label="Hershey Text"
         transform="matrix(0.28008938,0,0,0.28008938,132.29884,135.27146)"
         id="g5277">
        <path
           inkscape:connector-curvature="0"
           d="M 3,-12 -7,2 8,2 M 3,-12 3,9"
           style="fill:none;stroke:#000000"
           transform="translate(10,0)"
           id="path5279" />
        <path
           inkscape:connector-curvature="0"
           d="m -4,-8 2,-1 3,-3 0,21"
           style="fill:none;stroke:#000000"
           transform="translate(30,0)"
           id="path5281" />
        <path
           inkscape:connector-curvature="0"
           d="m 6,-9 -1,-2 -3,-1 -2,0 -3,1 -2,3 -1,5 0,5 1,4 2,2 L 0,9 1,9 4,8 6,6 7,3 7,2 6,-1 4,-3 1,-4 l -1,0 -3,1 -2,2 -1,3"
           style="fill:none;stroke:#000000"
           transform="translate(50,0)"
           id="path5283" />
        <path
           inkscape:connector-curvature="0"
           d="M -9,0 9,0"
           style="fill:none;stroke:#000000"
           transform="translate(73,0)"
           id="path5285" />
        <path
           inkscape:connector-curvature="0"
           d="M 3,-12 -7,2 8,2 M 3,-12 3,9"
           style="fill:none;stroke:#000000"
           transform="translate(96,0)"
           id="path5287" />
        <path
           inkscape:connector-curvature="0"
           d="m -1,-12 -3,1 -2,3 -1,5 0,3 1,5 2,3 3,1 2,0 3,-1 2,-3 1,-5 0,-3 -1,-5 -2,-3 -3,-1 -2,0"
           style="fill:none;stroke:#000000"
           transform="translate(116,0)"
           id="path5289" />
        <path
           inkscape:connector-curvature="0"
           d="m -2,-12 -3,1 -1,2 0,2 1,2 2,1 4,1 3,1 L 6,0 7,2 7,5 6,7 5,8 2,9 -2,9 -5,8 -6,7 -7,5 l 0,-3 1,-2 2,-2 3,-1 4,-1 2,-1 1,-2 0,-2 -1,-2 -3,-1 -4,0"
           style="fill:none;stroke:#000000"
           transform="translate(136,0)"
           id="path5291" />
        <path
           inkscape:connector-curvature="0"
           d="M -9,0 9,0"
           style="fill:none;stroke:#000000"
           transform="translate(159,0)"
           id="path5293" />
        <path
           inkscape:connector-curvature="0"
           d="M -7,-12 -7,9 M 7,-12 7,9 M -7,-2 7,-2"
           style="fill:none;stroke:#000000"
           transform="translate(183,0)"
           id="path5295" />
        <path
           inkscape:connector-curvature="0"
           d="m -6,-12 0,21 m 0,-21 13,0 M -6,-2 2,-2 M -6,9 7,9"
           style="fill:none;stroke:#000000"
           transform="translate(204,0)"
           id="path5297" />
        <path
           inkscape:connector-curvature="0"
           d="M -6,-12 -6,9 M -6,9 6,9"
           style="fill:none;stroke:#000000"
           transform="translate(223,0)"
           id="path5299" />
        <path
           inkscape:connector-curvature="0"
           d="m -7,-12 0,21 m 0,-21 9,0 3,1 1,1 1,2 0,3 -1,2 -1,1 -3,1 -9,0"
           style="fill:none;stroke:#000000"
           transform="translate(241,0)"
           id="path5301" />
        <path
           inkscape:connector-curvature="0"
           d=""
           style="fill:none;stroke:#000000"
           transform="translate(259,0)"
           id="path5303" />
        <path
           inkscape:connector-curvature="0"
           d="m 4,-16 -2,2 -2,3 -2,4 -1,5 0,4 1,5 2,4 2,3 2,2"
           style="fill:none;stroke:#000000"
           transform="translate(274,0)"
           id="path5305" />
        <path
           inkscape:connector-curvature="0"
           d="M 3,-12 -7,2 8,2 M 3,-12 3,9"
           style="fill:none;stroke:#000000"
           transform="translate(291,0)"
           id="path5308" />
        <path
           inkscape:connector-curvature="0"
           d="m -5,-12 11,0 -6,8 3,0 2,1 1,1 L 7,1 7,3 6,6 4,8 1,9 -2,9 -5,8 -6,7 -7,5"
           style="fill:none;stroke:#000000"
           transform="translate(311,0)"
           id="path5310" />
        <path
           inkscape:connector-curvature="0"
           d="m 5,-12 -10,0 -1,9 1,-1 3,-1 3,0 3,1 2,2 L 7,1 7,3 6,6 4,8 1,9 -2,9 -5,8 -6,7 -7,5"
           style="fill:none;stroke:#000000"
           transform="translate(331,0)"
           id="path5312" />
        <path
           inkscape:connector-curvature="0"
           d="M 7,-12 -3,9 m -4,-21 14,0"
           style="fill:none;stroke:#000000"
           transform="translate(351,0)"
           id="path5314" />
        <path
           inkscape:connector-curvature="0"
           d="m -4,-16 2,2 2,3 2,4 1,5 0,4 -1,5 -2,4 -2,3 -2,2"
           style="fill:none;stroke:#000000"
           transform="translate(368,0)"
           id="path5316" />
      </g>
      <rect
         style="fill:none;fill-opacity:1;stroke:#000000;stroke-width:0.25167096;stroke-linecap:round;stroke-miterlimit:4;stroke-dasharray:none;stroke-opacity:1"
         id="rect9712"
         width="109.76242"
         height="17.114431"
         x="129.7283"
         y="126.71424"
         rx="5.4197798"
         ry="5.4197798" />
    </g>
    <g
       id="g4663"
       transform="translate(-53.878791,-1.1147336)">
      <g
         transform="matrix(0.63363808,0,0,0.63363808,110.99797,881.60972)"
         id="g12514">
        <path
           inkscape:connector-curvature="0"
           id="path7440"
           style="fill:none;stroke:#000000"
           d="m 37.845749,158.41677 -2,-2 -3,-1 -4,0 -3,1 -2,2 0,2 1,2 1,1 2,1 5,2 2,1 1,1 1,2 0,3 -1,1 -3,1 -4,0 -2,-1 -1,-1 -2,0 m 14,-15 -2,0 -1,-1 -2,-1 -4,0 -3,1 -1,1 0,2 1,2 2,1 5,2 2,1 2,2 1,2 0,3 -2,2 -3,1 -4,0 -3,-1 -2,-2" />
        <path
           inkscape:connector-curvature="0"
           id="path7442"
           style="fill:none;stroke:#000000"
           d="m 45.845749,155.41677 0,21 1,0 m -1,-21 1,0 0,21 m -4,-14 7,0 0,1 m -7,-1 0,1 7,0" />
        <path
           inkscape:connector-curvature="0"
           id="path7444"
           style="fill:none;stroke:#000000"
           d="m 55.845749,162.41677 0,14 1,0 m -1,-14 1,0 0,14 m 0,-8 1,-3 2,-2 2,-1 3,0 m -8,6 1,-2 2,-2 2,-1 3,0 0,-1" />
        <path
           inkscape:connector-curvature="0"
           id="path7446"
           style="fill:none;stroke:#000000"
           d="m 69.845749,169.41677 11,0 0,-3 -1,-2 -1,-1 -2,-1 -3,0 -2,1 -2,2 -1,3 0,2 1,3 2,2 2,1 3,0 2,-1 2,-2 m -11,-5 10,0 0,-2 -1,-2 -2,-1 -3,0 -2,1 -1,1 -1,3 0,2 1,3 1,1 2,1 3,0 2,-1 1,-2 1,1" />
        <path
           inkscape:connector-curvature="0"
           id="path7448"
           style="fill:none;stroke:#000000"
           d="m 87.845749,169.41677 11,0 0,-3 -1,-2 -1,-1 -2,-1 -3,0 -2,1 -2,2 -1,3 0,2 1,3 2,2 2,1 3,0 2,-1 2,-2 m -11,-5 10,0 0,-2 -1,-2 -2,-1 -3,0 -2,1 -1,1 -1,3 0,2 1,3 1,1 2,1 3,0 2,-1 1,-2 1,1" />
        <path
           inkscape:connector-curvature="0"
           id="path7450"
           style="fill:none;stroke:#000000"
           d="m 106.84575,155.41677 0,21 1,0 m -1,-21 1,0 0,21 m -4,-14 7,0 0,1 m -7,-1 0,1 7,0" />
        <path
           inkscape:connector-curvature="0"
           id="path7452"
           style="fill:none;stroke:#000000"
           d="m 126.84575,165.41677 -1,-2 -3,-1 -3,0 -3,1 -1,2 1,2 2,1 5,2 2,1 m -1,-1 1,2 0,1 -1,2 m 1,-1 -3,1 -3,0 -3,-1 m 1,1 -1,-2 -1,0 m 11,-8 -1,0 -1,-2 m 1,1 -3,-1 -3,0 -3,1 m 1,-1 -1,2 1,2 m -1,-1 2,1 5,2 2,1 1,2 0,1 -1,2 -3,1 -3,0 -3,-1 -1,-2" />
      </g>
      <g
         transform="matrix(0.63363808,0,0,0.63363808,110.37027,881.60972)"
         id="g12505">
        <path
           inkscape:connector-curvature="0"
           id="path7456"
           style="fill:none;stroke:#000000"
           d="m 150.84575,155.41677 0,21 1,0 m -1,-21 1,0 0,21 m -4,-14 7,0 0,1 m -7,-1 0,1 7,0" />
        <path
           inkscape:connector-curvature="0"
           id="path7458"
           style="fill:none;stroke:#000000"
           d="m 164.84575,162.41677 -2,1 -2,2 -1,3 0,2 1,3 2,2 2,1 3,0 2,-1 2,-2 1,-3 0,-2 -1,-3 -2,-2 -2,-1 -3,0 m 0,1 -2,1 -1,1 -1,3 0,2 1,3 1,1 2,1 3,0 2,-1 1,-1 1,-3 0,-2 -1,-3 -1,-1 -2,-1 -3,0" />
        <path
           inkscape:connector-curvature="0"
           id="path7462"
           style="fill:none;stroke:#000000"
           d="m 195.84575,155.41677 0,21 m 0,-21 1,0 0,21 -1,0 m 14,-21 -1,0 0,21 1,0 m 0,-21 0,21 m -13,-11 12,0 m -12,1 12,0" />
        <path
           inkscape:connector-curvature="0"
           id="path7464"
           style="fill:none;stroke:#000000"
           d="m 221.84575,162.41677 -2,1 -2,2 -1,3 0,2 1,3 2,2 2,1 3,0 2,-1 2,-2 1,-3 0,-2 -1,-3 -2,-2 -2,-1 -3,0 m 0,1 -2,1 -1,1 -1,3 0,2 1,3 1,1 2,1 3,0 2,-1 1,-1 1,-3 0,-2 -1,-3 -1,-1 -2,-1 -3,0" />
        <path
           inkscape:connector-curvature="0"
           id="path7466"
           style="fill:none;stroke:#000000"
           d="m 236.84575,162.41677 0,14 1,0 m -1,-14 1,0 0,14 m 0,-10 3,-3 2,-1 3,0 2,1 1,3 0,10 m -11,-10 3,-2 2,-1 2,0 2,1 1,2 0,10 1,0 m 0,-10 3,-3 2,-1 3,0 2,1 1,3 0,10 m -11,-10 3,-2 2,-1 2,0 2,1 1,2 0,10 1,0" />
        <path
           inkscape:connector-curvature="0"
           id="path7468"
           style="fill:none;stroke:#000000"
           d="m 267.84575,169.41677 11,0 0,-3 -1,-2 -1,-1 -2,-1 -3,0 -2,1 -2,2 -1,3 0,2 1,3 2,2 2,1 3,0 2,-1 2,-2 m -11,-5 10,0 0,-2 -1,-2 -2,-1 -3,0 -2,1 -1,1 -1,3 0,2 1,3 1,1 2,1 3,0 2,-1 1,-2 1,1" />
        <path
           inkscape:connector-curvature="0"
           id="path7470"
           style="fill:none;stroke:#000000"
           d="m 295.84575,165.41677 -1,-2 -3,-1 -3,0 -3,1 -1,2 1,2 2,1 5,2 2,1 m -1,-1 1,2 0,1 -1,2 m 1,-1 -3,1 -3,0 -3,-1 m 1,1 -1,-2 -1,0 m 11,-8 -1,0 -1,-2 m 1,1 -3,-1 -3,0 -3,1 m 1,-1 -1,2 1,2 m -1,-1 2,1 5,2 2,1 1,2 0,1 -1,2 -3,1 -3,0 -3,-1 -1,-2" />
      </g>
    </g>
    <g
       transform="translate(89.942197,748.37506)"
       id="g24448">
      <g
         style="stroke-width:0.17716536;stroke-miterlimit:4;stroke-dasharray:none"
         id="g6127"
         transform="matrix(1.0102154,0,0,0.99999988,-17.288259,72.418094)">
        <path
           id="path9246"
           style="fill:none;stroke:#000000;stroke-width:0.17716536;stroke-miterlimit:4;stroke-dasharray:none"
           d="m 51.13143,210.14277 0.704192,-0.35345 1.056288,-1.06036 0,7.4225"
           inkscape:connector-curvature="0" />
        <path
           id="path9248"
           style="fill:none;stroke:#000000;stroke-width:0.17716536;stroke-miterlimit:4;stroke-dasharray:none"
           d="m 57.469159,210.49622 0,-0.35345 0.352096,-0.7069 0.352096,-0.35346 0.704192,-0.35345 1.408384,0 0.704192,0.35345 0.352096,0.35346 0.352096,0.7069 0,0.70691 -0.352096,0.7069 -0.704192,1.06036 -3.520961,3.53452 4.929346,0"
           inkscape:connector-curvature="0" />
        <path
           id="path9250"
           style="fill:none;stroke:#000000;stroke-width:0.17716536;stroke-miterlimit:4;stroke-dasharray:none"
           d="m 68.736233,211.20313 -0.352096,1.06036 -0.704192,0.7069 -1.056288,0.35345 -0.352096,0 -1.056288,-0.35345 -0.704192,-0.7069 -0.352097,-1.06036 0,-0.35345 0.352097,-1.06036 0.704192,-0.70691 1.056288,-0.35345 0.352096,0 1.056288,0.35345 0.704192,0.70691 0.352096,1.41381 0,1.76726 -0.352096,1.76726 -0.704192,1.06036 -1.056288,0.35345 -0.704192,0 -1.056288,-0.35345 -0.352096,-0.70691"
           inkscape:connector-curvature="0" />
        <path
           id="path9254"
           style="fill:none;stroke:#000000;stroke-width:0.17716536;stroke-miterlimit:4;stroke-dasharray:none"
           d="m 77.186539,208.72896 0,7.4225 m 0,-7.4225 3.168865,0 1.056288,0.35345 0.352096,0.35346 0.352097,0.7069 0,1.06036 -0.352097,0.7069 -0.352096,0.35346 -1.056288,0.35345 -3.168865,0"
           inkscape:connector-curvature="0" />
        <path
           id="path9256"
           style="fill:none;stroke:#000000;stroke-width:0.17716536;stroke-miterlimit:4;stroke-dasharray:none"
           d="m 84.228461,213.32384 4.225152,0 0,-0.7069 -0.352096,-0.70691 -0.352096,-0.35345 -0.704192,-0.35345 -1.056288,0 -0.704192,0.35345 -0.704192,0.70691 -0.352096,1.06035 0,0.70691 0.352096,1.06035 0.704192,0.70691 0.704192,0.35345 1.056288,0 0.704192,-0.35345 0.704192,-0.70691"
           inkscape:connector-curvature="0" />
        <path
           id="path9258"
           style="fill:none;stroke:#000000;stroke-width:0.17716536;stroke-miterlimit:4;stroke-dasharray:none"
           d="m 91.270383,208.72896 0,6.00869 0.352096,1.06036 0.704192,0.35345 0.704192,0 m -2.816768,-4.94833 2.464672,0"
           inkscape:connector-curvature="0" />
        <path
           id="path9260"
           style="fill:none;stroke:#000000;stroke-width:0.17716536;stroke-miterlimit:4;stroke-dasharray:none"
           d="m 94.791344,213.32384 4.225152,0 0,-0.7069 -0.352096,-0.70691 -0.352096,-0.35345 -0.704192,-0.35345 -1.056288,0 -0.704192,0.35345 -0.704192,0.70691 -0.352096,1.06035 0,0.70691 0.352096,1.06035 0.704192,0.70691 0.704192,0.35345 1.056288,0 0.704192,-0.35345 0.704192,-0.70691"
           inkscape:connector-curvature="0" />
        <path
           id="path9262"
           style="fill:none;stroke:#000000;stroke-width:0.17716536;stroke-miterlimit:4;stroke-dasharray:none"
           d="m 101.48117,211.20313 0,4.94833 m 0,-2.82762 0.3521,-1.06035 0.70419,-0.70691 0.70419,-0.35345 1.05629,0"
           inkscape:connector-curvature="0" />
        <path
           id="path9266"
           style="fill:none;stroke:#000000;stroke-width:0.17716536;stroke-miterlimit:4;stroke-dasharray:none"
           d="m 116.2692,209.78932 -0.70419,-0.70691 -1.05629,-0.35345 -1.40838,0 -1.05629,0.35345 -0.70419,0.70691 0,0.7069 0.35209,0.70691 0.3521,0.35345 0.70419,0.35345 2.11258,0.70691 0.70419,0.35345 0.3521,0.35345 0.35209,0.70691 0,1.06035 -0.70419,0.70691 -1.05629,0.35345 -1.40838,0 -1.05629,-0.35345 -0.70419,-0.70691"
           inkscape:connector-curvature="0" />
        <path
           id="path9268"
           style="fill:none;stroke:#000000;stroke-width:0.17716536;stroke-miterlimit:4;stroke-dasharray:none"
           d="m 119.08597,208.72896 0,6.00869 0.3521,1.06036 0.70419,0.35345 0.70419,0 m -2.81677,-4.94833 2.46467,0"
           inkscape:connector-curvature="0" />
      </g>
      <rect
         style="fill:none;fill-opacity:1;stroke:#000000;stroke-width:0.2370975;stroke-linecap:round;stroke-miterlimit:4;stroke-dasharray:none;stroke-opacity:1"
         id="rect24446"
         width="97.335609"
         height="17.129005"
         x="20.796904"
         y="276.47217"
         rx="4.8061767"
         ry="5.4243951" />
    </g>
    <g
       transform="translate(-26.688923,727.43645)"
       id="g24412">
      <g
         transform="matrix(0.97990361,0,0,0.96999461,124.09166,201.92512)"
         id="g7041"
         style="stroke-width:0.17716536;stroke-miterlimit:4;stroke-dasharray:none">
        <path
           id="path5211"
           style="fill:none;stroke:#000000;stroke-width:0.17716536;stroke-miterlimit:4;stroke-dasharray:none"
           d="m 13.397021,83.098108 0.735172,-0.369002 1.102758,-1.107005 0,7.749041"
           inkscape:connector-curvature="0" />
        <path
           id="path5213"
           style="fill:none;stroke:#000000;stroke-width:0.17716536;stroke-miterlimit:4;stroke-dasharray:none"
           d="m 21.48391,81.622101 -1.102757,0.369002 -0.367586,0.738003 0,0.738004 0.367586,0.738004 0.735171,0.369002 1.470344,0.369002 1.102758,0.369002 0.735171,0.738004 0.367586,0.738004 0,1.107006 -0.367586,0.738004 -0.367586,0.369002 -1.102757,0.369002 -1.470344,0 -1.102757,-0.369002 -0.367586,-0.369002 -0.367586,-0.738004 0,-1.107006 0.367586,-0.738004 0.735171,-0.738004 1.102758,-0.369002 1.470344,-0.369002 0.735171,-0.369002 0.367586,-0.738004 0,-0.738004 -0.367586,-0.738003 -1.102757,-0.369002 -1.470344,0"
           inkscape:connector-curvature="0" />
        <path
           id="path5215"
           style="fill:none;stroke:#000000;stroke-width:0.17716536;stroke-miterlimit:4;stroke-dasharray:none"
           d="m 32.143901,81.622101 -3.675859,7.749041 m -1.470343,-7.749041 5.146202,0"
           inkscape:connector-curvature="0" />
        <path
           id="path5217"
           style="fill:none;stroke:#000000;stroke-width:0.17716536;stroke-miterlimit:4;stroke-dasharray:none"
           d="m 39.495619,81.622101 -3.675859,7.749041 m -1.470343,-7.749041 5.146202,0"
           inkscape:connector-curvature="0" />
        <path
           id="path5219"
           style="fill:none;stroke:#000000;stroke-width:0.17716536;stroke-miterlimit:4;stroke-dasharray:none"
           d="m 42.06872,86.050124 6.616546,0"
           inkscape:connector-curvature="0" />
        <path
           id="path5221"
           style="fill:none;stroke:#000000;stroke-width:0.17716536;stroke-miterlimit:4;stroke-dasharray:none"
           d="m 51.993539,81.622101 4.043444,0 -2.205515,2.952015 1.102758,0 0.735171,0.369002 0.367586,0.369002 0.367586,1.107006 0,0.738004 -0.367586,1.107006 -0.735171,0.738004 -1.102758,0.369002 -1.102758,0 -1.102757,-0.369002 -0.367586,-0.369002 -0.367586,-0.738004"
           inkscape:connector-curvature="0" />
        <path
           id="path5223"
           style="fill:none;stroke:#000000;stroke-width:0.17716536;stroke-miterlimit:4;stroke-dasharray:none"
           d="m 59.345257,81.622101 4.043444,0 -2.205515,2.952015 1.102758,0 0.735171,0.369002 0.367586,0.369002 0.367586,1.107006 0,0.738004 -0.367586,1.107006 -0.735171,0.738004 -1.102758,0.369002 -1.102758,0 -1.102757,-0.369002 -0.367586,-0.369002 -0.367586,-0.738004"
           inkscape:connector-curvature="0" />
        <path
           id="path5225"
           style="fill:none;stroke:#000000;stroke-width:0.17716536;stroke-miterlimit:4;stroke-dasharray:none"
           d="m 67.799731,81.622101 -1.102757,0.369002 -0.367586,0.738003 0,0.738004 0.367586,0.738004 0.735171,0.369002 1.470344,0.369002 1.102758,0.369002 0.735171,0.738004 0.367586,0.738004 0,1.107006 -0.367586,0.738004 -0.367586,0.369002 -1.102757,0.369002 -1.470344,0 -1.102757,-0.369002 -0.367586,-0.369002 -0.367586,-0.738004 0,-1.107006 0.367586,-0.738004 0.735171,-0.738004 1.102758,-0.369002 1.470344,-0.369002 0.735171,-0.369002 0.367586,-0.738004 0,-0.738004 -0.367586,-0.738003 -1.102757,-0.369002 -1.470344,0"
           inkscape:connector-curvature="0" />
        <path
           id="path5227"
           style="fill:none;stroke:#000000;stroke-width:0.17716536;stroke-miterlimit:4;stroke-dasharray:none"
           d="m 73.681106,86.050124 6.616546,0"
           inkscape:connector-curvature="0" />
        <path
           id="path5229"
           style="fill:none;stroke:#000000;stroke-width:0.17716536;stroke-miterlimit:4;stroke-dasharray:none"
           d="m 83.605925,81.622101 4.043444,0 -2.205515,2.952015 1.102758,0 0.735171,0.369002 0.367586,0.369002 0.367586,1.107006 0,0.738004 -0.367586,1.107006 -0.735171,0.738004 -1.102758,0.369002 -1.102758,0 -1.102757,-0.369002 -0.367586,-0.369002 -0.367586,-0.738004"
           inkscape:connector-curvature="0" />
        <path
           id="path5231"
           style="fill:none;stroke:#000000;stroke-width:0.17716536;stroke-miterlimit:4;stroke-dasharray:none"
           d="m 90.957642,81.622101 4.043444,0 -2.205515,2.952015 1.102758,0 0.735171,0.369002 0.367586,0.369002 0.367586,1.107006 0,0.738004 -0.367586,1.107006 -0.735171,0.738004 -1.102758,0.369002 -1.102758,0 -1.102757,-0.369002 -0.367586,-0.369002 -0.367586,-0.738004"
           inkscape:connector-curvature="0" />
        <path
           id="path5233"
           style="fill:none;stroke:#000000;stroke-width:0.17716536;stroke-miterlimit:4;stroke-dasharray:none"
           d="m 102.35281,84.205114 -0.36759,1.107006 -0.73517,0.738004 -1.10276,0.369002 -0.367586,0 -1.102758,-0.369002 -0.735171,-0.738004 -0.367586,-1.107006 0,-0.369002 0.367586,-1.107006 0.735171,-0.738003 1.102758,-0.369002 0.367586,0 1.10276,0.369002 0.73517,0.738003 0.36759,1.476008 0,1.84501 -0.36759,1.84501 -0.73517,1.107006 -1.10276,0.369002 -0.735172,0 -1.102757,-0.369002 -0.367586,-0.738004"
           inkscape:connector-curvature="0" />
        <path
           id="path5235"
           style="fill:none;stroke:#000000;stroke-width:0.17716536;stroke-miterlimit:4;stroke-dasharray:none"
           d="m 106.76384,81.622101 -1.10276,0.369002 -0.36759,0.738003 0,0.738004 0.36759,0.738004 0.73517,0.369002 1.47035,0.369002 1.10275,0.369002 0.73518,0.738004 0.36758,0.738004 0,1.107006 -0.36758,0.738004 -0.36759,0.369002 -1.10276,0.369002 -1.47034,0 -1.10276,-0.369002 -0.36759,-0.369002 -0.36758,-0.738004 0,-1.107006 0.36758,-0.738004 0.73518,-0.738004 1.10275,-0.369002 1.47035,-0.369002 0.73517,-0.369002 0.36759,-0.738004 0,-0.738004 -0.36759,-0.738003 -1.10276,-0.369002 -1.47034,0"
           inkscape:connector-curvature="0" />
      </g>
      <path
         style="fill:none;fill-opacity:1;stroke:#000000;stroke-width:0.2441195;stroke-linecap:round;stroke-miterlimit:4;stroke-dasharray:none;stroke-opacity:1"
         d="m 227.94718,293.0958 -91.315,0 c -2.91246,0 -5.25715,-2.3447 -5.25715,-5.25716 l 0,-6.0866 c 0,-2.91245 2.34469,-5.25716 5.25715,-5.25716 l 95.95466,0 c 2.91246,0 5.25715,2.34471 5.25715,5.25716 l 0,3.99231"
         id="rect19657"
         inkscape:connector-curvature="0"
         sodipodi:nodetypes="cssssssc" />
    </g>
    <g
       id="g4736">
      <rect
         transform="translate(0,751.1811)"
         rx="5.3149605"
         ry="5.3149605"
         y="17.435513"
         x="64.319969"
         height="46.857063"
         width="161.60583"
         id="rect4381"
         style="opacity:1;filter:url(#filter4772);fill:none;fill-opacity:1;stroke:#000000;stroke-width:0.73471791;stroke-linecap:round;stroke-miterlimit:4;stroke-dasharray:none;stroke-opacity:1" />
      <text
         sodipodi:linespacing="125%"
         id="text4444"
         y="782.7879"
         x="72.821365"
         style="font-style:normal;font-weight:normal;font-size:9.95207214px;line-height:125%;font-family:sans-serif;letter-spacing:0px;word-spacing:0px;fill:#000000;fill-opacity:1;stroke:none;stroke-width:0.35433071;stroke-linecap:butt;stroke-linejoin:miter;stroke-opacity:1;stroke-miterlimit:4;stroke-dasharray:none"
         xml:space="preserve"><tspan
           y="782.7879"
           x="72.821365"
           id="tspan4446"
           sodipodi:role="line">Salvation Army Clothing Bank</tspan></text>
      <text
         xml:space="preserve"
         style="font-style:normal;font-weight:normal;font-size:8.37820148px;line-height:125%;font-family:sans-serif;letter-spacing:0px;word-spacing:0px;fill:#000000;fill-opacity:1;stroke:none;stroke-width:0.35433071;stroke-linecap:butt;stroke-linejoin:miter;stroke-opacity:1;stroke-miterlimit:4;stroke-dasharray:none"
         x="101.47788"
         y="795.00311"
         id="text4448"
         sodipodi:linespacing="125%"><tspan
           sodipodi:role="line"
           id="tspan4450"
           x="101.47788"
           y="795.00311">1436 Queen St. West</tspan></text>
      <text
         sodipodi:linespacing="125%"
         id="text4452"
         y="809.39148"
         x="91.045624"
         style="font-style:normal;font-weight:normal;font-size:11.63162613px;line-height:125%;font-family:sans-serif;letter-spacing:0px;word-spacing:0px;fill:#000000;fill-opacity:1;stroke:none;stroke-width:0.35433071;stroke-linecap:butt;stroke-linejoin:miter;stroke-opacity:1;stroke-miterlimit:4;stroke-dasharray:none"
         xml:space="preserve"><tspan
           y="809.39148"
           x="91.045624"
           id="tspan4454"
           sodipodi:role="line">11:30am - 3:30 pm</tspan></text>
    </g>
  </g>
</svg>
