<?xml version="1.0" encoding="UTF-8" standalone="no"?>
<svg
   xmlns:dc="http://purl.org/dc/elements/1.1/"
   xmlns:cc="http://creativecommons.org/ns#"
   xmlns:rdf="http://www.w3.org/1999/02/22-rdf-syntax-ns#"
   xmlns:svg="http://www.w3.org/2000/svg"
   xmlns="http://www.w3.org/2000/svg"
   xmlns:sodipodi="http://sodipodi.sourceforge.net/DTD/sodipodi-0.dtd"
   xmlns:inkscape="http://www.inkscape.org/namespaces/inkscape"
   version="1.1"
   id="svg2"
   viewBox="0 0 992.126 496.06298"
   height="140mm"
   width="280mm"
   inkscape:version="0.91 r13725"
   sodipodi:docname="CutTwo.svg">
  <sodipodi:namedview
     pagecolor="#ffffff"
     bordercolor="#666666"
     borderopacity="1"
     objecttolerance="10"
     gridtolerance="10"
     guidetolerance="10"
     inkscape:pageopacity="0"
     inkscape:pageshadow="2"
     inkscape:window-width="681"
     inkscape:window-height="447"
     id="namedview39"
     showgrid="false"
     inkscape:zoom="0.33640325"
     inkscape:cx="533.05767"
     inkscape:cy="183.52048"
     inkscape:window-x="0"
     inkscape:window-y="1"
     inkscape:window-maximized="0"
     inkscape:current-layer="svg2" />
  <defs
     id="defs4" />
  <metadata
     id="metadata7">
    <rdf:RDF>
      <cc:Work
         rdf:about="">
        <dc:format>image/svg+xml</dc:format>
        <dc:type
           rdf:resource="http://purl.org/dc/dcmitype/StillImage" />
        <dc:title></dc:title>
      </cc:Work>
    </rdf:RDF>
  </metadata>
  <g
     transform="translate(0,248.0315)"
     id="layer5"
     style="display:inline;opacity:0.23699999" />
  <g
     id="layer1"
     transform="translate(0,-556.29921)">
    <path
       id="path4210"
       d="m 32.63035,816.25639 -7.5219,-0.0144 c 0,0 -12.66546,1.38798 -12.66546,17.67998 l 0,3.30234 c 0,2.15838 2.24186,1.86661 2.24186,1.86661 l 17.22844,-0.21976 c 1.53795,0 3.54023,-1.50712 3.54023,-3.46003 L 35.3366,818.57522 c 0,0 -0.25796,-2.31409 -2.70625,-2.31879 z"
       style="fill:none;fill-rule:evenodd;stroke:#000000;stroke-width:0.88640338px;stroke-linecap:butt;stroke-linejoin:miter;stroke-opacity:1"
       inkscape:connector-curvature="0" />
    <path
       id="rect4181"
       d="m 224.25027,806.14691 -200.467584,0 c -12.16858,0 -21.9649695,9.79638 -21.9649695,21.96496 l 0,200.46763 c 0,12.1686 7.54639,21.965 19.7149695,21.965 l 187.982584,0 c 2.89115,-3.0345 0.56677,-6.8657 3.88057,-10.6036 2.15065,-2.4259 4.89024,-1.4209 6.57179,0.2606 3.3651,3.3651 -0.21307,7.3953 4.28265,10.343 16.56733,-0.25 21.96496,-7.6496 21.96496,-21.965 -1.71875,-4.6311 -5.9382,-3.2378 -8.9073,-4.013 -2.70219,-0.724 -4.89581,-6.6633 0.95552,-8.2312 2.87705,-0.7781 7.95177,-0.5706 7.95177,-4.8924 l 0,-183.33103 c 0,-12.16858 -9.79637,-21.96496 -21.96496,-21.96496 z"
       style="fill:none;stroke:#000000;stroke-width:3.63543296;stroke-linejoin:round;stroke-miterlimit:4;stroke-dasharray:none;stroke-opacity:1"
       inkscape:connector-curvature="0" />
    <path
       style="fill:none;fill-rule:evenodd;stroke:#000000;stroke-width:0.88640338px;stroke-linecap:butt;stroke-linejoin:miter;stroke-opacity:1"
       d="m 32.63035,568.22488 -7.5219,-0.0144 c 0,0 -12.66546,1.38798 -12.66546,17.67998 l 0,3.30234 c 0,2.15838 2.24186,1.86661 2.24186,1.86661 l 17.22844,-0.21976 c 1.53795,0 3.54023,-1.50712 3.54023,-3.46003 L 35.3366,570.54371 c 0,0 -0.25796,-2.31409 -2.70625,-2.31879 z"
       id="path4164"
       inkscape:connector-curvature="0" />
    <path
       style="fill:none;stroke:#000000;stroke-width:3.63543296;stroke-linejoin:round;stroke-miterlimit:4;stroke-dasharray:none;stroke-opacity:1"
       d="m 224.25027,558.1154 -200.467584,0 c -12.16858,0 -21.9649695,9.79638 -21.9649695,21.96496 l 0,200.46763 c 0,12.1686 7.54639,21.965 19.7149695,21.965 l 187.982584,0 c 2.89115,-3.0345 0.56677,-6.8657 3.88057,-10.6036 2.15065,-2.4259 4.89024,-1.4209 6.57179,0.2606 3.3651,3.3651 -0.21307,7.3953 4.28265,10.343 16.56733,-0.25 21.96496,-7.6496 21.96496,-21.965 -1.71875,-4.6311 -5.9382,-3.2378 -8.9073,-4.013 -2.70219,-0.724 -4.89581,-6.6633 0.95552,-8.2312 2.87705,-0.7781 7.95177,-0.5706 7.95177,-4.8924 l 0,-183.33103 c 0,-12.16858 -9.79637,-21.96496 -21.96496,-21.96496 z"
       id="path4166"
       inkscape:connector-curvature="0" />
  </g>
  <g
     transform="translate(0,248.0315)"
     id="layer3">
    <path
       d=""
       style="fill:none;stroke:#000000;stroke-width:0.30101201"
       id="path5329"
       inkscape:connector-curvature="0" />
    <path
       d=""
       style="fill:none;stroke:#000000;stroke-width:0.30101201"
       id="path5341"
       inkscape:connector-curvature="0" />
    <path
       d=""
       style="fill:none;stroke:#000000;stroke-width:0.30101201"
       id="path5357"
       inkscape:connector-curvature="0" />
    <path
       id="path5719"
       style="fill:none;stroke:#000000;stroke-width:0.28793129"
       d=""
       inkscape:connector-curvature="0" />
    <path
       id="path5723"
       style="fill:none;stroke:#000000;stroke-width:0.28793129"
       d=""
       inkscape:connector-curvature="0" />
    <path
       id="path5731"
       style="fill:none;stroke:#000000;stroke-width:0.28793129"
       d=""
       inkscape:connector-curvature="0" />
    <path
       id="path5735"
       style="fill:none;stroke:#000000;stroke-width:0.28793129"
       d=""
       inkscape:connector-curvature="0" />
    <path
       id="path5745"
       style="fill:none;stroke:#000000;stroke-width:0.28793129"
       d=""
       inkscape:connector-curvature="0" />
    <path
       d=""
       style="fill:none;stroke:#000000;stroke-width:0.28324676"
       id="path6153"
       inkscape:connector-curvature="0" />
    <path
       d=""
       style="fill:none;stroke:#000000;stroke-width:0.28324676"
       id="path6167"
       inkscape:connector-curvature="0" />
    <path
       d=""
       style="fill:none;stroke:#000000;stroke-width:0.28324676"
       id="path6173"
       inkscape:connector-curvature="0" />
    <path
       d=""
       style="fill:none;stroke:#000000;stroke-width:0.28324676"
       id="path6179"
       inkscape:connector-curvature="0" />
    <path
       d=""
       style="fill:none;stroke:#000000;stroke-width:0.28324676"
       id="path6189"
       inkscape:connector-curvature="0" />
    <path
       d=""
       style="fill:none;stroke:#000000;stroke-width:0.28324676"
       id="path6197"
       inkscape:connector-curvature="0" />
    <path
       d=""
       style="fill:none;stroke:#000000;stroke-width:0.28324676"
       id="path6207"
       inkscape:connector-curvature="0" />
    <path
       d=""
       style="fill:none;stroke:#000000;stroke-width:0.28324676"
       id="path6215"
       inkscape:connector-curvature="0" />
    <path
       d=""
       style="fill:none;stroke:#000000;stroke-width:0.28324676"
       id="path6223"
       inkscape:connector-curvature="0" />
    <path
       d=""
       style="fill:none;stroke:#000000;stroke-width:0.28324676"
       id="path6233"
       inkscape:connector-curvature="0" />
    <path
       d=""
       style="fill:none;stroke:#000000;stroke-width:0.28324676"
       id="path6245"
       inkscape:connector-curvature="0" />
    <path
       d=""
       style="fill:none;stroke:#000000;stroke-width:0.28324676"
       id="path6251"
       inkscape:connector-curvature="0" />
    <path
       d=""
       style="fill:none;stroke:#000000;stroke-width:0.28324676"
       id="path6261"
       inkscape:connector-curvature="0" />
    <path
       d=""
       style="fill:none;stroke:#000000;stroke-width:0.28324676"
       id="path6267"
       inkscape:connector-curvature="0" />
    <path
       d=""
       style="fill:none;stroke:#000000;stroke-width:0.28324676"
       id="path6279"
       inkscape:connector-curvature="0" />
    <path
       id="path9408"
       style="fill:none;stroke:#000000;stroke-width:0.28768027"
       d=""
       inkscape:connector-curvature="0" />
    <path
       id="path9420"
       style="fill:none;stroke:#000000;stroke-width:0.28768027"
       d=""
       inkscape:connector-curvature="0" />
  </g>
  <g
     transform="translate(0,248.0315)"
     id="layer6" />
  <g
     transform="translate(0,248.0315)"
     id="layer4" />
  <g
     transform="translate(0,-556.29921)"
     id="g4187">
    <path
       inkscape:connector-curvature="0"
       style="fill:none;fill-rule:evenodd;stroke:#000000;stroke-width:0.88640338px;stroke-linecap:butt;stroke-linejoin:miter;stroke-opacity:1"
       d="m 32.63035,816.25639 -7.5219,-0.0144 c 0,0 -12.66546,1.38798 -12.66546,17.67998 l 0,3.30234 c 0,2.15838 2.24186,1.86661 2.24186,1.86661 l 17.22844,-0.21976 c 1.53795,0 3.54023,-1.50712 3.54023,-3.46003 L 35.3366,818.57522 c 0,0 -0.25796,-2.31409 -2.70625,-2.31879 z"
       id="path4189" />
    <path
       inkscape:connector-curvature="0"
       style="fill:none;stroke:#000000;stroke-width:3.63543296;stroke-linejoin:round;stroke-miterlimit:4;stroke-dasharray:none;stroke-opacity:1"
       d="m 224.25027,806.14691 -200.467584,0 c -12.16858,0 -21.9649695,9.79638 -21.9649695,21.96496 l 0,200.46763 c 0,12.1686 7.54639,21.965 19.7149695,21.965 l 187.982584,0 c 2.89115,-3.0345 0.56677,-6.8657 3.88057,-10.6036 2.15065,-2.4259 4.89024,-1.4209 6.57179,0.2606 3.3651,3.3651 -0.21307,7.3953 4.28265,10.343 16.56733,-0.25 21.96496,-7.6496 21.96496,-21.965 -1.71875,-4.6311 -5.9382,-3.2378 -8.9073,-4.013 -2.70219,-0.724 -4.89581,-6.6633 0.95552,-8.2312 2.87705,-0.7781 7.95177,-0.5706 7.95177,-4.8924 l 0,-183.33103 c 0,-12.16858 -9.79637,-21.96496 -21.96496,-21.96496 z"
       id="path4191" />
    <path
       inkscape:connector-curvature="0"
       id="path4193"
       d="m 32.63035,568.22488 -7.5219,-0.0144 c 0,0 -12.66546,1.38798 -12.66546,17.67998 l 0,3.30234 c 0,2.15838 2.24186,1.86661 2.24186,1.86661 l 17.22844,-0.21976 c 1.53795,0 3.54023,-1.50712 3.54023,-3.46003 L 35.3366,570.54371 c 0,0 -0.25796,-2.31409 -2.70625,-2.31879 z"
       style="fill:none;fill-rule:evenodd;stroke:#000000;stroke-width:0.88640338px;stroke-linecap:butt;stroke-linejoin:miter;stroke-opacity:1" />
    <path
       inkscape:connector-curvature="0"
       id="path4195"
       d="m 224.25027,558.1154 -200.467584,0 c -12.16858,0 -21.9649695,9.79638 -21.9649695,21.96496 l 0,200.46763 c 0,12.1686 7.54639,21.965 19.7149695,21.965 l 187.982584,0 c 2.89115,-3.0345 0.56677,-6.8657 3.88057,-10.6036 2.15065,-2.4259 4.89024,-1.4209 6.57179,0.2606 3.3651,3.3651 -0.21307,7.3953 4.28265,10.343 16.56733,-0.25 21.96496,-7.6496 21.96496,-21.965 -1.71875,-4.6311 -5.9382,-3.2378 -8.9073,-4.013 -2.70219,-0.724 -4.89581,-6.6633 0.95552,-8.2312 2.87705,-0.7781 7.95177,-0.5706 7.95177,-4.8924 l 0,-183.33103 c 0,-12.16858 -9.79637,-21.96496 -21.96496,-21.96496 z"
       style="fill:none;stroke:#000000;stroke-width:3.63543296;stroke-linejoin:round;stroke-miterlimit:4;stroke-dasharray:none;stroke-opacity:1" />
  </g>
  <g
     transform="translate(248.0315,-556.29921)"
     id="g4207">
    <path
       inkscape:connector-curvature="0"
       style="fill:none;fill-rule:evenodd;stroke:#000000;stroke-width:0.88640338px;stroke-linecap:butt;stroke-linejoin:miter;stroke-opacity:1"
       d="m 32.63035,816.25639 -7.5219,-0.0144 c 0,0 -12.66546,1.38798 -12.66546,17.67998 l 0,3.30234 c 0,2.15838 2.24186,1.86661 2.24186,1.86661 l 17.22844,-0.21976 c 1.53795,0 3.54023,-1.50712 3.54023,-3.46003 L 35.3366,818.57522 c 0,0 -0.25796,-2.31409 -2.70625,-2.31879 z"
       id="path4209" />
    <path
       inkscape:connector-curvature="0"
       style="fill:none;stroke:#000000;stroke-width:3.63543296;stroke-linejoin:round;stroke-miterlimit:4;stroke-dasharray:none;stroke-opacity:1"
       d="m 224.25027,806.14691 -200.467584,0 c -12.16858,0 -21.9649695,9.79638 -21.9649695,21.96496 l 0,200.46763 c 0,12.1686 7.54639,21.965 19.7149695,21.965 l 187.982584,0 c 2.89115,-3.0345 0.56677,-6.8657 3.88057,-10.6036 2.15065,-2.4259 4.89024,-1.4209 6.57179,0.2606 3.3651,3.3651 -0.21307,7.3953 4.28265,10.343 16.56733,-0.25 21.96496,-7.6496 21.96496,-21.965 -1.71875,-4.6311 -5.9382,-3.2378 -8.9073,-4.013 -2.70219,-0.724 -4.89581,-6.6633 0.95552,-8.2312 2.87705,-0.7781 7.95177,-0.5706 7.95177,-4.8924 l 0,-183.33103 c 0,-12.16858 -9.79637,-21.96496 -21.96496,-21.96496 z"
       id="path4211" />
    <path
       inkscape:connector-curvature="0"
       id="path4213"
       d="m 32.63035,568.22488 -7.5219,-0.0144 c 0,0 -12.66546,1.38798 -12.66546,17.67998 l 0,3.30234 c 0,2.15838 2.24186,1.86661 2.24186,1.86661 l 17.22844,-0.21976 c 1.53795,0 3.54023,-1.50712 3.54023,-3.46003 L 35.3366,570.54371 c 0,0 -0.25796,-2.31409 -2.70625,-2.31879 z"
       style="fill:none;fill-rule:evenodd;stroke:#000000;stroke-width:0.88640338px;stroke-linecap:butt;stroke-linejoin:miter;stroke-opacity:1" />
    <path
       inkscape:connector-curvature="0"
       id="path4215"
       d="m 224.25027,558.1154 -200.467584,0 c -12.16858,0 -21.9649695,9.79638 -21.9649695,21.96496 l 0,200.46763 c 0,12.1686 7.54639,21.965 19.7149695,21.965 l 187.982584,0 c 2.89115,-3.0345 0.56677,-6.8657 3.88057,-10.6036 2.15065,-2.4259 4.89024,-1.4209 6.57179,0.2606 3.3651,3.3651 -0.21307,7.3953 4.28265,10.343 16.56733,-0.25 21.96496,-7.6496 21.96496,-21.965 -1.71875,-4.6311 -5.9382,-3.2378 -8.9073,-4.013 -2.70219,-0.724 -4.89581,-6.6633 0.95552,-8.2312 2.87705,-0.7781 7.95177,-0.5706 7.95177,-4.8924 l 0,-183.33103 c 0,-12.16858 -9.79637,-21.96496 -21.96496,-21.96496 z"
       style="fill:none;stroke:#000000;stroke-width:3.63543296;stroke-linejoin:round;stroke-miterlimit:4;stroke-dasharray:none;stroke-opacity:1" />
  </g>
  <g
     id="g4217"
     transform="translate(248.0315,-556.29921)">
    <path
       id="path4219"
       d="m 32.63035,816.25639 -7.5219,-0.0144 c 0,0 -12.66546,1.38798 -12.66546,17.67998 l 0,3.30234 c 0,2.15838 2.24186,1.86661 2.24186,1.86661 l 17.22844,-0.21976 c 1.53795,0 3.54023,-1.50712 3.54023,-3.46003 L 35.3366,818.57522 c 0,0 -0.25796,-2.31409 -2.70625,-2.31879 z"
       style="fill:none;fill-rule:evenodd;stroke:#000000;stroke-width:0.88640338px;stroke-linecap:butt;stroke-linejoin:miter;stroke-opacity:1"
       inkscape:connector-curvature="0" />
    <path
       id="path4221"
       d="m 224.25027,806.14691 -200.467584,0 c -12.16858,0 -21.9649695,9.79638 -21.9649695,21.96496 l 0,200.46763 c 0,12.1686 7.54639,21.965 19.7149695,21.965 l 187.982584,0 c 2.89115,-3.0345 0.56677,-6.8657 3.88057,-10.6036 2.15065,-2.4259 4.89024,-1.4209 6.57179,0.2606 3.3651,3.3651 -0.21307,7.3953 4.28265,10.343 16.56733,-0.25 21.96496,-7.6496 21.96496,-21.965 -1.71875,-4.6311 -5.9382,-3.2378 -8.9073,-4.013 -2.70219,-0.724 -4.89581,-6.6633 0.95552,-8.2312 2.87705,-0.7781 7.95177,-0.5706 7.95177,-4.8924 l 0,-183.33103 c 0,-12.16858 -9.79637,-21.96496 -21.96496,-21.96496 z"
       style="fill:none;stroke:#000000;stroke-width:3.63543296;stroke-linejoin:round;stroke-miterlimit:4;stroke-dasharray:none;stroke-opacity:1"
       inkscape:connector-curvature="0" />
    <path
       style="fill:none;fill-rule:evenodd;stroke:#000000;stroke-width:0.88640338px;stroke-linecap:butt;stroke-linejoin:miter;stroke-opacity:1"
       d="m 32.63035,568.22488 -7.5219,-0.0144 c 0,0 -12.66546,1.38798 -12.66546,17.67998 l 0,3.30234 c 0,2.15838 2.24186,1.86661 2.24186,1.86661 l 17.22844,-0.21976 c 1.53795,0 3.54023,-1.50712 3.54023,-3.46003 L 35.3366,570.54371 c 0,0 -0.25796,-2.31409 -2.70625,-2.31879 z"
       id="path4223"
       inkscape:connector-curvature="0" />
    <path
       style="fill:none;stroke:#000000;stroke-width:3.63543296;stroke-linejoin:round;stroke-miterlimit:4;stroke-dasharray:none;stroke-opacity:1"
       d="m 224.25027,558.1154 -200.467584,0 c -12.16858,0 -21.9649695,9.79638 -21.9649695,21.96496 l 0,200.46763 c 0,12.1686 7.54639,21.965 19.7149695,21.965 l 187.982584,0 c 2.89115,-3.0345 0.56677,-6.8657 3.88057,-10.6036 2.15065,-2.4259 4.89024,-1.4209 6.57179,0.2606 3.3651,3.3651 -0.21307,7.3953 4.28265,10.343 16.56733,-0.25 21.96496,-7.6496 21.96496,-21.965 -1.71875,-4.6311 -5.9382,-3.2378 -8.9073,-4.013 -2.70219,-0.724 -4.89581,-6.6633 0.95552,-8.2312 2.87705,-0.7781 7.95177,-0.5706 7.95177,-4.8924 l 0,-183.33103 c 0,-12.16858 -9.79637,-21.96496 -21.96496,-21.96496 z"
       id="path4225"
       inkscape:connector-curvature="0" />
  </g>
  <g
     transform="translate(496.06299,-556.29921)"
     id="g4227">
    <path
       inkscape:connector-curvature="0"
       style="fill:none;fill-rule:evenodd;stroke:#000000;stroke-width:0.88640338px;stroke-linecap:butt;stroke-linejoin:miter;stroke-opacity:1"
       d="m 32.63035,816.25639 -7.5219,-0.0144 c 0,0 -12.66546,1.38798 -12.66546,17.67998 l 0,3.30234 c 0,2.15838 2.24186,1.86661 2.24186,1.86661 l 17.22844,-0.21976 c 1.53795,0 3.54023,-1.50712 3.54023,-3.46003 L 35.3366,818.57522 c 0,0 -0.25796,-2.31409 -2.70625,-2.31879 z"
       id="path4229" />
    <path
       inkscape:connector-curvature="0"
       style="fill:none;stroke:#000000;stroke-width:3.63543296;stroke-linejoin:round;stroke-miterlimit:4;stroke-dasharray:none;stroke-opacity:1"
       d="m 224.25027,806.14691 -200.467584,0 c -12.16858,0 -21.9649695,9.79638 -21.9649695,21.96496 l 0,200.46763 c 0,12.1686 7.54639,21.965 19.7149695,21.965 l 187.982584,0 c 2.89115,-3.0345 0.56677,-6.8657 3.88057,-10.6036 2.15065,-2.4259 4.89024,-1.4209 6.57179,0.2606 3.3651,3.3651 -0.21307,7.3953 4.28265,10.343 16.56733,-0.25 21.96496,-7.6496 21.96496,-21.965 -1.71875,-4.6311 -5.9382,-3.2378 -8.9073,-4.013 -2.70219,-0.724 -4.89581,-6.6633 0.95552,-8.2312 2.87705,-0.7781 7.95177,-0.5706 7.95177,-4.8924 l 0,-183.33103 c 0,-12.16858 -9.79637,-21.96496 -21.96496,-21.96496 z"
       id="path4231" />
    <path
       inkscape:connector-curvature="0"
       id="path4233"
       d="m 32.63035,568.22488 -7.5219,-0.0144 c 0,0 -12.66546,1.38798 -12.66546,17.67998 l 0,3.30234 c 0,2.15838 2.24186,1.86661 2.24186,1.86661 l 17.22844,-0.21976 c 1.53795,0 3.54023,-1.50712 3.54023,-3.46003 L 35.3366,570.54371 c 0,0 -0.25796,-2.31409 -2.70625,-2.31879 z"
       style="fill:none;fill-rule:evenodd;stroke:#000000;stroke-width:0.88640338px;stroke-linecap:butt;stroke-linejoin:miter;stroke-opacity:1" />
    <path
       inkscape:connector-curvature="0"
       id="path4235"
       d="m 224.25027,558.1154 -200.467584,0 c -12.16858,0 -21.9649695,9.79638 -21.9649695,21.96496 l 0,200.46763 c 0,12.1686 7.54639,21.965 19.7149695,21.965 l 187.982584,0 c 2.89115,-3.0345 0.56677,-6.8657 3.88057,-10.6036 2.15065,-2.4259 4.89024,-1.4209 6.57179,0.2606 3.3651,3.3651 -0.21307,7.3953 4.28265,10.343 16.56733,-0.25 21.96496,-7.6496 21.96496,-21.965 -1.71875,-4.6311 -5.9382,-3.2378 -8.9073,-4.013 -2.70219,-0.724 -4.89581,-6.6633 0.95552,-8.2312 2.87705,-0.7781 7.95177,-0.5706 7.95177,-4.8924 l 0,-183.33103 c 0,-12.16858 -9.79637,-21.96496 -21.96496,-21.96496 z"
       style="fill:none;stroke:#000000;stroke-width:3.63543296;stroke-linejoin:round;stroke-miterlimit:4;stroke-dasharray:none;stroke-opacity:1" />
  </g>
  <g
     id="g4237"
     transform="translate(496.06299,-556.29921)">
    <path
       id="path4239"
       d="m 32.63035,816.25639 -7.5219,-0.0144 c 0,0 -12.66546,1.38798 -12.66546,17.67998 l 0,3.30234 c 0,2.15838 2.24186,1.86661 2.24186,1.86661 l 17.22844,-0.21976 c 1.53795,0 3.54023,-1.50712 3.54023,-3.46003 L 35.3366,818.57522 c 0,0 -0.25796,-2.31409 -2.70625,-2.31879 z"
       style="fill:none;fill-rule:evenodd;stroke:#000000;stroke-width:0.88640338px;stroke-linecap:butt;stroke-linejoin:miter;stroke-opacity:1"
       inkscape:connector-curvature="0" />
    <path
       id="path4241"
       d="m 224.25027,806.14691 -200.467584,0 c -12.16858,0 -21.9649695,9.79638 -21.9649695,21.96496 l 0,200.46763 c 0,12.1686 7.54639,21.965 19.7149695,21.965 l 187.982584,0 c 2.89115,-3.0345 0.56677,-6.8657 3.88057,-10.6036 2.15065,-2.4259 4.89024,-1.4209 6.57179,0.2606 3.3651,3.3651 -0.21307,7.3953 4.28265,10.343 16.56733,-0.25 21.96496,-7.6496 21.96496,-21.965 -1.71875,-4.6311 -5.9382,-3.2378 -8.9073,-4.013 -2.70219,-0.724 -4.89581,-6.6633 0.95552,-8.2312 2.87705,-0.7781 7.95177,-0.5706 7.95177,-4.8924 l 0,-183.33103 c 0,-12.16858 -9.79637,-21.96496 -21.96496,-21.96496 z"
       style="fill:none;stroke:#000000;stroke-width:3.63543296;stroke-linejoin:round;stroke-miterlimit:4;stroke-dasharray:none;stroke-opacity:1"
       inkscape:connector-curvature="0" />
    <path
       style="fill:none;fill-rule:evenodd;stroke:#000000;stroke-width:0.88640338px;stroke-linecap:butt;stroke-linejoin:miter;stroke-opacity:1"
       d="m 32.63035,568.22488 -7.5219,-0.0144 c 0,0 -12.66546,1.38798 -12.66546,17.67998 l 0,3.30234 c 0,2.15838 2.24186,1.86661 2.24186,1.86661 l 17.22844,-0.21976 c 1.53795,0 3.54023,-1.50712 3.54023,-3.46003 L 35.3366,570.54371 c 0,0 -0.25796,-2.31409 -2.70625,-2.31879 z"
       id="path4243"
       inkscape:connector-curvature="0" />
    <path
       style="fill:none;stroke:#000000;stroke-width:3.63543296;stroke-linejoin:round;stroke-miterlimit:4;stroke-dasharray:none;stroke-opacity:1"
       d="m 224.25027,558.1154 -200.467584,0 c -12.16858,0 -21.9649695,9.79638 -21.9649695,21.96496 l 0,200.46763 c 0,12.1686 7.54639,21.965 19.7149695,21.965 l 187.982584,0 c 2.89115,-3.0345 0.56677,-6.8657 3.88057,-10.6036 2.15065,-2.4259 4.89024,-1.4209 6.57179,0.2606 3.3651,3.3651 -0.21307,7.3953 4.28265,10.343 16.56733,-0.25 21.96496,-7.6496 21.96496,-21.965 -1.71875,-4.6311 -5.9382,-3.2378 -8.9073,-4.013 -2.70219,-0.724 -4.89581,-6.6633 0.95552,-8.2312 2.87705,-0.7781 7.95177,-0.5706 7.95177,-4.8924 l 0,-183.33103 c 0,-12.16858 -9.79637,-21.96496 -21.96496,-21.96496 z"
       id="path4245"
       inkscape:connector-curvature="0" />
  </g>
  <g
     id="g4247"
     transform="translate(744.09449,-556.29921)">
    <path
       id="path4249"
       d="m 32.63035,816.25639 -7.5219,-0.0144 c 0,0 -12.66546,1.38798 -12.66546,17.67998 l 0,3.30234 c 0,2.15838 2.24186,1.86661 2.24186,1.86661 l 17.22844,-0.21976 c 1.53795,0 3.54023,-1.50712 3.54023,-3.46003 L 35.3366,818.57522 c 0,0 -0.25796,-2.31409 -2.70625,-2.31879 z"
       style="fill:none;fill-rule:evenodd;stroke:#000000;stroke-width:0.88640338px;stroke-linecap:butt;stroke-linejoin:miter;stroke-opacity:1"
       inkscape:connector-curvature="0" />
    <path
       id="path4251"
       d="m 224.25027,806.14691 -200.467584,0 c -12.16858,0 -21.9649695,9.79638 -21.9649695,21.96496 l 0,200.46763 c 0,12.1686 7.54639,21.965 19.7149695,21.965 l 187.982584,0 c 2.89115,-3.0345 0.56677,-6.8657 3.88057,-10.6036 2.15065,-2.4259 4.89024,-1.4209 6.57179,0.2606 3.3651,3.3651 -0.21307,7.3953 4.28265,10.343 16.56733,-0.25 21.96496,-7.6496 21.96496,-21.965 -1.71875,-4.6311 -5.9382,-3.2378 -8.9073,-4.013 -2.70219,-0.724 -4.89581,-6.6633 0.95552,-8.2312 2.87705,-0.7781 7.95177,-0.5706 7.95177,-4.8924 l 0,-183.33103 c 0,-12.16858 -9.79637,-21.96496 -21.96496,-21.96496 z"
       style="fill:none;stroke:#000000;stroke-width:3.63543296;stroke-linejoin:round;stroke-miterlimit:4;stroke-dasharray:none;stroke-opacity:1"
       inkscape:connector-curvature="0" />
    <path
       style="fill:none;fill-rule:evenodd;stroke:#000000;stroke-width:0.88640338px;stroke-linecap:butt;stroke-linejoin:miter;stroke-opacity:1"
       d="m 32.63035,568.22488 -7.5219,-0.0144 c 0,0 -12.66546,1.38798 -12.66546,17.67998 l 0,3.30234 c 0,2.15838 2.24186,1.86661 2.24186,1.86661 l 17.22844,-0.21976 c 1.53795,0 3.54023,-1.50712 3.54023,-3.46003 L 35.3366,570.54371 c 0,0 -0.25796,-2.31409 -2.70625,-2.31879 z"
       id="path4253"
       inkscape:connector-curvature="0" />
    <path
       style="fill:none;stroke:#000000;stroke-width:3.63543296;stroke-linejoin:round;stroke-miterlimit:4;stroke-dasharray:none;stroke-opacity:1"
       d="m 224.25027,558.1154 -200.467584,0 c -12.16858,0 -21.9649695,9.79638 -21.9649695,21.96496 l 0,200.46763 c 0,12.1686 7.54639,21.965 19.7149695,21.965 l 187.982584,0 c 2.89115,-3.0345 0.56677,-6.8657 3.88057,-10.6036 2.15065,-2.4259 4.89024,-1.4209 6.57179,0.2606 3.3651,3.3651 -0.21307,7.3953 4.28265,10.343 16.56733,-0.25 21.96496,-7.6496 21.96496,-21.965 -1.71875,-4.6311 -5.9382,-3.2378 -8.9073,-4.013 -2.70219,-0.724 -4.89581,-6.6633 0.95552,-8.2312 2.87705,-0.7781 7.95177,-0.5706 7.95177,-4.8924 l 0,-183.33103 c 0,-12.16858 -9.79637,-21.96496 -21.96496,-21.96496 z"
       id="path4255"
       inkscape:connector-curvature="0" />
  </g>
  <g
     transform="translate(744.09449,-556.29921)"
     id="g4257">
    <path
       inkscape:connector-curvature="0"
       style="fill:none;fill-rule:evenodd;stroke:#000000;stroke-width:0.88640338px;stroke-linecap:butt;stroke-linejoin:miter;stroke-opacity:1"
       d="m 32.63035,816.25639 -7.5219,-0.0144 c 0,0 -12.66546,1.38798 -12.66546,17.67998 l 0,3.30234 c 0,2.15838 2.24186,1.86661 2.24186,1.86661 l 17.22844,-0.21976 c 1.53795,0 3.54023,-1.50712 3.54023,-3.46003 L 35.3366,818.57522 c 0,0 -0.25796,-2.31409 -2.70625,-2.31879 z"
       id="path4259" />
    <path
       inkscape:connector-curvature="0"
       style="fill:none;stroke:#000000;stroke-width:3.63543296;stroke-linejoin:round;stroke-miterlimit:4;stroke-dasharray:none;stroke-opacity:1"
       d="m 224.25027,806.14691 -200.467584,0 c -12.16858,0 -21.9649695,9.79638 -21.9649695,21.96496 l 0,200.46763 c 0,12.1686 7.54639,21.965 19.7149695,21.965 l 187.982584,0 c 2.89115,-3.0345 0.56677,-6.8657 3.88057,-10.6036 2.15065,-2.4259 4.89024,-1.4209 6.57179,0.2606 3.3651,3.3651 -0.21307,7.3953 4.28265,10.343 16.56733,-0.25 21.96496,-7.6496 21.96496,-21.965 -1.71875,-4.6311 -5.9382,-3.2378 -8.9073,-4.013 -2.70219,-0.724 -4.89581,-6.6633 0.95552,-8.2312 2.87705,-0.7781 7.95177,-0.5706 7.95177,-4.8924 l 0,-183.33103 c 0,-12.16858 -9.79637,-21.96496 -21.96496,-21.96496 z"
       id="path4261" />
    <path
       inkscape:connector-curvature="0"
       id="path4263"
       d="m 32.63035,568.22488 -7.5219,-0.0144 c 0,0 -12.66546,1.38798 -12.66546,17.67998 l 0,3.30234 c 0,2.15838 2.24186,1.86661 2.24186,1.86661 l 17.22844,-0.21976 c 1.53795,0 3.54023,-1.50712 3.54023,-3.46003 L 35.3366,570.54371 c 0,0 -0.25796,-2.31409 -2.70625,-2.31879 z"
       style="fill:none;fill-rule:evenodd;stroke:#000000;stroke-width:0.88640338px;stroke-linecap:butt;stroke-linejoin:miter;stroke-opacity:1" />
    <path
       inkscape:connector-curvature="0"
       id="path4265"
       d="m 224.25027,558.1154 -200.467584,0 c -12.16858,0 -21.9649695,9.79638 -21.9649695,21.96496 l 0,200.46763 c 0,12.1686 7.54639,21.965 19.7149695,21.965 l 187.982584,0 c 2.89115,-3.0345 0.56677,-6.8657 3.88057,-10.6036 2.15065,-2.4259 4.89024,-1.4209 6.57179,0.2606 3.3651,3.3651 -0.21307,7.3953 4.28265,10.343 16.56733,-0.25 21.96496,-7.6496 21.96496,-21.965 -1.71875,-4.6311 -5.9382,-3.2378 -8.9073,-4.013 -2.70219,-0.724 -4.89581,-6.6633 0.95552,-8.2312 2.87705,-0.7781 7.95177,-0.5706 7.95177,-4.8924 l 0,-183.33103 c 0,-12.16858 -9.79637,-21.96496 -21.96496,-21.96496 z"
       style="fill:none;stroke:#000000;stroke-width:3.63543296;stroke-linejoin:round;stroke-miterlimit:4;stroke-dasharray:none;stroke-opacity:1" />
  </g>
</svg>
