<?xml version="1.0" encoding="UTF-8" standalone="no"?>
<svg
   xmlns:dc="http://purl.org/dc/elements/1.1/"
   xmlns:cc="http://creativecommons.org/ns#"
   xmlns:rdf="http://www.w3.org/1999/02/22-rdf-syntax-ns#"
   xmlns:svg="http://www.w3.org/2000/svg"
   xmlns="http://www.w3.org/2000/svg"
   width="280mm"
   height="280mm"
   viewBox="0 0 992.126 992.12596"
   id="svg2"
   version="1.1">
  <defs
     id="defs4" />
  <metadata
     id="metadata7">
    <rdf:RDF>
      <cc:Work
         rdf:about="">
        <dc:format>image/svg+xml</dc:format>
        <dc:type
           rdf:resource="http://purl.org/dc/dcmitype/StillImage" />
        <dc:title></dc:title>
      </cc:Work>
    </rdf:RDF>
  </metadata>
  <path
     id="rect4181"
     d="m 23.78195,745.91144 200.46759,0 c 12.16858,0 21.96496,9.79637 21.96496,21.96496 l 0,200.4676 c 0,12.16859 -9.79638,21.96496 -21.96496,21.96496 l -200.46759,0 c -12.168588,0 -21.9649599,-9.79637 -21.9649599,-21.96496 l 0,-200.4676 c 0,-12.16859 9.7963719,-21.96496 21.9649599,-21.96496 z"
     style="fill:none;stroke:#000000;stroke-width:3.63543296;stroke-linejoin:round;stroke-miterlimit:4;stroke-dasharray:none;stroke-opacity:1" />
  <path
     id="rect4621"
     d="m 271.81417,745.91144 200.46759,0 c 12.16859,0 21.96496,9.79637 21.96496,21.96496 l 0,200.4676 c 0,12.16859 -9.79637,21.96496 -21.96496,21.96496 l -200.46759,0 c -12.16859,0 -21.96496,-9.79637 -21.96496,-21.96496 l 0,-200.4676 c 0,-12.16859 9.79637,-21.96496 21.96496,-21.96496 z"
     style="fill:none;stroke:#000000;stroke-width:3.63543296;stroke-linejoin:round;stroke-miterlimit:4;stroke-dasharray:none;stroke-opacity:1" />
  <path
     id="rect4625"
     d="m 519.84567,745.91144 200.46758,0 c 12.16859,0 21.96496,9.79637 21.96496,21.96496 l 0,200.4676 c 0,12.16859 -9.79637,21.96496 -21.96496,21.96496 l -200.46758,0 c -12.16859,0 -21.96496,-9.79637 -21.96496,-21.96496 l 0,-200.4676 c 0,-12.16859 9.79637,-21.96496 21.96496,-21.96496 z"
     style="fill:none;stroke:#000000;stroke-width:3.63543296;stroke-linejoin:round;stroke-miterlimit:4;stroke-dasharray:none;stroke-opacity:1" />
  <path
     id="rect4629"
     d="m 767.87713,745.91144 200.46759,0 c 12.16858,0 21.96496,9.79637 21.96496,21.96496 l 0,200.4676 c 0,12.16859 -9.79638,21.96496 -21.96496,21.96496 l -200.46759,0 c -12.16859,0 -21.96496,-9.79637 -21.96496,-21.96496 l 0,-200.4676 c 0,-12.16859 9.79637,-21.96496 21.96496,-21.96496 z"
     style="fill:none;stroke:#000000;stroke-width:3.63543296;stroke-linejoin:round;stroke-miterlimit:4;stroke-dasharray:none;stroke-opacity:1" />
  <path
     id="rect4635"
     d="m 23.782677,497.87924 200.467583,0 c 12.16859,0 21.96496,9.79637 21.96496,21.96496 l 0,200.4676 c 0,12.16859 -9.79637,21.96496 -21.96496,21.96496 l -200.467583,0 c -12.168588,0 -21.9649605,-9.79637 -21.9649605,-21.96496 l 0,-200.4676 c 0,-12.16859 9.7963725,-21.96496 21.9649605,-21.96496 z"
     style="fill:none;stroke:#000000;stroke-width:3.63543296;stroke-linejoin:round;stroke-miterlimit:4;stroke-dasharray:none;stroke-opacity:1" />
  <path
     id="rect4643"
     d="m 271.81491,497.87924 200.46758,0 c 12.16859,0 21.96496,9.79637 21.96496,21.96496 l 0,200.4676 c 0,12.16859 -9.79637,21.96496 -21.96496,21.96496 l -200.46758,0 c -12.16859,0 -21.96496,-9.79637 -21.96496,-21.96496 l 0,-200.4676 c 0,-12.16859 9.79637,-21.96496 21.96496,-21.96496 z"
     style="fill:none;stroke:#000000;stroke-width:3.63543296;stroke-linejoin:round;stroke-miterlimit:4;stroke-dasharray:none;stroke-opacity:1" />
  <path
     id="rect4647"
     d="m 519.8464,497.87924 200.46759,0 c 12.16858,0 21.96496,9.79637 21.96496,21.96496 l 0,200.4676 c 0,12.16859 -9.79638,21.96496 -21.96496,21.96496 l -200.46759,0 c -12.16859,0 -21.96496,-9.79637 -21.96496,-21.96496 l 0,-200.4676 c 0,-12.16859 9.79637,-21.96496 21.96496,-21.96496 z"
     style="fill:none;stroke:#000000;stroke-width:3.63543296;stroke-linejoin:round;stroke-miterlimit:4;stroke-dasharray:none;stroke-opacity:1" />
  <path
     id="rect4651"
     d="m 767.87786,497.87924 200.46759,0 c 12.16859,0 21.96496,9.79637 21.96496,21.96496 l 0,200.4676 c 0,12.16859 -9.79637,21.96496 -21.96496,21.96496 l -200.46759,0 c -12.16858,0 -21.96496,-9.79637 -21.96496,-21.96496 l 0,-200.4676 c 0,-12.16859 9.79638,-21.96496 21.96496,-21.96496 z"
     style="fill:none;stroke:#000000;stroke-width:3.63543296;stroke-linejoin:round;stroke-miterlimit:4;stroke-dasharray:none;stroke-opacity:1" />
  <path
     id="rect4657"
     d="m 23.782677,1.816254 200.467583,0 c 12.16859,0 21.96496,9.796372 21.96496,21.96496 l 0,200.467606 c 0,12.16858 -9.79637,21.96496 -21.96496,21.96496 l -200.467583,0 c -12.168588,0 -21.9649605,-9.79638 -21.9649605,-21.96496 l 0,-200.467606 c 0,-12.168588 9.7963725,-21.96496 21.9649605,-21.96496 z"
     style="fill:none;stroke:#000000;stroke-width:3.63543296;stroke-linejoin:round;stroke-miterlimit:4;stroke-dasharray:none;stroke-opacity:1" />
  <path
     id="rect4665"
     d="m 271.81491,1.816254 200.46758,0 c 12.16859,0 21.96496,9.796372 21.96496,21.96496 l 0,200.467606 c 0,12.16858 -9.79637,21.96496 -21.96496,21.96496 l -200.46758,0 c -12.16859,0 -21.96496,-9.79638 -21.96496,-21.96496 l 0,-200.467606 c 0,-12.168588 9.79637,-21.96496 21.96496,-21.96496 z"
     style="fill:none;stroke:#000000;stroke-width:3.63543296;stroke-linejoin:round;stroke-miterlimit:4;stroke-dasharray:none;stroke-opacity:1" />
  <path
     id="rect4669"
     d="m 519.8464,1.816254 200.46759,0 c 12.16858,0 21.96496,9.796372 21.96496,21.96496 l 0,200.467606 c 0,12.16858 -9.79638,21.96496 -21.96496,21.96496 l -200.46759,0 c -12.16859,0 -21.96496,-9.79638 -21.96496,-21.96496 l 0,-200.467606 c 0,-12.168588 9.79637,-21.96496 21.96496,-21.96496 z"
     style="fill:none;stroke:#000000;stroke-width:3.63543296;stroke-linejoin:round;stroke-miterlimit:4;stroke-dasharray:none;stroke-opacity:1" />
  <path
     id="rect4673"
     d="m 767.87786,1.816254 200.46759,0 c 12.16859,0 21.96496,9.796372 21.96496,21.96496 l 0,200.467606 c 0,12.16858 -9.79637,21.96496 -21.96496,21.96496 l -200.46759,0 c -12.16858,0 -21.96496,-9.79638 -21.96496,-21.96496 l 0,-200.467606 c 0,-12.168588 9.79638,-21.96496 21.96496,-21.96496 z"
     style="fill:none;stroke:#000000;stroke-width:3.63543296;stroke-linejoin:round;stroke-miterlimit:4;stroke-dasharray:none;stroke-opacity:1" />
  <path
     id="rect4679"
     d="m 23.782677,249.84775 200.467583,0 c 12.16859,0 21.96496,9.79637 21.96496,21.96496 l 0,200.4676 c 0,12.16859 -9.79637,21.96496 -21.96496,21.96496 l -200.467583,0 c -12.168588,0 -21.9649605,-9.79637 -21.9649605,-21.96496 l 0,-200.4676 c 0,-12.16859 9.7963725,-21.96496 21.9649605,-21.96496 z"
     style="fill:none;stroke:#000000;stroke-width:3.63543296;stroke-linejoin:round;stroke-miterlimit:4;stroke-dasharray:none;stroke-opacity:1" />
  <path
     id="rect4687"
     d="m 271.81491,249.84775 200.46758,0 c 12.16859,0 21.96496,9.79637 21.96496,21.96496 l 0,200.4676 c 0,12.16859 -9.79637,21.96496 -21.96496,21.96496 l -200.46758,0 c -12.16859,0 -21.96496,-9.79637 -21.96496,-21.96496 l 0,-200.4676 c 0,-12.16859 9.79637,-21.96496 21.96496,-21.96496 z"
     style="fill:none;stroke:#000000;stroke-width:3.63543296;stroke-linejoin:round;stroke-miterlimit:4;stroke-dasharray:none;stroke-opacity:1" />
  <path
     id="rect4691"
     d="m 519.8464,249.84775 200.46759,0 c 12.16858,0 21.96496,9.79637 21.96496,21.96496 l 0,200.4676 c 0,12.16859 -9.79638,21.96496 -21.96496,21.96496 l -200.46759,0 c -12.16859,0 -21.96496,-9.79637 -21.96496,-21.96496 l 0,-200.4676 c 0,-12.16859 9.79637,-21.96496 21.96496,-21.96496 z"
     style="fill:none;stroke:#000000;stroke-width:3.63543296;stroke-linejoin:round;stroke-miterlimit:4;stroke-dasharray:none;stroke-opacity:1" />
  <path
     id="rect4695"
     d="m 767.87786,249.84775 200.46759,0 c 12.16859,0 21.96496,9.79637 21.96496,21.96496 l 0,200.4676 c 0,12.16859 -9.79637,21.96496 -21.96496,21.96496 l -200.46759,0 c -12.16858,0 -21.96496,-9.79637 -21.96496,-21.96496 l 0,-200.4676 c 0,-12.16859 9.79638,-21.96496 21.96496,-21.96496 z"
     style="fill:none;stroke:#000000;stroke-width:3.63543296;stroke-linejoin:round;stroke-miterlimit:4;stroke-dasharray:none;stroke-opacity:1" />
</svg>
