<?xml version="1.0" encoding="UTF-8" standalone="no"?>
<!-- Created with Inkscape (http://www.inkscape.org/) -->

<svg
   xmlns:dc="http://purl.org/dc/elements/1.1/"
   xmlns:cc="http://creativecommons.org/ns#"
   xmlns:rdf="http://www.w3.org/1999/02/22-rdf-syntax-ns#"
   xmlns:svg="http://www.w3.org/2000/svg"
   xmlns="http://www.w3.org/2000/svg"
   xmlns:sodipodi="http://sodipodi.sourceforge.net/DTD/sodipodi-0.dtd"
   xmlns:inkscape="http://www.inkscape.org/namespaces/inkscape"
   width="142mm"
   height="85mm"
   viewBox="0 0 503.14959 301.1811"
   id="svg2"
   version="1.1"
   inkscape:version="0.91 r13725"
   sodipodi:docname="CardCut.svg">
  <sodipodi:namedview
     id="base"
     pagecolor="#5e5e5e"
     bordercolor="#919191"
     borderopacity="1"
     inkscape:pageopacity="0"
     inkscape:pageshadow="2"
     inkscape:zoom="1.3664076"
     inkscape:cx="301.91161"
     inkscape:cy="126.78758"
     inkscape:document-units="mm"
     inkscape:current-layer="layer1"
     showgrid="false"
     inkscape:window-width="1366"
     inkscape:window-height="744"
     inkscape:window-x="0"
     inkscape:window-y="1"
     inkscape:window-maximized="1"
     showguides="false" />
  <defs
     id="defs4" />
  <metadata
     id="metadata7">
    <rdf:RDF>
      <cc:Work
         rdf:about="">
        <dc:format>image/svg+xml</dc:format>
        <dc:type
           rdf:resource="http://purl.org/dc/dcmitype/StillImage" />
        <dc:title />
      </cc:Work>
    </rdf:RDF>
  </metadata>
  <g
     inkscape:label="CardCutOut"
     inkscape:groupmode="layer"
     id="layer1"
     transform="translate(0,-751.1811)">
    <path
       id="path17"
       style="opacity:1;fill:none;stroke:#000000;stroke-width:0.35277906;filter:url(#filter4772)"
       d="M 0.17675472,786.74905 C 0.17664183,767.14214 15.96139,751.35749 35.568314,751.35749"
       inkscape:connector-curvature="0" />
    <path
       id="path19"
       style="opacity:1;fill:none;stroke:#000000;stroke-width:0.35277906;filter:url(#filter4772)"
       d="m 212.46369,751.35749 c 19.60693,0 35.39157,15.78465 35.39157,35.39156"
       inkscape:connector-curvature="0" />
    <path
       id="path21"
       style="opacity:1;fill:none;stroke:#000000;stroke-width:0.35277906;filter:url(#filter4772)"
       d="m 35.568314,751.35749 176.895386,0 -10e-6,0 z"
       inkscape:connector-curvature="0" />
    <path
       id="path23"
       style="opacity:1;fill:none;stroke:#000000;stroke-width:0.35277906;filter:url(#filter4772)"
       d="m 247.85526,1016.7942 c 0,19.6069 -15.78464,35.3916 -35.39157,35.3916"
       inkscape:connector-curvature="0" />
    <path
       id="path25"
       style="opacity:1;fill:none;stroke:#000000;stroke-width:0.35277906;filter:url(#filter4772)"
       d="m 247.85526,786.74905 0,230.04515 z"
       inkscape:connector-curvature="0" />
    <path
       id="path27"
       style="opacity:1;fill:none;stroke:#000000;stroke-width:0.35277906;filter:url(#filter4772)"
       d="m 35.568307,1052.1858 c -19.606934,0 -35.39156992,-9.9354 -35.39156992,-29.5425"
       inkscape:connector-curvature="0" />
    <path
       id="path29"
       style="opacity:1;fill:none;stroke:#000000;stroke-width:0.35277906;filter:url(#filter4772)"
       d="m 212.46369,1052.1858 -176.895383,0 z"
       inkscape:connector-curvature="0" />
    <path
       id="path31"
       style="opacity:1;fill:none;stroke:#000000;stroke-width:0.35277906;filter:url(#filter4772)"
       d="m 0.17673708,1021.2509 c 0.0862157,-2.102 3.34414432,-2.2893 3.34414432,-2.2893"
       inkscape:connector-curvature="0" />
    <path
       id="path33"
       style="opacity:1;fill:none;stroke:#000000;stroke-width:0.35277906;filter:url(#filter4772)"
       d="m 0.17673708,1022.6433 0,-1.3924 z"
       inkscape:connector-curvature="0" />
    <path
       id="path35"
       style="opacity:1;fill:none;stroke:#000000;stroke-width:0.35277906;filter:url(#filter4772)"
       d="m 12.611965,1018.3547 c 4.471429,-0.3305 5.963606,-3.3361 6.205348,-4.6094"
       inkscape:connector-curvature="0" />
    <path
       id="path37"
       style="opacity:1;fill:none;stroke:#000000;stroke-width:0.35277906;filter:url(#filter4772)"
       d="m 3.5208814,1018.9616 9.0910836,-0.6069 z"
       inkscape:connector-curvature="0" />
    <path
       id="path39"
       style="opacity:1;fill:none;stroke:#000000;stroke-width:0.35277906;filter:url(#filter4772)"
       d="m 18.880718,1010.079 c 0,-2.7107 -2.078966,-3.0713 -5.129728,-3.8125"
       inkscape:connector-curvature="0" />
    <path
       id="path41"
       style="opacity:1;fill:none;stroke:#000000;stroke-width:0.35277906;filter:url(#filter4772)"
       d="m 18.817313,1013.7453 0.06341,-3.6663 z"
       inkscape:connector-curvature="0" />
    <path
       id="path43"
       style="opacity:1;fill:none;stroke:#000000;stroke-width:0.35277906;filter:url(#filter4772)"
       d="m 3.6705726,1004.9578 c 0,0 -3.23024254,-0.042 -3.23024254,-3.4205"
       inkscape:connector-curvature="0" />
    <path
       id="path45"
       style="opacity:1;fill:none;stroke:#000000;stroke-width:0.35277906;filter:url(#filter4772)"
       d="M 13.75099,1006.2665 3.6705726,1004.9578 Z"
       inkscape:connector-curvature="0" />
    <path
       id="path47"
       style="opacity:1;fill:none;stroke:#000000;stroke-width:0.35277906;filter:url(#filter4772)"
       d="m 0.44033006,995.09778 c 0,-3.63439 2.52686464,-3.74616 2.52686464,-3.74616"
       inkscape:connector-curvature="0" />
    <path
       id="path49"
       style="opacity:1;fill:none;stroke:#000000;stroke-width:0.35277906;filter:url(#filter4772)"
       d="m 0.44033006,1001.5373 0,-6.43952 z"
       inkscape:connector-curvature="0" />
    <path
       id="path51"
       style="opacity:1;fill:none;stroke:#000000;stroke-width:0.35277906;filter:url(#filter4772)"
       d="m 11.459556,990.52232 c 3.578845,-0.23183 7.854266,-2.85287 7.91216,-4.81183"
       inkscape:connector-curvature="0" />
    <path
       id="path53"
       style="opacity:1;fill:none;stroke:#000000;stroke-width:0.35277906;filter:url(#filter4772)"
       d="m 2.9671947,991.35161 8.4923613,-0.82929 z"
       inkscape:connector-curvature="0" />
    <path
       id="path55"
       style="opacity:1;fill:none;stroke:#000000;stroke-width:0.35277906;filter:url(#filter4772)"
       d="m 19.371716,982.52424 c 0,-3.98637 -12.3162573,-3.94888 -2.825679,-10.65667"
       inkscape:connector-curvature="0" />
    <path
       id="path57"
       style="opacity:1;fill:none;stroke:#000000;stroke-width:0.35277906;filter:url(#filter4772)"
       d="m 16.546037,971.86757 c 0,0 1.061064,-1.23099 1.061064,-2.8097"
       inkscape:connector-curvature="0" />
    <path
       id="path59"
       style="opacity:1;fill:none;stroke:#000000;stroke-width:0.35277906;filter:url(#filter4772)"
       d="m 19.371716,985.71049 0,-3.18625 z"
       inkscape:connector-curvature="0" />
    <path
       id="path61"
       style="opacity:1;fill:none;stroke:#000000;stroke-width:0.35277906;filter:url(#filter4772)"
       d="m 17.607101,904.06258 c 0,-1.07508 -0.865483,-1.94055 -1.940556,-1.94055"
       inkscape:connector-curvature="0" />
    <path
       id="path63"
       style="opacity:1;fill:none;stroke:#000000;stroke-width:0.35277906;filter:url(#filter4772)"
       d="m 17.607101,969.05786 0,-64.99528 z"
       inkscape:connector-curvature="0" />
    <path
       id="path65"
       style="opacity:1;fill:none;stroke:#000000;stroke-width:0.35277906;filter:url(#filter4772)"
       d="m 2.0808832,902.12203 c -1.0241,0 -1.89849812,-0.54062 -1.89849812,-1.77361"
       inkscape:connector-curvature="0" />
    <path
       id="path67"
       style="opacity:1;fill:none;stroke:#000000;stroke-width:0.35277906;filter:url(#filter4772)"
       d="m 0.18238508,900.34842 c -0.004269,-38.23105 -0.005115,-75.36834 -0.005997,-113.59937"
       inkscape:connector-curvature="0" />
    <path
       id="path69"
       style="opacity:1;fill:none;stroke:#000000;stroke-width:0.35277906;filter:url(#filter4772)"
       d="m 15.666545,902.12203 -13.5856618,0 z"
       inkscape:connector-curvature="0" />
    <path
       id="path71"
       style="opacity:1;fill:none;stroke:#000000;stroke-width:0.35277906;filter:url(#filter4772)"
       d="m 0.17640194,786.74905 3.5278e-4,0 z"
       inkscape:connector-curvature="0" />
    <path
       transform="scale(-1,1)"
       style="opacity:1;fill:none;fill-opacity:1;stroke:#000000;stroke-width:0.41265979;stroke-linecap:round;stroke-miterlimit:4;stroke-dasharray:none;stroke-opacity:1;filter:url(#filter4772)"
       d="m -234.52599,917.92285 3.10708,0 c 2.46027,0 4.44092,1.98065 4.44092,4.44092 l 0,19.05196 c 0,2.46027 -1.98065,4.44092 -4.44092,4.44092 l -3.10708,0 c -2.46026,0 -4.44091,-1.98065 -4.44091,-4.44092 l 0,-19.05196 c 0,-2.46027 1.98065,-4.44092 4.44091,-4.44092 z"
       id="rect4158-6-8" />
    <path
       transform="scale(-1,1)"
       style="opacity:1;fill:none;fill-opacity:1;stroke:#000000;stroke-width:0.41265979;stroke-linecap:round;stroke-miterlimit:4;stroke-dasharray:none;stroke-opacity:1;filter:url(#filter4772)"
       d="m -489.63083,917.90753 3.10708,0 c 2.46027,0 4.44092,1.98065 4.44092,4.44092 l 0,19.05196 c 0,2.46027 -1.98065,4.44092 -4.44092,4.44092 l -3.10708,0 c -2.46027,0 -4.44092,-1.98065 -4.44092,-4.44092 l 0,-19.05196 c 0,-2.46027 1.98065,-4.44092 4.44092,-4.44092 z"
       id="rect4158-6-8-0" />
    <path
       sodipodi:nodetypes="ssssccsscssssssccccccccccccccccccs"
       inkscape:connector-curvature="0"
       id="rect8026"
       d="m 271.27292,901.8772 c 0.87567,0 1.58063,-0.82985 1.58063,-1.86065 l 0,-70.53999 c 0,-1.0308 -0.70496,-1.86063 -1.58063,-1.86064 l -14.45293,-1.6e-4 c -1.43472,-1.6e-4 -1.53835,-1.4556 -1.53835,-1.4556 l -2.2e-4,-39.42599 c -1.1e-4,-19.60684 15.78458,-35.39143 35.39143,-35.39143 l 176.89475,0 -1e-5,0 c 19.60686,0 35.39144,15.78459 35.39144,35.39143 l 0,230.04433 c 0,19.6069 -15.78458,35.3915 -35.39144,35.3915 l -176.89474,0 c -19.60687,0 -35.39145,-9.9354 -35.39145,-29.5424 l 0,-1.3924 c 0.0862,-2.102 3.34414,-2.2893 3.34414,-2.2893 l 9.09105,-0.6069 c 4.47141,-0.3305 5.96358,-3.3361 6.20532,-4.6094 l 0.0634,-3.6663 c 0,-2.7107 -2.07896,-3.0712 -5.12971,-3.8125 l -10.08038,-1.3087 c 0,0 -3.23023,-0.042 -3.23023,-3.4205 l 0,-6.43944 c 0,-3.63438 2.52685,-3.74616 2.52685,-3.74616 l 8.49233,-0.82928 c 3.57884,-0.23184 7.85424,-2.85287 7.91214,-4.81183 l 0,-4.19252 c 0,-1.44661 -0.66986,-3.91695 -7.89412,-3.91695 l -7.89445,-0.30028 c -3.37898,0.10804 -3.14275,-3.84967 -3.14275,-3.84967 l -0.13895,-70.20221 c 0,0 0.36593,-1.32648 1.51627,-1.34126 z"
       style="fill:none;fill-opacity:1;stroke:#000000;stroke-width:0.35433072;stroke-linecap:round;stroke-miterlimit:4;stroke-dasharray:none;stroke-opacity:1" />
  </g>
  <g
     inkscape:groupmode="layer"
     id="layer2"
     inkscape:label="Graphics" />
</svg>
