<?xml version="1.0" encoding="UTF-8" standalone="no"?>
<svg
   xmlns:dc="http://purl.org/dc/elements/1.1/"
   xmlns:cc="http://creativecommons.org/ns#"
   xmlns:rdf="http://www.w3.org/1999/02/22-rdf-syntax-ns#"
   xmlns:svg="http://www.w3.org/2000/svg"
   xmlns="http://www.w3.org/2000/svg"
   xmlns:sodipodi="http://sodipodi.sourceforge.net/DTD/sodipodi-0.dtd"
   xmlns:inkscape="http://www.inkscape.org/namespaces/inkscape"
   width="560mm"
   height="280mm"
   viewBox="0 0 1984.252 992.12605"
   id="svg2"
   version="1.1"
   inkscape:version="0.91 r13725"
   sodipodi:docname="CutTwo.svg">
  <sodipodi:namedview
     pagecolor="#ffffff"
     bordercolor="#666666"
     borderopacity="1"
     objecttolerance="10"
     gridtolerance="10"
     guidetolerance="10"
     inkscape:pageopacity="0"
     inkscape:pageshadow="2"
     inkscape:window-width="1366"
     inkscape:window-height="744"
     id="namedview21"
     showgrid="false"
     inkscape:zoom="0.56444444"
     inkscape:cx="992.12598"
     inkscape:cy="496.06299"
     inkscape:window-x="0"
     inkscape:window-y="1"
     inkscape:window-maximized="1"
     inkscape:current-layer="svg2" />
  <defs
     id="defs4" />
  <metadata
     id="metadata7">
    <rdf:RDF>
      <cc:Work
         rdf:about="">
        <dc:format>image/svg+xml</dc:format>
        <dc:type
           rdf:resource="http://purl.org/dc/dcmitype/StillImage" />
        <dc:title></dc:title>
      </cc:Work>
    </rdf:RDF>
  </metadata>
  <path
     id="path4210"
     d="m 279.36707,754.43607 -7.62754,-0.0146 c 0,0 -12.84332,1.4076 -12.84332,17.93 l 0,3.34904 c 0,2.1889 2.27334,1.89301 2.27334,1.89301 l 17.47037,-0.22287 c 1.55955,0 3.58995,-1.52844 3.58995,-3.50897 l -0.11856,-17.074 c 0,0 -0.26158,-2.34681 -2.74424,-2.35157 z"
     style="opacity:1;fill:none;fill-rule:evenodd;stroke:#ff0000;stroke-width:0.35433073;stroke-linecap:butt;stroke-linejoin:miter;stroke-miterlimit:4;stroke-dasharray:none;stroke-opacity:1"
     inkscape:connector-curvature="0" />
  <path
     id="rect4181-3"
     d="m 473.6771,744.18292 -203.2827,0 c -12.33947,0 -22.27342,9.93493 -22.27342,22.27557 l 0,203.30261 c 0,12.3406 7.65235,22.2756 19.99182,22.2756 l 184.75559,0 c 2.93175,-3.0774 -0.0232,-18.2649 9.03757,-19.4008 8.84254,-0.8361 6.512,19.4008 13.74298,19.4008 16.79999,-0.2536 20.30156,-5.2479 20.30156,-19.7658 0,-7.4427 -16.65204,-7.0886 -16.65204,-15.1806 0,-7.1321 16.65204,-6.1006 16.65204,-10.4832 l 0,-58.96339 c 0,0 0.48634,-3.88591 -2.99778,-4.08794 l -26.21474,-1.52001 c 0,0 -4.53951,-0.65929 -4.53951,-5.76068 l 0,-19.0547 c 0,-4.3443 4.81567,-4.65698 4.81567,-4.65698 l 25.04923,-1.36511 c 3.90908,-0.10764 3.88713,-3.58528 3.88713,-3.58528 l 0,-81.15452 c 0,-12.34064 -9.93393,-22.27557 -22.2734,-22.27557 z"
     style="opacity:1;fill:none;stroke:#ff0000;stroke-width:0.35433073;stroke-linejoin:round;stroke-miterlimit:4;stroke-dasharray:none;stroke-opacity:1"
     inkscape:connector-curvature="0" />
  <path
     id="path4210-5"
     d="m 31.337887,754.43609 -7.628292,-0.0146 c 0,0 -12.8446,1.4076 -12.8446,17.93007 l 0,3.34906 c 0,2.1889 2.273569,1.89301 2.273569,1.89301 l 17.472109,-0.22287 c 1.559702,0 3.590301,-1.52845 3.590301,-3.50899 l -0.118571,-17.07406 c 0,0 -0.26161,-2.34682 -2.744516,-2.35158 z"
     style="opacity:1;fill:none;fill-rule:evenodd;stroke:#ff0000;stroke-width:0.35433073;stroke-linecap:butt;stroke-linejoin:miter;stroke-miterlimit:4;stroke-dasharray:none;stroke-opacity:1"
     inkscape:connector-curvature="0" />
  <path
     id="rect4181-3-3"
     d="m 225.66721,744.1829 -203.302877,0 c -12.340697,0 -22.27563494,9.93496 -22.27563494,22.27566 l 0,180.72094 c 0,7.9287 8.29302704,6.829 8.29302704,6.829 l 20.2730209,-0.115 c 12.38797,-0.07 12.0902,8.1389 12.050798,20.4322 l -0.03263,10.1808 c 0,0 0.928306,7.5312 6.818727,7.5312 l 157.364789,0 c 2.93204,-3.0774 -0.0232,-18.265 9.03847,-19.401 8.84341,-0.836 6.51264,19.401 13.74434,19.401 16.80166,-0.2537 20.30358,-5.2479 20.30358,-19.7659 0,-7.4427 -16.6537,-7.0886 -16.6537,-15.1807 0,-7.1321 16.6537,-6.1006 16.6537,-10.4832 l 0,-180.14934 c 0,-12.3407 -9.93492,-22.27566 -22.27562,-22.27566 z"
     style="opacity:1;fill:none;stroke:#ff0000;stroke-width:0.35433073;stroke-linejoin:round;stroke-miterlimit:4;stroke-dasharray:none;stroke-opacity:1"
     inkscape:connector-curvature="0" />
  <path
     style="opacity:1;fill:none;fill-rule:evenodd;stroke:#ff0000;stroke-width:0.35433073;stroke-linecap:butt;stroke-linejoin:miter;stroke-miterlimit:4;stroke-dasharray:none;stroke-opacity:1"
     d="m 775.42988,754.43607 -7.62754,-0.0146 c 0,0 -12.84332,1.4076 -12.84332,17.93 l 0,3.34904 c 0,2.1889 2.27334,1.89301 2.27334,1.89301 l 17.47037,-0.22287 c 1.55955,0 3.58995,-1.52844 3.58995,-3.50897 l -0.11856,-17.074 c 0,0 -0.26158,-2.34681 -2.74424,-2.35157 z"
     id="path3340"
     inkscape:connector-curvature="0" />
  <path
     style="opacity:1;fill:none;stroke:#ff0000;stroke-width:0.35433073;stroke-linejoin:round;stroke-miterlimit:4;stroke-dasharray:none;stroke-opacity:1"
     d="m 969.73991,744.18292 -203.2827,0 c -12.33947,0 -22.27342,9.93493 -22.27342,22.27557 l 0,203.30261 c 0,12.3406 7.65235,22.2756 19.99182,22.2756 l 184.75559,0 c 2.93175,-3.0774 -0.0232,-18.2649 9.03757,-19.4008 8.84254,-0.8361 6.512,19.4008 13.74298,19.4008 16.79999,-0.2536 20.30156,-5.2479 20.30156,-19.7658 0,-7.4427 -16.65204,-7.0886 -16.65204,-15.1806 0,-7.1321 16.65204,-6.1006 16.65204,-10.4832 l 0,-58.96339 c 0,0 0.48634,-3.88591 -2.99778,-4.08794 l -26.21474,-1.52001 c 0,0 -4.53951,-0.65929 -4.53951,-5.76068 l 0,-19.0547 c 0,-4.3443 4.81567,-4.65698 4.81567,-4.65698 l 25.04923,-1.36511 c 3.90908,-0.10764 3.88713,-3.58528 3.88713,-3.58528 l 0,-81.15452 c 0,-12.34064 -9.93393,-22.27557 -22.2734,-22.27557 z"
     id="path3342"
     inkscape:connector-curvature="0" />
  <path
     style="opacity:1;fill:none;fill-rule:evenodd;stroke:#ff0000;stroke-width:0.35433073;stroke-linecap:butt;stroke-linejoin:miter;stroke-miterlimit:4;stroke-dasharray:none;stroke-opacity:1"
     d="m 527.4007,754.43609 -7.62829,-0.0146 c 0,0 -12.8446,1.4076 -12.8446,17.93007 l 0,3.34906 c 0,2.1889 2.27356,1.89301 2.27356,1.89301 l 17.47211,-0.22287 c 1.55971,0 3.5903,-1.52845 3.5903,-3.50899 l -0.11857,-17.07406 c 0,0 -0.26161,-2.34682 -2.74451,-2.35158 z"
     id="path3344"
     inkscape:connector-curvature="0" />
  <path
     style="opacity:1;fill:none;stroke:#ff0000;stroke-width:0.35433073;stroke-linejoin:round;stroke-miterlimit:4;stroke-dasharray:none;stroke-opacity:1"
     d="m 721.73002,744.1829 -203.30288,0 c -12.34069,0 -22.27563,9.93496 -22.27563,22.27566 l 0,180.72094 c 0,7.9287 8.29303,6.829 8.29303,6.829 l 20.27302,-0.115 c 12.38797,-0.07 12.0902,8.1389 12.05079,20.4322 l -0.0326,10.1808 c 0,0 0.92831,7.5312 6.81873,7.5312 l 157.36479,0 c 2.93204,-3.0774 -0.0232,-18.265 9.03847,-19.401 8.84341,-0.836 6.51264,19.401 13.74434,19.401 16.80166,-0.2537 20.30358,-5.2479 20.30358,-19.7659 0,-7.4427 -16.6537,-7.0886 -16.6537,-15.1807 0,-7.1321 16.6537,-6.1006 16.6537,-10.4832 l 0,-180.14934 c 0,-12.3407 -9.93492,-22.27566 -22.27562,-22.27566 z"
     id="path3346"
     inkscape:connector-curvature="0" />
  <path
     style="opacity:1;fill:none;fill-rule:evenodd;stroke:#ff0000;stroke-width:0.35433073;stroke-linecap:butt;stroke-linejoin:miter;stroke-miterlimit:4;stroke-dasharray:none;stroke-opacity:1"
     d="m 1271.4929,754.43607 -7.6276,-0.0146 c 0,0 -12.8433,1.4076 -12.8433,17.93 l 0,3.34904 c 0,2.1889 2.2734,1.89301 2.2734,1.89301 l 17.4703,-0.22287 c 1.5596,0 3.59,-1.52844 3.59,-3.50897 l -0.1186,-17.074 c 0,0 -0.2616,-2.34681 -2.7442,-2.35157 z"
     id="path3360"
     inkscape:connector-curvature="0" />
  <path
     style="opacity:1;fill:none;stroke:#ff0000;stroke-width:0.35433073;stroke-linejoin:round;stroke-miterlimit:4;stroke-dasharray:none;stroke-opacity:1"
     d="m 1465.8029,744.18292 -203.2827,0 c -12.3395,0 -22.2734,9.93493 -22.2734,22.27557 l 0,203.30261 c 0,12.3406 7.6523,22.2756 19.9918,22.2756 l 184.7556,0 c 2.9318,-3.0774 -0.023,-18.2649 9.0376,-19.4008 8.8425,-0.8361 6.512,19.4008 13.743,19.4008 16.7999,-0.2536 20.3015,-5.2479 20.3015,-19.7658 0,-7.4427 -16.652,-7.0886 -16.652,-15.1806 0,-7.1321 16.652,-6.1006 16.652,-10.4832 l 0,-58.96339 c 0,0 0.4864,-3.88591 -2.9978,-4.08794 l -26.2147,-1.52001 c 0,0 -4.5395,-0.65929 -4.5395,-5.76068 l 0,-19.0547 c 0,-4.3443 4.8157,-4.65698 4.8157,-4.65698 l 25.0492,-1.36511 c 3.9091,-0.10764 3.8871,-3.58528 3.8871,-3.58528 l 0,-81.15452 c 0,-12.34064 -9.9339,-22.27557 -22.2734,-22.27557 z"
     id="path3362"
     inkscape:connector-curvature="0" />
  <path
     style="opacity:1;fill:none;fill-rule:evenodd;stroke:#ff0000;stroke-width:0.35433073;stroke-linecap:butt;stroke-linejoin:miter;stroke-miterlimit:4;stroke-dasharray:none;stroke-opacity:1"
     d="m 1023.4637,754.43609 -7.6283,-0.0146 c 0,0 -12.8446,1.4076 -12.8446,17.93007 l 0,3.34906 c 0,2.1889 2.2736,1.89301 2.2736,1.89301 l 17.4721,-0.22287 c 1.5597,0 3.5903,-1.52845 3.5903,-3.50899 l -0.1186,-17.07406 c 0,0 -0.2616,-2.34682 -2.7445,-2.35158 z"
     id="path3364"
     inkscape:connector-curvature="0" />
  <path
     style="opacity:1;fill:none;stroke:#ff0000;stroke-width:0.35433073;stroke-linejoin:round;stroke-miterlimit:4;stroke-dasharray:none;stroke-opacity:1"
     d="m 1217.793,744.1829 -203.3029,0 c -12.3407,0 -22.27559,9.93496 -22.27559,22.27566 l 0,180.72094 c 0,7.9287 8.29299,6.829 8.29299,6.829 l 20.2731,-0.115 c 12.3879,-0.07 12.0902,8.1389 12.0508,20.4322 l -0.033,10.1808 c 0,0 0.9283,7.5312 6.8188,7.5312 l 157.3647,0 c 2.9321,-3.0774 -0.023,-18.265 9.0385,-19.401 8.8434,-0.836 6.5127,19.401 13.7444,19.401 16.8016,-0.2537 20.3035,-5.2479 20.3035,-19.7659 0,-7.4427 -16.6537,-7.0886 -16.6537,-15.1807 0,-7.1321 16.6537,-6.1006 16.6537,-10.4832 l 0,-180.14934 c 0,-12.3407 -9.9349,-22.27566 -22.2756,-22.27566 z"
     id="path3366"
     inkscape:connector-curvature="0" />
  <path
     id="path3370"
     d="m 1767.5557,754.43607 -7.6276,-0.0146 c 0,0 -12.8433,1.4076 -12.8433,17.93 l 0,3.34904 c 0,2.1889 2.2734,1.89301 2.2734,1.89301 l 17.4703,-0.22287 c 1.5596,0 3.59,-1.52844 3.59,-3.50897 l -0.1186,-17.074 c 0,0 -0.2616,-2.34681 -2.7442,-2.35157 z"
     style="opacity:1;fill:none;fill-rule:evenodd;stroke:#ff0000;stroke-width:0.35433073;stroke-linecap:butt;stroke-linejoin:miter;stroke-miterlimit:4;stroke-dasharray:none;stroke-opacity:1"
     inkscape:connector-curvature="0" />
  <path
     id="path3372"
     d="m 1961.8657,744.18292 -203.2827,0 c -12.3395,0 -22.2734,9.93493 -22.2734,22.27557 l 0,203.30261 c 0,12.3406 7.6523,22.2756 19.9918,22.2756 l 184.7556,0 c 2.9317,-3.0774 -0.023,-18.2649 9.0376,-19.4008 8.8425,-0.8361 6.512,19.4008 13.7429,19.4008 16.8,-0.2536 20.3016,-5.2479 20.3016,-19.7658 0,-7.4427 -16.652,-7.0886 -16.652,-15.1806 0,-7.1321 16.652,-6.1006 16.652,-10.4832 l 0,-58.96339 c 0,0 0.4863,-3.88591 -2.9978,-4.08794 l -26.2147,-1.52001 c 0,0 -4.5395,-0.65929 -4.5395,-5.76068 l 0,-19.0547 c 0,-4.3443 4.8156,-4.65698 4.8156,-4.65698 l 25.0493,-1.36511 c 3.9091,-0.10764 3.8871,-3.58528 3.8871,-3.58528 l 0,-81.15452 c 0,-12.34064 -9.9339,-22.27557 -22.2734,-22.27557 z"
     style="opacity:1;fill:none;stroke:#ff0000;stroke-width:0.35433073;stroke-linejoin:round;stroke-miterlimit:4;stroke-dasharray:none;stroke-opacity:1"
     inkscape:connector-curvature="0" />
  <path
     id="path3374"
     d="m 1519.5265,754.43609 -7.6283,-0.0146 c 0,0 -12.8446,1.4076 -12.8446,17.93007 l 0,3.34906 c 0,2.1889 2.2736,1.89301 2.2736,1.89301 l 17.4721,-0.22287 c 1.5597,0 3.5903,-1.52845 3.5903,-3.50899 l -0.1186,-17.07406 c 0,0 -0.2616,-2.34682 -2.7445,-2.35158 z"
     style="opacity:1;fill:none;fill-rule:evenodd;stroke:#ff0000;stroke-width:0.35433073;stroke-linecap:butt;stroke-linejoin:miter;stroke-miterlimit:4;stroke-dasharray:none;stroke-opacity:1"
     inkscape:connector-curvature="0" />
  <path
     id="path3376"
     d="m 1713.8558,744.1829 -203.3029,0 c -12.3407,0 -22.2756,9.93496 -22.2756,22.27566 l 0,180.72094 c 0,7.9287 8.293,6.829 8.293,6.829 l 20.273,-0.115 c 12.388,-0.07 12.0902,8.1389 12.0508,20.4322 l -0.033,10.1808 c 0,0 0.9283,7.5312 6.8187,7.5312 l 157.3648,0 c 2.9321,-3.0774 -0.023,-18.265 9.0385,-19.401 8.8434,-0.836 6.5126,19.401 13.7443,19.401 16.8017,-0.2537 20.3036,-5.2479 20.3036,-19.7659 0,-7.4427 -16.6537,-7.0886 -16.6537,-15.1807 0,-7.1321 16.6537,-6.1006 16.6537,-10.4832 l 0,-180.14934 c 0,-12.3407 -9.9349,-22.27566 -22.2756,-22.27566 z"
     style="opacity:1;fill:none;stroke:#ff0000;stroke-width:0.35433073;stroke-linejoin:round;stroke-miterlimit:4;stroke-dasharray:none;stroke-opacity:1"
     inkscape:connector-curvature="0" />
  <path
     inkscape:connector-curvature="0"
     style="opacity:1;fill:none;fill-rule:evenodd;stroke:#ff0000;stroke-width:0.35433073;stroke-linecap:butt;stroke-linejoin:miter;stroke-miterlimit:4;stroke-dasharray:none;stroke-opacity:1"
     d="m 279.36707,506.40438 -7.62754,-0.0146 c 0,0 -12.84332,1.4076 -12.84332,17.93 l 0,3.34904 c 0,2.1889 2.27334,1.89301 2.27334,1.89301 l 17.47037,-0.22287 c 1.55955,0 3.58995,-1.52844 3.58995,-3.50897 l -0.11856,-17.074 c 0,0 -0.26158,-2.34681 -2.74424,-2.35157 z"
     id="path4149" />
  <path
     inkscape:connector-curvature="0"
     style="opacity:1;fill:none;stroke:#ff0000;stroke-width:0.35433073;stroke-linejoin:round;stroke-miterlimit:4;stroke-dasharray:none;stroke-opacity:1"
     d="m 473.6771,496.15123 -203.2827,0 c -12.33947,0 -22.27342,9.93493 -22.27342,22.27557 l 0,203.30261 c 0,12.3406 7.65235,22.2756 19.99182,22.2756 l 184.75559,0 c 2.93175,-3.0774 -0.0232,-18.2649 9.03757,-19.4008 8.84254,-0.8361 6.512,19.4008 13.74298,19.4008 16.79999,-0.2536 20.30156,-5.2479 20.30156,-19.7658 0,-7.4427 -16.65204,-7.0886 -16.65204,-15.1806 0,-7.1321 16.65204,-6.1006 16.65204,-10.4832 l 0,-58.96339 c 0,0 0.48634,-3.88591 -2.99778,-4.08794 l -26.21474,-1.52001 c 0,0 -4.53951,-0.65929 -4.53951,-5.76068 l 0,-19.0547 c 0,-4.3443 4.81567,-4.65698 4.81567,-4.65698 l 25.04923,-1.36511 c 3.90908,-0.10764 3.88713,-3.58528 3.88713,-3.58528 l 0,-81.15452 c 0,-12.34064 -9.93393,-22.27557 -22.2734,-22.27557 z"
     id="path4151" />
  <path
     inkscape:connector-curvature="0"
     style="opacity:1;fill:none;fill-rule:evenodd;stroke:#ff0000;stroke-width:0.35433073;stroke-linecap:butt;stroke-linejoin:miter;stroke-miterlimit:4;stroke-dasharray:none;stroke-opacity:1"
     d="m 31.337887,506.4044 -7.628292,-0.0146 c 0,0 -12.8446,1.4076 -12.8446,17.93007 l 0,3.34906 c 0,2.1889 2.273569,1.89301 2.273569,1.89301 l 17.472109,-0.22287 c 1.559702,0 3.590301,-1.52845 3.590301,-3.50899 l -0.118571,-17.07406 c 0,0 -0.26161,-2.34682 -2.744516,-2.35158 z"
     id="path4153" />
  <path
     inkscape:connector-curvature="0"
     style="opacity:1;fill:none;stroke:#ff0000;stroke-width:0.35433073;stroke-linejoin:round;stroke-miterlimit:4;stroke-dasharray:none;stroke-opacity:1"
     d="m 225.66721,496.15121 -203.302877,0 c -12.340697,0 -22.27563494,9.93496 -22.27563494,22.27566 l 0,180.72094 c 0,7.9287 8.29302704,6.829 8.29302704,6.829 l 20.2730209,-0.115 c 12.38797,-0.07 12.0902,8.1389 12.050798,20.4322 l -0.03263,10.1808 c 0,0 0.928306,7.5312 6.818727,7.5312 l 157.364789,0 c 2.93204,-3.0774 -0.0232,-18.265 9.03847,-19.401 8.84341,-0.836 6.51264,19.401 13.74434,19.401 16.80166,-0.2537 20.30358,-5.2479 20.30358,-19.7659 0,-7.4427 -16.6537,-7.0886 -16.6537,-15.1807 0,-7.1321 16.6537,-6.1006 16.6537,-10.4832 l 0,-180.14934 c 0,-12.3407 -9.93492,-22.27566 -22.27562,-22.27566 z"
     id="path4155" />
  <path
     inkscape:connector-curvature="0"
     id="path4157"
     d="m 775.42988,506.40438 -7.62754,-0.0146 c 0,0 -12.84332,1.4076 -12.84332,17.93 l 0,3.34904 c 0,2.1889 2.27334,1.89301 2.27334,1.89301 l 17.47037,-0.22287 c 1.55955,0 3.58995,-1.52844 3.58995,-3.50897 l -0.11856,-17.074 c 0,0 -0.26158,-2.34681 -2.74424,-2.35157 z"
     style="opacity:1;fill:none;fill-rule:evenodd;stroke:#ff0000;stroke-width:0.35433073;stroke-linecap:butt;stroke-linejoin:miter;stroke-miterlimit:4;stroke-dasharray:none;stroke-opacity:1" />
  <path
     inkscape:connector-curvature="0"
     id="path4159"
     d="m 969.73991,496.15123 -203.2827,0 c -12.33947,0 -22.27342,9.93493 -22.27342,22.27557 l 0,203.30261 c 0,12.3406 7.65235,22.2756 19.99182,22.2756 l 184.75559,0 c 2.93175,-3.0774 -0.0232,-18.2649 9.03757,-19.4008 8.84254,-0.8361 6.512,19.4008 13.74298,19.4008 16.79999,-0.2536 20.30156,-5.2479 20.30156,-19.7658 0,-7.4427 -16.65204,-7.0886 -16.65204,-15.1806 0,-7.1321 16.65204,-6.1006 16.65204,-10.4832 l 0,-58.96339 c 0,0 0.48634,-3.88591 -2.99778,-4.08794 l -26.21474,-1.52001 c 0,0 -4.53951,-0.65929 -4.53951,-5.76068 l 0,-19.0547 c 0,-4.3443 4.81567,-4.65698 4.81567,-4.65698 l 25.04923,-1.36511 c 3.90908,-0.10764 3.88713,-3.58528 3.88713,-3.58528 l 0,-81.15452 c 0,-12.34064 -9.93393,-22.27557 -22.2734,-22.27557 z"
     style="opacity:1;fill:none;stroke:#ff0000;stroke-width:0.35433073;stroke-linejoin:round;stroke-miterlimit:4;stroke-dasharray:none;stroke-opacity:1" />
  <path
     inkscape:connector-curvature="0"
     id="path4161"
     d="m 527.4007,506.4044 -7.62829,-0.0146 c 0,0 -12.8446,1.4076 -12.8446,17.93007 l 0,3.34906 c 0,2.1889 2.27356,1.89301 2.27356,1.89301 l 17.47211,-0.22287 c 1.55971,0 3.5903,-1.52845 3.5903,-3.50899 l -0.11857,-17.07406 c 0,0 -0.26161,-2.34682 -2.74451,-2.35158 z"
     style="opacity:1;fill:none;fill-rule:evenodd;stroke:#ff0000;stroke-width:0.35433073;stroke-linecap:butt;stroke-linejoin:miter;stroke-miterlimit:4;stroke-dasharray:none;stroke-opacity:1" />
  <path
     inkscape:connector-curvature="0"
     id="path4163"
     d="m 721.73002,496.15121 -203.30288,0 c -12.34069,0 -22.27563,9.93496 -22.27563,22.27566 l 0,180.72094 c 0,7.9287 8.29303,6.829 8.29303,6.829 l 20.27302,-0.115 c 12.38797,-0.07 12.0902,8.1389 12.05079,20.4322 l -0.0326,10.1808 c 0,0 0.92831,7.5312 6.81873,7.5312 l 157.36479,0 c 2.93204,-3.0774 -0.0232,-18.265 9.03847,-19.401 8.84341,-0.836 6.51264,19.401 13.74434,19.401 16.80166,-0.2537 20.30358,-5.2479 20.30358,-19.7659 0,-7.4427 -16.6537,-7.0886 -16.6537,-15.1807 0,-7.1321 16.6537,-6.1006 16.6537,-10.4832 l 0,-180.14934 c 0,-12.3407 -9.93492,-22.27566 -22.27562,-22.27566 z"
     style="opacity:1;fill:none;stroke:#ff0000;stroke-width:0.35433073;stroke-linejoin:round;stroke-miterlimit:4;stroke-dasharray:none;stroke-opacity:1" />
  <path
     inkscape:connector-curvature="0"
     id="path4165"
     d="m 1271.4929,506.40438 -7.6276,-0.0146 c 0,0 -12.8433,1.4076 -12.8433,17.93 l 0,3.34904 c 0,2.1889 2.2734,1.89301 2.2734,1.89301 l 17.4703,-0.22287 c 1.5596,0 3.59,-1.52844 3.59,-3.50897 l -0.1186,-17.074 c 0,0 -0.2616,-2.34681 -2.7442,-2.35157 z"
     style="opacity:1;fill:none;fill-rule:evenodd;stroke:#ff0000;stroke-width:0.35433073;stroke-linecap:butt;stroke-linejoin:miter;stroke-miterlimit:4;stroke-dasharray:none;stroke-opacity:1" />
  <path
     inkscape:connector-curvature="0"
     id="path4167"
     d="m 1465.8029,496.15123 -203.2827,0 c -12.3395,0 -22.2734,9.93493 -22.2734,22.27557 l 0,203.30261 c 0,12.3406 7.6523,22.2756 19.9918,22.2756 l 184.7556,0 c 2.9318,-3.0774 -0.023,-18.2649 9.0376,-19.4008 8.8425,-0.8361 6.512,19.4008 13.743,19.4008 16.7999,-0.2536 20.3015,-5.2479 20.3015,-19.7658 0,-7.4427 -16.652,-7.0886 -16.652,-15.1806 0,-7.1321 16.652,-6.1006 16.652,-10.4832 l 0,-58.96339 c 0,0 0.4864,-3.88591 -2.9978,-4.08794 l -26.2147,-1.52001 c 0,0 -4.5395,-0.65929 -4.5395,-5.76068 l 0,-19.0547 c 0,-4.3443 4.8157,-4.65698 4.8157,-4.65698 l 25.0492,-1.36511 c 3.9091,-0.10764 3.8871,-3.58528 3.8871,-3.58528 l 0,-81.15452 c 0,-12.34064 -9.9339,-22.27557 -22.2734,-22.27557 z"
     style="opacity:1;fill:none;stroke:#ff0000;stroke-width:0.35433073;stroke-linejoin:round;stroke-miterlimit:4;stroke-dasharray:none;stroke-opacity:1" />
  <path
     inkscape:connector-curvature="0"
     id="path4169"
     d="m 1023.4637,506.4044 -7.6283,-0.0146 c 0,0 -12.8446,1.4076 -12.8446,17.93007 l 0,3.34906 c 0,2.1889 2.2736,1.89301 2.2736,1.89301 l 17.4721,-0.22287 c 1.5597,0 3.5903,-1.52845 3.5903,-3.50899 l -0.1186,-17.07406 c 0,0 -0.2616,-2.34682 -2.7445,-2.35158 z"
     style="opacity:1;fill:none;fill-rule:evenodd;stroke:#ff0000;stroke-width:0.35433073;stroke-linecap:butt;stroke-linejoin:miter;stroke-miterlimit:4;stroke-dasharray:none;stroke-opacity:1" />
  <path
     inkscape:connector-curvature="0"
     id="path4171"
     d="m 1217.793,496.15121 -203.3029,0 c -12.3407,0 -22.27559,9.93496 -22.27559,22.27566 l 0,180.72094 c 0,7.9287 8.29299,6.829 8.29299,6.829 l 20.2731,-0.115 c 12.3879,-0.07 12.0902,8.1389 12.0508,20.4322 l -0.033,10.1808 c 0,0 0.9283,7.5312 6.8188,7.5312 l 157.3647,0 c 2.9321,-3.0774 -0.023,-18.265 9.0385,-19.401 8.8434,-0.836 6.5127,19.401 13.7444,19.401 16.8016,-0.2537 20.3035,-5.2479 20.3035,-19.7659 0,-7.4427 -16.6537,-7.0886 -16.6537,-15.1807 0,-7.1321 16.6537,-6.1006 16.6537,-10.4832 l 0,-180.14934 c 0,-12.3407 -9.9349,-22.27566 -22.2756,-22.27566 z"
     style="opacity:1;fill:none;stroke:#ff0000;stroke-width:0.35433073;stroke-linejoin:round;stroke-miterlimit:4;stroke-dasharray:none;stroke-opacity:1" />
  <path
     inkscape:connector-curvature="0"
     style="opacity:1;fill:none;fill-rule:evenodd;stroke:#ff0000;stroke-width:0.35433073;stroke-linecap:butt;stroke-linejoin:miter;stroke-miterlimit:4;stroke-dasharray:none;stroke-opacity:1"
     d="m 1767.5557,506.40438 -7.6276,-0.0146 c 0,0 -12.8433,1.4076 -12.8433,17.93 l 0,3.34904 c 0,2.1889 2.2734,1.89301 2.2734,1.89301 l 17.4703,-0.22287 c 1.5596,0 3.59,-1.52844 3.59,-3.50897 l -0.1186,-17.074 c 0,0 -0.2616,-2.34681 -2.7442,-2.35157 z"
     id="path4173" />
  <path
     inkscape:connector-curvature="0"
     style="opacity:1;fill:none;stroke:#ff0000;stroke-width:0.35433073;stroke-linejoin:round;stroke-miterlimit:4;stroke-dasharray:none;stroke-opacity:1"
     d="m 1961.8657,496.15123 -203.2827,0 c -12.3395,0 -22.2734,9.93493 -22.2734,22.27557 l 0,203.30261 c 0,12.3406 7.6523,22.2756 19.9918,22.2756 l 184.7556,0 c 2.9317,-3.0774 -0.023,-18.2649 9.0376,-19.4008 8.8425,-0.8361 6.512,19.4008 13.7429,19.4008 16.8,-0.2536 20.3016,-5.2479 20.3016,-19.7658 0,-7.4427 -16.652,-7.0886 -16.652,-15.1806 0,-7.1321 16.652,-6.1006 16.652,-10.4832 l 0,-58.96339 c 0,0 0.4863,-3.88591 -2.9978,-4.08794 l -26.2147,-1.52001 c 0,0 -4.5395,-0.65929 -4.5395,-5.76068 l 0,-19.0547 c 0,-4.3443 4.8156,-4.65698 4.8156,-4.65698 l 25.0493,-1.36511 c 3.9091,-0.10764 3.8871,-3.58528 3.8871,-3.58528 l 0,-81.15452 c 0,-12.34064 -9.9339,-22.27557 -22.2734,-22.27557 z"
     id="path4175" />
  <path
     inkscape:connector-curvature="0"
     style="opacity:1;fill:none;fill-rule:evenodd;stroke:#ff0000;stroke-width:0.35433073;stroke-linecap:butt;stroke-linejoin:miter;stroke-miterlimit:4;stroke-dasharray:none;stroke-opacity:1"
     d="m 1519.5265,506.4044 -7.6283,-0.0146 c 0,0 -12.8446,1.4076 -12.8446,17.93007 l 0,3.34906 c 0,2.1889 2.2736,1.89301 2.2736,1.89301 l 17.4721,-0.22287 c 1.5597,0 3.5903,-1.52845 3.5903,-3.50899 l -0.1186,-17.07406 c 0,0 -0.2616,-2.34682 -2.7445,-2.35158 z"
     id="path4177" />
  <path
     inkscape:connector-curvature="0"
     style="opacity:1;fill:none;stroke:#ff0000;stroke-width:0.35433073;stroke-linejoin:round;stroke-miterlimit:4;stroke-dasharray:none;stroke-opacity:1"
     d="m 1713.8558,496.15121 -203.3029,0 c -12.3407,0 -22.2756,9.93496 -22.2756,22.27566 l 0,180.72094 c 0,7.9287 8.293,6.829 8.293,6.829 l 20.273,-0.115 c 12.388,-0.07 12.0902,8.1389 12.0508,20.4322 l -0.033,10.1808 c 0,0 0.9283,7.5312 6.8187,7.5312 l 157.3648,0 c 2.9321,-3.0774 -0.023,-18.265 9.0385,-19.401 8.8434,-0.836 6.5126,19.401 13.7443,19.401 16.8017,-0.2537 20.3036,-5.2479 20.3036,-19.7659 0,-7.4427 -16.6537,-7.0886 -16.6537,-15.1807 0,-7.1321 16.6537,-6.1006 16.6537,-10.4832 l 0,-180.14934 c 0,-12.3407 -9.9349,-22.27566 -22.2756,-22.27566 z"
     id="path4179" />
  <path
     id="path4181"
     d="m 279.36707,258.37287 -7.62754,-0.0146 c 0,0 -12.84332,1.4076 -12.84332,17.93 l 0,3.34904 c 0,2.1889 2.27334,1.89301 2.27334,1.89301 l 17.47037,-0.22287 c 1.55955,0 3.58995,-1.52844 3.58995,-3.50897 l -0.11856,-17.074 c 0,0 -0.26158,-2.34681 -2.74424,-2.35157 z"
     style="opacity:1;fill:none;fill-rule:evenodd;stroke:#ff0000;stroke-width:0.35433073;stroke-linecap:butt;stroke-linejoin:miter;stroke-miterlimit:4;stroke-dasharray:none;stroke-opacity:1"
     inkscape:connector-curvature="0" />
  <path
     id="path4183"
     d="m 473.6771,248.11972 -203.2827,0 c -12.33947,0 -22.27342,9.93493 -22.27342,22.27557 l 0,203.30261 c 0,12.3406 7.65235,22.2756 19.99182,22.2756 l 184.75559,0 c 2.93175,-3.0774 -0.0232,-18.2649 9.03757,-19.4008 8.84254,-0.8361 6.512,19.4008 13.74298,19.4008 16.79999,-0.2536 20.30156,-5.2479 20.30156,-19.7658 0,-7.4427 -16.65204,-7.0886 -16.65204,-15.1806 0,-7.1321 16.65204,-6.1006 16.65204,-10.4832 l 0,-58.96339 c 0,0 0.48634,-3.88591 -2.99778,-4.08794 l -26.21474,-1.52001 c 0,0 -4.53951,-0.65929 -4.53951,-5.76068 l 0,-19.0547 c 0,-4.3443 4.81567,-4.65698 4.81567,-4.65698 l 25.04923,-1.36511 c 3.90908,-0.10764 3.88713,-3.58528 3.88713,-3.58528 l 0,-81.15452 c 0,-12.34064 -9.93393,-22.27557 -22.2734,-22.27557 z"
     style="opacity:1;fill:none;stroke:#ff0000;stroke-width:0.35433073;stroke-linejoin:round;stroke-miterlimit:4;stroke-dasharray:none;stroke-opacity:1"
     inkscape:connector-curvature="0" />
  <path
     id="path4185"
     d="m 31.337887,258.37289 -7.628292,-0.0146 c 0,0 -12.8446,1.4076 -12.8446,17.93007 l 0,3.34906 c 0,2.1889 2.273569,1.89301 2.273569,1.89301 l 17.472109,-0.22287 c 1.559702,0 3.590301,-1.52845 3.590301,-3.50899 l -0.118571,-17.07406 c 0,0 -0.26161,-2.34682 -2.744516,-2.35158 z"
     style="opacity:1;fill:none;fill-rule:evenodd;stroke:#ff0000;stroke-width:0.35433073;stroke-linecap:butt;stroke-linejoin:miter;stroke-miterlimit:4;stroke-dasharray:none;stroke-opacity:1"
     inkscape:connector-curvature="0" />
  <path
     id="path4187"
     d="m 225.66721,248.1197 -203.302877,0 c -12.340697,0 -22.27563494,9.93496 -22.27563494,22.27566 l 0,180.72094 c 0,7.9287 8.29302704,6.829 8.29302704,6.829 l 20.2730209,-0.115 c 12.38797,-0.07 12.0902,8.1389 12.050798,20.4322 l -0.03263,10.1808 c 0,0 0.928306,7.5312 6.818727,7.5312 l 157.364789,0 c 2.93204,-3.0774 -0.0232,-18.265 9.03847,-19.401 8.84341,-0.836 6.51264,19.401 13.74434,19.401 16.80166,-0.2537 20.30358,-5.2479 20.30358,-19.7659 0,-7.4427 -16.6537,-7.0886 -16.6537,-15.1807 0,-7.1321 16.6537,-6.1006 16.6537,-10.4832 l 0,-180.14934 c 0,-12.3407 -9.93492,-22.27566 -22.27562,-22.27566 z"
     style="opacity:1;fill:none;stroke:#ff0000;stroke-width:0.35433073;stroke-linejoin:round;stroke-miterlimit:4;stroke-dasharray:none;stroke-opacity:1"
     inkscape:connector-curvature="0" />
  <path
     style="opacity:1;fill:none;fill-rule:evenodd;stroke:#ff0000;stroke-width:0.35433073;stroke-linecap:butt;stroke-linejoin:miter;stroke-miterlimit:4;stroke-dasharray:none;stroke-opacity:1"
     d="m 775.42988,258.37287 -7.62754,-0.0146 c 0,0 -12.84332,1.4076 -12.84332,17.93 l 0,3.34904 c 0,2.1889 2.27334,1.89301 2.27334,1.89301 l 17.47037,-0.22287 c 1.55955,0 3.58995,-1.52844 3.58995,-3.50897 l -0.11856,-17.074 c 0,0 -0.26158,-2.34681 -2.74424,-2.35157 z"
     id="path4189"
     inkscape:connector-curvature="0" />
  <path
     style="opacity:1;fill:none;stroke:#ff0000;stroke-width:0.35433073;stroke-linejoin:round;stroke-miterlimit:4;stroke-dasharray:none;stroke-opacity:1"
     d="m 969.73991,248.11972 -203.2827,0 c -12.33947,0 -22.27342,9.93493 -22.27342,22.27557 l 0,203.30261 c 0,12.3406 7.65235,22.2756 19.99182,22.2756 l 184.75559,0 c 2.93175,-3.0774 -0.0232,-18.2649 9.03757,-19.4008 8.84254,-0.8361 6.512,19.4008 13.74298,19.4008 16.79999,-0.2536 20.30156,-5.2479 20.30156,-19.7658 0,-7.4427 -16.65204,-7.0886 -16.65204,-15.1806 0,-7.1321 16.65204,-6.1006 16.65204,-10.4832 l 0,-58.96339 c 0,0 0.48634,-3.88591 -2.99778,-4.08794 l -26.21474,-1.52001 c 0,0 -4.53951,-0.65929 -4.53951,-5.76068 l 0,-19.0547 c 0,-4.3443 4.81567,-4.65698 4.81567,-4.65698 l 25.04923,-1.36511 c 3.90908,-0.10764 3.88713,-3.58528 3.88713,-3.58528 l 0,-81.15452 c 0,-12.34064 -9.93393,-22.27557 -22.2734,-22.27557 z"
     id="path4191"
     inkscape:connector-curvature="0" />
  <path
     style="opacity:1;fill:none;fill-rule:evenodd;stroke:#ff0000;stroke-width:0.35433073;stroke-linecap:butt;stroke-linejoin:miter;stroke-miterlimit:4;stroke-dasharray:none;stroke-opacity:1"
     d="m 527.4007,258.37289 -7.62829,-0.0146 c 0,0 -12.8446,1.4076 -12.8446,17.93007 l 0,3.34906 c 0,2.1889 2.27356,1.89301 2.27356,1.89301 l 17.47211,-0.22287 c 1.55971,0 3.5903,-1.52845 3.5903,-3.50899 l -0.11857,-17.07406 c 0,0 -0.26161,-2.34682 -2.74451,-2.35158 z"
     id="path4193"
     inkscape:connector-curvature="0" />
  <path
     style="opacity:1;fill:none;stroke:#ff0000;stroke-width:0.35433073;stroke-linejoin:round;stroke-miterlimit:4;stroke-dasharray:none;stroke-opacity:1"
     d="m 721.73002,248.1197 -203.30288,0 c -12.34069,0 -22.27563,9.93496 -22.27563,22.27566 l 0,180.72094 c 0,7.9287 8.29303,6.829 8.29303,6.829 l 20.27302,-0.115 c 12.38797,-0.07 12.0902,8.1389 12.05079,20.4322 l -0.0326,10.1808 c 0,0 0.92831,7.5312 6.81873,7.5312 l 157.36479,0 c 2.93204,-3.0774 -0.0232,-18.265 9.03847,-19.401 8.84341,-0.836 6.51264,19.401 13.74434,19.401 16.80166,-0.2537 20.30358,-5.2479 20.30358,-19.7659 0,-7.4427 -16.6537,-7.0886 -16.6537,-15.1807 0,-7.1321 16.6537,-6.1006 16.6537,-10.4832 l 0,-180.14934 c 0,-12.3407 -9.93492,-22.27566 -22.27562,-22.27566 z"
     id="path4195"
     inkscape:connector-curvature="0" />
  <path
     style="opacity:1;fill:none;fill-rule:evenodd;stroke:#ff0000;stroke-width:0.35433073;stroke-linecap:butt;stroke-linejoin:miter;stroke-miterlimit:4;stroke-dasharray:none;stroke-opacity:1"
     d="m 1271.4929,258.37287 -7.6276,-0.0146 c 0,0 -12.8433,1.4076 -12.8433,17.93 l 0,3.34904 c 0,2.1889 2.2734,1.89301 2.2734,1.89301 l 17.4703,-0.22287 c 1.5596,0 3.59,-1.52844 3.59,-3.50897 l -0.1186,-17.074 c 0,0 -0.2616,-2.34681 -2.7442,-2.35157 z"
     id="path4197"
     inkscape:connector-curvature="0" />
  <path
     style="opacity:1;fill:none;stroke:#ff0000;stroke-width:0.35433073;stroke-linejoin:round;stroke-miterlimit:4;stroke-dasharray:none;stroke-opacity:1"
     d="m 1465.8029,248.11972 -203.2827,0 c -12.3395,0 -22.2734,9.93493 -22.2734,22.27557 l 0,203.30261 c 0,12.3406 7.6523,22.2756 19.9918,22.2756 l 184.7556,0 c 2.9318,-3.0774 -0.023,-18.2649 9.0376,-19.4008 8.8425,-0.8361 6.512,19.4008 13.743,19.4008 16.7999,-0.2536 20.3015,-5.2479 20.3015,-19.7658 0,-7.4427 -16.652,-7.0886 -16.652,-15.1806 0,-7.1321 16.652,-6.1006 16.652,-10.4832 l 0,-58.96339 c 0,0 0.4864,-3.88591 -2.9978,-4.08794 l -26.2147,-1.52001 c 0,0 -4.5395,-0.65929 -4.5395,-5.76068 l 0,-19.0547 c 0,-4.3443 4.8157,-4.65698 4.8157,-4.65698 l 25.0492,-1.36511 c 3.9091,-0.10764 3.8871,-3.58528 3.8871,-3.58528 l 0,-81.15452 c 0,-12.34064 -9.9339,-22.27557 -22.2734,-22.27557 z"
     id="path4199"
     inkscape:connector-curvature="0" />
  <path
     style="opacity:1;fill:none;fill-rule:evenodd;stroke:#ff0000;stroke-width:0.35433073;stroke-linecap:butt;stroke-linejoin:miter;stroke-miterlimit:4;stroke-dasharray:none;stroke-opacity:1"
     d="m 1023.4637,258.37289 -7.6283,-0.0146 c 0,0 -12.8446,1.4076 -12.8446,17.93007 l 0,3.34906 c 0,2.1889 2.2736,1.89301 2.2736,1.89301 l 17.4721,-0.22287 c 1.5597,0 3.5903,-1.52845 3.5903,-3.50899 l -0.1186,-17.07406 c 0,0 -0.2616,-2.34682 -2.7445,-2.35158 z"
     id="path4201"
     inkscape:connector-curvature="0" />
  <path
     style="opacity:1;fill:none;stroke:#ff0000;stroke-width:0.35433073;stroke-linejoin:round;stroke-miterlimit:4;stroke-dasharray:none;stroke-opacity:1"
     d="m 1217.793,248.1197 -203.3029,0 c -12.3407,0 -22.27559,9.93496 -22.27559,22.27566 l 0,180.72094 c 0,7.9287 8.29299,6.829 8.29299,6.829 l 20.2731,-0.115 c 12.3879,-0.07 12.0902,8.1389 12.0508,20.4322 l -0.033,10.1808 c 0,0 0.9283,7.5312 6.8188,7.5312 l 157.3647,0 c 2.9321,-3.0774 -0.023,-18.265 9.0385,-19.401 8.8434,-0.836 6.5127,19.401 13.7444,19.401 16.8016,-0.2537 20.3035,-5.2479 20.3035,-19.7659 0,-7.4427 -16.6537,-7.0886 -16.6537,-15.1807 0,-7.1321 16.6537,-6.1006 16.6537,-10.4832 l 0,-180.14934 c 0,-12.3407 -9.9349,-22.27566 -22.2756,-22.27566 z"
     id="path4203"
     inkscape:connector-curvature="0" />
  <path
     id="path4205"
     d="m 1767.5557,258.37287 -7.6276,-0.0146 c 0,0 -12.8433,1.4076 -12.8433,17.93 l 0,3.34904 c 0,2.1889 2.2734,1.89301 2.2734,1.89301 l 17.4703,-0.22287 c 1.5596,0 3.59,-1.52844 3.59,-3.50897 l -0.1186,-17.074 c 0,0 -0.2616,-2.34681 -2.7442,-2.35157 z"
     style="opacity:1;fill:none;fill-rule:evenodd;stroke:#ff0000;stroke-width:0.35433073;stroke-linecap:butt;stroke-linejoin:miter;stroke-miterlimit:4;stroke-dasharray:none;stroke-opacity:1"
     inkscape:connector-curvature="0" />
  <path
     id="path4207"
     d="m 1961.8657,248.11972 -203.2827,0 c -12.3395,0 -22.2734,9.93493 -22.2734,22.27557 l 0,203.30261 c 0,12.3406 7.6523,22.2756 19.9918,22.2756 l 184.7556,0 c 2.9317,-3.0774 -0.023,-18.2649 9.0376,-19.4008 8.8425,-0.8361 6.512,19.4008 13.7429,19.4008 16.8,-0.2536 20.3016,-5.2479 20.3016,-19.7658 0,-7.4427 -16.652,-7.0886 -16.652,-15.1806 0,-7.1321 16.652,-6.1006 16.652,-10.4832 l 0,-58.96339 c 0,0 0.4863,-3.88591 -2.9978,-4.08794 l -26.2147,-1.52001 c 0,0 -4.5395,-0.65929 -4.5395,-5.76068 l 0,-19.0547 c 0,-4.3443 4.8156,-4.65698 4.8156,-4.65698 l 25.0493,-1.36511 c 3.9091,-0.10764 3.8871,-3.58528 3.8871,-3.58528 l 0,-81.15452 c 0,-12.34064 -9.9339,-22.27557 -22.2734,-22.27557 z"
     style="opacity:1;fill:none;stroke:#ff0000;stroke-width:0.35433073;stroke-linejoin:round;stroke-miterlimit:4;stroke-dasharray:none;stroke-opacity:1"
     inkscape:connector-curvature="0" />
  <path
     id="path4209"
     d="m 1519.5265,258.37289 -7.6283,-0.0146 c 0,0 -12.8446,1.4076 -12.8446,17.93007 l 0,3.34906 c 0,2.1889 2.2736,1.89301 2.2736,1.89301 l 17.4721,-0.22287 c 1.5597,0 3.5903,-1.52845 3.5903,-3.50899 l -0.1186,-17.07406 c 0,0 -0.2616,-2.34682 -2.7445,-2.35158 z"
     style="opacity:1;fill:none;fill-rule:evenodd;stroke:#ff0000;stroke-width:0.35433073;stroke-linecap:butt;stroke-linejoin:miter;stroke-miterlimit:4;stroke-dasharray:none;stroke-opacity:1"
     inkscape:connector-curvature="0" />
  <path
     id="path4211"
     d="m 1713.8558,248.1197 -203.3029,0 c -12.3407,0 -22.2756,9.93496 -22.2756,22.27566 l 0,180.72094 c 0,7.9287 8.293,6.829 8.293,6.829 l 20.273,-0.115 c 12.388,-0.07 12.0902,8.1389 12.0508,20.4322 l -0.033,10.1808 c 0,0 0.9283,7.5312 6.8187,7.5312 l 157.3648,0 c 2.9321,-3.0774 -0.023,-18.265 9.0385,-19.401 8.8434,-0.836 6.5126,19.401 13.7443,19.401 16.8017,-0.2537 20.3036,-5.2479 20.3036,-19.7659 0,-7.4427 -16.6537,-7.0886 -16.6537,-15.1807 0,-7.1321 16.6537,-6.1006 16.6537,-10.4832 l 0,-180.14934 c 0,-12.3407 -9.9349,-22.27566 -22.2756,-22.27566 z"
     style="opacity:1;fill:none;stroke:#ff0000;stroke-width:0.35433073;stroke-linejoin:round;stroke-miterlimit:4;stroke-dasharray:none;stroke-opacity:1"
     inkscape:connector-curvature="0" />
  <path
     inkscape:connector-curvature="0"
     style="opacity:1;fill:none;fill-rule:evenodd;stroke:#ff0000;stroke-width:0.35433073;stroke-linecap:butt;stroke-linejoin:miter;stroke-miterlimit:4;stroke-dasharray:none;stroke-opacity:1"
     d="m 279.36707,10.34136 -7.62754,-0.0146 c 0,0 -12.84332,1.4076 -12.84332,17.93 l 0,3.34904 c 0,2.1889 2.27334,1.89301 2.27334,1.89301 l 17.47037,-0.22287 c 1.55955,0 3.58995,-1.52844 3.58995,-3.50897 l -0.11856,-17.074 c 0,0 -0.26158,-2.34681 -2.74424,-2.35157 z"
     id="path4213" />
  <path
     inkscape:connector-curvature="0"
     style="opacity:1;fill:none;stroke:#ff0000;stroke-width:0.35433073;stroke-linejoin:round;stroke-miterlimit:4;stroke-dasharray:none;stroke-opacity:1"
     d="m 473.6771,0.08821013 -203.2827,0 c -12.33947,0 -22.27342,9.93492987 -22.27342,22.27556987 l 0,203.30261 c 0,12.3406 7.65235,22.2756 19.99182,22.2756 l 184.75559,0 c 2.93175,-3.0774 -0.0232,-18.2649 9.03757,-19.4008 8.84254,-0.8361 6.512,19.4008 13.74298,19.4008 16.79999,-0.2536 20.30156,-5.2479 20.30156,-19.7658 0,-7.4427 -16.65204,-7.0886 -16.65204,-15.1806 0,-7.1321 16.65204,-6.1006 16.65204,-10.4832 l 0,-58.96339 c 0,0 0.48634,-3.88591 -2.99778,-4.08794 l -26.21474,-1.52001 c 0,0 -4.53951,-0.65929 -4.53951,-5.76068 l 0,-19.0547 c 0,-4.3443 4.81567,-4.65698 4.81567,-4.65698 l 25.04923,-1.36511 c 3.90908,-0.10764 3.88713,-3.58528 3.88713,-3.58528 l 0,-81.15452 c 0,-12.34064 -9.93393,-22.27556987 -22.2734,-22.27556987 z"
     id="path4215" />
  <path
     inkscape:connector-curvature="0"
     style="opacity:1;fill:none;fill-rule:evenodd;stroke:#ff0000;stroke-width:0.35433073;stroke-linecap:butt;stroke-linejoin:miter;stroke-miterlimit:4;stroke-dasharray:none;stroke-opacity:1"
     d="m 31.337887,10.34138 -7.628292,-0.0146 c 0,0 -12.8446,1.4076 -12.8446,17.93007 l 0,3.34906 c 0,2.1889 2.273569,1.89301 2.273569,1.89301 l 17.472109,-0.22287 c 1.559702,0 3.590301,-1.52845 3.590301,-3.50899 L 34.082403,12.693 c 0,0 -0.26161,-2.34682 -2.744516,-2.35158 z"
     id="path4217" />
  <path
     inkscape:connector-curvature="0"
     style="opacity:1;fill:none;stroke:#ff0000;stroke-width:0.35433073;stroke-linejoin:round;stroke-miterlimit:4;stroke-dasharray:none;stroke-opacity:1"
     d="m 225.66721,0.08819013 -203.302877,0 C 10.023636,0.08819013 0.08869806,10.02315 0.08869806,22.36385 l 0,180.72094 c 0,7.9287 8.29302704,6.829 8.29302704,6.829 l 20.2730209,-0.115 c 12.38797,-0.07 12.0902,8.1389 12.050798,20.4322 l -0.03263,10.1808 c 0,0 0.928306,7.5312 6.818727,7.5312 l 157.364789,0 c 2.93204,-3.0774 -0.0232,-18.265 9.03847,-19.401 8.84341,-0.836 6.51264,19.401 13.74434,19.401 16.80166,-0.2537 20.30358,-5.2479 20.30358,-19.7659 0,-7.4427 -16.6537,-7.0886 -16.6537,-15.1807 0,-7.1321 16.6537,-6.1006 16.6537,-10.4832 l 0,-180.14934 c 0,-12.3407 -9.93492,-22.27565987 -22.27562,-22.27565987 z"
     id="path4219" />
  <path
     inkscape:connector-curvature="0"
     id="path4221"
     d="m 775.42988,10.34136 -7.62754,-0.0146 c 0,0 -12.84332,1.4076 -12.84332,17.93 l 0,3.34904 c 0,2.1889 2.27334,1.89301 2.27334,1.89301 l 17.47037,-0.22287 c 1.55955,0 3.58995,-1.52844 3.58995,-3.50897 l -0.11856,-17.074 c 0,0 -0.26158,-2.34681 -2.74424,-2.35157 z"
     style="opacity:1;fill:none;fill-rule:evenodd;stroke:#ff0000;stroke-width:0.35433073;stroke-linecap:butt;stroke-linejoin:miter;stroke-miterlimit:4;stroke-dasharray:none;stroke-opacity:1" />
  <path
     inkscape:connector-curvature="0"
     id="path4223"
     d="m 969.73991,0.08821013 -203.2827,0 c -12.33947,0 -22.27342,9.93492987 -22.27342,22.27556987 l 0,203.30261 c 0,12.3406 7.65235,22.2756 19.99182,22.2756 l 184.75559,0 c 2.93175,-3.0774 -0.0232,-18.2649 9.03757,-19.4008 8.84254,-0.8361 6.512,19.4008 13.74298,19.4008 16.79999,-0.2536 20.30156,-5.2479 20.30156,-19.7658 0,-7.4427 -16.65204,-7.0886 -16.65204,-15.1806 0,-7.1321 16.65204,-6.1006 16.65204,-10.4832 l 0,-58.96339 c 0,0 0.48634,-3.88591 -2.99778,-4.08794 l -26.21474,-1.52001 c 0,0 -4.53951,-0.65929 -4.53951,-5.76068 l 0,-19.0547 c 0,-4.3443 4.81567,-4.65698 4.81567,-4.65698 l 25.04923,-1.36511 c 3.90908,-0.10764 3.88713,-3.58528 3.88713,-3.58528 l 0,-81.15452 c 0,-12.34064 -9.93393,-22.27556987 -22.2734,-22.27556987 z"
     style="opacity:1;fill:none;stroke:#ff0000;stroke-width:0.35433073;stroke-linejoin:round;stroke-miterlimit:4;stroke-dasharray:none;stroke-opacity:1" />
  <path
     inkscape:connector-curvature="0"
     id="path4225"
     d="m 527.4007,10.34138 -7.62829,-0.0146 c 0,0 -12.8446,1.4076 -12.8446,17.93007 l 0,3.34906 c 0,2.1889 2.27356,1.89301 2.27356,1.89301 l 17.47211,-0.22287 c 1.55971,0 3.5903,-1.52845 3.5903,-3.50899 L 530.14521,12.693 c 0,0 -0.26161,-2.34682 -2.74451,-2.35158 z"
     style="opacity:1;fill:none;fill-rule:evenodd;stroke:#ff0000;stroke-width:0.35433073;stroke-linecap:butt;stroke-linejoin:miter;stroke-miterlimit:4;stroke-dasharray:none;stroke-opacity:1" />
  <path
     inkscape:connector-curvature="0"
     id="path4227"
     d="m 721.73002,0.08819013 -203.30288,0 c -12.34069,0 -22.27563,9.93495987 -22.27563,22.27565987 l 0,180.72094 c 0,7.9287 8.29303,6.829 8.29303,6.829 l 20.27302,-0.115 c 12.38797,-0.07 12.0902,8.1389 12.05079,20.4322 l -0.0326,10.1808 c 0,0 0.92831,7.5312 6.81873,7.5312 l 157.36479,0 c 2.93204,-3.0774 -0.0232,-18.265 9.03847,-19.401 8.84341,-0.836 6.51264,19.401 13.74434,19.401 16.80166,-0.2537 20.30358,-5.2479 20.30358,-19.7659 0,-7.4427 -16.6537,-7.0886 -16.6537,-15.1807 0,-7.1321 16.6537,-6.1006 16.6537,-10.4832 l 0,-180.14934 c 0,-12.3407 -9.93492,-22.27565987 -22.27562,-22.27565987 z"
     style="opacity:1;fill:none;stroke:#ff0000;stroke-width:0.35433073;stroke-linejoin:round;stroke-miterlimit:4;stroke-dasharray:none;stroke-opacity:1" />
  <path
     inkscape:connector-curvature="0"
     id="path4229"
     d="m 1271.4929,10.34136 -7.6276,-0.0146 c 0,0 -12.8433,1.4076 -12.8433,17.93 l 0,3.34904 c 0,2.1889 2.2734,1.89301 2.2734,1.89301 l 17.4703,-0.22287 c 1.5596,0 3.59,-1.52844 3.59,-3.50897 l -0.1186,-17.074 c 0,0 -0.2616,-2.34681 -2.7442,-2.35157 z"
     style="opacity:1;fill:none;fill-rule:evenodd;stroke:#ff0000;stroke-width:0.35433073;stroke-linecap:butt;stroke-linejoin:miter;stroke-miterlimit:4;stroke-dasharray:none;stroke-opacity:1" />
  <path
     inkscape:connector-curvature="0"
     id="path4231"
     d="m 1465.8029,0.08821013 -203.2827,0 c -12.3395,0 -22.2734,9.93492987 -22.2734,22.27556987 l 0,203.30261 c 0,12.3406 7.6523,22.2756 19.9918,22.2756 l 184.7556,0 c 2.9318,-3.0774 -0.023,-18.2649 9.0376,-19.4008 8.8425,-0.8361 6.512,19.4008 13.743,19.4008 16.7999,-0.2536 20.3015,-5.2479 20.3015,-19.7658 0,-7.4427 -16.652,-7.0886 -16.652,-15.1806 0,-7.1321 16.652,-6.1006 16.652,-10.4832 l 0,-58.96339 c 0,0 0.4864,-3.88591 -2.9978,-4.08794 l -26.2147,-1.52001 c 0,0 -4.5395,-0.65929 -4.5395,-5.76068 l 0,-19.0547 c 0,-4.3443 4.8157,-4.65698 4.8157,-4.65698 l 25.0492,-1.36511 c 3.9091,-0.10764 3.8871,-3.58528 3.8871,-3.58528 l 0,-81.15452 c 0,-12.34064 -9.9339,-22.27556987 -22.2734,-22.27556987 z"
     style="opacity:1;fill:none;stroke:#ff0000;stroke-width:0.35433073;stroke-linejoin:round;stroke-miterlimit:4;stroke-dasharray:none;stroke-opacity:1" />
  <path
     inkscape:connector-curvature="0"
     id="path4233"
     d="m 1023.4637,10.34138 -7.6283,-0.0146 c 0,0 -12.8446,1.4076 -12.8446,17.93007 l 0,3.34906 c 0,2.1889 2.2736,1.89301 2.2736,1.89301 l 17.4721,-0.22287 c 1.5597,0 3.5903,-1.52845 3.5903,-3.50899 L 1026.2082,12.693 c 0,0 -0.2616,-2.34682 -2.7445,-2.35158 z"
     style="opacity:1;fill:none;fill-rule:evenodd;stroke:#ff0000;stroke-width:0.35433073;stroke-linecap:butt;stroke-linejoin:miter;stroke-miterlimit:4;stroke-dasharray:none;stroke-opacity:1" />
  <path
     inkscape:connector-curvature="0"
     id="path4235"
     d="m 1217.793,0.08819013 -203.3029,0 c -12.3407,0 -22.27559,9.93495987 -22.27559,22.27565987 l 0,180.72094 c 0,7.9287 8.29299,6.829 8.29299,6.829 l 20.2731,-0.115 c 12.3879,-0.07 12.0902,8.1389 12.0508,20.4322 l -0.033,10.1808 c 0,0 0.9283,7.5312 6.8188,7.5312 l 157.3647,0 c 2.9321,-3.0774 -0.023,-18.265 9.0385,-19.401 8.8434,-0.836 6.5127,19.401 13.7444,19.401 16.8016,-0.2537 20.3035,-5.2479 20.3035,-19.7659 0,-7.4427 -16.6537,-7.0886 -16.6537,-15.1807 0,-7.1321 16.6537,-6.1006 16.6537,-10.4832 l 0,-180.14934 c 0,-12.3407 -9.9349,-22.27565987 -22.2756,-22.27565987 z"
     style="opacity:1;fill:none;stroke:#ff0000;stroke-width:0.35433073;stroke-linejoin:round;stroke-miterlimit:4;stroke-dasharray:none;stroke-opacity:1" />
  <path
     inkscape:connector-curvature="0"
     style="opacity:1;fill:none;fill-rule:evenodd;stroke:#ff0000;stroke-width:0.35433073;stroke-linecap:butt;stroke-linejoin:miter;stroke-miterlimit:4;stroke-dasharray:none;stroke-opacity:1"
     d="m 1767.5557,10.34136 -7.6276,-0.0146 c 0,0 -12.8433,1.4076 -12.8433,17.93 l 0,3.34904 c 0,2.1889 2.2734,1.89301 2.2734,1.89301 l 17.4703,-0.22287 c 1.5596,0 3.59,-1.52844 3.59,-3.50897 l -0.1186,-17.074 c 0,0 -0.2616,-2.34681 -2.7442,-2.35157 z"
     id="path4237" />
  <path
     inkscape:connector-curvature="0"
     style="opacity:1;fill:none;stroke:#ff0000;stroke-width:0.35433073;stroke-linejoin:round;stroke-miterlimit:4;stroke-dasharray:none;stroke-opacity:1"
     d="m 1961.8657,0.08821013 -203.2827,0 c -12.3395,0 -22.2734,9.93492987 -22.2734,22.27556987 l 0,203.30261 c 0,12.3406 7.6523,22.2756 19.9918,22.2756 l 184.7556,0 c 2.9317,-3.0774 -0.023,-18.2649 9.0376,-19.4008 8.8425,-0.8361 6.512,19.4008 13.7429,19.4008 16.8,-0.2536 20.3016,-5.2479 20.3016,-19.7658 0,-7.4427 -16.652,-7.0886 -16.652,-15.1806 0,-7.1321 16.652,-6.1006 16.652,-10.4832 l 0,-58.96339 c 0,0 0.4863,-3.88591 -2.9978,-4.08794 l -26.2147,-1.52001 c 0,0 -4.5395,-0.65929 -4.5395,-5.76068 l 0,-19.0547 c 0,-4.3443 4.8156,-4.65698 4.8156,-4.65698 l 25.0493,-1.36511 c 3.9091,-0.10764 3.8871,-3.58528 3.8871,-3.58528 l 0,-81.15452 c 0,-12.34064 -9.9339,-22.27556987 -22.2734,-22.27556987 z"
     id="path4239" />
  <path
     inkscape:connector-curvature="0"
     style="opacity:1;fill:none;fill-rule:evenodd;stroke:#ff0000;stroke-width:0.35433073;stroke-linecap:butt;stroke-linejoin:miter;stroke-miterlimit:4;stroke-dasharray:none;stroke-opacity:1"
     d="m 1519.5265,10.34138 -7.6283,-0.0146 c 0,0 -12.8446,1.4076 -12.8446,17.93007 l 0,3.34906 c 0,2.1889 2.2736,1.89301 2.2736,1.89301 l 17.4721,-0.22287 c 1.5597,0 3.5903,-1.52845 3.5903,-3.50899 L 1522.271,12.693 c 0,0 -0.2616,-2.34682 -2.7445,-2.35158 z"
     id="path4241" />
  <path
     inkscape:connector-curvature="0"
     style="opacity:1;fill:none;stroke:#ff0000;stroke-width:0.35433073;stroke-linejoin:round;stroke-miterlimit:4;stroke-dasharray:none;stroke-opacity:1"
     d="m 1713.8558,0.08819013 -203.3029,0 c -12.3407,0 -22.2756,9.93495987 -22.2756,22.27565987 l 0,180.72094 c 0,7.9287 8.293,6.829 8.293,6.829 l 20.273,-0.115 c 12.388,-0.07 12.0902,8.1389 12.0508,20.4322 l -0.033,10.1808 c 0,0 0.9283,7.5312 6.8187,7.5312 l 157.3648,0 c 2.9321,-3.0774 -0.023,-18.265 9.0385,-19.401 8.8434,-0.836 6.5126,19.401 13.7443,19.401 16.8017,-0.2537 20.3036,-5.2479 20.3036,-19.7659 0,-7.4427 -16.6537,-7.0886 -16.6537,-15.1807 0,-7.1321 16.6537,-6.1006 16.6537,-10.4832 l 0,-180.14934 c 0,-12.3407 -9.9349,-22.27565987 -22.2756,-22.27565987 z"
     id="path4243" />
</svg>
